<svg width="24" height="24" viewBox="0 0 24 24" fill="none" xmlns="http://www.w3.org/2000/svg">
<mask id="mask0_21846_77798" style="mask-type:alpha" maskUnits="userSpaceOnUse" x="0" y="0" width="24" height="24">
<rect width="24" height="24" fill="#D9D9D9"/>
</mask>
<g mask="url(#mask0_21846_77798)">
<path d="M5.45455 19C4.77273 19 4.19318 18.7731 3.71591 18.3194C3.23864 17.8657 3 17.3148 3 16.6667C3 16.1611 3.15341 15.7074 3.46023 15.3056C3.76705 14.9037 4.15909 14.625 4.63636 14.4694V9.53056C4.15909 9.375 3.76705 9.0963 3.46023 8.69444C3.15341 8.29259 3 7.83889 3 7.33333C3 6.68519 3.23864 6.13426 3.71591 5.68056C4.19318 5.22685 4.77273 5 5.45455 5C6.13636 5 6.71591 5.22685 7.19318 5.68056C7.67045 6.13426 7.90909 6.68519 7.90909 7.33333C7.90909 7.83889 7.75568 8.29259 7.44886 8.69444C7.14205 9.0963 6.75 9.375 6.27273 9.53056V11.2222H11.1818V9.53056C10.7045 9.375 10.3125 9.0963 10.0057 8.69444C9.69886 8.29259 9.54545 7.83889 9.54545 7.33333C9.54545 6.68519 9.78409 6.13426 10.2614 5.68056C10.7386 5.22685 11.3182 5 12 5C12.6818 5 13.2614 5.22685 13.7386 5.68056C14.2159 6.13426 14.4545 6.68519 14.4545 7.33333C14.4545 7.83889 14.3011 8.29259 13.9943 8.69444C13.6875 9.0963 13.2955 9.375 12.8182 9.53056V11.2222H16.9091C17.1409 11.2222 17.3352 11.1477 17.492 10.9986C17.6489 10.8495 17.7273 10.6648 17.7273 10.4444V9.53056C17.25 9.375 16.858 9.0963 16.5511 8.69444C16.2443 8.29259 16.0909 7.83889 16.0909 7.33333C16.0909 6.68519 16.3295 6.13426 16.8068 5.68056C17.2841 5.22685 17.8636 5 18.5455 5C19.2273 5 19.8068 5.22685 20.2841 5.68056C20.7614 6.13426 21 6.68519 21 7.33333C21 7.83889 20.8466 8.29259 20.5398 8.69444C20.233 9.0963 19.8409 9.375 19.3636 9.53056V10.4444C19.3636 11.0926 19.125 11.6435 18.6477 12.0972C18.1705 12.5509 17.5909 12.7778 16.9091 12.7778H12.8182V14.4694C13.2955 14.625 13.6875 14.9037 13.9943 15.3056C14.3011 15.7074 14.4545 16.1611 14.4545 16.6667C14.4545 17.3148 14.2159 17.8657 13.7386 18.3194C13.2614 18.7731 12.6818 19 12 19C11.3182 19 10.7386 18.7731 10.2614 18.3194C9.78409 17.8657 9.54545 17.3148 9.54545 16.6667C9.54545 16.1611 9.69886 15.7074 10.0057 15.3056C10.3125 14.9037 10.7045 14.625 11.1818 14.4694V12.7778H6.27273V14.4694C6.75 14.625 7.14205 14.9037 7.44886 15.3056C7.75568 15.7074 7.90909 16.1611 7.90909 16.6667C7.90909 17.3148 7.67045 17.8657 7.19318 18.3194C6.71591 18.7731 6.13636 19 5.45455 19ZM5.45455 17.4444C5.68636 17.4444 5.88068 17.3699 6.0375 17.2208C6.19432 17.0718 6.27273 16.887 6.27273 16.6667C6.27273 16.4463 6.19432 16.2616 6.0375 16.1125C5.88068 15.9634 5.68636 15.8889 5.45455 15.8889C5.22273 15.8889 5.02841 15.9634 4.87159 16.1125C4.71477 16.2616 4.63636 16.4463 4.63636 16.6667C4.63636 16.887 4.71477 17.0718 4.87159 17.2208C5.02841 17.3699 5.22273 17.4444 5.45455 17.4444ZM5.45455 8.11111C5.68636 8.11111 5.88068 8.03657 6.0375 7.8875C6.19432 7.73843 6.27273 7.5537 6.27273 7.33333C6.27273 7.11296 6.19432 6.92824 6.0375 6.77917C5.88068 6.63009 5.68636 6.55556 5.45455 6.55556C5.22273 6.55556 5.02841 6.63009 4.87159 6.77917C4.71477 6.92824 4.63636 7.11296 4.63636 7.33333C4.63636 7.5537 4.71477 7.73843 4.87159 7.8875C5.02841 8.03657 5.22273 8.11111 5.45455 8.11111ZM12 17.4444C12.2318 17.4444 12.4261 17.3699 12.583 17.2208C12.7398 17.0718 12.8182 16.887 12.8182 16.6667C12.8182 16.4463 12.7398 16.2616 12.583 16.1125C12.4261 15.9634 12.2318 15.8889 12 15.8889C11.7682 15.8889 11.5739 15.9634 11.417 16.1125C11.2602 16.2616 11.1818 16.4463 11.1818 16.6667C11.1818 16.887 11.2602 17.0718 11.417 17.2208C11.5739 17.3699 11.7682 17.4444 12 17.4444ZM12 8.11111C12.2318 8.11111 12.4261 8.03657 12.583 7.8875C12.7398 7.73843 12.8182 7.5537 12.8182 7.33333C12.8182 7.11296 12.7398 6.92824 12.583 6.77917C12.4261 6.63009 12.2318 6.55556 12 6.55556C11.7682 6.55556 11.5739 6.63009 11.417 6.77917C11.2602 6.92824 11.1818 7.11296 11.1818 7.33333C11.1818 7.5537 11.2602 7.73843 11.417 7.8875C11.5739 8.03657 11.7682 8.11111 12 8.11111ZM18.5455 8.11111C18.7773 8.11111 18.9716 8.03657 19.1284 7.8875C19.2852 7.73843 19.3636 7.5537 19.3636 7.33333C19.3636 7.11296 19.2852 6.92824 19.1284 6.77917C18.9716 6.63009 18.7773 6.55556 18.5455 6.55556C18.3136 6.55556 18.1193 6.63009 17.9625 6.77917C17.8057 6.92824 17.7273 7.11296 17.7273 7.33333C17.7273 7.5537 17.8057 7.73843 17.9625 7.8875C18.1193 8.03657 18.3136 8.11111 18.5455 8.11111Z" fill="#AFAFAF"/>
</g>
</svg>
