<svg width="34" height="34" viewBox="0 0 34 34" fill="none" xmlns="http://www.w3.org/2000/svg">
<circle cx="17" cy="17" r="17" fill="#D1DAFB"/>
<path fill-rule="evenodd" clip-rule="evenodd" d="M21.8003 20.5625C21.1145 20.5625 20.5586 21.1184 20.5586 21.8042C20.5586 22.4899 21.1145 23.0458 21.8003 23.0458C22.486 23.0458 23.0419 22.4899 23.0419 21.8042C23.0419 21.1184 22.486 20.5625 21.8003 20.5625ZM19.3086 21.8042C19.3086 20.4281 20.4242 19.3125 21.8003 19.3125C23.1764 19.3125 24.2919 20.4281 24.2919 21.8042C24.2919 23.1803 23.1764 24.2958 21.8003 24.2958C20.4242 24.2958 19.3086 23.1803 19.3086 21.8042Z" fill="#00539F"/>
<path fill-rule="evenodd" clip-rule="evenodd" d="M12.1987 20.5625C11.5129 20.5625 10.957 21.1184 10.957 21.8042C10.957 22.4899 11.5129 23.0458 12.1987 23.0458C12.8845 23.0458 13.4404 22.4899 13.4404 21.8042C13.4404 21.1184 12.8845 20.5625 12.1987 20.5625ZM9.70703 21.8042C9.70703 20.4281 10.8226 19.3125 12.1987 19.3125C13.5748 19.3125 14.6904 20.4281 14.6904 21.8042C14.6904 23.1803 13.5748 24.2958 12.1987 24.2958C10.8226 24.2958 9.70703 23.1803 9.70703 21.8042Z" fill="#00539F"/>
<path fill-rule="evenodd" clip-rule="evenodd" d="M12.1987 10.9609C11.5129 10.9609 10.957 11.5169 10.957 12.2026C10.957 12.8884 11.5129 13.4443 12.1987 13.4443C12.8845 13.4443 13.4404 12.8884 13.4404 12.2026C13.4404 11.5169 12.8845 10.9609 12.1987 10.9609ZM9.70703 12.2026C9.70703 10.8265 10.8226 9.71094 12.1987 9.71094C13.5748 9.71094 14.6904 10.8265 14.6904 12.2026C14.6904 13.5787 13.5748 14.6943 12.1987 14.6943C10.8226 14.6943 9.70703 13.5787 9.70703 12.2026Z" fill="#00539F"/>
<path fill-rule="evenodd" clip-rule="evenodd" d="M18.7065 9.83597C18.9827 10.0431 19.0386 10.4348 18.8315 10.711L17.9815 11.8443H19.9315C20.5612 11.8443 21.1482 12.0021 21.5735 12.4274C21.9987 12.8526 22.1565 13.4396 22.1565 14.0693V19.4026C22.1565 19.7478 21.8767 20.0276 21.5315 20.0276C21.1863 20.0276 20.9065 19.7478 20.9065 19.4026V14.0693C20.9065 13.6323 20.7977 13.4194 20.6896 13.3112C20.5815 13.2031 20.3685 13.0943 19.9315 13.0943H17.9815L18.8315 14.2276C19.0386 14.5038 18.9827 14.8955 18.7065 15.1026C18.4304 15.3097 18.0386 15.2538 17.8315 14.9776L16.2315 12.8443C16.0648 12.6221 16.0648 12.3165 16.2315 12.0943L17.8315 9.96097C18.0386 9.68483 18.4304 9.62887 18.7065 9.83597ZM12.4648 13.9776C12.81 13.9776 13.0898 14.2575 13.0898 14.6026V19.4026C13.0898 19.7478 12.81 20.0276 12.4648 20.0276C12.1197 20.0276 11.8398 19.7478 11.8398 19.4026V14.6026C11.8398 14.2575 12.1197 13.9776 12.4648 13.9776Z" fill="#00539F"/>
</svg>
