<svg width="24" height="24" viewBox="0 0 24 24" fill="none" xmlns="http://www.w3.org/2000/svg">
<path fill-rule="evenodd" clip-rule="evenodd" d="M19.907 4.20615C19.48 4 18.92 4 17.8 4H6.2C5.08 4 4.52 4 4.092 4.20615C3.71565 4.38741 3.40969 4.67674 3.218 5.03262C3 5.43735 3 5.9669 3 7.026V17.8733C3 18.8813 3 19.3853 3.218 19.6435C3.31174 19.7548 3.43083 19.8447 3.56641 19.9064C3.70198 19.9681 3.85053 20.0001 4.001 20C4.34926 20 4.76287 19.6873 5.58763 19.0637L7.134 17.8941C7.452 17.653 7.613 17.5319 7.792 17.4459C7.952 17.3683 8.123 17.3116 8.3 17.2775C8.499 17.2388 8.706 17.2388 9.122 17.2388H17.803C18.921 17.2388 19.481 17.2388 19.908 17.0326C20.2843 16.8513 20.5903 16.562 20.782 16.2061C21 15.8014 21 15.2719 21 14.2165V7.02317C21 5.96596 21 5.43641 20.782 5.03262C20.5899 4.67667 20.2836 4.38736 19.907 4.20615ZM18.9852 15.2169C18.9773 15.2176 18.969 15.2183 18.9604 15.219C18.7223 15.2374 18.3932 15.2388 17.803 15.2388H9.122C9.09395 15.2388 9.06528 15.2387 9.03603 15.2387C8.7113 15.238 8.31565 15.2372 7.9199 15.314C7.57481 15.3806 7.23901 15.4916 6.92201 15.645C6.55312 15.8229 6.2376 16.063 5.98561 16.2548C5.96518 16.2704 5.94516 16.2856 5.92557 16.3005L5 17.0005V7.026C5 6.51822 5.00141 6.22757 5.01486 6.02193C5.02301 6.02122 5.03158 6.02052 5.04057 6.01982C5.27914 6.00139 5.60878 6 6.2 6H17.8C18.3913 6 18.7208 6.00139 18.9592 6.01982C18.9683 6.02052 18.977 6.02124 18.9852 6.02195C18.9986 6.22709 19 6.51708 19 7.02317V14.2165C19 14.7223 18.9986 15.0119 18.9852 15.2169Z" fill="#AFAFAF"/>
</svg>
