<svg width="34" height="34" viewBox="0 0 34 34" fill="none" xmlns="http://www.w3.org/2000/svg">
<circle cx="17" cy="17" r="17" fill="#FFDA7B"/>
<path d="M10.6538 10.3359H23.3461C23.6522 10.3359 23.9456 10.453 24.162 10.6614C24.3784 10.8697 24.5 11.1524 24.5 11.447V22.5582C24.5013 22.77 24.4391 22.9778 24.3207 23.1564C24.2024 23.335 24.033 23.477 23.8329 23.5651C23.6804 23.6335 23.5143 23.669 23.3461 23.6693C23.0753 23.6686 22.8134 23.5756 22.607 23.4068C22.6035 23.4046 22.6004 23.402 22.5976 23.3991L20.2812 21.447H10.6538C10.3478 21.447 10.0543 21.33 9.83795 21.1216C9.62157 20.9132 9.5 20.6306 9.5 20.3359V11.447C9.5 11.1524 9.62157 10.8697 9.83795 10.6614C10.0543 10.453 10.3478 10.3359 10.6538 10.3359ZM10.6538 20.3359H20.2812C20.5529 20.3358 20.816 20.428 21.024 20.5964L21.0327 20.604L23.3461 22.5582V11.447H10.6538V20.3359Z" fill="#823E00"/>
</svg>
