<svg width="14" height="14" viewBox="0 0 14 14" fill="none" xmlns="http://www.w3.org/2000/svg">
<path d="M7.2974 10.6589C7.53073 10.6589 7.72795 10.5783 7.88906 10.4172C8.05017 10.2561 8.13073 10.0589 8.13073 9.82552C8.13073 9.59219 8.05017 9.39497 7.88906 9.23385C7.72795 9.07274 7.53073 8.99219 7.2974 8.99219C7.06406 8.99219 6.86684 9.07274 6.70573 9.23385C6.54462 9.39497 6.46406 9.59219 6.46406 9.82552C6.46406 10.0589 6.54462 10.2561 6.70573 10.4172C6.86684 10.5783 7.06406 10.6589 7.2974 10.6589ZM7.33073 13.3255C6.40851 13.3255 5.54184 13.1505 4.73073 12.8005C3.91962 12.4505 3.21406 11.9755 2.61406 11.3755C2.01406 10.7755 1.53906 10.07 1.18906 9.25885C0.839062 8.44774 0.664062 7.58108 0.664062 6.65885C0.664062 5.73663 0.839062 4.86997 1.18906 4.05885C1.53906 3.24774 2.01406 2.54219 2.61406 1.94219C3.21406 1.34219 3.91962 0.867188 4.73073 0.517188C5.54184 0.167187 6.40851 -0.0078125 7.33073 -0.0078125C8.25295 -0.0078125 9.11962 0.167187 9.93073 0.517188C10.7418 0.867188 11.4474 1.34219 12.0474 1.94219C12.6474 2.54219 13.1224 3.24774 13.4724 4.05885C13.8224 4.86997 13.9974 5.73663 13.9974 6.65885C13.9974 7.58108 13.8224 8.44774 13.4724 9.25885C13.1224 10.07 12.6474 10.7755 12.0474 11.3755C11.4474 11.9755 10.7418 12.4505 9.93073 12.8005C9.11962 13.1505 8.25295 13.3255 7.33073 13.3255ZM7.33073 11.9922C8.81962 11.9922 10.0807 11.4755 11.1141 10.4422C12.1474 9.40885 12.6641 8.14774 12.6641 6.65885C12.6641 5.16997 12.1474 3.90885 11.1141 2.87552C10.0807 1.84219 8.81962 1.32552 7.33073 1.32552C5.84184 1.32552 4.58073 1.84219 3.5474 2.87552C2.51406 3.90885 1.9974 5.16997 1.9974 6.65885C1.9974 8.14774 2.51406 9.40885 3.5474 10.4422C4.58073 11.4755 5.84184 11.9922 7.33073 11.9922ZM7.3974 3.79219C7.67517 3.79219 7.91684 3.88108 8.1224 4.05885C8.32795 4.23663 8.43073 4.45885 8.43073 4.72552C8.43073 4.96997 8.35573 5.18663 8.20573 5.37552C8.05573 5.56441 7.88629 5.74219 7.6974 5.90885C7.44184 6.13108 7.21684 6.37552 7.0224 6.64219C6.82795 6.90885 6.73073 7.20885 6.73073 7.54219C6.73073 7.69774 6.78906 7.8283 6.90573 7.93385C7.0224 8.03941 7.15851 8.09219 7.31406 8.09219C7.48073 8.09219 7.6224 8.03663 7.73906 7.92552C7.85573 7.81441 7.93073 7.67552 7.96406 7.50885C8.00851 7.27552 8.10851 7.06719 8.26406 6.88385C8.41962 6.70052 8.58629 6.52552 8.76406 6.35885C9.01962 6.11441 9.23906 5.84774 9.4224 5.55885C9.60573 5.26997 9.6974 4.94774 9.6974 4.59219C9.6974 4.02552 9.46684 3.56163 9.00573 3.20052C8.54462 2.83941 8.00851 2.65885 7.3974 2.65885C6.97517 2.65885 6.5724 2.74774 6.18906 2.92552C5.80573 3.1033 5.51406 3.37552 5.31406 3.74219C5.23628 3.87552 5.21128 4.01719 5.23906 4.16719C5.26684 4.31719 5.34184 4.43108 5.46406 4.50885C5.61962 4.59774 5.78073 4.62552 5.9474 4.59219C6.11406 4.55885 6.25295 4.46441 6.36406 4.30885C6.48629 4.14219 6.63906 4.01441 6.8224 3.92552C7.00573 3.83663 7.1974 3.79219 7.3974 3.79219Z" fill="#AFAFAF"/>
</svg>
