<svg width="20" height="20" viewBox="0 0 20 20" fill="none" xmlns="http://www.w3.org/2000/svg">
<mask id="mask0_21846_77755" style="mask-type:alpha" maskUnits="userSpaceOnUse" x="0" y="0" width="20" height="20">
<rect width="20" height="20" fill="#6A6E9B"/>
</mask>
<g mask="url(#mask0_21846_77755)">
<path d="M9.99739 18.3307C8.84462 18.3307 7.76128 18.112 6.7474 17.6745C5.73351 17.237 4.85156 16.6432 4.10156 15.8932C3.35156 15.1432 2.75781 14.2613 2.32031 13.2474C1.88281 12.2335 1.66406 11.1502 1.66406 9.99739C1.66406 8.84462 1.88281 7.76128 2.32031 6.7474C2.75781 5.73351 3.35156 4.85156 4.10156 4.10156C4.85156 3.35156 5.73351 2.75781 6.7474 2.32031C7.76128 1.88281 8.84462 1.66406 9.99739 1.66406C11.1641 1.66406 12.2509 1.88281 13.2578 2.32031C14.2648 2.75781 15.1432 3.35156 15.8932 4.10156C16.6432 4.85156 17.237 5.73003 17.6745 6.73698C18.112 7.74392 18.3307 8.83073 18.3307 9.99739C18.3307 10.1363 18.3273 10.2717 18.3203 10.4036C18.3134 10.5356 18.3029 10.6641 18.2891 10.7891C18.2613 11.0252 18.1606 11.2057 17.987 11.3307C17.8134 11.4557 17.6085 11.4974 17.3724 11.4557C17.1363 11.4141 16.9488 11.296 16.8099 11.1016C16.671 10.9071 16.6154 10.6918 16.6432 10.4557C16.6432 10.3863 16.6467 10.3099 16.6536 10.2266C16.6606 10.1432 16.6641 10.0668 16.6641 9.99739C16.6641 9.06684 16.4939 8.19878 16.1536 7.39323C15.8134 6.58767 15.3377 5.87934 14.7266 5.26823C14.1154 4.65712 13.4071 4.18142 12.6016 3.84115C11.796 3.50087 10.9279 3.33073 9.99739 3.33073C8.13628 3.33073 6.5599 3.97656 5.26823 5.26823C3.97656 6.5599 3.33073 8.13628 3.33073 9.99739C3.33073 11.8585 3.97656 13.4349 5.26823 14.7266C6.5599 16.0182 8.13628 16.6641 9.99739 16.6641C10.6224 16.6641 11.2231 16.5842 11.7995 16.4245C12.3759 16.2648 12.921 16.0252 13.4349 15.7057C13.6293 15.5946 13.8411 15.5529 14.0703 15.5807C14.2995 15.6085 14.4766 15.7196 14.6016 15.9141C14.7404 16.1085 14.7856 16.3203 14.737 16.5495C14.6884 16.7786 14.5668 16.9557 14.3724 17.0807C13.7196 17.4835 13.0286 17.7925 12.2995 18.0078C11.5703 18.2231 10.8029 18.3307 9.99739 18.3307ZM16.0391 14.9974C15.7474 14.9974 15.5009 14.8967 15.2995 14.6953C15.0981 14.4939 14.9974 14.2474 14.9974 13.9557C14.9974 13.6641 15.0981 13.4175 15.2995 13.2161C15.5009 13.0148 15.7474 12.9141 16.0391 12.9141C16.3307 12.9141 16.5773 13.0148 16.7786 13.2161C16.98 13.4175 17.0807 13.6641 17.0807 13.9557C17.0807 14.2474 16.98 14.4939 16.7786 14.6953C16.5773 14.8967 16.3307 14.9974 16.0391 14.9974ZM10.8307 9.66406L13.3307 12.1641C13.4835 12.3168 13.5599 12.5113 13.5599 12.7474C13.5599 12.9835 13.4835 13.1779 13.3307 13.3307C13.1779 13.4835 12.9835 13.5599 12.7474 13.5599C12.5113 13.5599 12.3168 13.4835 12.1641 13.3307L9.41406 10.5807C9.33073 10.4974 9.26823 10.4036 9.22656 10.2995C9.18489 10.1953 9.16406 10.0877 9.16406 9.97656V6.66406C9.16406 6.42795 9.24392 6.23003 9.40365 6.07031C9.56337 5.91059 9.76128 5.83073 9.99739 5.83073C10.2335 5.83073 10.4314 5.91059 10.5911 6.07031C10.7509 6.23003 10.8307 6.42795 10.8307 6.66406V9.66406Z" fill="#AFAFAF"/>
</g>
</svg>
