<svg width="14" height="14" viewBox="0 0 14 14" fill="none" xmlns="http://www.w3.org/2000/svg">
<path d="M13.9973 13.3333H11.2285V11.8106C11.2342 11.2777 11.1365 10.749 10.9413 10.2552C10.7461 9.76135 10.4571 9.31235 10.0913 8.93425C9.74178 8.54391 9.31598 8.23365 8.84172 8.02374C8.36745 7.81383 7.85539 7.70898 7.33897 7.71605C6.82056 7.70738 6.30615 7.81058 5.82906 8.01898C5.35197 8.22737 4.92284 8.53631 4.56944 8.92579C4.20229 9.30462 3.91262 9.75497 3.71746 10.2504C3.52229 10.7458 3.42556 11.2762 3.43297 11.8106V13.3333H0.664153V11.8106C0.659432 10.7485 0.905293 9.70102 1.38072 8.7577C1.85508 7.80839 2.54135 6.98766 3.38352 6.36248C2.54301 5.73941 1.85695 4.92221 1.38072 3.97683C0.904573 3.03643 0.658633 1.99115 0.664153 0.931311V0.000735228H3.43297V0.931311C3.42556 1.46565 3.52229 1.99611 3.71746 2.49151C3.91262 2.98692 4.20229 3.43727 4.56944 3.81609C4.92275 4.20548 5.35177 4.51437 5.82873 4.72276C6.30569 4.93115 6.81996 5.03441 7.33825 5.02584C7.85485 5.03292 8.36708 4.92801 8.84148 4.71796C9.31588 4.50792 9.74176 4.19747 10.0913 3.8069C10.4571 3.4288 10.7461 2.9798 10.9413 2.486C11.1365 1.9922 11.2342 1.46347 11.2285 0.930574V0H13.9973V0.930574C14.0028 1.99041 13.7569 3.03569 13.2807 3.97609C12.8073 4.91821 12.1275 5.73481 11.2948 6.36175C12.1305 6.99229 12.8107 7.81515 13.2807 8.76432C13.7545 9.70565 14.0002 10.7503 13.9973 11.8098V13.3333Z" fill="#EF018F"/>
</svg>
