<svg width="11" height="14" viewBox="0 0 11 14" fill="none" xmlns="http://www.w3.org/2000/svg">
<path d="M0.666667 11.3255C0.477778 11.3255 0.319444 11.2616 0.191667 11.1339C0.0638889 11.0061 0 10.8477 0 10.6589C0 10.47 0.0638889 10.3116 0.191667 10.1839C0.319444 10.0561 0.477778 9.99219 0.666667 9.99219H1.33333V5.32552C1.33333 4.4033 1.61111 3.58385 2.16667 2.86719C2.72222 2.15052 3.44444 1.68108 4.33333 1.45885V0.992188C4.33333 0.71441 4.43056 0.478299 4.625 0.283854C4.81945 0.0894097 5.05556 -0.0078125 5.33333 -0.0078125C5.61111 -0.0078125 5.84722 0.0894097 6.04167 0.283854C6.23611 0.478299 6.33333 0.71441 6.33333 0.992188V1.45885C7.22222 1.68108 7.94445 2.15052 8.5 2.86719C9.05556 3.58385 9.33333 4.4033 9.33333 5.32552V9.99219H10C10.1889 9.99219 10.3472 10.0561 10.475 10.1839C10.6028 10.3116 10.6667 10.47 10.6667 10.6589C10.6667 10.8477 10.6028 11.0061 10.475 11.1339C10.3472 11.2616 10.1889 11.3255 10 11.3255H0.666667ZM5.33333 13.3255C4.96667 13.3255 4.65278 13.195 4.39167 12.9339C4.13056 12.6727 4 12.3589 4 11.9922H6.66667C6.66667 12.3589 6.53611 12.6727 6.275 12.9339C6.01389 13.195 5.7 13.3255 5.33333 13.3255ZM2.66667 9.99219H8V5.32552C8 4.59219 7.73889 3.96441 7.21667 3.44219C6.69445 2.91997 6.06667 2.65885 5.33333 2.65885C4.6 2.65885 3.97222 2.91997 3.45 3.44219C2.92778 3.96441 2.66667 4.59219 2.66667 5.32552V9.99219Z" fill="#AFAFAF"/>
</svg>
