<svg width="14" height="18" viewBox="0 0 14 18" fill="none" xmlns="http://www.w3.org/2000/svg">
<path d="M13.8131 4.51406C13.9324 4.6346 14 4.79732 14 4.96808V17.3571C14 17.7127 13.7156 18 13.3636 18H0.636364C0.284375 18 0 17.7127 0 17.3571V0.642857C0 0.287277 0.284375 0 0.636364 0H9.0821C9.25114 0 9.4142 0.0683036 9.53352 0.188839L13.8131 4.51406ZM12.5324 5.26339L8.78977 1.48259V5.26339H12.5324ZM9.41062 11.5164C9.10875 11.5063 8.78778 11.5298 8.42327 11.5758C7.94003 11.2747 7.61469 10.8611 7.38361 10.2534L7.40489 10.1654L7.42954 10.0613C7.51506 9.6971 7.56099 9.43132 7.57472 9.16333C7.58506 8.96103 7.57392 8.7744 7.53832 8.60143C7.4727 8.22797 7.21119 8.0096 6.88168 7.99614C6.57443 7.98348 6.29205 8.15685 6.21986 8.42545C6.10233 8.85978 6.17114 9.43132 6.42031 10.406C6.10293 11.1704 5.68352 12.0666 5.40213 12.5665C5.02648 12.7621 4.73395 12.9401 4.48815 13.1374C4.16401 13.3979 3.96156 13.6657 3.90588 13.947C3.87884 14.0774 3.9196 14.2477 4.01247 14.3873C4.11787 14.5456 4.27656 14.6485 4.46687 14.6634C4.94713 14.7009 5.53736 14.2007 6.18903 13.0711C6.25446 13.049 6.32366 13.0257 6.40818 12.9968L6.64483 12.916C6.79457 12.865 6.90315 12.8284 7.01054 12.7933C7.47588 12.6402 7.82787 12.5435 8.14804 12.4885C8.70446 12.7894 9.34759 12.9867 9.78071 12.9867C10.1383 12.9867 10.3799 12.7995 10.4672 12.5048C10.5437 12.246 10.4831 11.9459 10.3184 11.78C10.1482 11.611 9.8352 11.5302 9.41062 11.5164ZM4.47901 14.0962V14.089L4.48159 14.0822C4.51069 14.0062 4.54804 13.9337 4.59295 13.866C4.67807 13.7338 4.7952 13.5948 4.94037 13.4468C5.01832 13.3674 5.09946 13.2901 5.19472 13.2033C5.21599 13.184 5.35202 13.0617 5.37747 13.0375L5.5996 12.8286L5.43812 13.0884C5.19312 13.4829 4.97159 13.767 4.78187 13.9522C4.71207 14.0205 4.65062 14.0707 4.60091 14.1031C4.5845 14.1142 4.56712 14.1237 4.54901 14.1316C4.54085 14.135 4.53369 14.137 4.52653 14.1376C4.51898 14.1386 4.5113 14.1376 4.50426 14.1346C4.49678 14.1315 4.49039 14.1261 4.48589 14.1193C4.4814 14.1125 4.479 14.1044 4.47901 14.0962ZM6.98349 9.71116L6.93855 9.79152L6.91071 9.70353C6.84906 9.50605 6.80372 9.20853 6.79119 8.94013C6.77688 8.63478 6.80094 8.45156 6.89639 8.45156C7.03043 8.45156 7.09187 8.66853 7.09665 8.99498C7.10102 9.28185 7.05628 9.58038 6.9833 9.71116H6.98349ZM6.86795 10.8856L6.89838 10.8042L6.93994 10.8806C7.17241 11.3073 7.47409 11.6632 7.8058 11.9113L7.87739 11.9648L7.79008 11.9829C7.46534 12.0508 7.16287 12.1528 6.74923 12.3214C6.79239 12.3037 6.31929 12.4994 6.19957 12.5458L6.09517 12.5861L6.15085 12.4881C6.39645 12.0562 6.62335 11.5375 6.86776 10.8856H6.86795ZM10.0024 12.4176C9.84614 12.4799 9.50966 12.4242 8.91724 12.1687L8.7669 12.104L8.92997 12.0919C9.39332 12.0572 9.72145 12.0829 9.91276 12.1536C9.99429 12.1837 10.0486 12.2217 10.0726 12.2651C10.0853 12.2857 10.0896 12.3104 10.0845 12.334C10.0795 12.3577 10.0655 12.3784 10.0456 12.3919C10.033 12.4031 10.0183 12.4119 10.0024 12.4176Z" fill="#DD2025"/>
</svg>
