<svg width="34" height="34" viewBox="0 0 34 34" fill="none" xmlns="http://www.w3.org/2000/svg">
<circle cx="17" cy="17" r="17" fill="#D2FBD1"/>
<path d="M20.125 17.8281C20.125 17.6624 20.0592 17.5034 19.9419 17.3862C19.8247 17.269 19.6658 17.2031 19.5 17.2031H14.5C14.3342 17.2031 14.1753 17.269 14.0581 17.3862C13.9408 17.5034 13.875 17.6624 13.875 17.8281C13.875 17.9939 13.9408 18.1529 14.0581 18.2701C14.1753 18.3873 14.3342 18.4531 14.5 18.4531H19.5C19.6658 18.4531 19.8247 18.3873 19.9419 18.2701C20.0592 18.1529 20.125 17.9939 20.125 17.8281ZM20.125 21.1615C20.125 20.9957 20.0592 20.8367 19.9419 20.7195C19.8247 20.6023 19.6658 20.5365 19.5 20.5365H14.5C14.3342 20.5365 14.1753 20.6023 14.0581 20.7195C13.9408 20.8367 13.875 20.9957 13.875 21.1615C13.875 21.3272 13.9408 21.4862 14.0581 21.6034C14.1753 21.7206 14.3342 21.7865 14.5 21.7865H19.5C19.6658 21.7865 19.8247 21.7206 19.9419 21.6034C20.0592 21.4862 20.125 21.3272 20.125 21.1615Z" fill="#036D00"/>
<path fill-rule="evenodd" clip-rule="evenodd" d="M12.8346 8.875C12.2268 8.875 11.644 9.11644 11.2142 9.54621C10.7844 9.97598 10.543 10.5589 10.543 11.1667V22.8333C10.543 23.4411 10.7844 24.024 11.2142 24.4538C11.644 24.8836 12.2268 25.125 12.8346 25.125H21.168C21.7758 25.125 22.3587 24.8836 22.7884 24.4538C23.2182 24.024 23.4596 23.4411 23.4596 22.8333V13.64C23.4596 13.3225 23.3563 13.0142 23.1646 12.7608L20.6663 9.45417C20.5304 9.27426 20.3546 9.12833 20.1527 9.02784C19.9509 8.92735 19.7285 8.87503 19.503 8.875H12.8346ZM11.793 11.1667C11.793 10.5917 12.2596 10.125 12.8346 10.125H18.8763V13.7892C18.8763 14.1342 19.1563 14.4142 19.5013 14.4142H22.2096V22.8333C22.2096 23.4083 21.743 23.875 21.168 23.875H12.8346C12.2596 23.875 11.793 23.4083 11.793 22.8333V11.1667Z" fill="#036D00"/>
</svg>
