<svg width="34" height="34" viewBox="0 0 34 34" fill="none" xmlns="http://www.w3.org/2000/svg">
<circle cx="17" cy="17" r="17" fill="#FBDDD1"/>
<path d="M11.6021 13.794C11.6021 13.6301 11.6653 13.473 11.7779 13.3572C11.8905 13.2414 12.0432 13.1763 12.2024 13.1763H18.2059C18.3652 13.1763 18.5179 13.2414 18.6305 13.3572C18.743 13.473 18.8063 13.6301 18.8063 13.794C18.8063 13.9578 18.743 14.1149 18.6305 14.2307C18.5179 14.3465 18.3652 14.4116 18.2059 14.4116H12.2024C12.0432 14.4116 11.8905 14.3465 11.7779 14.2307C11.6653 14.1149 11.6021 13.9578 11.6021 13.794ZM12.2024 16.8821C12.0432 16.8821 11.8905 16.9472 11.7779 17.063C11.6653 17.1788 11.6021 17.3359 11.6021 17.4997C11.6021 17.6636 11.6653 17.8206 11.7779 17.9365C11.8905 18.0523 12.0432 18.1174 12.2024 18.1174H18.2059C18.3652 18.1174 18.5179 18.0523 18.6305 17.9365C18.743 17.8206 18.8063 17.6636 18.8063 17.4997C18.8063 17.3359 18.743 17.1788 18.6305 17.063C18.5179 16.9472 18.3652 16.8821 18.2059 16.8821H12.2024ZM11.6021 21.2055C11.6021 21.0417 11.6653 20.8846 11.7779 20.7688C11.8905 20.653 12.0432 20.5879 12.2024 20.5879H14.6038C14.7631 20.5879 14.9158 20.653 15.0284 20.7688C15.1409 20.8846 15.2042 21.0417 15.2042 21.2055C15.2042 21.3693 15.1409 21.5264 15.0284 21.6423C14.9158 21.7581 14.7631 21.8232 14.6038 21.8232H12.2024C12.0432 21.8232 11.8905 21.7581 11.7779 21.6423C11.6653 21.5264 11.6021 21.3693 11.6021 21.2055ZM10.4014 7.61763C10.4014 7.45383 10.4647 7.29673 10.5772 7.1809C10.6898 7.06507 10.8425 7 11.0017 7C11.161 7 11.3137 7.06507 11.4263 7.1809C11.5388 7.29673 11.6021 7.45383 11.6021 7.61763V8.23526H14.6038V7.61763C14.6038 7.45383 14.6671 7.29673 14.7797 7.1809C14.8923 7.06507 15.045 7 15.2042 7C15.3634 7 15.5161 7.06507 15.6287 7.1809C15.7413 7.29673 15.8045 7.45383 15.8045 7.61763V8.23526H18.8063V7.61763C18.8063 7.45383 18.8695 7.29673 18.9821 7.1809C19.0947 7.06507 19.2474 7 19.4066 7C19.5659 7 19.7186 7.06507 19.8312 7.1809C19.9437 7.29673 20.007 7.45383 20.007 7.61763V8.23526H20.6073C21.085 8.23526 21.5431 8.43048 21.8809 8.77796C22.2186 9.12545 22.4084 9.59674 22.4084 10.0882V15.9334C22.017 16.1064 21.6496 16.3559 21.3302 16.6857L21.2077 16.8117V10.0882C21.2077 9.92435 21.1444 9.76726 21.0319 9.65143C20.9193 9.5356 20.7666 9.47053 20.6073 9.47053H9.80105C9.64183 9.47053 9.48913 9.5356 9.37654 9.65143C9.26395 9.76726 9.2007 9.92435 9.2007 10.0882V24.9113C9.2007 25.0751 9.26395 25.2322 9.37654 25.3481C9.48913 25.4639 9.64183 25.529 9.80105 25.529H14.2677L14.0719 26.3356C14.0377 26.4762 14.016 26.6196 14.0071 26.7642H9.80105C9.32338 26.7642 8.86528 26.569 8.52751 26.2215C8.18975 25.874 8 25.4027 8 24.9113V10.0882C8 9.59674 8.18975 9.12545 8.52751 8.77796C8.86528 8.43048 9.32338 8.23526 9.80105 8.23526H10.4014V7.61763ZM22.1803 17.559L16.3809 23.5254C16.0429 23.8729 15.803 24.3084 15.6869 24.7853L15.2366 26.6358C15.1922 26.8198 15.1948 27.0125 15.2442 27.1952C15.2936 27.3779 15.3881 27.5443 15.5185 27.6784C15.6489 27.8124 15.8107 27.9094 15.9884 27.9601C16.166 28.0107 16.3533 28.0132 16.5322 27.9674L18.3308 27.5054C18.7945 27.3861 19.2178 27.1393 19.5555 26.7914L25.3549 20.8251C25.7705 20.3907 26.0024 19.8049 26 19.1953C25.9976 18.5858 25.7611 18.0019 25.3421 17.571C24.923 17.1401 24.3554 16.897 23.763 16.8948C23.1705 16.8925 22.6012 17.1313 22.1791 17.559H22.1803Z" fill="#802804"/>
</svg>
