<svg width="34" height="34" viewBox="0 0 34 34" fill="none" xmlns="http://www.w3.org/2000/svg">
<circle cx="17" cy="17" r="17" fill="#FBDDD1"/>
<path d="M10.9419 13.3783C10.8244 13.4945 10.7584 13.6521 10.7584 13.8164C10.7584 13.9808 10.8244 14.1384 10.9419 14.2546C11.0593 14.3708 11.2187 14.4361 11.3848 14.4361H17.6488C17.8149 14.4361 17.9743 14.3708 18.0917 14.2546C18.2092 14.1384 18.2752 13.9808 18.2752 13.8164C18.2752 13.6521 18.2092 13.4945 18.0917 13.3783C17.9743 13.2621 17.8149 13.1968 17.6488 13.1968H11.3848C11.2187 13.1968 11.0593 13.2621 10.9419 13.3783Z" fill="#802804"/>
<path d="M10.9419 17.0963C11.0593 16.9801 11.2187 16.9148 11.3848 16.9148H17.6488C17.8149 16.9148 17.9743 16.9801 18.0917 17.0963C18.2092 17.2125 18.2752 17.3702 18.2752 17.5345C18.2752 17.6989 18.2092 17.8565 18.0917 17.9727C17.9743 18.0889 17.8149 18.1542 17.6488 18.1542H11.3848C11.2187 18.1542 11.0593 18.0889 10.9419 17.9727C10.8244 17.8565 10.7584 17.6989 10.7584 17.5345C10.7584 17.3702 10.8244 17.2125 10.9419 17.0963Z" fill="#802804"/>
<path d="M10.9419 20.8144C10.8244 20.9306 10.7584 21.0882 10.7584 21.2526C10.7584 21.4169 10.8244 21.5745 10.9419 21.6907C11.0593 21.807 11.2187 21.8722 11.3848 21.8722H13.8904C14.0565 21.8722 14.2159 21.807 14.3333 21.6907C14.4508 21.5745 14.5168 21.4169 14.5168 21.2526C14.5168 21.0882 14.4508 20.9306 14.3333 20.8144C14.2159 20.6982 14.0565 20.6329 13.8904 20.6329H11.3848C11.2187 20.6329 11.0593 20.6982 10.9419 20.8144Z" fill="#802804"/>
<path d="M9.68907 7.1815C9.5716 7.29771 9.5056 7.45533 9.5056 7.61968V8.23935H8.8792C8.38081 8.23935 7.90282 8.43521 7.55041 8.78385C7.19799 9.13249 7 9.60534 7 10.0984V24.9706C7 25.4637 7.19799 25.9365 7.55041 26.2852C7.90282 26.6338 8.38081 26.8297 8.8792 26.8297H15.4923C15.5017 26.6846 15.5243 26.5406 15.56 26.3996L15.7642 25.5903H8.8792C8.71307 25.5903 8.55374 25.525 8.43627 25.4088C8.3188 25.2926 8.2528 25.135 8.2528 24.9706V10.0984C8.2528 9.93403 8.3188 9.77642 8.43627 9.66021C8.55374 9.54399 8.71307 9.47871 8.8792 9.47871H20.1544C20.3205 9.47871 20.4799 9.54399 20.5973 9.66021C20.7148 9.77642 20.7808 9.93403 20.7808 10.0984V17.4328L20.9086 17.3064C21.2418 16.9755 21.6252 16.7153 22.0336 16.5418V10.0984C22.0336 9.60534 21.8356 9.13249 21.4832 8.78385C21.1308 8.43521 20.6528 8.23935 20.1544 8.23935H19.528V7.61968C19.528 7.45533 19.462 7.29771 19.3445 7.1815C19.2271 7.06529 19.0677 7 18.9016 7C18.7355 7 18.5762 7.06529 18.4587 7.1815C18.3412 7.29771 18.2752 7.45533 18.2752 7.61968V8.23935H15.1432V7.61968C15.1432 7.45533 15.0772 7.29771 14.9597 7.1815C14.8423 7.06529 14.6829 7 14.5168 7C14.3507 7 14.1913 7.06529 14.0739 7.1815C13.9564 7.29771 13.8904 7.45533 13.8904 7.61968V8.23935H10.7584V7.61968C10.7584 7.45533 10.6924 7.29771 10.5749 7.1815C10.4575 7.06529 10.2981 7 10.132 7C9.96587 7 9.80654 7.06529 9.68907 7.1815Z" fill="#802804"/>
<path d="M24.434 18.2056C25.2976 18.2056 26 18.9004 26 19.7548C26 20.4744 25.4989 21.0759 24.8255 21.249V24.4024C24.8255 25.043 24.2985 25.5643 23.651 25.5643H21.6555L22.5575 26.4524L22.004 27L20.7292 25.739C20.4262 25.4388 20.4262 24.95 20.7292 24.6499L22.004 23.3888L22.5575 23.9365L21.6951 24.7897H23.651C23.8667 24.7897 24.0425 24.6158 24.0425 24.4024V21.249C23.3691 21.0759 22.868 20.4744 22.868 19.7548C22.868 18.9004 23.5703 18.2056 24.434 18.2056Z" fill="#802804"/>
<path d="M21.8571 20.2997L20.5824 21.5604L20.0284 21.0128L20.9085 20.1421H18.953C18.7373 20.1421 18.5615 20.316 18.5615 20.5294V23.6828C19.2349 23.8559 19.736 24.4574 19.736 25.177C19.736 26.0314 19.0336 26.7262 18.17 26.7262C17.3063 26.7262 16.604 26.0314 16.604 25.177C16.604 24.4574 17.1051 23.8559 17.7785 23.6828V20.5294C17.7785 19.8888 18.3055 19.3675 18.953 19.3675H20.9132L20.0288 18.4969L20.5824 17.9492L21.8571 19.2107C22.1606 19.5108 22.1606 19.9996 21.8571 20.2997Z" fill="#802804"/>
</svg>
