<svg width="34" height="34" viewBox="0 0 34 34" fill="none" xmlns="http://www.w3.org/2000/svg">
<circle cx="17" cy="17" r="17" fill="#F5FBD1"/>
<path d="M24.7416 11.9091L16.4083 20.2425C16.3312 20.3197 16.2396 20.381 16.1388 20.4228C16.038 20.4647 15.9299 20.4862 15.8208 20.4862C15.7116 20.4862 15.6036 20.4647 15.5028 20.4228C15.4019 20.381 15.3104 20.3197 15.2333 20.2425L12.8749 17.8841C12.7978 17.807 12.7366 17.7154 12.6948 17.6146C12.6531 17.5138 12.6316 17.4058 12.6316 17.2966C12.6316 17.1875 12.6531 17.0795 12.6948 16.9787C12.7366 16.8779 12.7978 16.7863 12.8749 16.7091C12.9521 16.632 13.0437 16.5708 13.1445 16.529C13.2453 16.4873 13.3533 16.4658 13.4624 16.4658C13.5715 16.4658 13.6796 16.4873 13.7804 16.529C13.8812 16.5708 13.9728 16.632 14.0499 16.7091L15.8166 18.4758L23.5583 10.7341C23.6354 10.6569 23.7269 10.5956 23.8278 10.5538C23.9286 10.512 24.0366 10.4904 24.1458 10.4904C24.2549 10.4904 24.363 10.512 24.4638 10.5538C24.5646 10.5956 24.6562 10.6569 24.7333 10.7341C25.0666 11.0591 25.0666 11.5841 24.7416 11.9091ZM16.9999 23.6675C13.0749 23.6675 9.93327 20.2591 10.3749 16.2508C10.6999 13.3175 12.9749 10.9091 15.8833 10.4258C17.3916 10.1758 18.8249 10.4425 20.0416 11.0758C20.2383 11.1786 20.4678 11.199 20.6795 11.1326C20.8913 11.0662 21.068 10.9183 21.1708 10.7216C21.2735 10.5249 21.294 10.2955 21.2275 10.0837C21.1611 9.87195 21.0133 9.69525 20.8166 9.59248C19.5916 8.96748 18.2083 8.62581 16.7333 8.66748C12.4499 8.80081 8.89161 12.2841 8.67494 16.5591C8.43327 21.3675 12.2499 25.3341 16.9999 25.3341C17.9999 25.3341 18.9499 25.1591 19.8416 24.8341C20.4083 24.6258 20.5666 23.8925 20.1333 23.4591C20.0227 23.347 19.882 23.2693 19.7283 23.2353C19.5745 23.2013 19.4142 23.2125 19.2666 23.2675C18.5583 23.5258 17.7916 23.6675 16.9999 23.6675ZM22.8333 19.5008H21.1666C20.7083 19.5008 20.3333 19.8758 20.3333 20.3341C20.3333 20.7925 20.7083 21.1675 21.1666 21.1675H22.8333V22.8341C22.8333 23.2925 23.2083 23.6675 23.6666 23.6675C24.1249 23.6675 24.4999 23.2925 24.4999 22.8341V21.1675H26.1666C26.6249 21.1675 26.9999 20.7925 26.9999 20.3341C26.9999 19.8758 26.6249 19.5008 26.1666 19.5008H24.4999V17.8341C24.4999 17.3758 24.1249 17.0008 23.6666 17.0008C23.2083 17.0008 22.8333 17.3758 22.8333 17.8341V19.5008Z" fill="#606F02"/>
</svg>
