<svg width="34" height="34" viewBox="0 0 34 34" fill="none" xmlns="http://www.w3.org/2000/svg">
<circle cx="17" cy="17" r="17" fill="#D89393"/>
<path d="M23.2952 7H13.4271C12.3319 7 11.441 7.84113 11.441 8.875V9.5H10.076C9.32758 9.5 8.71875 10.1088 8.71875 10.8572V25.6428C8.71875 26.3912 9.32758 27 10.076 27H21.2018C21.9502 27 22.559 26.3912 22.559 25.6428V24.5H23.2952C24.3903 24.5 25.2812 23.6589 25.2812 22.625V8.875C25.2812 7.84113 24.3903 7 23.2952 7ZM21.309 25.6428C21.309 25.7019 21.2609 25.75 21.2018 25.75H10.076C10.0168 25.75 9.96875 25.7019 9.96875 25.6428V10.8572C9.96875 10.7981 10.0168 10.75 10.076 10.75H21.2018C21.2609 10.75 21.309 10.7981 21.309 10.8572V25.6428ZM24.0312 22.625C24.0312 22.9696 23.701 23.25 23.2952 23.25H22.559V10.8572C22.559 10.1088 21.9502 9.5 21.2018 9.5H12.691V8.875C12.691 8.53039 13.0212 8.25 13.4271 8.25H23.2952C23.701 8.25 24.0312 8.53039 24.0312 8.875V22.625Z" fill="#621E1E"/>
<path d="M18.7188 15.4375H12.7812C12.4361 15.4375 12.1562 15.1577 12.1562 14.8125C12.1562 14.4673 12.4361 14.1875 12.7812 14.1875H18.7188C19.0639 14.1875 19.3438 14.4673 19.3438 14.8125C19.3438 15.1577 19.0639 15.4375 18.7188 15.4375Z" fill="#621E1E"/>
<path d="M18.7188 17.9375H12.7812C12.4361 17.9375 12.1562 17.6577 12.1562 17.3125C12.1562 16.9673 12.4361 16.6875 12.7812 16.6875H18.7188C19.0639 16.6875 19.3438 16.9673 19.3438 17.3125C19.3438 17.6577 19.0639 17.9375 18.7188 17.9375Z" fill="#621E1E"/>
<path d="M18.7188 20.4375H12.7812C12.4361 20.4375 12.1562 20.1577 12.1562 19.8125C12.1562 19.4673 12.4361 19.1875 12.7812 19.1875H18.7188C19.0639 19.1875 19.3438 19.4673 19.3438 19.8125C19.3438 20.1577 19.0639 20.4375 18.7188 20.4375Z" fill="#621E1E"/>
</svg>
