<svg width="19" height="20" viewBox="0 0 19 20" fill="none" xmlns="http://www.w3.org/2000/svg">
<path d="M15.017 1.58793L15.017 1.58795L17.6671 4.24374L17.6672 4.24377C18.1069 4.68484 18.3539 5.28293 18.3539 5.90649C18.3539 6.53002 18.1069 7.12807 17.6672 7.56914C17.6672 7.56916 17.6672 7.56919 17.6672 7.56921M15.017 1.58793L17.5964 7.49861L17.6672 7.56921M15.017 1.58793C14.5772 1.14746 13.9809 0.9 13.3592 0.9C12.7374 0.9 12.1412 1.14746 11.7014 1.58793L9.23597 4.05427C9.09927 3.60187 8.82922 3.19975 8.45934 2.90209C8.04308 2.5671 7.5253 2.38443 6.99148 2.3843H6.99145H2.49976C1.87751 2.3843 1.2808 2.63216 0.840894 3.07326C0.400992 3.51435 0.153906 4.11255 0.153906 4.73623V16.7466C0.153906 17.5463 0.552831 18.2519 1.16086 18.6766C1.54094 18.9432 2.0055 19.1 2.50425 19.1H14.4821C15.1044 19.1 15.7011 18.8521 16.141 18.411C16.5809 17.9699 16.828 17.3717 16.828 16.7481V12.2442C16.8278 11.7229 16.655 11.2165 16.3366 10.8044C16.0531 10.4375 15.6686 10.164 15.2324 10.0163M15.017 1.58793L15.2324 10.0163M17.6672 7.56921L15.2324 10.0163M17.6672 7.56921L15.2324 10.0163M13.8169 2.78912L13.8169 2.78913L16.4685 5.44642L16.4686 5.44649C16.529 5.50691 16.577 5.57871 16.6097 5.65778C16.6424 5.73685 16.6592 5.82162 16.6592 5.90724C16.6592 5.99286 16.6424 6.07763 16.6097 6.1567C16.577 6.23577 16.529 6.30757 16.4686 6.36799L16.4685 6.36808L13.8184 9.02537L13.8183 9.02546C13.758 9.08604 13.6865 9.13409 13.6077 9.16686C13.5289 9.19964 13.4445 9.21651 13.3592 9.21651C13.2739 9.21651 13.1895 9.19964 13.1107 9.16686C13.0319 9.13409 12.9603 9.08604 12.9001 9.02546L12.9 9.02537L10.2499 6.36809C10.2499 6.36809 10.2499 6.36809 10.2499 6.36808C10.1282 6.24609 10.0599 6.0806 10.0599 5.90799C10.0599 5.73538 10.1283 5.56988 10.2499 5.44789L10.2499 5.44788L12.9 2.78912C13.0216 2.66718 13.1865 2.59872 13.3584 2.59872C13.5303 2.59872 13.6953 2.66718 13.8169 2.78912ZM1.85563 16.7472V16.7466V11.592H7.64007V17.3972H2.49976C2.41487 17.3972 2.33083 17.3804 2.25245 17.3477C2.17406 17.315 2.10288 17.2671 2.043 17.2067C1.98313 17.1463 1.93574 17.0746 1.90358 16.9957C1.87141 16.9169 1.85512 16.8324 1.85563 16.7472ZM1.75563 16.7466V11.592V16.7466ZM9.3388 7.8606L11.3635 9.89075H9.3388V7.8606ZM7.64007 4.73623V9.89075H1.85114V4.73623C1.85114 4.56358 1.91954 4.39806 2.04121 4.27606C2.16287 4.15407 2.32782 4.08559 2.49976 4.08559H6.99145C7.16339 4.08559 7.32834 4.15407 7.45 4.27606C7.57167 4.39806 7.64007 4.56358 7.64007 4.73623ZM9.3373 11.592H14.4821C14.654 11.592 14.819 11.6605 14.9407 11.7825C15.0623 11.9045 15.1307 12.07 15.1307 12.2427V16.7466C15.1307 16.9192 15.0623 17.0847 14.9407 17.2067C14.819 17.3287 14.654 17.3972 14.4821 17.3972H9.3373V11.592Z" fill="#AFAFAF" stroke="#AFAFAF" stroke-width="0.2"/>
</svg>
