<svg width="17" height="17" viewBox="0 0 17 17" fill="none" xmlns="http://www.w3.org/2000/svg">
<path d="M8.33464 10.8501C8.52352 10.8501 8.68197 10.7848 8.80997 10.6541C8.93797 10.5234 9.00175 10.3618 9.0013 10.1693C9.0013 9.97646 8.9373 9.81489 8.8093 9.68463C8.6813 9.55438 8.52308 9.48902 8.33464 9.48857C8.14575 9.48857 7.98752 9.55392 7.85997 9.68463C7.73241 9.81534 7.66841 9.97691 7.66797 10.1693C7.66797 10.3622 7.73197 10.524 7.85997 10.6547C7.98797 10.7855 8.14619 10.8506 8.33464 10.8501ZM8.33464 8.80779C8.52352 8.80779 8.68197 8.74243 8.80997 8.61172C8.93797 8.48101 9.00175 8.31944 9.0013 8.12701V5.38978C9.0013 5.1969 8.9373 5.03532 8.8093 4.90507C8.6813 4.77481 8.52308 4.70946 8.33464 4.709C8.14575 4.709 7.98752 4.77436 7.85997 4.90507C7.73241 5.03578 7.66841 5.19735 7.66797 5.38978V8.12701C7.66797 8.3199 7.73197 8.4817 7.85997 8.61241C7.98797 8.74312 8.14619 8.80824 8.33464 8.80779ZM4.33464 13.5591L2.8013 15.1249C2.59019 15.3405 2.34841 15.3888 2.07597 15.2699C1.80353 15.151 1.66753 14.9382 1.66797 14.6314V3.36156C1.66797 2.98713 1.79864 2.66671 2.05997 2.4003C2.3213 2.13389 2.63508 2.00045 3.0013 2H13.668C14.0346 2 14.3486 2.13343 14.61 2.4003C14.8713 2.66716 15.0017 2.98758 15.0013 3.36156V12.1976C15.0013 12.572 14.8709 12.8926 14.61 13.1595C14.3491 13.4264 14.0351 13.5596 13.668 13.5591H4.33464ZM3.76797 12.1976H13.668V3.36156H3.0013V12.9634L3.76797 12.1976Z" fill="#AFAFAF"/>
</svg>
