<svg width="18" height="18" viewBox="0 0 18 18" fill="none" xmlns="http://www.w3.org/2000/svg">
<path d="M11.0144 8.63594L4.78809 7.53906V15.6441C4.78816 15.7322 4.80558 15.8194 4.83934 15.9007C4.8731 15.982 4.92255 16.0559 4.98487 16.1181C5.04718 16.1803 5.12114 16.2296 5.20252 16.2632C5.28389 16.2969 5.3711 16.3141 5.45915 16.3141H16.2029C16.291 16.3143 16.3784 16.2971 16.4599 16.2636C16.5414 16.23 16.6155 16.1807 16.6779 16.1185C16.7403 16.0562 16.7899 15.9823 16.8237 15.9009C16.8576 15.8195 16.875 15.7323 16.8751 15.6441V12.6578L11.0144 8.63594Z" fill="#185C37"/>
<path d="M11.0144 1.6875H5.45915C5.3711 1.68743 5.28389 1.7047 5.20252 1.73832C5.12114 1.77195 5.04718 1.82128 4.98487 1.88349C4.92255 1.9457 4.8731 2.01957 4.83934 2.10089C4.80558 2.18221 4.78816 2.26939 4.78809 2.35744V5.34375L11.0144 9L14.3112 10.0969L16.8751 9V5.34375L11.0144 1.6875Z" fill="#21A366"/>
<path d="M4.78809 5.34375H11.0144V9H4.78809V5.34375Z" fill="#107C41"/>
<path opacity="0.1" d="M9.24421 4.60938H4.78809V13.75H9.24421C9.42177 13.7491 9.59184 13.6783 9.71755 13.5529C9.84327 13.4275 9.91451 13.2576 9.91584 13.0801V5.27931C9.91451 5.10175 9.84327 4.93187 9.71755 4.80647C9.59184 4.68107 9.42177 4.61026 9.24421 4.60938Z" fill="black"/>
<path opacity="0.2" d="M8.87802 4.97656H4.78809V14.1172H8.87802C9.05559 14.1163 9.22565 14.0455 9.35136 13.9201C9.47708 13.7947 9.54832 13.6248 9.54965 13.4473V5.6465C9.54832 5.46894 9.47708 5.29906 9.35136 5.17366C9.22565 5.04826 9.05559 4.97745 8.87802 4.97656Z" fill="black"/>
<path opacity="0.2" d="M8.87802 4.97656H4.78809V13.3859H8.87802C9.05559 13.3851 9.22565 13.3142 9.35136 13.1888C9.47708 13.0634 9.54832 12.8936 9.54965 12.716V5.6465C9.54832 5.46894 9.47708 5.29906 9.35136 5.17366C9.22565 5.04826 9.05559 4.97745 8.87802 4.97656Z" fill="black"/>
<path opacity="0.2" d="M8.51184 4.97656H4.78809V13.3859H8.51184C8.6894 13.3851 8.85946 13.3142 8.98518 13.1888C9.11089 13.0634 9.18213 12.8936 9.18346 12.716V5.6465C9.18213 5.46894 9.11089 5.29906 8.98518 5.17366C8.85946 5.04826 8.6894 4.97745 8.51184 4.97656Z" fill="black"/>
<path d="M1.79663 4.97656H8.51175C8.68963 4.97641 8.86029 5.04689 8.98623 5.17252C9.11217 5.29814 9.18308 5.46862 9.18338 5.6465V12.3504C9.18308 12.5283 9.11217 12.6987 8.98623 12.8244C8.86029 12.95 8.68963 13.0205 8.51175 13.0203H1.79663C1.70853 13.0205 1.62126 13.0032 1.53982 12.9697C1.45838 12.9361 1.38435 12.8867 1.32198 12.8245C1.25961 12.7623 1.21011 12.6884 1.17631 12.6071C1.14251 12.5257 1.12507 12.4385 1.125 12.3504V5.6465C1.12507 5.5584 1.14251 5.47118 1.17631 5.38982C1.21011 5.30847 1.25961 5.23457 1.32198 5.17235C1.38435 5.11013 1.45838 5.06082 1.53982 5.02723C1.62126 4.99363 1.70853 4.97642 1.79663 4.97656Z" fill="url(#paint0_linear_15541_75781)"/>
<path d="M3.2063 11.1774L4.61874 8.99269L3.32499 6.82031H4.36392L5.06986 8.21138C5.13511 8.343 5.18236 8.44087 5.20374 8.50612H5.2133C5.25942 8.40037 5.30836 8.29856 5.35955 8.199L6.11442 6.82256H7.07067L5.74374 8.98256L7.10442 11.1791H6.08686L5.27124 9.65419C5.23337 9.58863 5.20118 9.51994 5.17505 9.44887H5.16155C5.13777 9.51811 5.10606 9.58436 5.06705 9.64631L4.22724 11.1774H3.2063Z" fill="white"/>
<path d="M16.2035 1.6875H11.0144V5.34375H16.8751V2.35744C16.875 2.26934 16.8576 2.18212 16.8238 2.10076C16.79 2.0194 16.7405 1.94551 16.6781 1.88329C16.6157 1.82107 16.5417 1.77176 16.4603 1.73816C16.3788 1.70457 16.2916 1.68735 16.2035 1.6875Z" fill="#33C481"/>
<path d="M11.0144 9H16.8751V12.6562H11.0144V9Z" fill="#107C41"/>
<defs>
<linearGradient id="paint0_linear_15541_75781" x1="2.52788" y1="4.45006" x2="7.7805" y2="13.5468" gradientUnits="userSpaceOnUse">
<stop stop-color="#18884F"/>
<stop offset="0.5" stop-color="#117E43"/>
<stop offset="1" stop-color="#0B6631"/>
</linearGradient>
</defs>
</svg>
