<svg width="24" height="24" viewBox="0 0 24 24" fill="none" xmlns="http://www.w3.org/2000/svg">
<g clip-path="url(#clip0_511_1119)">
<path d="M24 24L23.9994 2.80711H21.1917L21.1917 0H0V21.1923H2.80772V24H24ZM22.5956 4.21097L22.5961 22.5961H4.21163V21.1922H16.5923C17.821 21.1922 18.9761 20.7137 19.845 19.8449C20.7138 18.9761 21.1922 17.8209 21.1922 16.5922L21.1919 4.21092L22.5956 4.21097ZM17.1885 19.7325C17.338 19.4109 17.422 19.053 17.422 18.6756V17.4482H18.7198C19.0724 17.4482 19.4124 17.3745 19.7235 17.2357C19.5998 17.844 19.3013 18.4032 18.8522 18.8522C18.3916 19.3129 17.8151 19.6149 17.1885 19.7325ZM19.7879 1.40325L19.788 4.21097H1.40386V1.40325H19.7879ZM1.40386 5.61487H19.788L19.7882 14.9733C19.7781 15.2652 19.6657 15.5334 19.4679 15.734C19.2706 15.9342 19.0049 16.0444 18.7197 16.0444H16.0181V18.6757C16.0181 19.2892 15.5193 19.7884 14.9061 19.7884H1.40386V5.61487Z" fill="white"/>
<path d="M4.86621 7.92432H6.27016V9.32818H4.86621V7.92432Z" fill="white"/>
<path d="M7.78174 7.92432H15.887V9.32818H7.78174V7.92432Z" fill="white"/>
<path d="M4.86621 10.7319H6.27016V12.1358H4.86621V10.7319Z" fill="white"/>
<path d="M7.78174 10.7319H15.887V12.1358H7.78174V10.7319Z" fill="white"/>
<path d="M4.86621 13.54H6.27016V14.9439H4.86621V13.54Z" fill="white"/>
<path d="M7.78174 13.54H15.887V14.9439H7.78174V13.54Z" fill="white"/>
</g>
<defs>
<clipPath id="clip0_511_1119">
<rect width="24" height="24" fill="white"/>
</clipPath>
</defs>
</svg>
