<svg width="24" height="24" viewBox="0 0 24 24" fill="none" xmlns="http://www.w3.org/2000/svg">
<mask id="mask0_373_9465" style="mask-type:luminance" maskUnits="userSpaceOnUse" x="0" y="0" width="24" height="24">
<path d="M0 1.90735e-06H24V24H0V1.90735e-06Z" fill="white"/>
</mask>
<g mask="url(#mask0_373_9465)">
<path d="M13.8877 17.9949L16.8529 22.5542L17.9766 20.1551L20.5065 20.3183L17.6324 16.0433" stroke="#E8EDEF" stroke-width="1.5" stroke-miterlimit="10"/>
<path d="M10.1124 17.9949L7.14723 22.5542L6.02359 20.1551L3.49365 20.3183L6.36779 16.0433" stroke="#E8EDEF" stroke-width="1.5" stroke-miterlimit="10"/>
<path d="M14.1094 9.1875C14.1094 10.3525 13.165 11.2969 12 11.2969C10.835 11.2969 9.89062 10.3525 9.89062 9.1875C9.89062 8.02252 10.835 7.07812 12 7.07812C13.165 7.07812 14.1094 8.02252 14.1094 9.1875Z" stroke="#E8EDEF" stroke-width="1.5" stroke-miterlimit="10"/>
<path d="M8.88989 14.5786C9.4793 13.4634 10.6509 12.7035 12.0001 12.7035C13.3493 12.7035 14.5209 13.4634 15.1103 14.5786" stroke="#E8EDEF" stroke-width="1.5" stroke-miterlimit="10"/>
<path d="M17.625 9.89062C17.625 12.9972 15.1066 15.5156 12 15.5156C8.89341 15.5156 6.375 12.9972 6.375 9.89062C6.375 6.78403 8.89341 4.26562 12 4.26562C15.1066 4.26562 17.625 6.78403 17.625 9.89062Z" stroke="#E8EDEF" stroke-width="1.5" stroke-miterlimit="10"/>
<path d="M13.3108 1.34163C13.779 1.82069 14.4712 2.00618 15.1162 1.82538C16.1067 1.54774 17.1317 2.18636 17.3865 3.18297C17.5523 3.83196 18.0591 4.33872 18.7081 4.50466C19.7047 4.75943 20.2965 5.7844 20.0188 6.77487C19.8381 7.41987 20.0235 8.11211 20.5026 8.5803C21.2383 9.29927 21.2383 10.4828 20.5026 11.2017C20.0235 11.6699 19.838 12.3622 20.0188 13.0071C20.2965 13.9976 19.7047 15.0226 18.7081 15.2774C18.0591 15.4433 17.5523 15.9501 17.3865 16.599C17.1317 17.5957 16.1067 18.1874 15.1162 17.9098C14.4712 17.729 13.779 17.9145 13.3108 18.3935C12.5918 19.1292 11.4083 19.1292 10.6893 18.3935C10.2212 17.9145 9.52894 17.729 8.88394 17.9098C7.89347 18.1874 6.86845 17.5957 6.61369 16.599C6.4478 15.9501 5.94103 15.4433 5.29205 15.2774C4.29544 15.0226 3.70364 13.9976 3.98133 13.0072C4.16212 12.3622 3.97664 11.6699 3.49758 11.2017C2.76188 10.4828 2.76188 9.29927 3.49758 8.5803C3.97664 8.11211 4.16212 7.41987 3.98133 6.77491C3.70364 5.7844 4.29544 4.75943 5.29205 4.50466C5.94103 4.33872 6.4478 3.83196 6.61369 3.18297C6.86845 2.18636 7.89347 1.54774 8.88394 1.82538C9.52894 2.00618 10.2212 1.82069 10.6893 1.34163C11.0488 0.973803 11.5245 0.703522 12.0001 0.703522C12.4757 0.703522 12.9513 0.973803 13.3108 1.34163Z" stroke="#E8EDEF" stroke-width="1.5" stroke-miterlimit="10"/>
</g>
</svg>
