<svg width="24" height="24" viewBox="0 0 24 24" fill="none" xmlns="http://www.w3.org/2000/svg">
<g clip-path="url(#clip0_373_9441)">
<path d="M21.9311 16.8398C21.3727 16.7552 20.8158 16.8946 20.363 17.232L17.0303 19.7154H15.948C16.2412 18.9429 16.0443 18.0188 15.4504 17.4391L11.3501 13.3387H4.78835V11.9297H0.0916748V21.4639H4.78835V20.3904L10.0508 24.0002H18.2956L22.8694 20.5991C23.7894 19.9151 23.9883 18.6048 23.3129 17.6784C22.9802 17.2221 22.4895 16.9243 21.9311 16.8398ZM3.37935 20.055H1.50068V13.3387H3.37935V20.055ZM22.0287 19.4685L17.8291 22.5912H10.4876L4.78835 18.6819V14.7477H10.7664L14.4541 18.4354C14.5954 18.5767 14.6732 18.7646 14.6732 18.9644C14.6788 19.6232 13.8595 19.9625 13.3965 19.4934L10.315 16.4119L9.31871 17.4082L12.4002 20.4897C12.8176 20.9071 13.3649 21.117 13.9133 21.1199V21.1244H17.4975L21.205 18.3618C21.3538 18.2508 21.5367 18.2051 21.7203 18.2329C22.3205 18.3182 22.5169 19.1098 22.0287 19.4685Z" fill="#E8EDEF"/>
<path d="M17.389 4.27393C16.2236 4.27393 15.2755 5.22204 15.2755 6.38743C15.3916 9.1913 19.3868 9.19045 19.5025 6.38743C19.5025 5.22204 18.5544 4.27393 17.389 4.27393ZM17.389 7.09193C17.0006 7.09193 16.6845 6.77589 16.6845 6.38743C16.7232 5.45279 18.055 5.45307 18.0935 6.38743C18.0935 6.77589 17.7775 7.09193 17.389 7.09193Z" fill="#E8EDEF"/>
<path d="M22.3675 6.38748C22.3675 6.29547 22.3648 6.20299 22.3597 6.11047L23.9085 4.90455L21.933 1.48297L20.1147 2.22101C19.9598 2.11956 19.7995 2.02685 19.6343 1.94334L19.3644 0H15.4135L15.1436 1.94334C14.9785 2.02685 14.8181 2.11956 14.6633 2.22101L12.845 1.48297L10.8695 4.90455L12.4182 6.11056C12.4079 6.29594 12.4079 6.47911 12.4182 6.66448L10.8695 7.8705L12.845 11.2921L14.6633 10.554C14.8181 10.6555 14.9785 10.7481 15.1436 10.8317L15.4135 12.775H19.3644L19.6343 10.8316C19.7995 10.7481 19.9598 10.6554 20.1147 10.5539L21.933 11.292L23.9085 7.87036L22.3597 6.66444C22.3648 6.57196 22.3675 6.47948 22.3675 6.38748ZM20.9238 5.88982C20.9975 6.34567 20.9393 6.83446 20.8675 7.2883L22.0748 8.22838L21.3262 9.52499L19.9075 8.94914C19.5505 9.2392 19.1577 9.53401 18.7258 9.69802L18.3481 9.85076L18.1377 11.3659H16.6404L16.4299 9.85076L16.0522 9.69807C15.6213 9.53462 15.2266 9.23859 14.8705 8.94918L13.4518 9.52504L12.7032 8.22838L13.9103 7.28844C13.8725 7.01354 13.8143 6.66162 13.8195 6.38748C13.8141 6.11436 13.8726 5.76 13.9103 5.48651L12.7032 4.54657L13.4518 3.24991L14.8704 3.82572C15.2275 3.5357 15.6203 3.24089 16.0522 3.07688L16.4299 2.92415L16.6404 1.409H18.1376L18.348 2.92415L18.7257 3.07684C19.1567 3.24023 19.5514 3.53631 19.9075 3.82568L21.3261 3.24986L22.0747 4.54647L20.8674 5.48656L20.9238 5.88982Z" fill="#E8EDEF"/>
</g>
<defs>
<clipPath id="clip0_373_9441">
<rect width="24" height="24" fill="white"/>
</clipPath>
</defs>
</svg>
