<svg width="18" height="16" viewBox="0 0 18 16" fill="none" xmlns="http://www.w3.org/2000/svg">
<path d="M15.783 3.11464L7.60235 11.113C7.52667 11.1871 7.43677 11.246 7.33781 11.2861C7.23884 11.3262 7.13276 11.3469 7.02561 11.3469C6.91847 11.3469 6.81238 11.3262 6.71342 11.2861C6.61445 11.246 6.52456 11.1871 6.44888 11.113L4.13374 8.84947C4.058 8.77541 3.99793 8.6875 3.95694 8.59075C3.91595 8.494 3.89485 8.3903 3.89485 8.28558C3.89485 8.18086 3.91595 8.07716 3.95694 7.98041C3.99793 7.88366 4.058 7.79575 4.13374 7.7217C4.20948 7.64764 4.2994 7.58891 4.39835 7.54883C4.49731 7.50875 4.60337 7.48813 4.71048 7.48813C4.81759 7.48813 4.92365 7.50875 5.02261 7.54883C5.12157 7.58891 5.21148 7.64764 5.28722 7.7217L7.02152 9.41735L14.6214 1.98687C14.6971 1.91272 14.787 1.8539 14.8859 1.81376C14.9849 1.77362 15.091 1.75296 15.1981 1.75296C15.3053 1.75296 15.4113 1.77362 15.5103 1.81376C15.6093 1.8539 15.6992 1.91272 15.7749 1.98687C16.1021 2.29881 16.1021 2.8027 15.783 3.11464ZM8.18318 14.4003C4.33008 14.4003 1.24596 11.129 1.67954 7.28179C1.99858 4.46636 4.23191 2.15484 7.08697 1.69093C8.56767 1.45098 9.97475 1.70693 11.1691 2.3148C11.3622 2.41344 11.5875 2.43304 11.7954 2.3693C12.0033 2.30555 12.1767 2.16367 12.2776 1.97487C12.3785 1.78608 12.3986 1.56583 12.3333 1.36258C12.2681 1.15933 12.123 0.989734 11.9299 0.891094C10.7274 0.291217 9.36938 -0.036716 7.9214 0.00327578C3.71653 0.13125 0.223376 3.47457 0.0106778 7.57773C-0.226562 12.1928 3.52019 16 8.18318 16C9.16486 16 10.0975 15.832 10.9728 15.5201C11.5291 15.3201 11.6845 14.6163 11.2591 14.2004C11.1505 14.0928 11.0125 14.0182 10.8615 13.9855C10.7106 13.9529 10.5532 13.9636 10.4083 14.0164C9.71297 14.2644 8.96035 14.4003 8.18318 14.4003ZM13.9097 10.4011H12.2735C11.8236 10.4011 11.4555 10.7611 11.4555 11.201C11.4555 11.6409 11.8236 12.0008 12.2735 12.0008H13.9097V13.6005C13.9097 14.0404 14.2778 14.4003 14.7277 14.4003C15.1777 14.4003 15.5458 14.0404 15.5458 13.6005V12.0008H17.1819C17.6319 12.0008 18 11.6409 18 11.201C18 10.7611 17.6319 10.4011 17.1819 10.4011H15.5458V8.80147C15.5458 8.36156 15.1777 8.00164 14.7277 8.00164C14.2778 8.00164 13.9097 8.36156 13.9097 8.80147V10.4011Z" fill="#EFEEEE"/>
</svg>
