<svg width="76" height="76" viewBox="0 0 76 76" fill="none" xmlns="http://www.w3.org/2000/svg">
<rect width="76" height="76" rx="38" fill="#E7EFFE"/>
<g clip-path="url(#clip0_2407_535)">
<path d="M54.8925 39.9234L52.1217 29.9542C51.3095 27.0337 49.5444 24.4684 47.107 22.6661C44.6695 20.8639 41.6996 19.9282 38.6692 20.0076C35.6389 20.0871 32.7221 21.1772 30.3824 23.1046C28.0427 25.0321 26.4145 27.6864 25.7565 30.6455L23.6112 40.2923C23.3743 41.3583 23.3798 42.4638 23.6273 43.5274C23.8748 44.5909 24.358 45.5853 25.0413 46.4371C25.7245 47.2889 26.5904 47.9764 27.5749 48.4487C28.5594 48.9211 29.6374 49.1663 30.7294 49.1663H32.354C32.6887 50.8146 33.5829 52.2966 34.8852 53.361C36.1876 54.4255 37.8178 55.0069 39.4998 55.0069C41.1818 55.0069 42.812 54.4255 44.1143 53.361C45.4166 52.2966 46.3109 50.8146 46.6456 49.1663H47.8677C48.9918 49.1664 50.1007 48.9066 51.1078 48.4071C52.1148 47.9077 52.9928 47.1822 53.6731 46.2873C54.3533 45.3925 54.8175 44.3524 55.0293 43.2484C55.2411 42.1445 55.1948 41.0065 54.894 39.9234H54.8925ZM39.4998 52.083C38.5982 52.0792 37.7197 51.797 36.9846 51.2749C36.2495 50.7528 35.6937 50.0164 35.3931 49.1663H43.6065C43.3059 50.0164 42.7501 50.7528 42.015 51.2749C41.2799 51.797 40.4014 52.0792 39.4998 52.083ZM51.3502 44.5215C50.9438 45.0606 50.4173 45.4975 49.8126 45.7975C49.2078 46.0975 48.5413 46.2523 47.8662 46.2496H30.7294C30.0743 46.2495 29.4275 46.1023 28.837 45.8188C28.2464 45.5353 27.727 45.1228 27.3171 44.6118C26.9073 44.1007 26.6174 43.5041 26.4689 42.8661C26.3205 42.228 26.3172 41.5647 26.4594 40.9253L28.6031 31.2769C29.1199 28.9526 30.3988 26.8678 32.2365 25.3538C34.0742 23.8399 36.3653 22.9836 38.7455 22.9213C41.1257 22.8589 43.4585 23.594 45.3729 25.0097C47.2874 26.4254 48.6737 28.4404 49.3115 30.7344L52.0823 40.7036C52.2654 41.3531 52.2945 42.0363 52.1675 42.6991C52.0404 43.3618 51.7606 43.9858 51.3502 44.5215Z" fill="#374957"/>
</g>
<defs>
<clipPath id="clip0_2407_535">
<rect width="35" height="35" fill="white" transform="translate(22 20)"/>
</clipPath>
</defs>
</svg>
