<svg width="13" height="15" viewBox="0 0 13 15" fill="none" xmlns="http://www.w3.org/2000/svg">
<path d="M12.3789 10.6758C11.8594 10.1016 10.8477 9.25391 10.8477 6.4375C10.8477 4.33203 9.37109 2.63672 7.34766 2.19922V1.625C7.34766 1.16016 6.96484 0.75 6.5 0.75C6.00781 0.75 5.625 1.16016 5.625 1.625V2.19922C3.60156 2.63672 2.125 4.33203 2.125 6.4375C2.125 9.25391 1.11328 10.1016 0.59375 10.6758C0.429688 10.8398 0.347656 11.0586 0.375 11.25C0.375 11.7148 0.703125 12.125 1.25 12.125H11.7227C12.2695 12.125 12.5977 11.7148 12.625 11.25C12.625 11.0586 12.543 10.8398 12.3789 10.6758ZM2.20703 10.8125C2.78125 10.0742 3.41016 8.78906 3.4375 6.46484C3.4375 6.46484 3.4375 6.46484 3.4375 6.4375C3.4375 4.76953 4.80469 3.375 6.5 3.375C8.16797 3.375 9.5625 4.76953 9.5625 6.4375C9.5625 6.46484 9.53516 6.46484 9.53516 6.46484C9.5625 8.78906 10.1914 10.0742 10.7656 10.8125H2.20703ZM6.5 14.75C7.45703 14.75 8.22266 13.9844 8.22266 13H4.75C4.75 13.9844 5.51562 14.75 6.5 14.75Z" fill="#E8EDEF"/>
</svg>
