<svg width="1423" height="88" viewBox="0 0 1423 88" fill="none" xmlns="http://www.w3.org/2000/svg">
<g clip-path="url(#clip0_499_1892)">
<rect x="1" y="1" width="1421" height="86" fill="#302E38"/>
<mask id="path-3-inside-1_499_1892" fill="white">
<path d="M1 1H419V44H1V1Z"/>
</mask>
<path d="M1 1H419V44H1V1Z" fill="#3A3942"/>
<path d="M30.2266 16.625V28H28.0703L23.2344 20.1094V28H21.0859V16.625H23.2344L28.0859 24.5234V16.625H30.2266ZM36.9141 26.2031V22.3047C36.9141 22.0182 36.8646 21.7708 36.7656 21.5625C36.6667 21.3542 36.5156 21.1927 36.3125 21.0781C36.1094 20.9635 35.8516 20.9062 35.5391 20.9062C35.263 20.9062 35.0208 20.9531 34.8125 21.0469C34.6094 21.1406 34.4531 21.2734 34.3438 21.4453C34.2344 21.612 34.1797 21.8047 34.1797 22.0234H32.1094C32.1094 21.6745 32.1927 21.3438 32.3594 21.0312C32.526 20.7135 32.763 20.4323 33.0703 20.1875C33.3828 19.9375 33.7552 19.7422 34.1875 19.6016C34.625 19.4609 35.1146 19.3906 35.6562 19.3906C36.2969 19.3906 36.8672 19.5 37.3672 19.7188C37.8724 19.9323 38.2682 20.2552 38.5547 20.6875C38.8464 21.1198 38.9922 21.6641 38.9922 22.3203V26.0078C38.9922 26.4297 39.0182 26.7917 39.0703 27.0938C39.1276 27.3906 39.2109 27.6484 39.3203 27.8672V28H37.2188C37.1198 27.7865 37.0443 27.5156 36.9922 27.1875C36.9401 26.8542 36.9141 26.526 36.9141 26.2031ZM37.2031 22.8516L37.2188 24.0781H35.9141C35.5911 24.0781 35.3073 24.112 35.0625 24.1797C34.8177 24.2422 34.6172 24.3359 34.4609 24.4609C34.3047 24.5807 34.1875 24.7266 34.1094 24.8984C34.0312 25.0651 33.9922 25.2552 33.9922 25.4688C33.9922 25.6771 34.0391 25.8646 34.1328 26.0312C34.2318 26.1979 34.3724 26.3307 34.5547 26.4297C34.7422 26.5234 34.9609 26.5703 35.2109 26.5703C35.5755 26.5703 35.8932 26.4974 36.1641 26.3516C36.4349 26.2005 36.6458 26.0182 36.7969 25.8047C36.9479 25.5911 37.0286 25.388 37.0391 25.1953L37.6328 26.0859C37.5599 26.2995 37.4505 26.526 37.3047 26.7656C37.1589 27.0052 36.9714 27.2292 36.7422 27.4375C36.513 27.6458 36.237 27.8177 35.9141 27.9531C35.5911 28.0885 35.2161 28.1562 34.7891 28.1562C34.2422 28.1562 33.7526 28.0469 33.3203 27.8281C32.888 27.6094 32.5469 27.3099 32.2969 26.9297C32.0469 26.5495 31.9219 26.1172 31.9219 25.6328C31.9219 25.1849 32.0052 24.7891 32.1719 24.4453C32.3385 24.1016 32.5859 23.8125 32.9141 23.5781C33.2422 23.3385 33.6484 23.1589 34.1328 23.0391C34.6224 22.9141 35.1823 22.8516 35.8125 22.8516H37.2031ZM42.9062 21.2812V28H40.8438V19.5469H42.7891L42.9062 21.2812ZM42.6016 23.4688H41.9688C41.9688 22.8802 42.0391 22.3385 42.1797 21.8438C42.3255 21.349 42.5391 20.9193 42.8203 20.5547C43.1016 20.1849 43.4479 19.8984 43.8594 19.6953C44.276 19.4922 44.7578 19.3906 45.3047 19.3906C45.6849 19.3906 46.0339 19.4479 46.3516 19.5625C46.6693 19.6719 46.9427 19.8464 47.1719 20.0859C47.4062 20.3203 47.5859 20.6276 47.7109 21.0078C47.8359 21.3828 47.8984 21.8333 47.8984 22.3594V28H45.8359V22.5703C45.8359 22.1745 45.7786 21.8646 45.6641 21.6406C45.5547 21.4167 45.3958 21.2604 45.1875 21.1719C44.9792 21.0781 44.7292 21.0312 44.4375 21.0312C44.1146 21.0312 43.8359 21.0964 43.6016 21.2266C43.3724 21.3516 43.1823 21.526 43.0312 21.75C42.8854 21.974 42.776 22.2318 42.7031 22.5234C42.6354 22.8151 42.6016 23.1302 42.6016 23.4688ZM47.7422 23.0859L46.8906 23.2422C46.8958 22.7109 46.9688 22.2135 47.1094 21.75C47.25 21.2812 47.4557 20.8724 47.7266 20.5234C48.0026 20.1693 48.3438 19.8932 48.75 19.6953C49.1615 19.4922 49.6354 19.3906 50.1719 19.3906C50.5885 19.3906 50.9635 19.4505 51.2969 19.5703C51.6354 19.6849 51.9245 19.8698 52.1641 20.125C52.4036 20.375 52.5859 20.7005 52.7109 21.1016C52.8411 21.5026 52.9062 21.9922 52.9062 22.5703V28H50.8281V22.5625C50.8281 22.151 50.7708 21.8359 50.6562 21.6172C50.5469 21.3984 50.388 21.2474 50.1797 21.1641C49.9714 21.0755 49.7266 21.0312 49.4453 21.0312C49.1589 21.0312 48.9089 21.0859 48.6953 21.1953C48.487 21.2995 48.3099 21.4453 48.1641 21.6328C48.0234 21.8203 47.9167 22.0391 47.8438 22.2891C47.776 22.5339 47.7422 22.7995 47.7422 23.0859ZM58.5547 28.1562C57.9141 28.1562 57.3385 28.0521 56.8281 27.8438C56.3177 27.6354 55.8828 27.3464 55.5234 26.9766C55.1693 26.6016 54.8958 26.1667 54.7031 25.6719C54.5156 25.1719 54.4219 24.6354 54.4219 24.0625V23.75C54.4219 23.099 54.5156 22.5078 54.7031 21.9766C54.8906 21.4401 55.1562 20.9792 55.5 20.5938C55.8438 20.2083 56.2552 19.9115 56.7344 19.7031C57.2135 19.4948 57.7422 19.3906 58.3203 19.3906C58.9193 19.3906 59.4479 19.4922 59.9062 19.6953C60.3646 19.8932 60.7474 20.1745 61.0547 20.5391C61.362 20.9036 61.5938 21.3411 61.75 21.8516C61.9062 22.3568 61.9844 22.9167 61.9844 23.5312V24.3984H55.3594V22.9766H59.9531V22.8203C59.9427 22.4922 59.8802 22.1927 59.7656 21.9219C59.651 21.6458 59.474 21.4271 59.2344 21.2656C58.9948 21.099 58.6849 21.0156 58.3047 21.0156C57.9974 21.0156 57.7292 21.0833 57.5 21.2188C57.276 21.349 57.0885 21.5365 56.9375 21.7812C56.7917 22.0208 56.6823 22.3073 56.6094 22.6406C56.5365 22.974 56.5 23.3438 56.5 23.75V24.0625C56.5 24.4167 56.5469 24.7448 56.6406 25.0469C56.7396 25.349 56.8828 25.612 57.0703 25.8359C57.263 26.0547 57.4922 26.2266 57.7578 26.3516C58.0286 26.4714 58.3359 26.5312 58.6797 26.5312C59.112 26.5312 59.5026 26.4479 59.8516 26.2812C60.2057 26.1094 60.513 25.8568 60.7734 25.5234L61.8125 26.6016C61.6354 26.862 61.3958 27.112 61.0938 27.3516C60.7969 27.5911 60.4375 27.7865 60.0156 27.9375C59.5938 28.0833 59.1068 28.1562 58.5547 28.1562Z" fill="white"/>
<g clip-path="url(#clip1_499_1892)">
<path d="M79.3293 25.6039L84.8643 20.0535C85.0455 19.8717 85.0452 19.5772 84.8634 19.3957C84.6815 19.2143 84.3869 19.2148 84.2055 19.3966L79 24.6166L73.7944 19.3964C73.613 19.2146 73.3186 19.2141 73.1368 19.3955C73.0456 19.4865 73 19.6057 73 19.725C73 19.8439 73.0453 19.9626 73.1358 20.0535L78.6707 25.6039C78.7578 25.6915 78.8764 25.7406 79 25.7406C79.1235 25.7406 79.242 25.6913 79.3293 25.6039Z" fill="white"/>
</g>
<path d="M419 43H1V45H419V43Z" fill="#595959" mask="url(#path-3-inside-1_499_1892)"/>
<rect x="20.5" y="58" width="15" height="15" fill="white" stroke="#4B4B4B"/>
<path d="M48.8281 59.625V71H47.3203V59.625H48.8281ZM53.5938 64.7422V65.9766H48.5V64.7422H53.5938ZM54.3672 59.625V60.8594H48.5V59.625H54.3672ZM57.5156 62.5469V71H56.0625V62.5469H57.5156ZM55.9531 60.3047C55.9531 60.0703 56.0234 59.8724 56.1641 59.7109C56.3099 59.5495 56.5234 59.4688 56.8047 59.4688C57.0807 59.4688 57.2917 59.5495 57.4375 59.7109C57.5885 59.8724 57.6641 60.0703 57.6641 60.3047C57.6641 60.5286 57.5885 60.7214 57.4375 60.8828C57.2917 61.0391 57.0807 61.1172 56.8047 61.1172C56.5234 61.1172 56.3099 61.0391 56.1641 60.8828C56.0234 60.7214 55.9531 60.5286 55.9531 60.3047ZM61.2812 64.3516V71H59.8359V62.5469H61.2031L61.2812 64.3516ZM60.9375 66.4531L60.3359 66.4297C60.3411 65.8516 60.4271 65.3177 60.5938 64.8281C60.7604 64.3333 60.9948 63.9036 61.2969 63.5391C61.599 63.1745 61.9583 62.8932 62.375 62.6953C62.7969 62.4922 63.263 62.3906 63.7734 62.3906C64.1901 62.3906 64.5651 62.4479 64.8984 62.5625C65.2318 62.6719 65.5156 62.849 65.75 63.0938C65.9896 63.3385 66.1719 63.6562 66.2969 64.0469C66.4219 64.4323 66.4844 64.9036 66.4844 65.4609V71H65.0312V65.4453C65.0312 65.0026 64.9661 64.6484 64.8359 64.3828C64.7057 64.112 64.5156 63.9167 64.2656 63.7969C64.0156 63.6719 63.7083 63.6094 63.3438 63.6094C62.9844 63.6094 62.6562 63.6849 62.3594 63.8359C62.0677 63.987 61.8151 64.1953 61.6016 64.4609C61.3932 64.7266 61.2292 65.0312 61.1094 65.375C60.9948 65.7135 60.9375 66.0729 60.9375 66.4531ZM68.6719 59H70.125V69.3594L70 71H68.6719V59ZM75.8359 66.7031V66.8672C75.8359 67.4818 75.763 68.0521 75.6172 68.5781C75.4714 69.099 75.2578 69.5521 74.9766 69.9375C74.6953 70.3229 74.3516 70.6224 73.9453 70.8359C73.5391 71.0495 73.0729 71.1562 72.5469 71.1562C72.0104 71.1562 71.5391 71.0651 71.1328 70.8828C70.7318 70.6953 70.3932 70.4271 70.1172 70.0781C69.8411 69.7292 69.6198 69.3073 69.4531 68.8125C69.2917 68.3177 69.1797 67.7604 69.1172 67.1406V66.4219C69.1797 65.7969 69.2917 65.237 69.4531 64.7422C69.6198 64.2474 69.8411 63.8255 70.1172 63.4766C70.3932 63.1224 70.7318 62.8542 71.1328 62.6719C71.5339 62.4844 72 62.3906 72.5312 62.3906C73.0625 62.3906 73.5339 62.4948 73.9453 62.7031C74.3568 62.9062 74.7005 63.1979 74.9766 63.5781C75.2578 63.9583 75.4714 64.4141 75.6172 64.9453C75.763 65.4714 75.8359 66.0573 75.8359 66.7031ZM74.3828 66.8672V66.7031C74.3828 66.2812 74.3438 65.8854 74.2656 65.5156C74.1875 65.1406 74.0625 64.8125 73.8906 64.5312C73.7188 64.2448 73.4922 64.0208 73.2109 63.8594C72.9297 63.6927 72.5833 63.6094 72.1719 63.6094C71.8073 63.6094 71.4896 63.6719 71.2188 63.7969C70.9531 63.9219 70.7266 64.0911 70.5391 64.3047C70.3516 64.513 70.1979 64.7526 70.0781 65.0234C69.9635 65.2891 69.8776 65.5651 69.8203 65.8516V67.7344C69.9036 68.099 70.0391 68.4505 70.2266 68.7891C70.4193 69.1224 70.6745 69.3958 70.9922 69.6094C71.3151 69.8229 71.7135 69.9297 72.1875 69.9297C72.5781 69.9297 72.9115 69.8516 73.1875 69.6953C73.4688 69.5339 73.6953 69.3125 73.8672 69.0312C74.0443 68.75 74.1745 68.4245 74.2578 68.0547C74.3411 67.6849 74.3828 67.2891 74.3828 66.8672ZM82.8359 69.0469V62.5469H84.2891V71H82.9062L82.8359 69.0469ZM83.1094 67.2656L83.7109 67.25C83.7109 67.8125 83.651 68.3333 83.5312 68.8125C83.4167 69.2865 83.2292 69.6979 82.9688 70.0469C82.7083 70.3958 82.3672 70.6693 81.9453 70.8672C81.5234 71.0599 81.0104 71.1562 80.4062 71.1562C79.9948 71.1562 79.6172 71.0964 79.2734 70.9766C78.9349 70.8568 78.6432 70.6719 78.3984 70.4219C78.1536 70.1719 77.9635 69.8464 77.8281 69.4453C77.6979 69.0443 77.6328 68.5625 77.6328 68V62.5469H79.0781V68.0156C79.0781 68.3958 79.1198 68.7109 79.2031 68.9609C79.2917 69.2057 79.4089 69.401 79.5547 69.5469C79.7057 69.6875 79.8724 69.7865 80.0547 69.8438C80.2422 69.901 80.4349 69.9297 80.6328 69.9297C81.2474 69.9297 81.7344 69.8125 82.0938 69.5781C82.4531 69.3385 82.7109 69.0182 82.8672 68.6172C83.0286 68.2109 83.1094 67.7604 83.1094 67.2656ZM91.8203 69.3594V59H93.2734V71H91.9453L91.8203 69.3594ZM86.1328 66.8672V66.7031C86.1328 66.0573 86.2109 65.4714 86.3672 64.9453C86.5286 64.4141 86.7552 63.9583 87.0469 63.5781C87.3438 63.1979 87.6953 62.9062 88.1016 62.7031C88.513 62.4948 88.9714 62.3906 89.4766 62.3906C90.0078 62.3906 90.4714 62.4844 90.8672 62.6719C91.2682 62.8542 91.6068 63.1224 91.8828 63.4766C92.1641 63.8255 92.3854 64.2474 92.5469 64.7422C92.7083 65.237 92.8203 65.7969 92.8828 66.4219V67.1406C92.8255 67.7604 92.7135 68.3177 92.5469 68.8125C92.3854 69.3073 92.1641 69.7292 91.8828 70.0781C91.6068 70.4271 91.2682 70.6953 90.8672 70.8828C90.4661 71.0651 89.9974 71.1562 89.4609 71.1562C88.9661 71.1562 88.513 71.0495 88.1016 70.8359C87.6953 70.6224 87.3438 70.3229 87.0469 69.9375C86.7552 69.5521 86.5286 69.099 86.3672 68.5781C86.2109 68.0521 86.1328 67.4818 86.1328 66.8672ZM87.5859 66.7031V66.8672C87.5859 67.2891 87.6276 67.6849 87.7109 68.0547C87.7995 68.4245 87.9349 68.75 88.1172 69.0312C88.2995 69.3125 88.5312 69.5339 88.8125 69.6953C89.0938 69.8516 89.4297 69.9297 89.8203 69.9297C90.2995 69.9297 90.6927 69.8281 91 69.625C91.3125 69.4219 91.5625 69.1536 91.75 68.8203C91.9375 68.487 92.0833 68.125 92.1875 67.7344V65.8516C92.125 65.5651 92.0339 65.2891 91.9141 65.0234C91.7995 64.7526 91.6484 64.513 91.4609 64.3047C91.2786 64.0911 91.0521 63.9219 90.7812 63.7969C90.5156 63.6719 90.2005 63.6094 89.8359 63.6094C89.4401 63.6094 89.099 63.6927 88.8125 63.8594C88.5312 64.0208 88.2995 64.2448 88.1172 64.5312C87.9349 64.8125 87.7995 65.1406 87.7109 65.5156C87.6276 65.8854 87.5859 66.2812 87.5859 66.7031ZM100.852 69.3594V59H102.305V71H100.977L100.852 69.3594ZM95.1641 66.8672V66.7031C95.1641 66.0573 95.2422 65.4714 95.3984 64.9453C95.5599 64.4141 95.7865 63.9583 96.0781 63.5781C96.375 63.1979 96.7266 62.9062 97.1328 62.7031C97.5443 62.4948 98.0026 62.3906 98.5078 62.3906C99.0391 62.3906 99.5026 62.4844 99.8984 62.6719C100.299 62.8542 100.638 63.1224 100.914 63.4766C101.195 63.8255 101.417 64.2474 101.578 64.7422C101.74 65.237 101.852 65.7969 101.914 66.4219V67.1406C101.857 67.7604 101.745 68.3177 101.578 68.8125C101.417 69.3073 101.195 69.7292 100.914 70.0781C100.638 70.4271 100.299 70.6953 99.8984 70.8828C99.4974 71.0651 99.0286 71.1562 98.4922 71.1562C97.9974 71.1562 97.5443 71.0495 97.1328 70.8359C96.7266 70.6224 96.375 70.3229 96.0781 69.9375C95.7865 69.5521 95.5599 69.099 95.3984 68.5781C95.2422 68.0521 95.1641 67.4818 95.1641 66.8672ZM96.6172 66.7031V66.8672C96.6172 67.2891 96.6589 67.6849 96.7422 68.0547C96.8307 68.4245 96.9661 68.75 97.1484 69.0312C97.3307 69.3125 97.5625 69.5339 97.8438 69.6953C98.125 69.8516 98.4609 69.9297 98.8516 69.9297C99.3307 69.9297 99.724 69.8281 100.031 69.625C100.344 69.4219 100.594 69.1536 100.781 68.8203C100.969 68.487 101.115 68.125 101.219 67.7344V65.8516C101.156 65.5651 101.065 65.2891 100.945 65.0234C100.831 64.7526 100.68 64.513 100.492 64.3047C100.31 64.0911 100.083 63.9219 99.8125 63.7969C99.5469 63.6719 99.2318 63.6094 98.8672 63.6094C98.4714 63.6094 98.1302 63.6927 97.8438 63.8594C97.5625 64.0208 97.3307 64.2448 97.1484 64.5312C96.9661 64.8125 96.8307 65.1406 96.7422 65.5156C96.6589 65.8854 96.6172 66.2812 96.6172 66.7031ZM106.93 70.125L109.281 62.5469H110.828L107.438 72.3047C107.359 72.513 107.255 72.737 107.125 72.9766C107 73.2214 106.839 73.4531 106.641 73.6719C106.443 73.8906 106.203 74.0677 105.922 74.2031C105.646 74.3438 105.315 74.4141 104.93 74.4141C104.815 74.4141 104.669 74.3984 104.492 74.3672C104.315 74.3359 104.19 74.3099 104.117 74.2891L104.109 73.1172C104.151 73.1224 104.216 73.1276 104.305 73.1328C104.398 73.1432 104.464 73.1484 104.5 73.1484C104.828 73.1484 105.107 73.1042 105.336 73.0156C105.565 72.9323 105.758 72.7891 105.914 72.5859C106.076 72.388 106.214 72.1146 106.328 71.7656L106.93 70.125ZM105.203 62.5469L107.398 69.1094L107.773 70.6328L106.734 71.1641L103.625 62.5469H105.203Z" fill="#437FEC"/>
<path d="M419 86H1V88H419V86Z" fill="#595959" mask="url(#path-7-inside-2_499_1892)"/>
<mask id="path-11-inside-3_499_1892" fill="white">
<path d="M419 1H923V44H419V1Z"/>
</mask>
<path d="M419 1H923V44H419V1Z" fill="#3A3942"/>
<path d="M445.039 25.0469C445.039 24.8281 445.005 24.6328 444.938 24.4609C444.875 24.2839 444.758 24.125 444.586 23.9844C444.419 23.8385 444.182 23.6979 443.875 23.5625C443.573 23.4219 443.182 23.276 442.703 23.125C442.172 22.9583 441.677 22.7708 441.219 22.5625C440.76 22.3542 440.357 22.112 440.008 21.8359C439.664 21.5599 439.396 21.2422 439.203 20.8828C439.01 20.5182 438.914 20.0964 438.914 19.6172C438.914 19.1484 439.013 18.7214 439.211 18.3359C439.414 17.9505 439.701 17.6198 440.07 17.3438C440.44 17.0625 440.875 16.8464 441.375 16.6953C441.88 16.5443 442.438 16.4688 443.047 16.4688C443.891 16.4688 444.62 16.6224 445.234 16.9297C445.854 17.237 446.333 17.6536 446.672 18.1797C447.01 18.7057 447.18 19.2969 447.18 19.9531H445.039C445.039 19.599 444.964 19.2865 444.812 19.0156C444.667 18.7448 444.443 18.5312 444.141 18.375C443.844 18.2188 443.469 18.1406 443.016 18.1406C442.578 18.1406 442.214 18.2057 441.922 18.3359C441.635 18.4661 441.419 18.6432 441.273 18.8672C441.133 19.0911 441.062 19.3411 441.062 19.6172C441.062 19.8255 441.112 20.013 441.211 20.1797C441.31 20.3411 441.458 20.4948 441.656 20.6406C441.854 20.7812 442.099 20.9141 442.391 21.0391C442.688 21.1589 443.031 21.2786 443.422 21.3984C444.047 21.5859 444.594 21.7943 445.062 22.0234C445.536 22.2526 445.93 22.513 446.242 22.8047C446.56 23.0964 446.797 23.4245 446.953 23.7891C447.115 24.1536 447.195 24.5677 447.195 25.0312C447.195 25.5208 447.099 25.9583 446.906 26.3438C446.714 26.7292 446.438 27.0573 446.078 27.3281C445.719 27.599 445.286 27.8047 444.781 27.9453C444.281 28.0859 443.721 28.1562 443.102 28.1562C442.549 28.1562 442.003 28.0833 441.461 27.9375C440.924 27.7865 440.438 27.5625 440 27.2656C439.562 26.9635 439.214 26.5833 438.953 26.125C438.693 25.6615 438.562 25.1198 438.562 24.5H440.719C440.719 24.8594 440.776 25.1667 440.891 25.4219C441.01 25.6719 441.177 25.8776 441.391 26.0391C441.609 26.1953 441.865 26.3099 442.156 26.3828C442.448 26.4557 442.763 26.4922 443.102 26.4922C443.539 26.4922 443.898 26.4323 444.18 26.3125C444.466 26.1875 444.68 26.0156 444.82 25.7969C444.966 25.5781 445.039 25.3281 445.039 25.0469ZM452.492 28.1562C451.852 28.1562 451.276 28.0521 450.766 27.8438C450.255 27.6354 449.82 27.3464 449.461 26.9766C449.107 26.6016 448.833 26.1667 448.641 25.6719C448.453 25.1719 448.359 24.6354 448.359 24.0625V23.75C448.359 23.099 448.453 22.5078 448.641 21.9766C448.828 21.4401 449.094 20.9792 449.438 20.5938C449.781 20.2083 450.193 19.9115 450.672 19.7031C451.151 19.4948 451.68 19.3906 452.258 19.3906C452.857 19.3906 453.385 19.4922 453.844 19.6953C454.302 19.8932 454.685 20.1745 454.992 20.5391C455.299 20.9036 455.531 21.3411 455.688 21.8516C455.844 22.3568 455.922 22.9167 455.922 23.5312V24.3984H449.297V22.9766H453.891V22.8203C453.88 22.4922 453.818 22.1927 453.703 21.9219C453.589 21.6458 453.411 21.4271 453.172 21.2656C452.932 21.099 452.622 21.0156 452.242 21.0156C451.935 21.0156 451.667 21.0833 451.438 21.2188C451.214 21.349 451.026 21.5365 450.875 21.7812C450.729 22.0208 450.62 22.3073 450.547 22.6406C450.474 22.974 450.438 23.3438 450.438 23.75V24.0625C450.438 24.4167 450.484 24.7448 450.578 25.0469C450.677 25.349 450.82 25.612 451.008 25.8359C451.201 26.0547 451.43 26.2266 451.695 26.3516C451.966 26.4714 452.273 26.5312 452.617 26.5312C453.049 26.5312 453.44 26.4479 453.789 26.2812C454.143 26.1094 454.451 25.8568 454.711 25.5234L455.75 26.6016C455.573 26.862 455.333 27.112 455.031 27.3516C454.734 27.5911 454.375 27.7865 453.953 27.9375C453.531 28.0833 453.044 28.1562 452.492 28.1562ZM460 26.4375L461.969 19.5469H464.125L461.227 28H459.914L460 26.4375ZM458.562 19.5469L460.555 26.4531L460.625 28H459.305L456.398 19.5469H458.562ZM468.898 28.1562C468.258 28.1562 467.682 28.0521 467.172 27.8438C466.661 27.6354 466.227 27.3464 465.867 26.9766C465.513 26.6016 465.24 26.1667 465.047 25.6719C464.859 25.1719 464.766 24.6354 464.766 24.0625V23.75C464.766 23.099 464.859 22.5078 465.047 21.9766C465.234 21.4401 465.5 20.9792 465.844 20.5938C466.188 20.2083 466.599 19.9115 467.078 19.7031C467.557 19.4948 468.086 19.3906 468.664 19.3906C469.263 19.3906 469.792 19.4922 470.25 19.6953C470.708 19.8932 471.091 20.1745 471.398 20.5391C471.706 20.9036 471.938 21.3411 472.094 21.8516C472.25 22.3568 472.328 22.9167 472.328 23.5312V24.3984H465.703V22.9766H470.297V22.8203C470.286 22.4922 470.224 22.1927 470.109 21.9219C469.995 21.6458 469.818 21.4271 469.578 21.2656C469.339 21.099 469.029 21.0156 468.648 21.0156C468.341 21.0156 468.073 21.0833 467.844 21.2188C467.62 21.349 467.432 21.5365 467.281 21.7812C467.135 22.0208 467.026 22.3073 466.953 22.6406C466.88 22.974 466.844 23.3438 466.844 23.75V24.0625C466.844 24.4167 466.891 24.7448 466.984 25.0469C467.083 25.349 467.227 25.612 467.414 25.8359C467.607 26.0547 467.836 26.2266 468.102 26.3516C468.372 26.4714 468.68 26.5312 469.023 26.5312C469.456 26.5312 469.846 26.4479 470.195 26.2812C470.549 26.1094 470.857 25.8568 471.117 25.5234L472.156 26.6016C471.979 26.862 471.74 27.112 471.438 27.3516C471.141 27.5911 470.781 27.7865 470.359 27.9375C469.938 28.0833 469.451 28.1562 468.898 28.1562ZM475.773 21.2734V28H473.711V19.5469H475.664L475.773 21.2734ZM478.344 19.4922L478.312 21.4141C478.198 21.3932 478.068 21.3776 477.922 21.3672C477.781 21.3568 477.648 21.3516 477.523 21.3516C477.206 21.3516 476.927 21.3958 476.688 21.4844C476.448 21.5677 476.247 21.6901 476.086 21.8516C475.93 22.013 475.81 22.2109 475.727 22.4453C475.643 22.6745 475.596 22.9349 475.586 23.2266L475.141 23.1719C475.141 22.6354 475.195 22.138 475.305 21.6797C475.414 21.2214 475.573 20.8203 475.781 20.4766C475.99 20.1328 476.25 19.8672 476.562 19.6797C476.88 19.487 477.245 19.3906 477.656 19.3906C477.771 19.3906 477.893 19.401 478.023 19.4219C478.159 19.4375 478.266 19.4609 478.344 19.4922ZM481.664 19.5469V28H479.594V19.5469H481.664ZM479.453 17.3359C479.453 17.0286 479.557 16.7734 479.766 16.5703C479.979 16.3672 480.266 16.2656 480.625 16.2656C480.984 16.2656 481.268 16.3672 481.477 16.5703C481.69 16.7734 481.797 17.0286 481.797 17.3359C481.797 17.638 481.69 17.8906 481.477 18.0938C481.268 18.2969 480.984 18.3984 480.625 18.3984C480.266 18.3984 479.979 18.2969 479.766 18.0938C479.557 17.8906 479.453 17.638 479.453 17.3359ZM487.633 19.5469V21.0312H482.789V19.5469H487.633ZM484.086 17.4688H486.156V25.5625C486.156 25.8125 486.19 26.0052 486.258 26.1406C486.326 26.276 486.427 26.3672 486.562 26.4141C486.698 26.4609 486.859 26.4844 487.047 26.4844C487.182 26.4844 487.307 26.4766 487.422 26.4609C487.536 26.4453 487.633 26.4297 487.711 26.4141L487.719 27.9609C487.547 28.0182 487.352 28.0651 487.133 28.1016C486.919 28.138 486.677 28.1562 486.406 28.1562C485.943 28.1562 485.536 28.0781 485.188 27.9219C484.839 27.7604 484.568 27.5026 484.375 27.1484C484.182 26.7891 484.086 26.3151 484.086 25.7266V17.4688ZM491.484 27.0625L493.75 19.5469H495.961L492.57 29.2812C492.492 29.4896 492.391 29.7161 492.266 29.9609C492.146 30.2057 491.984 30.4375 491.781 30.6562C491.578 30.8802 491.323 31.0625 491.016 31.2031C490.714 31.3438 490.346 31.4141 489.914 31.4141C489.727 31.4141 489.56 31.401 489.414 31.375C489.268 31.349 489.115 31.3151 488.953 31.2734V29.7266C489.005 29.7318 489.065 29.7344 489.133 29.7344C489.206 29.7396 489.268 29.7422 489.32 29.7422C489.622 29.7422 489.872 29.7057 490.07 29.6328C490.268 29.5651 490.427 29.4531 490.547 29.2969C490.672 29.1458 490.776 28.9479 490.859 28.7031L491.484 27.0625ZM490.367 19.5469L492.281 25.7734L492.617 27.9531L491.195 28.2109L488.141 19.5469H490.367Z" fill="white"/>
<g clip-path="url(#clip2_499_1892)">
<path d="M513.329 25.6039L518.864 20.0535C519.046 19.8717 519.045 19.5772 518.863 19.3957C518.682 19.2143 518.387 19.2148 518.206 19.3966L513 24.6166L507.794 19.3964C507.613 19.2146 507.319 19.2141 507.137 19.3955C507.046 19.4865 507 19.6057 507 19.725C507 19.8439 507.045 19.9626 507.136 20.0535L512.671 25.6039C512.758 25.6915 512.876 25.7406 513 25.7406C513.124 25.7406 513.242 25.6913 513.329 25.6039Z" fill="white"/>
</g>
<path d="M923 43H419V45H923V43Z" fill="#595959" mask="url(#path-11-inside-3_499_1892)"/>
<rect x="438" y="59" width="13" height="13" fill="#000759"/>
<path d="M469.633 67.1719V68.3594H461.414V67.5078L466.508 59.625H467.688L466.422 61.9062L463.055 67.1719H469.633ZM468.047 59.625V71H466.602V59.625H468.047ZM478.078 65.5703V66.7578H474.266V65.5703H478.078ZM487.352 69.2734L490.703 59.625H492.336L488.125 71H486.961L487.352 69.2734ZM484.219 59.625L487.539 69.2734L487.953 71H486.789L482.586 59.625H484.219ZM496.812 71.1562C496.224 71.1562 495.69 71.0573 495.211 70.8594C494.737 70.6562 494.328 70.3724 493.984 70.0078C493.646 69.6432 493.385 69.2109 493.203 68.7109C493.021 68.2109 492.93 67.6641 492.93 67.0703V66.7422C492.93 66.0547 493.031 65.4427 493.234 64.9062C493.438 64.3646 493.714 63.9062 494.062 63.5312C494.411 63.1562 494.807 62.8724 495.25 62.6797C495.693 62.487 496.151 62.3906 496.625 62.3906C497.229 62.3906 497.75 62.4948 498.188 62.7031C498.63 62.9115 498.992 63.2031 499.273 63.5781C499.555 63.9479 499.763 64.3854 499.898 64.8906C500.034 65.3906 500.102 65.9375 500.102 66.5312V67.1797H493.789V66H498.656V65.8906C498.635 65.5156 498.557 65.151 498.422 64.7969C498.292 64.4427 498.083 64.151 497.797 63.9219C497.51 63.6927 497.12 63.5781 496.625 63.5781C496.297 63.5781 495.995 63.6484 495.719 63.7891C495.443 63.9245 495.206 64.1276 495.008 64.3984C494.81 64.6693 494.656 65 494.547 65.3906C494.438 65.7812 494.383 66.2318 494.383 66.7422V67.0703C494.383 67.4714 494.438 67.849 494.547 68.2031C494.661 68.5521 494.826 68.8594 495.039 69.125C495.258 69.3906 495.521 69.599 495.828 69.75C496.141 69.901 496.495 69.9766 496.891 69.9766C497.401 69.9766 497.833 69.8724 498.188 69.6641C498.542 69.4557 498.852 69.1771 499.117 68.8281L499.992 69.5234C499.81 69.7995 499.578 70.0625 499.297 70.3125C499.016 70.5625 498.669 70.7656 498.258 70.9219C497.852 71.0781 497.37 71.1562 496.812 71.1562ZM503.234 63.875V71H501.789V62.5469H503.195L503.234 63.875ZM505.875 62.5L505.867 63.8438C505.747 63.8177 505.633 63.8021 505.523 63.7969C505.419 63.7865 505.299 63.7812 505.164 63.7812C504.831 63.7812 504.536 63.8333 504.281 63.9375C504.026 64.0417 503.81 64.1875 503.633 64.375C503.456 64.5625 503.315 64.7865 503.211 65.0469C503.112 65.3021 503.047 65.5833 503.016 65.8906L502.609 66.125C502.609 65.6146 502.659 65.1354 502.758 64.6875C502.862 64.2396 503.021 63.8438 503.234 63.5C503.448 63.151 503.719 62.8802 504.047 62.6875C504.38 62.4896 504.776 62.3906 505.234 62.3906C505.339 62.3906 505.458 62.4036 505.594 62.4297C505.729 62.4505 505.823 62.474 505.875 62.5ZM507.203 59H508.656V69.3594L508.531 71H507.203V59ZM514.367 66.7031V66.8672C514.367 67.4818 514.294 68.0521 514.148 68.5781C514.003 69.099 513.789 69.5521 513.508 69.9375C513.227 70.3229 512.883 70.6224 512.477 70.8359C512.07 71.0495 511.604 71.1562 511.078 71.1562C510.542 71.1562 510.07 71.0651 509.664 70.8828C509.263 70.6953 508.924 70.4271 508.648 70.0781C508.372 69.7292 508.151 69.3073 507.984 68.8125C507.823 68.3177 507.711 67.7604 507.648 67.1406V66.4219C507.711 65.7969 507.823 65.237 507.984 64.7422C508.151 64.2474 508.372 63.8255 508.648 63.4766C508.924 63.1224 509.263 62.8542 509.664 62.6719C510.065 62.4844 510.531 62.3906 511.062 62.3906C511.594 62.3906 512.065 62.4948 512.477 62.7031C512.888 62.9062 513.232 63.1979 513.508 63.5781C513.789 63.9583 514.003 64.4141 514.148 64.9453C514.294 65.4714 514.367 66.0573 514.367 66.7031ZM512.914 66.8672V66.7031C512.914 66.2812 512.875 65.8854 512.797 65.5156C512.719 65.1406 512.594 64.8125 512.422 64.5312C512.25 64.2448 512.023 64.0208 511.742 63.8594C511.461 63.6927 511.115 63.6094 510.703 63.6094C510.339 63.6094 510.021 63.6719 509.75 63.7969C509.484 63.9219 509.258 64.0911 509.07 64.3047C508.883 64.513 508.729 64.7526 508.609 65.0234C508.495 65.2891 508.409 65.5651 508.352 65.8516V67.7344C508.435 68.099 508.57 68.4505 508.758 68.7891C508.951 69.1224 509.206 69.3958 509.523 69.6094C509.846 69.8229 510.245 69.9297 510.719 69.9297C511.109 69.9297 511.443 69.8516 511.719 69.6953C512 69.5339 512.227 69.3125 512.398 69.0312C512.576 68.75 512.706 68.4245 512.789 68.0547C512.872 67.6849 512.914 67.2891 512.914 66.8672ZM515.812 66.8672V66.6875C515.812 66.0781 515.901 65.513 516.078 64.9922C516.255 64.4661 516.51 64.0104 516.844 63.625C517.177 63.2344 517.581 62.9323 518.055 62.7188C518.529 62.5 519.06 62.3906 519.648 62.3906C520.242 62.3906 520.776 62.5 521.25 62.7188C521.729 62.9323 522.135 63.2344 522.469 63.625C522.807 64.0104 523.065 64.4661 523.242 64.9922C523.419 65.513 523.508 66.0781 523.508 66.6875V66.8672C523.508 67.4766 523.419 68.0417 523.242 68.5625C523.065 69.0833 522.807 69.5391 522.469 69.9297C522.135 70.3151 521.732 70.6172 521.258 70.8359C520.789 71.0495 520.258 71.1562 519.664 71.1562C519.07 71.1562 518.536 71.0495 518.062 70.8359C517.589 70.6172 517.182 70.3151 516.844 69.9297C516.51 69.5391 516.255 69.0833 516.078 68.5625C515.901 68.0417 515.812 67.4766 515.812 66.8672ZM517.258 66.6875V66.8672C517.258 67.2891 517.307 67.6875 517.406 68.0625C517.505 68.4323 517.654 68.7604 517.852 69.0469C518.055 69.3333 518.307 69.5599 518.609 69.7266C518.911 69.888 519.263 69.9688 519.664 69.9688C520.06 69.9688 520.406 69.888 520.703 69.7266C521.005 69.5599 521.255 69.3333 521.453 69.0469C521.651 68.7604 521.799 68.4323 521.898 68.0625C522.003 67.6875 522.055 67.2891 522.055 66.8672V66.6875C522.055 66.2708 522.003 65.8776 521.898 65.5078C521.799 65.1328 521.648 64.8021 521.445 64.5156C521.247 64.224 520.997 63.9948 520.695 63.8281C520.398 63.6615 520.049 63.5781 519.648 63.5781C519.253 63.5781 518.904 63.6615 518.602 63.8281C518.305 63.9948 518.055 64.224 517.852 64.5156C517.654 64.8021 517.505 65.1328 517.406 65.5078C517.307 65.8776 517.258 66.2708 517.258 66.6875ZM530.242 68.7578C530.242 68.5495 530.195 68.3568 530.102 68.1797C530.013 67.9974 529.828 67.8333 529.547 67.6875C529.271 67.5365 528.854 67.4062 528.297 67.2969C527.828 67.1979 527.404 67.0807 527.023 66.9453C526.648 66.8099 526.328 66.6458 526.062 66.4531C525.802 66.2604 525.602 66.0339 525.461 65.7734C525.32 65.513 525.25 65.2083 525.25 64.8594C525.25 64.526 525.323 64.2109 525.469 63.9141C525.62 63.6172 525.831 63.3542 526.102 63.125C526.378 62.8958 526.708 62.7161 527.094 62.5859C527.479 62.4557 527.909 62.3906 528.383 62.3906C529.06 62.3906 529.638 62.5104 530.117 62.75C530.596 62.9896 530.964 63.3099 531.219 63.7109C531.474 64.1068 531.602 64.5469 531.602 65.0312H530.156C530.156 64.7969 530.086 64.5703 529.945 64.3516C529.81 64.1276 529.609 63.9427 529.344 63.7969C529.083 63.651 528.763 63.5781 528.383 63.5781C527.982 63.5781 527.656 63.6406 527.406 63.7656C527.161 63.8854 526.982 64.0391 526.867 64.2266C526.758 64.4141 526.703 64.612 526.703 64.8203C526.703 64.9766 526.729 65.1172 526.781 65.2422C526.839 65.362 526.938 65.474 527.078 65.5781C527.219 65.6771 527.417 65.7708 527.672 65.8594C527.927 65.9479 528.253 66.0365 528.648 66.125C529.341 66.2812 529.911 66.4688 530.359 66.6875C530.807 66.9062 531.141 67.1745 531.359 67.4922C531.578 67.8099 531.688 68.1953 531.688 68.6484C531.688 69.0182 531.609 69.3568 531.453 69.6641C531.302 69.9714 531.081 70.237 530.789 70.4609C530.503 70.6797 530.159 70.8516 529.758 70.9766C529.362 71.0964 528.917 71.1562 528.422 71.1562C527.677 71.1562 527.047 71.0234 526.531 70.7578C526.016 70.4922 525.625 70.1484 525.359 69.7266C525.094 69.3047 524.961 68.8594 524.961 68.3906H526.414C526.435 68.7865 526.549 69.1016 526.758 69.3359C526.966 69.5651 527.221 69.7292 527.523 69.8281C527.826 69.9219 528.125 69.9688 528.422 69.9688C528.818 69.9688 529.148 69.9167 529.414 69.8125C529.685 69.7083 529.891 69.5651 530.031 69.3828C530.172 69.2005 530.242 68.9922 530.242 68.7578ZM537.094 71.1562C536.505 71.1562 535.971 71.0573 535.492 70.8594C535.018 70.6562 534.609 70.3724 534.266 70.0078C533.927 69.6432 533.667 69.2109 533.484 68.7109C533.302 68.2109 533.211 67.6641 533.211 67.0703V66.7422C533.211 66.0547 533.312 65.4427 533.516 64.9062C533.719 64.3646 533.995 63.9062 534.344 63.5312C534.693 63.1562 535.089 62.8724 535.531 62.6797C535.974 62.487 536.432 62.3906 536.906 62.3906C537.51 62.3906 538.031 62.4948 538.469 62.7031C538.911 62.9115 539.273 63.2031 539.555 63.5781C539.836 63.9479 540.044 64.3854 540.18 64.8906C540.315 65.3906 540.383 65.9375 540.383 66.5312V67.1797H534.07V66H538.938V65.8906C538.917 65.5156 538.839 65.151 538.703 64.7969C538.573 64.4427 538.365 64.151 538.078 63.9219C537.792 63.6927 537.401 63.5781 536.906 63.5781C536.578 63.5781 536.276 63.6484 536 63.7891C535.724 63.9245 535.487 64.1276 535.289 64.3984C535.091 64.6693 534.938 65 534.828 65.3906C534.719 65.7812 534.664 66.2318 534.664 66.7422V67.0703C534.664 67.4714 534.719 67.849 534.828 68.2031C534.943 68.5521 535.107 68.8594 535.32 69.125C535.539 69.3906 535.802 69.599 536.109 69.75C536.422 69.901 536.776 69.9766 537.172 69.9766C537.682 69.9766 538.115 69.8724 538.469 69.6641C538.823 69.4557 539.133 69.1771 539.398 68.8281L540.273 69.5234C540.091 69.7995 539.859 70.0625 539.578 70.3125C539.297 70.5625 538.951 70.7656 538.539 70.9219C538.133 71.0781 537.651 71.1562 537.094 71.1562Z" fill="white"/>
<path d="M923 86H419V88H923V86Z" fill="#595959" mask="url(#path-15-inside-4_499_1892)"/>
<mask id="path-19-inside-5_499_1892" fill="white">
<path d="M923 1H1424V44H923V1Z"/>
</mask>
<path d="M923 1H1424V44H923V1Z" fill="#3A3942"/>
<path d="M947.609 18.3516L944.367 28H942.094L946.344 16.625H947.797L947.609 18.3516ZM950.32 28L947.062 18.3516L946.867 16.625H948.328L952.602 28H950.32ZM950.172 23.7734V25.4688H944.07V23.7734H950.172ZM956.32 28H954.242V18.7656C954.242 18.1302 954.365 17.5964 954.609 17.1641C954.854 16.7266 955.203 16.3958 955.656 16.1719C956.109 15.9479 956.643 15.8359 957.258 15.8359C957.461 15.8359 957.654 15.849 957.836 15.875C958.023 15.901 958.208 15.9375 958.391 15.9844L958.352 17.5547C958.253 17.5286 958.143 17.5104 958.023 17.5C957.909 17.4896 957.781 17.4844 957.641 17.4844C957.359 17.4844 957.12 17.5339 956.922 17.6328C956.724 17.7318 956.573 17.8776 956.469 18.0703C956.37 18.2578 956.32 18.4896 956.32 18.7656V28ZM958.031 19.5469V21.0312H952.969V19.5469H958.031ZM962.008 28H959.93V18.7656C959.93 18.1302 960.052 17.5964 960.297 17.1641C960.542 16.7266 960.891 16.3958 961.344 16.1719C961.797 15.9479 962.331 15.8359 962.945 15.8359C963.148 15.8359 963.341 15.849 963.523 15.875C963.711 15.901 963.896 15.9375 964.078 15.9844L964.039 17.5547C963.94 17.5286 963.831 17.5104 963.711 17.5C963.596 17.4896 963.469 17.4844 963.328 17.4844C963.047 17.4844 962.807 17.5339 962.609 17.6328C962.411 17.7318 962.26 17.8776 962.156 18.0703C962.057 18.2578 962.008 18.4896 962.008 18.7656V28ZM963.719 19.5469V21.0312H958.656V19.5469H963.719ZM968.602 28.1562C967.961 28.1562 967.385 28.0521 966.875 27.8438C966.365 27.6354 965.93 27.3464 965.57 26.9766C965.216 26.6016 964.943 26.1667 964.75 25.6719C964.562 25.1719 964.469 24.6354 964.469 24.0625V23.75C964.469 23.099 964.562 22.5078 964.75 21.9766C964.938 21.4401 965.203 20.9792 965.547 20.5938C965.891 20.2083 966.302 19.9115 966.781 19.7031C967.26 19.4948 967.789 19.3906 968.367 19.3906C968.966 19.3906 969.495 19.4922 969.953 19.6953C970.411 19.8932 970.794 20.1745 971.102 20.5391C971.409 20.9036 971.641 21.3411 971.797 21.8516C971.953 22.3568 972.031 22.9167 972.031 23.5312V24.3984H965.406V22.9766H970V22.8203C969.99 22.4922 969.927 22.1927 969.812 21.9219C969.698 21.6458 969.521 21.4271 969.281 21.2656C969.042 21.099 968.732 21.0156 968.352 21.0156C968.044 21.0156 967.776 21.0833 967.547 21.2188C967.323 21.349 967.135 21.5365 966.984 21.7812C966.839 22.0208 966.729 22.3073 966.656 22.6406C966.583 22.974 966.547 23.3438 966.547 23.75V24.0625C966.547 24.4167 966.594 24.7448 966.688 25.0469C966.786 25.349 966.93 25.612 967.117 25.8359C967.31 26.0547 967.539 26.2266 967.805 26.3516C968.076 26.4714 968.383 26.5312 968.727 26.5312C969.159 26.5312 969.549 26.4479 969.898 26.2812C970.253 26.1094 970.56 25.8568 970.82 25.5234L971.859 26.6016C971.682 26.862 971.443 27.112 971.141 27.3516C970.844 27.5911 970.484 27.7865 970.062 27.9375C969.641 28.0833 969.154 28.1562 968.602 28.1562ZM976.883 26.5312C977.174 26.5312 977.435 26.474 977.664 26.3594C977.893 26.2448 978.076 26.0833 978.211 25.875C978.352 25.6667 978.427 25.4245 978.438 25.1484H980.383C980.372 25.7214 980.211 26.2344 979.898 26.6875C979.586 27.1406 979.169 27.5 978.648 27.7656C978.133 28.026 977.555 28.1562 976.914 28.1562C976.263 28.1562 975.695 28.0469 975.211 27.8281C974.727 27.6094 974.323 27.3047 974 26.9141C973.682 26.5234 973.443 26.0703 973.281 25.5547C973.125 25.0391 973.047 24.487 973.047 23.8984V23.6484C973.047 23.0599 973.125 22.5078 973.281 21.9922C973.443 21.4766 973.682 21.0234 974 20.6328C974.323 20.2422 974.727 19.9375 975.211 19.7188C975.695 19.5 976.26 19.3906 976.906 19.3906C977.589 19.3906 978.188 19.5234 978.703 19.7891C979.224 20.0547 979.63 20.4297 979.922 20.9141C980.219 21.3984 980.372 21.9688 980.383 22.625H978.438C978.427 22.3229 978.359 22.0521 978.234 21.8125C978.109 21.5729 977.932 21.3802 977.703 21.2344C977.474 21.0885 977.195 21.0156 976.867 21.0156C976.518 21.0156 976.227 21.0885 975.992 21.2344C975.763 21.3802 975.583 21.5807 975.453 21.8359C975.328 22.0859 975.24 22.3672 975.188 22.6797C975.141 22.987 975.117 23.3099 975.117 23.6484V23.8984C975.117 24.2422 975.141 24.5703 975.188 24.8828C975.24 25.1953 975.328 25.4766 975.453 25.7266C975.583 25.9714 975.763 26.1667 975.992 26.3125C976.227 26.4583 976.523 26.5312 976.883 26.5312ZM985.758 19.5469V21.0312H980.914V19.5469H985.758ZM982.211 17.4688H984.281V25.5625C984.281 25.8125 984.315 26.0052 984.383 26.1406C984.451 26.276 984.552 26.3672 984.688 26.4141C984.823 26.4609 984.984 26.4844 985.172 26.4844C985.307 26.4844 985.432 26.4766 985.547 26.4609C985.661 26.4453 985.758 26.4297 985.836 26.4141L985.844 27.9609C985.672 28.0182 985.477 28.0651 985.258 28.1016C985.044 28.138 984.802 28.1562 984.531 28.1562C984.068 28.1562 983.661 28.0781 983.312 27.9219C982.964 27.7604 982.693 27.5026 982.5 27.1484C982.307 26.7891 982.211 26.3151 982.211 25.7266V17.4688ZM990.93 28.1562C990.289 28.1562 989.714 28.0521 989.203 27.8438C988.693 27.6354 988.258 27.3464 987.898 26.9766C987.544 26.6016 987.271 26.1667 987.078 25.6719C986.891 25.1719 986.797 24.6354 986.797 24.0625V23.75C986.797 23.099 986.891 22.5078 987.078 21.9766C987.266 21.4401 987.531 20.9792 987.875 20.5938C988.219 20.2083 988.63 19.9115 989.109 19.7031C989.589 19.4948 990.117 19.3906 990.695 19.3906C991.294 19.3906 991.823 19.4922 992.281 19.6953C992.74 19.8932 993.122 20.1745 993.43 20.5391C993.737 20.9036 993.969 21.3411 994.125 21.8516C994.281 22.3568 994.359 22.9167 994.359 23.5312V24.3984H987.734V22.9766H992.328V22.8203C992.318 22.4922 992.255 22.1927 992.141 21.9219C992.026 21.6458 991.849 21.4271 991.609 21.2656C991.37 21.099 991.06 21.0156 990.68 21.0156C990.372 21.0156 990.104 21.0833 989.875 21.2188C989.651 21.349 989.464 21.5365 989.312 21.7812C989.167 22.0208 989.057 22.3073 988.984 22.6406C988.911 22.974 988.875 23.3438 988.875 23.75V24.0625C988.875 24.4167 988.922 24.7448 989.016 25.0469C989.115 25.349 989.258 25.612 989.445 25.8359C989.638 26.0547 989.867 26.2266 990.133 26.3516C990.404 26.4714 990.711 26.5312 991.055 26.5312C991.487 26.5312 991.878 26.4479 992.227 26.2812C992.581 26.1094 992.888 25.8568 993.148 25.5234L994.188 26.6016C994.01 26.862 993.771 27.112 993.469 27.3516C993.172 27.5911 992.812 27.7865 992.391 27.9375C991.969 28.0833 991.482 28.1562 990.93 28.1562ZM1000.81 26.2031V16H1002.89V28H1001.02L1000.81 26.2031ZM995.383 23.875V23.7109C995.383 23.0651 995.456 22.4792 995.602 21.9531C995.753 21.4219 995.971 20.9661 996.258 20.5859C996.544 20.2057 996.891 19.9115 997.297 19.7031C997.708 19.4948 998.174 19.3906 998.695 19.3906C999.201 19.3906 999.641 19.4922 1000.02 19.6953C1000.4 19.8984 1000.72 20.1875 1000.98 20.5625C1001.26 20.9375 1001.47 21.3828 1001.63 21.8984C1001.79 22.4089 1001.91 22.9714 1001.98 23.5859V24.0312C1001.91 24.6302 1001.79 25.1797 1001.63 25.6797C1001.47 26.1797 1001.26 26.6172 1000.98 26.9922C1000.72 27.362 1000.4 27.6484 1000.02 27.8516C999.635 28.0547 999.19 28.1562 998.68 28.1562C998.164 28.1562 997.701 28.0495 997.289 27.8359C996.883 27.6224 996.536 27.3229 996.25 26.9375C995.969 26.5521 995.753 26.099 995.602 25.5781C995.456 25.0573 995.383 24.4896 995.383 23.875ZM997.453 23.7109V23.875C997.453 24.2396 997.484 24.5807 997.547 24.8984C997.609 25.2161 997.711 25.4974 997.852 25.7422C997.992 25.9818 998.172 26.1693 998.391 26.3047C998.615 26.4401 998.885 26.5078 999.203 26.5078C999.609 26.5078 999.943 26.4193 1000.2 26.2422C1000.47 26.0599 1000.67 25.8125 1000.82 25.5C1000.97 25.1823 1001.06 24.8255 1001.1 24.4297V23.2031C1001.08 22.8906 1001.03 22.6016 1000.94 22.3359C1000.85 22.0703 1000.73 21.8411 1000.58 21.6484C1000.43 21.4557 1000.24 21.3047 1000.02 21.1953C999.792 21.0859 999.526 21.0312 999.219 21.0312C998.901 21.0312 998.63 21.1016 998.406 21.2422C998.182 21.3776 998 21.5677 997.859 21.8125C997.719 22.0573 997.615 22.3411 997.547 22.6641C997.484 22.987 997.453 23.3359 997.453 23.7109ZM1008.9 16.625H1013.03C1013.9 16.625 1014.64 16.7552 1015.26 17.0156C1015.88 17.276 1016.35 17.6615 1016.69 18.1719C1017.02 18.6823 1017.19 19.3099 1017.19 20.0547C1017.19 20.6432 1017.08 21.1536 1016.88 21.5859C1016.67 22.0182 1016.37 22.3802 1015.99 22.6719C1015.62 22.9635 1015.17 23.1927 1014.66 23.3594L1013.99 23.7031H1010.34L1010.33 22.0078H1013.05C1013.5 22.0078 1013.86 21.9297 1014.16 21.7734C1014.45 21.6172 1014.67 21.401 1014.81 21.125C1014.96 20.849 1015.04 20.5339 1015.04 20.1797C1015.04 19.7995 1014.97 19.4714 1014.82 19.1953C1014.67 18.9141 1014.45 18.6979 1014.16 18.5469C1013.86 18.3958 1013.48 18.3203 1013.03 18.3203H1011.05V28H1008.9V16.625ZM1015.32 28L1012.69 22.9062L1014.96 22.8984L1017.62 27.8906V28H1015.32ZM1022.71 28.1562C1022.07 28.1562 1021.49 28.0521 1020.98 27.8438C1020.47 27.6354 1020.04 27.3464 1019.68 26.9766C1019.33 26.6016 1019.05 26.1667 1018.86 25.6719C1018.67 25.1719 1018.58 24.6354 1018.58 24.0625V23.75C1018.58 23.099 1018.67 22.5078 1018.86 21.9766C1019.05 21.4401 1019.31 20.9792 1019.66 20.5938C1020 20.2083 1020.41 19.9115 1020.89 19.7031C1021.37 19.4948 1021.9 19.3906 1022.48 19.3906C1023.08 19.3906 1023.6 19.4922 1024.06 19.6953C1024.52 19.8932 1024.9 20.1745 1025.21 20.5391C1025.52 20.9036 1025.75 21.3411 1025.91 21.8516C1026.06 22.3568 1026.14 22.9167 1026.14 23.5312V24.3984H1019.52V22.9766H1024.11V22.8203C1024.1 22.4922 1024.04 22.1927 1023.92 21.9219C1023.81 21.6458 1023.63 21.4271 1023.39 21.2656C1023.15 21.099 1022.84 21.0156 1022.46 21.0156C1022.15 21.0156 1021.89 21.0833 1021.66 21.2188C1021.43 21.349 1021.24 21.5365 1021.09 21.7812C1020.95 22.0208 1020.84 22.3073 1020.77 22.6406C1020.69 22.974 1020.66 23.3438 1020.66 23.75V24.0625C1020.66 24.4167 1020.7 24.7448 1020.8 25.0469C1020.9 25.349 1021.04 25.612 1021.23 25.8359C1021.42 26.0547 1021.65 26.2266 1021.91 26.3516C1022.18 26.4714 1022.49 26.5312 1022.84 26.5312C1023.27 26.5312 1023.66 26.4479 1024.01 26.2812C1024.36 26.1094 1024.67 25.8568 1024.93 25.5234L1025.97 26.6016C1025.79 26.862 1025.55 27.112 1025.25 27.3516C1024.95 27.5911 1024.59 27.7865 1024.17 27.9375C1023.75 28.0833 1023.26 28.1562 1022.71 28.1562ZM1032.17 25.6875C1032.17 25.5104 1032.12 25.3516 1032.03 25.2109C1031.94 25.0703 1031.76 24.9427 1031.5 24.8281C1031.24 24.7083 1030.87 24.5964 1030.38 24.4922C1029.94 24.3984 1029.53 24.2812 1029.16 24.1406C1028.79 24 1028.48 23.8307 1028.21 23.6328C1027.95 23.4297 1027.74 23.1927 1027.59 22.9219C1027.44 22.6458 1027.37 22.3281 1027.37 21.9688C1027.37 21.6198 1027.44 21.2917 1027.59 20.9844C1027.74 20.6719 1027.96 20.3984 1028.25 20.1641C1028.54 19.9245 1028.89 19.737 1029.3 19.6016C1029.71 19.4609 1030.17 19.3906 1030.69 19.3906C1031.41 19.3906 1032.02 19.5078 1032.54 19.7422C1033.06 19.9766 1033.46 20.2995 1033.73 20.7109C1034.01 21.1172 1034.15 21.5755 1034.15 22.0859H1032.09C1032.09 21.862 1032.03 21.6589 1031.93 21.4766C1031.83 21.2943 1031.68 21.1484 1031.47 21.0391C1031.26 20.9245 1031 20.8672 1030.68 20.8672C1030.39 20.8672 1030.15 20.9141 1029.95 21.0078C1029.76 21.1016 1029.61 21.224 1029.52 21.375C1029.42 21.526 1029.37 21.6927 1029.37 21.875C1029.37 22.0104 1029.39 22.1328 1029.45 22.2422C1029.5 22.3464 1029.59 22.4427 1029.72 22.5312C1029.84 22.6198 1030.01 22.7005 1030.23 22.7734C1030.45 22.8464 1030.71 22.9167 1031.03 22.9844C1031.66 23.1094 1032.21 23.276 1032.68 23.4844C1033.15 23.6875 1033.52 23.9583 1033.79 24.2969C1034.05 24.6354 1034.19 25.0677 1034.19 25.5938C1034.19 25.9688 1034.11 26.3125 1033.95 26.625C1033.78 26.9323 1033.55 27.2005 1033.24 27.4297C1032.93 27.6589 1032.57 27.8385 1032.14 27.9688C1031.71 28.0938 1031.23 28.1562 1030.7 28.1562C1029.92 28.1562 1029.26 28.0182 1028.73 27.7422C1028.19 27.4609 1027.78 27.1068 1027.51 26.6797C1027.23 26.2474 1027.09 25.7995 1027.09 25.3359H1029.07C1029.09 25.6641 1029.17 25.9271 1029.34 26.125C1029.5 26.3229 1029.7 26.4661 1029.95 26.5547C1030.2 26.638 1030.46 26.6797 1030.73 26.6797C1031.05 26.6797 1031.31 26.638 1031.52 26.5547C1031.74 26.4661 1031.9 26.349 1032.01 26.2031C1032.12 26.0521 1032.17 25.8802 1032.17 25.6875ZM1035.39 23.8594V23.6953C1035.39 23.0755 1035.48 22.5052 1035.66 21.9844C1035.83 21.4583 1036.09 21.0026 1036.43 20.6172C1036.77 20.2318 1037.18 19.9323 1037.67 19.7188C1038.16 19.5 1038.72 19.3906 1039.34 19.3906C1039.98 19.3906 1040.54 19.5 1041.03 19.7188C1041.53 19.9323 1041.94 20.2318 1042.28 20.6172C1042.62 21.0026 1042.88 21.4583 1043.05 21.9844C1043.23 22.5052 1043.32 23.0755 1043.32 23.6953V23.8594C1043.32 24.474 1043.23 25.0443 1043.05 25.5703C1042.88 26.0911 1042.62 26.5469 1042.28 26.9375C1041.94 27.3229 1041.53 27.6224 1041.04 27.8359C1040.55 28.0495 1039.99 28.1562 1039.36 28.1562C1038.73 28.1562 1038.17 28.0495 1037.68 27.8359C1037.18 27.6224 1036.77 27.3229 1036.43 26.9375C1036.09 26.5469 1035.83 26.0911 1035.66 25.5703C1035.48 25.0443 1035.39 24.474 1035.39 23.8594ZM1037.45 23.6953V23.8594C1037.45 24.2292 1037.49 24.5755 1037.56 24.8984C1037.64 25.2214 1037.75 25.5052 1037.9 25.75C1038.05 25.9948 1038.24 26.1875 1038.48 26.3281C1038.73 26.4635 1039.02 26.5312 1039.36 26.5312C1039.69 26.5312 1039.98 26.4635 1040.22 26.3281C1040.46 26.1875 1040.65 25.9948 1040.8 25.75C1040.96 25.5052 1041.08 25.2214 1041.15 24.8984C1041.22 24.5755 1041.26 24.2292 1041.26 23.8594V23.6953C1041.26 23.3307 1041.22 22.9896 1041.15 22.6719C1041.08 22.349 1040.96 22.0651 1040.8 21.8203C1040.65 21.5703 1040.46 21.375 1040.21 21.2344C1039.97 21.0885 1039.68 21.0156 1039.34 21.0156C1039.01 21.0156 1038.72 21.0885 1038.48 21.2344C1038.24 21.375 1038.05 21.5703 1037.9 21.8203C1037.75 22.0651 1037.64 22.349 1037.56 22.6719C1037.49 22.9896 1037.45 23.3307 1037.45 23.6953ZM1049.85 25.9922V19.5469H1051.93V28H1049.98L1049.85 25.9922ZM1050.12 24.2422L1050.76 24.2266C1050.76 24.7943 1050.7 25.3177 1050.57 25.7969C1050.45 26.276 1050.25 26.6927 1049.98 27.0469C1049.72 27.3958 1049.39 27.6693 1048.99 27.8672C1048.59 28.0599 1048.12 28.1562 1047.57 28.1562C1047.15 28.1562 1046.77 28.099 1046.43 27.9844C1046.09 27.8646 1045.79 27.6797 1045.54 27.4297C1045.29 27.1745 1045.1 26.849 1044.97 26.4531C1044.83 26.0521 1044.77 25.5703 1044.77 25.0078V19.5469H1046.83V25.0234C1046.83 25.3047 1046.86 25.5391 1046.92 25.7266C1046.99 25.9141 1047.08 26.0677 1047.2 26.1875C1047.32 26.3021 1047.45 26.3854 1047.61 26.4375C1047.77 26.4844 1047.94 26.5078 1048.12 26.5078C1048.62 26.5078 1049.02 26.4089 1049.3 26.2109C1049.6 26.0078 1049.8 25.737 1049.93 25.3984C1050.05 25.0547 1050.12 24.6693 1050.12 24.2422ZM1055.82 21.2734V28H1053.76V19.5469H1055.71L1055.82 21.2734ZM1058.39 19.4922L1058.36 21.4141C1058.24 21.3932 1058.11 21.3776 1057.97 21.3672C1057.83 21.3568 1057.7 21.3516 1057.57 21.3516C1057.25 21.3516 1056.97 21.3958 1056.73 21.4844C1056.49 21.5677 1056.29 21.6901 1056.13 21.8516C1055.98 22.013 1055.86 22.2109 1055.77 22.4453C1055.69 22.6745 1055.64 22.9349 1055.63 23.2266L1055.19 23.1719C1055.19 22.6354 1055.24 22.138 1055.35 21.6797C1055.46 21.2214 1055.62 20.8203 1055.83 20.4766C1056.04 20.1328 1056.3 19.8672 1056.61 19.6797C1056.93 19.487 1057.29 19.3906 1057.7 19.3906C1057.82 19.3906 1057.94 19.401 1058.07 19.4219C1058.21 19.4375 1058.31 19.4609 1058.39 19.4922ZM1062.84 26.5312C1063.13 26.5312 1063.39 26.474 1063.62 26.3594C1063.85 26.2448 1064.03 26.0833 1064.16 25.875C1064.3 25.6667 1064.38 25.4245 1064.39 25.1484H1066.34C1066.33 25.7214 1066.16 26.2344 1065.85 26.6875C1065.54 27.1406 1065.12 27.5 1064.6 27.7656C1064.09 28.026 1063.51 28.1562 1062.87 28.1562C1062.22 28.1562 1061.65 28.0469 1061.16 27.8281C1060.68 27.6094 1060.28 27.3047 1059.95 26.9141C1059.64 26.5234 1059.4 26.0703 1059.23 25.5547C1059.08 25.0391 1059 24.487 1059 23.8984V23.6484C1059 23.0599 1059.08 22.5078 1059.23 21.9922C1059.4 21.4766 1059.64 21.0234 1059.95 20.6328C1060.28 20.2422 1060.68 19.9375 1061.16 19.7188C1061.65 19.5 1062.21 19.3906 1062.86 19.3906C1063.54 19.3906 1064.14 19.5234 1064.66 19.7891C1065.18 20.0547 1065.58 20.4297 1065.88 20.9141C1066.17 21.3984 1066.33 21.9688 1066.34 22.625H1064.39C1064.38 22.3229 1064.31 22.0521 1064.19 21.8125C1064.06 21.5729 1063.89 21.3802 1063.66 21.2344C1063.43 21.0885 1063.15 21.0156 1062.82 21.0156C1062.47 21.0156 1062.18 21.0885 1061.95 21.2344C1061.72 21.3802 1061.54 21.5807 1061.41 21.8359C1061.28 22.0859 1061.19 22.3672 1061.14 22.6797C1061.09 22.987 1061.07 23.3099 1061.07 23.6484V23.8984C1061.07 24.2422 1061.09 24.5703 1061.14 24.8828C1061.19 25.1953 1061.28 25.4766 1061.41 25.7266C1061.54 25.9714 1061.72 26.1667 1061.95 26.3125C1062.18 26.4583 1062.48 26.5312 1062.84 26.5312ZM1071.51 28.1562C1070.87 28.1562 1070.29 28.0521 1069.78 27.8438C1069.27 27.6354 1068.84 27.3464 1068.48 26.9766C1068.12 26.6016 1067.85 26.1667 1067.66 25.6719C1067.47 25.1719 1067.38 24.6354 1067.38 24.0625V23.75C1067.38 23.099 1067.47 22.5078 1067.66 21.9766C1067.84 21.4401 1068.11 20.9792 1068.45 20.5938C1068.8 20.2083 1069.21 19.9115 1069.69 19.7031C1070.17 19.4948 1070.7 19.3906 1071.27 19.3906C1071.87 19.3906 1072.4 19.4922 1072.86 19.6953C1073.32 19.8932 1073.7 20.1745 1074.01 20.5391C1074.32 20.9036 1074.55 21.3411 1074.7 21.8516C1074.86 22.3568 1074.94 22.9167 1074.94 23.5312V24.3984H1068.31V22.9766H1072.91V22.8203C1072.9 22.4922 1072.83 22.1927 1072.72 21.9219C1072.6 21.6458 1072.43 21.4271 1072.19 21.2656C1071.95 21.099 1071.64 21.0156 1071.26 21.0156C1070.95 21.0156 1070.68 21.0833 1070.45 21.2188C1070.23 21.349 1070.04 21.5365 1069.89 21.7812C1069.74 22.0208 1069.64 22.3073 1069.56 22.6406C1069.49 22.974 1069.45 23.3438 1069.45 23.75V24.0625C1069.45 24.4167 1069.5 24.7448 1069.59 25.0469C1069.69 25.349 1069.84 25.612 1070.02 25.8359C1070.22 26.0547 1070.45 26.2266 1070.71 26.3516C1070.98 26.4714 1071.29 26.5312 1071.63 26.5312C1072.07 26.5312 1072.46 26.4479 1072.8 26.2812C1073.16 26.1094 1073.47 25.8568 1073.73 25.5234L1074.77 26.6016C1074.59 26.862 1074.35 27.112 1074.05 27.3516C1073.75 27.5911 1073.39 27.7865 1072.97 27.9375C1072.55 28.0833 1072.06 28.1562 1071.51 28.1562ZM1080.97 25.6875C1080.97 25.5104 1080.92 25.3516 1080.83 25.2109C1080.73 25.0703 1080.56 24.9427 1080.3 24.8281C1080.04 24.7083 1079.67 24.5964 1079.17 24.4922C1078.73 24.3984 1078.33 24.2812 1077.96 24.1406C1077.59 24 1077.27 23.8307 1077.01 23.6328C1076.74 23.4297 1076.53 23.1927 1076.38 22.9219C1076.24 22.6458 1076.16 22.3281 1076.16 21.9688C1076.16 21.6198 1076.24 21.2917 1076.39 20.9844C1076.54 20.6719 1076.76 20.3984 1077.05 20.1641C1077.33 19.9245 1077.68 19.737 1078.09 19.6016C1078.51 19.4609 1078.97 19.3906 1079.48 19.3906C1080.2 19.3906 1080.82 19.5078 1081.34 19.7422C1081.86 19.9766 1082.26 20.2995 1082.53 20.7109C1082.81 21.1172 1082.95 21.5755 1082.95 22.0859H1080.88C1080.88 21.862 1080.83 21.6589 1080.73 21.4766C1080.63 21.2943 1080.47 21.1484 1080.27 21.0391C1080.06 20.9245 1079.79 20.8672 1079.48 20.8672C1079.19 20.8672 1078.95 20.9141 1078.75 21.0078C1078.56 21.1016 1078.41 21.224 1078.31 21.375C1078.21 21.526 1078.16 21.6927 1078.16 21.875C1078.16 22.0104 1078.19 22.1328 1078.24 22.2422C1078.3 22.3464 1078.39 22.4427 1078.52 22.5312C1078.64 22.6198 1078.81 22.7005 1079.02 22.7734C1079.24 22.8464 1079.51 22.9167 1079.83 22.9844C1080.46 23.1094 1081.01 23.276 1081.48 23.4844C1081.95 23.6875 1082.32 23.9583 1082.59 24.2969C1082.85 24.6354 1082.98 25.0677 1082.98 25.5938C1082.98 25.9688 1082.9 26.3125 1082.74 26.625C1082.58 26.9323 1082.35 27.2005 1082.04 27.4297C1081.73 27.6589 1081.36 27.8385 1080.94 27.9688C1080.51 28.0938 1080.03 28.1562 1079.49 28.1562C1078.72 28.1562 1078.06 28.0182 1077.52 27.7422C1076.99 27.4609 1076.58 27.1068 1076.3 26.6797C1076.03 26.2474 1075.89 25.7995 1075.89 25.3359H1077.87C1077.88 25.6641 1077.97 25.9271 1078.13 26.125C1078.29 26.3229 1078.5 26.4661 1078.74 26.5547C1078.99 26.638 1079.26 26.6797 1079.53 26.6797C1079.84 26.6797 1080.11 26.638 1080.32 26.5547C1080.53 26.4661 1080.7 26.349 1080.8 26.2031C1080.91 26.0521 1080.97 25.8802 1080.97 25.6875Z" fill="white"/>
<g clip-path="url(#clip3_499_1892)">
<path d="M1100.33 25.6039L1105.86 20.0535C1106.05 19.8717 1106.05 19.5772 1105.86 19.3957C1105.68 19.2143 1105.39 19.2148 1105.21 19.3966L1100 24.6166L1094.79 19.3964C1094.61 19.2146 1094.32 19.2141 1094.14 19.3955C1094.05 19.4865 1094 19.6057 1094 19.725C1094 19.8439 1094.05 19.9626 1094.14 20.0535L1099.67 25.6039C1099.76 25.6915 1099.88 25.7406 1100 25.7406C1100.12 25.7406 1100.24 25.6913 1100.33 25.6039Z" fill="white"/>
</g>
<path d="M1424 43H923V45H1424V43Z" fill="#595959" mask="url(#path-19-inside-5_499_1892)"/>
<path d="M944.547 63.875V71H943.102V62.5469H944.508L944.547 63.875ZM947.188 62.5L947.18 63.8438C947.06 63.8177 946.945 63.8021 946.836 63.7969C946.732 63.7865 946.612 63.7812 946.477 63.7812C946.143 63.7812 945.849 63.8333 945.594 63.9375C945.339 64.0417 945.122 64.1875 944.945 64.375C944.768 64.5625 944.628 64.7865 944.523 65.0469C944.424 65.3021 944.359 65.5833 944.328 65.8906L943.922 66.125C943.922 65.6146 943.971 65.1354 944.07 64.6875C944.174 64.2396 944.333 63.8438 944.547 63.5C944.76 63.151 945.031 62.8802 945.359 62.6875C945.693 62.4896 946.089 62.3906 946.547 62.3906C946.651 62.3906 946.771 62.4036 946.906 62.4297C947.042 62.4505 947.135 62.474 947.188 62.5ZM951.875 71.1562C951.286 71.1562 950.753 71.0573 950.273 70.8594C949.799 70.6562 949.391 70.3724 949.047 70.0078C948.708 69.6432 948.448 69.2109 948.266 68.7109C948.083 68.2109 947.992 67.6641 947.992 67.0703V66.7422C947.992 66.0547 948.094 65.4427 948.297 64.9062C948.5 64.3646 948.776 63.9062 949.125 63.5312C949.474 63.1562 949.87 62.8724 950.312 62.6797C950.755 62.487 951.214 62.3906 951.688 62.3906C952.292 62.3906 952.812 62.4948 953.25 62.7031C953.693 62.9115 954.055 63.2031 954.336 63.5781C954.617 63.9479 954.826 64.3854 954.961 64.8906C955.096 65.3906 955.164 65.9375 955.164 66.5312V67.1797H948.852V66H953.719V65.8906C953.698 65.5156 953.62 65.151 953.484 64.7969C953.354 64.4427 953.146 64.151 952.859 63.9219C952.573 63.6927 952.182 63.5781 951.688 63.5781C951.359 63.5781 951.057 63.6484 950.781 63.7891C950.505 63.9245 950.268 64.1276 950.07 64.3984C949.872 64.6693 949.719 65 949.609 65.3906C949.5 65.7812 949.445 66.2318 949.445 66.7422V67.0703C949.445 67.4714 949.5 67.849 949.609 68.2031C949.724 68.5521 949.888 68.8594 950.102 69.125C950.32 69.3906 950.583 69.599 950.891 69.75C951.203 69.901 951.557 69.9766 951.953 69.9766C952.464 69.9766 952.896 69.8724 953.25 69.6641C953.604 69.4557 953.914 69.1771 954.18 68.8281L955.055 69.5234C954.872 69.7995 954.641 70.0625 954.359 70.3125C954.078 70.5625 953.732 70.7656 953.32 70.9219C952.914 71.0781 952.432 71.1562 951.875 71.1562ZM960.234 69.9688C960.578 69.9688 960.896 69.8984 961.188 69.7578C961.479 69.6172 961.719 69.4245 961.906 69.1797C962.094 68.9297 962.201 68.6458 962.227 68.3281H963.602C963.576 68.8281 963.406 69.2943 963.094 69.7266C962.786 70.1536 962.383 70.5 961.883 70.7656C961.383 71.026 960.833 71.1562 960.234 71.1562C959.599 71.1562 959.044 71.0443 958.57 70.8203C958.102 70.5964 957.711 70.2891 957.398 69.8984C957.091 69.5078 956.859 69.0599 956.703 68.5547C956.552 68.0443 956.477 67.5052 956.477 66.9375V66.6094C956.477 66.0417 956.552 65.5052 956.703 65C956.859 64.4896 957.091 64.0391 957.398 63.6484C957.711 63.2578 958.102 62.9505 958.57 62.7266C959.044 62.5026 959.599 62.3906 960.234 62.3906C960.896 62.3906 961.474 62.526 961.969 62.7969C962.464 63.0625 962.852 63.4271 963.133 63.8906C963.419 64.349 963.576 64.8698 963.602 65.4531H962.227C962.201 65.1042 962.102 64.7891 961.93 64.5078C961.763 64.2266 961.534 64.0026 961.242 63.8359C960.956 63.6641 960.62 63.5781 960.234 63.5781C959.792 63.5781 959.419 63.6667 959.117 63.8438C958.82 64.0156 958.583 64.25 958.406 64.5469C958.234 64.8385 958.109 65.1641 958.031 65.5234C957.958 65.8776 957.922 66.2396 957.922 66.6094V66.9375C957.922 67.3073 957.958 67.6719 958.031 68.0312C958.104 68.3906 958.227 68.7161 958.398 69.0078C958.576 69.2995 958.812 69.5339 959.109 69.7109C959.411 69.8828 959.786 69.9688 960.234 69.9688ZM968.734 71.1562C968.146 71.1562 967.612 71.0573 967.133 70.8594C966.659 70.6562 966.25 70.3724 965.906 70.0078C965.568 69.6432 965.307 69.2109 965.125 68.7109C964.943 68.2109 964.852 67.6641 964.852 67.0703V66.7422C964.852 66.0547 964.953 65.4427 965.156 64.9062C965.359 64.3646 965.635 63.9062 965.984 63.5312C966.333 63.1562 966.729 62.8724 967.172 62.6797C967.615 62.487 968.073 62.3906 968.547 62.3906C969.151 62.3906 969.672 62.4948 970.109 62.7031C970.552 62.9115 970.914 63.2031 971.195 63.5781C971.477 63.9479 971.685 64.3854 971.82 64.8906C971.956 65.3906 972.023 65.9375 972.023 66.5312V67.1797H965.711V66H970.578V65.8906C970.557 65.5156 970.479 65.151 970.344 64.7969C970.214 64.4427 970.005 64.151 969.719 63.9219C969.432 63.6927 969.042 63.5781 968.547 63.5781C968.219 63.5781 967.917 63.6484 967.641 63.7891C967.365 63.9245 967.128 64.1276 966.93 64.3984C966.732 64.6693 966.578 65 966.469 65.3906C966.359 65.7812 966.305 66.2318 966.305 66.7422V67.0703C966.305 67.4714 966.359 67.849 966.469 68.2031C966.583 68.5521 966.747 68.8594 966.961 69.125C967.18 69.3906 967.443 69.599 967.75 69.75C968.062 69.901 968.417 69.9766 968.812 69.9766C969.323 69.9766 969.755 69.8724 970.109 69.6641C970.464 69.4557 970.773 69.1771 971.039 68.8281L971.914 69.5234C971.732 69.7995 971.5 70.0625 971.219 70.3125C970.938 70.5625 970.591 70.7656 970.18 70.9219C969.773 71.0781 969.292 71.1562 968.734 71.1562ZM975.281 62.5469V71H973.828V62.5469H975.281ZM973.719 60.3047C973.719 60.0703 973.789 59.8724 973.93 59.7109C974.076 59.5495 974.289 59.4688 974.57 59.4688C974.846 59.4688 975.057 59.5495 975.203 59.7109C975.354 59.8724 975.43 60.0703 975.43 60.3047C975.43 60.5286 975.354 60.7214 975.203 60.8828C975.057 61.0391 974.846 61.1172 974.57 61.1172C974.289 61.1172 974.076 61.0391 973.93 60.8828C973.789 60.7214 973.719 60.5286 973.719 60.3047ZM979.047 64.1719V74.25H977.594V62.5469H978.922L979.047 64.1719ZM984.742 66.7031V66.8672C984.742 67.4818 984.669 68.0521 984.523 68.5781C984.378 69.099 984.164 69.5521 983.883 69.9375C983.607 70.3229 983.266 70.6224 982.859 70.8359C982.453 71.0495 981.987 71.1562 981.461 71.1562C980.924 71.1562 980.451 71.0677 980.039 70.8906C979.628 70.7135 979.279 70.4557 978.992 70.1172C978.706 69.7786 978.477 69.3724 978.305 68.8984C978.138 68.4245 978.023 67.8906 977.961 67.2969V66.4219C978.023 65.7969 978.141 65.237 978.312 64.7422C978.484 64.2474 978.711 63.8255 978.992 63.4766C979.279 63.1224 979.625 62.8542 980.031 62.6719C980.438 62.4844 980.906 62.3906 981.438 62.3906C981.969 62.3906 982.44 62.4948 982.852 62.7031C983.263 62.9062 983.609 63.1979 983.891 63.5781C984.172 63.9583 984.383 64.4141 984.523 64.9453C984.669 65.4714 984.742 66.0573 984.742 66.7031ZM983.289 66.8672V66.7031C983.289 66.2812 983.245 65.8854 983.156 65.5156C983.068 65.1406 982.93 64.8125 982.742 64.5312C982.56 64.2448 982.326 64.0208 982.039 63.8594C981.753 63.6927 981.411 63.6094 981.016 63.6094C980.651 63.6094 980.333 63.6719 980.062 63.7969C979.797 63.9219 979.57 64.0911 979.383 64.3047C979.195 64.513 979.042 64.7526 978.922 65.0234C978.807 65.2891 978.721 65.5651 978.664 65.8516V67.875C978.768 68.2396 978.914 68.5833 979.102 68.9062C979.289 69.224 979.539 69.4818 979.852 69.6797C980.164 69.8724 980.557 69.9688 981.031 69.9688C981.422 69.9688 981.758 69.888 982.039 69.7266C982.326 69.5599 982.56 69.3333 982.742 69.0469C982.93 68.7604 983.068 68.4323 983.156 68.0625C983.245 67.6875 983.289 67.2891 983.289 66.8672ZM990.125 62.5469V63.6562H985.555V62.5469H990.125ZM987.102 60.4922H988.547V68.9062C988.547 69.1927 988.591 69.4089 988.68 69.5547C988.768 69.7005 988.883 69.7969 989.023 69.8438C989.164 69.8906 989.315 69.9141 989.477 69.9141C989.596 69.9141 989.721 69.9036 989.852 69.8828C989.987 69.8568 990.089 69.8359 990.156 69.8203L990.164 71C990.049 71.0365 989.898 71.0703 989.711 71.1016C989.529 71.138 989.307 71.1562 989.047 71.1562C988.693 71.1562 988.367 71.0859 988.07 70.9453C987.773 70.8047 987.536 70.5703 987.359 70.2422C987.188 69.9089 987.102 69.4609 987.102 68.8984V60.4922ZM996.742 68.7578C996.742 68.5495 996.695 68.3568 996.602 68.1797C996.513 67.9974 996.328 67.8333 996.047 67.6875C995.771 67.5365 995.354 67.4062 994.797 67.2969C994.328 67.1979 993.904 67.0807 993.523 66.9453C993.148 66.8099 992.828 66.6458 992.562 66.4531C992.302 66.2604 992.102 66.0339 991.961 65.7734C991.82 65.513 991.75 65.2083 991.75 64.8594C991.75 64.526 991.823 64.2109 991.969 63.9141C992.12 63.6172 992.331 63.3542 992.602 63.125C992.878 62.8958 993.208 62.7161 993.594 62.5859C993.979 62.4557 994.409 62.3906 994.883 62.3906C995.56 62.3906 996.138 62.5104 996.617 62.75C997.096 62.9896 997.464 63.3099 997.719 63.7109C997.974 64.1068 998.102 64.5469 998.102 65.0312H996.656C996.656 64.7969 996.586 64.5703 996.445 64.3516C996.31 64.1276 996.109 63.9427 995.844 63.7969C995.583 63.651 995.263 63.5781 994.883 63.5781C994.482 63.5781 994.156 63.6406 993.906 63.7656C993.661 63.8854 993.482 64.0391 993.367 64.2266C993.258 64.4141 993.203 64.612 993.203 64.8203C993.203 64.9766 993.229 65.1172 993.281 65.2422C993.339 65.362 993.438 65.474 993.578 65.5781C993.719 65.6771 993.917 65.7708 994.172 65.8594C994.427 65.9479 994.753 66.0365 995.148 66.125C995.841 66.2812 996.411 66.4688 996.859 66.6875C997.307 66.9062 997.641 67.1745 997.859 67.4922C998.078 67.8099 998.188 68.1953 998.188 68.6484C998.188 69.0182 998.109 69.3568 997.953 69.6641C997.802 69.9714 997.581 70.237 997.289 70.4609C997.003 70.6797 996.659 70.8516 996.258 70.9766C995.862 71.0964 995.417 71.1562 994.922 71.1562C994.177 71.1562 993.547 71.0234 993.031 70.7578C992.516 70.4922 992.125 70.1484 991.859 69.7266C991.594 69.3047 991.461 68.8594 991.461 68.3906H992.914C992.935 68.7865 993.049 69.1016 993.258 69.3359C993.466 69.5651 993.721 69.7292 994.023 69.8281C994.326 69.9219 994.625 69.9688 994.922 69.9688C995.318 69.9688 995.648 69.9167 995.914 69.8125C996.185 69.7083 996.391 69.5651 996.531 69.3828C996.672 69.2005 996.742 68.9922 996.742 68.7578ZM1005.07 69.5547V65.2031C1005.07 64.8698 1005 64.5807 1004.87 64.3359C1004.74 64.0859 1004.54 63.8932 1004.27 63.7578C1004.01 63.6224 1003.68 63.5547 1003.29 63.5547C1002.92 63.5547 1002.6 63.6172 1002.33 63.7422C1002.06 63.8672 1001.84 64.0312 1001.69 64.2344C1001.54 64.4375 1001.46 64.6562 1001.46 64.8906H1000.02C1000.02 64.5885 1000.09 64.2891 1000.25 63.9922C1000.41 63.6953 1000.63 63.4271 1000.92 63.1875C1001.22 62.9427 1001.57 62.75 1001.98 62.6094C1002.4 62.4635 1002.86 62.3906 1003.38 62.3906C1003.99 62.3906 1004.53 62.4948 1005 62.7031C1005.47 62.9115 1005.84 63.2266 1006.11 63.6484C1006.38 64.0651 1006.52 64.5885 1006.52 65.2188V69.1562C1006.52 69.4375 1006.54 69.737 1006.59 70.0547C1006.64 70.3724 1006.71 70.6458 1006.81 70.875V71H1005.3C1005.23 70.8333 1005.17 70.612 1005.13 70.3359C1005.09 70.0547 1005.07 69.7943 1005.07 69.5547ZM1005.32 65.875L1005.34 66.8906H1003.88C1003.46 66.8906 1003.1 66.9245 1002.77 66.9922C1002.45 67.0547 1002.18 67.151 1001.96 67.2812C1001.74 67.4115 1001.58 67.5755 1001.46 67.7734C1001.35 67.9661 1001.29 68.1927 1001.29 68.4531C1001.29 68.7188 1001.35 68.9609 1001.47 69.1797C1001.59 69.3984 1001.77 69.5729 1002.01 69.7031C1002.25 69.8281 1002.55 69.8906 1002.91 69.8906C1003.35 69.8906 1003.74 69.7969 1004.08 69.6094C1004.42 69.4219 1004.68 69.1927 1004.88 68.9219C1005.09 68.651 1005.2 68.388 1005.21 68.1328L1005.83 68.8281C1005.79 69.0469 1005.69 69.2891 1005.53 69.5547C1005.37 69.8203 1005.15 70.0755 1004.88 70.3203C1004.62 70.5599 1004.3 70.7604 1003.93 70.9219C1003.57 71.0781 1003.15 71.1562 1002.7 71.1562C1002.12 71.1562 1001.62 71.0443 1001.19 70.8203C1000.76 70.5964 1000.43 70.2969 1000.19 69.9219C999.953 69.5417 999.836 69.1172 999.836 68.6484C999.836 68.1953 999.924 67.7969 1000.1 67.4531C1000.28 67.1042 1000.53 66.8151 1000.87 66.5859C1001.2 66.3516 1001.6 66.1745 1002.07 66.0547C1002.54 65.9349 1003.06 65.875 1003.64 65.875H1005.32ZM1011.23 69.6953L1013.55 62.5469H1015.02L1011.98 71H1011.02L1011.23 69.6953ZM1009.3 62.5469L1011.69 69.7344L1011.85 71H1010.88L1007.82 62.5469H1009.3ZM1021.63 69.3594V59H1023.09V71H1021.76L1021.63 69.3594ZM1015.95 66.8672V66.7031C1015.95 66.0573 1016.02 65.4714 1016.18 64.9453C1016.34 64.4141 1016.57 63.9583 1016.86 63.5781C1017.16 63.1979 1017.51 62.9062 1017.91 62.7031C1018.33 62.4948 1018.78 62.3906 1019.29 62.3906C1019.82 62.3906 1020.28 62.4844 1020.68 62.6719C1021.08 62.8542 1021.42 63.1224 1021.7 63.4766C1021.98 63.8255 1022.2 64.2474 1022.36 64.7422C1022.52 65.237 1022.63 65.7969 1022.7 66.4219V67.1406C1022.64 67.7604 1022.53 68.3177 1022.36 68.8125C1022.2 69.3073 1021.98 69.7292 1021.7 70.0781C1021.42 70.4271 1021.08 70.6953 1020.68 70.8828C1020.28 71.0651 1019.81 71.1562 1019.27 71.1562C1018.78 71.1562 1018.33 71.0495 1017.91 70.8359C1017.51 70.6224 1017.16 70.3229 1016.86 69.9375C1016.57 69.5521 1016.34 69.099 1016.18 68.5781C1016.02 68.0521 1015.95 67.4818 1015.95 66.8672ZM1017.4 66.7031V66.8672C1017.4 67.2891 1017.44 67.6849 1017.52 68.0547C1017.61 68.4245 1017.75 68.75 1017.93 69.0312C1018.11 69.3125 1018.34 69.5339 1018.62 69.6953C1018.91 69.8516 1019.24 69.9297 1019.63 69.9297C1020.11 69.9297 1020.51 69.8281 1020.81 69.625C1021.12 69.4219 1021.38 69.1536 1021.56 68.8203C1021.75 68.487 1021.9 68.125 1022 67.7344V65.8516C1021.94 65.5651 1021.85 65.2891 1021.73 65.0234C1021.61 64.7526 1021.46 64.513 1021.27 64.3047C1021.09 64.0911 1020.86 63.9219 1020.59 63.7969C1020.33 63.6719 1020.01 63.6094 1019.65 63.6094C1019.25 63.6094 1018.91 63.6927 1018.62 63.8594C1018.34 64.0208 1018.11 64.2448 1017.93 64.5312C1017.75 64.8125 1017.61 65.1406 1017.52 65.5156C1017.44 65.8854 1017.4 66.2812 1017.4 66.7031ZM1028.34 65.5703V66.7578H1024.53V65.5703H1028.34ZM1034.35 59.5625V71H1032.91V61.3672L1029.99 62.4297V61.125L1034.12 59.5625H1034.35Z" fill="#437FEC"/>
<path d="M1424 86H923V88H1424V86Z" fill="#595959" mask="url(#path-23-inside-6_499_1892)"/>
</g>
<rect x="0.5" y="0.5" width="1422" height="87" stroke="#595959"/>
<defs>
<clipPath id="clip0_499_1892">
<rect x="1" y="1" width="1421" height="86" fill="white"/>
</clipPath>
<clipPath id="clip1_499_1892">
<rect width="12" height="12" fill="white" transform="translate(85 16.5) rotate(90)"/>
</clipPath>
<clipPath id="clip2_499_1892">
<rect width="12" height="12" fill="white" transform="translate(519 16.5) rotate(90)"/>
</clipPath>
<clipPath id="clip3_499_1892">
<rect width="12" height="12" fill="white" transform="translate(1106 16.5) rotate(90)"/>
</clipPath>
</defs>
</svg>
