<svg width="20" height="21" viewBox="0 0 20 21" fill="none" xmlns="http://www.w3.org/2000/svg">
<path d="M19.8828 7.72656L17.8906 1.78906C17.6562 1.04688 16.9531 0.5 16.1328 0.5H3.82812C3.00781 0.5 2.30469 1.04688 2.07031 1.78906L0.078125 7.72656C0 7.92188 0 8.11719 0 8.3125V18.625C0 19.6797 0.820312 20.5 1.875 20.5H18.125C19.1406 20.5 20 19.6797 20 18.625V8.3125C20 8.11719 19.9609 7.92188 19.8828 7.72656ZM1.25 8.3125C1.25 8.27344 1.25 8.19531 1.25 8.11719L3.24219 2.17969C3.32031 1.94531 3.55469 1.75 3.82812 1.75H9.375V8.3125H1.25ZM18.75 18.625C18.75 18.9766 18.4375 19.25 18.125 19.25H1.875C1.52344 19.25 1.25 18.9766 1.25 18.625V9.5625H18.75V18.625ZM18.75 8.3125H10.625V1.75H16.1328C16.4062 1.75 16.6406 1.94531 16.7188 2.17969L18.7109 8.11719C18.7109 8.19531 18.75 8.23438 18.75 8.3125Z" fill="#C7C7C7"/>
</svg>
