<svg width="142" height="43" viewBox="0 0 142 43" fill="none" xmlns="http://www.w3.org/2000/svg">
<path d="M88.0072 33.4357C79.7634 39.512 67.8145 42.754 57.5268 42.754C43.1017 42.754 30.1154 37.4187 20.2908 28.545C19.5189 27.8472 20.2105 26.8963 21.1367 27.4397C31.7394 33.6086 44.8492 37.3199 58.3913 37.3199C67.5243 37.3199 77.5712 35.4303 86.8092 31.5091C88.2048 30.9163 89.3719 32.423 88.0072 33.4357Z" fill="white"/>
<path d="M82.0005 4.66646V1.44305C82.0005 0.955211 82.371 0.62793 82.8156 0.62793H97.2469C97.71 0.62793 98.0805 0.961387 98.0805 1.44305V4.20333C98.0743 4.66646 97.6853 5.27162 96.9937 6.22876L89.5156 16.9056C92.2944 16.8376 95.2276 17.2514 97.7471 18.6716C98.3152 18.9927 98.4696 19.4621 98.5128 19.9252V23.3647C98.5128 23.834 97.9941 24.3836 97.4507 24.0996C93.0107 21.7715 87.1135 21.5184 82.2043 24.1243C81.7041 24.396 81.1792 23.8526 81.1792 23.3833V20.1166C81.1792 19.5917 81.1854 18.6963 81.7103 17.8997L90.374 5.4754H82.8341C82.371 5.4754 82.0005 5.14812 82.0005 4.66646Z" fill="white"/>
<path d="M29.3574 24.7814H24.9669C24.547 24.7506 24.2135 24.4356 24.1826 24.0342V1.50123C24.1826 1.05044 24.5593 0.692282 25.0286 0.692282H29.1227C29.5488 0.710796 29.8884 1.03809 29.9193 1.44565V4.39118H29.9996C31.0679 1.54445 33.0748 0.216797 35.7795 0.216797C38.5274 0.216797 40.2441 1.54445 41.4791 4.39118C42.5413 1.54445 44.9557 0.216797 47.5431 0.216797C49.3833 0.216797 51.3964 0.976337 52.6252 2.68067C54.0146 4.57643 53.7306 7.33054 53.7306 9.74502L53.7244 23.9663C53.7244 24.4171 53.3477 24.7814 52.8784 24.7814H48.4941C48.0556 24.7506 47.7037 24.3986 47.7037 23.9663V12.0236C47.7037 11.0727 47.7901 8.70142 47.5802 7.79985C47.2529 6.28695 46.271 5.86086 44.999 5.86086C43.9368 5.86086 42.8253 6.571 42.3745 7.70722C41.9237 8.84345 41.967 10.7454 41.967 12.0236V23.9663C41.967 24.4171 41.5903 24.7814 41.121 24.7814H36.7366C36.292 24.7506 35.9462 24.3986 35.9462 23.9663L35.9401 12.0236C35.9401 9.51036 36.3538 5.81146 33.2353 5.81146C30.0799 5.81146 30.2034 9.41773 30.2034 12.0236V23.9663C30.2034 24.4171 29.8267 24.7814 29.3574 24.7814Z" fill="white"/>
<path d="M110.503 0.216797C117.018 0.216797 120.544 5.81146 120.544 12.9252C120.544 19.7981 116.647 25.2507 110.503 25.2507C104.106 25.2507 100.623 19.6561 100.623 12.6844C100.623 5.66943 104.149 0.216797 110.503 0.216797ZM110.54 4.81727C107.305 4.81727 107.101 9.2263 107.101 11.9742C107.101 14.7283 107.058 20.6071 110.503 20.6071C113.906 20.6071 114.066 15.8646 114.066 12.9746C114.066 11.0727 113.986 8.80022 113.412 6.99708C112.918 5.42861 111.936 4.81727 110.54 4.81727Z" fill="white"/>
<path d="M128.992 24.7814H124.62C124.182 24.7506 123.83 24.3986 123.83 23.9663L123.824 1.42712C123.861 1.01339 124.225 0.692282 124.67 0.692282H128.739C129.122 0.710796 129.437 0.970163 129.523 1.32215V4.76786H129.604C130.832 1.68648 132.555 0.216797 135.587 0.216797C137.557 0.216797 139.478 0.926937 140.713 2.8721C141.861 4.67524 141.861 7.70722 141.861 9.88704V24.0713C141.812 24.4665 141.448 24.7814 141.015 24.7814H136.612C136.211 24.7506 135.878 24.4542 135.834 24.0713V11.8322C135.834 9.36833 136.118 5.76206 133.086 5.76206C132.018 5.76206 131.036 6.47837 130.548 7.56519C129.931 8.94225 129.851 10.3131 129.851 11.8322V23.9663C129.844 24.4171 129.462 24.7814 128.992 24.7814Z" fill="white"/>
<path d="M70.495 14.0175V13.0666C67.321 13.0666 63.9679 13.7458 63.9679 17.488C63.9679 19.3837 64.9497 20.6681 66.6355 20.6681C67.8706 20.6681 68.9759 19.9086 69.6737 18.6736C70.5382 17.1545 70.495 15.728 70.495 14.0175ZM74.9226 24.719C74.6323 24.9784 74.2124 24.9969 73.8851 24.824C72.4278 23.6137 72.1684 23.0517 71.3657 21.897C68.9574 24.3547 67.2531 25.0895 64.1284 25.0895C60.4357 25.0895 57.5581 22.8109 57.5581 18.2475C57.5581 14.6844 59.4909 12.2576 62.2388 11.072C64.6224 10.0222 67.9508 9.83698 70.495 9.54674V8.97863C70.495 7.93503 70.5753 6.70001 69.9639 5.79845C69.4267 4.9895 68.4016 4.65604 67.5001 4.65604C65.8266 4.65604 64.3322 5.51439 63.9679 7.29282C63.8938 7.68803 63.6035 8.07706 63.2083 8.09559L58.9475 7.63863C58.5894 7.55836 58.1941 7.26812 58.2929 6.71854C59.2748 1.55614 63.937 0 68.1114 0C70.248 0 73.0391 0.568111 74.7249 2.18599C76.8615 4.18056 76.6578 6.84204 76.6578 9.73817V16.5802C76.6578 18.6365 77.5099 19.5381 78.3127 20.6496C78.5968 21.0448 78.6585 21.5203 78.3003 21.8167C77.405 22.5639 75.8118 23.9533 74.9349 24.7314L74.9226 24.719Z" fill="white"/>
<path d="M12.9369 14.0175V13.0666C9.76287 13.0666 6.40978 13.7458 6.40978 17.488C6.40978 19.3837 7.39162 20.6681 9.07743 20.6681C10.3125 20.6681 11.4178 19.9086 12.1156 18.6736C12.9801 17.1545 12.9369 15.728 12.9369 14.0175ZM17.3644 24.719C17.0742 24.9784 16.6543 24.9969 16.327 24.824C14.8697 23.6137 14.6103 23.0517 13.8076 21.897C11.3993 24.3547 9.69495 25.0895 6.57033 25.0895C2.8776 25.0895 0 22.8109 0 18.2475C0 14.6844 1.93281 12.2576 4.68074 11.072C7.06434 10.0222 10.3927 9.83698 12.9369 9.54674V8.97863C12.9369 7.93503 13.0172 6.70001 12.4058 5.79845C11.8686 4.9895 10.8435 4.65604 9.94195 4.65604C8.26849 4.65604 6.77411 5.51439 6.40978 7.29282C6.33567 7.68803 6.04544 8.07706 5.65024 8.09559L1.3894 7.63863C1.03124 7.55836 0.636037 7.26812 0.734839 6.71854C1.71668 1.55614 6.3789 0 10.5533 0C12.6899 0 15.481 0.568111 17.1668 2.18599C19.3034 4.18056 19.0997 6.84204 19.0997 9.73817V16.5802C19.0997 18.6365 19.9518 19.5381 20.7546 20.6496C21.0386 21.0448 21.1004 21.5203 20.7422 21.8167C19.8468 22.5639 18.2537 23.9533 17.3768 24.7314L17.3644 24.719Z" fill="white"/>
</svg>
