<svg width="32" height="32" viewBox="0 0 32 32" fill="none" xmlns="http://www.w3.org/2000/svg">
<g clip-path="url(#clip0_1134_1279)">
<path d="M16 32C7.17733 32 0 24.8227 0 16C0 7.17733 7.17733 0 16 0C24.8227 0 32 7.17733 32 16C32 24.8227 24.8227 32 16 32ZM16 2C8.28 2 2 8.28 2 16C2 23.72 8.28 30 16 30C23.72 30 30 23.72 30 16C30 8.28 23.72 2 16 2Z" fill="#F3778B"/>
<path d="M9.33317 16.0003C7.8625 16.0003 6.6665 14.8043 6.6665 13.3337C6.6665 11.863 7.8625 10.667 9.33317 10.667C10.8038 10.667 11.9998 11.863 11.9998 13.3337C11.9998 14.8043 10.8038 16.0003 9.33317 16.0003ZM9.33317 12.667C8.96517 12.667 8.6665 12.9657 8.6665 13.3337C8.6665 13.7017 8.96517 14.0003 9.33317 14.0003C9.70117 14.0003 9.99984 13.7017 9.99984 13.3337C9.99984 12.9657 9.70117 12.667 9.33317 12.667Z" fill="#F3778B"/>
<path d="M22.6667 16.0003C21.196 16.0003 20 14.8043 20 13.3337C20 11.863 21.196 10.667 22.6667 10.667C24.1373 10.667 25.3333 11.863 25.3333 13.3337C25.3333 14.8043 24.1373 16.0003 22.6667 16.0003ZM22.6667 12.667C22.2987 12.667 22 12.9657 22 13.3337C22 13.7017 22.2987 14.0003 22.6667 14.0003C23.0347 14.0003 23.3333 13.7017 23.3333 13.3337C23.3333 12.9657 23.0347 12.667 22.6667 12.667Z" fill="#F3778B"/>
<path d="M23 26.233C22.744 26.233 22.488 26.1357 22.2934 25.9397C20.612 24.2583 18.3774 23.333 16 23.333C13.6227 23.333 11.388 24.2583 9.70669 25.9397C9.31602 26.3303 8.68269 26.3303 8.29202 25.9397C7.90136 25.549 7.90136 24.9157 8.29202 24.525C10.352 22.4663 13.088 21.333 16 21.333C18.912 21.333 21.648 22.4663 23.7067 24.5263C24.0974 24.917 24.0974 25.5503 23.7067 25.941C23.512 26.1357 23.256 26.233 23 26.233Z" fill="#F3778B"/>
<path d="M12.3332 9.77768C12.1425 9.77768 11.9492 9.72301 11.7785 9.60968L8.44517 7.38701C7.98517 7.08168 7.86117 6.46034 8.16783 6.00034C8.4745 5.54034 9.0945 5.41634 9.5545 5.72301L12.8878 7.94568C13.3478 8.25234 13.4718 8.87234 13.1652 9.33234C12.9718 9.62168 12.6558 9.77768 12.3332 9.77768Z" fill="#F3778B"/>
<path d="M19.6667 9.77768C19.344 9.77768 19.0267 9.62168 18.8334 9.33234C18.5267 8.87234 18.6507 8.25234 19.1107 7.94568L22.444 5.72301C22.9014 5.41634 23.524 5.54034 23.8307 6.00034C24.1374 6.46034 24.0134 7.08034 23.5534 7.38701L20.22 9.60968C20.0507 9.72434 19.8587 9.77768 19.6667 9.77768Z" fill="#F3778B"/>
</g>
<defs>
<clipPath id="clip0_1134_1279">
<rect width="32" height="32" fill="white"/>
</clipPath>
</defs>
</svg>
