<svg width="76" height="76" viewBox="0 0 76 76" fill="none" xmlns="http://www.w3.org/2000/svg">
<rect width="76" height="76" rx="38" fill="#E7EFFE"/>
<g clip-path="url(#clip0_2407_528)">
<path d="M29.5417 15H24.1667C22.2659 15 20.4431 15.7551 19.0991 17.0991C17.7551 18.4431 17 20.2659 17 22.1667V27.5417C17 29.4424 17.7551 31.2653 19.0991 32.6093C20.4431 33.9533 22.2659 34.7083 24.1667 34.7083H29.5417C31.4424 34.7083 33.2653 33.9533 34.6093 32.6093C35.9533 31.2653 36.7083 29.4424 36.7083 27.5417V22.1667C36.7083 20.2659 35.9533 18.4431 34.6093 17.0991C33.2653 15.7551 31.4424 15 29.5417 15V15ZM33.125 27.5417C33.125 28.492 32.7475 29.4035 32.0755 30.0755C31.4035 30.7475 30.492 31.125 29.5417 31.125H24.1667C23.2163 31.125 22.3049 30.7475 21.6329 30.0755C20.9609 29.4035 20.5833 28.492 20.5833 27.5417V22.1667C20.5833 21.2163 20.9609 20.3049 21.6329 19.6329C22.3049 18.9609 23.2163 18.5833 24.1667 18.5833H29.5417C30.492 18.5833 31.4035 18.9609 32.0755 19.6329C32.7475 20.3049 33.125 21.2163 33.125 22.1667V27.5417Z" fill="#374957"/>
<path d="M52.8332 15H47.4582C45.5574 15 43.7346 15.7551 42.3906 17.0991C41.0466 18.4431 40.2915 20.266 40.2915 22.1667V27.5417C40.2915 29.4424 41.0466 31.2653 42.3906 32.6093C43.7346 33.9533 45.5574 34.7083 47.4582 34.7083H52.8332C54.7339 34.7083 56.5567 33.9533 57.9007 32.6093C59.2448 31.2653 59.9998 29.4424 59.9998 27.5417V22.1667C59.9998 20.266 59.2448 18.4431 57.9007 17.0991C56.5567 15.7551 54.7339 15 52.8332 15V15ZM56.4165 27.5417C56.4165 28.492 56.039 29.4035 55.3669 30.0755C54.6949 30.7475 53.7835 31.125 52.8332 31.125H47.4582C46.5078 31.125 45.5964 30.7475 44.9244 30.0755C44.2524 29.4035 43.8748 28.492 43.8748 27.5417V22.1667C43.8748 21.2163 44.2524 20.3049 44.9244 19.6329C45.5964 18.9609 46.5078 18.5833 47.4582 18.5833H52.8332C53.7835 18.5833 54.6949 18.9609 55.3669 19.6329C56.039 20.3049 56.4165 21.2163 56.4165 22.1667V27.5417Z" fill="#374957"/>
<path d="M29.5417 38.2915H24.1667C22.2659 38.2915 20.4431 39.0466 19.0991 40.3906C17.7551 41.7346 17 43.5575 17 45.4582V50.8332C17 52.7339 17.7551 54.5568 19.0991 55.9008C20.4431 57.2448 22.2659 57.9999 24.1667 57.9999H29.5417C31.4424 57.9999 33.2653 57.2448 34.6093 55.9008C35.9533 54.5568 36.7083 52.7339 36.7083 50.8332V45.4582C36.7083 43.5575 35.9533 41.7346 34.6093 40.3906C33.2653 39.0466 31.4424 38.2915 29.5417 38.2915ZM33.125 50.8332C33.125 51.7835 32.7475 52.695 32.0755 53.367C31.4035 54.039 30.492 54.4165 29.5417 54.4165H24.1667C23.2163 54.4165 22.3049 54.039 21.6329 53.367C20.9609 52.695 20.5833 51.7835 20.5833 50.8332V45.4582C20.5833 44.5078 20.9609 43.5964 21.6329 42.9244C22.3049 42.2524 23.2163 41.8748 24.1667 41.8748H29.5417C30.492 41.8748 31.4035 42.2524 32.0755 42.9244C32.7475 43.5964 33.125 44.5078 33.125 45.4582V50.8332Z" fill="#374957"/>
<path d="M52.8332 38.2915H47.4582C45.5574 38.2915 43.7346 39.0466 42.3906 40.3906C41.0466 41.7346 40.2915 43.5575 40.2915 45.4582V50.8332C40.2915 52.7339 41.0466 54.5568 42.3906 55.9008C43.7346 57.2448 45.5574 57.9999 47.4582 57.9999H52.8332C54.7339 57.9999 56.5567 57.2448 57.9007 55.9008C59.2448 54.5568 59.9998 52.7339 59.9998 50.8332V45.4582C59.9998 43.5575 59.2448 41.7346 57.9007 40.3906C56.5567 39.0466 54.7339 38.2915 52.8332 38.2915ZM56.4165 50.8332C56.4165 51.7835 56.039 52.695 55.3669 53.367C54.6949 54.039 53.7835 54.4165 52.8332 54.4165H47.4582C46.5078 54.4165 45.5964 54.039 44.9244 53.367C44.2524 52.695 43.8748 51.7835 43.8748 50.8332V45.4582C43.8748 44.5078 44.2524 43.5964 44.9244 42.9244C45.5964 42.2524 46.5078 41.8748 47.4582 41.8748H52.8332C53.7835 41.8748 54.6949 42.2524 55.3669 42.9244C56.039 43.5964 56.4165 44.5078 56.4165 45.4582V50.8332Z" fill="#374957"/>
</g>
<defs>
<clipPath id="clip0_2407_528">
<rect width="43" height="43" fill="white" transform="translate(17 15)"/>
</clipPath>
</defs>
</svg>
