<svg width="63" height="15" viewBox="0 0 63 15" fill="none" xmlns="http://www.w3.org/2000/svg">
<path d="M2.66264 0.909091V14H0.291193V0.909091H2.66264ZM7.44229 8.24716V14H5.12837V4.18182H7.34002V5.85014H7.45508C7.68093 5.30043 8.04102 4.86364 8.53533 4.53977C9.03391 4.21591 9.64968 4.05398 10.3826 4.05398C11.0602 4.05398 11.6504 4.19886 12.1532 4.48864C12.6603 4.77841 13.0524 5.19815 13.3294 5.74787C13.6106 6.29758 13.7491 6.96449 13.7449 7.74858V14H11.4309V8.10653C11.4309 7.45028 11.2605 6.93679 10.9196 6.56605C10.5829 6.19531 10.1163 6.00994 9.51971 6.00994C9.11488 6.00994 8.75479 6.09943 8.43945 6.27841C8.12837 6.45312 7.88335 6.70668 7.70437 7.03906C7.52965 7.37145 7.44229 7.77415 7.44229 8.24716ZM20.3798 14.1918C19.3997 14.1918 18.5581 13.9766 17.8549 13.5462C17.1561 13.1158 16.617 12.5213 16.2377 11.7628C15.8627 11 15.6752 10.1222 15.6752 9.12926C15.6752 8.1321 15.867 7.25213 16.2505 6.48935C16.6341 5.7223 17.1752 5.12571 17.8741 4.69957C18.5772 4.26918 19.4082 4.05398 20.367 4.05398C21.1639 4.05398 21.8691 4.20099 22.4828 4.49503C23.1007 4.7848 23.5929 5.19602 23.9593 5.72869C24.3258 6.2571 24.5346 6.875 24.5858 7.58239H22.3741C22.2846 7.10937 22.0716 6.7152 21.7349 6.39986C21.4025 6.08026 20.9572 5.92045 20.399 5.92045C19.926 5.92045 19.5105 6.0483 19.1525 6.30398C18.7946 6.5554 18.5154 6.91761 18.3152 7.39062C18.1191 7.86364 18.0211 8.4304 18.0211 9.09091C18.0211 9.75994 18.1191 10.3352 18.3152 10.8168C18.5112 11.294 18.786 11.6626 19.1397 11.9226C19.4977 12.1783 19.9174 12.3061 20.399 12.3061C20.7399 12.3061 21.0446 12.2422 21.313 12.1143C21.5858 11.9822 21.8137 11.7926 21.997 11.5455C22.1802 11.2983 22.3059 10.9979 22.3741 10.6442H24.5858C24.5304 11.3388 24.3258 11.9545 23.9721 12.4915C23.6184 13.0241 23.1369 13.4418 22.5275 13.7443C21.9181 14.0426 21.2022 14.1918 20.3798 14.1918ZM30.7685 14.1918C29.8097 14.1918 28.9787 13.9808 28.2756 13.5589C27.5724 13.1371 27.027 12.5469 26.6392 11.7884C26.2557 11.0298 26.0639 10.1435 26.0639 9.12926C26.0639 8.11506 26.2557 7.22656 26.6392 6.46378C27.027 5.70099 27.5724 5.10866 28.2756 4.68679C28.9787 4.26491 29.8097 4.05398 30.7685 4.05398C31.7273 4.05398 32.5582 4.26491 33.2614 4.68679C33.9645 5.10866 34.5078 5.70099 34.8913 6.46378C35.2791 7.22656 35.473 8.11506 35.473 9.12926C35.473 10.1435 35.2791 11.0298 34.8913 11.7884C34.5078 12.5469 33.9645 13.1371 33.2614 13.5589C32.5582 13.9808 31.7273 14.1918 30.7685 14.1918ZM30.7812 12.3381C31.3011 12.3381 31.7358 12.1953 32.0852 11.9098C32.4347 11.62 32.6946 11.2322 32.8651 10.7464C33.0398 10.2607 33.1271 9.71946 33.1271 9.12287C33.1271 8.52202 33.0398 7.97869 32.8651 7.4929C32.6946 7.00284 32.4347 6.61293 32.0852 6.32315C31.7358 6.03338 31.3011 5.88849 30.7812 5.88849C30.2486 5.88849 29.8054 6.03338 29.4517 6.32315C29.1023 6.61293 28.8402 7.00284 28.6655 7.4929C28.495 7.97869 28.4098 8.52202 28.4098 9.12287C28.4098 9.71946 28.495 10.2607 28.6655 10.7464C28.8402 11.2322 29.1023 11.62 29.4517 11.9098C29.8054 12.1953 30.2486 12.3381 30.7812 12.3381ZM37.437 14V4.18182H39.6486V5.85014H39.7637C39.9682 5.28764 40.307 4.84872 40.78 4.53338C41.253 4.21378 41.8176 4.05398 42.4739 4.05398C43.1387 4.05398 43.699 4.21591 44.155 4.53977C44.6152 4.85937 44.9391 5.29616 45.1266 5.85014H45.2289C45.4462 5.30469 45.8127 4.87003 46.3283 4.54616C46.8482 4.21804 47.464 4.05398 48.1756 4.05398C49.079 4.05398 49.8162 4.33949 50.3873 4.91051C50.9583 5.48153 51.2438 6.31463 51.2438 7.4098V14H48.9235V7.76776C48.9235 7.15838 48.7615 6.71307 48.4377 6.43182C48.1138 6.14631 47.7175 6.00355 47.2488 6.00355C46.6905 6.00355 46.2537 6.17827 45.9384 6.5277C45.6273 6.87287 45.4718 7.32244 45.4718 7.87642V14H43.2026V7.67188C43.2026 7.16477 43.0492 6.75994 42.7424 6.45739C42.4398 6.15483 42.0435 6.00355 41.5534 6.00355C41.2211 6.00355 40.9185 6.08878 40.6458 6.25923C40.373 6.42543 40.1557 6.66193 39.9938 6.96875C39.8319 7.27131 39.7509 7.625 39.7509 8.02983V14H37.437ZM57.9379 14.1918C56.9535 14.1918 56.1033 13.9872 55.3874 13.5781C54.6758 13.1648 54.1282 12.581 53.7447 11.8267C53.3612 11.0682 53.1694 10.1754 53.1694 9.14844C53.1694 8.13849 53.3612 7.25213 53.7447 6.48935C54.1325 5.7223 54.6737 5.12571 55.3683 4.69957C56.0629 4.26918 56.8789 4.05398 57.8164 4.05398C58.4215 4.05398 58.9925 4.15199 59.5295 4.34801C60.0707 4.53977 60.5479 4.83807 60.9613 5.2429C61.3789 5.64773 61.707 6.16335 61.9457 6.78977C62.1843 7.41193 62.3036 8.15341 62.3036 9.0142V9.72372H54.256V8.16406H60.0856C60.0813 7.72088 59.9854 7.3267 59.7979 6.98153C59.6104 6.6321 59.3484 6.35724 59.0117 6.15696C58.6793 5.95668 58.2915 5.85653 57.8484 5.85653C57.3754 5.85653 56.9599 5.97159 56.6019 6.2017C56.244 6.42756 55.9648 6.72585 55.7646 7.09659C55.5685 7.46307 55.4684 7.86577 55.4641 8.30469V9.66619C55.4641 10.2372 55.5685 10.7273 55.7773 11.1364C55.9862 11.5412 56.2781 11.8523 56.6531 12.0696C57.0281 12.2827 57.467 12.3892 57.9698 12.3892C58.3065 12.3892 58.6112 12.3423 58.8839 12.2486C59.1566 12.1506 59.3931 12.0078 59.5934 11.8203C59.7937 11.6328 59.945 11.4006 60.0472 11.1236L62.2077 11.3665C62.0714 11.9375 61.8114 12.4361 61.4279 12.8622C61.0487 13.2841 60.5629 13.6122 59.9705 13.8466C59.3782 14.0767 58.7006 14.1918 57.9379 14.1918Z" fill="#4B4B4B"/>
</svg>
