<svg width="18" height="16" viewBox="0 0 18 16" fill="none" xmlns="http://www.w3.org/2000/svg">
<path fill-rule="evenodd" clip-rule="evenodd" d="M1.76786 1.42857C1.50158 1.42857 1.28571 1.66842 1.28571 1.96429V3.03571C1.28571 3.33158 1.50158 3.57143 1.76786 3.57143H16.2321C16.4984 3.57143 16.7143 3.33158 16.7143 3.03571V1.96429C16.7143 1.66842 16.4984 1.42857 16.2321 1.42857H1.76786ZM0 1.96429C0 0.879441 0.791497 0 1.76786 0H16.2321C17.2085 0 18 0.879441 18 1.96429V3.03571C18 3.81482 17.5918 4.48799 17 4.80554V13.9512L17 13.953C16.9982 14.4954 16.7519 15.0151 16.3151 15.3986C15.8783 15.7822 15.2864 15.9984 14.6687 16L14.6667 16H3.33333L3.33134 16C2.7136 15.9984 2.12169 15.7822 1.68487 15.3986C1.24806 15.0151 1.00185 14.4954 1 13.953L1 13.9512V4.80554C0.408236 4.48799 0 3.81482 0 3.03571V1.96429ZM2.33333 5H15.6667V13.9501C15.6657 14.183 15.5599 14.4061 15.3723 14.5708C15.1848 14.7355 14.9307 14.8284 14.6654 14.8293H3.33457C3.06934 14.8284 2.81524 14.7355 2.62768 14.5708C2.44015 14.4062 2.33436 14.1831 2.33333 13.9502V5ZM9.6 7.54545C9.6 7.24421 9.33137 7 9 7C8.66863 7 8.4 7.24421 8.4 7.54545V11.1377L7.02426 9.88703C6.78995 9.67402 6.41005 9.67402 6.17574 9.88703C5.94142 10.1 5.94142 10.4454 6.17574 10.6584L8.57574 12.8402C8.81005 13.0533 9.18995 13.0533 9.42426 12.8402L11.8243 10.6584C12.0586 10.4454 12.0586 10.1 11.8243 9.88703C11.5899 9.67402 11.2101 9.67402 10.9757 9.88703L9.6 11.1377V7.54545Z" fill="#EFEEEE"/>
</svg>
