<svg width="76" height="76" viewBox="0 0 76 76" fill="none" xmlns="http://www.w3.org/2000/svg">
<rect width="76" height="76" rx="38" fill="#E7EFFE"/>
<path fill-rule="evenodd" clip-rule="evenodd" d="M50.4309 38.7057C45.1459 38.7057 40.8617 43.0248 40.8617 48.3529C40.8617 53.6808 45.1459 58 50.4309 58C55.7158 58 60 53.6808 60 48.3529C60 43.0248 55.7158 38.7057 50.4309 38.7057ZM25.5692 38.7065C20.2843 38.7065 16 43.0248 16 48.3529C16 53.6808 20.2843 58 25.5692 58C30.8543 58 35.1389 53.6808 35.1389 48.3529C35.1389 43.0248 30.8543 38.7065 25.5692 38.7065ZM47.569 26.6467C47.569 31.975 43.2849 36.2945 38.0001 36.2945C32.7149 36.2945 28.4308 31.975 28.4308 26.6467C28.4308 21.3195 32.7149 17 38.0001 17C43.2849 17 47.569 21.3195 47.569 26.6467Z" fill="#F06A6A"/>
</svg>
