<svg width="16" height="16" viewBox="0 0 16 16" fill="none" xmlns="http://www.w3.org/2000/svg">
<g clip-path="url(#clip0_6526_19936)">
<path d="M12.6424 5.86592L8.80905 12.5054C8.07238 13.7814 6.44226 14.2182 5.16631 13.4815C3.89037 12.7448 3.45358 11.1147 4.19024 9.83878L8.35691 2.6219C8.57792 2.23909 8.94196 1.95976 9.36892 1.84536C9.79589 1.73095 10.2508 1.79084 10.6336 2.01186C11.0164 2.23287 11.2958 2.5969 11.4102 3.02387C11.5246 3.45083 11.4647 3.90576 11.2437 4.28857L7.74366 10.3507C7.56033 10.6683 7.15052 10.7781 6.83298 10.5948C6.51544 10.4114 6.40563 10.0016 6.58896 9.68408L9.75563 4.19925L8.8896 3.69925L5.72294 9.18408C5.50192 9.56688 5.44203 10.0218 5.55644 10.4488C5.67084 10.8757 5.95017 11.2398 6.33298 11.4608C6.71579 11.6818 7.17071 11.7417 7.59768 11.6273C8.02464 11.5129 8.38867 11.2336 8.60969 10.8507L12.1097 4.78857C12.8464 3.51262 12.4096 1.8825 11.1336 1.14583C9.85768 0.409167 8.22755 0.845957 7.49089 2.1219L3.32422 9.33878C2.31089 11.0939 2.91117 13.3342 4.66631 14.3475C6.42146 15.3609 8.66174 14.7606 9.67507 13.0054L13.5084 6.36592L12.6424 5.86592Z" fill="#DEDEDE"/>
</g>
<defs>
<clipPath id="clip0_6526_19936">
<rect width="16" height="16" fill="white"/>
</clipPath>
</defs>
</svg>
