<svg width="20" height="20" viewBox="0 0 20 20" fill="none" xmlns="http://www.w3.org/2000/svg">
<path d="M14.737 7.85896L10.8165 14.6494C10.0631 15.9543 8.39593 16.4011 7.09099 15.6476C5.78605 14.8942 5.33933 13.2271 6.09274 11.9221L10.3541 4.54122C10.5801 4.14971 10.9524 3.86403 11.3891 3.74703C11.8258 3.63002 12.291 3.69128 12.6826 3.91731C13.0741 4.14335 13.3597 4.51565 13.4767 4.95232C13.5938 5.38899 13.5325 5.85426 13.3065 6.24577L9.72692 12.4457C9.53942 12.7705 9.12029 12.8828 8.79554 12.6953C8.47078 12.5078 8.35847 12.0887 8.54597 11.7639L11.7846 6.15442L10.8989 5.64306L7.66026 11.2525C7.43423 11.644 7.37297 12.1093 7.48998 12.546C7.60699 12.9826 7.89266 13.355 8.28417 13.581C8.67568 13.807 9.14094 13.8683 9.57761 13.7513C10.0143 13.6343 10.3866 13.3486 10.6126 12.9571L14.1922 6.75713C14.9456 5.45219 14.4989 3.78501 13.1939 3.03161C11.889 2.2782 10.2218 2.72491 9.46839 4.02986L5.20703 11.4108C4.17067 13.2058 4.78459 15.497 6.57963 16.5333C8.37466 17.5697 10.6659 16.9558 11.7022 15.1608L15.6227 8.37033L14.737 7.85896Z" fill="#949292"/>
</svg>
