<svg width="76" height="76" viewBox="0 0 76 76" fill="none" xmlns="http://www.w3.org/2000/svg">
<rect width="76" height="76" rx="38" fill="#E7EFFE"/>
<path fill-rule="evenodd" clip-rule="evenodd" d="M51.2695 24.9277L44.623 37.5801L51.2695 50.2324L53.9922 48.7109V26.4492L51.2695 24.9277Z" fill="#E25444"/>
<path fill-rule="evenodd" clip-rule="evenodd" d="M51.2695 24.9277L37.9766 26.4492L31.21 37.5801L37.9766 48.7109L51.2695 50.2324V24.9277Z" fill="#7B1D13"/>
<path fill-rule="evenodd" clip-rule="evenodd" d="M24.4434 24.9277L22.2812 25.8887V49.2715L24.4434 50.2324L37.9766 37.5801L24.4434 24.9277Z" fill="#58150D"/>
<path fill-rule="evenodd" clip-rule="evenodd" d="M24.4143 24.9009L37.9945 28.6734V46.8244L24.4143 50.2411V24.9009Z" fill="#E25444"/>
<path fill-rule="evenodd" clip-rule="evenodd" d="M38.0016 30.6669L32.2354 29.7415L38.0016 23.1929L43.7536 29.7415L38.0016 30.6669Z" fill="#58150D"/>
<path fill-rule="evenodd" clip-rule="evenodd" d="M43.7536 29.7415L37.9945 30.6811L32.2354 29.7415V23.1929" fill="#58150D"/>
<path fill-rule="evenodd" clip-rule="evenodd" d="M38.0016 44.4043L32.2354 45.4721L38.0016 51.0953L43.7536 45.4721L38.0016 44.4043Z" fill="#58150D"/>
<path fill-rule="evenodd" clip-rule="evenodd" d="M37.9766 18.2812L32.2109 21.3242V29.7324L37.9945 28.1042L37.9766 18.2812Z" fill="#7B1D13"/>
<path fill-rule="evenodd" clip-rule="evenodd" d="M37.9945 32.731L32.2354 33.3574V41.7526L37.9945 42.4115V32.731Z" fill="#7B1D13"/>
<path fill-rule="evenodd" clip-rule="evenodd" d="M37.9945 46.8957L32.2354 45.4517V53.7048L37.9945 56.7187V46.8957Z" fill="#7B1D13"/>
<path fill-rule="evenodd" clip-rule="evenodd" d="M43.7536 45.4517L37.9945 46.8961V56.7187L43.7536 53.7048V45.4517Z" fill="#E25444"/>
<path fill-rule="evenodd" clip-rule="evenodd" d="M37.9945 32.731L43.7536 33.3574V41.7526L37.9945 42.4115V32.731Z" fill="#E25444"/>
<path fill-rule="evenodd" clip-rule="evenodd" d="M37.9766 18.2812L43.7422 21.3242V29.7324L37.9766 28.1309V18.2812Z" fill="#E25444"/>
</svg>
