<svg width="330" height="330" viewBox="0 0 330 330" fill="none" xmlns="http://www.w3.org/2000/svg">
<path d="M164.505 165.49H0C90.8588 165.49 164.505 239.137 164.505 329.995V165.49Z" fill="#000759"/>
<path d="M329.031 330.012L164.526 330.012C255.385 330.012 329.031 256.365 329.031 165.506L329.031 330.012Z" fill="#EF018F"/>
<path d="M164.512 329.998C73.6582 329.998 0.00159573 256.347 0.00158779 165.488L164.512 165.488L164.512 329.998Z" fill="#FCCA46"/>
<path d="M143.5 165.49L80.4693 165.49C80.4693 121.032 44.4578 85.0209 9.85876e-05 85.0209L0.000104098 21.9901C79.2507 21.9901 143.5 86.2395 143.5 165.49Z" fill="#EF018F"/>
<path d="M164.512 165.49L143.501 165.49C143.501 86.2395 79.2522 21.9901 0.00161472 21.9901L0.00161655 0.979798C90.8499 0.979806 164.512 74.6418 164.512 165.49Z" fill="#FCCA46"/>
<path d="M164.512 308.99V245.96C208.969 245.96 244.981 209.948 244.981 165.49H308.012C308.012 244.741 243.762 308.99 164.512 308.99Z" fill="#D1D3D4"/>
<path d="M164.512 330.001V308.99C243.762 308.99 308.012 244.741 308.012 165.49H329.022C329.022 256.339 255.36 330.001 164.512 330.001Z" fill="#02ADEE"/>
</svg>
