<svg width="1920" height="504" viewBox="0 0 1920 504" fill="none" xmlns="http://www.w3.org/2000/svg">
<path d="M0 167.423L45.8667 154.196C91.7333 141.183 183.467 114.73 274.773 110.25C366.293 105.556 457.173 122.623 548.693 102.783C640 82.7295 731.733 25.9828 823.04 7.42283C914.56 -11.1372 1005.44 8.91619 1096.96 25.9829C1188.27 43.0495 1280 57.1295 1371.31 81.4495C1462.83 105.556 1553.71 139.69 1645.23 129.45C1736.53 118.996 1828.27 64.3828 1874.13 36.8628L1920 9.55617V504.489H1874.13C1828.27 504.489 1736.53 504.489 1645.23 504.489C1553.71 504.489 1462.83 504.489 1371.31 504.489C1280 504.489 1188.27 504.489 1096.96 504.489C1005.44 504.489 914.56 504.489 823.04 504.489C731.733 504.489 640 504.489 548.693 504.489C457.173 504.489 366.293 504.489 274.773 504.489C183.467 504.489 91.7333 504.489 45.8667 504.489H0V167.423Z" fill="#EF018F"/>
<path d="M0 109.823L45.8667 110.463C91.7333 111.316 183.467 112.596 274.773 127.53C366.293 142.463 457.173 171.05 548.693 181.716C640 192.383 731.733 185.13 823.04 180.863C914.56 176.596 1005.44 175.316 1096.96 171.263C1188.27 167.423 1280 161.023 1371.31 147.156C1462.83 133.29 1553.71 111.956 1645.23 117.29C1736.53 122.623 1828.27 154.623 1874.13 170.623L1920 186.623V504.49H1874.13C1828.27 504.49 1736.53 504.49 1645.23 504.49C1553.71 504.49 1462.83 504.49 1371.31 504.49C1280 504.49 1188.27 504.49 1096.96 504.49C1005.44 504.49 914.56 504.49 823.04 504.49C731.733 504.49 640 504.49 548.693 504.49C457.173 504.49 366.293 504.49 274.773 504.49C183.467 504.49 91.7333 504.49 45.8667 504.49H0V109.823Z" fill="#B9008B"/>
<path d="M0 267.69L45.8667 272.383C91.7333 276.863 183.467 286.25 274.773 292.65C366.293 299.05 457.173 302.463 548.693 291.583C640 280.49 731.733 254.89 823.04 241.663C914.56 228.65 1005.44 227.796 1096.96 234.196C1188.27 240.596 1280 254.25 1371.31 245.29C1462.83 236.33 1553.71 205.183 1645.23 198.996C1736.53 193.023 1828.27 212.223 1874.13 221.823L1920 231.423V504.49H1874.13C1828.27 504.49 1736.53 504.49 1645.23 504.49C1553.71 504.49 1462.83 504.49 1371.31 504.49C1280 504.49 1188.27 504.49 1096.96 504.49C1005.44 504.49 914.56 504.49 823.04 504.49C731.733 504.49 640 504.49 548.693 504.49C457.173 504.49 366.293 504.49 274.773 504.49C183.467 504.49 91.7333 504.49 45.8667 504.49H0V267.69Z" fill="#820080"/>
<path d="M0 340.223L45.8667 332.33C91.7333 324.65 183.467 308.863 274.773 313.13C366.293 317.396 457.173 341.716 548.693 352.596C640 363.69 731.733 361.556 823.04 349.396C914.56 337.45 1005.44 315.263 1096.96 301.823C1188.27 288.383 1280 283.263 1371.31 281.556C1462.83 279.85 1553.71 281.13 1645.23 283.69C1736.53 286.25 1828.27 289.663 1874.13 291.583L1920 293.29V504.49H1874.13C1828.27 504.49 1736.53 504.49 1645.23 504.49C1553.71 504.49 1462.83 504.49 1371.31 504.49C1280 504.49 1188.27 504.49 1096.96 504.49C1005.44 504.49 914.56 504.49 823.04 504.49C731.733 504.49 640 504.49 548.693 504.49C457.173 504.49 366.293 504.49 274.773 504.49C183.467 504.49 91.7333 504.49 45.8667 504.49H0V340.223Z" fill="#4B066F"/>
<path d="M0 423.422L45.8667 421.715C91.7333 419.795 183.467 416.382 274.773 419.795C366.293 423.422 457.173 434.088 548.693 431.955C640 429.822 731.733 414.889 823.04 406.782C914.56 398.462 1005.44 397.182 1096.96 395.262C1188.27 393.555 1280 391.422 1371.31 388.222C1462.83 385.022 1553.71 380.755 1645.23 386.088C1736.53 391.422 1828.27 406.355 1874.13 413.822L1920 421.288V504.489H1874.13C1828.27 504.489 1736.53 504.489 1645.23 504.489C1553.71 504.489 1462.83 504.489 1371.31 504.489C1280 504.489 1188.27 504.489 1096.96 504.489C1005.44 504.489 914.56 504.489 823.04 504.489C731.733 504.489 640 504.489 548.693 504.489C457.173 504.489 366.293 504.489 274.773 504.489C183.467 504.489 91.7333 504.489 45.8667 504.489H0V423.422Z" fill="#000759"/>
</svg>
