<svg width="600" height="276" viewBox="0 0 600 276" fill="none" xmlns="http://www.w3.org/2000/svg">
<g clip-path="url(#clip0_352_337)">
<rect width="600" height="276" fill="#160041"/>
<g opacity="0.25">
<path d="M-7 165.131L7.82966 160.855C22.6593 156.647 52.3187 148.094 81.84 146.646C111.43 145.129 140.814 150.647 170.404 144.232C199.926 137.748 229.585 119.401 259.106 113.4C288.697 107.399 318.08 113.883 347.67 119.401C377.192 124.919 406.851 129.471 436.372 137.334C465.963 145.129 495.346 156.165 524.937 152.854C554.458 149.474 584.117 131.816 598.947 122.919L613.777 114.09V274.112H598.947C584.117 274.112 554.458 274.112 524.937 274.112C495.346 274.112 465.963 274.112 436.372 274.112C406.851 274.112 377.192 274.112 347.67 274.112C318.08 274.112 288.697 274.112 259.106 274.112C229.585 274.112 199.926 274.112 170.404 274.112C140.814 274.112 111.43 274.112 81.84 274.112C52.3187 274.112 22.6593 274.112 7.82966 274.112H-7V165.131Z" fill="#EF018F"/>
<path d="M-7 146.508L7.82966 146.715C22.6593 146.991 52.3187 147.405 81.84 152.233C111.43 157.061 140.814 166.304 170.404 169.753C199.926 173.201 229.585 170.856 259.106 169.477C288.697 168.097 318.08 167.683 347.67 166.373C377.192 165.131 406.851 163.062 436.372 158.579C465.963 154.095 495.346 147.198 524.937 148.922C554.458 150.647 584.117 160.993 598.947 166.166L613.777 171.339V274.112H598.947C584.117 274.112 554.458 274.112 524.937 274.112C495.346 274.112 465.963 274.112 436.372 274.112C406.851 274.112 377.192 274.112 347.67 274.112C318.08 274.112 288.697 274.112 259.106 274.112C229.585 274.112 199.926 274.112 170.404 274.112C140.814 274.112 111.43 274.112 81.84 274.112C52.3187 274.112 22.6593 274.112 7.82966 274.112H-7V146.508Z" fill="#B9008B"/>
<path d="M-7 197.55L7.82966 199.067C22.6593 200.516 52.3187 203.551 81.84 205.62C111.43 207.689 140.814 208.793 170.404 205.275C199.926 201.688 229.585 193.411 259.106 189.135C288.697 184.927 318.08 184.652 347.67 186.721C377.192 188.79 406.851 193.204 436.372 190.307C465.963 187.411 495.346 177.34 524.937 175.34C554.458 173.409 584.117 179.616 598.947 182.72L613.777 185.824V274.112H598.947C584.117 274.112 554.458 274.112 524.937 274.112C495.346 274.112 465.963 274.112 436.372 274.112C406.851 274.112 377.192 274.112 347.67 274.112C318.08 274.112 288.697 274.112 259.106 274.112C229.585 274.112 199.926 274.112 170.404 274.112C140.814 274.112 111.43 274.112 81.84 274.112C52.3187 274.112 22.6593 274.112 7.82966 274.112H-7V197.55Z" fill="#820080"/>
<path d="M-7 221.001L7.82966 218.449C22.6593 215.966 52.3187 210.862 81.84 212.241C111.43 213.621 140.814 221.484 170.404 225.002C199.926 228.588 229.585 227.899 259.106 223.967C288.697 220.104 318.08 212.931 347.67 208.586C377.192 204.24 406.851 202.585 436.372 202.033C465.963 201.481 495.346 201.895 524.937 202.723C554.458 203.55 584.117 204.654 598.947 205.275L613.777 205.827V274.112H598.947C584.117 274.112 554.458 274.112 524.937 274.112C495.346 274.112 465.963 274.112 436.372 274.112C406.851 274.112 377.192 274.112 347.67 274.112C318.08 274.112 288.697 274.112 259.106 274.112C229.585 274.112 199.926 274.112 170.404 274.112C140.814 274.112 111.43 274.112 81.84 274.112C52.3187 274.112 22.6593 274.112 7.82966 274.112H-7V221.001Z" fill="#4B066F"/>
<path d="M-7 247.901L7.82966 247.349C22.6593 246.729 52.3187 245.625 81.84 246.729C111.43 247.901 140.814 251.35 170.404 250.66C199.926 249.97 229.585 245.142 259.106 242.521C288.697 239.831 318.08 239.417 347.67 238.796C377.192 238.245 406.851 237.555 436.372 236.52C465.963 235.486 495.346 234.106 524.937 235.831C554.458 237.555 584.117 242.383 598.947 244.797L613.777 247.211V274.112H598.947C584.117 274.112 554.458 274.112 524.937 274.112C495.346 274.112 465.963 274.112 436.372 274.112C406.851 274.112 377.192 274.112 347.67 274.112C318.08 274.112 288.697 274.112 259.106 274.112C229.585 274.112 199.926 274.112 170.404 274.112C140.814 274.112 111.43 274.112 81.84 274.112C52.3187 274.112 22.6593 274.112 7.82966 274.112H-7V247.901Z" fill="#000759"/>
</g>
</g>
<defs>
<clipPath id="clip0_352_337">
<rect width="600" height="276" fill="white"/>
</clipPath>
</defs>
</svg>
