<svg width="11" height="9" viewBox="0 0 11 9" fill="none" xmlns="http://www.w3.org/2000/svg">
<path d="M2.8125 6.9375H3.9375V6.375H2.8125V6.9375ZM3.375 3.5625C3.05859 3.5625 2.8125 3.82617 2.8125 4.125C2.8125 4.44141 3.05859 4.6875 3.375 4.6875C3.67383 4.6875 3.9375 4.44141 3.9375 4.125C3.9375 3.82617 3.67383 3.5625 3.375 3.5625ZM6.75 3.5625C6.43359 3.5625 6.1875 3.82617 6.1875 4.125C6.1875 4.44141 6.43359 4.6875 6.75 4.6875C7.04883 4.6875 7.3125 4.44141 7.3125 4.125C7.3125 3.82617 7.04883 3.5625 6.75 3.5625ZM9.5625 3.5625H9V3C9 2.06836 8.24414 1.3125 7.3125 1.3125H5.34375V-0.09375C5.34375 -0.234375 5.20312 -0.375 5.0625 -0.375C4.9043 -0.375 4.78125 -0.234375 4.78125 -0.09375V1.3125H2.8125C1.88086 1.3125 1.125 2.06836 1.125 3V3.5625H0.5625C0.246094 3.5625 0 3.82617 0 4.125L0 6.375C0 6.69141 0.246094 6.9375 0.5625 6.9375H1.125V7.5C1.125 8.13281 1.61719 8.625 2.25 8.625L7.875 8.625C8.49023 8.625 9 8.13281 9 7.5V6.9375H9.5625C9.86133 6.9375 10.125 6.69141 10.125 6.375V4.125C10.125 3.82617 9.86133 3.5625 9.5625 3.5625ZM1.125 6.375H0.5625L0.5625 4.125H1.125L1.125 6.375ZM8.4375 7.5C8.4375 7.81641 8.17383 8.0625 7.875 8.0625L2.25 8.0625C1.93359 8.0625 1.6875 7.81641 1.6875 7.5L1.6875 3C1.6875 2.38477 2.17969 1.875 2.8125 1.875H7.3125C7.92773 1.875 8.4375 2.38477 8.4375 3V7.5ZM9.5625 6.375H9V4.125H9.5625V6.375ZM6.1875 6.9375H7.3125V6.375H6.1875V6.9375ZM4.5 6.9375L5.625 6.9375V6.375L4.5 6.375V6.9375Z" fill="white"/>
</svg>
