<svg width="188" height="188" viewBox="0 0 188 188" fill="none" xmlns="http://www.w3.org/2000/svg">
<g filter="url(#filter0_d_353_397)">
<circle cx="94" cy="90" r="78" fill="white" fill-opacity="0.9" shape-rendering="crispEdges"/>
</g>
<path d="M131.386 136.438H116.029V128.212C116.061 125.333 115.519 122.476 114.437 119.809C113.354 117.141 111.751 114.715 109.722 112.673C107.784 110.564 105.422 108.888 102.792 107.754C100.162 106.62 97.3217 106.053 94.4575 106.091C91.5823 106.045 88.7294 106.602 86.0834 107.728C83.4374 108.854 81.0573 110.523 79.0973 112.627C77.0611 114.674 75.4545 117.107 74.3721 119.783C73.2896 122.459 72.7532 125.325 72.7943 128.212V136.438H57.438V128.212C57.4118 122.474 58.7754 116.815 61.4122 111.719C64.0431 106.59 67.8492 102.156 72.52 98.779C67.8584 95.4129 64.0534 90.998 61.4122 85.8907C58.7714 80.8103 57.4074 75.1633 57.438 69.4376V64.4102H72.7943V69.4376C72.7532 72.3243 73.2896 75.19 74.3721 77.8664C75.4545 80.5428 77.0611 82.9758 79.0973 85.0223C81.0568 87.126 83.4363 88.7947 86.0815 89.9205C88.7268 91.0463 91.579 91.6042 94.4536 91.5579C97.3187 91.5961 100.16 91.0293 102.791 89.8946C105.422 88.7598 107.784 87.0827 109.722 84.9727C111.751 82.93 113.354 80.5043 114.437 77.8366C115.519 75.1689 116.061 72.3125 116.029 69.4336V64.4062H131.386V69.4336C131.416 75.1593 130.052 80.8063 127.411 85.8867C124.786 90.9764 121.015 95.388 116.397 98.775C121.032 102.181 124.805 106.627 127.411 111.755C130.039 116.84 131.402 122.484 131.386 128.208V136.438Z" fill="#EF018F"/>
<path d="M140.142 76.6799C140.142 76.6799 136.572 75.0813 136.572 73.1094V52.1331C136.572 50.1612 138.17 48.5625 140.142 48.5625C142.114 48.5625 143.713 50.1612 143.713 52.1331L143.713 73.1091L140.142 76.6799Z" fill="#CFCFE6"/>
<path d="M143.712 73.1089V82.8994C143.712 88.8051 138.906 93.611 133 93.611C127.094 93.611 122.288 88.8051 122.288 82.8994V73.1089C122.288 67.2032 127.094 62.3972 133 62.3972C138.906 62.3972 143.712 67.2032 143.712 73.1089Z" fill="#000759"/>
<path d="M47.6018 76.6799L44.0312 73.1094V52.1331C44.0312 50.1612 45.6299 48.5625 47.6018 48.5625C49.5737 48.5625 51.1724 50.1612 51.1724 52.1331V73.1094C51.1724 75.0813 47.6018 76.6799 47.6018 76.6799Z" fill="#E6E6F2"/>
<path d="M65.4546 73.1089V82.8994C65.4546 88.8051 60.6486 93.611 54.7429 93.611C48.8372 93.611 44.0312 88.8051 44.0312 82.8994V73.1089C44.0312 67.2032 48.8372 62.3972 54.7429 62.3972C60.6486 62.3972 65.4546 67.2032 65.4546 73.1089Z" fill="#070E59"/>
<path d="M93.8715 64.4205L105.227 91.6472L93.8715 105.929H87.1231C71.2365 105.929 58.3135 93.0064 58.3135 77.1198V67.9911L61.884 64.4205H93.8715Z" fill="#FE48B5"/>
<path d="M129.429 67.9935V77.1222C129.429 93.0088 116.506 105.932 100.62 105.932H93.8715V64.4229H125.859L129.429 67.9935Z" fill="#EF018F"/>
<path d="M93.8715 52.1331L105.227 65.5653L93.8715 83.8563H77.7444C68.9847 83.8563 61.884 76.7556 61.884 67.9935C61.884 63.6136 63.6598 59.6479 66.5305 56.7772C69.3989 53.9088 73.3646 52.1331 77.7444 52.1331H93.8715Z" fill="#574D8C"/>
<path d="M125.859 67.9935C125.859 72.3734 124.083 76.3391 121.212 79.2098C118.344 82.0805 114.378 83.8563 109.998 83.8563H93.8715V52.1331H109.998C118.758 52.1331 125.859 59.2337 125.859 67.9935Z" fill="#3E3373"/>
<path d="M77.6849 71.4164C79.6569 71.4164 81.2555 69.8179 81.2555 67.8459C81.2555 65.8739 79.6569 64.2753 77.6849 64.2753C75.713 64.2753 74.1144 65.8739 74.1144 67.8459C74.1144 69.8179 75.713 71.4164 77.6849 71.4164Z" fill="#02ADEE"/>
<path d="M110.058 71.4164C112.03 71.4164 113.629 69.8179 113.629 67.8459C113.629 65.8739 112.03 64.2753 110.058 64.2753C108.086 64.2753 106.487 65.8739 106.487 67.8459C106.487 69.8179 108.086 71.4164 110.058 71.4164Z" fill="#02ADEE"/>
<path d="M77.7444 55.7036H93.8715L99.5982 51.8803L93.8715 48.5625H77.7444C67.0304 48.5625 58.3135 57.2794 58.3135 67.9935C58.3135 78.7099 67.0304 87.4268 77.7444 87.4268H93.8715L97.5199 82.7703L93.8715 80.2857H77.7444C70.9675 80.2857 65.4546 74.7728 65.4546 67.9935C65.4546 61.2166 70.9675 55.7036 77.7444 55.7036Z" fill="#CCEEFF"/>
<path d="M129.429 67.9935C129.429 78.7099 120.713 87.4268 109.998 87.4268H93.8715V80.2857H109.998C116.775 80.2857 122.288 74.7728 122.288 67.9935C122.288 61.2166 116.775 55.7036 109.998 55.7036H93.8715V48.5625H109.998C120.713 48.5625 129.429 57.2794 129.429 67.9935Z" fill="#99DDFF"/>
<defs>
<filter id="filter0_d_353_397" x="0" y="0" width="188" height="188" filterUnits="userSpaceOnUse" color-interpolation-filters="sRGB">
<feFlood flood-opacity="0" result="BackgroundImageFix"/>
<feColorMatrix in="SourceAlpha" type="matrix" values="0 0 0 0 0 0 0 0 0 0 0 0 0 0 0 0 0 0 127 0" result="hardAlpha"/>
<feOffset dy="4"/>
<feGaussianBlur stdDeviation="8"/>
<feComposite in2="hardAlpha" operator="out"/>
<feColorMatrix type="matrix" values="0 0 0 0 0 0 0 0 0 0 0 0 0 0 0 0 0 0 0.25 0"/>
<feBlend mode="normal" in2="BackgroundImageFix" result="effect1_dropShadow_353_397"/>
<feBlend mode="normal" in="SourceGraphic" in2="effect1_dropShadow_353_397" result="shape"/>
</filter>
</defs>
</svg>
