<svg width="18" height="20" viewBox="0 0 18 20" fill="none" xmlns="http://www.w3.org/2000/svg">
<path fill-rule="evenodd" clip-rule="evenodd" d="M5.2499 0.398438C5.58127 0.398438 5.8499 0.667067 5.8499 0.998438V1.89844H12.1499V0.998438C12.1499 0.667067 12.4185 0.398438 12.7499 0.398438C13.0813 0.398438 13.3499 0.667067 13.3499 0.998438V1.89844H15.7499C16.3069 1.89844 16.841 2.11969 17.2348 2.51351C17.6287 2.90734 17.8499 3.44148 17.8499 3.99844V17.4984C17.8499 18.0554 17.6287 18.5895 17.2348 18.9834C16.841 19.3772 16.3069 19.5984 15.7499 19.5984H2.2499C1.69295 19.5984 1.1588 19.3772 0.764978 18.9834C0.371152 18.5895 0.149902 18.0554 0.149902 17.4984V3.99844C0.149902 3.44148 0.371152 2.90734 0.764978 2.51351C1.1588 2.11969 1.69295 1.89844 2.2499 1.89844H4.6499V0.998438C4.6499 0.667067 4.91853 0.398438 5.2499 0.398438ZM4.6499 3.09844H2.2499C2.01121 3.09844 1.78229 3.19326 1.61351 3.36204C1.44472 3.53082 1.3499 3.75974 1.3499 3.99844V6.39844H16.6499V3.99844C16.6499 3.75974 16.5551 3.53082 16.3863 3.36204C16.2175 3.19326 15.9886 3.09844 15.7499 3.09844H13.3499V3.99844C13.3499 4.32981 13.0813 4.59844 12.7499 4.59844C12.4185 4.59844 12.1499 4.32981 12.1499 3.99844V3.09844H5.8499V3.99844C5.8499 4.32981 5.58127 4.59844 5.2499 4.59844C4.91853 4.59844 4.6499 4.32981 4.6499 3.99844V3.09844ZM16.6499 7.59844H1.3499V17.4984C1.3499 17.7371 1.44472 17.9661 1.61351 18.1348C1.78229 18.3036 2.01121 18.3984 2.2499 18.3984H15.7499C15.9886 18.3984 16.2175 18.3036 16.3863 18.1348C16.5551 17.9661 16.6499 17.7371 16.6499 17.4984V7.59844ZM7.2749 10.3734C7.2749 10.0421 7.54353 9.77344 7.8749 9.77344H9.3749C9.70627 9.77344 9.9749 10.0421 9.9749 10.3734V15.2484C9.9749 15.5798 9.70627 15.8484 9.3749 15.8484C9.04353 15.8484 8.7749 15.5798 8.7749 15.2484V10.9734H7.8749C7.54353 10.9734 7.2749 10.7048 7.2749 10.3734Z" fill="#EFEEEE"/>
</svg>
