<svg width="19" height="19" viewBox="0 0 19 19" fill="none" xmlns="http://www.w3.org/2000/svg">
<circle cx="9.50065" cy="9.5026" r="5.54167" fill="white"/>
<path d="M9.50065 1.58594C5.12273 1.58594 1.58398 5.12469 1.58398 9.5026C1.58398 13.8805 5.12273 17.4193 9.50065 17.4193C13.8786 17.4193 17.4173 13.8805 17.4173 9.5026C17.4173 5.12469 13.8786 1.58594 9.50065 1.58594ZM12.9048 12.9068C12.8316 12.9802 12.7446 13.0384 12.6488 13.0781C12.553 13.1178 12.4504 13.1383 12.3467 13.1383C12.243 13.1383 12.1403 13.1178 12.0446 13.0781C11.9488 13.0384 11.8618 12.9802 11.7886 12.9068L9.50065 10.6189L7.21273 12.9068C7.06471 13.0548 6.86395 13.138 6.65461 13.138C6.44527 13.138 6.24451 13.0548 6.09648 12.9068C5.94846 12.7587 5.8653 12.558 5.8653 12.3486C5.8653 12.245 5.88572 12.1424 5.92538 12.0466C5.96505 11.9508 6.02319 11.8638 6.09648 11.7905L8.3844 9.5026L6.09648 7.21469C5.94846 7.06666 5.8653 6.8659 5.8653 6.65656C5.8653 6.44722 5.94846 6.24646 6.09648 6.09844C6.24451 5.95041 6.44527 5.86725 6.65461 5.86725C6.86395 5.86725 7.06471 5.95041 7.21273 6.09844L9.50065 8.38635L11.7886 6.09844C11.8619 6.02514 11.9489 5.967 12.0446 5.92734C12.1404 5.88767 12.243 5.86725 12.3467 5.86725C12.4503 5.86725 12.553 5.88767 12.6487 5.92734C12.7445 5.967 12.8315 6.02514 12.9048 6.09844C12.9781 6.17173 13.0363 6.25874 13.0759 6.35451C13.1156 6.45027 13.136 6.55291 13.136 6.65656C13.136 6.76022 13.1156 6.86285 13.0759 6.95862C13.0363 7.05438 12.9781 7.14139 12.9048 7.21469L10.6169 9.5026L12.9048 11.7905C13.2056 12.0914 13.2056 12.598 12.9048 12.9068Z" fill="#A2A2A3"/>
</svg>
