<svg width="74" height="74" viewBox="0 0 74 74" fill="none" xmlns="http://www.w3.org/2000/svg">
<path d="M52.9562 49.0138C57.4215 45.6648 60.7198 40.9958 62.3841 35.6682C64.0483 30.3405 63.9941 24.6242 62.229 19.3291C60.464 14.034 57.0776 9.42839 52.5496 6.1648C48.0216 2.9012 42.5815 1.14502 37 1.14502C31.4184 1.14502 25.9783 2.9012 21.4503 6.1648C16.9223 9.42839 13.536 14.034 11.7709 19.3291C10.0059 24.6242 9.95163 30.3405 11.6159 35.6682C13.2801 40.9958 16.5785 45.6648 21.0437 49.0138L7.27278 62.7731C7.10423 62.9431 6.99258 63.1612 6.95323 63.3973C6.91388 63.6334 6.94877 63.8758 7.05309 64.0913C7.15621 64.3047 7.32243 64.4813 7.52925 64.5971C7.73607 64.7129 7.97348 64.7624 8.20934 64.7388L17.3437 63.7328V71.6878C17.3449 71.9161 17.4135 72.1389 17.5411 72.3282C17.6687 72.5175 17.8494 72.6648 18.0606 72.7516C18.1978 72.8163 18.3483 72.848 18.5 72.8441C18.6521 72.845 18.803 72.8158 18.9439 72.7583C19.0847 72.7007 19.2129 72.6159 19.3209 72.5088L37 54.8181L54.679 72.5088C54.7871 72.6159 54.9152 72.7007 55.0561 72.7583C55.1969 72.8158 55.3478 72.845 55.5 72.8441C55.6516 72.848 55.8021 72.8163 55.9393 72.7516C56.1505 72.6648 56.3312 72.5175 56.4588 72.3282C56.5864 72.1389 56.6551 71.9161 56.6562 71.6878V63.7328L65.779 64.7388C66.0149 64.7624 66.2523 64.7129 66.4591 64.5971C66.6659 64.4813 66.8322 64.3047 66.9353 64.0913C67.0396 63.8758 67.0745 63.6334 67.0351 63.3973C66.9958 63.1612 66.8841 62.9431 66.7156 62.7731L52.9562 49.0138ZM12.7187 27.7503C12.7187 22.948 14.1428 18.2534 16.8108 14.2604C19.4789 10.2674 23.2711 7.15517 27.7079 5.31738C32.1448 3.47959 37.0269 2.99874 41.737 3.93564C46.4471 4.87254 50.7736 7.1851 54.1694 10.5809C57.5652 13.9767 59.8778 18.3032 60.8147 23.0133C61.7516 27.7234 61.2707 32.6055 59.4329 37.0424C57.5951 41.4792 54.4829 45.2714 50.4899 47.9394C46.4969 50.6075 41.8023 52.0316 37 52.0316C30.5602 52.0316 24.3841 49.4734 19.8305 44.9198C15.2769 40.3661 12.7187 34.1901 12.7187 27.7503ZM19.2747 61.5706C19.1523 61.4636 19.0087 61.3835 18.8533 61.3357C18.6979 61.2879 18.5342 61.2734 18.3728 61.2931L11.2387 62.0794L22.9862 50.3319C26.4198 52.4854 30.3068 53.8114 34.3406 54.2053L19.6562 68.9013V62.4378C19.6575 62.2745 19.6241 62.1128 19.5583 61.9634C19.4926 61.8139 19.3959 61.68 19.2747 61.5706ZM55.6271 61.2816C55.4658 61.2618 55.302 61.2763 55.1466 61.3241C54.9912 61.372 54.8476 61.452 54.7253 61.5591C54.6026 61.6698 54.505 61.8055 54.4392 61.9571C54.3734 62.1087 54.3408 62.2726 54.3437 62.4378V68.9013L39.6593 54.2053C43.6931 53.8114 47.5802 52.4854 51.0137 50.3319L62.7612 62.0794L55.6271 61.2816Z" fill="#9FA8DA"/>
<path d="M58.9688 27.75C58.9688 23.405 57.6803 19.1576 55.2664 15.5448C52.8524 11.9321 49.4213 9.11629 45.4071 7.45353C41.3928 5.79077 36.9756 5.35571 32.7141 6.20338C28.4526 7.05105 24.5381 9.14337 21.4658 12.2158C18.3934 15.2881 16.3011 19.2026 15.4534 23.4641C14.6057 27.7256 15.0408 32.1428 16.7035 36.1571C18.3663 40.1713 21.1821 43.6024 24.7948 46.0164C28.4076 48.4303 32.655 49.7188 37 49.7188C42.8265 49.7188 48.4143 47.4042 52.5343 43.2843C56.6542 39.1643 58.9688 33.5765 58.9688 27.75ZM18.2109 21.9688H30.0625C30.2147 21.9696 30.3655 21.9405 30.5064 21.8829C30.6473 21.8254 30.7754 21.7406 30.8834 21.6334L35.5084 17.0084C35.6156 16.9004 35.7004 16.7723 35.7579 16.6314C35.8155 16.4905 35.8446 16.3397 35.8438 16.1875V12.7188C36.4571 12.7188 37.0453 12.9624 37.4789 13.3961C37.9126 13.8298 38.1563 14.4179 38.1563 15.0313V20.8125C38.1563 21.1192 38.2781 21.4133 38.4949 21.6301C38.7118 21.8469 39.0059 21.9688 39.3125 21.9688H49.7188V24.2813H40.4688V26.5938H49.7188V28.9063H40.4688V31.2188H49.7188V33.5313H40.4688V35.8438H49.7188V37C49.7188 37.3067 49.5969 37.6008 49.3801 37.8176C49.1633 38.0344 48.8692 38.1563 48.5625 38.1563H34.965L30.5828 35.9709C30.4217 35.8884 30.2435 35.8448 30.0625 35.8438H19.1128C17.9459 33.3051 17.3424 30.544 17.3438 27.75C17.3463 25.7907 17.6385 23.8426 18.2109 21.9688ZM20.35 38.1563H29.785L34.1672 40.3416C34.3283 40.4241 34.5065 40.4677 34.6875 40.4688H48.5625C49.4825 40.4688 50.3648 40.1033 51.0153 39.4528C51.6658 38.8023 52.0313 37.92 52.0313 37V20.8125C52.0313 20.5059 51.9094 20.2118 51.6926 19.9949C51.4758 19.7781 51.1817 19.6563 50.875 19.6563H40.4688V15.0313C40.4688 13.8046 39.9815 12.6282 39.1141 11.7609C38.2468 10.8935 37.0704 10.4063 35.8438 10.4063H34.6875C34.3809 10.4063 34.0868 10.5281 33.8699 10.7449C33.6531 10.9618 33.5313 11.2559 33.5313 11.5625V15.7134L29.5884 19.6563H19.1128C20.917 15.6633 24.0035 12.3876 27.8823 10.3495C31.761 8.3113 36.2095 7.62756 40.5213 8.40683C44.8331 9.18609 48.7609 11.3837 51.6809 14.6505C54.6008 17.9174 56.3456 22.0663 56.6379 26.4381C56.9303 30.81 55.7536 35.1542 53.2946 38.7808C50.8356 42.4074 47.2354 45.1084 43.0658 46.4549C38.8962 47.8013 34.3962 47.716 30.2806 46.2125C26.165 44.709 22.6698 41.8734 20.35 38.1563Z" fill="#9FA8DA"/>
<path d="M10.4061 12.7189C10.5882 12.7257 10.7693 12.6893 10.9347 12.6128C11.1 12.5364 11.245 12.4219 11.3577 12.2787C11.4704 12.1356 11.5477 11.9678 11.5833 11.7891C11.6189 11.6104 11.6117 11.4258 11.5624 11.2504L10.5795 7.93198L12.2445 6.71792C12.4218 6.58799 12.5584 6.41021 12.6383 6.20542C12.7182 6.00064 12.738 5.77733 12.6955 5.56167C12.6597 5.33916 12.5596 5.13197 12.4076 4.96557C12.2556 4.79918 12.0582 4.68084 11.8399 4.62511L9.1458 3.97761L7.98955 1.76917C7.89048 1.58561 7.74359 1.43228 7.56447 1.32541C7.38534 1.21853 7.18064 1.16211 6.97205 1.16211C6.76346 1.16211 6.55876 1.21853 6.37963 1.32541C6.2005 1.43228 6.05362 1.58561 5.95455 1.76917L4.7983 3.97761L2.03486 4.62511C1.81221 4.67687 1.60991 4.79347 1.4535 4.96017C1.29709 5.12686 1.1936 5.33618 1.15611 5.56167C1.1136 5.77733 1.13344 6.00064 1.2133 6.20542C1.29317 6.41021 1.42975 6.58799 1.60705 6.71792L3.29517 7.93198L2.31236 11.2504C2.24754 11.4813 2.25612 11.7267 2.33691 11.9525C2.4177 12.1783 2.56671 12.3734 2.7633 12.5107C2.95912 12.6502 3.19353 12.7251 3.43392 12.7251C3.67431 12.7251 3.90872 12.6502 4.10455 12.5107L6.93736 10.4064L9.72392 12.4529C9.91651 12.6131 10.1559 12.7065 10.4061 12.7189ZM8.56767 6.54448C8.36918 6.67801 8.21699 6.86983 8.13209 7.09348C8.04718 7.31714 8.03374 7.56162 8.09361 7.79323L8.33642 8.64886L7.61955 8.09386C7.42153 7.94916 7.18262 7.87117 6.93736 7.87117C6.6921 7.87117 6.4532 7.94916 6.25517 8.09386L5.49205 8.64886L5.78111 7.79323C5.84574 7.5663 5.83939 7.32503 5.76291 7.10181C5.68644 6.87859 5.54351 6.68411 5.3533 6.54448L4.97174 6.30167L5.78111 6.09355C5.93492 6.05418 6.07898 5.98356 6.2043 5.88609C6.32963 5.78861 6.43353 5.66637 6.50955 5.52698L6.93736 4.76386L7.35361 5.52698C7.4309 5.6676 7.5366 5.79059 7.664 5.88813C7.7914 5.98567 7.93771 6.05562 8.09361 6.09355L8.91455 6.30167L8.56767 6.54448Z" fill="#9FA8DA"/>
<path d="M72.8434 5.56169C72.8059 5.3362 72.7025 5.12688 72.546 4.96019C72.3896 4.79349 72.1873 4.67689 71.9647 4.62513L69.2706 3.94294L68.1144 1.7345C68.0153 1.55095 67.8684 1.39761 67.6893 1.29074C67.5102 1.18387 67.3055 1.12744 67.0969 1.12744C66.8883 1.12744 66.6836 1.18387 66.5045 1.29074C66.3253 1.39761 66.1784 1.55095 66.0794 1.7345L64.9231 3.94294L62.1597 4.62513C61.946 4.67836 61.7519 4.79152 61.6004 4.95129C61.4488 5.11106 61.346 5.3108 61.3041 5.527C61.2615 5.74266 61.2814 5.96597 61.3613 6.17076C61.4411 6.37554 61.5777 6.55332 61.755 6.68325L63.42 7.89732L62.4372 11.2504C62.3724 11.4813 62.3809 11.7267 62.4617 11.9525C62.5425 12.1783 62.6915 12.3734 62.8881 12.5108C63.0839 12.6502 63.3184 12.7251 63.5587 12.7251C63.7991 12.7251 64.0335 12.6502 64.2294 12.5108L67.0622 10.4064L69.8487 12.4529C70.0413 12.6131 70.2807 12.7065 70.5309 12.7189C70.713 12.7257 70.8941 12.6894 71.0595 12.6129C71.2249 12.5364 71.3698 12.4219 71.4825 12.2787C71.5953 12.1356 71.6726 11.9678 71.7081 11.7891C71.7437 11.6104 71.7365 11.4258 71.6872 11.2504L70.7506 7.932L72.4156 6.71794C72.5887 6.5852 72.7208 6.40619 72.7965 6.20159C72.8722 5.99699 72.8885 5.77515 72.8434 5.56169ZM68.7156 6.5445C68.513 6.67488 68.3561 6.86532 68.2669 7.08921C68.1778 7.3131 68.1608 7.55925 68.2184 7.79325L68.4612 8.64888L67.7444 8.09388C67.5464 7.94918 67.3074 7.87119 67.0622 7.87119C66.8169 7.87119 66.578 7.94918 66.38 8.09388L65.6169 8.64888L65.9059 7.79325C65.9706 7.56632 65.9642 7.32505 65.8877 7.10183C65.8113 6.87861 65.6683 6.68413 65.4781 6.5445L65.1428 6.30169L65.9059 6.09357C66.0597 6.0542 66.2038 5.98358 66.3291 5.88611C66.4545 5.78863 66.5584 5.66639 66.6344 5.527L67.0622 4.76388L67.4784 5.527C67.5545 5.66639 67.6584 5.78863 67.7837 5.88611C67.909 5.98358 68.0531 6.0542 68.2069 6.09357L69.0278 6.30169L68.7156 6.5445Z" fill="#9FA8DA"/>
</svg>
