<svg width="74" height="74" viewBox="0 0 74 74" fill="none" xmlns="http://www.w3.org/2000/svg">
<path d="M71.0689 62.4965L64.4112 55.8388C64.1944 55.622 63.9003 55.5002 63.5938 55.5002C63.2872 55.5002 62.9931 55.622 62.7763 55.8388L62.4375 56.1776L57.4379 51.1779C58.7741 48.9838 59.6364 46.5344 59.9696 43.9872C60.3027 41.4399 60.0993 38.8512 59.3723 36.3872C58.6453 33.9233 57.4109 31.6387 55.7484 29.6802C54.0858 27.7218 52.032 26.1328 49.7188 25.0155V2.3125C49.7188 2.00584 49.5969 1.71175 49.3801 1.49491C49.1633 1.27807 48.8692 1.15625 48.5625 1.15625H2.3125C2.00584 1.15625 1.71175 1.27807 1.49491 1.49491C1.27807 1.71175 1.15625 2.00584 1.15625 2.3125V71.6875C1.15625 71.9942 1.27807 72.2883 1.49491 72.5051C1.71175 72.7219 2.00584 72.8438 2.3125 72.8438H48.5625C48.8692 72.8438 49.1633 72.7219 49.3801 72.5051C49.5969 72.2883 49.7188 71.9942 49.7188 71.6875V58.2345C50.2183 57.9909 50.7046 57.7254 51.1779 57.4379L56.1776 62.4375L55.8388 62.7763C55.622 62.9931 55.5002 63.2872 55.5002 63.5938C55.5002 63.9003 55.622 64.1944 55.8388 64.4112L62.4965 71.0689C63.6332 72.2057 65.175 72.8443 66.7827 72.8443C68.3903 72.8443 69.9321 72.2057 71.0689 71.0689C72.2057 69.9321 72.8443 68.3903 72.8443 66.7827C72.8443 65.175 72.2057 63.6332 71.0689 62.4965ZM57.8125 41.625C57.8176 44.4681 57.0724 47.2623 55.6523 49.7253C54.2321 52.1883 52.1872 54.233 49.7241 55.653C47.2609 57.0729 44.4667 57.8179 41.6236 57.8125C38.7804 57.8072 35.9891 57.0518 33.5312 55.6226V55.5H33.3301C30.9016 54.0475 28.8965 51.9835 27.515 49.514C26.1336 47.0444 25.424 44.2557 25.4571 41.4262C25.4902 38.5967 26.2649 35.8253 27.7039 33.3888C29.1428 30.9523 31.1956 28.9358 33.6575 27.5406C36.1193 26.1454 38.904 25.4203 41.7337 25.4377C44.5633 25.4551 47.3389 26.2143 49.7834 27.6397C52.2279 29.065 54.2558 31.1066 55.6647 33.5606C57.0736 36.0147 57.8141 38.7953 57.8125 41.625ZM15.0312 50.875H10.4062V32.375H15.0312V50.875ZM27.2066 53.1875C27.8797 54.0209 28.6236 54.7947 29.43 55.5H8.09375V53.1875H27.2066ZM26.5938 30.8811C24.5153 33.7629 23.3178 37.1859 23.1464 40.7349C22.975 44.2839 23.8372 47.8064 25.6283 50.875H21.9688V23.125H26.5938V30.8811ZM39.3125 23.2857C37.725 23.4824 36.1701 23.8863 34.6875 24.4871V16.1875H39.3125V23.2857ZM47.4062 70.5312H3.46875V3.46875H47.4062V24.0627C45.5416 23.4435 43.5898 23.1269 41.625 23.125V15.0312C41.625 14.7246 41.5032 14.4305 41.2863 14.2137C41.0695 13.9968 40.7754 13.875 40.4688 13.875H33.5312C33.2246 13.875 32.9305 13.9968 32.7137 14.2137C32.4968 14.4305 32.375 14.7246 32.375 15.0312V25.6283C31.1214 26.3556 29.9572 27.2272 28.9062 28.2252V21.9688C28.9062 21.6621 28.7844 21.368 28.5676 21.1512C28.3508 20.9343 28.0567 20.8125 27.75 20.8125H20.8125C20.5058 20.8125 20.2117 20.9343 19.9949 21.1512C19.7781 21.368 19.6562 21.6621 19.6562 21.9688V50.875H17.3438V31.2188C17.3438 30.9121 17.2219 30.618 17.0051 30.4012C16.7883 30.1843 16.4942 30.0625 16.1875 30.0625H9.25C8.94334 30.0625 8.64925 30.1843 8.43241 30.4012C8.21557 30.618 8.09375 30.9121 8.09375 31.2188V50.875H6.9375C6.63084 50.875 6.33675 50.9968 6.11991 51.2137C5.90307 51.4305 5.78125 51.7246 5.78125 52.0312V56.6562C5.78125 56.9629 5.90307 57.257 6.11991 57.4738C6.33675 57.6907 6.63084 57.8125 6.9375 57.8125H32.6883C34.9126 59.0483 37.3694 59.8087 39.9029 60.0453C42.4365 60.282 44.9916 59.9898 47.4062 59.1873V70.5312ZM53.1112 56.1013C54.2174 55.2205 55.2205 54.2174 56.1013 53.1112L60.8026 57.8125L57.8125 60.8026L53.1112 56.1013ZM66.7827 70.5312C66.2902 70.5327 65.8023 70.4364 65.3472 70.2481C64.8921 70.0598 64.4789 69.783 64.1314 69.434L58.2912 63.5938L63.5938 58.2912L69.434 64.1314C69.9579 64.6559 70.3146 65.3239 70.4591 66.051C70.6035 66.7781 70.5291 67.5318 70.2454 68.2167C69.9617 68.9016 69.4813 69.487 68.865 69.8989C68.2486 70.3109 67.524 70.531 66.7827 70.5312Z" fill="#BCAAA4"/>
<path d="M27.75 41.625C27.75 44.3692 28.5638 47.0518 30.0884 49.3335C31.613 51.6153 33.7799 53.3937 36.3153 54.4438C38.8506 55.494 41.6404 55.7688 44.3319 55.2334C47.0234 54.698 49.4957 53.3766 51.4361 51.4361C53.3766 49.4957 54.698 47.0234 55.2334 44.3319C55.7688 41.6404 55.494 38.8506 54.4438 36.3153C53.3937 33.7799 51.6153 31.613 49.3335 30.0884C47.0518 28.5638 44.3692 27.75 41.625 27.75C37.9463 27.754 34.4195 29.2171 31.8183 31.8183C29.2171 34.4195 27.754 37.9463 27.75 41.625ZM34.6875 32.397C36.0529 31.3595 37.6332 30.6409 39.3125 30.2938V52.9562C37.6334 52.6098 36.0531 51.892 34.6875 50.8553V32.397ZM30.0625 41.625C30.0633 39.1326 30.875 36.7081 32.375 34.7176V48.5324C30.875 46.5419 30.0633 44.1174 30.0625 41.625ZM41.625 30.0625C43.6566 30.0632 45.6516 30.6031 47.4062 31.6269V51.6231C45.6516 52.6469 43.6566 53.1868 41.625 53.1875V30.0625ZM53.1875 41.625C53.1879 43.1608 52.8812 44.6812 52.2855 46.0967C51.6898 47.5123 50.8171 48.7945 49.7188 49.8679V33.3821C50.8171 34.4555 51.6898 35.7377 52.2855 37.1533C52.8812 38.5688 53.1879 40.0892 53.1875 41.625Z" fill="#BCAAA4"/>
<path d="M8.09375 8.09375H17.3438V10.4062H8.09375V8.09375Z" fill="#BCAAA4"/>
<path d="M5.78125 12.7188H17.3438V15.0312H5.78125V12.7188Z" fill="#BCAAA4"/>
<path d="M5.78125 17.3438H17.3438V19.6562H5.78125V17.3438Z" fill="#BCAAA4"/>
<path d="M24.2812 65.9062H40.4688V68.2188H24.2812V65.9062Z" fill="#BCAAA4"/>
<path d="M42.7812 65.9062H45.0938V68.2188H42.7812V65.9062Z" fill="#BCAAA4"/>
<path d="M24.2812 61.2812H40.4688V63.5938H24.2812V61.2812Z" fill="#BCAAA4"/>
<path d="M42.7812 61.2812H45.0938V63.5938H42.7812V61.2812Z" fill="#BCAAA4"/>
</svg>
