<svg width="74" height="74" viewBox="0 0 74 74" fill="none" xmlns="http://www.w3.org/2000/svg">
<rect width="74" height="74" fill="#302E38"/>
<path d="M21.5735 48.1893L23.2224 48.7882C23.4121 49.3248 23.6329 49.8498 23.8837 50.3607L23.2409 52.2743C23.1731 52.478 23.1634 52.6965 23.2128 52.9054C23.2622 53.1144 23.3688 53.3054 23.5207 53.4571L27.4762 57.4127C27.6275 57.5652 27.8185 57.6723 28.0276 57.7217C28.2367 57.7712 28.4554 57.7611 28.659 57.6925L30.5726 57.0542C31.0835 57.305 31.6086 57.5259 32.1451 57.7156L32.7441 59.3644C32.8252 59.5875 32.9731 59.7801 33.1675 59.9162C33.362 60.0523 33.5936 60.1253 33.8309 60.1252H40.1603C40.3976 60.1253 40.6292 60.0523 40.8237 59.9162C41.0181 59.7801 41.166 59.5875 41.2471 59.3644L41.8461 57.7156C42.3826 57.5259 42.9077 57.305 43.4186 57.0542L45.3322 57.6925C45.5358 57.7611 45.7545 57.7712 45.9636 57.7217C46.1727 57.6723 46.3637 57.5652 46.515 57.4127L50.4705 53.4571C50.624 53.3064 50.7323 53.1158 50.7834 52.9068C50.8345 52.6979 50.8262 52.4788 50.7596 52.2743L50.1214 50.3607C50.3722 49.8498 50.593 49.3248 50.7827 48.7882L52.4315 48.1893C52.6546 48.1081 52.8472 47.9602 52.9833 47.7658C53.1194 47.5714 53.1924 47.3397 53.1924 47.1024V40.7731C53.1924 40.5357 53.1194 40.3041 52.9833 40.1097C52.8472 39.9152 52.6546 39.7674 52.4315 39.6862L50.7827 39.0873C50.593 38.5507 50.3722 38.0256 50.1214 37.5148L50.7596 35.6012C50.8274 35.3975 50.8371 35.1789 50.7877 34.97C50.7382 34.7611 50.6316 34.5701 50.4798 34.4183L46.5243 30.4628C46.3726 30.3093 46.181 30.2013 45.9711 30.151C45.7613 30.1008 45.5415 30.1102 45.3368 30.1784L43.4232 30.8166C42.9123 30.5658 42.3873 30.345 41.8507 30.1552L41.2518 28.5064C41.1706 28.2834 41.0227 28.0907 40.8283 27.9546C40.6339 27.8185 40.4022 27.7455 40.1649 27.7456H33.8356C33.5982 27.7455 33.3666 27.8185 33.1722 27.9546C32.9777 28.0907 32.8299 28.2834 32.7487 28.5064L32.1498 30.1552C31.6132 30.345 31.0881 30.5658 30.5773 30.8166L28.6637 30.1784C28.46 30.1106 28.2414 30.1009 28.0325 30.1503C27.8236 30.1997 27.6326 30.3063 27.4808 30.4582L23.5253 34.4137C23.3718 34.5654 23.2638 34.757 23.2135 34.9668C23.1633 35.1767 23.1727 35.3964 23.2409 35.6012L23.8791 37.5148C23.6283 38.0256 23.4075 38.5507 23.2177 39.0873L21.5689 39.6862C21.3459 39.7674 21.1532 39.9152 21.0171 40.1097C20.881 40.3041 20.808 40.5357 20.8081 40.7731V47.1024C20.8084 47.3403 20.882 47.5723 21.019 47.7668C21.156 47.9613 21.3496 48.1088 21.5735 48.1893ZM23.1252 41.5824L24.5405 41.0691C24.7086 41.0078 24.8603 40.9084 24.9835 40.7786C25.1067 40.6488 25.198 40.4921 25.2504 40.321C25.4812 39.572 25.7841 38.8471 26.1546 38.1565C26.2288 38.0179 26.2739 37.8656 26.2872 37.7089C26.3006 37.5522 26.2818 37.3945 26.2321 37.2454L25.6655 35.548L28.6093 32.6065L30.3067 33.173C30.4562 33.2228 30.6143 33.2413 30.7712 33.2274C30.9282 33.2134 31.0806 33.1674 31.219 33.0921C31.91 32.7215 32.6352 32.4187 33.3846 32.1879C33.5558 32.1355 33.7124 32.0442 33.8422 31.921C33.972 31.7978 34.0715 31.6461 34.1327 31.478L34.6449 30.0627H39.3555L39.8689 31.478C39.9301 31.6461 40.0296 31.7978 40.1594 31.921C40.2892 32.0442 40.4458 32.1355 40.617 32.1879C41.366 32.4187 42.0909 32.7216 42.7815 33.0921C42.92 33.1667 43.0723 33.212 43.229 33.2254C43.3857 33.2387 43.5435 33.2197 43.6926 33.1696L45.39 32.603L48.3315 35.5468L47.7649 37.2442C47.7156 37.3938 47.6973 37.5518 47.7112 37.7087C47.7251 37.8656 47.7709 38.0179 47.8459 38.1565C48.2165 38.8475 48.5193 39.5727 48.75 40.3221C48.8024 40.4933 48.8938 40.6499 49.017 40.7797C49.1402 40.9095 49.2918 41.009 49.46 41.0702L50.8752 41.5824V46.293L49.46 46.8064C49.2918 46.8676 49.1402 46.9671 49.017 47.0969C48.8938 47.2267 48.8024 47.3833 48.75 47.5545C48.5192 48.3035 48.2164 49.0284 47.8459 49.719C47.7717 49.8576 47.7265 50.0099 47.7132 50.1666C47.6999 50.3232 47.7187 50.4809 47.7684 50.6301L48.335 52.3275L45.3911 55.269L43.6938 54.7024C43.5442 54.6531 43.3861 54.6348 43.2293 54.6487C43.0724 54.6626 42.92 54.7084 42.7815 54.7834C42.0905 55.154 41.3652 55.4568 40.6158 55.6875C40.4447 55.7399 40.2881 55.8313 40.1582 55.9545C40.0284 56.0777 39.929 56.2293 39.8677 56.3975L39.3555 57.8127H34.6449L34.1316 56.3975C34.0703 56.2293 33.9709 56.0777 33.8411 55.9545C33.7113 55.8313 33.5546 55.7399 33.3835 55.6875C32.6345 55.4567 31.9096 55.1539 31.219 54.7834C31.0804 54.7092 30.9281 54.664 30.7714 54.6507C30.6147 54.6374 30.457 54.6562 30.3079 54.7059L28.6105 55.2725L25.669 52.3286L26.2355 50.6313C26.2849 50.4817 26.3032 50.3236 26.2893 50.1668C26.2753 50.0099 26.2295 49.8575 26.1546 49.719C25.784 49.028 25.4812 48.3027 25.2504 47.5533C25.198 47.3822 25.1067 47.2256 24.9835 47.0957C24.8603 46.9659 24.7086 46.8665 24.5405 46.8052L23.1252 46.293V41.5824Z" fill="#B39DDB"/>
<path d="M37 53.1875C38.8295 53.1875 40.6179 52.645 42.139 51.6286C43.6602 50.6122 44.8458 49.1675 45.5459 47.4773C46.246 45.7871 46.4292 43.9272 46.0723 42.1329C45.7154 40.3386 44.8344 38.6904 43.5407 37.3968C42.2471 36.1031 40.5989 35.2222 38.8046 34.8652C37.0103 34.5083 35.1504 34.6915 33.4602 35.3916C31.77 36.0917 30.3253 37.2773 29.3089 38.7985C28.2925 40.3196 27.75 42.108 27.75 43.9375C27.7528 46.3899 28.7282 48.7411 30.4623 50.4752C32.1964 52.2093 34.5476 53.1847 37 53.1875ZM37 37C38.3721 37 39.7134 37.4069 40.8543 38.1692C41.9951 38.9315 42.8843 40.015 43.4094 41.2826C43.9345 42.5503 44.0719 43.9452 43.8042 45.2909C43.5365 46.6367 42.8758 47.8728 41.9056 48.8431C40.9353 49.8133 39.6992 50.474 38.3534 50.7417C37.0077 51.0094 35.6128 50.872 34.3451 50.3469C33.0775 49.8218 31.994 48.9326 31.2317 47.7918C30.4694 46.6509 30.0625 45.3096 30.0625 43.9375C30.0643 42.0981 30.7958 40.3346 32.0965 39.034C33.3971 37.7333 35.1606 37.0018 37 37Z" fill="#B39DDB"/>
<path d="M67.0625 4.625H6.9375C5.40478 4.62684 3.93536 5.23652 2.85157 6.32032C1.76777 7.40411 1.15809 8.87353 1.15625 10.4062V63.5938C1.15809 65.1265 1.76777 66.5959 2.85157 67.6797C3.93536 68.7635 5.40478 69.3732 6.9375 69.375H67.0625C68.5952 69.3732 70.0646 68.7635 71.1484 67.6797C72.2322 66.5959 72.8419 65.1265 72.8438 63.5938V10.4062C72.8419 8.87353 72.2322 7.40411 71.1484 6.32032C70.0646 5.23652 68.5952 4.62684 67.0625 4.625ZM6.9375 6.9375H67.0625C67.9825 6.9375 68.8648 7.30296 69.5153 7.95347C70.1658 8.60399 70.5312 9.48628 70.5312 10.4062V18.5H3.46875V10.4062C3.46875 9.48628 3.83421 8.60399 4.48472 7.95347C5.13524 7.30296 6.01753 6.9375 6.9375 6.9375ZM67.0625 67.0625H6.9375C6.01753 67.0625 5.13524 66.697 4.48472 66.0465C3.83421 65.396 3.46875 64.5137 3.46875 63.5938V20.8125H70.5312V63.5938C70.5312 64.5137 70.1658 65.396 69.5153 66.0465C68.8648 66.697 67.9825 67.0625 67.0625 67.0625Z" fill="#B39DDB"/>
<path d="M9.25 16.1875C9.93605 16.1875 10.6067 15.9841 11.1771 15.6029C11.7476 15.2218 12.1922 14.68 12.4547 14.0462C12.7172 13.4124 12.7859 12.7149 12.6521 12.042C12.5183 11.3692 12.1879 10.7511 11.7028 10.266C11.2177 9.78086 10.5996 9.4505 9.92672 9.31665C9.25385 9.18281 8.5564 9.2515 7.92257 9.51404C7.28874 9.77659 6.74699 10.2212 6.36584 10.7916C5.98469 11.3621 5.78125 12.0327 5.78125 12.7188C5.78125 13.6387 6.14671 14.521 6.79722 15.1715C7.44774 15.822 8.33003 16.1875 9.25 16.1875ZM9.25 11.5625C9.47868 11.5625 9.70223 11.6303 9.89238 11.7574C10.0825 11.8844 10.2307 12.065 10.3182 12.2763C10.4057 12.4876 10.4286 12.72 10.384 12.9443C10.3394 13.1686 10.2293 13.3746 10.0676 13.5363C9.90589 13.698 9.69986 13.8082 9.47557 13.8528C9.25128 13.8974 9.0188 13.8745 8.80752 13.787C8.59625 13.6995 8.41566 13.5513 8.28861 13.3611C8.16156 13.171 8.09375 12.9474 8.09375 12.7188C8.09375 12.4121 8.21557 12.118 8.43241 11.9012C8.64925 11.6843 8.94334 11.5625 9.25 11.5625Z" fill="#B39DDB"/>
<path d="M17.3438 16.1875C18.0298 16.1875 18.7005 15.9841 19.2709 15.6029C19.8413 15.2218 20.2859 14.68 20.5485 14.0462C20.811 13.4124 20.8797 12.7149 20.7458 12.042C20.612 11.3692 20.2816 10.7511 19.7965 10.266C19.3114 9.78086 18.6933 9.4505 18.0205 9.31665C17.3476 9.18281 16.6501 9.2515 16.0163 9.51404C15.3825 9.77659 14.8407 10.2212 14.4596 10.7916C14.0784 11.3621 13.875 12.0327 13.875 12.7188C13.875 13.6387 14.2405 14.521 14.891 15.1715C15.5415 15.822 16.4238 16.1875 17.3438 16.1875ZM17.3438 11.5625C17.5724 11.5625 17.796 11.6303 17.9861 11.7574C18.1763 11.8844 18.3245 12.065 18.412 12.2763C18.4995 12.4876 18.5224 12.72 18.4778 12.9443C18.4332 13.1686 18.323 13.3746 18.1613 13.5363C17.9996 13.698 17.7936 13.8082 17.5693 13.8528C17.345 13.8974 17.1125 13.8745 16.9013 13.787C16.69 13.6995 16.5094 13.5513 16.3824 13.3611C16.2553 13.171 16.1875 12.9474 16.1875 12.7188C16.1875 12.4121 16.3093 12.118 16.5262 11.9012C16.743 11.6843 17.0371 11.5625 17.3438 11.5625Z" fill="#B39DDB"/>
<path d="M25.4375 16.1875C26.1236 16.1875 26.7942 15.9841 27.3646 15.6029C27.9351 15.2218 28.3797 14.68 28.6422 14.0462C28.9047 13.4124 28.9734 12.7149 28.8396 12.042C28.7058 11.3692 28.3754 10.7511 27.8903 10.266C27.4052 9.78086 26.7871 9.4505 26.1142 9.31665C25.4413 9.18281 24.7439 9.2515 24.1101 9.51404C23.4762 9.77659 22.9345 10.2212 22.5533 10.7916C22.1722 11.3621 21.9688 12.0327 21.9688 12.7188C21.9688 13.6387 22.3342 14.521 22.9847 15.1715C23.6352 15.822 24.5175 16.1875 25.4375 16.1875ZM25.4375 11.5625C25.6662 11.5625 25.8897 11.6303 26.0799 11.7574C26.27 11.8844 26.4182 12.065 26.5057 12.2763C26.5932 12.4876 26.6161 12.72 26.5715 12.9443C26.5269 13.1686 26.4168 13.3746 26.2551 13.5363C26.0934 13.698 25.8874 13.8082 25.6631 13.8528C25.4388 13.8974 25.2063 13.8745 24.995 13.787C24.7837 13.6995 24.6032 13.5513 24.4761 13.3611C24.3491 13.171 24.2812 12.9474 24.2812 12.7188C24.2812 12.4121 24.4031 12.118 24.6199 11.9012C24.8367 11.6843 25.1308 11.5625 25.4375 11.5625Z" fill="#B39DDB"/>
<path d="M64.75 16.1875C65.2651 16.1855 65.7731 16.0669 66.2358 15.8406L67.4013 17.0061L69.0362 15.3712L67.8719 14.2045C68.0982 13.7418 68.2168 13.2338 68.2188 12.7188C68.2188 12.0327 68.0153 11.3621 67.6342 10.7916C67.253 10.2212 66.7113 9.77659 66.0774 9.51404C65.4436 9.2515 64.7462 9.18281 64.0733 9.31665C63.4004 9.4505 62.7823 9.78086 62.2972 10.266C61.8121 10.7511 61.4817 11.3692 61.3479 12.042C61.2141 12.7149 61.2828 13.4124 61.5453 14.0462C61.8078 14.68 62.2524 15.2218 62.8229 15.6029C63.3933 15.9841 64.0639 16.1875 64.75 16.1875ZM64.75 11.5625C64.9787 11.5625 65.2022 11.6303 65.3924 11.7574C65.5825 11.8844 65.7307 12.065 65.8182 12.2763C65.9057 12.4876 65.9286 12.72 65.884 12.9443C65.8394 13.1686 65.7293 13.3746 65.5676 13.5363C65.4059 13.698 65.1999 13.8082 64.9756 13.8528C64.7513 13.8974 64.5188 13.8745 64.3075 13.787C64.0962 13.6995 63.9157 13.5513 63.7886 13.3611C63.6616 13.171 63.5938 12.9474 63.5938 12.7188C63.5938 12.4121 63.7156 12.118 63.9324 11.9012C64.1492 11.6843 64.4433 11.5625 64.75 11.5625Z" fill="#B39DDB"/>
<path d="M34.6875 16.1875H55.5C56.42 16.1875 57.3023 15.822 57.9528 15.1715C58.6033 14.521 58.9688 13.6387 58.9688 12.7188C58.9688 11.7988 58.6033 10.9165 57.9528 10.266C57.3023 9.61546 56.42 9.25 55.5 9.25H34.6875C33.7675 9.25 32.8852 9.61546 32.2347 10.266C31.5842 10.9165 31.2188 11.7988 31.2188 12.7188C31.2188 13.6387 31.5842 14.521 32.2347 15.1715C32.8852 15.822 33.7675 16.1875 34.6875 16.1875ZM34.6875 11.5625H55.5C55.8067 11.5625 56.1008 11.6843 56.3176 11.9012C56.5344 12.118 56.6562 12.4121 56.6562 12.7188C56.6562 13.0254 56.5344 13.3195 56.3176 13.5363C56.1008 13.7532 55.8067 13.875 55.5 13.875H34.6875C34.3808 13.875 34.0867 13.7532 33.8699 13.5363C33.6531 13.3195 33.5312 13.0254 33.5312 12.7188C33.5312 12.4121 33.6531 12.118 33.8699 11.9012C34.0867 11.6843 34.3808 11.5625 34.6875 11.5625Z" fill="#B39DDB"/>
<path d="M67.0625 23.125H6.9375C6.63084 23.125 6.33675 23.2468 6.11991 23.4637C5.90307 23.6805 5.78125 23.9746 5.78125 24.2812V63.5938C5.78125 63.9004 5.90307 64.1945 6.11991 64.4113C6.33675 64.6282 6.63084 64.75 6.9375 64.75H67.0625C67.3692 64.75 67.6633 64.6282 67.8801 64.4113C68.0969 64.1945 68.2188 63.9004 68.2188 63.5938V24.2812C68.2188 23.9746 68.0969 23.6805 67.8801 23.4637C67.6633 23.2468 67.3692 23.125 67.0625 23.125ZM65.9062 62.4375H8.09375V25.4375H65.9062V62.4375Z" fill="#B39DDB"/>
</svg>
