<svg width="74" height="74" viewBox="0 0 74 74" fill="none" xmlns="http://www.w3.org/2000/svg">
<path d="M25.4375 58.9688H30.0625C30.3692 58.9688 30.6633 58.8469 30.8801 58.6301C31.0969 58.4133 31.2188 58.1192 31.2188 57.8125V50.875C31.2188 50.5683 31.0969 50.2742 30.8801 50.0574C30.6633 49.8406 30.3692 49.7188 30.0625 49.7188H25.4375C25.1308 49.7188 24.8367 49.8406 24.6199 50.0574C24.4031 50.2742 24.2812 50.5683 24.2812 50.875V57.8125C24.2812 58.1192 24.4031 58.4133 24.6199 58.6301C24.8367 58.8469 25.1308 58.9688 25.4375 58.9688ZM26.5938 52.0312H28.9062V56.6562H26.5938V52.0312Z" fill="#FFCC80"/>
<path d="M39.3125 58.9688C39.6192 58.9688 39.9133 58.8469 40.1301 58.6301C40.3469 58.4133 40.4688 58.1192 40.4688 57.8125V46.25C40.4688 45.9433 40.3469 45.6492 40.1301 45.4324C39.9133 45.2156 39.6192 45.0938 39.3125 45.0938H34.6875C34.3808 45.0938 34.0867 45.2156 33.8699 45.4324C33.6531 45.6492 33.5312 45.9433 33.5312 46.25V57.8125C33.5312 58.1192 33.6531 58.4133 33.8699 58.6301C34.0867 58.8469 34.3808 58.9688 34.6875 58.9688H39.3125ZM35.8438 47.4062H38.1562V56.6562H35.8438V47.4062Z" fill="#FFCC80"/>
<path d="M48.5625 40.4688H43.9375C43.6308 40.4688 43.3367 40.5906 43.1199 40.8074C42.9031 41.0242 42.7812 41.3183 42.7812 41.625V57.8125C42.7812 58.1192 42.9031 58.4133 43.1199 58.6301C43.3367 58.8469 43.6308 58.9688 43.9375 58.9688H48.5625C48.8692 58.9688 49.1633 58.8469 49.3801 58.6301C49.5969 58.4133 49.7188 58.1192 49.7188 57.8125V41.625C49.7188 41.3183 49.5969 41.0242 49.3801 40.8074C49.1633 40.5906 48.8692 40.4688 48.5625 40.4688ZM47.4062 56.6562H45.0938V42.7812H47.4062V56.6562Z" fill="#FFCC80"/>
<path d="M53.1875 72.8438C54.7202 72.8419 56.1896 72.2322 57.2734 71.1484C58.3572 70.0646 58.9669 68.5952 58.9688 67.0625V6.9375C58.9669 5.40478 58.3572 3.93536 57.2734 2.85157C56.1896 1.76777 54.7202 1.15809 53.1875 1.15625H20.8125C19.2798 1.15809 17.8104 1.76777 16.7266 2.85157C15.6428 3.93536 15.0331 5.40478 15.0312 6.9375V67.0625C15.0331 68.5952 15.6428 70.0646 16.7266 71.1484C17.8104 72.2322 19.2798 72.8419 20.8125 72.8438H53.1875ZM17.3438 67.0625V6.9375C17.3438 6.01753 17.7092 5.13524 18.3597 4.48472C19.0102 3.83421 19.8925 3.46875 20.8125 3.46875H53.1875C54.1075 3.46875 54.9898 3.83421 55.6403 4.48472C56.2908 5.13524 56.6562 6.01753 56.6562 6.9375V67.0625C56.6562 67.9825 56.2908 68.8648 55.6403 69.5153C54.9898 70.1658 54.1075 70.5312 53.1875 70.5312H20.8125C19.8925 70.5312 19.0102 70.1658 18.3597 69.5153C17.7092 68.8648 17.3438 67.9825 17.3438 67.0625Z" fill="#FFCC80"/>
<path d="M50.875 68.2188C51.795 68.2188 52.6773 67.8533 53.3278 67.2028C53.9783 66.5523 54.3438 65.67 54.3438 64.75V9.25C54.3438 8.33003 53.9783 7.44774 53.3278 6.79722C52.6773 6.14671 51.795 5.78125 50.875 5.78125H48.5625C48.2558 5.78125 47.9617 5.90307 47.7449 6.11991C47.5281 6.33675 47.4062 6.63084 47.4062 6.9375V9.25C47.4062 9.55666 47.2844 9.85075 47.0676 10.0676C46.8508 10.2844 46.5567 10.4062 46.25 10.4062H27.75C27.4433 10.4062 27.1492 10.2844 26.9324 10.0676C26.7156 9.85075 26.5938 9.55666 26.5938 9.25V6.9375C26.5938 6.63084 26.4719 6.33675 26.2551 6.11991C26.0383 5.90307 25.7442 5.78125 25.4375 5.78125H23.125C22.205 5.78125 21.3227 6.14671 20.6722 6.79722C20.0217 7.44774 19.6563 8.33003 19.6562 9.25V64.75C19.6563 65.67 20.0217 66.5523 20.6722 67.2028C21.3227 67.8533 22.205 68.2188 23.125 68.2188H50.875ZM21.9688 64.75V9.25C21.9688 8.94334 22.0906 8.64925 22.3074 8.43241C22.5242 8.21557 22.8183 8.09375 23.125 8.09375H24.2812V9.25C24.2812 10.17 24.6467 11.0523 25.2972 11.7028C25.9477 12.3533 26.83 12.7188 27.75 12.7188H46.25C47.17 12.7188 48.0523 12.3533 48.7028 11.7028C49.3533 11.0523 49.7188 10.17 49.7188 9.25V8.09375H50.875C51.1817 8.09375 51.4758 8.21557 51.6926 8.43241C51.9094 8.64925 52.0312 8.94334 52.0312 9.25V64.75C52.0312 65.0567 51.9094 65.3508 51.6926 65.5676C51.4758 65.7844 51.1817 65.9062 50.875 65.9062H23.125C22.8183 65.9062 22.5242 65.7844 22.3074 65.5676C22.0906 65.3508 21.9688 65.0567 21.9688 64.75Z" fill="#FFCC80"/>
<path d="M28.9062 5.78125H40.4688V8.09375H28.9062V5.78125Z" fill="#FFCC80"/>
<path d="M42.7812 5.78125H45.0938V8.09375H42.7812V5.78125Z" fill="#FFCC80"/>
<path d="M30.0625 61.2812H43.9375V63.5938H30.0625V61.2812Z" fill="#FFCC80"/>
<path d="M37 40.4688C39.5155 40.4688 41.9746 39.7228 44.0662 38.3253C46.1577 36.9277 47.7879 34.9413 48.7506 32.6173C49.7132 30.2932 49.9651 27.7359 49.4744 25.2687C48.9836 22.8015 47.7723 20.5352 45.9935 18.7565C44.2148 16.9777 41.9485 15.7664 39.4813 15.2756C37.0141 14.7849 34.4568 15.0368 32.1327 15.9994C29.8087 16.9621 27.8223 18.5923 26.4247 20.6838C25.0272 22.7754 24.2812 25.2345 24.2812 27.75C24.2852 31.122 25.6265 34.3548 28.0109 36.7391C30.3952 39.1235 33.628 40.4648 37 40.4688ZM26.862 30.0625H36.5213L42.8263 36.3675C41.4262 37.3162 39.8157 37.9088 38.1346 38.094C36.4535 38.2791 34.7526 38.0511 33.1795 37.4299C31.6065 36.8086 30.2089 35.8128 29.1079 34.5289C28.007 33.2451 27.2361 31.7119 26.862 30.0625ZM47.4062 27.75C47.4057 30.3915 46.3956 32.9329 44.5827 34.854L38.1562 28.4276V17.412C40.6985 17.6988 43.0463 18.9109 44.7522 20.8175C46.4581 22.7241 47.4028 25.1917 47.4062 27.75ZM35.8438 17.412V27.75H26.5938C26.5972 25.1917 27.5419 22.7241 29.2478 20.8175C30.9537 18.9109 33.3015 17.6988 35.8438 17.412Z" fill="#FFCC80"/>
</svg>
