<svg width="74" height="74" viewBox="0 0 74 74" fill="none" xmlns="http://www.w3.org/2000/svg">
<path d="M71.6875 33.5312H67.0625V2.3125C67.0625 1.67425 66.5445 1.15625 65.9062 1.15625H49.7188C49.2747 1.15625 48.8689 1.41063 48.677 1.81184C48.4839 2.21191 48.5382 2.68828 48.8169 3.03516L52.8626 8.09375L48.8157 13.1523C48.5382 13.4992 48.4839 13.9744 48.6758 14.3757C48.8689 14.7769 49.2747 15.0312 49.7188 15.0312H64.75V33.5312H57.8125C57.1743 33.5312 56.6562 34.0493 56.6562 34.6875V42.7812H39.3125C38.6743 42.7812 38.1562 43.2993 38.1562 43.9375V52.0312H20.8125C20.1742 52.0312 19.6562 52.5493 19.6562 53.1875V61.2812H2.3125C1.67425 61.2812 1.15625 61.7993 1.15625 62.4375V71.6875C1.15625 72.3258 1.67425 72.8438 2.3125 72.8438H71.6875C72.3258 72.8438 72.8438 72.3258 72.8438 71.6875V34.6875C72.8438 34.0493 72.3258 33.5312 71.6875 33.5312ZM52.1249 12.7188L55.2468 8.81641C55.5844 8.39437 55.5844 7.79428 55.2468 7.37225L52.1249 3.46875H64.75V12.7188H52.1249ZM70.5312 70.5312H3.46875V63.5938H20.8125C21.4508 63.5938 21.9688 63.0757 21.9688 62.4375V54.3438H39.3125C39.9507 54.3438 40.4688 53.8257 40.4688 53.1875V45.0938H57.8125C58.4507 45.0938 58.9688 44.5757 58.9688 43.9375V35.8438H70.5312V70.5312Z" fill="#FFAB91"/>
<path d="M9.25 58.9688H16.1875C16.8258 58.9688 17.3438 58.4507 17.3438 57.8125V55.5C17.3438 53.9946 16.3737 52.7227 15.0312 52.244V37H17.3438V43.9375V48.5625C17.3438 49.2007 17.8617 49.7188 18.5 49.7188H25.4375C26.0758 49.7188 26.5938 49.2007 26.5938 48.5625V46.25C26.5938 44.7446 25.6237 43.4727 24.2812 42.994V33.5312C24.2812 31.6188 22.7249 30.0625 20.8125 30.0625H17.3438V26.5938H26.5938C27.232 26.5938 27.75 26.0758 27.75 25.4375V21.9688C27.75 21.3305 27.232 20.8125 26.5938 20.8125H17.3438V19.6562C17.3438 17.7438 15.7874 16.1875 13.875 16.1875H9.25C8.61175 16.1875 8.09375 16.7055 8.09375 17.3438V33.5312V53.1875V57.8125C8.09375 58.4507 8.61175 58.9688 9.25 58.9688ZM15.0312 56.6562H10.4062V54.3438H13.875C14.5121 54.3438 15.0312 54.8629 15.0312 55.5V56.6562ZM12.7188 52.0312H10.4062V36.7873C10.7693 36.9167 11.1555 37 11.5625 37H12.7188V52.0312ZM24.2812 47.4062H19.6562V45.0938H23.125C23.7621 45.0938 24.2812 45.6129 24.2812 46.25V47.4062ZM25.4375 24.2812H13.875V23.125H25.4375V24.2812ZM13.875 18.5C14.5121 18.5 15.0312 19.0192 15.0312 19.6562V20.8125H12.7188C12.0805 20.8125 11.5625 21.3305 11.5625 21.9688V25.4375C11.5625 26.0758 12.0805 26.5938 12.7188 26.5938H15.0312V30.0625H10.4062V18.5H13.875ZM10.4062 32.375H16.1875H20.8125C21.4496 32.375 21.9688 32.8942 21.9688 33.5312V42.7812H19.6562V35.8438C19.6562 35.2055 19.1383 34.6875 18.5 34.6875H11.5625C10.9254 34.6875 10.4062 34.1683 10.4062 33.5312V32.375Z" fill="#FFAB91"/>
<path d="M11.5625 13.875H13.875C15.7874 13.875 17.3438 12.3187 17.3438 10.4062V5.78125C17.3438 3.86881 15.7874 2.3125 13.875 2.3125H11.5625C9.65006 2.3125 8.09375 3.86881 8.09375 5.78125V10.4062C8.09375 12.3187 9.65006 13.875 11.5625 13.875ZM10.4062 5.78125C10.4062 5.14416 10.9254 4.625 11.5625 4.625H13.875C14.5121 4.625 15.0312 5.14416 15.0312 5.78125V10.4062C15.0312 11.0433 14.5121 11.5625 13.875 11.5625H11.5625C10.9254 11.5625 10.4062 11.0433 10.4062 10.4062V5.78125Z" fill="#FFAB91"/>
</svg>
