<svg width="74" height="74" viewBox="0 0 74 74" fill="none" xmlns="http://www.w3.org/2000/svg">
<path d="M71.6875 38.1562H2.3125C2.00584 38.1562 1.71175 38.2781 1.49491 38.4949C1.27807 38.7117 1.15625 39.0058 1.15625 39.3125V71.6875C1.15625 71.9942 1.27807 72.2883 1.49491 72.5051C1.71175 72.7219 2.00584 72.8438 2.3125 72.8438H71.6875C71.9942 72.8438 72.2883 72.7219 72.5051 72.5051C72.7219 72.2883 72.8438 71.9942 72.8438 71.6875V39.3125C72.8438 39.0058 72.7219 38.7117 72.5051 38.4949C72.2883 38.2781 71.9942 38.1562 71.6875 38.1562ZM70.5312 70.5312H3.46875V40.4688H70.5312V70.5312Z" fill="#80DEEA"/>
<path d="M6.9375 64.75H8.09375C8.70706 64.75 9.29526 64.9936 9.72893 65.4273C10.1626 65.861 10.4062 66.4492 10.4062 67.0625C10.4062 67.3692 10.5281 67.6633 10.7449 67.8801C10.9617 68.0969 11.2558 68.2188 11.5625 68.2188H62.4375C62.7442 68.2188 63.0383 68.0969 63.2551 67.8801C63.4719 67.6633 63.5938 67.3692 63.5938 67.0625C63.5938 66.4492 63.8374 65.861 64.2711 65.4273C64.7047 64.9936 65.2929 64.75 65.9062 64.75H67.0625C67.3692 64.75 67.6633 64.6282 67.8801 64.4113C68.0969 64.1945 68.2188 63.9004 68.2188 63.5938V47.4062C68.2188 47.0996 68.0969 46.8055 67.8801 46.5887C67.6633 46.3718 67.3692 46.25 67.0625 46.25H65.9062C65.2929 46.25 64.7047 46.0064 64.2711 45.5727C63.8374 45.139 63.5938 44.5508 63.5938 43.9375C63.5938 43.6308 63.4719 43.3367 63.2551 43.1199C63.0383 42.9031 62.7442 42.7812 62.4375 42.7812H11.5625C11.2558 42.7812 10.9617 42.9031 10.7449 43.1199C10.5281 43.3367 10.4062 43.6308 10.4062 43.9375C10.4062 44.5508 10.1626 45.139 9.72893 45.5727C9.29526 46.0064 8.70706 46.25 8.09375 46.25H6.9375C6.63084 46.25 6.33675 46.3718 6.11991 46.5887C5.90307 46.8055 5.78125 47.0996 5.78125 47.4062V63.5938C5.78125 63.9004 5.90307 64.1945 6.11991 64.4113C6.33675 64.6282 6.63084 64.75 6.9375 64.75ZM61.4269 45.0938C61.6848 46.0859 62.2643 46.9646 63.0748 47.5923C63.8853 48.22 64.8811 48.5612 65.9062 48.5625V62.4375C64.8811 62.4388 63.8853 62.78 63.0748 63.4077C62.2643 64.0354 61.6848 64.9141 61.4269 65.9062H44.2902C45.966 64.737 47.3348 63.1803 48.2799 61.3685C49.225 59.5567 49.7185 57.5435 49.7185 55.5C49.7185 53.4565 49.225 51.4433 48.2799 49.6315C47.3348 47.8197 45.966 46.263 44.2902 45.0938H61.4269ZM37 65.9062C34.9418 65.9062 32.9299 65.2959 31.2186 64.1525C29.5073 63.009 28.1735 61.3838 27.3859 59.4823C26.5983 57.5808 26.3922 55.4885 26.7937 53.4698C27.1952 51.4512 28.1863 49.597 29.6417 48.1417C31.097 46.6863 32.9512 45.6952 34.9698 45.2937C36.9885 44.8922 39.0808 45.0983 40.9823 45.8859C42.8838 46.6735 44.509 48.0073 45.6525 49.7186C46.7959 51.4299 47.4062 53.4418 47.4062 55.5C47.4032 58.259 46.3058 60.9041 44.3549 62.8549C42.4041 64.8058 39.759 65.9032 37 65.9062ZM8.09375 48.5625C9.11889 48.5612 10.1147 48.22 10.9252 47.5923C11.7357 46.9646 12.3152 46.0859 12.5731 45.0938H29.7156C28.0397 46.263 26.671 47.8197 25.7259 49.6315C24.7808 51.4433 24.2873 53.4565 24.2873 55.5C24.2873 57.5435 24.7808 59.5567 25.7259 61.3685C26.671 63.1803 28.0397 64.737 29.7156 65.9062H12.5731C12.3152 64.9141 11.7357 64.0354 10.9252 63.4077C10.1147 62.78 9.11889 62.4388 8.09375 62.4375V48.5625Z" fill="#80DEEA"/>
<path d="M18.5 54.3438H11.5625V56.6562H18.5V54.3438Z" fill="#80DEEA"/>
<path d="M62.4375 54.3438H55.5V56.6562H62.4375V54.3438Z" fill="#80DEEA"/>
<path d="M37 52.0312C37.3067 52.0312 37.6008 52.1531 37.8176 52.3699C38.0344 52.5867 38.1562 52.8808 38.1562 53.1875H40.4688C40.4658 52.4726 40.242 51.7761 39.8281 51.1933C39.4141 50.6105 38.8302 50.1698 38.1562 49.9315V48.5625H35.8438V49.9315C35.0729 50.203 34.423 50.7386 34.0092 51.4433C33.5954 52.1481 33.4443 52.9766 33.5828 53.782C33.7213 54.5875 34.1404 55.3179 34.7658 55.844C35.3913 56.3701 36.1827 56.6578 37 56.6562C37.2287 56.6562 37.4522 56.7241 37.6424 56.8511C37.8325 56.9782 37.9807 57.1587 38.0682 57.37C38.1557 57.5813 38.1786 57.8138 38.134 58.0381C38.0894 58.2624 37.9793 58.4684 37.8176 58.6301C37.6559 58.7918 37.4499 58.9019 37.2256 58.9465C37.0013 58.9911 36.7688 58.9682 36.5575 58.8807C36.3462 58.7932 36.1657 58.645 36.0386 58.4549C35.9116 58.2647 35.8438 58.0412 35.8438 57.8125H33.5312C33.5342 58.5274 33.758 59.2239 34.1719 59.8067C34.5859 60.3895 35.1698 60.8302 35.8438 61.0685V62.4375H38.1562V61.0685C38.9271 60.797 39.577 60.2614 39.9908 59.5567C40.4046 58.8519 40.5557 58.0234 40.4172 57.218C40.2787 56.4125 39.8596 55.6821 39.2342 55.156C38.6087 54.6299 37.8173 54.3422 37 54.3438C36.6933 54.3438 36.3992 54.2219 36.1824 54.0051C35.9656 53.7883 35.8438 53.4942 35.8438 53.1875C35.8438 52.8808 35.9656 52.5867 36.1824 52.3699C36.3992 52.1531 36.6933 52.0312 37 52.0312Z" fill="#80DEEA"/>
<path d="M54.3438 18.5C54.3438 15.0697 53.3266 11.7165 51.4208 8.86434C49.5151 6.01217 46.8063 3.78918 43.6372 2.47647C40.468 1.16376 36.9808 0.820301 33.6164 1.48951C30.2521 2.15873 27.1617 3.81056 24.7361 6.23612C22.3106 8.66169 20.6587 11.7521 19.9895 15.1164C19.3203 18.4808 19.6638 21.968 20.9765 25.1372C22.2892 28.3063 24.5122 31.0151 27.3643 32.9208C30.2165 34.8266 33.5697 35.8438 37 35.8438C41.5983 35.8386 46.0067 34.0096 49.2581 30.7581C52.5096 27.5067 54.3386 23.0983 54.3438 18.5ZM21.9688 18.5C21.9688 15.5271 22.8503 12.621 24.502 10.1491C26.1536 7.67722 28.5012 5.75062 31.2478 4.61294C33.9944 3.47526 37.0167 3.17759 39.9325 3.75758C42.8482 4.33756 45.5265 5.76915 47.6287 7.87131C49.7309 9.97347 51.1625 12.6518 51.7424 15.5676C52.3224 18.4833 52.0247 21.5056 50.8871 24.2522C49.7494 26.9988 47.8228 29.3464 45.3509 30.998C42.879 32.6497 39.9729 33.5313 37 33.5313C33.0149 33.5267 29.1943 31.9415 26.3764 29.1236C23.5585 26.3057 21.9733 22.4851 21.9688 18.5Z" fill="#80DEEA"/>
<path d="M41.625 26.5938H45.0938C45.4004 26.5938 45.6945 26.4719 45.9113 26.2551C46.1282 26.0383 46.25 25.7442 46.25 25.4375V20.8125C46.25 20.5058 46.1282 20.2117 45.9113 19.9949C45.6945 19.7781 45.4004 19.6562 45.0938 19.6562H43.9375V17.3438C43.9358 16.1276 43.6145 14.9332 43.0057 13.8803C42.3969 12.8275 41.522 11.9532 40.4688 11.3451V9.25C40.4688 8.33003 40.1033 7.44774 39.4528 6.79722C38.8023 6.14671 37.92 5.78125 37 5.78125C36.08 5.78125 35.1977 6.14671 34.5472 6.79722C33.8967 7.44774 33.5312 8.33003 33.5312 9.25V11.3451C32.478 11.9532 31.6031 12.8275 30.9943 13.8803C30.3855 14.9332 30.0642 16.1276 30.0625 17.3438V19.6562H28.9062C28.5996 19.6562 28.3055 19.7781 28.0887 19.9949C27.8718 20.2117 27.75 20.5058 27.75 20.8125V25.4375C27.75 25.7442 27.8718 26.0383 28.0887 26.2551C28.3055 26.4719 28.5996 26.5938 28.9062 26.5938H32.375C32.375 27.8204 32.8623 28.9968 33.7296 29.8641C34.597 30.7315 35.7734 31.2188 37 31.2188C38.2266 31.2188 39.403 30.7315 40.2704 29.8641C41.1377 28.9968 41.625 27.8204 41.625 26.5938ZM35.8438 9.25C35.8438 8.94334 35.9656 8.64925 36.1824 8.43241C36.3992 8.21557 36.6933 8.09375 37 8.09375C37.3067 8.09375 37.6008 8.21557 37.8176 8.43241C38.0344 8.64925 38.1562 8.94334 38.1562 9.25V10.5103C37.3917 10.3715 36.6083 10.3715 35.8438 10.5103V9.25ZM32.375 17.3438C32.375 16.1171 32.8623 14.9407 33.7296 14.0734C34.597 13.206 35.7734 12.7188 37 12.7188C38.2266 12.7188 39.403 13.206 40.2704 14.0734C41.1377 14.9407 41.625 16.1171 41.625 17.3438V19.6562H32.375V17.3438ZM30.0625 24.2812V21.9688H43.9375V24.2812H30.0625ZM34.6875 26.5938H39.3125C39.3125 27.2071 39.0689 27.7953 38.6352 28.2289C38.2015 28.6626 37.6133 28.9062 37 28.9062C36.3867 28.9062 35.7985 28.6626 35.3648 28.2289C34.9311 27.7953 34.6875 27.2071 34.6875 26.5938Z" fill="#80DEEA"/>
<path d="M12.719 1.15625H5.78149C5.47484 1.15625 5.18074 1.27807 4.9639 1.49491C4.74706 1.71175 4.62524 2.00584 4.62524 2.3125V19.6562H2.31274C2.08409 19.6563 1.86059 19.7241 1.67049 19.8512C1.48039 19.9782 1.33223 20.1588 1.24474 20.3701C1.15725 20.5813 1.13435 20.8137 1.17894 21.038C1.22354 21.2623 1.33362 21.4683 1.49527 21.63L8.43277 28.5675C8.6496 28.7842 8.94365 28.906 9.25024 28.906C9.55684 28.906 9.85088 28.7842 10.0677 28.5675L17.0052 21.63C17.1669 21.4683 17.2769 21.2623 17.3215 21.038C17.3661 20.8137 17.3432 20.5813 17.2557 20.3701C17.1683 20.1588 17.0201 19.9782 16.83 19.8512C16.6399 19.7241 16.4164 19.6563 16.1877 19.6562H13.8752V2.3125C13.8752 2.00584 13.7534 1.71175 13.5366 1.49491C13.3197 1.27807 13.0256 1.15625 12.719 1.15625ZM9.25024 26.1151L5.10393 21.9688H5.78149C6.08815 21.9688 6.38225 21.8469 6.59908 21.6301C6.81592 21.4133 6.93774 21.1192 6.93774 20.8125V3.46875H11.5627V20.8125C11.5627 21.1192 11.6846 21.4133 11.9014 21.6301C12.1182 21.8469 12.4123 21.9688 12.719 21.9688H13.3966L9.25024 26.1151Z" fill="#80DEEA"/>
<path d="M61.2815 28.9065H68.219C68.5256 28.9065 68.8197 28.7847 69.0366 28.5678C69.2534 28.351 69.3752 28.0569 69.3752 27.7502V10.4065H71.6877C71.9164 10.4064 72.1399 10.3386 72.33 10.2115C72.5201 10.0845 72.6683 9.90393 72.7557 9.69269C72.8432 9.48144 72.8661 9.24899 72.8215 9.02474C72.7769 8.80048 72.6669 8.59448 72.5052 8.43277L65.5677 1.49527C65.3509 1.27851 65.0568 1.15674 64.7502 1.15674C64.4436 1.15674 64.1496 1.27851 63.9328 1.49527L56.9953 8.43277C56.8336 8.59448 56.7235 8.80048 56.6789 9.02474C56.6343 9.24899 56.6572 9.48144 56.7447 9.69269C56.8322 9.90393 56.9804 10.0845 57.1705 10.2115C57.3606 10.3386 57.5841 10.4064 57.8127 10.4065H60.1252V27.7502C60.1252 28.0569 60.2471 28.351 60.4639 28.5678C60.6807 28.7847 60.9748 28.9065 61.2815 28.9065ZM64.7502 3.94768L68.8966 8.09399H68.219C67.9123 8.09399 67.6182 8.21581 67.4014 8.43265C67.1846 8.64949 67.0627 8.94358 67.0627 9.25024V26.594H62.4377V9.25024C62.4377 8.94358 62.3159 8.64949 62.0991 8.43265C61.8822 8.21581 61.5881 8.09399 61.2815 8.09399H60.6039L64.7502 3.94768Z" fill="#80DEEA"/>
</svg>
