<svg width="74" height="74" viewBox="0 0 74 74" fill="none" xmlns="http://www.w3.org/2000/svg">
<path d="M69.375 61.2814H68.2188V25.4376C68.2188 23.5252 66.6624 21.9689 64.75 21.9689H58.9468L61.2535 11.8193C61.3784 11.2643 61.0835 10.7012 60.5551 10.4896L37.4301 1.23961C37.1549 1.12977 36.8474 1.12977 36.5722 1.23961L13.4472 10.4896C12.9188 10.7012 12.6228 11.2643 12.7488 11.8193L15.0532 21.9689H9.25C7.33756 21.9689 5.78125 23.5252 5.78125 25.4376V61.2814H4.625C2.71256 61.2814 1.15625 62.8377 1.15625 64.7501V67.0626C1.15625 70.2504 3.74972 72.8439 6.9375 72.8439H67.0625C70.2503 72.8439 72.8438 70.2504 72.8438 67.0626V64.7501C72.8438 62.8377 71.2874 61.2814 69.375 61.2814ZM64.75 24.2814C65.3883 24.2814 65.9062 24.8005 65.9062 25.4376V61.2814H63.5938V27.7501C63.5938 27.1119 63.0769 26.5939 62.4375 26.5939H57.8946L58.4207 24.2814H64.75ZM12.7188 61.2814V28.9064H16.6303L18.5278 37.2568C18.5867 37.5123 18.7289 37.7401 18.9336 37.9031L36.2773 51.7781C36.4889 51.9469 36.7445 52.0314 37 52.0314C37.2555 52.0314 37.5111 51.9469 37.7227 51.7781L55.0664 37.9031C55.2711 37.7401 55.4133 37.5123 55.4723 37.2568L57.3697 28.9064H61.2812V61.2814H12.7188ZM43.9375 63.5939L42.2031 65.9064H31.7969L30.0625 63.5939H43.9375ZM37 3.55789L58.7791 12.2691L53.3066 36.3491L37 49.394L20.6934 36.3503L15.2209 12.2702L37 3.55789ZM8.09375 25.4376C8.09375 24.8005 8.61175 24.2814 9.25 24.2814H15.5793L16.1054 26.5939H11.5625C10.9231 26.5939 10.4062 27.1119 10.4062 27.7501V61.2814H8.09375V25.4376ZM70.5312 67.0626C70.5312 68.975 68.9749 70.5314 67.0625 70.5314H6.9375C5.02506 70.5314 3.46875 68.975 3.46875 67.0626V64.7501C3.46875 64.113 3.98675 63.5939 4.625 63.5939H27.1719L30.2938 67.7564C30.5111 68.0477 30.8545 68.2189 31.2188 68.2189H42.7812C43.1443 68.2189 43.4877 68.0477 43.7062 67.7564L46.8281 63.5939H69.375C70.0133 63.5939 70.5312 64.113 70.5312 64.7501V67.0626Z" fill="#59A8A8"/>
<path d="M32.375 34.6875H41.625C42.9003 34.6875 43.9375 33.6503 43.9375 32.375V23.125C43.9375 21.8497 42.9003 20.8125 41.625 20.8125V18.5C41.625 15.9493 39.5507 13.875 37 13.875C34.4493 13.875 32.375 15.9493 32.375 18.5V20.8125C31.0997 20.8125 30.0625 21.8497 30.0625 23.125V32.375C30.0625 33.6503 31.0997 34.6875 32.375 34.6875ZM34.6875 18.5C34.6875 17.2247 35.7247 16.1875 37 16.1875C38.2753 16.1875 39.3125 17.2247 39.3125 18.5V20.8125H34.6875V18.5ZM32.375 23.125H41.625L41.6262 32.375H32.375V23.125Z" fill="#59A8A8"/>
<path d="M38.1562 26.9152V25.4375H35.8438V26.9152C35.1558 27.3164 34.6875 28.0541 34.6875 28.9062C34.6875 30.1816 35.7247 31.2188 37 31.2188C38.2753 31.2188 39.3125 30.1816 39.3125 28.9062C39.3125 28.0541 38.8442 27.3164 38.1562 26.9152Z" fill="#59A8A8"/>
<path d="M17.3438 56.6562H56.6562V58.9688H17.3438V56.6562Z" fill="#59A8A8"/>
<path d="M23.1086 35.9248L36.2772 46.4594C36.4887 46.6282 36.7443 46.7126 36.9998 46.7126C37.2553 46.7126 37.5109 46.6282 37.7225 46.4594L50.891 35.9248C51.0956 35.7618 51.2379 35.534 51.2968 35.2785L56.0502 14.363C56.1751 13.8092 55.8802 13.245 55.3518 13.0334L37.4299 5.86461C37.1547 5.75477 36.8472 5.75477 36.572 5.86461L18.6501 13.0334C18.1217 13.245 17.8257 13.8092 17.9517 14.363L22.7051 35.2785C22.7629 35.5328 22.9051 35.7618 23.1086 35.9248ZM36.9998 8.18289L53.5758 14.8128L49.13 34.3708L36.9998 44.0752L24.8696 34.3708L20.4238 14.8128L36.9998 8.18289Z" fill="#59A8A8"/>
<path d="M17.3438 52.0312H31.2188V54.3438H17.3438V52.0312Z" fill="#59A8A8"/>
<path d="M42.7812 52.0312H56.6562V54.3438H42.7812V52.0312Z" fill="#59A8A8"/>
<path d="M49.7188 47.4062H56.6562V49.7188H49.7188V47.4062Z" fill="#59A8A8"/>
<path d="M17.3438 47.4062H24.2812V49.7188H17.3438V47.4062Z" fill="#59A8A8"/>
<path d="M17.3438 42.7812H19.6562V45.0938H17.3438V42.7812Z" fill="#59A8A8"/>
<path d="M54.3438 42.7812H56.6562V45.0938H54.3438V42.7812Z" fill="#59A8A8"/>
</svg>
