<svg width="74" height="74" viewBox="0 0 74 74" fill="none" xmlns="http://www.w3.org/2000/svg">
<path d="M27.75 38.1562C25.0058 38.1562 22.3232 38.97 20.0415 40.4946C17.7597 42.0192 15.9813 44.1862 14.9312 46.7215C13.881 49.2568 13.6062 52.0466 14.1416 54.7381C14.677 57.4296 15.9984 59.9019 17.9389 61.8424C19.8794 63.7828 22.3516 65.1043 25.0431 65.6396C27.7346 66.175 30.5244 65.9002 33.0597 64.8501C35.5951 63.7999 37.762 62.0215 39.2866 59.7398C40.8113 57.4581 41.625 54.7755 41.625 52.0312C41.621 48.3526 40.1579 44.8257 37.5567 42.2245C34.9555 39.6233 31.4287 38.1602 27.75 38.1562ZM27.75 63.5938C25.4632 63.5938 23.2277 62.9156 21.3262 61.6451C19.4248 60.3746 17.9428 58.5688 17.0676 56.456C16.1925 54.3433 15.9635 52.0184 16.4097 49.7755C16.8558 47.5326 17.957 45.4724 19.5741 43.8553C21.1911 42.2383 23.2514 41.1371 25.4943 40.6909C27.7372 40.2448 30.062 40.4738 32.1748 41.3489C34.2876 42.224 36.0934 43.706 37.3639 45.6075C38.6344 47.5089 39.3125 49.7444 39.3125 52.0312C39.3091 55.0968 38.0899 58.0358 35.9222 60.2035C33.7546 62.3711 30.8155 63.5904 27.75 63.5938Z" fill="#C5E1A5"/>
<path d="M28.9062 45.0938V42.7812H26.5938V45.0938C25.6738 45.0938 24.7915 45.4592 24.141 46.1097C23.4905 46.7602 23.125 47.6425 23.125 48.5625V49.7188C23.125 50.6387 23.4905 51.521 24.141 52.1715C24.7915 52.822 25.6738 53.1875 26.5938 53.1875V56.6562C26.2871 56.6562 25.993 56.5344 25.7762 56.3176C25.5593 56.1008 25.4375 55.8067 25.4375 55.5V54.3438H23.125V55.5C23.125 56.42 23.4905 57.3023 24.141 57.9528C24.7915 58.6033 25.6738 58.9688 26.5938 58.9688V61.2812H28.9062V58.9688C29.8262 58.9688 30.7085 58.6033 31.359 57.9528C32.0095 57.3023 32.375 56.42 32.375 55.5V54.3438C32.375 53.4238 32.0095 52.5415 31.359 51.891C30.7085 51.2405 29.8262 50.875 28.9062 50.875V47.4062C29.2129 47.4062 29.507 47.5281 29.7238 47.7449C29.9407 47.9617 30.0625 48.2558 30.0625 48.5625V49.7188H32.375V48.5625C32.375 47.6425 32.0095 46.7602 31.359 46.1097C30.7085 45.4592 29.8262 45.0938 28.9062 45.0938ZM30.0625 54.3438V55.5C30.0625 55.8067 29.9407 56.1008 29.7238 56.3176C29.507 56.5344 29.2129 56.6562 28.9062 56.6562V53.1875C29.2129 53.1875 29.507 53.3093 29.7238 53.5262C29.9407 53.743 30.0625 54.0371 30.0625 54.3438ZM26.5938 50.875C26.2871 50.875 25.993 50.7532 25.7762 50.5363C25.5593 50.3195 25.4375 50.0254 25.4375 49.7188V48.5625C25.4375 48.2558 25.5593 47.9617 25.7762 47.7449C25.993 47.5281 26.2871 47.4062 26.5938 47.4062V50.875Z" fill="#C5E1A5"/>
<path d="M58.9688 48.5625V49.7188H61.2812V48.5625C62.2012 48.5625 63.0835 48.197 63.734 47.5465C64.3845 46.896 64.75 46.0137 64.75 45.0938V43.9375C64.75 43.0175 64.3845 42.1352 63.734 41.4847C63.0835 40.8342 62.2012 40.4688 61.2812 40.4688V37C61.5879 37 61.882 37.1218 62.0988 37.3387C62.3157 37.5555 62.4375 37.8496 62.4375 38.1562V39.3125H64.75V38.1562C64.75 37.2363 64.3845 36.354 63.734 35.7035C63.0835 35.053 62.2012 34.6875 61.2812 34.6875V33.5312H58.9688V34.6875C58.0488 34.6875 57.1665 35.053 56.516 35.7035C55.8655 36.354 55.5 37.2363 55.5 38.1562V39.3125C55.5 40.2325 55.8655 41.1148 56.516 41.7653C57.1665 42.4158 58.0488 42.7812 58.9688 42.7812V46.25C58.6621 46.25 58.368 46.1282 58.1512 45.9113C57.9343 45.6945 57.8125 45.4004 57.8125 45.0938V43.9375H55.5V45.0938C55.5 46.0137 55.8655 46.896 56.516 47.5465C57.1665 48.197 58.0488 48.5625 58.9688 48.5625ZM57.8125 39.3125V38.1562C57.8125 37.8496 57.9343 37.5555 58.1512 37.3387C58.368 37.1218 58.6621 37 58.9688 37V40.4688C58.6621 40.4688 58.368 40.3469 58.1512 40.1301C57.9343 39.9133 57.8125 39.6192 57.8125 39.3125ZM61.2812 42.7812C61.5879 42.7812 61.882 42.9031 62.0988 43.1199C62.3157 43.3367 62.4375 43.6308 62.4375 43.9375V45.0938C62.4375 45.4004 62.3157 45.6945 62.0988 45.9113C61.882 46.1282 61.5879 46.25 61.2812 46.25V42.7812Z" fill="#C5E1A5"/>
<path d="M69.3751 56.6563H50.8751C50.2263 56.6582 49.5913 56.8438 49.0436 57.1916C47.0608 53.5339 45.9037 49.4862 45.6535 45.3331C45.2871 38.8747 42.8766 32.7 38.7703 27.7015L35.4796 23.68C35.9456 23.3648 36.3276 22.9407 36.5926 22.4444C36.8576 21.9482 36.9976 21.3948 37.0004 20.8323C37.0033 20.2698 36.8689 19.715 36.6089 19.2161C36.349 18.7172 35.9713 18.2893 35.5086 17.9693L40.7371 11.8701C41.1962 11.3345 41.492 10.6785 41.5896 9.97992C41.6872 9.2813 41.5824 8.56936 41.2876 7.9285C40.9929 7.28763 40.5205 6.74473 39.9266 6.36416C39.3327 5.98358 38.6421 5.7813 37.9367 5.78129H35.6461C34.7607 5.78391 33.8835 5.61081 33.0653 5.27201C32.2472 4.93321 31.5045 4.43546 30.8801 3.80757C30.0416 2.96416 29.0441 2.29553 27.9453 1.84043C26.8465 1.38532 25.6684 1.15278 24.4791 1.15629H17.796C17.1158 1.15603 16.4472 1.33277 15.856 1.66916C15.2648 2.00554 14.7713 2.48998 14.4241 3.07485C14.0768 3.65973 13.8877 4.3249 13.8754 5.00499C13.8631 5.68507 14.028 6.35666 14.3538 6.95373L20.2726 17.8063C19.7573 18.0931 19.324 18.5072 19.0143 19.0091C18.7045 19.511 18.5286 20.084 18.5033 20.6732C18.4781 21.2625 18.6043 21.8484 18.8699 22.375C19.1355 22.9016 19.5317 23.3513 20.0206 23.6812L16.7299 27.7026C12.6239 32.7008 10.2134 38.8751 9.84674 45.3331C9.46606 51.6206 7.01397 57.6051 2.8734 62.352L2.69071 62.5624C1.90629 63.4586 1.39663 64.5617 1.22271 65.7399C1.04878 66.9181 1.21796 68.1215 1.70999 69.206C2.20203 70.2906 2.99609 71.2105 3.99719 71.8556C4.9983 72.5007 6.16406 72.8438 7.35502 72.8438H69.3751C70.2951 72.8438 71.1774 72.4783 71.8279 71.8278C72.4784 71.1773 72.8439 70.295 72.8439 69.375V67.0625C72.8409 66.2065 72.5194 65.3821 71.942 64.75C72.5194 64.118 72.8409 63.2936 72.8439 62.4375V60.125C72.8439 59.2051 72.4784 58.3228 71.8279 57.6723C71.1774 57.0217 70.2951 56.6563 69.3751 56.6563ZM70.5314 60.125V62.4375C70.5314 62.7442 70.4096 63.0383 70.1927 63.2551C69.9759 63.472 69.6818 63.5938 69.3751 63.5938H68.2189V58.9688H69.3751C69.6818 58.9688 69.9759 59.0906 70.1927 59.3074C70.4096 59.5243 70.5314 59.8184 70.5314 60.125ZM61.2814 63.5938H58.9689V58.9688H61.2814V63.5938ZM63.5939 58.9688H65.9064V63.5938H63.5939V58.9688ZM56.6564 63.5938H54.3439V58.9688H56.6564V63.5938ZM56.6564 65.9063V70.5313H54.3439V65.9063H56.6564ZM58.9689 65.9063H61.2814V70.5313H58.9689V65.9063ZM63.5939 65.9063H65.9064V70.5313H63.5939V65.9063ZM50.8751 58.9688H52.0314V63.5938H50.8751C50.5685 63.5938 50.2744 63.472 50.0575 63.2551C49.8407 63.0383 49.7189 62.7442 49.7189 62.4375V60.125C49.7189 59.8184 49.8407 59.5243 50.0575 59.3074C50.2744 59.0906 50.5685 58.9688 50.8751 58.9688ZM21.9689 21.9688C21.6622 21.9688 21.3681 21.847 21.1513 21.6301C20.9344 21.4133 20.8126 21.1192 20.8126 20.8125C20.8126 20.5059 20.9344 20.2118 21.1513 19.9949C21.3681 19.7781 21.6622 19.6563 21.9689 19.6563H33.5314C33.838 19.6563 34.1321 19.7781 34.349 19.9949C34.5658 20.2118 34.6876 20.5059 34.6876 20.8125C34.6876 21.1192 34.5658 21.4133 34.349 21.6301C34.1321 21.847 33.838 21.9688 33.5314 21.9688H21.9689ZM16.1876 5.07713C16.1882 4.65076 16.3579 4.24203 16.6594 3.94054C16.9609 3.63905 17.3696 3.4694 17.796 3.46879H24.4791C25.3646 3.46617 26.2418 3.63927 27.0599 3.97807C27.878 4.31687 28.6208 4.81462 29.2451 5.44251C30.0836 6.28592 31.0812 6.95454 32.1799 7.40965C33.2787 7.86476 34.4569 8.09729 35.6461 8.09379H37.9367C38.1996 8.09417 38.4569 8.16993 38.678 8.31209C38.8992 8.45424 39.075 8.65684 39.1845 8.89585C39.294 9.13486 39.3327 9.40026 39.296 9.6606C39.2593 9.92093 39.1487 10.1653 38.9773 10.3647L32.9995 17.3438H31.3726L32.3659 9.39341L30.0719 9.10666L29.0416 17.3438H26.4586L25.4284 9.10666L23.1344 9.39341L24.1276 17.3438H22.6557L16.3842 5.8472C16.2557 5.61083 16.1881 5.34617 16.1876 5.07713ZM3.46887 66.6451C3.46847 65.7034 3.81036 64.7936 4.43087 64.0852L4.61471 63.8748C9.09203 58.7405 11.7433 52.2682 12.1546 45.4684C12.4928 39.4974 14.7198 33.7883 18.514 29.1653L22.5169 24.2813H24.1276L23.1344 32.2317L25.4284 32.5184L26.4586 24.2813H29.0416L30.0719 32.5184L32.3659 32.2317L31.3726 24.2813H32.9833L36.9805 29.1664C40.7747 33.7894 43.0016 39.4985 43.3398 45.4696C43.6332 50.3205 45.0706 55.0332 47.5347 59.222C47.452 59.516 47.4089 59.8197 47.4064 60.125V62.4375C47.4094 63.2936 47.7309 64.118 48.3082 64.75C47.7309 65.3821 47.4094 66.2065 47.4064 67.0625V69.375C47.4102 69.7698 47.4822 70.161 47.6191 70.5313H7.35502C6.32473 70.5301 5.33698 70.1202 4.60845 69.3917C3.87992 68.6632 3.47009 67.6754 3.46887 66.6451ZM49.7189 69.375V67.0625C49.7189 66.7559 49.8407 66.4618 50.0575 66.2449C50.2744 66.0281 50.5685 65.9063 50.8751 65.9063H52.0314V70.5313H50.8751C50.5685 70.5313 50.2744 70.4095 50.0575 70.1926C49.8407 69.9758 49.7189 69.6817 49.7189 69.375ZM70.5314 69.375C70.5314 69.6817 70.4096 69.9758 70.1927 70.1926C69.9759 70.4095 69.6818 70.5313 69.3751 70.5313H68.2189V65.9063H69.3751C69.6818 65.9063 69.9759 66.0281 70.1927 66.2449C70.4096 66.4618 70.5314 66.7559 70.5314 67.0625V69.375Z" fill="#C5E1A5"/>
<path d="M60.125 54.3438C62.6405 54.3438 65.0996 53.5978 67.1912 52.2003C69.2827 50.8027 70.9129 48.8163 71.8756 46.4923C72.8382 44.1682 73.0901 41.6109 72.5994 39.1437C72.1086 36.6765 70.8973 34.4102 69.1185 32.6315C67.3398 30.8527 65.0735 29.6414 62.6063 29.1506C60.1391 28.6599 57.5818 28.9118 55.2577 29.8744C52.9337 30.8371 50.9473 32.4673 49.5497 34.5588C48.1522 36.6504 47.4062 39.1095 47.4062 41.625C47.4102 44.997 48.7515 48.2298 51.1359 50.6141C53.5202 52.9985 56.753 54.3398 60.125 54.3438ZM60.125 31.2188C62.1832 31.2188 64.1951 31.8291 65.9064 32.9725C67.6177 34.116 68.9515 35.7412 69.7391 37.6427C70.5267 39.5442 70.7328 41.6365 70.3313 43.6552C69.9298 45.6738 68.9387 47.528 67.4833 48.9833C66.028 50.4387 64.1738 51.4298 62.1552 51.8313C60.1365 52.2328 58.0442 52.0267 56.1427 51.2391C54.2412 50.4515 52.616 49.1177 51.4725 47.4064C50.3291 45.6951 49.7188 43.6832 49.7188 41.625C49.7221 38.8661 50.8196 36.2212 52.7704 34.2704C54.7212 32.3196 57.3661 31.2221 60.125 31.2188Z" fill="#C5E1A5"/>
</svg>
