<svg width="74" height="74" viewBox="0 0 74 74" fill="none" xmlns="http://www.w3.org/2000/svg">
<rect width="74" height="74" fill="#D8D8D8"/>
<g id="13-FinBuddy App Usecases Overview" clip-path="url(#clip0_184_93575)">
<rect width="1920" height="1259" transform="translate(-251 -258)" fill="#24232C"/>
<g id="Frame 4">
<rect width="1840" height="1218" transform="translate(-171 -217)" fill="#3A3942"/>
<g id="Frame 54">
<rect x="-139" y="-121" width="1776" height="1089" fill="#23222B"/>
<g id="Group 2046">
<rect id="Rectangle 49" x="-34.5" y="-38.5" width="735" height="172" rx="3.5" fill="#302E38" stroke="#595959"/>
<g id="expenses 1">
<g id="Group">
<path id="Vector" d="M67.0625 41.6248V34.6873C67.0625 30.2254 63.4319 26.5936 58.9688 26.5936H52.0312V19.5844C52.0312 17.5656 50.9848 15.7399 49.232 14.6981C47.4409 13.6366 45.2799 13.5973 43.4889 14.5755L41.625 15.504V11.7346C41.625 9.34465 40.3022 7.25877 38.1736 6.2933C36.127 5.36599 33.7972 5.71749 32.094 7.21021L9.9715 26.5936H9.25C4.78688 26.5936 1.15625 30.2254 1.15625 34.6873V64.7498C1.15625 69.2118 4.78688 72.8436 9.25 72.8436H58.9688C63.4319 72.8436 67.0625 69.2118 67.0625 64.7498V57.8123C70.2503 57.8123 72.8438 55.2189 72.8438 52.0311V47.4061C72.8438 44.2183 70.2503 41.6248 67.0625 41.6248ZM44.5584 16.6244C45.6626 16.022 46.9692 16.044 48.0514 16.6868C49.0955 17.3066 49.7188 18.3888 49.7188 19.5844V26.5936H24.5657L44.5584 16.6244ZM33.618 8.94921C34.6447 8.04965 35.9906 7.84268 37.2185 8.39999C38.2302 8.85902 39.3125 9.97596 39.3125 11.7346V16.6568L19.3845 26.5936H13.4807L33.618 8.94921ZM64.75 64.7498C64.75 67.9376 62.1565 70.5311 58.9688 70.5311H9.25C6.06222 70.5311 3.46875 67.9376 3.46875 64.7498V34.6873C3.46875 31.4996 6.06222 28.9061 9.25 28.9061H58.9688C62.1565 28.9061 64.75 31.4996 64.75 34.6873V41.6248H53.1875C47.4062 41.6248 47.4062 47.7171 47.4062 49.7186C47.4062 51.7201 47.4062 57.8123 53.1875 57.8123H64.75V64.7498ZM70.5312 52.0311C70.5312 53.9435 68.9749 55.4998 67.0625 55.4998H53.1875C51.1051 55.4998 49.7188 54.5159 49.7188 49.7186C49.7188 44.9213 51.1051 43.9373 53.1875 43.9373H67.0625C68.9749 43.9373 70.5312 45.4936 70.5312 47.4061V52.0311Z" fill="#EF9A9A"/>
<path id="Vector_2" d="M56.6562 45.0938C54.1056 45.0938 52.0312 47.1681 52.0312 49.7188C52.0312 52.2694 54.1056 54.3438 56.6562 54.3438C59.2069 54.3438 61.2812 52.2694 61.2812 49.7188C61.2812 47.1681 59.2069 45.0938 56.6562 45.0938ZM56.6562 52.0312C55.3809 52.0312 54.3438 50.9941 54.3438 49.7188C54.3438 48.4434 55.3809 47.4062 56.6562 47.4062C57.9316 47.4062 58.9688 48.4434 58.9688 49.7188C58.9688 50.9941 57.9316 52.0312 56.6562 52.0312Z" fill="#EF9A9A"/>
<path id="Vector_3" d="M56.7833 19.3878L56.0607 19.8214C55.73 20.0203 55.5207 20.3695 55.501 20.7534C55.4814 21.1384 55.6537 21.5073 55.9612 21.7385L60.5862 25.2073C60.7909 25.361 61.036 25.4385 61.28 25.4385C61.5031 25.4385 61.7263 25.3738 61.9217 25.2443L62.1252 25.109C66.342 22.297 68.9806 17.7286 69.3333 12.7198H70.8549C71.655 12.7198 72.3696 12.2422 72.6748 11.5034C72.9673 10.7958 72.8274 9.99332 72.3187 9.43022L67.0392 2.32854C66.49 1.58969 65.6471 1.1665 64.7279 1.1665C63.8075 1.16766 62.9646 1.59085 62.4166 2.33085L57.1695 9.39554C56.6561 9.96325 56.5127 10.7738 56.8087 11.4895C57.1175 12.2364 57.8401 12.7186 58.6483 12.7186H60.2532C60.4417 15.3872 59.1201 17.9853 56.7833 19.3878ZM62.4362 11.56C62.4304 11.434 62.4038 11.3057 62.353 11.1819L62.331 11.1288C62.331 11.1276 62.3298 11.1276 62.3298 11.1264C62.2258 10.8686 62.0373 10.6686 61.8095 10.5448C61.5817 10.4211 61.8095 10.5437 61.8084 10.5437C61.7436 10.5102 61.6754 10.4801 61.606 10.4593C61.4881 10.4223 61.3621 10.4107 61.2372 10.4061H59.2993L64.2735 3.70794C64.4203 3.50907 64.6215 3.479 64.7279 3.479C64.8343 3.479 65.0355 3.50907 65.1846 3.70794L70.1657 10.4061H68.2186C67.5804 10.4061 67.0624 10.9229 67.0624 11.5623C67.0624 16.0521 64.9222 20.2331 61.31 22.8589L58.6911 20.8933C61.5991 18.7669 63.0745 15.1409 62.4362 11.56Z" fill="#EF9A9A"/>
</g>
</g>
</g>
<rect x="-139" y="-121" width="1776" height="1089" stroke="#02ADEE" stroke-dasharray="4 4"/>
</g>
</g>
</g>
<defs>
<clipPath id="clip0_184_93575">
<rect width="1920" height="1259" fill="white" transform="translate(-251 -258)"/>
</clipPath>
</defs>
</svg>
