<svg width="74" height="74" viewBox="0 0 74 74" fill="none" xmlns="http://www.w3.org/2000/svg">
<path d="M61.2812 24.2812H52.0312C51.1113 24.2813 50.229 24.6467 49.5785 25.2972C48.928 25.9477 48.5625 26.83 48.5625 27.75V32.375C48.5625 32.6817 48.6843 32.9758 48.9012 33.1926C49.118 33.4094 49.4121 33.5312 49.7188 33.5312H63.5938C63.9004 33.5312 64.1945 33.4094 64.4113 33.1926C64.6282 32.9758 64.75 32.6817 64.75 32.375V27.75C64.75 26.83 64.3845 25.9477 63.734 25.2972C63.0835 24.6467 62.2012 24.2813 61.2812 24.2812ZM62.4375 31.2188H50.875V27.75C50.875 27.4433 50.9968 27.1492 51.2137 26.9324C51.4305 26.7156 51.7246 26.5938 52.0312 26.5938H61.2812C61.5879 26.5938 61.882 26.7156 62.0988 26.9324C62.3157 27.1492 62.4375 27.4433 62.4375 27.75V31.2188Z" fill="#90CAF9"/>
<path d="M61.2812 19.6562V17.3438C61.2812 16.1171 60.794 14.9407 59.9266 14.0734C59.0593 13.206 57.8829 12.7188 56.6562 12.7188C55.4296 12.7188 54.2532 13.206 53.3859 14.0734C52.5185 14.9407 52.0312 16.1171 52.0312 17.3438V19.6562C52.0312 20.8829 52.5185 22.0593 53.3859 22.9266C54.2532 23.794 55.4296 24.2812 56.6562 24.2812C57.8829 24.2812 59.0593 23.794 59.9266 22.9266C60.794 22.0593 61.2812 20.8829 61.2812 19.6562ZM58.9688 19.6562C58.9688 20.2696 58.7251 20.8578 58.2914 21.2914C57.8578 21.7251 57.2696 21.9688 56.6562 21.9688C56.0429 21.9688 55.4547 21.7251 55.0211 21.2914C54.5874 20.8578 54.3438 20.2696 54.3438 19.6562V17.3438C54.3438 16.7304 54.5874 16.1422 55.0211 15.7086C55.4547 15.2749 56.0429 15.0312 56.6562 15.0312C57.2696 15.0312 57.8578 15.2749 58.2914 15.7086C58.7251 16.1422 58.9688 16.7304 58.9688 17.3438V19.6562Z" fill="#90CAF9"/>
<path d="M72.8438 24.2812C72.8438 19.9881 71.1383 15.8707 68.1025 12.835C65.0668 9.79921 60.9494 8.09375 56.6562 8.09375C52.3631 8.09375 48.2457 9.79921 45.21 12.835C42.1742 15.8707 40.4688 19.9881 40.4688 24.2812H2.3125C2.00584 24.2812 1.71175 24.4031 1.49491 24.6199C1.27807 24.8367 1.15625 25.1308 1.15625 25.4375V58.9688C1.15809 60.8081 1.88959 62.5716 3.19023 63.8723C4.49086 65.1729 6.25437 65.9044 8.09375 65.9062H58.9688C60.8081 65.9044 62.5716 65.1729 63.8723 63.8723C65.1729 62.5716 65.9044 60.8081 65.9062 58.9688V37.5469C68.0461 36.0585 69.7945 34.075 71.0025 31.7652C72.2104 29.4554 72.8421 26.8878 72.8438 24.2812ZM58.9688 63.5938H8.09375C6.86712 63.5938 5.69074 63.1065 4.82338 62.2391C3.95603 61.3718 3.46875 60.1954 3.46875 58.9688V56.6562H63.5938V58.9688C63.5938 60.1954 63.1065 61.3718 62.2391 62.2391C61.3718 63.1065 60.1954 63.5938 58.9688 63.5938ZM63.5938 54.3438H3.46875V26.5938H40.6538C41.0078 29.104 41.9486 31.4955 43.3999 33.5741C44.8512 35.6527 46.772 37.3598 49.0066 38.5571C51.2412 39.7544 53.7265 40.408 56.261 40.4649C58.7955 40.5218 61.3077 39.9804 63.5938 38.8847V54.3438ZM56.6562 38.1562C53.912 38.1562 51.2294 37.3425 48.9477 35.8179C46.666 34.2933 44.8876 32.1263 43.8374 29.591C42.7873 27.0557 42.5125 24.2659 43.0479 21.5744C43.5832 18.8829 44.9047 16.4106 46.8451 14.4701C48.7856 12.5297 51.2579 11.2082 53.9494 10.6729C56.6409 10.1375 59.4307 10.4123 61.966 11.4624C64.5013 12.5126 66.6683 14.291 68.1929 16.5727C69.7175 18.8544 70.5312 21.537 70.5312 24.2812C70.5273 27.9599 69.0642 31.4868 66.463 34.088C63.8618 36.6892 60.3349 38.1523 56.6562 38.1562Z" fill="#90CAF9"/>
<path d="M13.875 43.9375C13.5683 43.9375 13.2742 43.8157 13.0574 43.5988C12.8406 43.382 12.7188 43.0879 12.7188 42.7812H10.4062C10.4092 43.4961 10.633 44.1926 11.0469 44.7754C11.4609 45.3583 12.0448 45.799 12.7188 46.0373V47.4062H15.0312V46.0373C15.8021 45.7657 16.452 45.2302 16.8658 44.5254C17.2796 43.8207 17.4307 42.9922 17.2922 42.1867C17.1537 41.3813 16.7346 40.6508 16.1092 40.1248C15.4837 39.5987 14.6923 39.311 13.875 39.3125C13.6463 39.3125 13.4228 39.2447 13.2326 39.1176C13.0425 38.9906 12.8943 38.81 12.8068 38.5987C12.7193 38.3874 12.6964 38.155 12.741 37.9307C12.7856 37.7064 12.8957 37.5004 13.0574 37.3387C13.2191 37.177 13.4251 37.0668 13.6494 37.0222C13.8737 36.9776 14.1062 37.0005 14.3175 37.088C14.5288 37.1755 14.7093 37.3237 14.8364 37.5139C14.9634 37.704 15.0312 37.9276 15.0312 38.1562H17.3438C17.3408 37.4414 17.117 36.7449 16.7031 36.1621C16.2891 35.5792 15.7052 35.1385 15.0312 34.9002V33.5312H12.7188V34.9002C11.9479 35.1718 11.298 35.7073 10.8842 36.4121C10.4704 37.1168 10.3193 37.9453 10.4578 38.7508C10.5963 39.5562 11.0154 40.2867 11.6408 40.8127C12.2663 41.3388 13.0577 41.6265 13.875 41.625C14.1817 41.625 14.4758 41.7468 14.6926 41.9637C14.9094 42.1805 15.0312 42.4746 15.0312 42.7812C15.0312 43.0879 14.9094 43.382 14.6926 43.5988C14.4758 43.8157 14.1817 43.9375 13.875 43.9375Z" fill="#90CAF9"/>
<path d="M23.125 43.9375C22.8183 43.9375 22.5242 43.8157 22.3074 43.5988C22.0906 43.382 21.9688 43.0879 21.9688 42.7812H19.6562C19.6592 43.4961 19.883 44.1926 20.2969 44.7754C20.7109 45.3583 21.2948 45.799 21.9688 46.0373V47.4062H24.2812V46.0373C25.0521 45.7657 25.702 45.2302 26.1158 44.5254C26.5296 43.8207 26.6807 42.9922 26.5422 42.1867C26.4037 41.3813 25.9846 40.6508 25.3592 40.1248C24.7337 39.5987 23.9423 39.311 23.125 39.3125C22.8963 39.3125 22.6728 39.2447 22.4826 39.1176C22.2925 38.9906 22.1443 38.81 22.0568 38.5987C21.9693 38.3874 21.9464 38.155 21.991 37.9307C22.0356 37.7064 22.1457 37.5004 22.3074 37.3387C22.4691 37.177 22.6751 37.0668 22.8994 37.0222C23.1237 36.9776 23.3562 37.0005 23.5675 37.088C23.7788 37.1755 23.9593 37.3237 24.0864 37.5139C24.2134 37.704 24.2812 37.9276 24.2812 38.1562H26.5938C26.5908 37.4414 26.367 36.7449 25.9531 36.1621C25.5391 35.5792 24.9552 35.1385 24.2812 34.9002V33.5312H21.9688V34.9002C21.1979 35.1718 20.548 35.7073 20.1342 36.4121C19.7204 37.1168 19.5693 37.9453 19.7078 38.7508C19.8463 39.5562 20.2654 40.2867 20.8908 40.8127C21.5163 41.3388 22.3077 41.6265 23.125 41.625C23.4317 41.625 23.7258 41.7468 23.9426 41.9637C24.1594 42.1805 24.2812 42.4746 24.2812 42.7812C24.2812 43.0879 24.1594 43.382 23.9426 43.5988C23.7258 43.8157 23.4317 43.9375 23.125 43.9375Z" fill="#90CAF9"/>
<path d="M32.375 43.9375C32.0683 43.9375 31.7742 43.8157 31.5574 43.5988C31.3406 43.382 31.2188 43.0879 31.2188 42.7812H28.9062C28.9092 43.4961 29.133 44.1926 29.5469 44.7754C29.9609 45.3583 30.5448 45.799 31.2188 46.0373V47.4062H33.5312V46.0373C34.3021 45.7657 34.952 45.2302 35.3658 44.5254C35.7796 43.8207 35.9307 42.9922 35.7922 42.1867C35.6537 41.3813 35.2346 40.6508 34.6092 40.1248C33.9837 39.5987 33.1923 39.311 32.375 39.3125C32.1463 39.3125 31.9228 39.2447 31.7326 39.1176C31.5425 38.9906 31.3943 38.81 31.3068 38.5987C31.2193 38.3874 31.1964 38.155 31.241 37.9307C31.2856 37.7064 31.3957 37.5004 31.5574 37.3387C31.7191 37.177 31.9251 37.0668 32.1494 37.0222C32.3737 36.9776 32.6062 37.0005 32.8175 37.088C33.0288 37.1755 33.2093 37.3237 33.3364 37.5139C33.4634 37.704 33.5312 37.9276 33.5312 38.1562H35.8438C35.8408 37.4414 35.617 36.7449 35.2031 36.1621C34.7891 35.5792 34.2052 35.1385 33.5312 34.9002V33.5312H31.2188V34.9002C30.4479 35.1718 29.798 35.7073 29.3842 36.4121C28.9704 37.1168 28.8193 37.9453 28.9578 38.7508C29.0963 39.5562 29.5154 40.2867 30.1408 40.8127C30.7663 41.3388 31.5577 41.6265 32.375 41.625C32.6817 41.625 32.9758 41.7468 33.1926 41.9637C33.4094 42.1805 33.5312 42.4746 33.5312 42.7812C33.5312 43.0879 33.4094 43.382 33.1926 43.5988C32.9758 43.8157 32.6817 43.9375 32.375 43.9375Z" fill="#90CAF9"/>
<path d="M39.3125 28.9062H6.9375C6.63084 28.9062 6.33675 29.0281 6.11991 29.2449C5.90307 29.4617 5.78125 29.7558 5.78125 30.0625V50.875C5.78125 51.1817 5.90307 51.4758 6.11991 51.6926C6.33675 51.9094 6.63084 52.0312 6.9375 52.0312H39.3125C39.6192 52.0312 39.9133 51.9094 40.1301 51.6926C40.3469 51.4758 40.4688 51.1817 40.4688 50.875V30.0625C40.4688 29.7558 40.3469 29.4617 40.1301 29.2449C39.9133 29.0281 39.6192 28.9062 39.3125 28.9062ZM38.1562 49.7188H8.09375V31.2188H38.1562V49.7188Z" fill="#90CAF9"/>
<path d="M42.7812 49.7188H61.2812V52.0312H42.7812V49.7188Z" fill="#90CAF9"/>
<path d="M42.7812 45.0938H50.875V47.4062H42.7812V45.0938Z" fill="#90CAF9"/>
<path d="M53.1875 45.0938H61.2812V47.4062H53.1875V45.0938Z" fill="#90CAF9"/>
</svg>
