<svg width="13" height="12" viewBox="0 0 13 12" fill="none" xmlns="http://www.w3.org/2000/svg">
<path fill-rule="evenodd" clip-rule="evenodd" d="M10.3371 8.67969C9.78848 8.67969 9.34375 9.12442 9.34375 9.67302C9.34375 10.2216 9.78848 10.6664 10.3371 10.6664C10.8857 10.6664 11.3304 10.2216 11.3304 9.67302C11.3304 9.12442 10.8857 8.67969 10.3371 8.67969ZM8.34375 9.67302C8.34375 8.57213 9.2362 7.67969 10.3371 7.67969C11.438 7.67969 12.3304 8.57213 12.3304 9.67302C12.3304 10.7739 11.438 11.6664 10.3371 11.6664C9.2362 11.6664 8.34375 10.7739 8.34375 9.67302Z" fill="white"/>
<path fill-rule="evenodd" clip-rule="evenodd" d="M2.6574 8.67969C2.10879 8.67969 1.66406 9.12442 1.66406 9.67302C1.66406 10.2216 2.10879 10.6664 2.6574 10.6664C3.206 10.6664 3.65073 10.2216 3.65073 9.67302C3.65073 9.12442 3.206 8.67969 2.6574 8.67969ZM0.664062 9.67302C0.664062 8.57213 1.55651 7.67969 2.6574 7.67969C3.75828 7.67969 4.65073 8.57213 4.65073 9.67302C4.65073 10.7739 3.75828 11.6664 2.6574 11.6664C1.55651 11.6664 0.664062 10.7739 0.664062 9.67302Z" fill="white"/>
<path fill-rule="evenodd" clip-rule="evenodd" d="M2.6574 1C2.10879 1 1.66406 1.44473 1.66406 1.99333C1.66406 2.54194 2.10879 2.98667 2.6574 2.98667C3.206 2.98667 3.65073 2.54194 3.65073 1.99333C3.65073 1.44473 3.206 1 2.6574 1ZM0.664062 1.99333C0.664062 0.892446 1.55651 0 2.6574 0C3.75828 0 4.65073 0.892446 4.65073 1.99333C4.65073 3.09422 3.75828 3.98667 2.6574 3.98667C1.55651 3.98667 0.664062 3.09422 0.664062 1.99333Z" fill="white"/>
<path fill-rule="evenodd" clip-rule="evenodd" d="M7.86052 0.100029C8.08144 0.265715 8.12621 0.579116 7.96052 0.800029L7.28052 1.7067H8.84052C9.34426 1.7067 9.8139 1.83297 10.1541 2.17314C10.4942 2.51332 10.6205 2.98296 10.6205 3.4867V7.75336C10.6205 8.0295 10.3967 8.25336 10.1205 8.25336C9.84438 8.25336 9.62052 8.0295 9.62052 7.75336V3.4867C9.62052 3.1371 9.53346 2.96674 9.44697 2.88025C9.36047 2.79376 9.19012 2.7067 8.84052 2.7067H7.28052L7.96052 3.61336C8.12621 3.83428 8.08144 4.14768 7.86052 4.31336C7.63961 4.47905 7.32621 4.43428 7.16052 4.21336L5.88052 2.5067C5.74719 2.32892 5.74719 2.08447 5.88052 1.9067L7.16052 0.200029C7.32621 -0.0208845 7.63961 -0.065656 7.86052 0.100029ZM2.86719 3.41336C3.14333 3.41336 3.36719 3.63722 3.36719 3.91336V7.75336C3.36719 8.0295 3.14333 8.25336 2.86719 8.25336C2.59105 8.25336 2.36719 8.0295 2.36719 7.75336V3.91336C2.36719 3.63722 2.59105 3.41336 2.86719 3.41336Z" fill="white"/>
</svg>
