<svg width="24" height="24" viewBox="0 0 24 24" fill="none" xmlns="http://www.w3.org/2000/svg">
<g clip-path="url(#clip0_1044_594)">
<path d="M24 12.7031H22.5469V10.5938C22.5469 7.87983 20.3389 5.67188 17.625 5.67188H12.7031V4.09781C13.5215 3.80756 14.1094 3.02602 14.1094 2.10938C14.1094 0.946266 13.1631 0 12 0C10.8369 0 9.89062 0.946266 9.89062 2.10938C9.89062 3.02602 10.4785 3.80756 11.2969 4.09781V5.67188H6.375C3.66108 5.67188 1.45312 7.87983 1.45312 10.5938V12.7031H0V14.1094H1.45312V16.2188C1.45312 18.9327 3.66108 21.1406 6.375 21.1406H9.89062V24H14.1094V21.1406H17.625C20.3389 21.1406 22.5469 18.9327 22.5469 16.2188V14.1094H24V12.7031ZM12 1.40625C12.3877 1.40625 12.7031 1.72167 12.7031 2.10938C12.7031 2.49708 12.3877 2.8125 12 2.8125C11.6123 2.8125 11.2969 2.49708 11.2969 2.10938C11.2969 1.72167 11.6123 1.40625 12 1.40625ZM12.7031 22.5938H11.2969V21.1406H12.7031V22.5938ZM21.1406 16.2188C21.1406 18.1573 19.5635 19.7344 17.625 19.7344C16.2333 19.7344 7.79348 19.7344 6.375 19.7344C4.43648 19.7344 2.85938 18.1573 2.85938 16.2188C2.85938 15.0299 2.85938 11.7893 2.85938 10.5938C2.85938 8.65523 4.43648 7.07812 6.375 7.07812H17.625C19.5635 7.07812 21.1406 8.65523 21.1406 10.5938V16.2188Z" fill="white"/>
<path d="M9.89062 12C9.89062 10.8369 8.94436 9.89062 7.78125 9.89062C6.61814 9.89062 5.67188 10.8369 5.67188 12C5.67188 13.1631 6.61814 14.1094 7.78125 14.1094C8.94436 14.1094 9.89062 13.1631 9.89062 12ZM7.78125 12.7031C7.39355 12.7031 7.07812 12.3877 7.07812 12C7.07812 11.6123 7.39355 11.2969 7.78125 11.2969C8.16895 11.2969 8.48438 11.6123 8.48438 12C8.48438 12.3877 8.16895 12.7031 7.78125 12.7031Z" fill="white"/>
<path d="M16.2188 9.89062C15.0556 9.89062 14.1094 10.8369 14.1094 12C14.1094 13.1631 15.0556 14.1094 16.2188 14.1094C17.3819 14.1094 18.3281 13.1631 18.3281 12C18.3281 10.8369 17.3819 9.89062 16.2188 9.89062ZM16.2188 12.7031C15.831 12.7031 15.5156 12.3877 15.5156 12C15.5156 11.6123 15.831 11.2969 16.2188 11.2969C16.6065 11.2969 16.9219 11.6123 16.9219 12C16.9219 12.3877 16.6065 12.7031 16.2188 12.7031Z" fill="white"/>
<path d="M12.7031 16.9219H11.2969C10.5215 16.9219 9.89062 16.291 9.89062 15.5156H8.48438C8.48438 17.0664 9.74606 18.3281 11.2969 18.3281H12.7031C14.2539 18.3281 15.5156 17.0664 15.5156 15.5156H14.1094C14.1094 16.291 13.4785 16.9219 12.7031 16.9219Z" fill="white"/>
</g>
<defs>
<clipPath id="clip0_1044_594">
<rect width="24" height="24" fill="white"/>
</clipPath>
</defs>
</svg>
