<svg width="12" height="12" viewBox="0 0 12 12" fill="none" xmlns="http://www.w3.org/2000/svg">
<path d="M10.2857 0H1.71429C1.25963 0 0.823594 0.180612 0.502103 0.502103C0.180612 0.823594 0 1.25963 0 1.71429V10.2857C0 10.7404 0.180612 11.1764 0.502103 11.4979C0.823594 11.8194 1.25963 12 1.71429 12H10.2857C10.7404 12 11.1764 11.8194 11.4979 11.4979C11.8194 11.1764 12 10.7404 12 10.2857V1.71429C12 1.25963 11.8194 0.823594 11.4979 0.502103C11.1764 0.180612 10.7404 0 10.2857 0ZM9.42857 6C9.42857 6.47339 9.04482 6.85714 8.57143 6.85714H3.42857C2.95518 6.85714 2.57143 6.47339 2.57143 6C2.57143 5.52661 2.95518 5.14286 3.42857 5.14286H8.57143C9.04482 5.14286 9.42857 5.52661 9.42857 6Z" fill="#EFEEEE"/>
</svg>
