<svg width="24" height="21" viewBox="0 0 24 21" fill="none" xmlns="http://www.w3.org/2000/svg">
<path fill-rule="evenodd" clip-rule="evenodd" d="M21.6019 19.4259C23.25 17.9005 23.25 15.4491 23.25 10.5441C23.25 5.63915 23.25 3.18667 21.6019 1.66336C19.956 0.139015 17.3032 0.139015 12 0.139015C6.69675 0.139015 4.04513 0.139015 2.397 1.66336C0.75 3.18563 0.75 5.63915 0.75 10.5441C0.75 15.4491 0.75 17.9016 2.397 19.4259C4.04625 20.9492 6.69675 20.9492 12 20.9492C17.3032 20.9492 19.9549 20.9492 21.6019 19.4259ZM10.8413 14.2171C10.9185 14.2938 11.0116 14.3553 11.1151 14.3979C11.2186 14.4406 11.3304 14.4635 11.4437 14.4654C11.557 14.4672 11.6695 14.4479 11.7745 14.4087C11.8796 14.3695 11.975 14.311 12.0552 14.2369C12.1353 14.1628 12.1985 14.0746 12.2409 13.9774C12.2833 13.8802 12.3042 13.7761 12.3022 13.6713C12.3002 13.5666 12.2754 13.4632 12.2293 13.3675C12.1831 13.2718 12.1166 13.1856 12.0337 13.1142L9.255 10.5441L12.0337 7.97406C12.1166 7.90261 12.1831 7.81646 12.2293 7.72073C12.2754 7.62501 12.3002 7.52167 12.3022 7.41689C12.3042 7.3121 12.2833 7.20802 12.2409 7.11085C12.1985 7.01368 12.1353 6.92541 12.0552 6.85131C11.975 6.7772 11.8796 6.71878 11.7745 6.67953C11.6695 6.64029 11.557 6.62101 11.4437 6.62286C11.3304 6.62471 11.2186 6.64764 11.1151 6.6903C11.0116 6.73295 10.9185 6.79444 10.8413 6.87112L7.46625 9.99265C7.30824 10.139 7.21949 10.3373 7.21949 10.5441C7.21949 10.7509 7.30824 10.9493 7.46625 11.0956L10.8413 14.2171ZM16.5338 14.2171C16.3755 14.3633 16.1611 14.4453 15.9375 14.4453C15.7139 14.4453 15.4995 14.3633 15.3413 14.2171L11.9663 11.0956C11.8082 10.9493 11.7195 10.7509 11.7195 10.5441C11.7195 10.3373 11.8082 10.139 11.9663 9.99265L15.3413 6.87112C15.4185 6.79444 15.5116 6.73295 15.6151 6.6903C15.7186 6.64764 15.8304 6.62471 15.9437 6.62286C16.057 6.62101 16.1695 6.64029 16.2745 6.67953C16.3796 6.71878 16.475 6.7772 16.5552 6.85131C16.6353 6.92541 16.6985 7.01368 16.7409 7.11085C16.7833 7.20802 16.8042 7.3121 16.8022 7.41689C16.8002 7.52167 16.7754 7.62501 16.7293 7.72073C16.6831 7.81646 16.6166 7.90261 16.5338 7.97406L13.755 10.5441L16.5338 13.1142C16.6918 13.2605 16.7805 13.4588 16.7805 13.6656C16.7805 13.8724 16.6918 14.0708 16.5338 14.2171Z" fill="#DEDEDE"/>
</svg>
