<svg width="76" height="76" viewBox="0 0 76 76" fill="none" xmlns="http://www.w3.org/2000/svg">
<rect width="76" height="76" rx="38" fill="#E7EFFE"/>
<g clip-path="url(#clip0_1919_528)">
<path d="M32.3622 38.2967C32.3622 35.3719 34.736 32.9981 37.6609 32.9981C40.5857 32.9981 42.9595 35.3719 42.9595 38.2967C42.9595 41.2216 40.5857 43.5954 37.6609 43.5954C34.736 43.6378 32.3622 41.2216 32.3622 38.2967ZM37.6609 16C27.2331 16 18.501 23.1214 16.0424 32.7861C16.0424 32.8709 16 32.9133 16 32.9981C16 33.5915 16.4663 34.0578 17.0597 34.0578H26.0462C26.4701 34.0578 26.8516 33.8035 27.0212 33.422C28.8863 29.395 32.9133 26.5973 37.6609 26.5973C44.104 26.5973 49.3603 31.8536 49.3603 38.2967C49.3603 44.7399 44.104 49.9961 37.6609 49.9961C32.9557 49.9961 28.8863 47.1985 27.0212 43.1715C26.8516 42.79 26.4701 42.5356 26.0462 42.5356H17.0597C16.4663 42.5356 16 43.0019 16 43.5954C16 43.6802 16 43.7225 16.0424 43.8073C18.501 53.4721 27.2331 60.5934 37.6609 60.5934C49.9961 60.5934 60 50.5896 60 38.2543C60 25.9615 49.9961 16 37.6609 16Z" fill="#343434"/>
</g>
<defs>
<clipPath id="clip0_1919_528">
<rect width="44" height="44.5934" fill="white" transform="translate(16 16)"/>
</clipPath>
</defs>
</svg>
