<svg width="44" height="44" viewBox="0 0 44 44" fill="none" xmlns="http://www.w3.org/2000/svg">
<g clip-path="url(#clip0_5540_12704)">
<path d="M37.8887 9.77734H26.8887V40.3329H40.3331V12.2218C40.3331 11.5735 40.0756 10.9517 39.6172 10.4933C39.1587 10.0349 38.537 9.77734 37.8887 9.77734ZM31.7776 30.5551H29.3331V28.1107H31.7776V30.5551ZM31.7776 24.444H29.3331V21.9996H31.7776V24.444ZM31.7776 18.3329H29.3331V15.8885H31.7776V18.3329ZM36.6664 30.5551H34.222V28.1107H36.6664V30.5551ZM36.6664 24.444H34.222V21.9996H36.6664V24.444ZM36.6664 18.3329H34.222V15.8885H36.6664V18.3329Z" fill="#BFBFBF"/>
<path d="M21.8531 3.66797H7.47978C6.79258 3.66797 6.13352 3.94096 5.64759 4.42689C5.16166 4.91282 4.88867 5.57187 4.88867 6.25908V40.3346H10.9998V36.668H18.3331V40.3346H24.4442V6.25908C24.4442 5.57187 24.1712 4.91282 23.6853 4.42689C23.1994 3.94096 22.5403 3.66797 21.8531 3.66797ZM10.9998 30.5569H8.55534V28.1124H10.9998V30.5569ZM10.9998 24.4458H8.55534V22.0013H10.9998V24.4458ZM10.9998 18.3346H8.55534V15.8902H10.9998V18.3346ZM10.9998 12.2235H8.55534V9.77908H10.9998V12.2235ZM15.8887 30.5569H13.4442V28.1124H15.8887V30.5569ZM15.8887 24.4458H13.4442V22.0013H15.8887V24.4458ZM15.8887 18.3346H13.4442V15.8902H15.8887V18.3346ZM15.8887 12.2235H13.4442V9.77908H15.8887V12.2235ZM20.7776 30.5569H18.3331V28.1124H20.7776V30.5569ZM20.7776 24.4458H18.3331V22.0013H20.7776V24.4458ZM20.7776 18.3346H18.3331V15.8902H20.7776V18.3346ZM20.7776 12.2235H18.3331V9.77908H20.7776V12.2235Z" fill="#BFBFBF"/>
</g>
<defs>
<clipPath id="clip0_5540_12704">
<rect width="44" height="44" fill="white"/>
</clipPath>
</defs>
</svg>
