<svg width="76" height="76" viewBox="0 0 76 76" fill="none" xmlns="http://www.w3.org/2000/svg">
<rect width="76" height="76" rx="38" fill="#E7EFFE"/>
<path d="M59.9986 38.9163V37.0828C59.9986 35.518 59.3434 34.0296 58.1657 32.6821C57.5264 31.9513 56.7323 31.2617 55.8063 30.6237C55.2606 30.2511 54.6953 29.908 54.1129 29.5959C53.6575 29.3514 53.1936 29.123 52.7221 28.9111C51.3769 28.3116 49.9872 27.8174 48.5655 27.433C48.7415 28.0703 48.9003 28.7276 49.0433 29.402C49.1836 30.062 49.308 30.7392 49.4166 31.4301C50.203 31.6862 50.9766 31.9799 51.7349 32.3101C52.0766 32.46 52.4107 32.6154 52.7352 32.7776C52.9091 32.8643 53.0776 32.9523 53.2439 33.0416C53.8214 33.3524 54.3536 33.6783 54.8362 34.0158C56.5893 35.2382 57.7038 36.6153 58.0496 37.9999C57.7038 39.3838 56.5893 40.7602 54.8362 41.9833C55.0239 42.4803 55.1916 42.9691 55.336 43.4518C55.5333 44.1083 55.6901 44.7511 55.8063 45.3754C56.7323 44.7374 57.5264 44.0485 58.1657 43.317C59.3434 41.9695 59.9986 40.4804 59.9986 38.9163ZM33.1731 49.6516C32.4055 49.039 31.6595 48.3997 30.9366 47.7349C31.0844 48.3011 31.249 48.8628 31.4303 49.4193C32.0009 49.5086 32.5832 49.5856 33.1731 49.6516ZM37.1248 48.0766C37.9482 48.6742 38.7984 49.2339 39.6727 49.7541C39.7435 49.796 39.815 49.8366 39.8858 49.8778C41.4537 49.8122 43.0167 49.6596 44.5677 49.4206C45.26 49.312 45.9365 49.1869 46.5972 49.0473C47.2716 48.9043 47.9282 48.7448 48.5655 48.5695C49.9871 48.1849 51.3768 47.6907 52.7221 47.0914C52.6115 46.4784 52.4653 45.8724 52.2842 45.2764C52.2296 45.0938 52.1723 44.9121 52.1123 44.7312C51.9968 44.3874 51.8703 44.0403 51.7342 43.6924C50.9993 44.0141 50.2251 44.3084 49.4166 44.5724C48.8701 44.7511 48.3077 44.9154 47.7322 45.066C47.6518 45.0866 47.5714 45.1086 47.4916 45.1286C46.5056 45.3796 45.5086 45.5854 44.5037 45.7453C43.4828 45.9103 42.4344 46.0361 41.3619 46.1206C40.2619 46.2086 39.1378 46.2533 38 46.2533C36.8778 46.2538 35.7561 46.2095 34.6374 46.1206C35.4396 46.8062 36.2694 47.4587 37.1248 48.0766ZM23.7144 30.7282C23.8772 31.2631 24.0607 31.7915 24.2644 32.3122C25.0223 31.9821 25.7954 31.6884 26.5813 31.4322C27.2168 31.2253 27.8591 31.0398 28.507 30.876C29.4931 30.6255 30.4901 30.4202 31.4949 30.2607C32.5158 30.095 33.5642 29.9692 34.6374 29.8839C35.7374 29.7966 36.8608 29.7519 37.9993 29.7519C39.1378 29.7519 40.2612 29.7966 41.3612 29.8839C40.2877 28.9682 39.1657 28.1111 38 27.3161C37.4529 26.9449 36.8948 26.59 36.3266 26.2519C36.2551 26.2093 36.185 26.1687 36.1135 26.1274C34.5454 26.1932 32.9821 26.3458 31.4309 26.5846C30.7517 26.6912 30.0754 26.8157 29.4028 26.9579C28.7284 27.1016 28.0704 27.2604 27.4331 27.4358C26.0117 27.8204 24.6222 28.3146 23.2772 28.9139C23.3803 29.4941 23.5261 30.0998 23.7151 30.7289M42.8263 26.3536C43.5935 26.9667 44.3394 27.606 45.0627 28.2704C44.9145 27.7041 44.7494 27.1424 44.5677 26.586C43.989 26.4959 43.4083 26.4184 42.8263 26.3536ZM17.9497 37.9985C18.2956 36.6146 19.41 35.2375 21.1624 34.0151C20.9784 33.5318 20.812 33.042 20.6633 32.5466C20.4716 31.9145 20.3149 31.2723 20.1937 30.623C19.267 31.2603 18.4729 31.9499 17.8336 32.6814C16.6552 34.0289 16 35.5173 16 37.0814V38.9156C16 40.4804 16.6552 41.9681 17.8329 43.3163C18.4722 44.0471 19.2663 44.7367 20.1931 45.3747C20.7156 45.7336 21.2814 46.0773 21.8857 46.4018C22.3284 46.6411 22.7932 46.8693 23.2765 47.0873C24.6217 47.6863 26.0111 48.1805 27.4324 48.5654C27.2545 47.9138 27.0954 47.2572 26.9553 46.5964C26.8131 45.9237 26.6886 45.2475 26.582 44.5683C25.7958 44.3124 25.0223 44.0187 24.2644 43.6883C23.7516 43.4655 23.2481 43.2217 22.7554 42.9574C22.206 42.6635 21.6742 42.338 21.1624 41.9826C19.4093 40.7588 18.2956 39.3831 17.9497 37.9985Z" fill="#2F577E"/>
<path d="M42.8263 49.6459C41.849 49.7554 40.8683 49.8308 39.8858 49.8721C40.4007 50.1725 40.9143 50.4551 41.4279 50.7149C41.9017 50.3688 42.368 50.0124 42.8263 49.6459ZM54.2037 23.0946L52.9071 21.798C51.8002 20.6911 50.2849 20.1026 48.4988 19.983C47.5301 19.9177 46.481 19.9919 45.3748 20.1961C44.7513 20.3116 44.1078 20.4684 43.4512 20.6657C42.9699 20.8108 42.4797 20.9771 41.9834 21.1655C40.6084 21.6926 39.2765 22.3261 38 23.0603C38.5741 23.3868 39.1516 23.7388 39.7297 24.1142C40.3061 24.4893 40.8724 24.8797 41.4279 25.285C42.1869 24.9 42.9418 24.5604 43.6898 24.2682C44.0369 24.1321 44.3841 24.0056 44.7279 23.8908C44.9121 23.8296 45.0929 23.7725 45.2738 23.7189C45.8697 23.5375 46.4757 23.391 47.0888 23.2803C49.1925 22.9056 50.9546 23.0919 52.1762 23.8261" fill="#F4B563"/>
<path d="M52.1763 23.8214C52.9119 25.0451 53.0962 26.8058 52.7222 28.9103C53.2062 29.1282 53.6709 29.3571 54.113 29.595C54.718 29.9202 55.2824 30.2633 55.8063 30.6228C56.0098 29.5166 56.0847 28.4682 56.0194 27.4988C55.8998 25.7134 55.3099 24.1975 54.2037 23.0906C53.9862 22.874 53.7514 22.6753 53.5018 22.4966M44.5038 45.7451C45.5086 45.5854 46.5056 45.3799 47.4917 45.1291C47.5714 45.1085 47.6518 45.0878 47.7323 45.0658C48.7938 43.9105 49.7906 42.6972 50.7181 41.4317C51.1299 40.8659 51.5204 40.2987 51.8882 39.7336C52.2636 39.1547 52.6156 38.5786 52.9428 38.0038C53.6762 36.7269 54.3092 35.3948 54.8362 34.0198C54.3249 33.6643 53.7932 33.3391 53.244 33.0456C53.0776 32.9562 52.9092 32.8682 52.7352 32.7816C52.4057 32.6175 52.0722 32.4616 51.7349 32.3141C51.432 33.0838 51.0925 33.8387 50.7174 34.576C50.4568 35.0888 50.1743 35.6024 49.8745 36.1173L49.7508 36.3305C49.2305 37.2047 48.6707 38.0549 48.0733 38.8783C47.4548 39.7335 46.8021 40.5633 46.1167 41.3657C45.3884 42.2195 44.6265 43.044 43.8328 43.8373C43.04 44.631 42.2157 45.3927 41.3619 46.1205C42.4139 46.038 43.462 45.9128 44.5038 45.7451ZM33.1731 26.35C34.1503 26.2408 35.1311 26.1656 36.1135 26.1245C35.6077 25.8283 35.0932 25.547 34.5708 25.281C34.0973 25.6273 33.6313 25.9838 33.1731 26.35ZM23.8217 52.178C23.0882 50.9543 22.9018 49.1929 23.2765 47.0898C22.7925 46.8712 22.3285 46.643 21.8857 46.4044C21.3036 46.0926 20.7388 45.7495 20.1938 45.3766C19.9889 46.4835 19.9153 47.5312 19.9807 48.5006C20.1003 50.2867 20.6888 51.802 21.7957 52.9088L23.093 54.2048C24.1992 55.3116 25.7144 55.9008 27.5005 56.0205C28.4699 56.0858 29.5183 56.0115 30.6245 55.8073C31.2738 55.6858 31.916 55.5288 32.5482 55.3371C33.0308 55.1927 33.5196 55.0256 34.016 54.838C35.3909 54.3105 36.7229 53.6772 38 52.9439C37.4135 52.6091 36.8367 52.2577 36.2703 51.89C35.6941 51.5146 35.1279 51.1242 34.5722 50.7191C33.8138 51.1041 33.0583 51.4438 32.3103 51.7366C31.9674 51.8705 31.6212 51.9958 31.2722 52.1127C31.0879 52.1746 30.9071 52.2316 30.7263 52.286C30.0979 52.475 29.4922 52.6201 28.9113 52.7239C26.8075 53.0979 25.0462 52.9123 23.8224 52.178M22.7554 42.9559C23.2482 43.2202 23.7516 43.464 24.2645 43.6867C24.5667 42.9169 24.9062 42.1623 25.282 41.4255C25.5418 40.9126 25.8237 40.3991 26.1242 39.8841L26.2479 39.671C26.5863 39.1027 26.9417 38.5446 27.3135 37.9976C28.1084 36.8313 28.9661 35.7091 29.8827 34.6358C30.6106 33.7819 31.3725 32.9576 32.1666 32.1649C32.9592 31.3705 33.7835 30.6083 34.6375 29.8803C33.2302 29.9908 31.8299 30.1781 30.443 30.4413C29.7126 30.5818 28.9872 30.7467 28.2678 30.9356C27.2055 32.0903 26.2084 33.3033 25.2813 34.5691C24.8688 35.1349 24.4783 35.7014 24.1105 36.2672C23.7425 36.8335 23.391 37.4103 23.0565 37.997C22.3227 39.2738 21.6894 40.6058 21.1625 41.981C21.6458 42.3179 22.1772 42.6451 22.7554 42.9559Z" fill="#F4B563"/>
<path d="M26.3503 42.8238C26.241 41.8466 26.1656 40.8658 26.1241 39.8834C25.8281 40.3888 25.547 40.9028 25.2812 41.4248C25.6229 41.8923 25.979 42.3598 26.3503 42.8238ZM23.8217 23.8254C25.0454 23.0912 26.8075 22.9049 28.9105 23.2796C29.1285 22.7963 29.3574 22.3315 29.596 21.8888C29.9076 21.3063 30.2507 20.7413 30.6238 20.1961C29.5169 19.9919 28.4692 19.9177 27.4998 19.983C25.7137 20.1026 24.1984 20.6911 23.0922 21.798L21.7949 23.0946C20.688 24.2015 20.0995 25.7168 19.9799 27.5029C19.9146 28.4723 19.9882 29.5207 20.193 30.6269C20.3085 31.2511 20.4653 31.8933 20.6633 32.5505C20.8077 33.0324 20.974 33.5219 21.1624 34.0183C21.6894 35.3935 22.3227 36.7255 23.0565 38.0024C23.383 37.4276 23.735 36.8515 24.1104 36.2726C24.4858 35.6965 24.8762 35.1302 25.2812 34.5745C24.9056 33.8375 24.566 33.0826 24.2637 32.3126C24.0602 31.7919 23.877 31.2635 23.7144 30.7286C23.5331 30.1327 23.3868 29.5267 23.2765 28.9136C22.9018 26.8099 23.0881 25.0485 23.8217 23.8254ZM49.6483 33.1734C49.7562 34.1311 49.8319 35.1128 49.8745 36.1138C50.1749 35.5989 50.4568 35.0853 50.7181 34.5718C50.3716 34.098 50.0149 33.6318 49.6483 33.1734ZM45.7412 31.4952C45.5815 30.4901 45.376 29.4929 45.1252 28.5066L45.0627 28.2674C43.9068 27.2059 42.6934 26.2089 41.4279 25.2809C40.8721 24.8758 40.3056 24.4856 39.729 24.1108C39.1628 23.7427 38.586 23.3912 37.9993 23.0568C36.7224 22.323 35.3904 21.6898 34.0152 21.1628C33.66 21.6741 33.3349 22.2057 33.0417 22.755C32.9524 22.9214 32.8644 23.0905 32.7771 23.2638C32.6155 23.5876 32.4601 23.9231 32.3095 24.2648C33.0796 24.5665 33.8344 24.9056 34.5714 25.2809C35.0843 25.5421 35.5979 25.824 36.1135 26.1244L36.3259 26.2489C37.2006 26.7687 38.051 27.3282 38.8745 27.9257C39.7126 28.5307 40.5437 29.1838 41.3619 29.8816C42.2157 30.6098 43.04 31.3719 43.8327 32.1662C44.6266 32.9591 45.3885 33.7834 46.1166 34.6371C46.034 33.5851 45.9092 32.5369 45.7412 31.4952ZM30.2587 44.5034C30.419 45.508 30.6241 46.5049 30.8734 47.4913L30.9366 47.7319C32.0915 48.7938 33.3048 49.7904 34.5707 50.717C35.1372 51.1295 35.7044 51.52 36.2696 51.8878C36.8477 52.2625 37.4252 52.6152 37.9993 52.9424C39.2763 53.6757 40.6083 54.3088 41.9834 54.8358C42.3202 54.3532 42.6468 53.8211 42.9569 53.2436C43.2211 52.7506 43.4654 52.2472 43.6891 51.7345C42.919 51.4323 42.1641 51.0928 41.4272 50.717C40.9051 50.4514 40.3911 50.1703 39.8858 49.8741L39.6727 49.7504C38.7983 49.2302 37.9482 48.6705 37.1248 48.0729C36.2694 47.4548 35.4395 46.8021 34.6374 46.1163C33.7834 45.3886 32.9591 44.6266 32.1665 43.8324C31.3723 43.0397 30.6101 42.2154 29.882 41.3615C29.9649 42.4135 30.0906 43.4616 30.2587 44.5034ZM52.9071 54.204L54.2037 52.9081C55.3099 51.8012 55.8997 50.2853 56.0187 48.4991C56.0847 47.5298 56.0097 46.482 55.8055 45.3751C55.6837 44.726 55.5269 44.0838 55.336 43.4515C55.1868 42.9565 55.0201 42.4669 54.8362 41.9837C54.3092 40.6086 53.6762 39.2766 52.9428 37.9996C52.6081 38.5863 52.2564 39.1631 51.8882 39.7294C51.5131 40.3056 51.123 40.8719 50.7181 41.4275C51.0928 42.1649 51.4321 42.9197 51.7349 43.6894C51.8703 44.0366 51.9968 44.3838 52.1116 44.7275C52.1735 44.9118 52.2299 45.0926 52.2842 45.2734C52.4732 45.9018 52.619 46.5074 52.7221 47.0884C53.0961 49.1921 52.9112 50.9535 52.1762 52.1773C50.9539 52.9108 49.1925 53.0971 47.0887 52.7224C46.8701 53.2064 46.6419 53.6712 46.4026 54.1133C46.0774 54.7176 45.7344 55.282 45.3748 55.8059C46.4817 56.0108 47.5301 56.085 48.4988 56.019C50.2849 55.8994 51.8009 55.3102 52.9071 54.204Z" fill="#5CAFCD"/>
<path d="M27.9261 37.1255C27.328 37.9485 26.7683 38.7987 26.2486 39.6734L26.1249 39.8865C26.191 41.4546 26.3436 43.0178 26.5821 44.5691C26.6907 45.2614 26.8158 45.9372 26.9554 46.5979C27.0984 47.2716 27.2579 47.9296 27.4325 48.5669C27.8177 49.9883 28.3118 51.378 28.9106 52.7235C29.4916 52.6204 30.0973 52.4746 30.7256 52.2856C30.9064 52.2306 31.0873 52.1742 31.2715 52.1123C31.6206 51.9952 31.9667 51.8696 32.3096 51.7356C31.9792 50.9774 31.6856 50.2037 31.4296 49.4173C31.2486 48.8609 31.0843 48.2992 30.9367 47.7329L30.8734 47.4923C30.6227 46.5063 30.4176 45.5093 30.2588 44.5044C30.0907 43.4627 29.965 42.4145 29.8821 41.3626C29.7933 40.2441 29.7491 39.1226 29.7494 38.0007C29.7494 36.8615 29.7941 35.7388 29.8821 34.6381C29.1967 35.4404 28.5442 36.2702 27.9261 37.1255ZM49.6484 42.8263C49.0355 43.5934 48.3962 44.3391 47.7316 45.062C48.3078 44.9114 48.8701 44.7471 49.416 44.5684C49.5054 43.9978 49.5824 43.4161 49.6484 42.8263ZM26.3504 33.1751C26.9633 32.4078 27.6028 31.6621 28.2678 30.9394C27.691 31.0906 27.1286 31.2543 26.5821 31.4323C26.4927 32.0036 26.4171 32.5853 26.3504 33.1751ZM48.0733 38.8786C48.6705 38.0549 49.2301 37.2045 49.7501 36.3301C49.7921 36.2592 49.8326 36.1884 49.8739 36.1169C49.8078 34.5489 49.6551 32.9856 49.4167 31.4344C49.3106 30.7549 49.1861 30.0783 49.0434 29.4056C48.9037 28.7446 48.7443 28.088 48.5656 27.4366C48.1812 26.0152 47.6873 24.6257 47.0881 23.2806C46.5072 23.3837 45.9015 23.5295 45.2731 23.7186C45.0903 23.7733 44.9083 23.8308 44.7273 23.8911C44.3835 24.0059 44.0363 24.1324 43.6891 24.2686C44.0102 25.0042 44.3044 25.7776 44.5684 26.5861C44.7472 27.1327 44.9115 27.6951 45.0628 28.2712L45.1246 28.5111C45.3753 29.4972 45.5809 30.4942 45.7406 31.499C45.9056 32.5193 46.0321 33.5684 46.1167 34.6409C46.2939 36.8791 46.2939 39.1278 46.1167 41.366C46.8021 40.5636 47.4549 39.7338 48.0733 38.8786ZM45.3749 20.1937C44.7376 19.2663 44.048 18.4722 43.3172 17.8329C41.9697 16.6552 40.4806 16 38.9165 16H37.0829C35.5182 16 34.0298 16.6552 32.6816 17.8329C31.9508 18.4722 31.2619 19.2663 30.6239 20.1931C30.2508 20.7382 29.9077 21.3032 29.5961 21.8857C29.3513 22.3411 29.1227 22.805 28.9106 23.2765C28.3118 24.6218 27.8176 26.0112 27.4325 27.4324C28.0841 27.2544 28.7407 27.0953 29.4015 26.9553C30.0741 26.813 30.7504 26.6885 31.4296 26.582C31.6855 25.796 31.9792 25.0228 32.3096 24.2651C32.4602 23.9227 32.6156 23.5879 32.7771 23.2628C32.8644 23.0902 32.9531 22.9211 33.0418 22.7554C33.3349 22.2059 33.66 21.674 34.0153 21.1624C35.2391 19.4093 36.6154 18.2956 37.9994 17.9497C39.384 18.2956 40.7604 19.41 41.9834 21.1624C42.4667 20.9787 42.9563 20.812 43.4513 20.6626M37.0829 60H38.9165C40.4806 60 41.969 59.3441 43.3165 58.1664C44.0473 57.5271 44.7376 56.733 45.3749 55.8063C45.7477 55.2612 46.0908 54.6964 46.4027 54.1143C46.6413 53.6709 46.8702 53.2068 47.0881 52.7228C47.6875 51.3778 48.1817 49.9883 48.5663 48.5669L46.5973 49.044C45.9373 49.1842 45.2601 49.3094 44.5684 49.4173C44.3125 50.2037 44.0188 50.9774 43.6884 51.7356C43.5386 52.0773 43.3839 52.4121 43.2209 52.7366C43.1353 52.9071 43.0473 53.0765 42.9569 53.2446C42.6476 53.8221 42.321 54.3543 41.9834 54.8376C40.7604 56.5907 39.384 57.7044 37.9994 58.0496C36.6154 57.7038 35.2391 56.59 34.0153 54.8376C33.5189 55.0252 33.0301 55.1916 32.5475 55.3367L30.6239 55.8063C31.2619 56.733 31.9508 57.5278 32.6816 58.1664C34.0291 59.3441 35.5182 60 37.0829 60Z" fill="#47B178"/>
</svg>
