<svg width="24" height="24" viewBox="0 0 24 24" fill="none" xmlns="http://www.w3.org/2000/svg">
<path fill-rule="evenodd" clip-rule="evenodd" d="M4.3185 4.3176C3 5.637 3 7.7574 3 12C3 16.2426 3 18.3639 4.3185 19.6815C5.6352 21 7.7574 21 12 21C16.2426 21 18.3639 21 19.6824 19.6815C21 18.3648 21 16.2426 21 12C21 7.7574 21 5.6361 19.6824 4.3176C18.363 3 16.2426 3 12 3C7.7574 3 5.6361 3 4.3185 4.3176ZM12.927 8.823C12.8652 8.75668 12.7907 8.70349 12.7079 8.6666C12.6251 8.6297 12.5357 8.60987 12.4451 8.60827C12.3544 8.60667 12.2644 8.62334 12.1804 8.65729C12.0963 8.69124 12.02 8.74177 11.9559 8.80587C11.8918 8.86996 11.8412 8.94631 11.8073 9.03036C11.7733 9.11441 11.7567 9.20444 11.7583 9.29507C11.7599 9.3857 11.7797 9.47508 11.8166 9.55788C11.8535 9.64068 11.9067 9.7152 11.973 9.777L14.196 12L11.973 14.223C11.9067 14.2848 11.8535 14.3593 11.8166 14.4421C11.7797 14.5249 11.7599 14.6143 11.7583 14.7049C11.7567 14.7956 11.7733 14.8856 11.8073 14.9696C11.8412 15.0537 11.8918 15.13 11.9559 15.1941C12.02 15.2582 12.0963 15.3088 12.1804 15.3427C12.2644 15.3767 12.3544 15.3933 12.4451 15.3917C12.5357 15.3901 12.6251 15.3703 12.7079 15.3334C12.7907 15.2965 12.8652 15.2433 12.927 15.177L15.627 12.477C15.7534 12.3504 15.8244 12.1789 15.8244 12C15.8244 11.8211 15.7534 11.6496 15.627 11.523L12.927 8.823ZM8.373 8.823C8.49956 8.69659 8.67112 8.62559 8.85 8.62559C9.02888 8.62559 9.20044 8.69659 9.327 8.823L12.027 11.523C12.1534 11.6496 12.2244 11.8211 12.2244 12C12.2244 12.1789 12.1534 12.3504 12.027 12.477L9.327 15.177C9.2652 15.2433 9.19068 15.2965 9.10788 15.3334C9.02509 15.3703 8.9357 15.3901 8.84507 15.3917C8.75444 15.3933 8.66441 15.3767 8.58036 15.3427C8.49631 15.3088 8.41996 15.2582 8.35587 15.1941C8.29177 15.13 8.24124 15.0537 8.20729 14.9696C8.17334 14.8856 8.15667 14.7956 8.15827 14.7049C8.15987 14.6143 8.1797 14.5249 8.2166 14.4421C8.25349 14.3593 8.30668 14.2848 8.373 14.223L10.596 12L8.373 9.777C8.24659 9.65044 8.17559 9.47887 8.17559 9.3C8.17559 9.12112 8.24659 8.94956 8.373 8.823Z" fill="#EFEEEE"/>
</svg>
