<svg width="24" height="24" viewBox="0 0 24 24" fill="none" xmlns="http://www.w3.org/2000/svg">
<circle cx="12" cy="12" r="12" transform="rotate(-180 12 12)" fill="#4B4B4B"/>
<path fill-rule="evenodd" clip-rule="evenodd" d="M12 17.625C11.6548 17.625 11.375 17.3092 11.375 16.9197L11.375 7.08034C11.375 6.69079 11.6548 6.375 12 6.375C12.3452 6.375 12.625 6.69079 12.625 7.08034L12.625 16.9197C12.625 17.3092 12.3452 17.625 12 17.625Z" fill="#DEDEDE"/>
<path fill-rule="evenodd" clip-rule="evenodd" d="M16.7908 11.7941C16.5118 12.0686 16.0596 12.0686 15.7806 11.7941L12 8.07249L8.21936 11.7941C7.94042 12.0686 7.48815 12.0686 7.20921 11.7941C6.93026 11.5195 6.93026 11.0743 7.20921 10.7997L11.4949 6.58094C11.7739 6.30635 12.2261 6.30635 12.5051 6.58094L16.7908 10.7997C17.0697 11.0743 17.0697 11.5195 16.7908 11.7941Z" fill="#DEDEDE"/>
</svg>
