<svg xmlns="http://www.w3.org/2000/svg" fill="none" viewBox="3.5 3 14 14">
<path d="M15.75 3C16.707 3 17.5 3.79297 17.5 4.75V12.625C17.5 13.6094 16.707 14.375 15.75 14.375H11.8125L8.39453 16.9453C8.3125 17 8.25781 17 8.20312 17C8.01172 17 7.875 16.8906 7.875 16.6719V14.375H5.25C4.26562 14.375 3.5 13.6094 3.5 12.625V4.75C3.5 3.79297 4.26562 3 5.25 3H15.75ZM16.625 12.625V4.75C16.625 4.28516 16.2148 3.875 15.75 3.875H5.25C4.75781 3.875 4.375 4.28516 4.375 4.75V12.625C4.375 13.1172 4.75781 13.5 5.25 13.5H8.75V15.5781L11.2656 13.6914L11.5117 13.5H15.75C16.2148 13.5 16.625 13.1172 16.625 12.625Z" fill="#02ADEE"/>
</svg>