<svg width="12" height="12" viewBox="0 0 12 12" fill="none" xmlns="http://www.w3.org/2000/svg">
<g clip-path="url(#clip0_2295_528)">
<path d="M10.2812 1.125H1.84375C1.36914 1.125 1 1.51172 1 1.96875V7.59375C1 8.06836 1.36914 8.4375 1.84375 8.4375H5.21875L4.9375 9.28125H3.67188C3.42578 9.28125 3.25 9.47461 3.25 9.70312C3.25 9.94922 3.42578 10.125 3.67188 10.125H8.45312C8.68164 10.125 8.875 9.94922 8.875 9.70312C8.875 9.47461 8.68164 9.28125 8.45312 9.28125H7.1875L6.90625 8.4375H10.2812C10.7383 8.4375 11.125 8.06836 11.125 7.59375V1.96875C11.125 1.51172 10.7383 1.125 10.2812 1.125ZM10 6.1875H2.125V2.25H10V6.1875Z" fill="white"/>
</g>
<defs>
<clipPath id="clip0_2295_528">
<rect width="12" height="12" fill="white"/>
</clipPath>
</defs>
</svg>
