<svg width="20" height="20" viewBox="0 0 20 20" fill="none" xmlns="http://www.w3.org/2000/svg">
<path d="M18.6484 14.9609C19.1055 15.3828 19.1055 16.1211 18.6484 16.543L16.2578 18.9336C16.0469 19.1445 15.7656 19.2852 15.4844 19.2852C15.2031 19.2852 14.8867 19.1445 14.6758 18.9336L10.3164 14.5742C9.33203 13.5898 9.22656 12.1133 9.92969 11.0234L6.94141 8H4.375L1 3.5L3.25 1.25L7.75 4.625V7.22656L10.7383 10.2148C11.1953 9.89844 11.7578 9.75781 12.2852 9.75781C13.0234 9.75781 13.7266 10.0391 14.2891 10.5664L18.6484 14.9609ZM6.625 6.83984V5.1875L3.35547 2.76172L2.47656 3.60547L4.9375 6.875H6.625V6.83984ZM15.4844 18.125L17.875 15.7695L13.4805 11.375C13.1641 11.0586 12.7422 10.8828 12.2852 10.8828C11.8281 10.8828 11.4062 11.0586 11.0898 11.375C10.7734 11.6914 10.5977 12.1133 10.5977 12.5703C10.5977 13.0273 10.7734 13.4492 11.0898 13.7656L15.4844 18.125ZM3.25 16.4375C3.25 16.1562 3.49609 15.875 3.8125 15.875C4.09375 15.875 4.375 16.1562 4.375 16.4375C4.375 16.7539 4.09375 17 3.8125 17C3.49609 17 3.25 16.7539 3.25 16.4375ZM10.7031 3.60547C9.68359 4.625 9.29688 6.10156 9.64844 7.54297L8.875 6.76953V4.37891C9.12109 3.81641 9.47266 3.28906 9.92969 2.83203C11.2656 1.49609 13.1289 0.96875 14.957 1.42578C15.2734 1.49609 15.5547 1.77734 15.6602 2.09375C15.7305 2.44531 15.625 2.79688 15.4141 3.04297L13.1641 5.29297L13.4102 6.83984L14.957 7.08594L17.207 4.83594C17.4531 4.58984 17.8047 4.51953 18.1562 4.58984C18.4727 4.69531 18.7539 4.94141 18.8242 5.29297C19.2812 7.12109 18.7539 8.98438 17.418 10.3203C17.1016 10.6367 16.7852 10.918 16.3984 11.1289L15.5898 10.2852C15.9766 10.1094 16.3281 9.86328 16.6445 9.54688C17.5938 8.5625 18.0156 7.19141 17.8047 5.85547L15.3438 8.28125L12.4258 7.82422L11.9688 4.90625L14.3945 2.44531C14.1484 2.41016 13.9023 2.375 13.6562 2.375C12.5664 2.375 11.5117 2.83203 10.7031 3.60547ZM4.76172 17.7031L8.55859 13.8711C8.69922 14.2227 8.875 14.5742 9.12109 14.8906L5.53516 18.4766C5.04297 19.0039 4.375 19.25 3.63672 19.25C2.93359 19.25 2.26562 19.0039 1.77344 18.4766C0.71875 17.457 0.71875 15.7344 1.77344 14.7148L6.90625 9.58203L7.67969 10.3555L2.54688 15.4883C1.94922 16.0859 1.94922 17.0703 2.54688 17.7031C3.14453 18.2656 4.16406 18.2656 4.76172 17.7031Z" fill="#E8EDEF"/>
</svg>
