<svg width="18" height="18" viewBox="0 0 18 18" fill="none" xmlns="http://www.w3.org/2000/svg">
<g clip-path="url(#clip0_15541_77708)">
<path fill-rule="evenodd" clip-rule="evenodd" d="M14.8807 8.24687C15.6528 11.4038 13.6913 14.5819 10.4994 15.3456C7.30788 16.1091 4.09432 14.1693 3.32243 11.0123C2.55011 7.85537 4.51183 4.67725 7.70332 3.91351L7.71429 3.91098C10.8907 3.14317 14.095 5.06734 14.8715 8.20919L14.8807 8.24687Z" fill="#59B3D8"/>
<path fill-rule="evenodd" clip-rule="evenodd" d="M8.26071 11.9823C8.25888 11.1193 7.54985 10.4214 6.67741 10.4235H6.43821C6.64099 9.58933 6.12208 8.75078 5.27861 8.55011C5.15414 8.52035 5.02649 8.5059 4.89851 8.50708H3.25657C2.90149 10.3142 3.43179 12.1812 4.68729 13.5409H6.67699C7.54957 13.543 8.2586 12.8451 8.26071 11.9823ZM10.2214 5.51908C10.2214 5.61034 10.2334 5.70133 10.2573 5.78978H9.57372C8.6674 5.78978 7.93305 6.51653 7.93305 7.41302C7.93305 8.30908 8.6674 9.03583 9.57372 9.03583H15.0082C14.8313 7.09703 13.6742 5.37817 11.9338 4.46875H11.2863C10.6989 4.46847 10.2228 4.9383 10.2214 5.51908ZM15.0087 10.2422H11.7668C11.0272 10.2404 10.4265 10.831 10.4235 11.562C10.4233 11.7819 10.4788 11.9982 10.585 12.1908C9.88141 12.4082 9.48921 13.149 9.70915 13.8452C9.8838 14.3984 10.4036 14.7743 10.9897 14.7718H11.8935C13.6251 13.8642 14.7913 12.1688 15.0087 10.2422Z" fill="#B6DEEC"/>
<path fill-rule="evenodd" clip-rule="evenodd" d="M2.44434 5.71461C2.42056 5.71487 2.39696 5.71043 2.37489 5.70156C2.35282 5.69268 2.33272 5.67954 2.31574 5.66289C2.29876 5.64623 2.28523 5.62639 2.27593 5.6045C2.26663 5.58261 2.26173 5.5591 2.26153 5.53531V5.53489C2.25858 4.40089 1.3282 3.48359 0.181688 3.48472C0.133773 3.48494 0.087728 3.46614 0.0536629 3.43245C0.0195979 3.39875 0.000297545 3.35291 0 3.305C0 3.20614 0.0814219 3.1257 0.181688 3.1257C1.3268 3.12669 2.25675 2.21122 2.26153 1.07905C2.26267 1.05518 2.2685 1.03177 2.27871 1.01016C2.28892 0.988554 2.3033 0.969177 2.32102 0.953144C2.33874 0.937111 2.35945 0.924736 2.38196 0.916731C2.40448 0.908726 2.42836 0.905249 2.45222 0.906498C2.54672 0.910436 2.62238 0.985248 2.62673 1.07905C2.62969 2.21262 3.56034 3.12992 4.70686 3.12894C4.80713 3.12894 4.88855 3.20937 4.88855 3.30851C4.88855 3.4078 4.80713 3.48837 4.70686 3.48837C3.56105 3.48683 2.63039 4.40342 2.62673 5.53672C2.62533 5.63515 2.54391 5.71461 2.44434 5.71461Z" fill="#B7D332"/>
<path fill-rule="evenodd" clip-rule="evenodd" d="M15.2719 17.268C15.2435 17.2681 15.2161 17.257 15.1958 17.2369C15.1756 17.2169 15.1641 17.1897 15.1639 17.1612C15.1614 16.4833 14.6042 15.9351 13.9188 15.9365C13.9047 15.9367 13.8907 15.934 13.8777 15.9288C13.8646 15.9235 13.8527 15.9157 13.8426 15.9058C13.8326 15.896 13.8246 15.8842 13.8191 15.8712C13.8135 15.8582 13.8107 15.8443 13.8105 15.8302C13.8105 15.7713 13.8586 15.7235 13.9181 15.7235H13.9188C14.604 15.7238 15.16 15.176 15.1625 14.4985C15.1626 14.4842 15.1654 14.4701 15.171 14.4569C15.1765 14.4438 15.1846 14.4318 15.1948 14.4218C15.2049 14.4118 15.217 14.4039 15.2302 14.3985C15.2435 14.3932 15.2576 14.3905 15.2719 14.3906C15.2862 14.3905 15.3003 14.3933 15.3135 14.3986C15.3267 14.404 15.3387 14.4119 15.3488 14.4219C15.3589 14.432 15.367 14.4439 15.3725 14.457C15.378 14.4702 15.3809 14.4842 15.3809 14.4985C15.3834 15.176 15.9395 15.7238 16.6245 15.7235C16.6386 15.7233 16.6525 15.7259 16.6656 15.7312C16.6787 15.7364 16.6906 15.7442 16.7007 15.7541C16.7108 15.764 16.7188 15.7758 16.7243 15.7888C16.7298 15.8017 16.7326 15.8157 16.7327 15.8298C16.7327 15.8439 16.7299 15.8578 16.7245 15.8708C16.7191 15.8838 16.7112 15.8956 16.7012 15.9056C16.6912 15.9155 16.6793 15.9233 16.6663 15.9286C16.6532 15.934 16.6392 15.9366 16.6252 15.9365H16.6245C15.9395 15.9362 15.383 16.484 15.3809 17.1619C15.3805 17.1904 15.3689 17.2176 15.3485 17.2374C15.3281 17.2573 15.3007 17.2683 15.2722 17.268H15.2719Z" fill="#0072C5"/>
<path fill-rule="evenodd" clip-rule="evenodd" d="M17.7638 4.33649C17.1964 3.41694 15.7705 3.20459 13.6427 3.71999C12.9797 3.88628 12.3273 4.09215 11.689 4.33649C12.099 4.53466 12.4852 4.77871 12.8403 5.06394C13.2022 4.94638 13.5576 4.84035 13.8966 4.75836C14.4634 4.60993 15.0456 4.52842 15.6313 4.5155C16.3283 4.5155 16.7128 4.6858 16.8415 4.89322C17.0518 5.23395 16.8582 6.13297 15.6207 7.54695C15.4005 7.79853 15.153 8.05334 14.8924 8.30956C13.5336 9.60795 12.0313 10.7473 10.4145 11.7055C8.80889 12.6995 7.09482 13.5066 5.30572 14.1109C3.15177 14.805 1.6814 14.791 1.35149 14.2583C1.02215 13.7256 1.68112 12.4234 3.28874 10.8425C3.19031 10.3931 3.14603 9.93347 3.15683 9.47352C0.597459 11.7616 -0.230822 13.7436 0.430537 14.8146C0.776897 15.375 1.5336 15.6905 2.63905 15.6905C3.95192 15.6357 5.2453 15.3534 6.46166 14.8564C8.03249 14.2503 9.54406 13.5006 10.9771 12.6168C12.4201 11.7532 13.7799 10.7576 15.0389 9.64283C15.5325 9.20493 15.9995 8.73813 16.4377 8.24488C17.8731 6.60589 18.3314 5.25406 17.7638 4.33649Z" fill="black"/>
</g>
<defs>
<clipPath id="clip0_15541_77708">
<rect width="18" height="18" fill="white"/>
</clipPath>
</defs>
</svg>
