<svg width="24" height="24" viewBox="0 0 24 24" fill="none" xmlns="http://www.w3.org/2000/svg">
<path fill-rule="evenodd" clip-rule="evenodd" d="M17.7595 16.2734C16.9366 16.2734 16.2695 16.9405 16.2695 17.7634C16.2695 18.5863 16.9366 19.2534 17.7595 19.2534C18.5824 19.2534 19.2495 18.5863 19.2495 17.7634C19.2495 16.9405 18.5824 16.2734 17.7595 16.2734ZM14.7695 17.7634C14.7695 16.1121 16.1082 14.7734 17.7595 14.7734C19.4109 14.7734 20.7495 16.1121 20.7495 17.7634C20.7495 19.4148 19.4109 20.7534 17.7595 20.7534C16.1082 20.7534 14.7695 19.4148 14.7695 17.7634Z" fill="#EFEEEE"/>
<path fill-rule="evenodd" clip-rule="evenodd" d="M6.24 16.2734C5.4171 16.2734 4.75 16.9405 4.75 17.7634C4.75 18.5863 5.4171 19.2534 6.24 19.2534C7.0629 19.2534 7.73 18.5863 7.73 17.7634C7.73 16.9405 7.0629 16.2734 6.24 16.2734ZM3.25 17.7634C3.25 16.1121 4.58867 14.7734 6.24 14.7734C7.89133 14.7734 9.23 16.1121 9.23 17.7634C9.23 19.4148 7.89133 20.7534 6.24 20.7534C4.58867 20.7534 3.25 19.4148 3.25 17.7634Z" fill="#EFEEEE"/>
<path fill-rule="evenodd" clip-rule="evenodd" d="M6.24 4.75C5.4171 4.75 4.75 5.4171 4.75 6.24C4.75 7.0629 5.4171 7.73 6.24 7.73C7.0629 7.73 7.73 7.0629 7.73 6.24C7.73 5.4171 7.0629 4.75 6.24 4.75ZM3.25 6.24C3.25 4.58867 4.58867 3.25 6.24 3.25C7.89133 3.25 9.23 4.58867 9.23 6.24C9.23 7.89133 7.89133 9.23 6.24 9.23C4.58867 9.23 3.25 7.89133 3.25 6.24Z" fill="#EFEEEE"/>
<path fill-rule="evenodd" clip-rule="evenodd" d="M14.0496 3.40004C14.3809 3.64857 14.4481 4.11867 14.1996 4.45004L13.1796 5.81004H15.5196C16.2752 5.81004 16.9796 5.99945 17.4899 6.50971C18.0002 7.01997 18.1896 7.72444 18.1896 8.48004V14.88C18.1896 15.2943 17.8538 15.63 17.4396 15.63C17.0254 15.63 16.6896 15.2943 16.6896 14.88V8.48004C16.6896 7.95565 16.559 7.70011 16.4292 7.57037C16.2995 7.44063 16.044 7.31004 15.5196 7.31004H13.1796L14.1996 8.67004C14.4481 9.00142 14.3809 9.47152 14.0496 9.72004C13.7182 9.96857 13.2481 9.90141 12.9996 9.57004L11.0796 7.01004C10.8796 6.74338 10.8796 6.37671 11.0796 6.11004L12.9996 3.55004C13.2481 3.21867 13.7182 3.15152 14.0496 3.40004ZM6.55957 8.37004C6.97378 8.37004 7.30957 8.70583 7.30957 9.12004V14.88C7.30957 15.2943 6.97378 15.63 6.55957 15.63C6.14536 15.63 5.80957 15.2943 5.80957 14.88V9.12004C5.80957 8.70583 6.14536 8.37004 6.55957 8.37004Z" fill="#EFEEEE"/>
</svg>
