<svg width="32" height="32" viewBox="0 0 32 32" fill="none" xmlns="http://www.w3.org/2000/svg">
<g clip-path="url(#clip0_499_2170)">
<path d="M31.4899 24.711L19.2587 3.5259C18.5785 2.3479 17.3604 1.64453 16 1.64453C14.6397 1.64453 13.4214 2.3479 12.7413 3.5259L0.51014 24.7109C-0.170047 25.889 -0.170047 27.2957 0.51014 28.4737C1.19033 29.6518 2.40845 30.3551 3.76882 30.3551H28.2311C29.5915 30.3551 30.8096 29.6517 31.4899 28.4738C32.1701 27.2957 32.1701 25.889 31.4899 24.711ZM29.8663 27.5364C29.525 28.1275 28.9137 28.4804 28.2311 28.4804H3.76882C3.0862 28.4804 2.47495 28.1275 2.1337 27.5364C1.79245 26.9453 1.79245 26.2395 2.1337 25.6484L14.365 4.46334C14.7062 3.87221 15.3175 3.51934 16 3.51934C16.6825 3.51934 17.2939 3.87221 17.6351 4.46334L29.8663 25.6484C30.2075 26.2395 30.2075 26.9453 29.8663 27.5364Z" fill="white"/>
<path d="M16.9372 11.0005H15.0625V20.3743H16.9372V11.0005Z" fill="white"/>
<path d="M15.9999 22.2495C15.3107 22.2495 14.75 22.8102 14.75 23.4994C14.75 24.1886 15.3107 24.7493 15.9999 24.7493C16.689 24.7493 17.2497 24.1886 17.2497 23.4994C17.2497 22.8102 16.6891 22.2495 15.9999 22.2495Z" fill="white"/>
</g>
<defs>
<clipPath id="clip0_499_2170">
<rect width="32" height="32" fill="white"/>
</clipPath>
</defs>
</svg>
