<svg width="76" height="76" viewBox="0 0 76 76" fill="none" xmlns="http://www.w3.org/2000/svg">
<rect width="76" height="76" rx="38" fill="#E7EFFE"/>
<g clip-path="url(#clip0_1919_532)">
<path fill-rule="evenodd" clip-rule="evenodd" d="M59.7808 57.2946V58.832C59.4995 58.9057 59.2471 58.9416 59.0262 58.9416C57.5344 58.9416 56.7893 58.1538 56.7893 56.5768C56.7893 55.121 57.5799 54.3936 59.1594 54.3936C59.8192 54.3936 60.4328 54.5163 61 54.7618V53.659C60.4328 53.4453 59.7887 53.3374 59.0673 53.3374C56.7051 53.3374 55.5228 54.4163 55.5228 56.5768C55.5228 58.8574 56.6842 59.9995 59.0069 59.9995C59.8063 59.9995 60.4695 59.883 61 59.6499V56.2139H59.0303L58.6185 57.2946H59.7808ZM51.4384 58.9407C52.7635 58.9407 53.4263 58.1774 53.4263 56.6497C53.4263 55.1455 52.7635 54.3927 51.4384 54.3927C50.0791 54.3927 49.3997 55.1455 49.3997 56.6497C49.3997 58.1774 50.0791 58.9407 51.4384 58.9407ZM48.133 56.6778C48.133 54.4505 49.2356 53.3374 51.4384 53.3374C53.6077 53.3374 54.6918 54.4505 54.6918 56.6778C54.6918 58.8918 53.6077 59.9995 51.4384 59.9995C49.3329 59.9995 48.232 58.8918 48.133 56.6778ZM42.5892 58.8952H44.0389C45.4036 58.8952 46.0873 58.0932 46.0873 56.4885C46.0873 55.1219 45.4036 54.4391 44.0389 54.4391H42.5892V58.8952ZM44.2231 59.9522H41.3699V53.3847H44.2231C46.2793 53.3847 47.3074 54.4198 47.3074 56.4892C47.3074 58.797 46.2793 59.9522 44.2231 59.9522ZM34.8533 59.9522H33.6008L36.395 53.3847H37.7062L40.5602 59.9522H39.2481L38.4197 58.1606H36.3119L36.73 57.1053H38.0972L37.02 54.6381L34.8533 59.9522ZM29.2323 53.3847H34.2266V54.4408H32.3394V59.9522H31.1204V54.4408H29.2323V53.3847ZM24.2153 59.9522H22.9628L25.7562 53.3847H27.0674L29.9222 59.9522H28.6102L27.7817 58.1606H25.6737L26.0928 57.1053H27.4601L26.3829 54.6381L24.2153 59.9522ZM18.2201 58.8952H19.669C21.0346 58.8952 21.7165 58.0932 21.7165 56.4885C21.7165 55.1219 21.0346 54.4391 19.669 54.4391H18.2201V58.8952ZM19.8529 59.9522H17V53.3847H19.8529C21.9083 53.3847 22.9374 54.4198 22.9374 56.4892C22.9374 58.797 21.9083 59.9522 19.8529 59.9522Z" fill="#612BA6"/>
<path fill-rule="evenodd" clip-rule="evenodd" d="M38.9014 26.6105C39.1364 26.3873 37.7303 26.0938 36.6391 26.838C35.8343 27.3872 35.8085 28.5639 36.5789 29.231C36.6562 29.2969 36.7196 29.344 36.7789 29.3824C37.0037 29.2765 37.2602 29.1695 37.5552 29.0737C38.0538 28.9121 38.468 28.8281 38.8086 28.7837C38.9716 28.6015 39.1613 28.2809 39.1141 27.7002C39.0497 26.9124 38.4526 27.0372 38.9014 26.6105ZM46.2828 30.8879C46.1498 30.8142 45.527 30.8434 45.0893 30.8953C44.2555 30.9937 43.3555 31.2829 43.1583 31.4367C42.7997 31.7139 42.9626 32.1971 43.2277 32.3956C43.9706 32.9505 44.6218 33.3226 45.3091 33.232C45.7311 33.1763 46.1034 32.5084 46.3668 31.9021C46.547 31.4846 46.547 31.0339 46.2828 30.8879ZM43.4355 25.9563C43.3874 26.0656 43.3118 26.1374 43.4251 26.4943L43.4324 26.5147L43.4503 26.5609L43.4975 26.6678C43.7016 27.0851 43.9257 27.4787 44.3004 27.6795C44.3976 27.6634 44.4979 27.6523 44.6016 27.6471C44.9535 27.6316 45.1757 27.6873 45.3164 27.7633C45.3291 27.6933 45.3317 27.5906 45.3237 27.4391C45.2961 26.9106 45.4283 26.0117 44.4125 25.5388C44.029 25.361 43.491 25.4157 43.3116 25.6381C43.3445 25.6424 43.3736 25.649 43.3967 25.6568C43.6679 25.7509 43.4843 25.8441 43.4355 25.9563ZM53.8974 33.2004L53.0224 33.3671L51.3417 16L22.6998 19.3211L26.2284 47.9554L29.581 47.4688C29.3133 47.0866 28.8965 46.6238 28.1843 46.0321C27.1969 45.2119 27.546 43.8186 28.1286 42.9386C28.899 41.4521 32.8693 39.5628 32.6446 37.1868C32.5639 36.3229 32.4265 35.1982 31.6245 34.4276C31.5945 34.7475 31.6486 35.0554 31.6486 35.0554C31.6486 35.0554 31.3191 34.6355 31.1552 34.0626C30.9923 33.8426 30.8645 33.7725 30.6911 33.4793C30.5676 33.8187 30.5839 34.2121 30.5839 34.2121C30.5839 34.2121 30.3145 33.5759 30.2709 33.0386C30.1112 33.279 30.0708 33.7358 30.0708 33.7358C30.0708 33.7358 29.7209 32.7325 29.8006 32.1919C29.6412 31.7216 29.1674 30.7886 29.3013 28.6674C30.1755 29.2797 32.0998 29.1345 32.8496 28.0293C33.0984 27.6634 33.2692 26.6644 32.7252 24.6956C32.3761 23.4332 31.5114 21.5533 31.1741 20.84L31.1339 20.869C31.3113 21.4437 31.6776 22.6479 31.8183 23.2321C32.2439 25.0035 32.358 25.6201 32.158 26.4369C31.9883 27.1467 31.5807 27.6112 30.5478 28.1303C29.515 28.6511 28.1439 27.3837 28.0573 27.3135C27.0535 26.5138 26.2771 25.2095 26.1905 24.5757C26.1005 23.8822 26.5903 23.4656 26.8374 22.8986C26.484 22.9996 26.0902 23.1792 26.0902 23.1792C26.0902 23.1792 26.5603 22.6926 27.1401 22.2717C27.3805 22.1125 27.5213 22.0118 27.7741 21.8012C27.4078 21.7952 27.1103 21.8055 27.1103 21.8055C27.1103 21.8055 27.7211 21.4755 28.3542 21.2351C27.891 21.2144 27.4473 21.2316 27.4473 21.2316C27.4473 21.2316 28.8105 20.6219 29.8873 20.1746C30.6277 19.8708 31.3508 19.9608 31.7575 20.5482C32.291 21.318 32.8513 21.7363 34.0387 21.9954C34.7679 21.672 34.9892 21.5062 35.9055 21.2563C36.7118 20.3695 37.345 20.2549 37.345 20.2549C37.345 20.2549 37.0311 20.543 36.9469 20.9955C37.4043 20.6354 37.9053 20.3344 37.9053 20.3344C37.9053 20.3344 37.7113 20.574 37.5304 20.9545L37.5723 21.017C38.1059 20.6971 38.7331 20.4449 38.7331 20.4449C38.7331 20.4449 38.5539 20.6715 38.3435 20.9648C38.7459 20.9613 39.5619 20.982 39.8784 21.0178C41.7477 21.0589 42.1355 19.0215 42.8527 18.7659C43.7509 18.4451 44.1525 18.2511 45.683 19.7546C46.9964 21.0451 48.0225 23.3553 47.5129 23.8727C47.0857 24.3019 46.2431 23.7051 45.309 22.5411C44.8155 21.9245 44.4423 21.1957 44.2674 20.2695C44.1198 19.4877 43.546 19.0344 43.546 19.0344C43.546 19.0344 43.8788 19.7769 43.8788 20.4311C43.8788 20.7886 43.9235 22.1245 44.4964 22.8745C44.4397 22.9841 44.4133 23.4168 44.3506 23.4997C43.6841 22.6941 42.2522 22.1176 42.0189 21.9475C42.8091 22.595 44.6251 24.0822 45.3227 25.5081C45.9825 26.856 45.5937 28.0918 45.9275 28.4117C46.0225 28.5032 47.3463 30.153 47.6011 30.9817C48.0455 32.4263 47.6278 33.9444 47.0462 34.886L45.422 35.1391C45.1846 35.0734 45.0241 35.0401 44.8114 34.9167C44.9287 34.709 45.1623 34.1908 45.1646 34.0838L45.0731 33.9231C44.5676 34.6389 43.7209 35.3342 43.0175 35.7336C42.0969 36.2554 41.0357 36.1749 40.345 35.9611C38.3848 35.3565 36.5309 34.0316 36.0838 33.6835C36.0838 33.6835 36.0701 33.9615 36.1543 34.0241C36.6484 34.5816 37.7808 35.59 38.8755 36.293L36.5418 36.5495L37.6453 45.139C37.1563 45.209 37.0798 45.2434 36.5444 45.3195C36.0726 43.6525 35.1701 42.5639 34.1835 41.9301C33.3136 41.3708 32.1135 41.245 30.9647 41.4725L30.891 41.558C31.6896 41.475 32.6326 41.5904 33.6011 42.2038C34.5518 42.8049 35.3177 44.3574 35.6 45.2922C35.9611 46.4869 36.2108 47.7648 35.2388 49.1194C34.5475 50.0826 32.5288 50.6145 30.8979 49.4634C31.3336 50.1638 31.9221 50.7368 32.7148 50.8446C33.892 51.0045 35.0089 50.8001 35.7777 50.0108C36.4338 49.3358 36.7823 47.9247 36.6903 46.4384L37.7293 46.2878L38.1042 48.9553L55.3001 46.8846L53.8974 33.2004ZM37.4316 37.1441L39.5953 36.8463C39.9453 37.0038 40.1889 37.0637 40.6085 37.1705C41.2623 37.3406 42.0189 37.5041 43.1394 36.9395C43.4002 36.8104 43.9433 36.3135 44.1629 36.0305L53.0267 34.4224L53.931 45.3666L38.7451 48.1035L37.4316 37.1441ZM50.0068 40.7762L47.1037 38.8613L44.6819 42.9068L41.8653 42.0833L39.3852 45.8686L39.5121 47.06L52.9966 44.5755L52.2133 36.1502L50.0068 40.7762Z" fill="#612BA6"/>
</g>
<defs>
<clipPath id="clip0_1919_532">
<rect width="44" height="43.9996" fill="white" transform="translate(17 16)"/>
</clipPath>
</defs>
</svg>
