<svg width="24" height="24" viewBox="0 0 24 24" fill="none" xmlns="http://www.w3.org/2000/svg">
<path d="M14.5723 8.8326H14.5881C14.9786 8.8326 15.2952 8.51602 15.2952 8.12553C15.2952 7.73504 14.9786 7.41846 14.5881 7.41846H14.5723C14.1818 7.41846 13.8652 7.73504 13.8652 8.12553C13.8652 8.51602 14.1818 8.8326 14.5723 8.8326Z" fill="#E8EDEF"/>
<path d="M22.6296 14.8754H18.3872V3.23207C18.3872 2.52029 17.9059 1.51606 15.6129 0.773914C14.071 0.274862 12.0346 0 9.87879 0C7.72302 0 5.6866 0.274862 4.14462 0.773914C1.85168 1.5161 1.37035 2.52033 1.37035 3.23207V20.7679C1.37035 21.4797 1.85168 22.4839 4.14462 23.226C5.68656 23.7251 7.72297 24 9.87879 24L22.6296 23.9888V14.8754ZM4.58013 2.11933C5.98513 1.66459 7.86693 1.41414 9.87879 1.41414C11.8906 1.41414 13.7724 1.66459 15.1774 2.11933C16.6432 2.59373 16.9731 3.09415 16.9731 3.23207C16.9731 3.37 16.6432 3.87042 15.1774 4.34481C13.7724 4.79956 11.8906 5.05 9.87879 5.05C7.86693 5.05 5.98513 4.79956 4.58013 4.34481C3.11437 3.87042 2.7845 3.37 2.7845 3.23207C2.7845 3.09415 3.11437 2.59373 4.58013 2.11933ZM2.7845 5.11557C3.14534 5.31718 3.59188 5.51139 4.14462 5.69028C5.68656 6.18933 7.72302 6.46419 9.87879 6.46419C12.0346 6.46419 14.071 6.18933 15.6129 5.69028C16.1657 5.51139 16.6123 5.31713 16.9731 5.11557V9.09016C16.9731 9.22804 16.6432 9.72851 15.1774 10.2029C13.7724 10.6576 11.8906 10.9081 9.87879 10.9081C7.86693 10.9081 5.98513 10.6576 4.58013 10.2029C3.11437 9.72851 2.7845 9.22804 2.7845 9.09016V5.11557ZM2.7845 10.9736C3.14534 11.1752 3.59188 11.3694 4.14462 11.5483C5.68656 12.0474 7.72302 12.3222 9.87879 12.3222C12.0346 12.3222 14.071 12.0474 15.6129 11.5483C16.1657 11.3694 16.6123 11.1752 16.9731 10.9736V14.8754H15.087C15.2156 14.7474 15.2952 14.5703 15.2952 14.3744C15.2952 13.9839 14.9786 13.6674 14.5881 13.6674H14.5723C14.1818 13.6674 13.8652 13.9839 13.8652 14.3744C13.8652 14.5703 13.9448 14.7474 14.0734 14.8754H12.7306V16.5845C11.8176 16.717 10.9599 16.7462 9.87879 16.7462C7.86693 16.7462 5.98513 16.4958 4.58013 16.0411C3.11437 15.5667 2.7845 15.0662 2.7845 14.9283V10.9736ZM4.58013 21.8806C3.11437 21.4062 2.7845 20.9058 2.7845 20.7679V16.8117C3.14534 17.0133 3.59188 17.2075 4.14462 17.3864C5.68656 17.8855 7.72302 18.1603 9.87879 18.1603C10.948 18.1603 11.8161 18.1326 12.7306 18.0123V22.5858H9.87879C7.86693 22.5859 5.98513 22.3354 4.58013 21.8806ZM21.2155 22.5746H14.1448V16.2896H21.2155V22.5746Z" fill="#E8EDEF"/>
<path d="M20.3111 18.6889L19.3111 17.689L17.3737 19.6263L16.3181 18.5708L15.3182 19.5707L17.3737 21.6263L20.3111 18.6889Z" fill="#E8EDEF"/>
</svg>
