<svg width="24" height="24" viewBox="0 0 24 24" fill="none" xmlns="http://www.w3.org/2000/svg">
<g clip-path="url(#clip0_1082_813)">
<path d="M16.6176 12.4323C16.4588 12.4323 16.3048 12.4536 16.1581 12.4927C15.9247 11.7823 15.2554 11.2676 14.4679 11.2676C14.2416 11.2676 14.0253 11.3104 13.8261 11.3879C13.5114 10.8858 12.9532 10.5511 12.3181 10.5511C12.191 10.5511 12.067 10.5646 11.9474 10.5901V8.74072C11.9474 8.18719 11.6931 7.69189 11.2954 7.36542C11.4503 6.84082 11.5289 6.29681 11.5289 5.74109C11.5289 2.57538 8.95349 0 5.78778 0C2.62225 0 0.046875 2.57538 0.046875 5.74109C0.046875 8.90662 2.62225 11.482 5.78796 11.482C6.6991 11.482 7.58954 11.2656 8.38953 10.8591V14.259L8.38074 14.2505C8.08704 13.9647 7.69977 13.8049 7.28998 13.8005C6.77893 13.7957 6.29095 14.0394 5.9892 14.4538C5.68744 14.8683 5.60431 15.4061 5.76709 15.8925L6.37811 17.7193C6.7088 18.7073 7.23761 19.5938 7.94971 20.3542L9.32098 21.8179V24H16.5406V21.8813L18.3966 18.603V14.2112C18.3966 13.2303 17.5986 12.4323 16.6176 12.4323ZM5.78778 10.0737C3.3988 10.0737 1.45514 8.13007 1.45514 5.74109C1.45514 3.35193 3.3988 1.40826 5.78778 1.40826C8.17694 1.40826 10.1206 3.35193 10.1206 5.74109C10.1206 6.16425 10.0604 6.57806 9.94189 6.97668C9.06757 7.0882 8.38953 7.83655 8.38953 8.74072V9.20471C7.64191 9.76648 6.72986 10.0737 5.78778 10.0737ZM16.9883 18.232L15.1324 21.5103V22.5917H10.7292V21.2613L8.97748 19.3914C8.40472 18.7798 7.97955 18.067 7.71368 17.2723L7.10248 15.4457C7.07831 15.373 7.10284 15.317 7.12775 15.2827C7.15265 15.2485 7.19769 15.2065 7.27515 15.2087C7.32147 15.2093 7.36542 15.2274 7.39856 15.2596L8.38953 16.2241V17.2811H9.79779V8.74072C9.79779 8.53619 9.96405 8.36993 10.1684 8.36993C10.3729 8.36993 10.5392 8.53619 10.5392 8.74072V16.2345H11.9474V12.33C11.9474 12.1256 12.1137 11.9594 12.3182 11.9594C12.5226 11.9594 12.689 12.1256 12.689 12.33V15.9542H14.0973V13.0466C14.0973 12.8421 14.2635 12.6758 14.4679 12.6758C14.6724 12.6758 14.8387 12.8421 14.8387 13.0466V15.9542H16.2469V14.2112C16.2469 14.0068 16.4134 13.8406 16.6177 13.8406C16.8223 13.8406 16.9885 14.0068 16.9885 14.2112V18.232H16.9883Z" fill="white"/>
<path d="M7.43365 6.05176C7.28571 6.84204 6.59357 7.41553 5.78772 7.41553C4.99927 7.41553 4.31006 6.85669 4.14893 6.08655L2.77051 6.37494C3.0675 7.79401 4.33643 8.82379 5.78772 8.82379C7.27106 8.82379 8.54547 7.76691 8.81775 6.31067L7.43365 6.05176Z" fill="white"/>
<path d="M4.2014 5.04889C4.56962 5.04889 4.92247 4.72498 4.90544 4.34467C4.88823 3.96326 4.59599 3.64062 4.2014 3.64062C3.83299 3.64062 3.48015 3.96436 3.49717 4.34467C3.5142 4.72607 3.80644 5.04889 4.2014 5.04889Z" fill="white"/>
<path d="M7.26194 5.04889C7.63017 5.04889 7.98301 4.72498 7.96599 4.34467C7.94896 3.96326 7.65672 3.64062 7.26194 3.64062C6.89354 3.64062 6.54069 3.96436 6.55772 4.34467C6.57493 4.72607 6.86717 5.04889 7.26194 5.04889Z" fill="white"/>
<path d="M18.2694 0.0820312C15.1039 0.0820312 12.5283 2.65741 12.5283 5.82312C12.5283 8.98865 15.1039 11.564 18.2694 11.564C21.4349 11.564 24.0103 8.98865 24.0103 5.82312C24.0103 2.65741 21.4349 0.0820312 18.2694 0.0820312ZM18.2694 10.1558C15.8802 10.1558 13.9366 8.2121 13.9366 5.82312C13.9366 3.43396 15.8802 1.4903 18.2694 1.4903C20.6586 1.4903 22.6022 3.43396 22.6022 5.82312C22.6022 8.2121 20.6586 10.1558 18.2694 10.1558Z" fill="white"/>
<path d="M18.2981 5.52539C16.8149 5.52539 15.5405 6.58228 15.2681 8.03851L16.6523 8.29742C16.8001 7.50714 17.4922 6.93365 18.2981 6.93365C19.0865 6.93365 19.7759 7.49249 19.9371 8.26263L21.3153 7.97424C21.0185 6.55518 19.7496 5.52539 18.2981 5.52539Z" fill="white"/>
<path d="M16.7012 4.95709C17.0696 4.95709 17.4225 4.63318 17.4054 4.25305C17.3882 3.87146 17.096 3.54883 16.7012 3.54883C16.333 3.54883 15.9801 3.87274 15.9972 4.25305C16.0142 4.63446 16.3066 4.95709 16.7012 4.95709Z" fill="white"/>
<path d="M19.7619 4.95709C20.1302 4.95709 20.483 4.63318 20.466 4.25305C20.4488 3.87146 20.1565 3.54883 19.7619 3.54883C19.3935 3.54883 19.0407 3.87274 19.0577 4.25305C19.0749 4.63446 19.3672 4.95709 19.7619 4.95709Z" fill="white"/>
</g>
<defs>
<clipPath id="clip0_1082_813">
<rect width="24" height="24" fill="white"/>
</clipPath>
</defs>
</svg>
