<svg width="15" height="16" viewBox="0 0 15 16" fill="none" xmlns="http://www.w3.org/2000/svg">
<path d="M6.47501 2.64286H8.52629C8.52629 2.3587 8.41823 2.08617 8.22589 1.88524C8.03354 1.68431 7.77267 1.57143 7.50065 1.57143C7.22863 1.57143 6.96776 1.68431 6.77541 1.88524C6.58307 2.08617 6.47501 2.3587 6.47501 2.64286ZM5.44937 2.64286C5.44937 2.07454 5.66549 1.52949 6.05018 1.12763C6.43486 0.725765 6.95662 0.5 7.50065 0.5C8.04468 0.5 8.56644 0.725765 8.95113 1.12763C9.33582 1.52949 9.55193 2.07454 9.55193 2.64286H13.6545C13.7905 2.64286 13.9209 2.6993 14.0171 2.79976C14.1133 2.90023 14.1673 3.03649 14.1673 3.17857C14.1673 3.32065 14.1133 3.45691 14.0171 3.55738C13.9209 3.65784 13.7905 3.71429 13.6545 3.71429H13.076L11.8401 13.1836C11.7563 13.8253 11.4528 14.4135 10.9857 14.8394C10.5186 15.2653 9.91961 15.5 9.29962 15.5H5.70168C5.08169 15.5 4.48271 15.2653 4.01563 14.8394C3.54854 14.4135 3.24499 13.8253 3.16116 13.1836L1.92527 3.71429H1.3468C1.2108 3.71429 1.08036 3.65784 0.984186 3.55738C0.888013 3.45691 0.833984 3.32065 0.833984 3.17857C0.833984 3.03649 0.888013 2.90023 0.984186 2.79976C1.08036 2.6993 1.2108 2.64286 1.3468 2.64286H5.44937ZM6.47501 6.39286C6.47501 6.25078 6.42098 6.11452 6.32481 6.01405C6.22864 5.91358 6.0982 5.85714 5.96219 5.85714C5.82618 5.85714 5.69574 5.91358 5.59957 6.01405C5.5034 6.11452 5.44937 6.25078 5.44937 6.39286V11.75C5.44937 11.8921 5.5034 12.0283 5.59957 12.1288C5.69574 12.2293 5.82618 12.2857 5.96219 12.2857C6.0982 12.2857 6.22864 12.2293 6.32481 12.1288C6.42098 12.0283 6.47501 11.8921 6.47501 11.75V6.39286ZM9.03911 5.85714C8.9031 5.85714 8.77267 5.91358 8.67649 6.01405C8.58032 6.11452 8.52629 6.25078 8.52629 6.39286V11.75C8.52629 11.8921 8.58032 12.0283 8.67649 12.1288C8.77267 12.2293 8.9031 12.2857 9.03911 12.2857C9.17512 12.2857 9.30556 12.2293 9.40173 12.1288C9.4979 12.0283 9.55193 11.8921 9.55193 11.75V6.39286C9.55193 6.25078 9.4979 6.11452 9.40173 6.01405C9.30556 5.91358 9.17512 5.85714 9.03911 5.85714Z" fill="white"/>
</svg>
