<svg width="20" height="19" viewBox="0 0 20 19" fill="none" xmlns="http://www.w3.org/2000/svg">
<path d="M18.6484 13.2227C19.1055 13.6445 19.1055 14.3477 18.6484 14.7695L15.4844 17.9336C15.2734 18.1445 14.9922 18.25 14.7109 18.25C14.4648 18.25 14.1133 18.1094 13.9375 17.9336L9.61328 13.6094L5.64062 17.582L1.84375 18.25C1.38672 18.3555 0.894531 17.9336 1 17.4062L1.66797 13.6094L5.64062 9.63672L1.31641 5.3125C0.859375 4.89062 0.859375 4.1875 1.31641 3.73047L4.48047 0.601562C4.69141 0.390625 4.97266 0.25 5.25391 0.25C5.53516 0.25 5.81641 0.390625 6.02734 0.601562L10.3516 4.92578L12.1094 3.16797L14.5 0.777344C14.8516 0.425781 15.2734 0.25 15.6953 0.25C16.1523 0.25 16.5742 0.425781 16.8906 0.777344L18.4727 2.35938C19.1406 3.02734 19.1406 4.08203 18.4727 4.75L16.082 7.14062L14.3242 8.89844L18.6484 13.2227ZM15.3086 1.55078L13.6914 3.16797L16.082 5.55859L17.6992 3.94141C17.9102 3.73047 17.9102 3.37891 17.6992 3.13281L16.1172 1.55078C15.9414 1.41016 15.4492 1.41016 15.3086 1.55078ZM2.08984 4.53906L6.41406 8.86328L9.57812 5.69922L8.03125 4.15234L6.625 5.52344C6.51953 5.62891 6.34375 5.62891 6.23828 5.52344L5.85156 5.13672C5.74609 5.03125 5.74609 4.85547 5.85156 4.75L7.22266 3.34375L5.25391 1.41016L2.08984 4.53906ZM5.07812 16.5625L15.2734 6.36719L12.8828 3.97656L2.6875 14.1719L2.19531 17.0547L5.07812 16.5625ZM14.7109 17.1602L17.875 13.9961L15.9062 12.0273L14.5 13.3984C14.3945 13.5039 14.2188 13.5039 14.1133 13.3984L13.7266 13.0117C13.6211 12.9062 13.6211 12.7305 13.7266 12.625L15.0977 11.2188L13.5508 9.67188L10.3867 12.8359L14.7109 17.1602Z" fill="#E8EDEF"/>
</svg>
