<svg width="11" height="10" viewBox="0 0 11 10" fill="none" xmlns="http://www.w3.org/2000/svg">
<path d="M9.28125 0.125H0.84375C0.369141 0.125 0 0.511719 0 0.96875V6.59375C0 7.06836 0.369141 7.4375 0.84375 7.4375H4.21875L3.9375 8.28125H2.67188C2.42578 8.28125 2.25 8.47461 2.25 8.70312C2.25 8.94922 2.42578 9.125 2.67188 9.125H7.45312C7.68164 9.125 7.875 8.94922 7.875 8.70312C7.875 8.47461 7.68164 8.28125 7.45312 8.28125H6.1875L5.90625 7.4375H9.28125C9.73828 7.4375 10.125 7.06836 10.125 6.59375V0.96875C10.125 0.511719 9.73828 0.125 9.28125 0.125ZM9 5.1875H1.125V1.25H9V5.1875Z" fill="#02ADEE"/>
</svg>
