<svg width="18" height="18" viewBox="0 0 18 18" fill="none" xmlns="http://www.w3.org/2000/svg">
<path fill-rule="evenodd" clip-rule="evenodd" d="M11.792 5.13996C11.912 5.239 11.9854 5.37906 11.9962 5.52932C12.007 5.67959 11.9543 5.82777 11.8497 5.94127L5.56051 12.7578C5.50416 12.8189 5.43464 12.8678 5.35664 12.9014C5.27863 12.9349 5.19394 12.9522 5.10825 12.9522C5.02257 12.9522 4.93788 12.9349 4.85987 12.9014C4.78186 12.8678 4.71235 12.8189 4.656 12.7578L2.14017 10.0312C2.03926 9.91721 1.98959 9.77035 2.00183 9.62211C2.01406 9.47388 2.08724 9.3361 2.20564 9.23835C2.32404 9.1406 2.47822 9.09066 2.6351 9.09927C2.79197 9.10788 2.93902 9.17434 3.04469 9.28439L5.10825 11.521L10.9452 5.19449C11.0498 5.08102 11.1979 5.01154 11.3567 5.00131C11.5155 4.99109 11.6721 5.04096 11.792 5.13996ZM15.8135 5.20434C16.0536 5.42019 16.0633 5.77995 15.8343 6.00717L8.97364 12.8237C8.91372 12.8832 8.84085 12.9297 8.76006 12.96C8.67928 12.9903 8.59251 13.0037 8.50574 12.9991C8.41897 12.9946 8.33428 12.9723 8.25752 12.9338C8.18076 12.8952 8.11375 12.8414 8.06112 12.776L7.71773 12.3495C7.62778 12.2386 7.58424 12.1001 7.59545 11.9607C7.60667 11.8213 7.67185 11.6906 7.77851 11.5938C7.88517 11.497 8.02582 11.4409 8.17353 11.4361C8.32123 11.4313 8.46561 11.4782 8.57902 11.5679L14.965 5.22327C15.0748 5.11424 15.2259 5.05092 15.385 5.04723C15.5441 5.04353 15.6982 5.10053 15.8135 5.20434Z" fill="white"/>
</svg>
