<svg width="24" height="24" viewBox="0 0 24 24" fill="none" xmlns="http://www.w3.org/2000/svg">
<g clip-path="url(#clip0_430_8882)">
<path d="M18.9026 0L15.2186 3.68395H0V24H20.316V8.78147L24 5.09752L18.9026 0ZM18.35 22.0339H16.3839V20.0678H18.35V22.0339ZM18.35 18.1018H14.4178V22.034H1.96608V5.65003H13.2525L7.33861 11.564L6.06427 17.9358L12.4361 16.6614L18.35 10.7475V18.1018ZM9.00234 13.2702L10.7298 14.9976L8.57044 15.4295L9.00234 13.2702ZM12.4149 13.9022L10.0979 11.5852L16.1222 5.56087L18.4392 7.87791L12.4149 13.9022ZM19.8293 6.48778L17.5124 4.1707L18.9026 2.78048L21.2196 5.09752L19.8293 6.48778Z" fill="#E8EDEF"/>
</g>
<defs>
<clipPath id="clip0_430_8882">
<rect width="24" height="24" fill="white"/>
</clipPath>
</defs>
</svg>
