<svg width="24" height="24" viewBox="0 0 24 24" fill="none" xmlns="http://www.w3.org/2000/svg">
<g clip-path="url(#clip0_3892_3752)">
<path d="M0 24H24V0H0V24ZM1.40625 22.5938V7.03125H22.5938V22.5938H1.40625ZM22.5938 1.40625V5.625H1.40625V1.40625H22.5938Z" fill="#E8EDEF"/>
<path d="M2.8125 2.8125H4.21875V4.21875H2.8125V2.8125Z" fill="#E8EDEF"/>
<path d="M5.625 2.8125H7.03125V4.21875H5.625V2.8125Z" fill="#E8EDEF"/>
<path d="M8.4375 2.8125H9.84375V4.21875H8.4375V2.8125Z" fill="#E8EDEF"/>
<path d="M16.9219 2.8125H21.1875V4.21875H16.9219V2.8125Z" fill="#E8EDEF"/>
<path d="M9.91034 16.746L7.85938 21.78L12.8933 19.729L21.4927 11.1296L18.5097 8.14648L9.91034 16.746ZM12.0997 18.5339L10.4218 19.2176L11.1055 17.5396L16.521 12.1241L17.5153 13.1183L12.0997 18.5339ZM18.5097 12.1241L17.5153 11.1296L18.5097 10.1354L19.504 11.1296L18.5097 12.1241Z" fill="#E8EDEF"/>
<path d="M11.25 8.4375H2.8125V14.0625H11.25V8.4375ZM9.84375 12.6562H4.21875V9.84375H9.84375V12.6562Z" fill="#E8EDEF"/>
<path d="M2.8125 16.9219H7.03125V18.3281H2.8125V16.9219Z" fill="#E8EDEF"/>
<path d="M2.8125 19.7344H7.03125V21.1406H2.8125V19.7344Z" fill="#E8EDEF"/>
<path d="M16.9219 19.7344H21.1875V21.1406H16.9219V19.7344Z" fill="#E8EDEF"/>
<path d="M16.9219 16.9219H21.1875V18.3281H16.9219V16.9219Z" fill="#E8EDEF"/>
</g>
<defs>
<clipPath id="clip0_3892_3752">
<rect width="24" height="24" fill="white"/>
</clipPath>
</defs>
</svg>
