<svg width="24" height="24" viewBox="0 0 24 24" fill="none" xmlns="http://www.w3.org/2000/svg">
<path d="M2.22217 0H3.99995V24H2.22217V0Z" fill="#E8EDEF"/>
<path d="M0 0H1.77778V24H0V0Z" fill="#E8EDEF"/>
<path d="M4.44434 0H6.22211V24H4.44434V0Z" fill="#E8EDEF"/>
<path d="M6.66675 0H8.44453V24H6.66675V0Z" fill="#E8EDEF"/>
<path d="M8.88892 0H10.6667V24H8.88892V0Z" fill="#E8EDEF"/>
<path d="M11.1111 0H12.8889V24H11.1111V0Z" fill="#E8EDEF"/>
<path d="M13.3333 0H15.111V24H13.3333V0Z" fill="#E8EDEF"/>
<path d="M15.5557 0H17.3334V24H15.5557V0Z" fill="#E8EDEF"/>
<path d="M17.7778 0H19.5556V24H17.7778V0Z" fill="#E8EDEF"/>
<path d="M20 0H21.7778V24H20V0Z" fill="#E8EDEF"/>
<path d="M22.2222 0H23.9999V24H22.2222V0Z" fill="#E8EDEF"/>
</svg>
