<svg width="24" height="24" viewBox="0 0 24 24" fill="none" xmlns="http://www.w3.org/2000/svg">
<g clip-path="url(#clip0_15541_75765)">
<rect width="24" height="24" fill="white"/>
<rect width="24" height="24" fill="white"/>
<path fill-rule="evenodd" clip-rule="evenodd" d="M2.78516 9.19531V18.8366H21.2164V9.19531L12.0008 13.7778L2.78516 9.19531Z" fill="#FCC21B"/>
<path fill-rule="evenodd" clip-rule="evenodd" d="M2.78516 5.16406V7.72719L12.0008 12.3078L21.2164 7.72719V5.16406H2.78516Z" fill="#FCC21B"/>
<path d="M12.0052 7.27281C14.9302 7.27281 16.9008 9.23406 16.9195 12.1572C16.9214 12.1816 16.9214 12.2153 16.9233 12.2547C16.9252 12.4947 16.8839 12.9841 16.6064 13.4584C16.582 13.5034 16.5577 13.5484 16.5277 13.5916C16.222 14.0303 15.6314 14.3153 15.0183 14.3172H15.0145C14.4333 14.3172 13.9008 14.0791 13.5445 13.6647C13.1245 14.1691 12.4814 14.4972 11.6583 14.4991H11.6508C10.7245 14.4991 10.0139 14.0941 9.60704 13.4772C9.38016 13.1322 9.24891 12.7197 9.22641 12.2753C9.22262 12.2317 9.22075 12.1879 9.22078 12.1441C9.21703 10.8409 10.1508 9.78156 11.6489 9.77781H11.6527C12.1327 9.77781 12.547 9.89406 12.8995 10.0853V9.95594C12.8995 9.89969 12.9445 9.85281 13.0027 9.85281L14.2439 9.84906C14.3002 9.84906 14.347 9.89406 14.347 9.95219L14.3527 11.6078H14.3602C14.3658 11.7822 14.3995 12.0334 14.4595 12.2603C14.5064 12.4422 14.572 12.6091 14.6527 12.7066C14.7558 12.8284 14.9189 12.8491 15.0108 12.8491H15.0164C15.1758 12.8491 15.3014 12.7797 15.3277 12.7516C15.4458 12.5828 15.4645 12.3484 15.4608 12.2584V12.2434L15.4589 12.1853C15.4552 10.5184 14.5477 8.73906 12.0108 8.73906H11.9977C9.96516 8.74281 8.54766 10.1153 8.55329 12.0766C8.55329 12.1441 8.55891 12.2097 8.56266 12.2753C8.58516 12.7122 8.67891 13.1153 8.83454 13.4772C9.33891 14.6528 10.5014 15.3972 11.9995 15.3972H12.0089C12.847 15.3953 13.5989 15.1647 14.1839 14.7316L15.0577 15.9091C14.2195 16.5297 13.1677 16.8597 12.0127 16.8616H11.9977C9.66141 16.8616 7.85204 15.5022 7.27829 13.4809C7.16954 13.1022 7.10954 12.6991 7.09266 12.2791C7.09079 12.2134 7.08329 12.1478 7.08329 12.0803C7.07766 9.30344 9.14016 7.28031 11.9902 7.27469C11.9939 7.27281 11.9995 7.27281 12.0052 7.27281ZM11.6489 13.2278H11.6527C12.2939 13.2259 12.7064 12.8059 12.7645 12.2641C12.7702 12.2209 12.7758 12.1778 12.7758 12.1328C12.7739 11.5328 12.3408 11.0434 11.6489 11.0434H11.6452C10.9533 11.0453 10.522 11.5366 10.5239 12.1384C10.5239 12.1834 10.5314 12.2266 10.537 12.2697C10.597 12.8097 11.0095 13.2278 11.6489 13.2278ZM12.0052 6.27344H11.9864C10.3477 6.27719 8.84766 6.86219 7.76579 7.92344C6.67641 8.99031 6.08016 10.4678 6.08204 12.0822C6.08204 12.1441 6.08579 12.2059 6.08954 12.2678L6.09329 12.3147C6.11391 12.8228 6.18704 13.3047 6.31641 13.7566C7.02704 16.2522 9.25641 17.8647 11.9977 17.8647C13.3852 17.8628 14.6414 17.4653 15.652 16.7153C15.865 16.5573 16.0065 16.3213 16.0455 16.059C16.0845 15.7967 16.0179 15.5297 15.8602 15.3166L15.787 15.2191C16.4283 15.0503 16.9927 14.6772 17.3489 14.1653C17.3939 14.0997 17.4333 14.0322 17.4708 13.9647C17.8683 13.2841 17.9245 12.5997 17.9227 12.2509C17.9227 12.2022 17.9208 12.1628 17.9189 12.1328C17.8852 8.67906 15.457 6.27344 12.0052 6.27344Z" fill="#FCC21B"/>
<path fill-rule="evenodd" clip-rule="evenodd" d="M16.9183 12.1578C16.8995 9.22908 14.9214 7.26596 11.9889 7.27346C9.13892 7.27908 7.07642 9.30221 7.08204 12.0791C7.08204 12.1466 7.08954 12.2122 7.09142 12.2778C7.10829 12.6997 7.16829 13.101 7.27704 13.4797C7.85454 15.5066 9.66767 16.866 12.0114 16.8603C13.1645 16.8585 14.2183 16.5285 15.0564 15.9078L14.1827 14.7303C13.5995 15.1635 12.8458 15.3922 12.0077 15.396C10.5058 15.3997 9.33954 14.6535 8.82767 13.476C8.67204 13.1141 8.57829 12.7091 8.55579 12.2741C8.55204 12.2085 8.54642 12.1428 8.54642 12.0753C8.54267 10.1141 9.95829 8.74346 11.9908 8.73783C14.537 8.73221 15.4483 10.5153 15.452 12.1841L15.4539 12.2422V12.2572C15.4577 12.3472 15.4389 12.5816 15.3208 12.7503C15.2945 12.7785 15.1689 12.8478 15.0095 12.8478C14.9195 12.8478 14.7508 12.8291 14.6458 12.7053C14.5633 12.6078 14.4995 12.4391 14.4527 12.2591C14.3927 12.0322 14.357 11.781 14.3533 11.6066H14.3458L14.3402 9.95096C14.3402 9.89471 14.2933 9.84783 14.237 9.84783L12.9958 9.85158C12.9395 9.85158 12.8927 9.89846 12.8927 9.95471V10.0841C12.5402 9.89283 12.1239 9.77471 11.642 9.77658C10.1458 9.78033 9.21204 10.8397 9.21392 12.1428C9.21392 12.1878 9.21767 12.231 9.21954 12.2741C9.24204 12.7203 9.37329 13.131 9.60017 13.476C10.0089 14.0947 10.7214 14.5016 11.6514 14.4978C12.4745 14.496 13.1177 14.1678 13.5377 13.6635C13.8939 14.0778 14.4283 14.3178 15.0114 14.316C15.6245 14.3141 16.2152 14.031 16.5208 13.5903C16.5508 13.5472 16.5752 13.5022 16.5995 13.4572C16.877 12.9828 16.9183 12.4916 16.9164 12.2535C16.9202 12.216 16.9183 12.1822 16.9183 12.1578ZM12.7633 12.2647C12.7052 12.8066 12.2927 13.2266 11.6514 13.2285C11.0102 13.2303 10.5958 12.8103 10.5358 12.2703C10.5302 12.2272 10.5227 12.1841 10.5227 12.1391C10.5208 11.5372 10.9539 11.046 11.6439 11.0441C12.3377 11.0422 12.7727 11.5316 12.7745 12.1335C12.7745 12.1785 12.767 12.2216 12.7633 12.2647Z" fill="#ED6C30"/>
</g>
<defs>
<clipPath id="clip0_15541_75765">
<rect width="24" height="24" fill="white"/>
</clipPath>
</defs>
</svg>
