<svg width="16" height="16" viewBox="0 0 16 16" fill="none" xmlns="http://www.w3.org/2000/svg">
<path fill-rule="evenodd" clip-rule="evenodd" d="M12.05 5.68679C11.8993 5.83727 11.6951 5.92179 11.4821 5.92179C11.2692 5.92179 11.065 5.83727 10.9143 5.68679L8.80357 3.57607V11.4821C8.80357 11.6953 8.71891 11.8997 8.56821 12.0504C8.41751 12.2011 8.21312 12.2857 8 12.2857C7.78688 12.2857 7.58249 12.2011 7.43179 12.0504C7.28109 11.8997 7.19643 11.6953 7.19643 11.4821V3.57607L5.08571 5.68679C4.93338 5.82873 4.73191 5.906 4.52373 5.90233C4.31555 5.89866 4.11692 5.81432 3.96969 5.66709C3.82246 5.51987 3.73813 5.32124 3.73446 5.11306C3.73078 4.90488 3.80806 4.7034 3.95 4.55107L7.43214 1.06893L8 0.5L8.56786 1.06786L12.05 4.55C12.1247 4.62463 12.1839 4.71323 12.2243 4.81076C12.2647 4.90829 12.2855 5.01282 12.2855 5.11839C12.2855 5.22396 12.2647 5.3285 12.2243 5.42603C12.1839 5.52355 12.1247 5.61216 12.05 5.68679ZM2.10714 9.875C2.10714 9.66188 2.02248 9.45749 1.87178 9.30679C1.72108 9.15609 1.51669 9.07143 1.30357 9.07143C1.09045 9.07143 0.88606 9.15609 0.735361 9.30679C0.584662 9.45749 0.5 9.66188 0.5 9.875V13.3571C0.5 13.9255 0.725765 14.4705 1.12763 14.8724C1.52949 15.2742 2.07454 15.5 2.64286 15.5H13.3571C13.9255 15.5 14.4705 15.2742 14.8724 14.8724C15.2742 14.4705 15.5 13.9255 15.5 13.3571V9.875C15.5 9.66188 15.4153 9.45749 15.2646 9.30679C15.1139 9.15609 14.9095 9.07143 14.6964 9.07143C14.4833 9.07143 14.2789 9.15609 14.1282 9.30679C13.9775 9.45749 13.8929 9.66188 13.8929 9.875V13.3571C13.8929 13.4992 13.8364 13.6355 13.736 13.736C13.6355 13.8364 13.4992 13.8929 13.3571 13.8929H2.64286C2.50078 13.8929 2.36452 13.8364 2.26405 13.736C2.16358 13.6355 2.10714 13.4992 2.10714 13.3571V9.875Z" fill="white"/>
</svg>
