<svg width="24" height="24" viewBox="0 0 24 24" fill="none" xmlns="http://www.w3.org/2000/svg">
<path d="M12.0003 3C12.1127 2.99992 12.2229 3.03282 12.3183 3.09496C12.4138 3.1571 12.4908 3.246 12.5405 3.35161L14.9953 8.56429L20.4852 9.4004C20.5963 9.41745 20.7006 9.4667 20.7864 9.5426C20.8721 9.61849 20.936 9.71801 20.9706 9.82991C21.0053 9.94181 21.0094 10.0616 20.9824 10.1758C20.9555 10.2901 20.8987 10.3941 20.8183 10.4762L16.8464 14.5332L17.784 20.2623C17.8027 20.3783 17.7902 20.4974 17.7478 20.6063C17.7054 20.7152 17.6348 20.8095 17.5441 20.8786C17.4533 20.9478 17.3459 20.989 17.234 20.9977C17.1221 21.0063 17.0101 20.9821 16.9106 20.9277L12.0003 18.2225L7.09 20.9277C6.99061 20.9824 6.87861 21.0068 6.76665 20.9984C6.65469 20.9899 6.54722 20.9487 6.45639 20.8796C6.36555 20.8105 6.29497 20.7162 6.2526 20.6072C6.21023 20.4983 6.19777 20.3791 6.21663 20.2632L7.15422 14.5332L3.1823 10.4762C3.10168 10.3941 3.04463 10.2899 3.01762 10.1755C2.99061 10.0611 2.99472 9.94107 3.02948 9.829C3.06424 9.71692 3.12826 9.61729 3.21429 9.54139C3.30032 9.46549 3.40492 9.41636 3.51624 9.39956L9.00531 8.56429L11.4609 3.35161C11.5106 3.24613 11.5874 3.15731 11.6827 3.09518C11.7781 3.03305 11.888 3.00008 12.0003 3ZM12.0003 5.05664L9.94531 9.41975C9.90206 9.51146 9.83818 9.59077 9.75917 9.65085C9.68016 9.71093 9.58839 9.74998 9.49177 9.76463L4.89613 10.4645L8.22185 13.8611C8.29178 13.9325 8.34405 14.0206 8.37412 14.118C8.40419 14.2153 8.41117 14.3188 8.39444 14.4196L7.60936 19.2159L11.7202 16.9515C11.8066 16.9039 11.9027 16.879 12.0003 16.879C12.0979 16.879 12.1941 16.9039 12.2805 16.9515L16.3904 19.2159L15.6062 14.4196C15.5894 14.3188 15.5964 14.2153 15.6265 14.118C15.6566 14.0206 15.7088 13.9325 15.7788 13.8611L19.1045 10.4645L14.5088 9.76547C14.4122 9.75082 14.3205 9.71177 14.2414 9.65169C14.1624 9.59161 14.0985 9.5123 14.0553 9.42059L12.0003 5.05664Z" fill="#DEDEDE"/>
</svg>
