<svg width="31" height="31" viewBox="0 0 31 31" fill="none" xmlns="http://www.w3.org/2000/svg">
<path d="M30.3377 30.0516H24.0377V26.6766C24.0506 25.4955 23.8285 24.3237 23.3843 23.2292C22.9401 22.1348 22.2826 21.1396 21.4502 20.3016C20.6549 19.4365 19.6861 18.7488 18.607 18.2836C17.5279 17.8183 16.3627 17.586 15.1877 17.6016C14.0081 17.5824 12.8377 17.8112 11.7521 18.273C10.6666 18.7349 9.69017 19.4196 8.88608 20.2829C8.05069 21.1225 7.39159 22.1206 6.94752 23.2186C6.50345 24.3166 6.28336 25.4923 6.30021 26.6766V30.0516H0.000206857V26.6766C-0.0105353 24.3226 0.548882 22.0011 1.63064 19.9103C2.70997 17.8063 4.27147 15.9873 6.18771 14.6016C4.27525 13.2207 2.71423 11.4094 1.63064 9.31413C0.547243 7.22986 -0.0123533 4.91313 0.000206857 2.56413V0.50163H6.30021V2.56413C6.28336 3.74842 6.50345 4.92412 6.94752 6.02212C7.39159 7.12012 8.05069 8.11827 8.88608 8.95788C9.68999 9.82091 10.6662 10.5055 11.7514 10.9674C12.8366 11.4293 14.0068 11.6581 15.1861 11.6391C16.3615 11.6548 17.527 11.4223 18.6064 10.9568C19.6859 10.4912 20.6549 9.80314 21.4502 8.9375C22.2826 8.09951 22.9401 7.10434 23.3843 6.00989C23.8285 4.91545 24.0506 3.74359 24.0377 2.5625V0.5H30.3377V2.5625C30.3503 4.9115 29.7907 7.22823 28.7073 9.3125C27.63 11.4006 26.0832 13.2105 24.1885 14.6C26.0902 15.9975 27.6378 17.8213 28.7073 19.925C29.7851 22.0113 30.3444 24.3267 30.3377 26.675V30.0516Z" fill="#EF018F"/>
</svg>
