<svg width="24" height="24" viewBox="0 0 24 24" fill="none" xmlns="http://www.w3.org/2000/svg">
<path d="M14.8124 12C14.7149 12 14.6099 11.985 14.5124 11.955C14.3259 11.892 14.164 11.7719 14.0496 11.6117C13.9351 11.4515 13.874 11.2594 13.8749 11.0625V9.7425C12.8249 9.645 11.9999 8.76 11.9999 7.6875V5.0625C11.9999 3.9225 12.9224 3 14.0624 3H18.9375C20.0775 3 21 3.9225 21 5.0625V7.6875C21 8.8275 20.0775 9.75 18.9375 9.75H16.9725L15.5625 11.625C15.3825 11.865 15.105 12 14.8124 12ZM14.0624 4.125C13.5449 4.125 13.1249 4.545 13.1249 5.0625V7.6875C13.1249 8.205 13.5449 8.625 14.0624 8.625H15V10.5L16.41 8.625H18.945C19.4625 8.625 19.8825 8.205 19.8825 7.6875V5.0625C19.8825 4.545 19.4625 4.125 18.945 4.125H14.0624ZM8.6249 13.875C7.78012 13.873 6.97052 13.5366 6.37317 12.9392C5.77582 12.3419 5.43935 11.5323 5.43737 10.6875C5.43935 9.84273 5.77582 9.03313 6.37317 8.43578C6.97052 7.83844 7.78012 7.50198 8.6249 7.5C9.46968 7.50198 10.2793 7.83844 10.8766 8.43578C11.474 9.03313 11.8104 9.84273 11.8124 10.6875C11.8104 11.5323 11.474 12.3419 10.8766 12.9392C10.2793 13.5366 9.46968 13.873 8.6249 13.875ZM8.6249 8.625C7.48489 8.625 6.56238 9.5475 6.56238 10.6875C6.56238 11.8275 7.48489 12.75 8.6249 12.75C9.76491 12.75 10.6874 11.8275 10.6874 10.6875C10.6874 9.5475 9.76491 8.625 8.6249 8.625ZM4.10311 19.44C5.08562 20.475 6.60813 21 8.62565 21C10.6432 21 12.1657 20.475 13.1482 19.44C14.2897 18.2325 14.2529 16.7753 14.2507 16.677V16.6725C14.2507 15.75 13.5007 15 12.5782 15H4.67312C3.75061 15 3.0006 15.75 3.0006 16.6425V16.6522C2.9976 16.7947 2.9691 18.24 4.10311 19.44ZM4.12561 16.6725C4.12561 16.3725 4.37312 16.125 4.67312 16.125H12.5782C12.8782 16.125 13.1257 16.3725 13.1257 16.7025V16.704C13.1096 17.4337 12.8268 18.1322 12.3307 18.6675C11.5732 19.47 10.3132 19.875 8.62565 19.875C6.93814 19.875 5.70063 19.4775 4.93562 18.6825C4.4194 18.1435 4.1295 17.4271 4.12561 16.6807V16.6725Z" fill="#DEDEDE"/>
</svg>
