<svg width="50" height="50" viewBox="0 0 50 50" fill="none" xmlns="http://www.w3.org/2000/svg">
<rect width="50" height="50" rx="25" fill="#E7EFFE"/>
<path d="M22.0126 24.4875L22.0126 24.4875C21.6844 24.1593 21.5 23.7141 21.5 23.25C21.5 22.7859 21.6844 22.3408 22.0126 22.0126C22.3408 21.6844 22.7859 21.5 23.25 21.5C23.7141 21.5 24.1593 21.6844 24.4875 22.0126L24.6645 22.1896L25.019 22.5441L25.3726 22.1886L25.5476 22.0126C25.5477 22.0124 25.5479 22.0122 25.5481 22.012C25.8762 21.6842 26.3211 21.5 26.785 21.5C27.2491 21.5 27.6943 21.6844 28.0225 22.0126C28.3507 22.3408 28.535 22.7859 28.535 23.25C28.535 23.7141 28.3507 24.1593 28.0225 24.4875L28.0224 24.4876L25.018 27.4937L22.0126 24.4875Z" stroke="#23222B"/>
<path d="M31.75 17C32.9805 17 34 18.0195 34 19.25V29.375C34 30.6406 32.9805 31.625 31.75 31.625H26.6875L22.293 34.9297C22.1875 35 22.1172 35 22.0469 35C21.8008 35 21.625 34.8594 21.625 34.5781V31.625H18.25C16.9844 31.625 16 30.6406 16 29.375V19.25C16 18.0195 16.9844 17 18.25 17H31.75ZM32.875 29.375V19.25C32.875 18.6523 32.3477 18.125 31.75 18.125H18.25C17.6172 18.125 17.125 18.6523 17.125 19.25V29.375C17.125 30.0078 17.6172 30.5 18.25 30.5H22.75V33.1719L25.9844 30.7461L26.3008 30.5H31.75C32.3477 30.5 32.875 30.0078 32.875 29.375Z" fill="#23222B"/>
</svg>
