<svg width="24" height="24" viewBox="0 0 24 24" fill="none" xmlns="http://www.w3.org/2000/svg">
<g opacity="0.6">
<path fill-rule="evenodd" clip-rule="evenodd" d="M18.4615 5.34555C18.7676 5.34555 19.061 5.46712 19.2774 5.68351C19.4938 5.89989 19.6154 6.19338 19.6154 6.4994V18.961L17.5228 17.3917C17.0834 17.0622 16.5489 16.884 15.9997 16.884H5.53846C5.23244 16.884 4.93896 16.7624 4.72257 16.5461C4.50618 16.3297 4.38461 16.0362 4.38461 15.7302V6.4994C4.38461 6.19338 4.50618 5.89989 4.72257 5.68351C4.93896 5.46712 5.23244 5.34555 5.53846 5.34555H18.4615ZM20.2565 4.70444C19.7804 4.22838 19.1348 3.96094 18.4615 3.96094H5.53846C4.86522 3.96094 4.21955 4.22838 3.7435 4.70444C3.26744 5.18049 3 5.82616 3 6.4994V15.7302C3 16.4034 3.26744 17.0491 3.7435 17.5251C4.21955 18.0012 4.86522 18.2686 5.53846 18.2686H15.9997C16.2494 18.2686 16.4923 18.3496 16.692 18.4994L19.8923 20.8994C20.1021 21.0567 20.3828 21.082 20.6173 20.9648C20.8519 20.8475 21 20.6078 21 20.3456V6.4994C21 5.82616 20.7326 5.18049 20.2565 4.70444Z" fill="white"/>
<path fill-rule="evenodd" clip-rule="evenodd" d="M11.8113 7.9895C11.4263 7.62549 10.9159 7.42188 10.3846 7.42188C9.83372 7.42188 9.30544 7.64069 8.91594 8.0302C8.52644 8.4197 8.30762 8.94797 8.30762 9.49881C8.30762 10.0496 8.52644 10.5779 8.91594 10.9674L12.0166 14.069L15.1162 10.9674C15.5057 10.5779 15.7246 10.0496 15.7246 9.49881C15.7246 8.94797 15.5057 8.4197 15.1162 8.0302C14.7267 7.64069 14.1985 7.42188 13.6476 7.42188C13.1142 7.42188 12.6019 7.6271 12.2163 7.99383C12.2037 8.00578 12.1913 8.0179 12.179 8.0302L12.0166 8.19356L11.8532 8.0302C11.8394 8.01642 11.8254 8.00285 11.8113 7.9895ZM14.1372 9.98834C14.1371 9.98843 14.1373 9.98824 14.1372 9.98834V9.98834Z" fill="white"/>
</g>
</svg>
