<svg width="18" height="19" viewBox="0 0 18 19" fill="none" xmlns="http://www.w3.org/2000/svg">
<path fill-rule="evenodd" clip-rule="evenodd" d="M15.4615 2.34616C15.7676 2.34616 16.061 2.46773 16.2774 2.68412C16.4938 2.9005 16.6154 3.19399 16.6154 3.50001V15.9616L14.5228 14.3923C14.0834 14.0628 13.5489 13.8846 12.9997 13.8846H2.53846C2.23244 13.8846 1.93896 13.7631 1.72257 13.5467C1.50618 13.3303 1.38461 13.0368 1.38461 12.7308V3.50001C1.38461 3.19399 1.50618 2.90051 1.72257 2.68412C1.93896 2.46773 2.23244 2.34616 2.53846 2.34616H15.4615ZM17.2565 1.70505C16.7804 1.22899 16.1348 0.961548 15.4615 0.961548H2.53846C1.86522 0.961548 1.21955 1.22899 0.743498 1.70505C0.267445 2.1811 0 2.82677 0 3.50001V12.7308C0 13.404 0.267445 14.0497 0.743498 14.5257C1.21955 15.0018 1.86522 15.2692 2.53846 15.2692H12.9997C13.2494 15.2692 13.4923 15.3502 13.692 15.5L16.8923 17.9C17.1021 18.0574 17.3828 18.0826 17.6173 17.9654C17.8519 17.8481 18 17.6084 18 17.3462V3.50001C18 2.82677 17.7326 2.1811 17.2565 1.70505Z" fill="#DEDEDE"/>
<path fill-rule="evenodd" clip-rule="evenodd" d="M8.81131 4.99072C8.42626 4.62671 7.9159 4.4231 7.38455 4.4231C6.83372 4.4231 6.30544 4.64192 5.91594 5.03142C5.52644 5.42092 5.30762 5.94919 5.30762 6.50003C5.30762 7.05087 5.52644 7.57915 5.91594 7.96865L9.01655 11.0702L12.1162 7.96865C12.5057 7.57915 12.7246 7.05087 12.7246 6.50003C12.7246 5.94919 12.5057 5.42092 12.1162 5.03142C11.7267 4.64192 11.1985 4.4231 10.6476 4.4231C10.1142 4.4231 9.60188 4.62832 9.2163 4.99505C9.20374 5.007 9.19131 5.01912 9.17901 5.03142L9.01657 5.19478L8.85317 5.03142C8.83939 5.01764 8.82544 5.00407 8.81131 4.99072ZM11.1372 6.98956C11.1371 6.98966 11.1373 6.98946 11.1372 6.98956V6.98956Z" fill="#DEDEDE"/>
</svg>
