<svg width="76" height="76" viewBox="0 0 76 76" fill="none" xmlns="http://www.w3.org/2000/svg">
<rect width="76" height="76" rx="38" fill="#E7EFFE"/>
<mask id="mask0_1919_530" style="mask-type:luminance" maskUnits="userSpaceOnUse" x="22" y="16" width="32" height="44">
<path d="M49.8567 25.8405C49.8137 25.5778 49.6686 25.3427 49.453 25.1865C49.2374 25.0303 48.9688 24.9656 48.7058 25.0065C48.499 25.034 48.3078 25.131 48.1636 25.2817L42.9593 30.4778L38.8892 22.7046C38.8285 22.5879 38.7453 22.4843 38.6446 22.3997C38.5438 22.3151 38.4273 22.2513 38.3018 22.2118C38.1763 22.1723 38.0443 22.1579 37.9132 22.1695C37.7822 22.181 37.6547 22.2183 37.538 22.2792C37.3613 22.3811 37.2146 22.5278 37.1127 22.7046L34.8942 26.9581L29.2978 16.516C29.235 16.4014 29.1502 16.3002 29.0483 16.2184C28.9463 16.1366 28.8292 16.0757 28.7037 16.0393C28.5781 16.0029 28.4466 15.9916 28.3167 16.0062C28.1868 16.0207 28.061 16.0608 27.9467 16.1241C27.8109 16.1965 27.6931 16.2986 27.6022 16.4228C27.5112 16.547 27.4494 16.69 27.4212 16.8413L22 51.4704L36.4705 59.6272C36.9166 59.8718 37.4171 60 37.9259 60C38.4346 60 38.9352 59.8718 39.3813 59.6272L53.9768 51.5038L49.8567 25.8405Z" fill="white"/>
</mask>
<g mask="url(#mask0_1919_530)">
<path d="M22.0001 51.4705L27.4213 16.8414C27.4624 16.5854 27.6028 16.356 27.8121 16.203C28.0214 16.0499 28.2826 15.9856 28.5389 16.0241C28.6904 16.0518 28.8339 16.1125 28.9593 16.2019C29.0847 16.2913 29.1889 16.4071 29.2646 16.5412L34.8609 26.9916L37.0794 22.738C37.1402 22.6213 37.2233 22.5177 37.3241 22.4331C37.4249 22.3486 37.5413 22.2847 37.6668 22.2452C37.7923 22.2057 37.9244 22.1913 38.0554 22.2029C38.1865 22.2145 38.314 22.2518 38.4306 22.3127C38.6073 22.4146 38.754 22.5613 38.8559 22.738L53.9519 51.4705H22.0001Z" fill="#FFA000"/>
<path opacity="0.12" d="M40.4905 16.2573L14.0016 13.9971V61.9707L22 51.4702L40.4905 16.2573Z" fill="url(#paint0_linear_1919_530)"/>
<path d="M40.7158 37.9839L34.8776 26.9663L22.0001 51.4702L40.7158 37.9839Z" fill="#F57C00"/>
<path opacity="0.2" d="M14.0016 13.9971H61.9752V61.9707H14.0016V13.9971Z" fill="url(#paint1_linear_1919_530)"/>
<path d="M53.9853 51.4706L49.8151 25.8157C49.7721 25.553 49.627 25.3179 49.4114 25.1617C49.1958 25.0055 48.9272 24.9408 48.6642 24.9817C48.458 25.0111 48.2674 25.1078 48.122 25.2569L22.0001 51.4706L36.4706 59.6275C36.9167 59.872 37.4172 60.0002 37.926 60.0002C38.4347 60.0002 38.9353 59.872 39.3814 59.6275L53.9853 51.4706Z" fill="#FFCA28"/>
<path d="M49.8568 25.8405C49.8138 25.5778 49.6687 25.3427 49.4531 25.1865C49.2375 25.0303 48.9689 24.9656 48.7059 25.0065C48.4991 25.034 48.3079 25.131 48.1638 25.2817L42.9594 30.4778L38.8893 22.7046C38.8286 22.5879 38.7455 22.4843 38.6447 22.3997C38.5439 22.3151 38.4274 22.2513 38.3019 22.2118C38.1764 22.1723 38.0444 22.1579 37.9133 22.1695C37.7823 22.181 37.6548 22.2183 37.5382 22.2792C37.3614 22.3811 37.2147 22.5278 37.1128 22.7046L34.8943 26.9581L29.2979 16.516C29.2352 16.4014 29.1504 16.3002 29.0484 16.2184C28.9465 16.1366 28.8293 16.0757 28.7038 16.0393C28.5783 16.0029 28.4467 15.9916 28.3168 16.0062C28.1869 16.0207 28.0612 16.0608 27.9468 16.1241C27.811 16.1965 27.6933 16.2986 27.6023 16.4228C27.5114 16.547 27.4495 16.69 27.4213 16.8413L22.0001 51.4704L22.1502 51.5455L43.0011 30.6946L48.2055 25.4986C48.2973 25.4032 48.4074 25.3274 48.5292 25.2756C48.651 25.2238 48.782 25.1971 48.9144 25.1971C49.0468 25.1971 49.1778 25.2238 49.2996 25.2756C49.4214 25.3274 49.5315 25.4032 49.6233 25.4986C49.7774 25.6436 49.875 25.8387 49.8985 26.0491L54.002 51.4537H54.052L49.8568 25.8405ZM22.0502 51.4203L27.4213 17.0915C27.4387 16.9628 27.4815 16.8388 27.5473 16.7269C27.6132 16.6149 27.7007 16.5173 27.8048 16.4396C27.9089 16.3619 28.0275 16.3058 28.1535 16.2745C28.2796 16.2433 28.4106 16.2375 28.5389 16.2575C28.691 16.2836 28.8352 16.3436 28.9608 16.4332C29.0864 16.5227 29.1903 16.6394 29.2646 16.7746L34.8609 27.225L37.0794 22.9715C37.1393 22.854 37.222 22.7496 37.3227 22.6644C37.4233 22.5792 37.54 22.5149 37.6658 22.4753C37.7916 22.4357 37.924 22.4216 38.0553 22.4337C38.1866 22.4459 38.3142 22.4841 38.4306 22.5461C38.6073 22.648 38.754 22.7947 38.8559 22.9715L42.851 30.5695L22.0502 51.4203Z" fill="white" fill-opacity="0.2"/>
<path opacity="0.2" d="M39.3814 59.3439C38.9343 59.5899 38.4322 59.719 37.9218 59.719C37.4115 59.719 36.9094 59.5899 36.4623 59.3439L22.0251 51.2871V51.5123L36.4706 59.6275C36.9167 59.872 37.4173 60.0002 37.926 60.0002C38.4347 60.0002 38.9353 59.872 39.3814 59.6275L53.977 51.504V51.2788L39.3814 59.3439Z" fill="#A52714"/>
<path d="M49.8568 25.8405C49.8138 25.5778 49.6687 25.3427 49.4531 25.1865C49.2375 25.0303 48.9689 24.9656 48.7059 25.0065C48.4991 25.034 48.3079 25.131 48.1638 25.2817L42.9594 30.4778L38.8893 22.7046C38.8286 22.5879 38.7455 22.4843 38.6447 22.3997C38.5439 22.3151 38.4274 22.2513 38.3019 22.2118C38.1764 22.1723 38.0444 22.1579 37.9133 22.1695C37.7823 22.181 37.6548 22.2183 37.5382 22.2792C37.3614 22.3811 37.2147 22.5278 37.1128 22.7046L34.8943 26.9581L29.2979 16.516C29.2352 16.4014 29.1504 16.3002 29.0484 16.2184C28.9465 16.1366 28.8293 16.0757 28.7038 16.0393C28.5783 16.0029 28.4467 15.9916 28.3168 16.0062C28.1869 16.0207 28.0612 16.0608 27.9468 16.1241C27.811 16.1965 27.6933 16.2986 27.6023 16.4228C27.5114 16.547 27.4495 16.69 27.4213 16.8413L22.0001 51.4704L36.4706 59.6272C36.9167 59.8718 37.4172 60 37.926 60C38.4347 60 38.9353 59.8718 39.3814 59.6272L53.977 51.5038L49.8568 25.8405Z" fill="url(#paint2_linear_1919_530)"/>
</g>
<defs>
<linearGradient id="paint0_linear_1919_530" x1="28.2302" y1="39.6186" x2="26.2369" y2="38.576" gradientUnits="userSpaceOnUse">
<stop stop-color="#A52714"/>
<stop offset="0.4" stop-color="#A52714" stop-opacity="0.5"/>
<stop offset="0.8" stop-color="#A52714" stop-opacity="0"/>
</linearGradient>
<linearGradient id="paint1_linear_1919_530" x1="36.7207" y1="36.7078" x2="35.8282" y2="35.8154" gradientUnits="userSpaceOnUse">
<stop stop-color="#A52714" stop-opacity="0.8"/>
<stop offset="0.5" stop-color="#A52714" stop-opacity="0.21"/>
<stop offset="1" stop-color="#A52714" stop-opacity="0"/>
</linearGradient>
<linearGradient id="paint2_linear_1919_530" x1="21.1479" y1="23.7354" x2="54.5287" y2="57.1384" gradientUnits="userSpaceOnUse">
<stop stop-color="white" stop-opacity="0.1"/>
<stop offset="1" stop-color="white" stop-opacity="0"/>
</linearGradient>
</defs>
</svg>
