<svg width="494" height="330" viewBox="0 0 494 330" fill="none" xmlns="http://www.w3.org/2000/svg">
<path d="M328.999 166C419.853 166 493.51 239.651 493.51 330.51L328.999 330.51L328.999 166Z" fill="#FCCA46"/>
<path d="M164.505 165.49H0C90.8588 165.49 164.505 239.137 164.505 329.995V165.49Z" fill="#000759"/>
<path d="M329.02 329.998L164.515 329.998C255.373 329.998 329.02 256.352 329.02 165.493L329.02 329.998Z" fill="#EF018F"/>
<path d="M164.512 329.998C73.6582 329.998 0.00159573 256.347 0.00158779 165.488L164.512 165.488L164.512 329.998Z" fill="#A7B1B8"/>
<path d="M143.5 165.49L80.4693 165.49C80.4693 121.032 44.4578 85.0209 9.85876e-05 85.0209L0.000104098 21.9901C79.2507 21.9901 143.5 86.2395 143.5 165.49Z" fill="#EF018F"/>
<path d="M164.51 165.49L143.5 165.49C143.5 86.2395 79.2503 21.9901 -0.000338407 21.9901L-0.00033657 0.979798C90.8479 0.979806 164.51 74.6418 164.51 165.49Z" fill="#FCCA46"/>
<path d="M164.51 308.99V245.96C208.967 245.96 244.979 209.948 244.979 165.49H308.01C308.01 244.741 243.76 308.99 164.51 308.99Z" fill="#D1D3D4"/>
<path d="M164.51 330.001V308.99C243.76 308.99 308.01 244.741 308.01 165.49H329.02C329.02 256.339 255.358 330.001 164.51 330.001Z" fill="#02ADEE"/>
</svg>
