<svg width="28" height="28" viewBox="0 0 28 28" fill="none" xmlns="http://www.w3.org/2000/svg">
<g clip-path="url(#clip0_8459_5642)">
<path d="M14.5859 12.3347C14.5859 12.6204 14.6908 12.8962 14.8807 13.1098C15.0706 13.3233 15.3323 13.4597 15.6161 13.4932L15.7526 13.5013L21.5859 13.5013C21.8832 13.501 22.1693 13.3872 22.3855 13.183C22.6017 12.9789 22.7318 12.6999 22.7493 12.403C22.7667 12.1062 22.6701 11.8139 22.4792 11.5859C22.2884 11.3578 22.0177 11.2113 21.7224 11.1762L21.5859 11.168L18.5689 11.168L24.1607 5.57617C24.37 5.36622 24.4914 5.0845 24.5005 4.78823C24.5095 4.49195 24.4055 4.20334 24.2094 3.98102C24.0134 3.75869 23.7401 3.61932 23.445 3.59121C23.1499 3.5631 22.8552 3.64836 22.6207 3.82967L22.5111 3.92651L16.9192 9.51834L16.9192 6.50134C16.9189 6.20398 16.805 5.91797 16.6009 5.70174C16.3968 5.48552 16.1178 5.3554 15.8209 5.33797C15.5241 5.32055 15.2318 5.41713 15.0038 5.60798C14.7757 5.79884 14.6292 6.06956 14.5941 6.36484L14.5859 6.50134L14.5859 12.3347Z" fill="#DEDEDE"/>
<path d="M14.5859 12.3347C14.5859 12.6204 14.6908 12.8962 14.8807 13.1098C15.0706 13.3233 15.3323 13.4597 15.6161 13.4932L15.7526 13.5013L21.5859 13.5013C21.8832 13.501 22.1693 13.3872 22.3855 13.183C22.6017 12.9789 22.7318 12.6999 22.7493 12.403C22.7667 12.1062 22.6701 11.8139 22.4792 11.5859C22.2884 11.3578 22.0177 11.2113 21.7224 11.1762L21.5859 11.168L18.5689 11.168L24.1607 5.57617C24.37 5.36622 24.4914 5.0845 24.5005 4.78823C24.5095 4.49195 24.4055 4.20334 24.2094 3.98102C24.0134 3.75869 23.7401 3.61932 23.445 3.59121C23.1499 3.5631 22.8552 3.64836 22.6207 3.82967L22.5111 3.92651L16.9192 9.51834L16.9192 6.50134C16.9189 6.20398 16.805 5.91797 16.6009 5.70174C16.3968 5.48552 16.1178 5.3554 15.8209 5.33797C15.5241 5.32055 15.2318 5.41713 15.0038 5.60798C14.7757 5.79884 14.6292 6.06956 14.5941 6.36484L14.5859 6.50134L14.5859 12.3347Z" fill="#DEDEDE"/>
<path d="M13.5 15.7513C13.5 15.4655 13.3951 15.1897 13.2052 14.9762C13.0153 14.7626 12.7537 14.6262 12.4699 14.5928L12.3334 14.5846L6.50005 14.5846C6.20269 14.5849 5.91668 14.6988 5.70045 14.9029C5.48423 15.107 5.35411 15.386 5.33668 15.6829C5.31925 15.9797 5.41583 16.272 5.60669 16.5001C5.79755 16.7281 6.06827 16.8746 6.36355 16.9098L6.50005 16.9179L9.51705 16.9179L3.92522 22.5098C3.71598 22.7197 3.5945 23.0014 3.58545 23.2977C3.5764 23.594 3.68047 23.8826 3.87651 24.1049C4.07255 24.3272 4.34586 24.4666 4.64093 24.4947C4.93601 24.5228 5.23073 24.4376 5.46522 24.2563L5.57488 24.1594L11.1667 18.5676L11.1667 21.5846C11.167 21.882 11.2809 22.168 11.485 22.3842C11.6892 22.6004 11.9682 22.7305 12.265 22.748C12.5619 22.7654 12.8542 22.6688 13.0822 22.478C13.3102 22.2871 13.4568 22.0164 13.4919 21.7211L13.5 21.5846L13.5 15.7513Z" fill="#DEDEDE"/>
</g>
<defs>
<clipPath id="clip0_8459_5642">
<rect width="28" height="28" fill="white" transform="matrix(4.37114e-08 1 1 -4.37114e-08 0 0)"/>
</clipPath>
</defs>
</svg>
