<svg width="24" height="24" viewBox="0 0 24 24" fill="none" xmlns="http://www.w3.org/2000/svg">
<path d="M12 1.99609C17.524 1.99609 22.002 6.47409 22.002 11.9981C22.002 17.5211 17.523 21.9981 12 21.9981C6.47605 21.9991 1.99805 17.5211 1.99805 11.9981C1.99805 6.47409 6.47605 1.99609 12 1.99609ZM8.46205 14.7811C8.40111 14.7037 8.32553 14.639 8.23961 14.5908C8.15369 14.5426 8.05911 14.5118 7.96129 14.5002C7.76372 14.4766 7.56489 14.5325 7.40855 14.6556C7.33113 14.7165 7.26648 14.7921 7.21827 14.878C7.17007 14.964 7.13926 15.0585 7.12761 15.1564C7.10407 15.3539 7.15999 15.5527 7.28305 15.7091C7.84423 16.4234 8.56051 17.0008 9.37771 17.3975C10.1949 17.7943 11.0916 18 12 17.9991C12.9071 18 13.8026 17.7949 14.6188 17.3993C15.4351 17.0036 16.1508 16.4277 16.712 15.7151C16.7731 15.6378 16.8184 15.5493 16.8452 15.4545C16.872 15.3597 16.88 15.2606 16.8685 15.1628C16.857 15.0649 16.8264 14.9703 16.7784 14.8843C16.7303 14.7983 16.6658 14.7227 16.5885 14.6616C16.5113 14.6005 16.4227 14.5553 16.3279 14.5284C16.2332 14.5016 16.134 14.4937 16.0362 14.5052C15.9384 14.5166 15.8438 14.5472 15.7578 14.5953C15.6718 14.6433 15.5961 14.7078 15.535 14.7851C15.1142 15.32 14.5773 15.7522 13.9649 16.0491C13.3525 16.3461 12.6806 16.4999 12 16.4991C10.602 16.4991 9.31005 15.8591 8.46205 14.7811ZM9.00005 8.74809C8.83299 8.74337 8.66667 8.77219 8.51095 8.83286C8.35522 8.89352 8.21324 8.9848 8.0934 9.1013C7.97356 9.21779 7.8783 9.35714 7.81326 9.51109C7.74821 9.66504 7.71469 9.83047 7.71469 9.99759C7.71469 10.1647 7.74821 10.3302 7.81326 10.4841C7.8783 10.6381 7.97356 10.7774 8.0934 10.8939C8.21324 11.0104 8.35522 11.1017 8.51095 11.1623C8.66667 11.223 8.83299 11.2518 9.00005 11.2471C9.32532 11.2379 9.63417 11.1022 9.86099 10.8689C10.0878 10.6356 10.2147 10.323 10.2147 9.99759C10.2147 9.67219 10.0878 9.35962 9.86099 9.1263C9.63417 8.89298 9.32532 8.7573 9.00005 8.74809ZM15 8.74809C14.833 8.74337 14.6667 8.77219 14.5109 8.83286C14.3552 8.89352 14.2132 8.9848 14.0934 9.1013C13.9736 9.21779 13.8783 9.35714 13.8133 9.51109C13.7482 9.66504 13.7147 9.83047 13.7147 9.99759C13.7147 10.1647 13.7482 10.3302 13.8133 10.4841C13.8783 10.6381 13.9736 10.7774 14.0934 10.8939C14.2132 11.0104 14.3552 11.1017 14.5109 11.1623C14.6667 11.223 14.833 11.2518 15 11.2471C15.3253 11.2379 15.6342 11.1022 15.861 10.8689C16.0878 10.6356 16.2147 10.323 16.2147 9.99759C16.2147 9.67219 16.0878 9.35962 15.861 9.1263C15.6342 8.89298 15.3253 8.7573 15 8.74809Z" fill="#DEDEDE"/>
</svg>
