<svg width="768" height="339" viewBox="0 0 768 339" fill="none" xmlns="http://www.w3.org/2000/svg">
<path d="M157.169 168.736C243.969 168.736 314.34 245.149 314.34 339.414L157.169 339.414L157.169 168.736Z" fill="#02ADEE"/>
<path d="M767.991 19.7754C674.042 19.7754 597.875 95.9364 597.875 189.891L767.991 189.891L767.991 19.7754Z" fill="#EF018F"/>
<path d="M0 147.193L8.50094e-06 82.5432C42.3345 82.5432 76.6262 45.6064 76.6262 0.00649501L136.647 0.00650286C136.647 81.2933 75.4659 147.193 0 147.193Z" fill="#EF018F"/>
<path d="M0 168.736L2.83365e-06 147.186C75.4659 147.186 136.647 81.2862 136.647 -0.000561963L156.654 -0.000559347C156.654 93.1819 86.5096 168.736 0 168.736Z" fill="#FCCA46"/>
<path d="M768 190.408L768 255.587C725.665 255.587 691.374 292.825 691.374 338.798L631.353 338.798C631.353 256.847 692.534 190.408 768 190.408Z" fill="#EF018F"/>
<path d="M768 168.688L768 190.414C692.534 190.414 631.353 256.852 631.353 338.803L611.346 338.803C611.346 244.859 681.49 168.687 768 168.688Z" fill="#FCCA46"/>
<path d="M157.172 318.079V252.482C114.565 252.482 80.0536 215.004 80.0536 168.736H19.6475C19.6475 251.214 81.2214 318.079 157.172 318.079Z" fill="#D1D3D4"/>
<path d="M157.172 339.414V317.616C81.457 317.616 20.0741 250.958 20.0741 168.736H0.0012207C0.0012207 262.99 70.3767 339.414 157.172 339.414Z" fill="#E8068F"/>
<path d="M0 339.414L157.171 339.414C70.3627 339.414 -6.60402e-06 263.005 -1.47515e-05 168.737L0 339.414Z" fill="#02ADEE"/>
</svg>
