<svg width="14" height="14" viewBox="0 0 14 14" fill="none" xmlns="http://www.w3.org/2000/svg">
<path fill-rule="evenodd" clip-rule="evenodd" d="M11.3196 10.2031C10.7025 10.2031 10.2021 10.7034 10.2021 11.3206C10.2021 11.9378 10.7025 12.4381 11.3196 12.4381C11.9368 12.4381 12.4371 11.9378 12.4371 11.3206C12.4371 10.7034 11.9368 10.2031 11.3196 10.2031ZM9.07715 11.3206C9.07715 10.0821 10.0811 9.07812 11.3196 9.07812C12.5581 9.07812 13.5621 10.0821 13.5621 11.3206C13.5621 12.5591 12.5581 13.5631 11.3196 13.5631C10.0811 13.5631 9.07715 12.5591 9.07715 11.3206Z" fill="#A2A2A3"/>
<path fill-rule="evenodd" clip-rule="evenodd" d="M2.68 10.2031C2.06282 10.2031 1.5625 10.7034 1.5625 11.3206C1.5625 11.9378 2.06282 12.4381 2.68 12.4381C3.29718 12.4381 3.7975 11.9378 3.7975 11.3206C3.7975 10.7034 3.29718 10.2031 2.68 10.2031ZM0.4375 11.3206C0.4375 10.0821 1.4415 9.07812 2.68 9.07812C3.9185 9.07812 4.9225 10.0821 4.9225 11.3206C4.9225 12.5591 3.9185 13.5631 2.68 13.5631C1.4415 13.5631 0.4375 12.5591 0.4375 11.3206Z" fill="#A2A2A3"/>
<path fill-rule="evenodd" clip-rule="evenodd" d="M2.68 1.5625C2.06282 1.5625 1.5625 2.06282 1.5625 2.68C1.5625 3.29718 2.06282 3.7975 2.68 3.7975C3.29718 3.7975 3.7975 3.29718 3.7975 2.68C3.7975 2.06282 3.29718 1.5625 2.68 1.5625ZM0.4375 2.68C0.4375 1.4415 1.4415 0.4375 2.68 0.4375C3.9185 0.4375 4.9225 1.4415 4.9225 2.68C4.9225 3.9185 3.9185 4.9225 2.68 4.9225C1.4415 4.9225 0.4375 3.9185 0.4375 2.68Z" fill="#A2A2A3"/>
<path fill-rule="evenodd" clip-rule="evenodd" d="M8.53742 0.550033C8.78595 0.736429 8.83632 1.089 8.64992 1.33753L7.88492 2.35753H9.63992C10.2066 2.35753 10.735 2.49959 11.1177 2.88229C11.5004 3.26498 11.6424 3.79333 11.6424 4.36003V9.16003C11.6424 9.47069 11.3906 9.72253 11.0799 9.72253C10.7693 9.72253 10.5174 9.47069 10.5174 9.16003V4.36003C10.5174 3.96674 10.4195 3.77509 10.3222 3.67778C10.2249 3.58048 10.0332 3.48253 9.63992 3.48253H7.88492L8.64992 4.50253C8.83632 4.75106 8.78595 5.10364 8.53742 5.29003C8.28889 5.47643 7.93632 5.42606 7.74992 5.17753L6.30992 3.25753C6.15992 3.05753 6.15992 2.78253 6.30992 2.58253L7.74992 0.662533C7.93632 0.414005 8.28889 0.363637 8.53742 0.550033ZM2.91992 4.27753C3.23058 4.27753 3.48242 4.52937 3.48242 4.84003V9.16003C3.48242 9.47069 3.23058 9.72253 2.91992 9.72253C2.60926 9.72253 2.35742 9.47069 2.35742 9.16003V4.84003C2.35742 4.52937 2.60926 4.27753 2.91992 4.27753Z" fill="#A2A2A3"/>
</svg>
