<svg width="487" height="487" viewBox="0 0 487 487" fill="none" xmlns="http://www.w3.org/2000/svg">
<path d="M243.5 0C377.977 0 487 109.015 487 243.501H243.5V0Z" fill="#EF018F"/>
<path d="M243.5 243.501C109.023 243.501 0 134.485 0 0H243.5V243.501Z" fill="#FCCA46"/>
<path d="M367.893 243.5L487 243.5L487 362.607C421.196 362.607 367.893 309.304 367.893 243.5Z" fill="#000759"/>
<path d="M274.598 243.5L367.893 243.5C367.893 309.304 421.196 362.607 487 362.607L487 455.902C369.697 455.902 274.598 360.803 274.598 243.5Z" fill="#D1D3D4"/>
<path d="M243.499 243.5L274.598 243.5C274.598 360.803 369.697 455.902 487 455.902L487 487C352.53 487 243.499 377.969 243.499 243.5Z" fill="#02ADEE"/>
</svg>
