<svg width="24" height="24" viewBox="0 0 24 24" fill="none" xmlns="http://www.w3.org/2000/svg">
<path fill-rule="evenodd" clip-rule="evenodd" d="M6.99987 4.51677C8.47991 3.52784 10.22 3 12 3C14.3869 3 16.6761 3.94821 18.364 5.63604C20.0518 7.32387 21 9.61305 21 12C21 13.78 20.4722 15.5201 19.4832 17.0001C18.4943 18.4802 17.0887 19.6337 15.4442 20.3149C13.7996 20.9961 11.99 21.1743 10.2442 20.8271C8.49836 20.4798 6.89472 19.6226 5.63604 18.364C4.37737 17.1053 3.5202 15.5016 3.17294 13.7558C2.82567 12.01 3.0039 10.2004 3.68509 8.55585C4.36628 6.91131 5.51983 5.50571 6.99987 4.51677ZM7.74809 5.63657C9.00666 4.79562 10.4863 4.34676 12 4.34676C14.0298 4.34676 15.9764 5.15308 17.4117 6.58834C18.8469 8.0236 19.6532 9.97023 19.6532 12C19.6532 13.5137 19.2044 14.9933 18.3634 16.2519C17.5225 17.5105 16.3272 18.4914 14.9288 19.0707C13.5303 19.6499 11.9915 19.8015 10.5069 19.5062C9.02235 19.2109 7.65867 18.482 6.58835 17.4117C5.51802 16.3413 4.78912 14.9777 4.49382 13.4931C4.19852 12.0085 4.35008 10.4697 4.92933 9.07123C5.50859 7.67279 6.48952 6.47751 7.74809 5.63657Z" fill="#DEDEDE"/>
<path d="M12.9074 16.7019C12.7283 16.8899 12.5093 16.9839 12.2503 16.9839C11.9918 16.9844 11.773 16.8907 11.5939 16.7026C11.4149 16.5146 11.3253 16.2846 11.3253 16.0127C11.3258 15.7412 11.4154 15.5115 11.5939 15.3235C11.7725 15.1355 11.9913 15.0415 12.2503 15.0415C12.5098 15.0409 12.7288 15.1347 12.9074 15.3227C13.086 15.5107 13.1753 15.7407 13.1753 16.0127C13.1758 16.2841 13.0865 16.5138 12.9074 16.7019Z" fill="#DEDEDE"/>
<path d="M12.9533 13.9925H11.5843C11.5843 13.3062 11.646 12.8335 11.7693 12.5745C11.8926 12.3156 12.2256 11.9335 12.7683 11.4285C12.9903 11.2348 13.1753 11.0245 13.3233 10.7976C13.4713 10.5707 13.5453 10.3278 13.5453 10.0688C13.5453 9.79736 13.4466 9.54821 13.2493 9.32134C13.0519 9.09446 12.756 8.98102 12.3613 8.98102C11.9178 8.98102 11.588 9.11699 11.3719 9.38893C11.1559 9.66088 11.017 9.91339 10.9553 10.1465L9.73438 9.64145C9.90654 9.09757 10.2117 8.63138 10.6497 8.24289C11.0878 7.8544 11.6583 7.66016 12.3613 7.66016C13.0519 7.66016 13.6501 7.8544 14.1558 8.24289C14.6614 8.63138 14.9142 9.18821 14.9142 9.91339C14.9142 10.3402 14.8217 10.7059 14.6367 11.0105C14.4517 11.3151 14.1989 11.6357 13.8783 11.9724C13.4471 12.3997 13.1851 12.7364 13.0924 12.9825C12.9997 13.2285 12.9533 13.5652 12.9533 13.9925Z" fill="#DEDEDE"/>
</svg>
