<svg width="24" height="24" viewBox="0 0 24 24" fill="none" xmlns="http://www.w3.org/2000/svg">
<g clip-path="url(#clip0_5480_12369)">
<path d="M23.7448 9.75468L12.3684 1.42513C12.149 1.26454 11.851 1.26454 11.6317 1.42513L0.255261 9.75468C-0.0226135 9.95816 -0.0829885 10.3484 0.120496 10.6262C0.32398 10.9041 0.714215 10.9644 0.992043 10.761L12 2.70112L23.008 10.7609C23.119 10.8423 23.248 10.8814 23.3759 10.8814C23.5679 10.8814 23.7574 10.7931 23.8795 10.6262C24.083 10.3484 24.0227 9.95816 23.7448 9.75468Z" fill="white"/>
<path d="M20.7286 10.8984C20.3843 10.8984 20.105 11.1776 20.105 11.522V21.4478H15.1165V16.0297C15.1165 14.3103 13.7177 12.9115 11.9984 12.9115C10.2791 12.9115 8.88027 14.3104 8.88027 16.0297V21.4478H3.89169V11.5221C3.89169 11.1777 3.61245 10.8985 3.26811 10.8985C2.92377 10.8985 2.64453 11.1777 2.64453 11.5221V22.0714C2.64453 22.4158 2.92377 22.695 3.26811 22.695H9.50384C9.83178 22.695 10.1001 22.4416 10.125 22.12C10.1265 22.1054 10.1274 22.0895 10.1274 22.0714V16.0297C10.1274 14.998 10.9667 14.1587 11.9984 14.1587C13.0301 14.1587 13.8694 14.9981 13.8694 16.0297V22.0714C13.8694 22.0894 13.8703 22.105 13.8718 22.1194C13.8964 22.4413 14.1648 22.695 14.4929 22.695H20.7287C21.0731 22.695 21.3522 22.4158 21.3522 22.0714V11.5221C21.3522 11.1776 21.073 10.8984 20.7286 10.8984Z" fill="white"/>
</g>
<defs>
<clipPath id="clip0_5480_12369">
<rect width="24" height="24" fill="white"/>
</clipPath>
</defs>
</svg>
