<svg width="16" height="15" viewBox="0 0 16 15" fill="none" xmlns="http://www.w3.org/2000/svg">
<path d="M6.52344 14.75C6.66016 14.7773 6.76953 14.7227 6.79688 14.6133L10.6523 1.35156C10.6797 1.24219 10.625 1.10547 10.5156 1.07812L9.44922 0.777344C9.33984 0.75 9.20312 0.804688 9.17578 0.914062L5.32031 14.1758C5.29297 14.2852 5.34766 14.4219 5.48438 14.4492L6.52344 14.75ZM4.25391 11.4414L4.99219 10.6484C5.07422 10.5664 5.07422 10.4297 4.99219 10.3477L2.09375 7.75L4.99219 5.17969C5.07422 5.09766 5.07422 4.96094 4.99219 4.87891L4.25391 4.08594C4.17188 4.00391 4.03516 3.97656 3.95312 4.05859L0.179688 7.61328C0.0976562 7.69531 0.0976562 7.83203 0.179688 7.91406L3.95312 11.4414C4.03516 11.5234 4.17188 11.5234 4.25391 11.4414ZM12.0195 11.4414L15.793 7.91406C15.875 7.83203 15.875 7.69531 15.793 7.61328L12.0195 4.05859C11.9375 3.97656 11.8008 4.00391 11.7188 4.08594L10.9805 4.87891C10.8984 4.96094 10.8984 5.09766 10.9805 5.17969L13.8789 7.75L10.9805 10.3477C10.8984 10.4297 10.8984 10.5664 10.9805 10.6484L11.7188 11.4414C11.8008 11.5234 11.9375 11.5234 12.0195 11.4414Z" fill="#E8EDEF"/>
</svg>
