<svg width="24" height="24" viewBox="0 0 24 24" fill="none" xmlns="http://www.w3.org/2000/svg">
<rect width="24" height="24" fill="white"/>
<path d="M8.70041 15.8987L4.80041 11.9987L8.70041 8.09869C8.79305 8.00717 8.8666 7.89817 8.9168 7.77801C8.967 7.65784 8.99285 7.52891 8.99285 7.39869C8.99285 7.26846 8.967 7.13953 8.9168 7.01937C8.8666 6.89921 8.79305 6.79021 8.70041 6.69869C8.60889 6.60605 8.49989 6.5325 8.37973 6.4823C8.25957 6.4321 8.13064 6.40625 8.00041 6.40625C7.87019 6.40625 7.74126 6.4321 7.6211 6.4823C7.50094 6.5325 7.39194 6.60605 7.30041 6.69869L2.71041 11.2887C2.61771 11.3812 2.54416 11.4911 2.49398 11.6121C2.4438 11.733 2.41797 11.8627 2.41797 11.9937C2.41797 12.1247 2.4438 12.2543 2.49398 12.3753C2.54416 12.4963 2.61771 12.6062 2.71041 12.6987L7.30041 17.2987C7.69041 17.6887 8.31041 17.6887 8.70041 17.2987C8.79305 17.2072 8.8666 17.0982 8.9168 16.978C8.967 16.8578 8.99285 16.7289 8.99285 16.5987C8.99285 16.4685 8.967 16.3395 8.9168 16.2194C8.8666 16.0992 8.79305 15.9902 8.70041 15.8987ZM15.3004 15.8987L19.2004 11.9987L15.3004 8.09869C15.2078 8.00717 15.1342 7.89817 15.084 7.77801C15.0338 7.65784 15.008 7.52891 15.008 7.39869C15.008 7.26846 15.0338 7.13953 15.084 7.01937C15.1342 6.89921 15.2078 6.79021 15.3004 6.69869C15.3919 6.60605 15.5009 6.5325 15.6211 6.4823C15.7413 6.4321 15.8702 6.40625 16.0004 6.40625C16.1306 6.40625 16.2596 6.4321 16.3797 6.4823C16.4999 6.5325 16.6089 6.60605 16.7004 6.69869L21.2904 11.2887C21.6804 11.6787 21.6804 12.3087 21.2904 12.6987L16.7004 17.2987C16.6089 17.3913 16.4999 17.4649 16.3797 17.5151C16.2596 17.5653 16.1306 17.5911 16.0004 17.5911C15.8702 17.5911 15.7413 17.5653 15.6211 17.5151C15.5009 17.4649 15.3919 17.3913 15.3004 17.2987C15.2078 17.2072 15.1342 17.0982 15.084 16.978C15.0338 16.8578 15.008 16.7289 15.008 16.5987C15.008 16.4685 15.0338 16.3395 15.084 16.2194C15.1342 16.0992 15.2078 15.9902 15.3004 15.8987Z" fill="#4B4B4B"/>
</svg>
