<svg width="24" height="24" viewBox="0 0 24 24" fill="none" xmlns="http://www.w3.org/2000/svg">
<path d="M20.5901 9.99911H12.6501C12.1665 8.62965 11.203 7.48188 9.93795 6.76846C8.67292 6.05505 7.19218 5.82435 5.77008 6.11911C3.48008 6.57911 1.62008 8.41911 1.14008 10.6991C0.945784 11.5763 0.950891 12.4859 1.15503 13.3608C1.35916 14.2358 1.75712 15.0537 2.31953 15.7543C2.88195 16.455 3.59449 17.0204 4.40458 17.4089C5.21467 17.7974 6.10164 17.9991 7.00008 17.9991C8.24002 17.9992 9.44943 17.6144 10.4614 16.8979C11.4734 16.1815 12.2381 15.1686 12.6501 13.9991H13.0001L14.2901 15.2891C14.6801 15.6791 15.3101 15.6791 15.7001 15.2891L17.0001 13.9991L18.2901 15.2891C18.6801 15.6791 19.3201 15.6791 19.7101 15.2891L22.3001 12.6791C22.3933 12.5856 22.467 12.4745 22.517 12.3522C22.567 12.23 22.5922 12.0991 22.5913 11.967C22.5904 11.835 22.5633 11.7044 22.5116 11.5829C22.4599 11.4614 22.3846 11.3513 22.2901 11.2591L21.3001 10.2891C21.1001 10.0991 20.8501 9.99911 20.5901 9.99911ZM7.00008 14.9991C5.35008 14.9991 4.00008 13.6491 4.00008 11.9991C4.00008 10.3491 5.35008 8.99911 7.00008 8.99911C8.65008 8.99911 10.0001 10.3491 10.0001 11.9991C10.0001 13.6491 8.65008 14.9991 7.00008 14.9991Z" fill="#2B89DF"/>
</svg>
