<svg width="14" height="15" viewBox="0 0 14 15" fill="none" xmlns="http://www.w3.org/2000/svg">
<path d="M3.9375 10.1562C3.19922 10.1562 2.625 10.7578 2.625 11.4688C2.625 12.207 3.19922 12.7812 3.9375 12.7812C4.64844 12.7812 5.25 12.207 5.25 11.4688C5.25 10.7578 4.64844 10.1562 3.9375 10.1562ZM2.76172 6.57422C2.92578 6.73828 3.25391 6.875 3.47266 6.875C3.71875 6.875 4.04688 6.73828 4.21094 6.57422L6.34375 4.44141C6.69922 4.08594 6.97266 3.40234 6.97266 2.91016C6.97266 2.33594 6.61719 1.59766 6.20703 1.24219C5.41406 0.613281 4.29297 0.613281 3.5 1.21484C2.67969 0.613281 1.55859 0.613281 0.765625 1.24219C0.328125 1.59766 0 2.36328 0 2.91016C0 3.40234 0.273438 4.08594 0.628906 4.44141L2.76172 6.57422ZM1.61328 2.25391C1.72266 2.14453 1.96875 2.0625 2.10547 2.0625C2.13281 2.0625 2.13281 2.0625 2.13281 2.0625C2.35156 2.08984 2.65234 2.19922 2.81641 2.36328L3.5 3.04688L4.15625 2.36328C4.51172 2.03516 5.03125 1.98047 5.35938 2.25391C5.52344 2.39062 5.66016 2.69141 5.66016 2.91016C5.66016 3.10156 5.55078 3.375 5.41406 3.51172L3.47266 5.45312L1.55859 3.51172C1.42188 3.375 1.28516 3.10156 1.28516 2.91016C1.28516 2.69141 1.44922 2.39062 1.61328 2.25391ZM10.8555 10.5938L11.7305 8.67969C11.7852 8.625 11.8125 8.48828 11.8125 8.37891C11.8125 8.02344 11.5117 7.72266 11.1562 7.72266C10.9102 7.72266 10.6367 7.91406 10.5547 8.13281L8.80469 11.9062H11.7852L10.7734 13.793C10.7188 13.875 10.6914 14.0117 10.6914 14.1211C10.6914 14.4766 10.9922 14.7773 11.3477 14.7773C11.5664 14.7773 11.8398 14.6133 11.9492 14.4219L14 10.5938H10.8555ZM6.97266 8.625H6.23438L6.04297 8.24219C5.93359 7.96875 5.63281 7.75 5.33203 7.75H2.51562C2.21484 7.75 1.91406 7.96875 1.80469 8.24219L1.61328 8.625H0.875C0.382812 8.625 0 9.03516 0 9.5V13.875C0 14.3672 0.382812 14.75 0.875 14.75H6.97266C7.46484 14.75 7.84766 14.3672 7.84766 13.875V9.5C7.84766 9.03516 7.46484 8.625 6.97266 8.625ZM6.53516 13.4375H1.3125V9.9375H2.43359L2.78906 9.22656L2.87109 9.0625H4.97656L5.05859 9.22656L5.41406 9.9375H6.53516V13.4375ZM9.59766 6.4375V2.63672L12.6602 2.14453V4.30469C12.5508 4.27734 12.3594 4.25 12.2227 4.25C11.2656 4.25 10.4727 4.85156 10.4727 5.5625C10.4727 6.30078 11.2656 6.875 12.2227 6.875C13.207 6.875 13.9727 6.30078 13.9727 5.5625V1.625C13.9727 1.16016 13.6172 0.75 13.1797 0.75C13.1523 0.777344 13.0977 0.777344 13.043 0.777344L8.99609 1.40625C8.58594 1.46094 8.28516 1.81641 8.28516 2.25391V5.17969C8.17578 5.15234 7.98438 5.125 7.84766 5.125C6.89062 5.125 6.09766 5.72656 6.09766 6.46484C6.09766 7.17578 6.89062 7.77734 7.84766 7.77734C8.83203 7.77734 9.59766 7.17578 9.59766 6.4375Z" fill="#E8EDEF"/>
</svg>
