<svg width="14" height="11" viewBox="0 0 14 11" fill="none" xmlns="http://www.w3.org/2000/svg">
<path d="M12.6875 0.5H1.3125C0.574219 0.5 0 1.10156 0 1.8125V9.6875C0 10.4258 0.574219 11 1.3125 11H12.6875C13.3984 11 14 10.4258 14 9.6875V1.8125C14 1.10156 13.3984 0.5 12.6875 0.5ZM12.5234 9.6875H1.47656C1.36719 9.6875 1.3125 9.63281 1.3125 9.52344V1.97656C1.3125 1.89453 1.36719 1.8125 1.47656 1.8125H12.5234C12.6055 1.8125 12.6875 1.89453 12.6875 1.97656V9.52344C12.6875 9.63281 12.6055 9.6875 12.5234 9.6875ZM3.5 2.90625C2.87109 2.90625 2.40625 3.39844 2.40625 4C2.40625 4.62891 2.87109 5.09375 3.5 5.09375C4.10156 5.09375 4.59375 4.62891 4.59375 4C4.59375 3.39844 4.10156 2.90625 3.5 2.90625ZM2.625 8.375H11.375V6.1875L8.96875 3.80859C8.83203 3.67188 8.64062 3.67188 8.50391 3.80859L5.25 7.0625L4.15625 5.99609C4.01953 5.85938 3.82812 5.85938 3.69141 5.99609L2.625 7.0625V8.375Z" fill="#E8EDEF"/>
</svg>
