<svg width="24" height="24" viewBox="0 0 24 24" fill="none" xmlns="http://www.w3.org/2000/svg">
<g clip-path="url(#clip0_1044_891)">
<path d="M15.1161 0H2.82373V24H21.1767V6.06056L15.1161 0ZM15.5296 2.41002L18.7666 5.64706H15.5296V2.41002ZM4.2355 22.5882V1.41176H14.1178V7.05882H19.7649V22.5882H4.2355Z" fill="white"/>
<path d="M5.64746 2.82324H11.0592V4.23501H5.64746V2.82324Z" fill="white"/>
<path d="M5.64746 5.64746H11.0592V7.05923H5.64746V5.64746Z" fill="white"/>
<path d="M15.4587 16.941H16.9414V15.5292H15.4587C15.3669 15.0793 15.189 14.6605 14.9435 14.2902L15.9933 13.2403L14.995 12.2421L13.9452 13.292C13.5748 13.0465 13.156 12.8685 12.7061 12.7768V11.2939H11.2943V12.7767C10.8444 12.8684 10.4256 13.0464 10.0553 13.2919L9.00544 12.242L8.00718 13.2403L9.05706 14.2901C8.81155 14.6604 8.63358 15.0793 8.54186 15.5292H7.05908V16.941H8.54186C8.63358 17.3909 8.81155 17.8097 9.05706 18.18L8.00718 19.2299L9.00544 20.2281L10.0553 19.1782C10.4256 19.4237 10.8444 19.6017 11.2943 19.6934V21.1763H12.7061V19.6935C13.156 19.6018 13.5748 19.4238 13.9452 19.1783L14.995 20.2282L15.9933 19.2299L14.9435 18.1801C15.189 17.8098 15.3669 17.3909 15.4587 16.941ZM12.0003 18.3528C10.8325 18.3528 9.88261 17.4028 9.88261 16.2351C9.98906 13.4296 14.0119 13.4304 14.1179 16.2352C14.1179 17.4028 13.1679 18.3528 12.0003 18.3528Z" fill="white"/>
<path d="M11.2944 15.5293H12.7062V16.9411H11.2944V15.5293Z" fill="white"/>
<path d="M5.64746 8.4707H18.3533V9.88247H5.64746V8.4707Z" fill="white"/>
<path d="M5.64746 11.2939H7.05923V12.7057H5.64746V11.2939Z" fill="white"/>
<path d="M16.9414 11.2939H18.3532V12.7057H16.9414V11.2939Z" fill="white"/>
<path d="M5.64746 19.7646H7.05923V21.1764H5.64746V19.7646Z" fill="white"/>
<path d="M16.9414 19.7646H18.3532V21.1764H16.9414V19.7646Z" fill="white"/>
</g>
<defs>
<clipPath id="clip0_1044_891">
<rect width="24" height="24" fill="white"/>
</clipPath>
</defs>
</svg>
