<svg width="10" height="10" viewBox="0 0 10 10" fill="none" xmlns="http://www.w3.org/2000/svg">
<path d="M9.23633 2.34766L7.77734 0.888672C7.61914 0.730469 7.39062 0.625 7.17969 0.625L3.57617 0.625C3.11914 0.642578 2.75 1.01172 2.75 1.48633L2.75 5.6875H0.640625C0.552734 5.6875 0.5 5.75781 0.5 5.82812L0.5 6.10938C0.5 6.19727 0.552734 6.25 0.640625 6.25H5V7.18164C5 7.375 5.10547 7.55078 5.28125 7.62109C5.54492 7.74414 5.75586 7.60352 5.82617 7.5332L7.0918 6.33789C7.17969 6.23242 7.25 6.10938 7.25 5.98633C7.25 5.8457 7.17969 5.72266 7.0918 5.61719L5.82617 4.42188C5.68555 4.28125 5.47461 4.24609 5.28125 4.33398C5.10547 4.4043 5 4.58008 5 4.77344V5.6875H3.3125L3.3125 1.48633C3.3125 1.32813 3.43555 1.1875 3.59375 1.1875L6.6875 1.1875V3.0332C6.6875 3.26172 6.86328 3.4375 7.10937 3.4375L8.9375 3.4375V8.79883C8.9375 8.93945 8.79687 9.08008 8.65625 9.08008L3.57617 9.08008C3.43555 9.08008 3.29492 8.93945 3.29492 8.79883L3.29492 6.8125H2.75L2.75 8.79883C2.75 9.25586 3.11914 9.625 3.57617 9.625L8.65625 9.625C9.11328 9.625 9.5 9.25586 9.5 8.79883L9.5 2.94531C9.5 2.73438 9.39453 2.50586 9.23633 2.34766ZM5.5625 4.94922L6.65234 5.96875L5.5625 7.00586L5.5625 4.94922ZM7.25 2.89258V1.20508C7.28516 1.22266 7.33789 1.24023 7.37305 1.27539L8.84961 2.75195C8.88477 2.78711 8.90234 2.83984 8.91992 2.89258L7.25 2.89258Z" fill="#24232C"/>
</svg>
