<svg width="16" height="16" viewBox="0 0 16 16" fill="none" xmlns="http://www.w3.org/2000/svg">
<path fill-rule="evenodd" clip-rule="evenodd" d="M12.05 7.09893C11.8993 6.94845 11.6951 6.86392 11.4821 6.86392C11.2692 6.86392 11.065 6.94845 10.9143 7.09893L8.80357 9.20964V1.30357C8.80357 1.09045 8.71891 0.88606 8.56821 0.735361C8.41751 0.584662 8.21312 0.5 8 0.5C7.78688 0.5 7.58249 0.584662 7.43179 0.735361C7.28109 0.88606 7.19643 1.09045 7.19643 1.30357V9.20964L5.08571 7.09893C4.93338 6.95699 4.73191 6.87971 4.52373 6.88338C4.31555 6.88706 4.11692 6.97139 3.96969 7.11862C3.82246 7.26585 3.73813 7.46447 3.73446 7.67265C3.73078 7.88083 3.80806 8.08231 3.95 8.23464L7.43214 11.7168L8 12.2857L8.56786 11.7179L12.05 8.23571C12.1247 8.16109 12.1839 8.07248 12.2243 7.97495C12.2647 7.87743 12.2855 7.77289 12.2855 7.66732C12.2855 7.56175 12.2647 7.45722 12.2243 7.35969C12.1839 7.26216 12.1247 7.17355 12.05 7.09893ZM2.10714 9.875C2.10714 9.76947 2.08636 9.66498 2.04597 9.56749C2.00559 9.46999 1.9464 9.38141 1.87178 9.30679C1.79716 9.23217 1.70858 9.17298 1.61108 9.1326C1.51359 9.09221 1.4091 9.07143 1.30357 9.07143C1.19804 9.07143 1.09355 9.09221 0.996058 9.1326C0.898564 9.17298 0.809979 9.23217 0.735361 9.30679C0.660742 9.38141 0.601552 9.46999 0.561168 9.56749C0.520785 9.66498 0.5 9.76947 0.5 9.875V13.3571C0.5 13.9255 0.725765 14.4705 1.12763 14.8724C1.52949 15.2742 2.07454 15.5 2.64286 15.5H13.3571C13.9255 15.5 14.4705 15.2742 14.8724 14.8724C15.2742 14.4705 15.5 13.9255 15.5 13.3571V9.875C15.5 9.66188 15.4153 9.45749 15.2646 9.30679C15.1139 9.15609 14.9095 9.07143 14.6964 9.07143C14.4833 9.07143 14.2789 9.15609 14.1282 9.30679C13.9775 9.45749 13.8929 9.66188 13.8929 9.875V13.3571C13.8929 13.4992 13.8364 13.6355 13.736 13.736C13.6355 13.8364 13.4992 13.8929 13.3571 13.8929H2.64286C2.50078 13.8929 2.36452 13.8364 2.26405 13.736C2.16358 13.6355 2.10714 13.4992 2.10714 13.3571V9.875Z" fill="#4B4B4B"/>
</svg>
