<svg width="30" height="30" viewBox="0 0 30 30" fill="none" xmlns="http://www.w3.org/2000/svg">
<g clip-path="url(#clip0_499_2259)">
<path d="M25.6066 4.39336C22.7735 1.56023 19.0066 0 15 0C10.9934 0 7.22654 1.56023 4.39336 4.39336C1.56023 7.22654 0 10.9934 0 15C0 19.0066 1.56023 22.7735 4.39336 25.6066C7.22654 28.4398 10.9934 30 15 30C19.0066 30 22.7735 28.4398 25.6066 25.6066C28.4398 22.7735 30 19.0066 30 15C30 10.9934 28.4398 7.22654 25.6066 4.39336ZM15 28.0435C7.80785 28.0435 1.9565 22.1922 1.9565 15C1.9565 7.80779 7.80785 1.9565 15 1.9565C22.1921 1.9565 28.0435 7.80785 28.0435 15C28.0435 22.1921 22.1921 28.0435 15 28.0435Z" fill="white"/>
<path d="M16.5118 8.10352H13.4883V10.8433H16.5118V8.10352Z" fill="white"/>
<path d="M16.5118 11.9766H13.4883V21.8968H16.5118V11.9766Z" fill="white"/>
</g>
<defs>
<clipPath id="clip0_499_2259">
<rect width="30" height="30" fill="white"/>
</clipPath>
</defs>
</svg>
