<svg width="24" height="24" viewBox="0 0 24 24" fill="none" xmlns="http://www.w3.org/2000/svg">
<path fill-rule="evenodd" clip-rule="evenodd" d="M15.7071 3.29289C16.0976 3.68342 16.0976 4.31658 15.7071 4.70711L12.8067 7.6075L16.3925 11.1933L19.2929 8.29289C19.6834 7.90237 20.3166 7.90237 20.7071 8.29289C21.0976 8.68342 21.0976 9.31658 20.7071 9.70711L17.8067 12.6075L18.7071 13.5079C18.8946 13.6954 19 13.9498 19 14.215C19 14.4802 18.8946 14.7346 18.7071 14.9221L16.6598 16.9694C16.0336 17.6188 15.2846 18.1372 14.4563 18.4947C13.6248 18.8535 12.7302 19.0429 11.8247 19.0518C10.9192 19.0606 10.021 18.8888 9.18273 18.5464C8.65499 18.3308 8.15765 18.0504 7.70183 17.7124L4.70711 20.7071C4.31658 21.0976 3.68342 21.0976 3.29289 20.7071C2.90237 20.3166 2.90237 19.6834 3.29289 19.2929L6.28761 16.2982C5.94963 15.8424 5.66916 15.345 5.45359 14.8173C5.11116 13.979 4.93936 13.0808 4.94824 12.1753C4.95713 11.2698 5.14651 10.3752 5.50532 9.54373C5.86278 8.71543 6.38124 7.96643 7.03055 7.34023L9.07789 5.29289C9.46842 4.90237 10.1016 4.90237 10.4921 5.29289L11.3925 6.19329L14.2929 3.29289C14.6834 2.90237 15.3166 2.90237 15.7071 3.29289ZM9.785 7.41421L8.43811 8.76111L8.4241 8.77484C7.96305 9.21815 7.59505 9.74895 7.34162 10.3362C7.08819 10.9234 6.95442 11.5553 6.94815 12.1949C6.94187 12.8345 7.06322 13.4689 7.30508 14.061C7.54695 14.6531 7.90447 15.191 8.35673 15.6433C8.809 16.0955 9.34692 16.4531 9.93902 16.6949C10.5311 16.9368 11.1655 17.0581 11.8051 17.0519C12.4447 17.0456 13.0766 16.9118 13.6638 16.6584C14.251 16.405 14.7819 16.0369 15.2252 15.5759L15.2389 15.5619L16.5858 14.215L9.785 7.41421Z" fill="#DEDEDE"/>
</svg>
