<svg width="14" height="14" viewBox="0 0 14 14" fill="none" xmlns="http://www.w3.org/2000/svg">
<path d="M8.60117 5.39883C8.3001 5.09775 7.97165 4.87879 7.61584 4.68719C7.47898 4.63245 7.34213 4.65982 7.23265 4.76931L7.12317 4.87879C6.87683 5.09775 6.73998 5.39883 6.71261 5.6999C6.68524 5.83675 6.76735 5.97361 6.87683 6.05572C7.06843 6.13783 7.3695 6.32942 7.50635 6.49365C8.40958 7.39687 8.40958 8.84751 7.50635 9.75073L5.45357 11.8035C4.55034 12.7067 3.09971 12.7067 2.19648 11.8035C1.29326 10.9003 1.29326 9.44966 2.19648 8.54643L3.45552 7.28739C3.53763 7.20528 3.565 7.0958 3.53763 6.98631C3.48289 6.71261 3.42815 6.24731 3.40078 5.94624C3.40078 5.67253 3.04497 5.53568 2.85337 5.72727C2.52493 6.05572 2.00489 6.57576 1.12903 7.45161C-0.376344 8.95699 -0.376344 11.393 1.12903 12.871C2.60704 14.3763 5.04301 14.3763 6.54839 12.871C8.79277 10.6266 8.68328 10.7361 8.84751 10.5171C10.0792 9.0391 9.99707 6.79472 8.60117 5.39883ZM12.871 1.12903C11.393 -0.376344 8.95699 -0.376344 7.45161 1.12903C5.20723 3.37341 5.31672 3.26393 5.15249 3.48289C3.92082 4.9609 4.00293 7.20528 5.39883 8.60117C5.6999 8.90225 6.02835 9.12121 6.38416 9.31281C6.52102 9.36755 6.65787 9.34018 6.76735 9.23069L6.87683 9.12121C7.12317 8.90225 7.26002 8.60117 7.28739 8.3001C7.31476 8.16325 7.23265 8.02639 7.12317 7.94428C6.93157 7.86217 6.6305 7.67058 6.49365 7.50635C5.59042 6.60313 5.59042 5.15249 6.49365 4.24927L8.54643 2.19648C9.44966 1.29326 10.9003 1.29326 11.8035 2.19648C12.7067 3.09971 12.7067 4.55034 11.8035 5.45357L10.5445 6.71261C10.4624 6.79472 10.435 6.9042 10.4624 7.01369C10.5171 7.28739 10.5718 7.75269 10.5992 8.05376C10.5992 8.32747 10.955 8.46432 11.1466 8.27273C11.4751 7.94428 11.9951 7.42424 12.871 6.54839C14.3763 5.04301 14.3763 2.60704 12.871 1.12903Z" fill="#EFEEEE"/>
</svg>
