<svg width="16" height="16" viewBox="0 0 16 16" fill="none" xmlns="http://www.w3.org/2000/svg">
<path d="M9.58594 6.16406C9.28516 5.86328 8.95703 5.64453 8.60156 5.45312C8.46484 5.39844 8.32812 5.42578 8.21875 5.53516L8.10938 5.64453C7.86328 5.86328 7.72656 6.16406 7.69922 6.46484C7.67188 6.60156 7.75391 6.73828 7.86328 6.82031C8.05469 6.90234 8.35547 7.09375 8.49219 7.25781C9.39453 8.16016 9.39453 9.60938 8.49219 10.5117L6.44141 12.5625C5.53906 13.4648 4.08984 13.4648 3.1875 12.5625C2.28516 11.6602 2.28516 10.2109 3.1875 9.30859L4.44531 8.05078C4.52734 7.96875 4.55469 7.85938 4.52734 7.75C4.47266 7.47656 4.41797 7.01172 4.39062 6.71094C4.39062 6.4375 4.03516 6.30078 3.84375 6.49219C3.51562 6.82031 2.99609 7.33984 2.12109 8.21484C0.617188 9.71875 0.617188 12.1523 2.12109 13.6289C3.59766 15.1328 6.03125 15.1328 7.53516 13.6289C9.77734 11.3867 9.66797 11.4961 9.83203 11.2773C11.0625 9.80078 10.9805 7.55859 9.58594 6.16406ZM13.8516 1.89844C12.375 0.394531 9.94141 0.394531 8.4375 1.89844C6.19531 4.14062 6.30469 4.03125 6.14062 4.25C4.91016 5.72656 4.99219 7.96875 6.38672 9.36328C6.6875 9.66406 7.01562 9.88281 7.37109 10.0742C7.50781 10.1289 7.64453 10.1016 7.75391 9.99219L7.86328 9.88281C8.10938 9.66406 8.24609 9.36328 8.27344 9.0625C8.30078 8.92578 8.21875 8.78906 8.10938 8.70703C7.91797 8.625 7.61719 8.43359 7.48047 8.26953C6.57812 7.36719 6.57812 5.91797 7.48047 5.01562L9.53125 2.96484C10.4336 2.0625 11.8828 2.0625 12.7852 2.96484C13.6875 3.86719 13.6875 5.31641 12.7852 6.21875L11.5273 7.47656C11.4453 7.55859 11.418 7.66797 11.4453 7.77734C11.5 8.05078 11.5547 8.51562 11.582 8.81641C11.582 9.08984 11.9375 9.22656 12.1289 9.03516C12.457 8.70703 12.9766 8.1875 13.8516 7.3125C15.3555 5.80859 15.3555 3.375 13.8516 1.89844Z" fill="#E8EDEF"/>
</svg>
