<svg width="18" height="18" viewBox="0 0 18 18" fill="none" xmlns="http://www.w3.org/2000/svg">
<path d="M7.34317 7.34299C8.19413 6.49216 9.33958 6.00093 10.5426 5.9709C11.7456 5.94087 12.9141 6.37434 13.8065 7.18166L13.9763 7.34299L16.6292 9.9966C17.4932 10.8621 17.9849 12.0307 17.9997 13.2535C18.0144 14.4763 17.5509 15.6565 16.708 16.5425C15.8651 17.4285 14.7094 17.9503 13.4874 17.9966C12.2653 18.043 11.0734 17.6102 10.1658 16.7905L9.99698 16.6292L8.00639 14.6388C7.83815 14.47 7.74047 14.2435 7.7332 14.0053C7.72592 13.767 7.8096 13.535 7.96723 13.3563C8.12486 13.1775 8.34462 13.0655 8.58188 13.0429C8.81914 13.0203 9.0561 13.0888 9.24465 13.2346L9.33283 13.3124L11.3234 15.3029C11.8394 15.8218 12.5373 16.1194 13.2691 16.1324C14.0009 16.1454 14.7089 15.8729 15.2431 15.3726C15.7772 14.8723 16.0954 14.1836 16.1302 13.4526C16.165 12.7216 15.9136 12.0058 15.4294 11.4571L15.3027 11.3229L12.6499 8.66933C12.3885 8.40797 12.0783 8.20065 11.7368 8.05921C11.3953 7.91776 11.0293 7.84496 10.6597 7.84496C10.2901 7.84496 9.92414 7.91776 9.58267 8.05921C9.2412 8.20065 8.93094 8.40797 8.66961 8.66933C8.49269 8.84019 8.25573 8.93474 8.00977 8.9326C7.76381 8.93046 7.52853 8.83181 7.3546 8.6579C7.18068 8.48399 7.08202 8.24873 7.07988 8.00278C7.07774 7.75684 7.1723 7.5199 7.34317 7.34299ZM5.24939 13.6923C5.47916 13.6924 5.70092 13.7767 5.87262 13.9294C6.04432 14.082 6.15402 14.2924 6.1809 14.5206L6.18747 14.6303V16.5063C6.1872 16.7454 6.09565 16.9754 5.93152 17.1492C5.76738 17.323 5.54306 17.4277 5.30437 17.4417C5.06569 17.4557 4.83066 17.378 4.64731 17.2246C4.46396 17.0711 4.34613 16.8535 4.31789 16.6161L4.31132 16.5063V14.6303C4.31132 14.3815 4.41015 14.143 4.58608 13.9671C4.762 13.7911 5.0006 13.6923 5.24939 13.6923ZM2.43517 11.8163C2.67427 11.8166 2.90424 11.9081 3.0781 12.0723C3.25196 12.2364 3.35658 12.4607 3.3706 12.6993C3.38461 12.938 3.30695 13.173 3.15349 13.3564C3.00003 13.5397 2.78235 13.6575 2.54493 13.6858L2.43517 13.6923H1.4971C1.25801 13.6921 1.02803 13.6005 0.854176 13.4364C0.680317 13.2723 0.575693 13.048 0.561681 12.8093C0.547669 12.5706 0.625326 12.3356 0.778786 12.1523C0.932245 11.9689 1.14992 11.8511 1.38735 11.8229L1.4971 11.8163H2.43517ZM1.37328 1.37356C2.22423 0.522726 3.36968 0.0314916 4.5727 0.00146222C5.77571 -0.0285672 6.94425 0.404906 7.8366 1.21222L8.00639 1.37356L9.99605 3.36493C10.1643 3.53373 10.262 3.76024 10.2692 3.99844C10.2765 4.23665 10.1928 4.46869 10.0352 4.64744C9.87758 4.82619 9.65782 4.93825 9.42056 4.96085C9.1833 4.98345 8.94633 4.9149 8.75779 4.76912L8.66961 4.69127L6.67996 2.70177C6.16305 2.18826 5.46711 1.89525 4.73855 1.88437C4.00999 1.87348 3.30561 2.14558 2.7736 2.64341C2.24158 3.14124 1.9234 3.826 1.886 4.55362C1.8486 5.28124 2.0949 5.99501 2.57307 6.54476L2.69971 6.67983L5.35352 9.33343C5.88127 9.86098 6.59694 10.1573 7.34317 10.1573C8.08941 10.1573 8.80508 9.86098 9.33283 9.33343C9.41992 9.24628 9.52333 9.17714 9.63715 9.12995C9.75097 9.08276 9.87297 9.05845 9.99618 9.05841C10.1194 9.05836 10.2414 9.08259 10.3553 9.1297C10.4691 9.1768 10.5726 9.24587 10.6597 9.33296C10.7469 9.42005 10.816 9.52345 10.8632 9.63726C10.9104 9.75107 10.9347 9.87306 10.9348 9.99627C10.9348 10.1195 10.9106 10.2415 10.8635 10.3553C10.8164 10.4692 10.7473 10.5726 10.6602 10.6598C9.80925 11.5106 8.6638 12.0018 7.46078 12.0319C6.25776 12.0619 5.08923 11.6284 4.19688 10.8211L4.02615 10.6598L1.37328 8.00616C0.493968 7.12665 0 5.93395 0 4.69033C0 3.44671 0.493968 2.25306 1.37328 1.37356ZM16.5063 4.31231C16.7551 4.31231 16.9937 4.41114 17.1696 4.58705C17.3455 4.76296 17.4443 5.00154 17.4443 5.25031C17.4443 5.49909 17.3455 5.73767 17.1696 5.91358C16.9937 6.08949 16.7551 6.18831 16.5063 6.18831H15.5682C15.3194 6.18831 15.0808 6.08949 14.9049 5.91358C14.729 5.73767 14.6301 5.49909 14.6301 5.25031C14.6301 5.00154 14.729 4.76296 14.9049 4.58705C15.0808 4.41114 15.3194 4.31231 15.5682 4.31231H16.5063ZM12.754 0.560309C12.9837 0.560339 13.2055 0.644688 13.3772 0.797356C13.5489 0.950025 13.6586 1.16039 13.6855 1.38856L13.6921 1.49831V3.37431C13.6918 3.61339 13.6002 3.84334 13.4361 4.01719C13.272 4.19103 13.0476 4.29565 12.809 4.30966C12.5703 4.32367 12.3352 4.24602 12.1519 4.09257C11.9685 3.93912 11.8507 3.72146 11.8225 3.48406L11.8159 3.37431V1.49831C11.8159 1.24954 11.9147 1.01095 12.0907 0.835043C12.2666 0.659134 12.5052 0.560309 12.754 0.560309Z" fill="#EFEEEE"/>
</svg>
