<svg width="24" height="24" viewBox="0 0 24 24" fill="none" xmlns="http://www.w3.org/2000/svg">
<path d="M22.0547 0.666992C20.982 0.666992 20.1094 1.53966 20.1094 2.6123V19.4424L22.0547 23.333L24 19.4424V2.6123C24 1.53966 23.1273 0.666992 22.0547 0.666992ZM22.5938 19.1104L22.0547 20.1885L21.5156 19.1104V4.55762H22.5938V19.1104ZM21.5156 3.15137V2.6123C21.5156 2.31507 21.7575 2.07324 22.0547 2.07324C22.3519 2.07324 22.5938 2.31507 22.5938 2.6123V3.15137H21.5156Z" fill="white"/>
<path d="M1.03125 0.760742V1.92793H0V3.33418H1.03125V4.61293H0V6.01918H1.03125V7.29798H0V8.70423H1.03125V9.98298H0V11.3892H1.03125V12.668H0V14.0743H1.03125V15.353H0V16.7593H1.03125V18.0381H0V19.4443H1.03125V20.7231H0V22.1293H1.03125V23.2824H18.6094V0.760742H1.03125ZM17.2031 21.8762H2.4375V2.16699H17.2031V21.8762Z" fill="white"/>
<path d="M14.9766 4.61768H4.66406V9.07413H14.9766V4.61768ZM13.5703 7.66793H6.07031V6.02393H13.5703V7.66793Z" fill="white"/>
<path d="M6.95215 11.3184H12.6881V12.7246H6.95215V11.3184Z" fill="white"/>
</svg>
