<svg width="37" height="37" viewBox="0 0 37 37" fill="none" xmlns="http://www.w3.org/2000/svg">
<path d="M36.9576 36.8965H29.2829V32.785C29.2986 31.3462 29.028 29.9187 28.4869 28.5854C27.9457 27.2521 27.1448 26.0398 26.1308 25.019C25.162 23.965 23.9817 23.1273 22.6671 22.5606C21.3526 21.9938 19.9332 21.7107 18.5018 21.7298C17.0648 21.7064 15.639 21.9851 14.3165 22.5477C12.9941 23.1104 11.8046 23.9445 10.8251 24.9961C9.80741 26.0189 9.00449 27.2349 8.46352 28.5725C7.92254 29.9101 7.65444 31.3423 7.67496 32.785V36.8965H0.000251994V32.785C-0.0128342 29.9174 0.668652 27.0892 1.98646 24.5423C3.30131 21.9791 5.20353 19.7632 7.53791 18.0752C5.20814 16.3929 3.3065 14.1865 1.98646 11.6339C0.666655 9.09484 -0.0150488 6.27259 0.000251994 3.41102V0.898469H7.67496V3.41102C7.65444 4.85373 7.92254 6.28597 8.46352 7.62357C9.00449 8.96116 9.80741 10.1771 10.8251 11.1999C11.8044 12.2513 12.9936 13.0853 14.3156 13.6479C15.6377 14.2106 17.0632 14.4894 18.4998 14.4662C19.9317 14.4854 21.3515 14.2021 22.6665 13.635C23.9814 13.0679 25.1619 12.2296 26.1308 11.1751C27.1448 10.1543 27.9457 8.94193 28.4869 7.60867C29.028 6.27541 29.2986 4.84784 29.2829 3.40903V0.896484H36.9576V3.40903C36.9729 6.2706 36.2912 9.09286 34.9714 11.6319C33.659 14.1757 31.7748 16.3805 29.4666 18.0732C31.7832 19.7757 33.6686 21.9974 34.9714 24.5602C36.2845 27.1017 36.9658 29.9223 36.9576 32.7831V36.8965Z" fill="#EF018F"/>
</svg>
