<svg width="84" height="16" viewBox="0 0 84 16" fill="none" xmlns="http://www.w3.org/2000/svg">
<g clip-path="url(#clip0_6697_20656)">
<path d="M30.8278 8.01897C30.8348 7.38906 30.7153 6.76406 30.4765 6.18036C30.2376 5.59666 29.8841 5.0659 29.4366 4.61897C29.009 4.15756 28.488 3.79081 27.9078 3.54268C27.3276 3.29455 26.7011 3.17061 26.0693 3.17897C25.4353 3.16868 24.8062 3.29053 24.2227 3.53663C23.6392 3.78274 23.1142 4.14762 22.6819 4.60766C22.2325 5.05538 21.878 5.5877 21.6391 6.1733C21.4002 6.75891 21.2817 7.38599 21.2906 8.01766V12.639C21.2963 13.0807 21.2108 13.5188 21.0392 13.9264C20.8676 14.334 20.6137 14.7025 20.293 15.009C19.984 15.3272 19.6125 15.5792 19.2015 15.7495C18.7904 15.9197 18.3486 16.0047 17.9032 15.999V8.01897C17.8873 6.96052 18.0923 5.91025 18.5052 4.93413C18.9182 3.95801 19.5301 3.07712 20.3026 2.34679C21.0535 1.58859 21.9518 0.989536 22.9431 0.585958C23.9343 0.182379 24.9979 -0.0173195 26.0693 -0.00103121C27.1375 -0.0159652 28.1976 0.184431 29.1854 0.588009C30.1732 0.991588 31.0681 1.58994 31.8158 2.34679C32.5881 3.07687 33.1999 3.95741 33.6128 4.93313C34.0257 5.90886 34.2308 6.95871 34.2152 8.0168V15.999C33.7699 16.0046 33.3282 15.9197 32.9172 15.7494C32.5063 15.5791 32.1349 15.3271 31.8259 15.009C31.5051 14.7025 31.2511 14.3341 31.0794 13.9265C30.9078 13.5189 30.8222 13.0807 30.8278 12.639V8.01897ZM43.9339 -0.00103121C45.0035 -0.0153823 46.065 0.18524 47.0544 0.588746C48.0437 0.992251 48.9404 1.59028 49.6905 2.34679C50.4656 3.07529 51.08 3.95527 51.495 4.93118C51.9099 5.9071 52.1164 6.95775 52.1013 8.0168C52.1179 9.07342 51.912 10.1219 51.4969 11.0951C51.0818 12.0683 50.4666 12.945 49.6905 13.669C48.9377 14.4207 48.0401 15.0144 47.0511 15.4147C46.0621 15.815 45.002 16.0137 43.9339 15.999C42.8673 16.0142 41.8085 15.8157 40.8211 15.4154C39.8336 15.015 38.9378 14.421 38.1874 13.669C37.4142 12.9434 36.8016 12.0662 36.3885 11.0931C35.9754 10.1201 35.7709 9.07245 35.788 8.0168C35.7724 6.95871 35.9776 5.90886 36.3905 4.93313C36.8034 3.95741 37.4151 3.07687 38.1874 2.34679C38.9351 1.58994 39.83 0.991588 40.8178 0.588009C41.8056 0.184431 42.8657 -0.0159652 43.9339 -0.00103121ZM43.9339 3.17897C43.3013 3.1681 42.6735 3.28972 42.0916 3.53591C41.5096 3.7821 40.9866 4.1473 40.5566 4.60766C40.11 5.05686 39.7579 5.58967 39.5207 6.17508C39.2836 6.7605 39.1662 7.38684 39.1754 8.01766C39.1649 8.64588 39.2817 9.26979 39.519 9.85236C39.7563 10.4349 40.1091 10.9643 40.5566 11.409C40.9894 11.8644 41.5134 12.2251 42.095 12.4679C42.6767 12.7108 43.303 12.8303 43.9339 12.819C44.5662 12.8297 45.1939 12.71 45.7771 12.4672C46.3602 12.2245 46.8861 11.8641 47.3213 11.409C47.7715 10.9657 48.1267 10.4368 48.3658 9.8541C48.6048 9.27135 48.7228 8.64673 48.7126 8.01766C48.7215 7.38599 48.6031 6.75891 48.3641 6.1733C48.1252 5.5877 47.7707 5.05538 47.3213 4.60766C46.889 4.14762 46.364 3.78274 45.7805 3.53663C45.197 3.29053 44.5679 3.16868 43.9339 3.17897ZM53.4106 8.01897V15.999H61.5767C62.648 16.015 63.7115 15.817 64.704 15.4167C65.6965 15.0164 66.5975 14.422 67.3535 13.669C68.1296 12.945 68.7448 12.0683 69.1599 11.0951C69.575 10.1219 69.7809 9.07342 69.7643 8.0168C69.7791 6.95688 69.5715 5.90549 69.1547 4.9294C68.7379 3.95331 68.1211 3.07383 67.3434 2.34679C66.591 1.59062 65.6924 0.992905 64.7015 0.589472C63.7106 0.186039 62.6478 -0.0148074 61.5767 -0.00103121C60.5071 -0.0153823 59.4456 0.18524 58.4563 0.588746C57.4669 0.992251 56.5702 1.59028 55.8201 2.34679C55.045 3.07565 54.4307 3.95604 54.0159 4.93234C53.6012 5.90865 53.3951 6.95965 53.4106 8.01897ZM56.8182 12.819V8.01897C56.8091 7.38814 56.9264 6.7618 57.1636 6.17638C57.4007 5.59097 57.7528 5.05817 58.1994 4.60897C58.6293 4.14837 59.1523 3.78292 59.7342 3.53651C60.3162 3.29009 60.9441 3.16826 61.5767 3.17897C62.2094 3.16826 62.8373 3.29009 63.4192 3.53651C64.0012 3.78292 64.5242 4.14837 64.9541 4.60897C65.4007 5.05817 65.7528 5.59097 65.9899 6.17638C66.227 6.7618 66.3444 7.38814 66.3353 8.01897C66.3458 8.64719 66.2289 9.2711 65.9917 9.85366C65.7544 10.4362 65.4016 10.9656 64.9541 11.4103C64.5212 11.8657 63.9972 12.2264 63.4156 12.4693C62.834 12.7121 62.2077 12.8316 61.5767 12.8203L56.8182 12.819ZM79.2196 15.999C78.1529 16.0142 77.0941 15.8157 76.1067 15.4154C75.1193 15.015 74.2235 14.421 73.473 13.669C72.6998 12.9434 72.0872 12.0662 71.6742 11.0931C71.2611 10.1201 71.0566 9.07245 71.0736 8.0168C71.0581 6.95871 71.2632 5.90886 71.6761 4.93313C72.089 3.95741 72.7008 3.07687 73.473 2.34679C74.2208 1.58994 75.1156 0.991588 76.1034 0.588009C77.0912 0.184431 78.1514 -0.0159652 79.2196 -0.00103121H83.9974C84.004 0.418505 83.9233 0.834884 83.7602 1.22204C83.5971 1.6092 83.3553 1.9588 83.0497 2.24897C82.7532 2.54924 82.3983 2.78654 82.0064 2.94642C81.6146 3.1063 81.194 3.18542 80.7704 3.17897H79.2178C78.586 3.17061 77.9595 3.29455 77.3793 3.54268C76.7991 3.79081 76.2782 4.15756 75.8506 4.61897C75.403 5.0659 75.0495 5.59666 74.8106 6.18036C74.5718 6.76406 74.4524 7.38906 74.4593 8.01897C74.4512 8.64606 74.5702 9.26837 74.8092 9.84899C75.0482 10.4296 75.4023 10.9567 75.8506 11.399C76.2811 11.8553 76.8031 12.2173 77.3829 12.4618C77.9628 12.7064 78.5878 12.828 79.2178 12.819H80.7704C81.194 12.8125 81.6146 12.8916 82.0064 13.0515C82.3983 13.2114 82.7532 13.4487 83.0497 13.749C83.3554 14.0391 83.5975 14.3886 83.7607 14.7758C83.9239 15.163 84.0048 15.5794 83.9982 15.999H79.2196ZM78.0904 6.41897H83.9982C84.0055 6.83711 83.925 7.25217 83.7618 7.63779C83.5987 8.02341 83.3565 8.37117 83.0506 8.65897C82.7527 8.95662 82.3972 9.19153 82.0055 9.34962C81.6139 9.50771 81.1941 9.58572 80.7713 9.57897H78.0895C77.8805 9.58315 77.6727 9.54545 77.4787 9.46813C77.2847 9.39081 77.1084 9.27545 76.9604 9.12897C76.8097 8.98597 76.6907 8.81344 76.6108 8.62235C76.531 8.43125 76.4921 8.22577 76.4967 8.01897C76.4911 7.80845 76.5284 7.59898 76.6063 7.40309C76.6843 7.20721 76.8013 7.02894 76.9503 6.87897C77.0978 6.72806 77.2753 6.60923 77.4716 6.53003C77.6679 6.45084 77.8786 6.41302 78.0904 6.41897Z" fill="#DEDEDE"/>
<path d="M16.3122 15.9992H12.9247V14.1992C12.9317 13.5692 12.8122 12.9442 12.5734 12.3605C12.3345 11.7768 11.9811 11.2461 11.5335 10.7992C11.1059 10.3377 10.5849 9.971 10.0047 9.72286C9.42449 9.47473 8.79802 9.3508 8.16622 9.35915C7.53198 9.3489 6.90265 9.4709 6.31897 9.71723C5.73528 9.96357 5.21027 10.3288 4.77792 10.7892C4.32875 11.2369 3.97436 11.7693 3.73558 12.3549C3.49681 12.9405 3.37848 13.5675 3.38753 14.1992V15.9992H0.000111224V14.1992C-0.00566471 12.9437 0.295126 11.7055 0.876773 10.5905C1.45712 9.46831 2.29671 8.49815 3.32704 7.75915C2.29874 7.02264 1.45941 6.05665 0.876773 4.93915C0.294245 3.82754 -0.00664219 2.59195 0.000111224 1.33915V0.23915H3.38753V1.33915C3.37848 1.97077 3.49681 2.59781 3.73558 3.18341C3.97436 3.76901 4.32875 4.30136 4.77792 4.74915C5.21017 5.20943 5.73504 5.57456 6.31856 5.82089C6.90209 6.06722 7.53125 6.18928 8.16534 6.17915C8.79735 6.18752 9.42403 6.06351 10.0044 5.81522C10.5848 5.56693 11.1058 5.19996 11.5335 4.73828C11.9811 4.29135 12.3345 3.76059 12.5734 3.17689C12.8122 2.59319 12.9317 1.96819 12.9247 1.33828V0.238281H16.3122V1.33828C16.3189 2.59108 16.018 3.82667 15.4355 4.93828C14.8562 6.05193 14.0246 7.0172 13.0058 7.75828C14.0283 8.50362 14.8605 9.4763 15.4355 10.5983C16.0151 11.711 16.3158 12.9459 16.3122 14.1983V15.9992Z" fill="#EF018F"/>
</g>
<defs>
<clipPath id="clip0_6697_20656">
<rect width="84" height="16" fill="white"/>
</clipPath>
</defs>
</svg>
