<svg width="67" height="16" viewBox="0 0 67 16" fill="none" xmlns="http://www.w3.org/2000/svg">
<path d="M13.5801 8.01995C13.587 7.39003 13.4685 6.76504 13.2316 6.18134C12.9947 5.59763 12.6441 5.06687 12.2001 4.61995C11.776 4.15854 11.2593 3.79179 10.6837 3.54366C10.1082 3.29553 9.48681 3.17159 8.86012 3.17995C8.23127 3.16965 7.60725 3.2915 7.02846 3.53761C6.44967 3.78372 5.92899 4.1486 5.50012 4.60864C5.05443 5.05636 4.70275 5.58867 4.46576 6.17428C4.22877 6.75988 4.11125 7.38696 4.12012 8.01864V12.6399C4.12581 13.0816 4.04093 13.5198 3.87074 13.9274C3.70054 14.335 3.44864 14.7034 3.13056 15.0099C2.82404 15.3282 2.45557 15.5802 2.04787 15.7504C1.64018 15.9207 1.20191 16.0056 0.760124 15.9999V8.01995C0.744405 6.9615 0.947716 5.91123 1.35729 4.93511C1.76686 3.95899 2.37385 3.0781 3.14012 2.34777C3.88494 1.58956 4.77598 0.990513 5.75921 0.586934C6.74245 0.183356 7.79741 -0.0163429 8.86012 -5.46512e-05C9.91968 -0.0149886 10.9712 0.185407 11.951 0.588986C12.9308 0.992565 13.8185 1.59092 14.5601 2.34777C15.3261 3.07785 15.933 3.95839 16.3425 4.93411C16.7521 5.90984 16.9555 6.95969 16.9401 8.01777V15.9999C16.4984 16.0056 16.0602 15.9206 15.6526 15.7504C15.245 15.5801 14.8766 15.3281 14.5701 15.0099C14.252 14.7035 14 14.3351 13.8297 13.9275C13.6594 13.5198 13.5745 13.0817 13.5801 12.6399V8.01995ZM26.5801 -5.46512e-05C27.6411 -0.0144058 28.694 0.186217 29.6753 0.589723C30.6566 0.993228 31.5461 1.59126 32.2901 2.34777C33.059 3.07627 33.6684 3.95625 34.08 4.93216C34.4916 5.90807 34.6964 6.95872 34.6814 8.01777C34.6978 9.0744 34.4937 10.1228 34.0819 11.0961C33.6701 12.0693 33.0599 12.9459 32.2901 13.6699C31.5434 14.4216 30.6531 15.0153 29.6721 15.4156C28.6911 15.8159 27.6395 16.0146 26.5801 15.9999C25.5221 16.0152 24.4719 15.8167 23.4925 15.4163C22.513 15.016 21.6245 14.422 20.8801 13.6699C20.1132 12.9444 19.5055 12.0672 19.0958 11.0941C18.6861 10.1211 18.4832 9.07343 18.5001 8.01777C18.4847 6.95969 18.6882 5.90984 19.0977 4.93411C19.5073 3.95839 20.1141 3.07785 20.8801 2.34777C21.6218 1.59092 22.5094 0.992565 23.4892 0.588986C24.469 0.185407 25.5206 -0.0149886 26.5801 -5.46512e-05ZM26.5801 3.17995C25.9527 3.16907 25.33 3.2907 24.7527 3.53689C24.1754 3.78307 23.6566 4.14828 23.2301 4.60864C22.7871 5.05784 22.4379 5.59064 22.2027 6.17606C21.9675 6.76147 21.851 7.38781 21.8601 8.01864C21.8497 8.64686 21.9656 9.27077 22.2009 9.85334C22.4363 10.4359 22.7863 10.9652 23.2301 11.4099C23.6595 11.8654 24.1792 12.2261 24.7561 12.4689C25.333 12.7117 25.9543 12.8313 26.5801 12.8199C27.2073 12.8307 27.8299 12.7109 28.4084 12.4682C28.9868 12.2255 29.5084 11.8651 29.9401 11.4099C30.3866 10.9667 30.739 10.4378 30.9761 9.85507C31.2132 9.27233 31.3302 8.6477 31.3201 8.01864C31.329 7.38696 31.2115 6.75988 30.9745 6.17428C30.7375 5.58867 30.3858 5.05636 29.9401 4.60864C29.5113 4.1486 28.9906 3.78372 28.4118 3.53761C27.833 3.2915 27.209 3.16965 26.5801 3.17995ZM35.9801 8.01995V15.9999H44.0801C45.1427 16.016 46.1976 15.818 47.1821 15.4177C48.1665 15.0174 49.0603 14.423 49.8101 13.6699C50.5799 12.9459 51.1901 12.0693 51.6019 11.0961C52.0137 10.1228 52.2178 9.0744 52.2014 8.01777C52.216 6.95785 52.0101 5.90647 51.5967 4.93038C51.1833 3.95428 50.5715 3.0748 49.8001 2.34777C49.0538 1.5916 48.1625 0.993882 47.1796 0.590449C46.1967 0.187016 45.1425 -0.0138309 44.0801 -5.46512e-05C43.0192 -0.0144058 41.9663 0.186217 40.9849 0.589723C40.0036 0.993228 39.1141 1.59126 38.3701 2.34777C37.6013 3.07663 36.9919 3.95702 36.5805 4.93332C36.1691 5.90962 35.9647 6.96063 35.9801 8.01995ZM39.3601 12.8199V8.01995C39.351 7.38912 39.4675 6.76278 39.7027 6.17736C39.9379 5.59195 40.2871 5.05914 40.7301 4.60994C41.1565 4.14934 41.6753 3.7839 42.2525 3.53749C42.8298 3.29107 43.4526 3.16924 44.0801 3.17995C44.7077 3.16924 45.3304 3.29107 45.9077 3.53749C46.485 3.7839 47.0037 4.14934 47.4301 4.60994C47.8731 5.05914 48.2224 5.59195 48.4576 6.17736C48.6928 6.76278 48.8092 7.38912 48.8001 8.01995C48.8105 8.64816 48.6946 9.27207 48.4593 9.85464C48.224 10.4372 47.874 10.9665 47.4301 11.4113C47.0008 11.8667 46.481 12.2274 45.9041 12.4702C45.3272 12.713 44.7059 12.8326 44.0801 12.8213L39.3601 12.8199ZM61.5801 15.9999C60.5221 16.0152 59.4719 15.8167 58.4925 15.4163C57.513 15.016 56.6245 14.422 55.8801 13.6699C55.1132 12.9444 54.5055 12.0672 54.0958 11.0941C53.6861 10.1211 53.4832 9.07343 53.5001 8.01777C53.4847 6.95969 53.6882 5.90984 54.0977 4.93411C54.5073 3.95839 55.1141 3.07785 55.8801 2.34777C56.6218 1.59092 57.5094 0.992565 58.4892 0.588986C59.469 0.185407 60.5206 -0.0149886 61.5801 -5.46512e-05H66.3193C66.3258 0.419481 66.2457 0.83586 66.084 1.22302C65.9222 1.61018 65.6823 1.95978 65.3792 2.24995C65.0852 2.55022 64.7331 2.78752 64.3444 2.9474C63.9557 3.10728 63.5386 3.1864 63.1184 3.17995H61.5784C60.9517 3.17159 60.3303 3.29553 59.7548 3.54366C59.1792 3.79179 58.6625 4.15854 58.2384 4.61995C57.7944 5.06687 57.4438 5.59763 57.2069 6.18134C56.97 6.76504 56.8515 7.39003 56.8584 8.01995C56.8504 8.64704 56.9684 9.26935 57.2054 9.84996C57.4425 10.4306 57.7938 10.9577 58.2384 11.3999C58.6655 11.8563 59.1832 12.2183 59.7584 12.4628C60.3335 12.7074 60.9534 12.829 61.5784 12.8199H63.1184C63.5386 12.8135 63.9557 12.8926 64.3444 13.0525C64.7331 13.2124 65.0852 13.4497 65.3792 13.7499C65.6825 14.04 65.9226 14.3896 66.0845 14.7768C66.2464 15.1639 66.3266 15.5803 66.3201 15.9999H61.5801ZM60.4601 6.41995H66.3201C66.3273 6.83808 66.2474 7.25315 66.0856 7.63877C65.9238 8.02439 65.6835 8.37215 65.3801 8.65995C65.0846 8.9576 64.732 9.19251 64.3435 9.3506C63.955 9.50869 63.5386 9.5867 63.1193 9.57995H60.4592C60.2519 9.58413 60.0458 9.54643 59.8534 9.46911C59.6609 9.39178 59.4861 9.27643 59.3392 9.12995C59.1898 8.98695 59.0717 8.81442 58.9925 8.62332C58.9133 8.43223 58.8748 8.22675 58.8792 8.01995C58.8737 7.80943 58.9107 7.59995 58.988 7.40407C59.0654 7.20819 59.1814 7.02992 59.3293 6.87995C59.4755 6.72903 59.6516 6.6102 59.8463 6.53101C60.041 6.45182 60.25 6.414 60.4601 6.41995Z" fill="white"/>
</svg>
