<svg width="157" height="30" viewBox="0 0 157 30" fill="none" xmlns="http://www.w3.org/2000/svg">
<g clip-path="url(#clip0_357_61)">
<path d="M57.3379 15.0375C57.3508 13.8564 57.1287 12.6846 56.6845 11.5901C56.2403 10.4957 55.5828 9.50051 54.7504 8.66252C53.9551 7.79738 52.9863 7.10973 51.9072 6.64448C50.8281 6.17923 49.6629 5.94685 48.4879 5.96252C47.3088 5.94322 46.1388 6.17169 45.0535 6.63314C43.9683 7.09459 42.992 7.77874 42.1879 8.64132C41.3522 9.4808 40.6928 10.4789 40.2485 11.5769C39.8041 12.6749 39.5838 13.8507 39.6004 15.0351V23.7C39.6111 24.5282 39.4519 25.3497 39.1328 26.114C38.8137 26.8783 38.3414 27.5691 37.745 28.1438C37.1703 28.7404 36.4794 29.2129 35.7149 29.5322C34.9505 29.8515 34.1288 30.0107 33.3004 30V15.0375C33.2709 13.0529 33.6521 11.0837 34.4201 9.25345C35.188 7.42322 36.3261 5.77156 37.7629 4.40219C39.1594 2.98056 40.8301 1.85733 42.6737 1.10062C44.5173 0.343914 46.4953 -0.0305209 48.4879 1.95992e-05C50.4746 -0.0279816 52.4462 0.347761 54.2834 1.10447C56.1205 1.86118 57.7848 2.98309 59.1754 4.40219C60.6117 5.77109 61.7495 7.42209 62.5174 9.25158C63.2853 11.0811 63.6668 13.0495 63.6379 15.0334V30C62.8097 30.0106 61.9881 29.8513 61.2238 29.5321C60.4595 29.2128 59.7688 28.7403 59.1942 28.1438C58.5976 27.5692 58.1251 26.8784 57.8059 26.1141C57.4866 25.3498 57.3274 24.5282 57.3379 23.7V15.0375ZM81.7129 1.95992e-05C83.7022 -0.0268887 85.6764 0.349279 87.5164 1.10585C89.3564 1.86242 91.0242 2.98373 92.4192 4.40219C93.8607 5.76812 95.0034 7.41809 95.7752 9.24792C96.5469 11.0778 96.9309 13.0477 96.9029 15.0334C96.9336 17.0146 96.5508 18.9804 95.7787 20.8052C95.0067 22.6301 93.8625 24.2738 92.4192 25.6313C91.0191 27.0407 89.3497 28.1539 87.5103 28.9044C85.671 29.655 83.6993 30.0276 81.7129 30C79.7291 30.0287 77.76 29.6565 75.9236 28.9058C74.0871 28.1551 72.4211 27.0413 71.0254 25.6313C69.5874 24.2708 68.4481 22.6261 67.6798 20.8016C66.9116 18.9771 66.5312 17.0128 66.5629 15.0334C66.534 13.0495 66.9155 11.0811 67.6834 9.25158C68.4513 7.42209 69.5892 5.77109 71.0254 4.40219C72.416 2.98309 74.0803 1.86118 75.9175 1.10447C77.7546 0.347761 79.7262 -0.0279816 81.7129 1.95992e-05ZM81.7129 5.96252C80.5364 5.94213 79.3688 6.17019 78.2865 6.63179C77.2041 7.09339 76.2313 7.77814 75.4317 8.64132C74.601 9.48357 73.9462 10.4826 73.5052 11.5802C73.0642 12.6779 72.8459 13.8523 72.8629 15.0351C72.8434 16.213 73.0607 17.3828 73.5019 18.4751C73.9432 19.5674 74.5994 20.56 75.4317 21.3938C76.2367 22.2478 77.2113 22.9241 78.2929 23.3794C79.3746 23.8346 80.5395 24.0588 81.7129 24.0375C82.8889 24.0577 84.0563 23.8331 85.1409 23.378C86.2254 22.9229 87.2035 22.2471 88.0129 21.3938C88.85 20.5626 89.5107 19.571 89.9553 18.4784C90.4 17.3857 90.6194 16.2146 90.6004 15.0351C90.617 13.8507 90.3967 12.6749 89.9523 11.5769C89.508 10.4789 88.8486 9.4808 88.0129 8.64132C87.2088 7.77874 86.2325 7.09459 85.1473 6.63314C84.0621 6.17169 82.892 5.94322 81.7129 5.96252ZM99.3379 15.0375V30H114.525C116.518 30.0301 118.496 29.6588 120.342 28.9083C122.187 28.1577 123.863 27.0432 125.269 25.6313C126.712 24.2738 127.857 22.6301 128.629 20.8052C129.401 18.9804 129.784 17.0146 129.753 15.0334C129.78 13.0461 129.394 11.0748 128.619 9.24458C127.844 7.41441 126.697 5.76538 125.25 4.40219C123.851 2.98437 122.18 1.86365 120.337 1.10721C118.494 0.350777 116.517 -0.0258108 114.525 1.95992e-05C112.536 -0.0268887 110.562 0.349279 108.722 1.10585C106.882 1.86242 105.214 2.98373 103.819 4.40219C102.378 5.7688 101.235 7.41953 100.464 9.2501C99.6923 11.0807 99.309 13.0513 99.3379 15.0375ZM105.675 24.0375V15.0375C105.658 13.8547 105.877 12.6803 106.318 11.5827C106.759 10.485 107.414 9.48602 108.244 8.64377C109.044 7.78014 110.016 7.09493 111.099 6.63291C112.181 6.17088 113.349 5.94244 114.525 5.96252C115.702 5.94244 116.87 6.17088 117.952 6.63291C119.035 7.09493 120.007 7.78014 120.807 8.64377C121.637 9.48602 122.292 10.485 122.733 11.5827C123.174 12.6803 123.392 13.8547 123.375 15.0375C123.395 16.2154 123.178 17.3853 122.736 18.4776C122.295 19.5699 121.639 20.5624 120.807 21.3962C120.002 22.2502 119.027 22.9265 117.945 23.3818C116.864 23.8371 115.699 24.0613 114.525 24.04L105.675 24.0375ZM147.338 30C145.354 30.0287 143.385 29.6565 141.549 28.9058C139.712 28.1551 138.046 27.0413 136.65 25.6313C135.212 24.2708 134.073 22.6261 133.305 20.8016C132.537 18.9771 132.156 17.0128 132.188 15.0334C132.159 13.0495 132.54 11.0811 133.308 9.25158C134.076 7.42209 135.214 5.77109 136.65 4.40219C138.041 2.98309 139.705 1.86118 141.542 1.10447C143.38 0.347761 145.351 -0.0279816 147.338 1.95992e-05H156.224C156.236 0.786649 156.086 1.56736 155.783 2.29328C155.479 3.0192 155.03 3.67471 154.461 4.21877C153.91 4.78178 153.25 5.22672 152.521 5.52649C151.792 5.82627 151.01 5.97462 150.222 5.96252H147.335C146.16 5.94685 144.995 6.17923 143.915 6.64448C142.836 7.10973 141.867 7.79738 141.072 8.66252C140.24 9.50051 139.582 10.4957 139.138 11.5901C138.694 12.6846 138.472 13.8564 138.485 15.0375C138.47 16.2133 138.691 17.3802 139.135 18.4688C139.58 19.5575 140.238 20.5457 141.072 21.375C141.873 22.2306 142.844 22.9094 143.922 23.3679C145.001 23.8264 146.163 24.0545 147.335 24.0375H150.222C151.01 24.0254 151.792 24.1738 152.521 24.4735C153.25 24.7733 153.91 25.2183 154.461 25.7813C155.03 26.3252 155.48 26.9806 155.784 27.7066C156.087 28.4325 156.238 29.2133 156.225 30H147.338ZM145.238 12.0375H156.225C156.239 12.8215 156.089 13.5998 155.786 14.3228C155.482 15.0459 155.032 15.6979 154.463 16.2375C153.909 16.7956 153.248 17.2361 152.519 17.5325C151.791 17.8289 151.01 17.9752 150.224 17.9625H145.236C144.847 17.9704 144.461 17.8997 144.1 17.7547C143.739 17.6097 143.412 17.3934 143.136 17.1188C142.856 16.8506 142.635 16.5272 142.486 16.1689C142.338 15.8106 142.265 15.4253 142.274 15.0375C142.263 14.6428 142.333 14.25 142.478 13.8828C142.623 13.5155 142.84 13.1812 143.118 12.9C143.392 12.6171 143.722 12.3943 144.087 12.2458C144.452 12.0973 144.844 12.0264 145.238 12.0375Z" fill="white"/>
<path d="M30.3377 30.0001H24.0377V26.6251C24.0506 25.444 23.8285 24.2722 23.3843 23.1777C22.9401 22.0833 22.2826 21.0881 21.4502 20.2501C20.6549 19.385 19.6861 18.6973 18.607 18.2321C17.5279 17.7668 16.3627 17.5345 15.1877 17.5501C14.0081 17.5309 12.8377 17.7596 11.7521 18.2215C10.6666 18.6834 9.69017 19.3681 8.88608 20.2314C8.05069 21.071 7.39159 22.0691 6.94752 23.1671C6.50345 24.2651 6.28336 25.4408 6.30021 26.6251V30.0001H0.000206857V26.6251C-0.0105353 24.2711 0.548882 21.9495 1.63064 19.8588C2.70997 17.7548 4.27147 15.9357 6.18771 14.5501C4.27525 13.1692 2.71423 11.3579 1.63064 9.26262C0.547243 7.17834 -0.0123533 4.86162 0.000206857 2.51262V0.450116H6.30021V2.51262C6.28336 3.6969 6.50345 4.8726 6.94752 5.97061C7.39159 7.06861 8.05069 8.06676 8.88608 8.90637C9.68999 9.76939 10.6662 10.454 11.7514 10.9159C12.8366 11.3778 14.0068 11.6066 15.1861 11.5876C16.3615 11.6033 17.527 11.3708 18.6064 10.9052C19.6859 10.4397 20.6549 9.75163 21.4502 8.88599C22.2826 8.04799 22.9401 7.05282 23.3843 5.95838C23.8285 4.86393 24.0506 3.69207 24.0377 2.51099V0.448486H30.3377V2.51099C30.3503 4.85998 29.7907 7.17671 28.7073 9.26099C27.63 11.3491 26.0832 13.159 24.1885 14.5485C26.0902 15.946 27.6378 17.7698 28.7073 19.8735C29.7851 21.9598 30.3444 24.2752 30.3377 26.6235V30.0001Z" fill="#EF018F"/>
</g>
<defs>
<clipPath id="clip0_357_61">
<rect width="156.225" height="30" fill="white"/>
</clipPath>
</defs>
</svg>
