<svg width="84" height="16" viewBox="0 0 84 16" fill="none" xmlns="http://www.w3.org/2000/svg">
<g clip-path="url(#clip0_8421_28175)">
<path d="M30.5806 8.02092C30.5875 7.39101 30.469 6.76602 30.2321 6.18231C29.9952 5.59861 29.6446 5.06785 29.2006 4.62092C28.7765 4.15951 28.2597 3.79277 27.6842 3.54463C27.1087 3.2965 26.4873 3.17257 25.8606 3.18092C25.2318 3.17063 24.6077 3.29248 24.0289 3.53859C23.4502 3.78469 22.9295 4.14957 22.5006 4.60962C22.0549 5.05734 21.7032 5.58965 21.4662 6.17526C21.2293 6.76086 21.1117 7.38794 21.1206 8.01962V12.6409C21.1263 13.0826 21.0414 13.5208 20.8712 13.9284C20.701 14.336 20.4491 14.7044 20.131 15.0109C19.8245 15.3291 19.4561 15.5812 19.0484 15.7514C18.6407 15.9217 18.2024 16.0066 17.7606 16.0009V8.02092C17.7449 6.96247 17.9482 5.91221 18.3578 4.93609C18.7673 3.95996 19.3743 3.07908 20.1406 2.34875C20.8854 1.59054 21.7765 0.99149 22.7597 0.587911C23.7429 0.184332 24.7979 -0.0153663 25.8606 0.000921911C26.9202 -0.0140121 27.9717 0.186384 28.9515 0.589963C29.9313 0.993541 30.819 1.5919 31.5606 2.34875C32.3266 3.07883 32.9334 3.95936 33.343 4.93509C33.7526 5.91081 33.956 6.96066 33.9406 8.01875V16.0009C33.4989 16.0065 33.0607 15.9216 32.6531 15.7513C32.2455 15.5811 31.8771 15.3291 31.5706 15.0109C31.2525 14.7045 31.0005 14.3361 30.8302 13.9284C30.6599 13.5208 30.575 13.0826 30.5806 12.6409V8.02092ZM43.5806 0.000921911C44.6416 -0.0134292 45.6945 0.187194 46.6758 0.590699C47.6571 0.994204 48.5466 1.59224 49.2906 2.34875C50.0594 3.07724 50.6689 3.95723 51.0805 4.93314C51.4921 5.90905 51.6969 6.9597 51.6819 8.01875C51.6983 9.07538 51.4941 10.1238 51.0824 11.097C50.6706 12.0703 50.0604 12.9469 49.2906 13.6709C48.5439 14.4226 47.6536 15.0163 46.6726 15.4166C45.6916 15.8169 44.64 16.0156 43.5806 16.0009C42.5226 16.0162 41.4724 15.8177 40.493 15.4173C39.5135 15.0169 38.625 14.4229 37.8806 13.6709C37.1137 12.9453 36.506 12.0681 36.0963 11.0951C35.6866 10.122 35.4837 9.07441 35.5006 8.01875C35.4852 6.96066 35.6886 5.91081 36.0982 4.93509C36.5078 3.95936 37.1146 3.07883 37.8806 2.34875C38.6223 1.5919 39.5099 0.993541 40.4897 0.589963C41.4695 0.186384 42.5211 -0.0140121 43.5806 0.000921911ZM43.5806 3.18092C42.9531 3.17005 42.3304 3.29168 41.7532 3.53786C41.1759 3.78405 40.6571 4.14925 40.2306 4.60962C39.7876 5.05882 39.4384 5.59162 39.2032 6.17703C38.968 6.76245 38.8515 7.38879 38.8606 8.01962C38.8502 8.64784 38.9661 9.27175 39.2014 9.85431C39.4368 10.4369 39.7868 10.9662 40.2306 11.4109C40.6599 11.8664 41.1797 12.2271 41.7566 12.4699C42.3335 12.7127 42.9548 12.8323 43.5806 12.8209C44.2078 12.8317 44.8304 12.7119 45.4088 12.4692C45.9873 12.2264 46.5089 11.8661 46.9406 11.4109C47.3871 10.9677 47.7394 10.4388 47.9766 9.85605C48.2137 9.27331 48.3307 8.64868 48.3206 8.01962C48.3295 7.38794 48.212 6.76086 47.975 6.17526C47.738 5.58965 47.3863 5.05734 46.9406 4.60962C46.5117 4.14957 45.9911 3.78469 45.4123 3.53859C44.8335 3.29248 44.2095 3.17063 43.5806 3.18092ZM52.9806 8.02092V16.0009H61.0806C62.1432 16.017 63.1981 15.819 64.1826 15.4187C65.167 15.0184 66.0608 14.424 66.8106 13.6709C67.5804 12.9469 68.1906 12.0703 68.6024 11.097C69.0141 10.1238 69.2183 9.07538 69.2019 8.01875C69.2165 6.95883 69.0106 5.90745 68.5972 4.93135C68.1838 3.95526 67.572 3.07578 66.8006 2.34875C66.0543 1.59257 65.163 0.994859 64.1801 0.591425C63.1972 0.187992 62.143 -0.0128543 61.0806 0.000921911C60.0196 -0.0134292 58.9668 0.187194 57.9854 0.590699C57.0041 0.994204 56.1146 1.59224 55.3706 2.34875C54.6017 3.07761 53.9924 3.95799 53.581 4.9343C53.1696 5.9106 52.9652 6.9616 52.9806 8.02092ZM56.3606 12.8209V8.02092C56.3515 7.39009 56.468 6.76375 56.7032 6.17834C56.9384 5.59292 57.2876 5.06012 57.7306 4.61092C58.157 4.15032 58.6758 3.78488 59.253 3.53846C59.8303 3.29205 60.453 3.17021 61.0806 3.18092C61.7082 3.17021 62.3309 3.29205 62.9082 3.53846C63.4855 3.78488 64.0042 4.15032 64.4306 4.61092C64.8736 5.06012 65.2229 5.59292 65.4581 6.17834C65.6933 6.76375 65.8097 7.39009 65.8006 8.02092C65.811 8.64914 65.6951 9.27305 65.4598 9.85562C65.2244 10.4382 64.8745 10.9675 64.4306 11.4122C64.0013 11.8677 63.4815 12.2284 62.9046 12.4712C62.3277 12.714 61.7064 12.8336 61.0806 12.8222L56.3606 12.8209ZM78.5806 16.0009C77.5226 16.0162 76.4724 15.8177 75.4929 15.4173C74.5135 15.0169 73.625 14.4229 72.8806 13.6709C72.1137 12.9453 71.506 12.0681 71.0963 11.0951C70.6866 10.122 70.4837 9.07441 70.5006 8.01875C70.4852 6.96066 70.6887 5.91081 71.0982 4.93509C71.5078 3.95936 72.1146 3.07883 72.8806 2.34875C73.6223 1.5919 74.5099 0.993541 75.4897 0.589963C76.4695 0.186384 77.521 -0.0140121 78.5806 0.000921911H83.3197C83.3263 0.420458 83.2462 0.836837 83.0845 1.224C82.9227 1.61115 82.6828 1.96076 82.3797 2.25092C82.0857 2.5512 81.7336 2.78849 81.3449 2.94838C80.9562 3.10826 80.5391 3.18738 80.1189 3.18092H78.5789C77.9522 3.17257 77.3308 3.2965 76.7553 3.54463C76.1797 3.79277 75.663 4.15951 75.2389 4.62092C74.7949 5.06785 74.4443 5.59861 74.2074 6.18231C73.9705 6.76602 73.852 7.39101 73.8589 8.02092C73.8508 8.64801 73.9689 9.27033 74.2059 9.85094C74.443 10.4316 74.7942 10.9586 75.2389 11.4009C75.6659 11.8572 76.1837 12.2193 76.7588 12.4638C77.334 12.7083 77.9539 12.83 78.5789 12.8209H80.1189C80.5391 12.8145 80.9562 12.8936 81.3449 13.0535C81.7336 13.2134 82.0857 13.4507 82.3797 13.7509C82.683 14.041 82.9231 14.3906 83.085 14.7777C83.2469 15.1649 83.3271 15.5813 83.3206 16.0009H78.5806ZM77.4606 6.42092H83.3206C83.3278 6.83906 83.2479 7.25412 83.0861 7.63974C82.9243 8.02537 82.684 8.37312 82.3806 8.66092C82.0851 8.95858 81.7325 9.19349 81.344 9.35158C80.9555 9.50966 80.5391 9.58767 80.1197 9.58092H77.4597C77.2524 9.5851 77.0463 9.5474 76.8539 9.47008C76.6614 9.39276 76.4866 9.27741 76.3397 9.13092C76.1903 8.98792 76.0722 8.81539 75.993 8.6243C75.9138 8.43321 75.8752 8.22773 75.8797 8.02092C75.8742 7.8104 75.9112 7.60093 75.9885 7.40505C76.0658 7.20916 76.1819 7.0309 76.3297 6.88092C76.476 6.73001 76.6521 6.61118 76.8468 6.53199C77.0415 6.4528 77.2505 6.41497 77.4606 6.42092Z" fill="#DEDEDE"/>
<path d="M16.1801 15.9992H12.8201V14.1992C12.827 13.5692 12.7085 12.9442 12.4716 12.3605C12.2347 11.7768 11.8841 11.2461 11.4401 10.7992C11.016 10.3377 10.4992 9.971 9.92372 9.72286C9.34819 9.47473 8.72679 9.3508 8.10011 9.35915C7.47101 9.3489 6.84677 9.4709 6.26781 9.71723C5.68886 9.96357 5.16809 10.3288 4.73924 10.7892C4.2937 11.2369 3.94218 11.7693 3.70534 12.3549C3.4685 12.9405 3.35113 13.5675 3.36011 14.1992V15.9992H0.000110324V14.1992C-0.00561885 12.9437 0.292737 11.7055 0.869676 10.5905C1.44532 9.46831 2.27812 8.49815 3.30011 7.75915C2.28013 7.02264 1.44759 6.05665 0.869676 4.93915C0.291863 3.82754 -0.00658842 2.59195 0.000110324 1.33915V0.23915H3.36011V1.33915C3.35113 1.97077 3.4685 2.59781 3.70534 3.18341C3.94218 3.76901 4.2937 4.30136 4.73924 4.74915C5.16799 5.20943 5.68862 5.57456 6.26741 5.82089C6.84621 6.06722 7.47029 6.18928 8.09924 6.17915C8.72614 6.18752 9.34774 6.06351 9.92343 5.81522C10.4991 5.56693 11.0159 5.19996 11.4401 4.73828C11.8841 4.29135 12.2347 3.76059 12.4716 3.17689C12.7085 2.59319 12.827 1.96819 12.8201 1.33828V0.238281H16.1801V1.33828C16.1868 2.59108 15.8884 3.82667 15.3105 4.93828C14.736 6.05193 13.9111 7.0172 12.9005 7.75828C13.9148 8.50362 14.7402 9.4763 15.3105 10.5983C15.8854 11.711 16.1837 12.9459 16.1801 14.1983V15.9992Z" fill="#EF018F"/>
</g>
<defs>
<clipPath id="clip0_8421_28175">
<rect width="83.32" height="16" fill="white"/>
</clipPath>
</defs>
</svg>
