<svg width="17" height="16" viewBox="0 0 17 16" fill="none" xmlns="http://www.w3.org/2000/svg">
<path d="M16.1801 16.0001H12.8201V14.2001C12.827 13.5702 12.7085 12.9452 12.4716 12.3615C12.2347 11.7778 11.8841 11.2471 11.4401 10.8001C11.016 10.3387 10.4992 9.97197 9.92372 9.72384C9.34819 9.47571 8.72679 9.35177 8.10011 9.36013C7.47101 9.34988 6.84677 9.47187 6.26781 9.71821C5.68886 9.96455 5.16809 10.3297 4.73924 10.7901C4.2937 11.2379 3.94218 11.7703 3.70534 12.3559C3.4685 12.9415 3.35113 13.5685 3.36011 14.2001V16.0001H0.000110324V14.2001C-0.00561885 12.9447 0.292737 11.7065 0.869676 10.5914C1.44532 9.46928 2.27812 8.49913 3.30011 7.76013C2.28013 7.02362 1.44759 6.05763 0.869676 4.94013C0.291863 3.82852 -0.00658842 2.59293 0.000110324 1.34013V0.240127H3.36011V1.34013C3.35113 1.97175 3.4685 2.59879 3.70534 3.18439C3.94218 3.76999 4.2937 4.30233 4.73924 4.75013C5.16799 5.21041 5.68862 5.57553 6.26741 5.82187C6.84621 6.0682 7.47029 6.19025 8.09924 6.18013C8.72614 6.1885 9.34774 6.06448 9.92343 5.8162C10.4991 5.56791 11.0159 5.20094 11.4401 4.73926C11.8841 4.29233 12.2347 3.76157 12.4716 3.17787C12.7085 2.59416 12.827 1.96917 12.8201 1.33926V0.239258H16.1801V1.33926C16.1868 2.59206 15.8884 3.82765 15.3105 4.93926C14.736 6.0529 13.9111 7.01818 12.9005 7.75926C13.9148 8.50459 14.7402 9.47727 15.3105 10.5993C15.8854 11.712 16.1837 12.9468 16.1801 14.1993V16.0001Z" fill="white"/>
</svg>
