<svg width="24" height="24" viewBox="0 0 24 24" fill="none" xmlns="http://www.w3.org/2000/svg">
<path d="M20.4844 4.21875H19.7106C19.3839 2.61609 17.9634 1.40625 16.2656 1.40625H7.73438C6.03661 1.40625 4.61611 2.61609 4.28939 4.21875H3.51562C1.57711 4.21875 0 5.79586 0 7.73438V19.0781C0 21.0166 1.57711 22.5938 3.51562 22.5938H20.4844C22.4229 22.5938 24 21.0166 24 19.0781V7.73438C24 5.79586 22.4229 4.21875 20.4844 4.21875ZM22.5938 19.0781C22.5938 20.2412 21.6475 21.1875 20.4844 21.1875H3.51562C2.35252 21.1875 1.40625 20.2412 1.40625 19.0781V7.73438C1.40625 6.57127 2.35252 5.625 3.51562 5.625H5.625V4.92188C5.625 3.75877 6.57127 2.8125 7.73438 2.8125H16.2656C17.4287 2.8125 18.375 3.75877 18.375 4.92188V5.625H20.4844C21.6475 5.625 22.5938 6.57127 22.5938 7.73438V19.0781Z" fill="white"/>
<path d="M7.73438 5.625C8.1227 5.625 8.4375 5.3102 8.4375 4.92188C8.4375 4.53355 8.1227 4.21875 7.73438 4.21875C7.34605 4.21875 7.03125 4.53355 7.03125 4.92188C7.03125 5.3102 7.34605 5.625 7.73438 5.625Z" fill="white"/>
<path d="M2.8125 7.03125V19.7812H21.1875V7.03125H2.8125ZM19.7812 18.375H4.21875V8.4375H19.7812V18.375Z" fill="white"/>
<path d="M16.2656 5.625C16.654 5.625 16.9688 5.3102 16.9688 4.92188C16.9688 4.53355 16.654 4.21875 16.2656 4.21875C15.8773 4.21875 15.5625 4.53355 15.5625 4.92188C15.5625 5.3102 15.8773 5.625 16.2656 5.625Z" fill="white"/>
<path d="M13.4219 5.625C13.8102 5.625 14.125 5.3102 14.125 4.92188C14.125 4.53355 13.8102 4.21875 13.4219 4.21875C13.0335 4.21875 12.7188 4.53355 12.7188 4.92188C12.7188 5.3102 13.0335 5.625 13.4219 5.625Z" fill="white"/>
<path d="M10.5781 5.625C10.9665 5.625 11.2812 5.3102 11.2812 4.92188C11.2812 4.53355 10.9665 4.21875 10.5781 4.21875C10.1898 4.21875 9.875 4.53355 9.875 4.92188C9.875 5.3102 10.1898 5.625 10.5781 5.625Z" fill="white"/>
<path d="M7.03125 9.84375H5.625V14.1562H7.03125V9.84375Z" fill="white"/>
<path d="M9.84375 10.7812H8.4375V14.1562H9.84375V10.7812Z" fill="white"/>
<path d="M12.6562 11.7188H11.25V14.1562H12.6562V11.7188Z" fill="white"/>
<path d="M12.6562 15.5625H5.625V16.9688H12.6562V15.5625Z" fill="white"/>
<path d="M14.0625 9.84375V16.9688H18.375V9.84375H14.0625ZM16.9688 15.5625H15.4688V11.25H16.9688V15.5625Z" fill="white"/>
</svg>
