<svg width="76" height="76" viewBox="0 0 76 76" fill="none" xmlns="http://www.w3.org/2000/svg">
<rect width="76" height="76" rx="38" fill="#E7EFFE"/>
<g clip-path="url(#clip0_2407_536)">
<path d="M51.625 20H25.375C24.2147 20 23.1019 20.4609 22.2814 21.2814C21.4609 22.1019 21 23.2147 21 24.375V55H56V24.375C56 23.2147 55.5391 22.1019 54.7186 21.2814C53.8981 20.4609 52.7853 20 51.625 20V20ZM53.0833 24.375V27.2917H42.875V22.9167H51.625C52.0118 22.9167 52.3827 23.0703 52.6562 23.3438C52.9297 23.6173 53.0833 23.9882 53.0833 24.375ZM37.0417 22.9167H39.9583V31.6667H37.0417V22.9167ZM25.375 22.9167H34.125V27.2917H23.9167V24.375C23.9167 23.9882 24.0703 23.6173 24.3438 23.3438C24.6173 23.0703 24.9882 22.9167 25.375 22.9167ZM23.9167 52.0833V30.2083H34.125V34.5833H42.875V30.2083H53.0833V52.0833H23.9167ZM42.875 46.25H50.1667V49.1667H42.875V46.25Z" fill="#374957"/>
</g>
<defs>
<clipPath id="clip0_2407_536">
<rect width="35" height="35" fill="white" transform="translate(21 20)"/>
</clipPath>
</defs>
</svg>
