<svg width="76" height="76" viewBox="0 0 76 76" fill="none" xmlns="http://www.w3.org/2000/svg">
<rect width="76" height="76" rx="38" fill="#FFEBEE"/>
<g clip-path="url(#clip0_2813_555)">
<path d="M23.1762 20H48.5879V24.2353H52.8232V56H27.4115V51.7647H23.1762V20ZM29.5291 53.8824H50.7056V26.3529H29.5291V53.8824ZM25.2938 49.6471H27.4115V24.2353H46.4703V22.1176H25.2938V49.6471Z" fill="#EF5350"/>
<path d="M40.1175 43.2942C36.0087 43.2942 32.7058 39.9536 32.7058 35.8825C33.0783 26.0632 47.1582 26.0659 47.5293 35.8825C47.5293 39.9695 44.2135 43.2942 40.1175 43.2942ZM41.1764 35.8825C41.1764 35.2986 40.7014 34.8236 40.1175 34.8236C38.7148 34.8768 38.7152 36.8883 40.1175 36.9413C40.7014 36.9413 41.1764 36.4663 41.1764 35.8825ZM40.1175 39.0589C39.0951 39.0589 38.2395 39.7874 38.0426 40.7525C39.4013 41.3336 40.9091 41.3014 42.1925 40.7525C41.9955 39.7874 41.1399 39.0589 40.1175 39.0589ZM40.1175 30.5883C35.5127 30.5742 33.1148 36.1634 36.2381 39.4799C36.5335 38.8073 36.998 38.2252 37.5785 37.789C36.0068 35.7511 37.5224 32.682 40.1175 32.7061C42.7124 32.6819 44.2285 35.7517 42.6564 37.789C43.237 38.2252 43.7016 38.8073 43.9968 39.4799C47.1216 36.1621 44.7201 30.5736 40.1175 30.5883Z" fill="#EF5350"/>
<path d="M46.4707 45.4116H33.7648V47.5293H46.4707V45.4116Z" fill="#EF5350"/>
<path d="M48.5879 49.647H31.6467V51.7646H48.5879V49.647Z" fill="#EF5350"/>
</g>
<defs>
<clipPath id="clip0_2813_555">
<rect width="36" height="36" fill="white" transform="matrix(-1 0 0 1 56 20)"/>
</clipPath>
</defs>
</svg>
