<svg width="36" height="36" viewBox="0 0 36 36" fill="none" xmlns="http://www.w3.org/2000/svg">
<path d="M24.8301 17.4375H25.7695C26.1347 17.4375 26.492 17.3303 26.7969 17.1292C27.1019 16.9281 27.3411 16.642 27.4851 16.3063L28.537 13.8521C28.6364 13.6198 28.6877 13.3697 28.6877 13.1169C28.6877 12.6218 28.491 12.1469 28.1409 11.7968C27.7908 11.4467 27.3159 11.25 26.8208 11.25H25.3127V11.3287V14.1131C25.3126 15.2387 25.15 16.3584 24.8301 17.4375Z" fill="#E29C83"/>
<path d="M11.1431 17.4375H10.2307C9.86548 17.4375 9.50825 17.3303 9.2033 17.1292C8.89835 16.9281 8.65908 16.642 8.51512 16.3063L7.46325 13.8521C7.36375 13.6198 7.31247 13.3697 7.3125 13.1169C7.3125 12.6218 7.50919 12.1469 7.85931 11.7968C8.20943 11.4467 8.6843 11.25 9.17944 11.25H10.6875V14.2605C10.6877 15.3358 10.8411 16.4055 11.1431 17.4375Z" fill="#E29C83"/>
<path d="M27.0197 11.2607L27.5214 7.61119C27.5489 7.4123 27.5626 7.21177 27.5625 7.011V5.9985C27.5624 5.35288 27.4205 4.71517 27.1466 4.13049C26.8728 3.54581 26.4738 3.02847 25.9779 2.61506C24.8207 1.65195 23.3626 1.12472 21.8571 1.125H21.7446C21.1253 1.12486 20.51 1.22477 19.9226 1.42088C19.3933 1.59724 18.8391 1.68726 18.2812 1.6875C17.7226 1.68751 17.1676 1.59748 16.6376 1.42088L16.5938 1.40625C16.0349 1.22006 15.4497 1.12509 14.8607 1.125C13.4683 1.18327 12.1062 1.54983 10.8726 2.19825C9.96091 2.72735 9.20419 3.4866 8.67814 4.40002C8.15208 5.31344 7.87513 6.34899 7.875 7.40306V7.4475C7.875 7.73227 7.8953 8.01668 7.93575 8.29856L8.38238 11.4283C8.63159 11.3106 8.90383 11.2497 9.17944 11.25H10.6875V10.5188C10.6874 9.53484 11.0222 8.58021 11.637 7.812C12.0428 7.30502 12.5575 6.89579 13.1429 6.6146C13.7282 6.3334 14.3693 6.18743 15.0188 6.1875H16.4047C16.8999 6.1873 17.3882 6.30244 17.8311 6.52378C18.274 6.74512 18.6592 7.06659 18.9563 7.46269C19.4271 8.09003 20.1126 8.52195 20.8817 8.676L22.0247 8.90438C22.3395 8.96734 22.6598 8.99918 22.9809 8.99944C23.5857 8.99837 24.1672 9.23263 24.6024 9.65266C25.0375 10.0727 25.2922 10.6455 25.3125 11.25H26.8217C26.8864 11.25 26.9499 11.2534 27.0129 11.2596L27.0197 11.2607Z" fill="#915E3C"/>
<path d="M15.1875 22.4629V24.0548C15.1876 24.5121 15.0811 24.9632 14.8764 25.3721C14.804 25.5167 14.7199 25.6552 14.625 25.7861V25.8829C14.6251 26.2518 14.6981 26.6171 14.8395 26.9578C14.981 27.2985 15.1883 27.608 15.4496 27.8685C15.7108 28.129 16.0209 28.3355 16.362 28.476C16.7031 28.6165 17.0686 28.6884 17.4375 28.6875H18.5625C18.9314 28.6883 19.2969 28.6164 19.6379 28.4758C19.979 28.3353 20.289 28.1288 20.5503 27.8684C20.8115 27.6079 21.0188 27.2984 21.1603 26.9577C21.3018 26.6171 21.3748 26.2518 21.375 25.8829V25.7845C21.2804 25.6541 21.1967 25.5162 21.1247 25.3721C20.9196 24.9633 20.8128 24.5122 20.8125 24.0548V22.4522C19.9248 22.8549 18.9612 23.063 17.9865 23.0625C17.0217 23.0629 16.0678 22.8589 15.1875 22.464V22.4629Z" fill="#E29C83"/>
<path d="M14.625 25.7861V25.8829C14.6251 26.2518 14.6981 26.6171 14.8395 26.9578C14.981 27.2985 15.1883 27.608 15.4496 27.8685C15.7108 28.129 16.0209 28.3354 16.362 28.476C16.7031 28.6165 17.0686 28.6884 17.4375 28.6875H18.5625C18.9314 28.6883 19.2969 28.6164 19.6379 28.4758C19.979 28.3352 20.289 28.1288 20.5503 27.8683C20.8115 27.6078 21.0188 27.2984 21.1603 26.9577C21.3018 26.617 21.3748 26.2518 21.375 25.8829V25.7844C21.648 26.1608 22.0062 26.4672 22.4204 26.6784C22.8345 26.8897 23.2928 26.9999 23.7577 27H26.2688C27.1911 27 28.1 27.2202 28.9201 27.6422C29.7402 28.0643 30.4476 28.6761 30.9836 29.4266C31.6853 30.4092 32.0625 31.5864 32.0625 32.7937V34.875H3.9375V32.7937C3.93755 31.5861 4.31494 30.4087 5.01694 29.426C5.55295 28.6757 6.26034 28.0641 7.0803 27.6421C7.90026 27.2202 8.80909 27 9.73125 27H12.2417C12.7066 27.0001 13.1648 26.8902 13.5791 26.6792C13.9933 26.4682 14.3517 26.1622 14.625 25.7861Z" fill="#14A085"/>
<path d="M25.3125 11.3287V14.1131C25.3124 15.8694 24.917 17.6032 24.1554 19.1858C23.5963 20.3471 22.7208 21.327 21.6295 22.0128C20.5381 22.6986 19.2754 23.0625 17.9865 23.0625C16.7047 23.0626 15.4487 22.7028 14.3613 22.024C13.274 21.3453 12.3991 20.375 11.8361 19.2234C11.0802 17.6782 10.6874 15.9807 10.6875 14.2605V10.5188C10.6874 9.53484 11.0222 8.58021 11.637 7.812C12.0428 7.30502 12.5575 6.89579 13.1429 6.6146C13.7282 6.3334 14.3693 6.18743 15.0188 6.1875H16.4047C16.8999 6.1873 17.3882 6.30244 17.8311 6.52378C18.274 6.74512 18.6592 7.06659 18.9563 7.46269C19.4271 8.09003 20.1126 8.52195 20.8817 8.676L22.0247 8.90438C22.3395 8.96734 22.6598 8.99918 22.9809 8.99944C23.2871 8.99899 23.5903 9.05892 23.8732 9.1758C24.1561 9.29267 24.4132 9.4642 24.6298 9.68055C24.8464 9.89691 25.0181 10.1538 25.1353 10.4367C25.2524 10.7195 25.3126 11.0226 25.3125 11.3287Z" fill="#F2B9A1"/>
<path d="M10.6876 14.2605V11.25H9.17954C8.87061 11.25 8.5665 11.3266 8.29448 11.4731C8.02246 11.6195 7.79103 11.8312 7.62094 12.0891C7.45085 12.3469 7.34742 12.643 7.31991 12.9507C7.29241 13.2584 7.34169 13.5682 7.46335 13.8521L8.51523 16.3063C8.65653 16.6353 8.88973 16.9165 9.18685 17.1163L10.7669 15.5363C10.7163 15.1129 10.6898 14.6869 10.6876 14.2605Z" fill="#F2B9A1"/>
<path d="M16.4059 6.1875H15.0188C14.3691 6.1874 13.7277 6.33346 13.1421 6.61486C12.5565 6.89626 12.0417 7.30579 11.6359 7.81313C11.0218 8.58119 10.6873 9.53537 10.6875 10.5188V14.2594C10.6876 14.6877 10.712 15.1157 10.7606 15.5413L18.9 7.39969C18.6026 7.02267 18.2237 6.71781 17.7918 6.50789C17.3599 6.29797 16.8861 6.18844 16.4059 6.1875Z" fill="#FFBDA9"/>
<path d="M21.8571 1.125H21.7446C21.1253 1.12486 20.5101 1.22477 19.9227 1.42088C19.3934 1.59724 18.8392 1.68726 18.2813 1.6875C17.8014 1.68607 17.324 1.61811 16.8627 1.48556L8.2002 10.1481C8.29695 10.8231 8.38301 11.4283 8.38301 11.4283C8.63205 11.3107 8.90409 11.2498 9.17951 11.25H10.6876V10.5188C10.6874 9.53484 11.0223 8.58021 11.6371 7.812C12.0429 7.30502 12.5576 6.89579 13.1429 6.6146C13.7283 6.3334 14.3694 6.18743 15.0188 6.1875H16.4048C16.8852 6.18828 17.3592 6.29772 17.7914 6.50764C18.2235 6.71757 18.6025 7.02253 18.9001 7.39969L24.5751 1.72744C23.7239 1.33074 22.7962 1.12511 21.8571 1.125Z" fill="#9E6B47"/>
<path d="M14.625 25.7861C14.3518 26.1621 13.9935 26.4681 13.5793 26.6791C13.1652 26.8901 12.707 27 12.2423 27H9.73125C8.19465 27 6.72099 27.6104 5.63445 28.697C4.54791 29.7835 3.9375 31.2572 3.9375 32.7938V34.875H6.00919L14.6593 26.2249C14.641 26.1117 14.6296 25.9975 14.625 25.8829V25.7861Z" fill="#26B99A"/>
<path d="M15.187 22.4636L15.1874 22.464V22.4629L15.187 22.4636Z" fill="#F2B9A1"/>
<path d="M15.1875 22.4645V24.0547C15.1875 24.5121 15.081 24.9631 14.8764 25.3721C14.804 25.5167 14.7199 25.6551 14.625 25.7861V25.8829C14.6296 25.9974 14.641 26.1116 14.6593 26.2249L17.8313 23.054C16.9195 23.0358 16.0206 22.8353 15.1875 22.4645Z" fill="#F2B9A1"/>
<path d="M25.3126 14.1132V11.3288C25.3127 11.023 25.2525 10.7201 25.1355 10.4375C25.0185 10.155 24.847 9.89822 24.6307 9.68196C24.4145 9.4657 24.1577 9.29417 23.8751 9.17716C23.5926 9.06016 23.2897 8.99997 22.9839 9.00005C22.6628 8.99979 22.3425 8.96795 22.0276 8.90498L20.8846 8.67661C20.7252 8.64244 20.5687 8.5958 20.4166 8.53711L11.2344 17.7188C11.3987 18.2345 11.5998 18.7377 11.8362 19.2246C12.3879 20.351 13.2384 21.3042 14.295 21.98C15.3516 22.6559 16.5735 23.0284 17.8274 23.0569L25.2001 15.6814C25.2728 15.1618 25.3104 14.6379 25.3126 14.1132Z" fill="#FFBDA9"/>
<path d="M25.2036 15.6808L28.5224 12.3621C28.3767 12.0319 28.1385 11.7512 27.8364 11.5538C27.5344 11.3564 27.1816 11.2509 26.8208 11.25H25.3127V11.3287V14.1131C25.3116 14.6375 25.2752 15.1613 25.2036 15.6808Z" fill="#F2B9A1"/>
<path d="M20.8821 8.67661L22.0251 8.90498C22.3399 8.96794 22.6602 8.99978 22.9813 9.00004C23.5859 8.99911 24.1672 9.23336 24.6022 9.65326C25.0372 10.0732 25.2919 10.6458 25.3123 11.25H26.8215C26.8862 11.25 26.9497 11.2534 27.0127 11.2596H27.0206L27.5224 7.61011C27.5494 7.41157 27.5627 7.21141 27.5623 7.01104V5.99854C27.5613 5.39593 27.4365 4.79994 27.1957 4.24754C26.9548 3.69513 26.6031 3.19809 26.1623 2.78723L20.4141 8.53711C20.5662 8.5958 20.7226 8.64244 20.8821 8.67661Z" fill="#9E6B47"/>
</svg>
