<svg width="24" height="24" viewBox="0 0 24 24" fill="none" xmlns="http://www.w3.org/2000/svg">
<g clip-path="url(#clip0_511_1213)">
<path d="M24 19.0158V1.05713H0V19.0158H11.2944V21.5317H2.81984V22.9429H21.1802V21.5317H12.7056V19.0158H24ZM1.41124 2.46837H22.5888V17.6046H1.41124V2.46837Z" fill="white"/>
<path d="M5.68556 4.84961H4.27432V5.98721H3.13672V7.39845H4.27432V8.53605H5.68556V7.39845H6.82316V5.98721H5.68556V4.84961Z" fill="white"/>
<path d="M17.9292 9.99375L16.4099 3.53418L14.1268 8.60246L12.6763 6.88079L10.3482 9.20896H9.04102V10.6202H10.9327L12.5874 8.96547L14.4925 11.2267L15.9884 7.90592L17.1504 12.8461L19.2813 10.6225L21.0784 10.6829L21.0889 9.27167L18.6834 9.2067L17.9292 9.99375Z" fill="white"/>
<path d="M9.05664 14.5088H11.2832V15.92H9.05664V14.5088Z" fill="white"/>
<path d="M13.0239 14.5088H15.2505V15.92H13.0239V14.5088Z" fill="white"/>
<path d="M16.9907 14.5088H19.2173V15.92H16.9907V14.5088Z" fill="white"/>
<path d="M3.3335 13.6699H6.62639V15.0812H3.3335V13.6699Z" fill="white"/>
<path d="M3.3335 10.4321H6.62639V11.8434H3.3335V10.4321Z" fill="white"/>
</g>
<defs>
<clipPath id="clip0_511_1213">
<rect width="24" height="24" fill="white"/>
</clipPath>
</defs>
</svg>
