<svg width="18" height="18" viewBox="0 0 18 18" fill="none" xmlns="http://www.w3.org/2000/svg">
<g id="medium">
<path id="Vector" d="M13.75 3C13.1977 3 12.75 3.44772 12.75 4V14C12.75 14.5523 13.1977 15 13.75 15H14.75C15.3023 15 15.75 14.5523 15.75 14V4C15.75 3.44772 15.3023 3 14.75 3H13.75ZM14.7 4.5C14.8657 4.5 15 4.63431 15 4.8V13.2C15 13.3657 14.8657 13.5 14.7 13.5H13.8C13.6343 13.5 13.5 13.3657 13.5 13.2V4.8C13.5 4.63431 13.6343 4.5 13.8 4.5H14.7ZM2.25 11.5C2.25 10.9477 2.69772 10.5 3.25 10.5H4.25C4.80228 10.5 5.25 10.9477 5.25 11.5L5.25 14C5.25 14.5523 4.80228 15 4.25 15H3.25C2.69772 15 2.25 14.5523 2.25 14L2.25 11.5ZM10.5 8.5C10.5 7.94772 10.0523 7.5 9.5 7.5H8.5C7.94772 7.5 7.5 7.94772 7.5 8.5L7.5 14C7.5 14.5523 7.94772 15 8.5 15H9.5C10.0523 15 10.5 14.5523 10.5 14V8.5Z" fill="#FCCA46"/>
</g>
</svg>
