<svg width="24" height="24" viewBox="0 0 24 24" fill="none" xmlns="http://www.w3.org/2000/svg">
<rect width="24" height="24" fill="white"/>
<path d="M4.615 14C4.155 14 3.771 13.846 3.463 13.538C3.15433 13.2293 3 12.845 3 12.385V4.615C3 4.155 3.15433 3.771 3.463 3.463C3.771 3.15433 4.155 3 4.615 3H12.385C12.845 3 13.2293 3.15433 13.538 3.463C13.846 3.771 14 4.155 14 4.615V12.385C14 12.845 13.846 13.2293 13.538 13.538C13.2293 13.846 12.845 14 12.385 14H4.615ZM8 11.75L6.8 10.1L5.385 12H11.615L9.7 9.5L8 11.75ZM16.5 21C15.808 21 15.218 20.7567 14.73 20.27C14.2433 19.782 14 19.192 14 18.5C14 17.808 14.2433 17.218 14.73 16.73C15.218 16.2433 15.808 16 16.5 16C16.7987 16 17.072 16.0487 17.32 16.146C17.568 16.2433 17.7947 16.3813 18 16.56V11H21V12H19V18.5C19 19.192 18.7567 19.782 18.27 20.27C17.782 20.7567 17.192 21 16.5 21Z" fill="#3D3F70"/>
</svg>
