<svg width="18" height="18" viewBox="0 0 18 18" fill="none" xmlns="http://www.w3.org/2000/svg">
<path d="M11.25 7.95V3.75C11.25 2.505 10.245 1.5 9 1.5C7.845 1.5 6.9075 2.37 6.78 3.4875L11.25 7.95ZM14.25 8.25H12.975C12.975 8.685 12.9 9.0975 12.7725 9.48L13.725 10.4325C14.055 9.7725 14.25 9.03 14.25 8.25ZM3.3075 2.145L2.25 3.2025L6.75 7.7025V8.25C6.75 9.495 7.755 10.5 9 10.5C9.1725 10.5 9.33 10.4775 9.4875 10.44L10.7325 11.685C10.2 11.9325 9.6075 12.075 9 12.075C6.93 12.075 5.025 10.5 5.025 8.25H3.75C3.75 10.8075 5.79 12.9225 8.25 13.29V15.75H9.75V13.29C10.4247 13.1891 11.0739 12.9599 11.6625 12.615L14.8125 15.765L15.87 14.7075L3.3075 2.145Z" fill="#A2A2A3"/>
</svg>
