<svg width="6" height="10" viewBox="0 0 6 10" fill="none" xmlns="http://www.w3.org/2000/svg">
<path d="M3.44531 8C3.55078 8 3.65625 7.91211 3.65625 7.78906V7.64844C3.65625 7.54297 3.55078 7.4375 3.44531 7.4375H2.17969C2.05664 7.4375 1.96875 7.54297 1.96875 7.64844V7.78906C1.96875 7.91211 2.05664 8 2.17969 8H3.44531ZM5.625 0.96875C5.625 0.511719 5.23828 0.125 4.78125 0.125H0.84375C0.369141 0.125 0 0.511719 0 0.96875V8.28125C0 8.75586 0.369141 9.125 0.84375 9.125H4.78125C5.23828 9.125 5.625 8.75586 5.625 8.28125V0.96875ZM5.0625 0.96875V8.28125C5.0625 8.43945 4.92188 8.5625 4.78125 8.5625H0.84375C0.685547 8.5625 0.5625 8.43945 0.5625 8.28125V0.96875C0.5625 0.828125 0.685547 0.6875 0.84375 0.6875H4.78125C4.92188 0.6875 5.0625 0.828125 5.0625 0.96875Z" fill="white"/>
</svg>
