<svg width="24" height="24" viewBox="0 0 24 24" fill="none" xmlns="http://www.w3.org/2000/svg">
<rect width="24" height="24" fill="white"/>
<g clip-path="url(#clip0_15541_77735)">
<path d="M13.4882 5.00353C12.7691 4.10842 12.1499 3.19927 12.0234 3.01049C12.0204 3.00717 12.0168 3.00453 12.0128 3.00273C12.0088 3.00093 12.0045 3 12.0001 3C11.9957 3 11.9914 3.00093 11.9874 3.00273C11.9834 3.00453 11.9798 3.00717 11.9768 3.01049C11.8503 3.1993 11.2311 4.10842 10.512 5.00353C4.33988 13.2624 11.4841 18.836 11.4841 18.836L11.544 18.878C11.5973 19.7381 11.7304 20.9759 11.7304 20.9759H12.2631C12.2631 20.9759 12.3962 19.7451 12.4495 18.878L12.5094 18.829C12.5161 18.836 19.6603 13.2625 13.4882 5.00353ZM11.9968 18.7101C11.9968 18.7101 11.6772 18.4234 11.5906 18.2766V18.2625L11.9768 9.26937C11.9768 9.2414 12.0168 9.2414 12.0168 9.26937L12.4029 18.2625V18.2766C12.3163 18.4234 11.9968 18.7101 11.9968 18.7101" fill="#01EC64"/>
</g>
<defs>
<clipPath id="clip0_15541_77735">
<rect width="8" height="18" fill="white" transform="translate(8 3)"/>
</clipPath>
</defs>
</svg>
