<svg width="24" height="24" viewBox="0 0 24 24" fill="none" xmlns="http://www.w3.org/2000/svg">
<g opacity="0.5">
<path d="M3.99844 19V17H5.99844V10C5.99844 9.45 6.06944 8.90834 6.21144 8.375C6.35344 7.84167 6.56577 7.33334 6.84844 6.85L8.34844 8.35C8.23177 8.61667 8.14444 8.88767 8.08644 9.163C8.02844 9.43834 7.9991 9.71734 7.99844 10V17H14.1984L1.39844 4.2L2.79844 2.8L21.1984 21.2L19.7984 22.6L16.1484 19H3.99844ZM17.9984 15.15L15.9984 13.15V10C15.9984 8.9 15.6068 7.95834 14.8234 7.175C14.0401 6.39167 13.0984 6 11.9984 6C11.5651 6 11.1484 6.06667 10.7484 6.2C10.3484 6.33334 9.98177 6.53334 9.64844 6.8L8.19844 5.35C8.53177 5.08334 8.8901 4.85 9.27344 4.65C9.65677 4.45 10.0651 4.3 10.4984 4.2V3.5C10.4984 3.08334 10.6441 2.729 10.9354 2.437C11.2268 2.145 11.5811 1.99934 11.9984 2C12.4151 2 12.7694 2.146 13.0614 2.438C13.3534 2.73 13.4991 3.084 13.4984 3.5V4.2C14.8318 4.53334 15.9151 5.23767 16.7484 6.313C17.5818 7.38834 17.9984 8.61734 17.9984 10V15.15ZM11.9984 22C11.4484 22 10.9774 21.804 10.5854 21.412C10.1934 21.02 9.99777 20.5493 9.99844 20H13.9984C13.9984 20.55 13.8024 21.021 13.4104 21.413C13.0184 21.805 12.5478 22.0007 11.9984 22Z" fill="white"/>
</g>
</svg>
