<svg width="21" height="21" viewBox="0 0 21 21" fill="none" xmlns="http://www.w3.org/2000/svg">
<path d="M2.9999 17V15H4.9999V8C4.9999 7.45 5.0709 6.90834 5.2129 6.375C5.3549 5.84167 5.56724 5.33334 5.8499 4.85L7.3499 6.35C7.23324 6.61667 7.1459 6.88767 7.0879 7.163C7.0299 7.43834 7.00057 7.71734 6.9999 8V15H13.1999L0.399902 2.2L1.7999 0.800002L20.1999 19.2L18.7999 20.6L15.1499 17H2.9999ZM16.9999 13.15L14.9999 11.15V8C14.9999 6.9 14.6082 5.95834 13.8249 5.175C13.0416 4.39167 12.0999 4 10.9999 4C10.5666 4 10.1499 4.06667 9.7499 4.2C9.3499 4.33334 8.98324 4.53334 8.6499 4.8L7.1999 3.35C7.53324 3.08334 7.89157 2.85 8.2749 2.65C8.65824 2.45 9.06657 2.3 9.4999 2.2V1.5C9.4999 1.08334 9.64557 0.729002 9.9369 0.437002C10.2282 0.145002 10.5826 -0.000664389 10.9999 2.2779e-06C11.4166 2.2779e-06 11.7709 0.146002 12.0629 0.438002C12.3549 0.730002 12.5006 1.084 12.4999 1.5V2.2C13.8332 2.53334 14.9166 3.23767 15.7499 4.313C16.5832 5.38834 16.9999 6.61734 16.9999 8V13.15ZM10.9999 20C10.4499 20 9.9789 19.804 9.5869 19.412C9.1949 19.02 8.99924 18.5493 8.9999 18H12.9999C12.9999 18.55 12.8039 19.021 12.4119 19.413C12.0199 19.805 11.5492 20.0007 10.9999 20Z" fill="#DEDEDE"/>
</svg>
