<svg width="24" height="24" viewBox="0 0 24 24" fill="none" xmlns="http://www.w3.org/2000/svg">
<rect width="24" height="24" fill="white"/>
<g clip-path="url(#clip0_15541_77726)">
<path d="M7.94961 14.237L8.55742 16.2623C8.69398 16.7221 8.75094 17.0431 8.72813 17.226C9.06055 16.3118 9.29281 15.3154 9.42496 14.237H10.1558C9.84156 15.9926 9.42707 17.2684 8.91258 18.0643C8.51172 18.6776 8.07258 18.9843 7.59438 18.9843C7.46688 18.9843 7.30969 18.9447 7.12316 18.8662V18.443C7.2143 18.4567 7.32121 18.464 7.44418 18.464C7.66727 18.464 7.84707 18.4005 7.98387 18.2738C8.14766 18.1194 8.22965 17.9459 8.22965 17.7535C8.22965 17.6222 8.1657 17.3526 8.0384 16.9449L7.19152 14.237H7.94961ZM3.29777 12.9922L4.41105 16.4804H4.41793L5.53805 12.9922H6.4532C6.65359 14.7221 6.77195 16.3049 6.80828 17.7396H6.03672C6.00957 16.3984 5.93438 15.1373 5.81141 13.956H5.80469L4.62977 17.7396H4.04219L2.87438 13.956H2.8675C2.78086 15.0905 2.72633 16.3516 2.70359 17.7396H2C2.04547 16.0516 2.15926 14.4692 2.34137 12.9922H3.29777Z" fill="#00758F"/>
<path d="M15.7692 12.9219C16.9668 12.9219 17.5655 13.7076 17.5655 15.2782C17.5655 16.1317 17.3855 16.7764 17.0257 17.2119C16.9608 17.2915 16.8891 17.3602 16.8137 17.4239L17.6611 17.8542L17.6603 17.8542L17.3594 18.3878L16.2558 17.7265C16.0729 17.7822 15.8716 17.81 15.6522 17.81C15.0642 17.81 14.625 17.634 14.3346 17.2825C14.0159 16.8936 13.8566 16.2814 13.8566 15.4469C13.8566 14.5983 14.0363 13.956 14.3963 13.5199C14.7241 13.121 15.1818 12.9219 15.7692 12.9219ZM12.102 12.9288C12.53 12.9288 12.9192 13.0464 13.2698 13.2808L13.0917 13.6883C12.7918 13.5573 12.496 13.4916 12.2044 13.4916C11.9677 13.4916 11.7854 13.5501 11.6583 13.6678C11.5305 13.7844 11.4514 13.9345 11.4514 14.1175C11.4514 14.3987 11.6465 14.6426 12.0067 14.8486C12.1247 14.9149 12.2423 14.9819 12.3595 15.0496L12.3863 15.0652L12.3998 15.0729L12.4267 15.0885L12.4402 15.0962L12.467 15.1118C12.7397 15.2697 12.9963 15.4203 12.9963 15.4203C13.3564 15.6829 13.5359 15.9628 13.5359 16.4238C13.5359 16.8265 13.3923 17.157 13.1059 17.4156C12.8193 17.673 12.4342 17.8021 11.952 17.8021C11.5011 17.8021 11.064 17.6536 10.6406 17.3589L10.8387 16.9511C11.203 17.1386 11.5327 17.2323 11.8288 17.2323C12.1064 17.2323 12.3238 17.1686 12.481 17.0429C12.6379 16.9162 12.7319 16.7396 12.7319 16.5157C12.7319 16.2338 12.541 15.9928 12.1907 15.7907C12.0811 15.7285 11.9718 15.6657 11.8628 15.6023L11.8359 15.5866C11.7866 15.558 11.737 15.5291 11.6884 15.5007L11.662 15.4853C11.4255 15.3472 11.221 15.2265 11.221 15.2265C10.8708 14.9634 10.6952 14.6812 10.6952 14.2162C10.6952 13.8316 10.8262 13.5208 11.0877 13.2843C11.3498 13.0473 11.6879 12.9288 12.102 12.9288ZM18.9729 12.9924V17.1558H20.4275V17.7398H18.2352V12.9924H18.9729ZM21.2358 17.1576V17.2563H21.0759V17.7392H20.9536V17.2563H20.7875V17.1576H21.2359H21.2358ZM21.5311 17.1576L21.6847 17.5541L21.8257 17.1576H21.9991V17.7392H21.8838V17.2966L21.7233 17.7392H21.6402L21.4794 17.2966H21.4732V17.7392H21.3642V17.1576H21.5312H21.5311ZM15.6939 13.5057C14.9882 13.5057 14.6352 14.1039 14.6352 15.2993C14.6352 15.984 14.7287 16.4806 14.9155 16.79C15.0884 17.0765 15.3593 17.2194 15.7282 17.2194C16.4339 17.2194 16.7869 16.6166 16.7869 15.4117C16.7869 14.7365 16.6934 14.2442 16.5068 13.9346C16.3337 13.6488 16.0629 13.5057 15.6939 13.5057H15.6939Z" fill="#F29111"/>
<path d="M13.8438 5.29416C14.0779 4.70344 14.8964 5.15079 15.2141 5.35714C15.2919 5.40877 15.3812 5.51784 15.4705 5.55816C15.6097 5.56377 15.7489 5.57497 15.8884 5.58094C16.15 5.64408 16.3951 5.69567 16.6013 5.81625C17.5594 6.39571 18.1831 6.9862 18.7571 7.96154C18.8798 8.16813 18.9411 8.39169 19.0413 8.61525C19.1803 8.94848 19.3366 9.29828 19.498 9.61338C19.5702 9.76277 19.6261 9.92889 19.7265 10.055C19.7657 10.1127 19.877 10.1297 19.9435 10.1642C20.1274 10.262 20.3502 10.3362 20.5232 10.4509C20.8462 10.6577 21.1585 10.9042 21.4424 11.1565C21.5482 11.2539 21.6203 11.3918 21.7211 11.4948V11.5468C21.6316 11.575 21.5425 11.6039 21.4532 11.627C21.2582 11.6784 21.0856 11.6668 20.8964 11.7183C20.7795 11.7531 20.6344 11.799 20.5118 11.8107L20.5232 11.8224C20.5953 12.034 20.9854 12.2061 21.1639 12.3327C21.3806 12.4933 21.5814 12.6881 21.7431 12.9118C21.7989 12.9689 21.8547 13.0208 21.9102 13.0778C21.9491 13.1354 21.96 13.2101 21.9993 13.2615V13.2789C21.9558 13.2631 21.9245 13.233 21.8948 13.2016L21.8772 13.1826C21.8595 13.1638 21.8416 13.1452 21.8213 13.13C21.6983 13.0437 21.5762 12.9405 21.4532 12.8603C21.2418 12.7226 20.9966 12.6426 20.7795 12.5044C20.6568 12.4241 20.5398 12.3327 20.4228 12.2408C20.3168 12.1603 20.2 12.0057 20.1333 11.891C20.0941 11.8276 20.0887 11.7531 20.0438 11.7072C20.0518 11.6307 20.1202 11.6079 20.1891 11.5892L20.205 11.5849C20.2288 11.5786 20.252 11.5723 20.2724 11.5639C20.562 11.4376 20.9072 11.3918 21.3531 11.4033C21.3363 11.2883 21.0577 11.145 20.9688 11.0762C20.7902 10.9441 20.6012 10.8062 20.4118 10.6859C20.3115 10.6229 20.1386 10.577 20.0274 10.5255C19.877 10.4624 19.5426 10.3993 19.4593 10.279C19.3177 10.0894 19.2159 9.8633 19.1172 9.63489L19.0903 9.57255C19.0814 9.55177 19.0724 9.53101 19.0634 9.51025C18.9466 9.23518 18.8016 8.9484 18.6847 8.66676C18.6235 8.52937 18.5954 8.40878 18.5284 8.27701C18.1219 7.46838 17.5202 6.79136 16.7907 6.31524C16.551 6.16032 16.2837 6.01695 15.9886 5.91951C15.8214 5.86764 15.6207 5.89632 15.4425 5.85653H15.3252C15.2252 5.82757 15.1416 5.71862 15.0635 5.66117C14.8911 5.54091 14.7183 5.46016 14.5121 5.37435C14.4398 5.33993 14.2334 5.25978 14.1614 5.32289C14.1168 5.3344 14.0942 5.35169 14.0832 5.39766C14.0388 5.46625 14.0779 5.56959 14.1055 5.63285C14.1891 5.81617 14.306 5.92513 14.4121 6.08005C14.5065 6.21744 14.6237 6.37236 14.6906 6.52175C14.835 6.84287 14.9022 7.19864 15.036 7.51972C15.0856 7.64047 15.1641 7.77786 15.2363 7.88677C15.2975 7.97322 15.4088 8.03572 15.4425 8.14515C15.5096 8.25988 15.342 8.63844 15.3032 8.75866C15.1581 9.22909 15.1863 9.883 15.3534 10.2908L15.3623 10.3123L15.3712 10.334C15.4322 10.4834 15.4975 10.6442 15.6597 10.686C15.6709 10.6746 15.6597 10.6806 15.6819 10.6746C15.7211 10.359 15.7322 10.055 15.8381 9.80806C15.8993 9.65366 16.0216 9.54451 16.1054 9.41847C16.1612 9.45281 16.1612 9.55634 16.1945 9.62486C16.267 9.80256 16.3449 9.9974 16.4342 10.1756C16.6177 10.5427 16.8241 10.8985 17.0579 11.2196C17.1363 11.3343 17.2474 11.4605 17.3476 11.5638C17.3923 11.6038 17.4423 11.6269 17.4758 11.6784H17.4868V11.6957C17.3197 11.6325 17.2137 11.4549 17.0804 11.3513C16.8295 11.1564 16.529 10.8638 16.356 10.5831C16.2837 10.4219 16.2055 10.2674 16.1275 10.107V10.0954C16.0942 10.1413 16.1054 10.1867 16.0887 10.2561C16.0163 10.5427 16.072 10.8697 15.8214 10.9727C15.5372 11.0935 15.3253 10.7779 15.2363 10.6345C14.9521 10.1585 14.8743 9.35549 15.0747 8.70728C15.1192 8.56379 15.1253 8.39169 15.203 8.27713C15.1862 8.17355 15.1085 8.14523 15.0635 8.08177C14.9856 7.9733 14.9188 7.84694 14.8577 7.72647C14.7405 7.49116 14.657 7.21 14.568 6.95764C14.5289 6.85458 14.5177 6.75113 14.4786 6.65357C14.4121 6.50466 14.2894 6.35528 14.1947 6.22354C14.0666 6.0342 13.6933 5.66723 13.8438 5.29416ZM15.6708 6.41797C15.6857 6.4333 15.7036 6.4467 15.7222 6.45989L15.7447 6.4757C15.7745 6.49696 15.8035 6.51934 15.8212 6.54983C15.8493 6.59019 15.8546 6.63002 15.8882 6.67046C15.8882 6.80833 15.8493 6.89999 15.7708 6.95711C15.7708 6.95711 15.7654 6.96313 15.7599 6.96875C15.7154 6.87685 15.6764 6.78542 15.6315 6.6936C15.5763 6.61345 15.4982 6.54987 15.4532 6.45829H15.4424V6.44678C15.5096 6.42973 15.5763 6.41797 15.6708 6.41797Z" fill="#00758F"/>
</g>
<defs>
<clipPath id="clip0_15541_77726">
<rect width="20" height="14" fill="white" transform="translate(2 5)"/>
</clipPath>
</defs>
</svg>
