<svg width="56" height="56" viewBox="0 0 56 56" fill="none" xmlns="http://www.w3.org/2000/svg">
<circle cx="28" cy="28" r="27.5" fill="#23222B" stroke="#595959"/>
<path d="M31.528 27.7938C31.528 28.7546 31.0784 29.56 30.5604 30.2834C29.6722 31.5215 27.5562 35.5779 27.5562 35.5779C27.6356 35.5779 27.715 35.588 27.7945 35.588C32.0985 35.588 35.5878 32.0986 35.5878 27.7938C35.5878 26.7476 35.38 25.7504 35.0039 24.8394H30.0525C30.9399 25.5196 31.528 26.5861 31.528 27.7938Z" fill="white"/>
<path d="M27.7775 24.0632C29.4846 24.0505 34.5974 23.9973 34.5974 23.9973C33.2638 21.6141 30.7226 20 27.7944 20C25.3547 20 23.1761 21.1223 21.7495 22.8784L24.1301 27.1072C24.4504 25.3807 25.9589 24.0767 27.7775 24.0632Z" fill="white"/>
<path d="M26.6356 35.4922L29.0585 31.2929C28.6621 31.4383 28.2396 31.5271 27.7942 31.5271C26.1666 31.5271 24.9251 30.4284 24.2846 29.0247C23.6415 27.6159 21.2119 23.6348 21.2119 23.6348C20.4488 24.839 20 26.2621 20 27.7934C20 31.7019 22.8818 34.931 26.6356 35.4922Z" fill="white"/>
<path d="M27.7945 25.2754C26.401 25.2754 25.272 26.4044 25.272 27.7938C25.272 29.1873 26.401 30.3163 27.7945 30.3163C29.1872 30.3163 30.3129 29.1873 30.3129 27.7938C30.3129 26.4044 29.1872 25.2754 27.7945 25.2754Z" fill="white"/>
</svg>
