<svg width="50" height="51" viewBox="0 0 50 51" fill="none" xmlns="http://www.w3.org/2000/svg">
<g filter="url(#filter0_d_15543_127614)">
<circle cx="25" cy="21.5" r="9" fill="#A2A2A3"/>
</g>
<path d="M29.3137 26.8583H27.5419V25.9091C27.5455 25.5769 27.483 25.2473 27.3581 24.9395C27.2331 24.6317 27.0482 24.3518 26.8141 24.1161C26.5904 23.8728 26.318 23.6794 26.0145 23.5485C25.711 23.4177 25.3833 23.3523 25.0528 23.3567C24.721 23.3513 24.3919 23.4156 24.0865 23.5455C23.7812 23.6754 23.5066 23.868 23.2805 24.1108C23.0455 24.347 22.8601 24.6277 22.7352 24.9365C22.6103 25.2453 22.5484 25.576 22.5532 25.9091V26.8583H20.7813V25.9091C20.7783 25.247 20.9356 24.594 21.2399 24.006C21.5434 23.4143 21.9826 22.9027 22.5215 22.513C21.9837 22.1246 21.5446 21.6152 21.2399 21.0258C20.9352 20.4396 20.7778 19.7881 20.7813 19.1274V18.5473H22.5532V19.1274C22.5484 19.4605 22.6103 19.7912 22.7352 20.1C22.8601 20.4088 23.0455 20.6895 23.2805 20.9257C23.5066 21.1684 23.7811 21.3609 24.0863 21.4908C24.3916 21.6207 24.7207 21.6851 25.0523 21.6798C25.3829 21.6842 25.7107 21.6188 26.0143 21.4878C26.3179 21.3569 26.5904 21.1634 26.8141 20.9199C27.0482 20.6842 27.2331 20.4043 27.3581 20.0965C27.483 19.7887 27.5455 19.4591 27.5419 19.127V18.5469H29.3137V19.127C29.3173 19.7876 29.1599 20.4392 28.8552 21.0254C28.5522 21.6127 28.1172 22.1217 27.5843 22.5125C28.1191 22.9055 28.5544 23.4185 28.8552 24.0102C29.1583 24.5969 29.3156 25.2481 29.3137 25.9086V26.8583Z" fill="#EF018F"/>
<path d="M30.3221 19.9631C30.3221 19.9631 29.9102 19.7786 29.9102 19.5511V17.1307C29.9102 16.9032 30.0946 16.7188 30.3221 16.7188C30.5497 16.7188 30.7341 16.9032 30.7341 17.1307L30.7341 19.5511L30.3221 19.9631Z" fill="#A2A2A3"/>
<path d="M30.7375 19.5485V20.6781C30.7375 21.3596 30.183 21.9141 29.5016 21.9141C28.8202 21.9141 28.2656 21.3596 28.2656 20.6781V19.5485C28.2656 18.867 28.8202 18.3125 29.5016 18.3125C30.183 18.3125 30.7375 18.867 30.7375 19.5485Z" fill="#000759"/>
<path d="M19.6464 19.9631L19.2344 19.5511V17.1307C19.2344 16.9032 19.4188 16.7188 19.6464 16.7188C19.8739 16.7188 20.0583 16.9032 20.0583 17.1307V19.5511C20.0583 19.7786 19.6464 19.9631 19.6464 19.9631Z" fill="#CFCFE6"/>
<path d="M21.7063 19.5485V20.6781C21.7063 21.3596 21.1518 21.9141 20.4703 21.9141C19.7889 21.9141 19.2344 21.3596 19.2344 20.6781V19.5485C19.2344 18.867 19.7889 18.3125 20.4703 18.3125C21.1518 18.3125 21.7063 18.867 21.7063 19.5485Z" fill="#070E59"/>
<path d="M24.9857 18.5469L26.2959 21.6884L24.9857 23.3364H24.207C22.3739 23.3364 20.8828 21.8452 20.8828 20.0122V18.9589L21.2948 18.5469H24.9857Z" fill="#FE48B5"/>
<path d="M29.0872 18.9589V20.0122C29.0872 21.8452 27.5961 23.3364 25.763 23.3364H24.9844V18.5469H28.6752L29.0872 18.9589Z" fill="#EF018F"/>
<path d="M28.6752 18.9629C28.6752 19.4682 28.4703 19.9258 28.1391 20.257C27.8081 20.5883 27.3506 20.7932 26.8452 20.7932H24.9844V17.1328H26.8452C27.8559 17.1328 28.6752 17.9521 28.6752 18.9629Z" fill="#3E3373"/>
<path d="M21.5904 18.959C21.5904 18.4536 21.7953 17.9961 22.1265 17.6648C22.4575 17.3336 22.9151 17.1287 23.4204 17.1287L25.2812 17.1287L25.2812 20.7891L23.4204 20.7891C22.4097 20.7891 21.5904 19.9698 21.5904 18.959Z" fill="#3E3373"/>
<path d="M23.119 19.3552C23.3466 19.3552 23.531 19.1708 23.531 18.9432C23.531 18.7157 23.3466 18.5312 23.119 18.5312C22.8915 18.5312 22.707 18.7157 22.707 18.9432C22.707 19.1708 22.8915 19.3552 23.119 19.3552Z" fill="#02ADEE"/>
<path d="M26.8534 19.3552C27.0809 19.3552 27.2654 19.1708 27.2654 18.9432C27.2654 18.7157 27.0809 18.5312 26.8534 18.5312C26.6259 18.5312 26.4414 18.7157 26.4414 18.9432C26.4414 19.1708 26.6259 19.3552 26.8534 19.3552Z" fill="#02ADEE"/>
<path d="M23.1248 17.5427H24.9857L25.6464 17.1016L24.9857 16.7188H23.1248C21.8886 16.7188 20.8828 17.7245 20.8828 18.9608C20.8828 20.1973 21.8886 21.2031 23.1248 21.2031H24.9857L25.4066 20.6658L24.9857 20.3791H23.1248C22.3429 20.3791 21.7068 19.743 21.7068 18.9608C21.7068 18.1788 22.3429 17.5427 23.1248 17.5427Z" fill="#CCEEFF"/>
<path d="M29.0872 18.9608C29.0872 20.1973 28.0814 21.2031 26.8452 21.2031H24.9844V20.3791H26.8452C27.6271 20.3791 28.2632 19.743 28.2632 18.9608C28.2632 18.1788 27.6271 17.5427 26.8452 17.5427H24.9844V16.7188H26.8452C28.0814 16.7188 29.0872 17.7245 29.0872 18.9608Z" fill="#99DDFF"/>
<defs>
<filter id="filter0_d_15543_127614" x="0" y="0.5" width="50" height="50" filterUnits="userSpaceOnUse" color-interpolation-filters="sRGB">
<feFlood flood-opacity="0" result="BackgroundImageFix"/>
<feColorMatrix in="SourceAlpha" type="matrix" values="0 0 0 0 0 0 0 0 0 0 0 0 0 0 0 0 0 0 127 0" result="hardAlpha"/>
<feOffset dy="4"/>
<feGaussianBlur stdDeviation="8"/>
<feComposite in2="hardAlpha" operator="out"/>
<feColorMatrix type="matrix" values="0 0 0 0 0 0 0 0 0 0 0 0 0 0 0 0 0 0 0.25 0"/>
<feBlend mode="normal" in2="BackgroundImageFix" result="effect1_dropShadow_15543_127614"/>
<feBlend mode="normal" in="SourceGraphic" in2="effect1_dropShadow_15543_127614" result="shape"/>
</filter>
</defs>
</svg>
