<svg width="76" height="76" viewBox="0 0 76 76" fill="none" xmlns="http://www.w3.org/2000/svg">
<rect width="76" height="76" rx="38" fill="#E7EFFE"/>
<g clip-path="url(#clip0_2407_533)">
<path d="M38 24.5C36.8728 24.5 35.7918 24.9478 34.9948 25.7448C34.1978 26.5418 33.75 27.6228 33.75 28.75V45.75C33.75 46.8772 34.1978 47.9582 34.9948 48.7552C35.7918 49.5522 36.8728 50 38 50C39.1272 50 40.2082 49.5522 41.0052 48.7552C41.8022 47.9582 42.25 46.8772 42.25 45.75V28.75C42.25 27.6228 41.8022 26.5418 41.0052 25.7448C40.2082 24.9478 39.1272 24.5 38 24.5Z" fill="#374957"/>
<path d="M50.75 16C49.6228 16 48.5418 16.4478 47.7448 17.2448C46.9478 18.0418 46.5 19.1228 46.5 20.25V45.75C46.5 46.8772 46.9478 47.9582 47.7448 48.7552C48.5418 49.5522 49.6228 50 50.75 50C51.8772 50 52.9582 49.5522 53.7552 48.7552C54.5522 47.9582 55 46.8772 55 45.75V20.25C55 19.1228 54.5522 18.0418 53.7552 17.2448C52.9582 16.4478 51.8772 16 50.75 16V16Z" fill="#374957"/>
<path d="M25.25 33C24.1228 33 23.0418 33.4478 22.2448 34.2448C21.4478 35.0418 21 36.1228 21 37.25V45.75C21 46.8772 21.4478 47.9582 22.2448 48.7552C23.0418 49.5522 24.1228 50 25.25 50C26.3772 50 27.4582 49.5522 28.2552 48.7552C29.0522 47.9582 29.5 46.8772 29.5 45.75V37.25C29.5 36.1228 29.0522 35.0418 28.2552 34.2448C27.4582 33.4478 26.3772 33 25.25 33Z" fill="#374957"/>
</g>
<defs>
<clipPath id="clip0_2407_533">
<rect width="34" height="34" fill="white" transform="translate(21 16)"/>
</clipPath>
</defs>
</svg>
