<svg width="32" height="32" viewBox="0 0 32 32" fill="none" xmlns="http://www.w3.org/2000/svg">
<g clip-path="url(#clip0_1134_1269)">
<path d="M16 32C7.17733 32 0 24.8227 0 16C0 7.17733 7.17733 0 16 0C24.8227 0 32 7.17733 32 16C32 24.8227 24.8227 32 16 32ZM16 2C8.28 2 2 8.28 2 16C2 23.72 8.28 30 16 30C23.72 30 30 23.72 30 16C30 8.28 23.72 2 16 2Z" fill="#EDC73A"/>
<path d="M9.33317 14.7533C7.8625 14.7533 6.6665 13.5573 6.6665 12.0866C6.6665 10.6159 7.8625 9.41992 9.33317 9.41992C10.8038 9.41992 11.9998 10.6159 11.9998 12.0866C11.9998 13.5573 10.8038 14.7533 9.33317 14.7533ZM9.33317 11.4199C8.96517 11.4199 8.6665 11.7186 8.6665 12.0866C8.6665 12.4546 8.96517 12.7533 9.33317 12.7533C9.70117 12.7533 9.99984 12.4546 9.99984 12.0866C9.99984 11.7186 9.70117 11.4199 9.33317 11.4199Z" fill="#EDC73A"/>
<path d="M22.6667 14.7533C21.196 14.7533 20 13.5573 20 12.0866C20 10.6159 21.196 9.41992 22.6667 9.41992C24.1373 9.41992 25.3333 10.6159 25.3333 12.0866C25.3333 13.5573 24.1373 14.7533 22.6667 14.7533ZM22.6667 11.4199C22.2987 11.4199 22 11.7186 22 12.0866C22 12.4546 22.2987 12.7533 22.6667 12.7533C23.0347 12.7533 23.3333 12.4546 23.3333 12.0866C23.3333 11.7186 23.0347 11.4199 22.6667 11.4199Z" fill="#EDC73A"/>
<path d="M20.3332 24H11.6665C11.1145 24 10.6665 23.552 10.6665 23C10.6665 22.448 11.1145 22 11.6665 22H20.3332C20.8852 22 21.3332 22.448 21.3332 23C21.3332 23.552 20.8852 24 20.3332 24Z" fill="#EDC73A"/>
</g>
<defs>
<clipPath id="clip0_1134_1269">
<rect width="32" height="32" fill="white"/>
</clipPath>
</defs>
</svg>
