<svg width="24" height="24" viewBox="0 0 24 24" fill="none" xmlns="http://www.w3.org/2000/svg">
<mask id="mask0_362_1645" style="mask-type:luminance" maskUnits="userSpaceOnUse" x="0" y="0" width="24" height="24">
<path d="M0 1.90735e-06H24V24H0V1.90735e-06Z" fill="white"/>
</mask>
<g mask="url(#mask0_362_1645)">
<path d="M14.8125 20.4375H0.703125V9.1875H14.8125V20.4375Z" stroke="#E8EDEF" stroke-width="1.5" stroke-miterlimit="10"/>
<path d="M0.703125 12H14.8125" stroke="#E8EDEF" stroke-width="1.5" stroke-miterlimit="10"/>
</g>
<path d="M5.625 14.8125H12.7031" stroke="#E8EDEF" stroke-width="1.5" stroke-miterlimit="10"/>
<path d="M5.625 17.625H12.7031" stroke="#E8EDEF" stroke-width="1.5" stroke-miterlimit="10"/>
<mask id="mask1_362_1645" style="mask-type:luminance" maskUnits="userSpaceOnUse" x="0" y="0" width="24" height="24">
<path d="M0 1.90735e-06H24V24H0V1.90735e-06Z" fill="white"/>
</mask>
<g mask="url(#mask1_362_1645)">
<path d="M9.1875 9.1875V3.5625H23.2969V14.8125H14.8125" stroke="#E8EDEF" stroke-width="1.5" stroke-miterlimit="10"/>
<path d="M9.1875 6.375H23.2969" stroke="#E8EDEF" stroke-width="1.5" stroke-miterlimit="10"/>
<path d="M3.5625 6.375V0.703125H16.2188V3.5625" stroke="#E8EDEF" stroke-width="1.5" stroke-miterlimit="10"/>
<path d="M1.45312 4.26562L3.5625 6.375L5.67188 4.26562" stroke="#E8EDEF" stroke-width="1.5" stroke-miterlimit="10"/>
<path d="M20.4375 17.625V23.2969H7.78125V20.4375" stroke="#E8EDEF" stroke-width="1.5" stroke-miterlimit="10"/>
<path d="M22.5469 19.7344L20.4375 17.625L18.3281 19.7344" stroke="#E8EDEF" stroke-width="1.5" stroke-miterlimit="10"/>
</g>
<path d="M2.8125 14.8125H4.21875" stroke="#E8EDEF" stroke-width="1.5" stroke-miterlimit="10"/>
<path d="M2.8125 17.625H4.21875" stroke="#E8EDEF" stroke-width="1.5" stroke-miterlimit="10"/>
</svg>
