<svg width="24" height="24" viewBox="0 0 24 24" fill="none" xmlns="http://www.w3.org/2000/svg">
<g clip-path="url(#clip0_3892_3776)">
<path d="M3.45752 8.61642L6.44889 5.625" stroke="#E8EDEF" stroke-width="1.5" stroke-miterlimit="10"/>
<path d="M3.45752 5.625L6.44889 8.61642" stroke="#E8EDEF" stroke-width="1.5" stroke-miterlimit="10"/>
<path d="M14.5387 6.72984L15.889 8.08017L17.934 6.03516" stroke="#E8EDEF" stroke-width="1.5" stroke-miterlimit="10"/>
<path d="M14.1211 11.2949H21.1963" stroke="#E8EDEF" stroke-width="1.5" stroke-miterlimit="10"/>
<path d="M14.1211 14.1191H19.7637" stroke="#E8EDEF" stroke-width="1.5" stroke-miterlimit="10"/>
<path d="M9.87891 11.2949H2.82422" stroke="#E8EDEF" stroke-width="1.5" stroke-miterlimit="10"/>
<path d="M8.4668 14.1191H2.82422" stroke="#E8EDEF" stroke-width="1.5" stroke-miterlimit="10"/>
<path d="M0.703125 16.9434H10.5879C11.3678 16.9434 12 17.5756 12 18.3555C12 17.5756 12.6322 16.9434 13.4121 16.9434H23.2969V19.7676H13.4121C13.4174 20.5252 12.7762 21.1783 12 21.1797C11.2201 21.1797 10.5879 20.5475 10.5879 19.7676H0.703125V16.9434Z" stroke="#E8EDEF" stroke-width="1.5" stroke-miterlimit="10"/>
<path d="M0.703125 16.9434V2.82227H10.5879C11.3678 2.82227 12 3.45447 12 4.23438C12 3.45447 12.6322 2.82227 13.4121 2.82227H23.2969V16.9434" stroke="#E8EDEF" stroke-width="1.5" stroke-miterlimit="10"/>
<path d="M12 18.3535V4.23242" stroke="#E8EDEF" stroke-width="1.5" stroke-miterlimit="10"/>
</g>
<defs>
<clipPath id="clip0_3892_3776">
<rect width="24" height="24" fill="white"/>
</clipPath>
</defs>
</svg>
