<svg width="20" height="14" viewBox="0 0 20 14" fill="none" xmlns="http://www.w3.org/2000/svg">
<path d="M15.4545 6.125H13.6364C13.3788 6.125 13.1627 6.041 12.9882 5.873C12.8136 5.705 12.7267 5.49733 12.7273 5.25C12.7273 5.00208 12.8145 4.79412 12.9891 4.62612C13.1636 4.45812 13.3794 4.37442 13.6364 4.375H15.4545V2.625C15.4545 2.37708 15.5418 2.16912 15.7164 2.00112C15.8909 1.83312 16.1067 1.74942 16.3636 1.75C16.6212 1.75 16.8373 1.834 17.0118 2.002C17.1864 2.17 17.2733 2.37767 17.2727 2.625V4.375H19.0909C19.3485 4.375 19.5645 4.459 19.7391 4.627C19.9136 4.795 20.0006 5.00267 20 5.25C20 5.49792 19.9127 5.70587 19.7382 5.87387C19.5636 6.04187 19.3479 6.12558 19.0909 6.125H17.2727V7.875C17.2727 8.12292 17.1855 8.33087 17.0109 8.49887C16.8364 8.66687 16.6206 8.75058 16.3636 8.75C16.1061 8.75 15.89 8.666 15.7155 8.498C15.5409 8.33 15.4539 8.12233 15.4545 7.875V6.125ZM7.27273 7C6.27273 7 5.41667 6.65729 4.70455 5.97187C3.99243 5.28646 3.63636 4.4625 3.63636 3.5C3.63636 2.5375 3.99243 1.71354 4.70455 1.02813C5.41667 0.342708 6.27273 0 7.27273 0C8.27273 0 9.12879 0.342708 9.84091 1.02813C10.553 1.71354 10.9091 2.5375 10.9091 3.5C10.9091 4.4625 10.553 5.28646 9.84091 5.97187C9.12879 6.65729 8.27273 7 7.27273 7ZM1.54345e-06 12.25V11.55C1.54345e-06 11.0542 0.132729 10.5983 0.398183 10.1824C0.663638 9.76646 1.01576 9.44942 1.45455 9.23125C2.39394 8.77917 3.34849 8.43996 4.31818 8.21362C5.28788 7.98729 6.27273 7.87442 7.27273 7.875C8.27273 7.875 9.25758 7.98817 10.2273 8.2145C11.197 8.44083 12.1515 8.77975 13.0909 9.23125C13.5303 9.45 13.8827 9.76733 14.1482 10.1832C14.4136 10.5992 14.5461 11.0547 14.5455 11.55V12.25C14.5455 12.7312 14.3673 13.1434 14.0109 13.4864C13.6545 13.8294 13.2267 14.0006 12.7273 14H1.81818C1.31818 14 0.890001 13.8285 0.533638 13.4855C0.177274 13.1425 -0.000604517 12.7307 1.54345e-06 12.25ZM1.81818 12.25H12.7273V11.55C12.7273 11.3896 12.6855 11.2437 12.6018 11.1125C12.5182 10.9812 12.4085 10.8792 12.2727 10.8062C11.4545 10.4125 10.6288 10.1173 9.79545 9.92075C8.96212 9.72417 8.12121 9.62558 7.27273 9.625C6.42424 9.625 5.58333 9.72358 4.75 9.92075C3.91667 10.1179 3.09091 10.4131 2.27273 10.8062C2.13636 10.8792 2.02636 10.9812 1.94273 11.1125C1.85909 11.2437 1.81758 11.3896 1.81818 11.55V12.25ZM7.27273 5.25C7.77273 5.25 8.20091 5.0785 8.55727 4.7355C8.91364 4.3925 9.09151 3.98067 9.09091 3.5C9.09091 3.01875 8.91273 2.60662 8.55636 2.26362C8.2 1.92062 7.77212 1.74942 7.27273 1.75C6.77273 1.75 6.34455 1.9215 5.98818 2.2645C5.63182 2.6075 5.45394 3.01933 5.45455 3.5C5.45455 3.98125 5.63273 4.39337 5.98909 4.73637C6.34545 5.07937 6.77333 5.25058 7.27273 5.25Z" fill="#EFEEEE"/>
</svg>
