<svg width="107" height="107" viewBox="0 0 107 107" fill="none" xmlns="http://www.w3.org/2000/svg">
<path d="M66.0388 53.5C65.6041 53.5 65.136 53.4331 64.7013 53.2994C63.8698 53.0185 63.1478 52.483 62.6376 51.7688C62.1275 51.0546 61.8551 50.198 61.8591 49.3203V43.4353C57.1778 43.0006 53.4997 39.055 53.4997 34.2734V22.5703C53.4997 17.4878 57.6125 13.375 62.6951 13.375H84.4296C89.5122 13.375 93.625 17.4878 93.625 22.5703V34.2734C93.625 39.3559 89.5122 43.4688 84.4296 43.4688H75.6689L69.3826 51.8281C68.5801 52.8981 67.3429 53.5 66.0388 53.5ZM62.6951 18.3906C60.3879 18.3906 58.5153 20.2631 58.5153 22.5703V34.2734C58.5153 36.5806 60.3879 38.4531 62.6951 38.4531H66.8748V46.8125L73.1611 38.4531H84.4631C86.7703 38.4531 88.6428 36.5806 88.6428 34.2734V22.5703C88.6428 20.2631 86.7703 18.3906 84.4631 18.3906H62.6951ZM38.4527 61.8594C34.6864 61.8505 31.0769 60.3505 28.4137 57.6873C25.7505 55.0242 24.2505 51.4147 24.2416 47.6484C24.2505 43.8822 25.7505 40.2727 28.4137 37.6095C31.0769 34.9464 34.6864 33.4463 38.4527 33.4375C42.219 33.4463 45.8285 34.9464 48.4917 37.6095C51.1548 40.2727 52.6549 43.8822 52.6637 47.6484C52.6549 51.4147 51.1548 55.0242 48.4917 57.6873C45.8285 60.3505 42.219 61.8505 38.4527 61.8594ZM38.4527 38.4531C33.3701 38.4531 29.2573 42.5659 29.2573 47.6484C29.2573 52.7309 33.3701 56.8438 38.4527 56.8438C43.5352 56.8438 47.6481 52.7309 47.6481 47.6484C47.6481 42.5659 43.5352 38.4531 38.4527 38.4531ZM18.293 86.67C22.6734 91.2844 29.4613 93.625 38.456 93.625C47.4508 93.625 54.2387 91.2844 58.619 86.67C63.7082 81.2866 63.5444 74.7897 63.5343 74.3516V74.3316C63.5343 70.2188 60.1906 66.875 56.0777 66.875H20.8343C16.7215 66.875 13.3777 70.2188 13.3777 74.1978V74.2413C13.3643 74.8766 13.2373 81.32 18.293 86.67ZM18.3934 74.3316C18.3934 72.9941 19.4968 71.8906 20.8343 71.8906H56.0777C57.4152 71.8906 58.5187 72.9941 58.5187 74.4653V74.472C58.4472 77.7252 57.1862 80.8394 54.9743 83.2259C51.5971 86.8037 45.9795 88.6094 38.456 88.6094C30.9325 88.6094 25.4153 86.8372 22.0046 83.2928C19.7031 80.8897 18.4107 77.6957 18.3934 74.3683V74.3316Z" fill="#DEDEDE"/>
</svg>
