<svg width="352" height="227" viewBox="0 0 352 227" fill="none" xmlns="http://www.w3.org/2000/svg">
<path d="M287.881 213.5H9.85075C5.80075 213.5 2.60075 210.19 2.74075 206.14L9.32075 7.35999C9.45075 3.30999 12.8707 0 16.9207 0H294.961C299.011 0 302.211 3.30999 302.071 7.35999L295.491 206.14C295.351 210.19 291.931 213.5 287.881 213.5Z" fill="#E0E0E0"/>
<g opacity="0.6">
<path d="M285.609 213.5H7.57927C3.52927 213.5 0.329268 210.19 0.469268 206.14L7.04927 7.35999C7.17927 3.30999 10.5993 0 14.6493 0H292.689C296.739 0 299.939 3.30999 299.799 7.35999L293.219 206.14C293.079 210.19 289.659 213.5 285.609 213.5Z" fill="#FAFAFA"/>
</g>
<path d="M8.18942 213.27H343.826C347.324 213.27 350.353 216.36 351.752 220.785C352.552 223.33 351.322 226.27 349.433 226.27H2.57199C0.672882 226.27 -0.55658 223.33 0.253052 220.785C1.6524 216.36 4.69101 213.27 8.18942 213.27Z" fill="#E0E0E0"/>
<path opacity="0.6" d="M343.816 213.27H76.1686C72.6727 213.27 69.6462 216.36 68.2478 220.785C67.4488 223.33 68.6773 226.27 70.5652 226.27H349.43C351.328 226.27 352.556 223.33 351.747 220.785C350.349 216.36 347.312 213.27 343.816 213.27Z" fill="#FAFAFA"/>
<path opacity="0.3" d="M106.41 218.59H36.7001C34.9801 218.59 33.5801 220 33.5801 221.71H109.54C109.53 220 108.13 218.59 106.41 218.59Z" fill="#E0E0E0"/>
<path opacity="0.9" d="M7.09911 198.95L13.1991 14.5497C13.2491 12.9697 14.5791 11.6797 16.1591 11.6797H290.369C291.949 11.6797 293.189 12.9697 293.139 14.5497L287.039 198.95C286.989 200.53 285.659 201.82 284.079 201.82H9.86909C8.29909 201.82 7.04911 200.53 7.09911 198.95Z" fill="white"/>
<path d="M14.3694 191.111L19.9594 22.1714C20.0194 20.2314 21.6094 18.6914 23.5494 18.6914H282.299C284.329 18.6914 285.959 20.3714 285.889 22.4014L280.299 191.341C280.239 193.281 278.649 194.821 276.709 194.821H17.9594C15.9294 194.821 14.2994 193.141 14.3694 191.111Z" fill="#F0F0F0"/>
<path d="M225.441 201.831H270.901L218.511 11.6914H173.061L225.441 201.831Z" fill="white"/>
<path d="M196.49 201.831H212.84L160.46 11.6914H144.1L196.49 201.831Z" fill="white"/>
<path d="M103.41 201.831H119.77L67.3795 11.6914H51.0195L103.41 201.831Z" fill="white"/>
<path opacity="0.4" d="M155.61 120.519C155.57 121.709 154.57 122.679 153.38 122.679C152.19 122.679 151.26 121.709 151.29 120.519C151.33 119.329 152.33 118.359 153.52 118.359C154.72 118.359 155.65 119.329 155.61 120.519Z" fill="white"/>
<path opacity="0.1" d="M170.217 134.93C145.236 109.949 145.236 69.4579 170.212 44.4822C195.193 19.5007 235.684 19.5007 260.665 44.4822C285.635 69.4522 285.635 109.949 260.659 134.93C235.689 159.906 195.193 159.906 170.217 134.93Z" fill="#EF018F"/>
<path d="M308.123 170.78C307.861 169.513 307.353 168.498 306.668 167.653C305.19 166.078 303.616 164.595 302.063 163.094C300.5 161.599 298.925 160.121 297.316 158.683C295.724 157.222 294.086 155.802 292.454 154.386C289.156 151.573 285.778 148.846 282.28 146.238C280.683 145.057 279.062 143.893 277.413 142.763C278.178 140.669 277.727 138.232 276.049 136.549L273.647 134.147C273.213 133.713 272.734 133.365 272.22 133.097C293.675 105.085 291.598 64.8287 265.972 39.1968C238.069 11.2938 192.825 11.2938 164.922 39.1968C137.019 67.0998 137.031 112.338 164.928 140.241C190.56 165.873 230.817 167.956 258.828 146.489C259.096 147.003 259.45 147.482 259.878 147.916L262.28 150.318C263.964 152.001 266.4 152.446 268.494 151.682C269.624 153.331 270.788 154.951 271.969 156.549C274.577 160.047 277.31 163.425 280.118 166.723C281.539 168.361 282.954 169.998 284.414 171.585C285.858 173.194 287.336 174.775 288.825 176.332C290.332 177.884 291.81 179.459 293.384 180.937C294.223 181.622 295.245 182.135 296.511 182.392C297.795 182.638 299.256 182.7 301.27 182.21C304.449 181.428 307.108 178.946 307.935 175.545C308.432 173.525 308.369 172.058 308.123 170.78ZM168.357 136.794C142.349 110.786 142.349 68.6176 168.352 42.6147C194.36 16.6062 236.529 16.6062 262.537 42.6147C288.54 68.6176 288.54 110.78 262.531 136.794C236.523 162.797 194.36 162.797 168.357 136.794Z" fill="#EF018F"/>
<path opacity="0.2" d="M308.123 170.78C307.861 169.513 307.353 168.498 306.668 167.653C305.19 166.078 303.616 164.595 302.063 163.094C300.5 161.599 298.925 160.121 297.316 158.683C295.724 157.222 294.086 155.802 292.454 154.386C289.156 151.573 285.778 148.846 282.28 146.238C280.683 145.057 279.062 143.893 277.413 142.763C278.178 140.669 277.727 138.232 276.049 136.549L273.647 134.147C273.213 133.713 272.734 133.365 272.22 133.097C293.675 105.085 291.598 64.8287 265.972 39.1968C238.069 11.2938 192.825 11.2938 164.922 39.1968C137.019 67.0998 137.031 112.338 164.928 140.241C190.56 165.873 230.817 167.956 258.828 146.489C259.096 147.003 259.45 147.482 259.878 147.916L262.28 150.318C263.964 152.001 266.4 152.446 268.494 151.682C269.624 153.331 270.788 154.951 271.969 156.549C274.577 160.047 277.31 163.425 280.118 166.723C281.539 168.361 282.954 169.998 284.414 171.585C285.858 173.194 287.336 174.775 288.825 176.332C290.332 177.884 291.81 179.459 293.384 180.937C294.223 181.622 295.245 182.135 296.511 182.392C297.795 182.638 299.256 182.7 301.27 182.21C304.449 181.428 307.108 178.946 307.935 175.545C308.432 173.525 308.369 172.058 308.123 170.78ZM168.357 136.794C142.349 110.786 142.349 68.6176 168.352 42.6147C194.36 16.6062 236.529 16.6062 262.537 42.6147C288.54 68.6176 288.54 110.78 262.531 136.794C236.523 162.797 194.36 162.797 168.357 136.794Z" fill="#EF018F"/>
<path opacity="0.3" d="M268.494 151.669L277.413 142.75C277.407 142.756 275.039 149.54 268.494 151.669Z" fill="#EF018F"/>
</svg>
