<svg width="17" height="16" viewBox="0 0 17 16" fill="none" xmlns="http://www.w3.org/2000/svg">
<path d="M16.1801 15.9999H12.8201V14.1999C12.827 13.57 12.7085 12.945 12.4716 12.3613C12.2347 11.7776 11.8841 11.2468 11.4401 10.7999C11.016 10.3385 10.4992 9.97173 9.92372 9.7236C9.34819 9.47546 8.72679 9.35153 8.10011 9.35988C7.47101 9.34964 6.84677 9.47163 6.26781 9.71797C5.68886 9.9643 5.16809 10.3295 4.73924 10.7899C4.2937 11.2377 3.94218 11.77 3.70534 12.3556C3.4685 12.9412 3.35113 13.5683 3.36011 14.1999V15.9999H0.000110324V14.1999C-0.00561885 12.9444 0.292737 11.7062 0.869676 10.5912C1.44532 9.46904 2.27812 8.49888 3.30011 7.75988C2.28013 7.02337 1.44759 6.05739 0.869676 4.93988C0.291863 3.82827 -0.00658842 2.59268 0.000110324 1.33988V0.239883H3.36011V1.33988C3.35113 1.9715 3.4685 2.59854 3.70534 3.18414C3.94218 3.76975 4.2937 4.30209 4.73924 4.74988C5.16799 5.21017 5.68862 5.57529 6.26741 5.82162C6.84621 6.06796 7.47029 6.19001 8.09924 6.17988C8.72614 6.18825 9.34774 6.06424 9.92343 5.81595C10.4991 5.56766 11.0159 5.20069 11.4401 4.73901C11.8841 4.29208 12.2347 3.76133 12.4716 3.17762C12.7085 2.59392 12.827 1.96893 12.8201 1.33901V0.239014H16.1801V1.33901C16.1868 2.59181 15.8884 3.8274 15.3105 4.93901C14.736 6.05266 13.9111 7.01793 12.9005 7.75901C13.9148 8.50435 14.7402 9.47703 15.3105 10.599C15.8854 11.7117 16.1837 12.9466 16.1801 14.199V15.9999Z" fill="white"/>
</svg>
