<svg width="1617" height="1078" viewBox="0 0 1617 1078" fill="none" xmlns="http://www.w3.org/2000/svg">
<g clip-path="url(#clip0_184_93774)">
<path d="M898.33 538.997H718.669C817.899 538.997 898.33 619.429 898.33 718.659V538.997Z" fill="#A7B1B8"/>
<path d="M538.996 718.665H359.334C458.565 718.665 538.996 799.096 538.996 898.327V718.665Z" fill="#000759"/>
<path d="M179.662 898.332H0C99.23 898.332 179.662 978.764 179.662 1077.99V898.332Z" fill="#000759"/>
<path d="M179.662 179.668H0C99.23 179.668 179.662 260.099 179.662 359.329V179.668Z" fill="#A7B1B8"/>
<path d="M898.336 718.665H1078C978.768 718.665 898.336 799.096 898.336 898.327V718.665Z" fill="#02ADEE"/>
<path d="M539.002 898.332H718.664C619.434 898.332 539.002 978.764 539.002 1077.99V898.332Z" fill="#02ADEE"/>
<path d="M179.667 359.335H359.329C260.099 359.335 179.667 439.767 179.667 538.997V359.335Z" fill="#02ADEE"/>
<path d="M0 898.332C99.2243 898.332 179.667 978.77 179.667 1078H0V898.332Z" fill="#EF018F"/>
<path d="M0 718.665C0 619.44 80.4373 538.997 179.667 538.997V718.665H0Z" fill="#D1D3D4"/>
<path d="M91.7842 718.665H179.667V806.548C131.114 806.548 91.7842 767.219 91.7842 718.665Z" fill="#000759"/>
<path d="M22.9458 718.665H91.7839C91.7839 767.219 131.113 806.548 179.667 806.548V875.386C93.1147 875.386 22.9458 805.217 22.9458 718.665Z" fill="#EF018F"/>
<path d="M0 718.665H22.946C22.946 805.217 93.1149 875.386 179.667 875.386V898.332C80.4487 898.332 0 817.884 0 718.665Z" fill="#FCCA46"/>
<path d="M91.7842 0H179.667V87.8834C131.114 87.8834 91.7842 48.5539 91.7842 0Z" fill="#A7B1B8"/>
<path d="M22.9458 0H91.7839C91.7839 48.5539 131.113 87.8834 179.667 87.8834V156.722C93.1147 156.722 22.9458 86.5525 22.9458 0Z" fill="#FFCCAB"/>
<path d="M0 0H22.946C22.946 86.5525 93.1149 156.722 179.667 156.722V179.668C80.4487 179.668 0 99.2188 0 0Z" fill="#FEEAB5"/>
<path d="M359.334 718.665C458.559 718.665 539.002 799.102 539.002 898.332H359.334V718.665Z" fill="#EF018F"/>
<path d="M359.335 1077.99C260.11 1077.99 179.667 997.557 179.667 898.327H359.335V1077.99Z" fill="#FCCA46"/>
<path d="M359.334 538.997C359.334 439.773 439.772 359.33 539.002 359.33V538.997H359.334Z" fill="#D1D3D4"/>
<path d="M359.335 538.997C359.335 638.222 278.898 718.665 179.667 718.665V538.997H359.335Z" fill="#02ADEE"/>
<path d="M267.551 898.332H179.667V810.449C228.221 810.449 267.551 849.779 267.551 898.332Z" fill="#000759"/>
<path d="M336.389 898.332H267.551C267.551 849.779 228.221 810.449 179.667 810.449V741.611C266.22 741.611 336.389 811.78 336.389 898.332Z" fill="#EF018F"/>
<path d="M359.335 898.332H336.389C336.389 811.78 266.22 741.611 179.667 741.611V718.665C278.886 718.665 359.335 799.114 359.335 898.332Z" fill="#FCCA46"/>
<path d="M451.119 538.997H539.002V626.881C490.448 626.881 451.119 587.551 451.119 538.997Z" fill="#000759"/>
<path d="M382.281 538.997H451.119C451.119 587.551 490.448 626.881 539.002 626.881V695.719C452.45 695.719 382.281 625.55 382.281 538.997Z" fill="#EF018F"/>
<path d="M359.334 538.997H382.28C382.28 625.55 452.449 695.719 539.002 695.719V718.665C439.783 718.665 359.334 638.216 359.334 538.997Z" fill="#FCCA46"/>
<path d="M359.334 986.216V898.332H447.218C447.218 946.886 407.888 986.216 359.334 986.216Z" fill="#000759"/>
<path d="M359.334 1055.05V986.216C407.888 986.216 447.218 946.886 447.218 898.332H516.056C516.056 984.885 445.887 1055.05 359.334 1055.05Z" fill="#D1D3D4"/>
<path d="M359.334 1078V1055.05C445.887 1055.05 516.056 984.885 516.056 898.332H539.002C539.002 997.551 458.553 1078 359.334 1078Z" fill="#02ADEE"/>
<path d="M718.669 1077.99C718.669 978.77 799.106 898.327 898.336 898.327V1077.99H718.669Z" fill="#D1D3D4"/>
<path d="M718.669 990.117V1078H630.786C630.786 1029.45 670.116 990.117 718.669 990.117Z" fill="#000759"/>
<path d="M718.669 921.279V990.117C670.115 990.117 630.786 1029.45 630.786 1078H561.948C561.948 991.448 632.117 921.279 718.669 921.279Z" fill="#D1D3D4"/>
<path d="M718.669 898.332V921.278C632.117 921.278 561.948 991.447 561.948 1078H539.002C539.002 978.781 619.451 898.332 718.669 898.332Z" fill="#EF018F"/>
<path d="M718.664 538.997C817.888 538.997 898.331 619.435 898.331 718.665H718.664V538.997Z" fill="#EF018F"/>
<path d="M718.663 898.332C619.439 898.332 538.996 817.895 538.996 718.665H718.663V898.332Z" fill="#FCCA46"/>
<path d="M626.879 718.665H538.996V630.781C587.55 630.781 626.879 670.111 626.879 718.665Z" fill="#000759"/>
<path d="M695.717 718.665H626.879C626.879 670.111 587.55 630.781 538.996 630.781V561.943C625.548 561.943 695.717 632.112 695.717 718.665Z" fill="#EF018F"/>
<path d="M718.663 718.665H695.717C695.717 632.112 625.548 561.943 538.996 561.943V538.997C638.215 538.997 718.663 619.446 718.663 718.665Z" fill="#FCCA46"/>
<path d="M718.664 806.548V718.665H806.547C806.547 767.219 767.217 806.548 718.664 806.548Z" fill="#000759"/>
<path d="M718.664 875.386V806.548C767.217 806.548 806.547 767.219 806.547 718.665H875.385C875.385 805.217 805.216 875.386 718.664 875.386Z" fill="#D1D3D4"/>
<path d="M718.664 898.332V875.386C805.216 875.386 875.385 805.217 875.385 718.665H898.331C898.331 817.884 817.882 898.332 718.664 898.332Z" fill="#02ADEE"/>
<path d="M1078 626.881V538.997H1165.89C1165.89 587.551 1126.56 626.881 1078 626.881Z" fill="#A7B1B8"/>
<path d="M1078 695.719V626.881C1126.56 626.881 1165.89 587.551 1165.89 538.997H1234.73C1234.73 625.55 1164.56 695.719 1078 695.719Z" fill="#EDEDEE"/>
<path d="M1078 718.665V695.719C1164.56 695.719 1234.73 625.55 1234.73 538.997H1257.67C1257.67 638.216 1177.22 718.665 1078 718.665Z" fill="#C0D7D0"/>
<path d="M357.384 267.551V179.668H445.268C445.268 228.221 405.938 267.551 357.384 267.551Z" fill="#A7B1B8"/>
<path d="M357.384 336.389V267.551C405.938 267.551 445.268 228.221 445.268 179.668H514.106C514.106 266.22 443.937 336.389 357.384 336.389Z" fill="#EDEDEE"/>
<path d="M357.384 359.335V336.389C443.937 336.389 514.106 266.22 514.106 179.668H537.052C537.052 278.886 456.603 359.335 357.384 359.335Z" fill="#C0D7D0"/>
<path d="M1437.33 898.332C1536.56 898.332 1617 978.77 1617 1078H1437.33V898.332Z" fill="#EF018F"/>
<path d="M1345.55 1078H1257.67V990.117C1306.22 990.117 1345.55 1029.45 1345.55 1078Z" fill="#000759"/>
<path d="M1414.39 1078H1345.55C1345.55 1029.45 1306.22 990.117 1257.67 990.117V921.279C1344.22 921.279 1414.39 991.448 1414.39 1078Z" fill="#EF018F"/>
<path d="M1437.33 1078H1414.39C1414.39 991.447 1344.22 921.278 1257.67 921.278V898.332C1356.88 898.332 1437.33 978.781 1437.33 1078Z" fill="#FCCA46"/>
<path d="M359.334 451.114V538.997H271.451C271.451 490.443 310.781 451.114 359.334 451.114Z" fill="#000759"/>
<path d="M359.335 382.276V451.114C310.781 451.114 271.451 490.443 271.451 538.997H202.613C202.613 452.445 272.782 382.276 359.335 382.276Z" fill="#D1D3D4"/>
<path d="M359.335 359.33V382.276C272.782 382.276 202.613 452.445 202.613 538.997H179.667C179.667 439.778 260.116 359.33 359.335 359.33Z" fill="#EF018F"/>
<path d="M1078 898.332C1078 799.108 1158.44 718.665 1257.67 718.665V898.332H1078Z" fill="#D1D3D4"/>
<path d="M1078 898.332C1078 997.557 997.561 1078 898.331 1078V898.332H1078Z" fill="#02ADEE"/>
<path d="M1437.33 718.665C1437.33 817.889 1356.9 898.332 1257.67 898.332V718.665H1437.33Z" fill="#FEEAB5"/>
<path d="M718.663 359.335C718.663 458.56 638.226 539.003 538.996 539.003V359.335H718.663Z" fill="#FEEAB5"/>
<path d="M1169.78 898.332H1257.67V986.216C1209.11 986.216 1169.78 946.886 1169.78 898.332Z" fill="#000759"/>
<path d="M1100.94 898.332H1169.78C1169.78 946.886 1209.11 986.216 1257.67 986.216V1055.05C1171.11 1055.05 1100.94 984.885 1100.94 898.332Z" fill="#EF018F"/>
<path d="M1078 898.332H1100.94C1100.94 984.885 1171.11 1055.05 1257.67 1055.05V1078C1158.45 1078 1078 997.551 1078 898.332Z" fill="#FCCA46"/>
<path d="M1078 810.449V898.332H990.121C990.121 849.779 1029.45 810.449 1078 810.449Z" fill="#000759"/>
<path d="M1078 741.611V810.449C1029.45 810.449 990.121 849.779 990.121 898.332H921.283C921.283 811.78 991.452 741.611 1078 741.611Z" fill="#D1D3D4"/>
<path d="M1078 718.665V741.611C991.451 741.611 921.282 811.78 921.282 898.332H898.336C898.336 799.114 978.785 718.665 1078 718.665Z" fill="#EF018F"/>
<path d="M0 179.668C99.2243 179.668 179.667 260.105 179.667 359.335H0V179.668Z" fill="#EF018F"/>
<path d="M0 447.213V359.33H87.8832C87.8832 407.883 48.5538 447.213 0 447.213Z" fill="#000759"/>
<path d="M0 516.051V447.213C48.5538 447.213 87.8832 407.883 87.8832 359.33H156.721C156.721 445.882 86.5524 516.051 0 516.051Z" fill="#D1D3D4"/>
<path d="M0 538.997V516.051C86.5524 516.051 156.721 445.882 156.721 359.33H179.667C179.667 458.548 99.2186 538.997 0 538.997Z" fill="#02ADEE"/>
</g>
<defs>
<clipPath id="clip0_184_93774">
<rect width="1617" height="1078" fill="white"/>
</clipPath>
</defs>
</svg>
