<svg width="24" height="24" viewBox="0 0 24 24" fill="none" xmlns="http://www.w3.org/2000/svg">
<rect width="24" height="24" fill="white"/>
<path d="M15.309 6.3125H8.694C7.18465 6.31171 5.73681 6.91053 4.66898 7.97723C3.60115 9.04394 3.0008 10.4912 3 12.0005C2.99921 13.5098 3.59803 14.9577 4.66473 16.0255C5.73144 17.0934 7.17865 17.6937 8.688 17.6945H15.309C16.8183 17.6945 18.2659 17.0949 19.3331 16.0276C20.4004 14.9604 21 13.5128 21 12.0035C21 10.4942 20.4004 9.04663 19.3331 7.97936C18.2659 6.91209 16.8183 6.3125 15.309 6.3125ZM15.1642 15.689H8.8395C7.87492 15.6695 6.95641 15.2727 6.28113 14.5837C5.60584 13.8946 5.22761 12.9683 5.22761 12.0035C5.22761 11.0387 5.60584 10.1124 6.28113 9.42335C6.95641 8.7343 7.87492 8.33746 8.8395 8.318H15.1642C16.1417 8.318 17.0791 8.70629 17.7703 9.39746C18.4615 10.0886 18.8497 11.026 18.8497 12.0035C18.8497 12.981 18.4615 13.9184 17.7703 14.6095C17.0791 15.3007 16.1417 15.689 15.1642 15.689Z" fill="black"/>
</svg>
