<svg width="16" height="19" viewBox="0 0 16 19" fill="none" xmlns="http://www.w3.org/2000/svg">
<path d="M5.1875 3.0625C5.78516 3.0625 6.3125 3.58984 6.3125 4.1875V5.3125C6.3125 5.94531 5.78516 6.4375 5.1875 6.4375H4.0625C3.42969 6.4375 2.9375 5.94531 2.9375 5.3125V4.1875C2.9375 3.58984 3.42969 3.0625 4.0625 3.0625H5.1875ZM5.1875 5.3125V4.1875H4.0625V5.3125H5.1875ZM14.75 0.25C15.3477 0.25 15.875 0.777344 15.875 1.375V17.125C15.875 17.7578 15.3477 18.25 14.75 18.25H1.25C0.617188 18.25 0.125 17.7578 0.125 17.125V1.375C0.125 0.777344 0.617188 0.25 1.25 0.25H14.75ZM14.75 17.125V1.375H1.25V17.125H14.75ZM12.2188 8.6875C12.3594 8.6875 12.5 8.82812 12.5 8.96875V9.53125C12.5 9.70703 12.3594 9.8125 12.2188 9.8125H7.71875C7.54297 9.8125 7.4375 9.70703 7.4375 9.53125V8.96875C7.4375 8.82812 7.54297 8.6875 7.71875 8.6875H12.2188ZM5.1875 12.0625C5.78516 12.0625 6.3125 12.5898 6.3125 13.1875V14.3125C6.3125 14.9453 5.78516 15.4375 5.1875 15.4375H4.0625C3.42969 15.4375 2.9375 14.9453 2.9375 14.3125V13.1875C2.9375 12.5898 3.42969 12.0625 4.0625 12.0625H5.1875ZM5.1875 14.3125V13.1875H4.0625V14.3125H5.1875ZM12.2188 13.1875C12.3594 13.1875 12.5 13.3281 12.5 13.4688V14.0312C12.5 14.207 12.3594 14.3125 12.2188 14.3125H7.71875C7.54297 14.3125 7.4375 14.207 7.4375 14.0312V13.4688C7.4375 13.3281 7.54297 13.1875 7.71875 13.1875H12.2188ZM12.2188 4.1875C12.3594 4.1875 12.5 4.32812 12.5 4.46875V5.03125C12.5 5.20703 12.3594 5.3125 12.2188 5.3125H7.71875C7.54297 5.3125 7.4375 5.20703 7.4375 5.03125V4.46875C7.4375 4.32812 7.54297 4.1875 7.71875 4.1875H12.2188ZM5.1875 7.5625C5.78516 7.5625 6.3125 8.08984 6.3125 8.6875V9.8125C6.3125 10.4453 5.78516 10.9375 5.1875 10.9375H4.0625C3.42969 10.9375 2.9375 10.4453 2.9375 9.8125V8.6875C2.9375 8.08984 3.42969 7.5625 4.0625 7.5625H5.1875ZM5.1875 9.8125V8.6875H4.0625V9.8125H5.1875Z" fill="#E8EDEF"/>
</svg>
