<svg width="24" height="24" viewBox="0 0 24 24" fill="none" xmlns="http://www.w3.org/2000/svg">
<path d="M12.7066 2.82373H2.82422V7.05902H12.7066V2.82373ZM11.2948 5.64726H4.23598V4.2355H11.2948V5.64726Z" fill="#E8EDEF"/>
<path d="M2.82422 8.4707H7.05951V9.88247H2.82422V8.4707Z" fill="#E8EDEF"/>
<path d="M2.82422 11.2939H7.05951V12.7057H2.82422V11.2939Z" fill="#E8EDEF"/>
<path d="M2.82422 14.1177H7.05951V15.5294H2.82422V14.1177Z" fill="#E8EDEF"/>
<path d="M2.82422 16.9414H7.05951V18.3532H2.82422V16.9414Z" fill="#E8EDEF"/>
<path d="M2.82422 19.7646H9.17716V21.1764H2.82422V19.7646Z" fill="#E8EDEF"/>
<path d="M23.3552 20.2388L20.9201 17.8037L19.8612 18.8625L18.7799 17.7812C21.0379 14.8365 19.1845 10.4208 15.5299 9.93304V0H0.000488281V24H15.5299V19.7141C16.3659 19.594 17.1349 19.2642 17.7817 18.7794L18.863 19.8608L17.8042 20.9196L20.2393 23.3547C20.6554 23.7708 21.2087 24 21.7972 24C23.7458 24.0045 24.7377 21.6098 23.3552 20.2388ZM1.41225 22.5882V1.41176H14.1181V9.93299C8.50044 10.8717 8.50454 18.7775 14.1181 19.7141V22.5882H1.41225ZM14.824 18.3529C12.8779 18.3529 11.2946 16.7696 11.2946 14.8235C11.4884 10.1413 18.1603 10.1426 18.3534 14.8236C18.3534 16.7696 16.7702 18.3529 14.824 18.3529ZM21.7972 22.5882C21.5858 22.5882 21.387 22.5059 21.2375 22.3564L19.8007 20.9196L20.9201 19.8002L22.3569 21.237C22.8541 21.7261 22.4948 22.5928 21.7972 22.5882Z" fill="#E8EDEF"/>
</svg>
