<svg width="24" height="24" viewBox="0 0 24 24" fill="none" xmlns="http://www.w3.org/2000/svg">
<path d="M12.7059 2.82373H2.82353V7.05902H12.7059V2.82373ZM11.2941 5.64726H4.2353V4.2355H11.2941V5.64726Z" fill="#E8EDEF"/>
<path d="M2.82353 8.4707H7.05883V9.88247H2.82353V8.4707Z" fill="#E8EDEF"/>
<path d="M2.82353 11.2939H7.05883V12.7057H2.82353V11.2939Z" fill="#E8EDEF"/>
<path d="M2.82353 14.1177H7.05883V15.5294H2.82353V14.1177Z" fill="#E8EDEF"/>
<path d="M2.82353 16.9414H7.05883V18.3532H2.82353V16.9414Z" fill="#E8EDEF"/>
<path d="M2.82353 19.7646H9.17647V21.1764H2.82353V19.7646Z" fill="#E8EDEF"/>
<path d="M23.3547 20.2388L20.9196 17.8037L19.8608 18.8625L18.7794 17.7812C21.0374 14.8365 19.184 10.4208 15.5294 9.93304V0H0V24H15.5294V19.7141C16.3654 19.594 17.1344 19.2642 17.7812 18.7794L18.8625 19.8608L17.8037 20.9196L20.2388 23.3547C20.6549 23.7708 21.2082 24 21.7968 24C23.7453 24.0045 24.7372 21.6098 23.3547 20.2388ZM1.41176 22.5882V1.41176H14.1176V9.93299C8.49995 10.8717 8.50405 18.7775 14.1176 19.7141V22.5882H1.41176ZM14.8235 18.3529C12.8774 18.3529 11.2941 16.7696 11.2941 14.8235C11.488 10.1413 18.1598 10.1426 18.3529 14.8236C18.3529 16.7696 16.7697 18.3529 14.8235 18.3529ZM21.7968 22.5882C21.5853 22.5882 21.3865 22.5059 21.237 22.3564L19.8002 20.9196L20.9196 19.8002L22.3564 21.237C22.8536 21.7261 22.4944 22.5928 21.7968 22.5882Z" fill="#E8EDEF"/>
</svg>
