<svg width="76" height="76" viewBox="0 0 76 76" fill="none" xmlns="http://www.w3.org/2000/svg">
<rect width="76" height="76" rx="38" fill="#E7EFFE"/>
<path d="M43.7826 47.3664H25.5703C23.6287 47.3664 22.0547 45.7924 22.0547 43.8508V29.4087C22.0547 27.4671 23.6287 25.8931 25.5703 25.8931H52.4297C54.3713 25.8931 55.9453 27.4671 55.9453 29.4087V43.8508" stroke="#42A5F5" stroke-width="2" stroke-miterlimit="10"/>
<path d="M31.1015 37.9608C33.0123 37.9608 34.5613 36.4117 34.5613 34.5009C34.5613 32.5901 33.0123 31.041 31.1015 31.041C29.1906 31.041 27.6416 32.5901 27.6416 34.5009C27.6416 36.4117 29.1906 37.9608 31.1015 37.9608Z" stroke="#42A5F5" stroke-width="2" stroke-miterlimit="10"/>
<path d="M26.8828 42.2183C26.8828 39.8883 28.7716 37.9995 31.1016 37.9995C33.4315 37.9995 35.3203 39.8883 35.3203 42.2183H26.8828Z" stroke="#42A5F5" stroke-width="2" stroke-miterlimit="10"/>
<path d="M45.0986 32.311H51.1977" stroke="#42A5F5" stroke-width="2" stroke-miterlimit="10"/>
<path d="M39 32.311H42.8627" stroke="#42A5F5" stroke-width="2" stroke-miterlimit="10"/>
<path d="M39 36.6299H49.2068" stroke="#42A5F5" stroke-width="2" stroke-miterlimit="10"/>
<path d="M39 40.9487H43.0781" stroke="#42A5F5" stroke-width="2" stroke-miterlimit="10"/>
<path d="M49.2072 50.1068C52.9288 50.1068 55.9457 47.0899 55.9457 43.3684C55.9457 39.6468 52.9288 36.6299 49.2072 36.6299C45.4857 36.6299 42.4688 39.6468 42.4688 43.3684C42.4688 47.0899 45.4857 50.1068 49.2072 50.1068Z" stroke="#42A5F5" stroke-width="2" stroke-miterlimit="10"/>
<path d="M46.6348 42.824L48.5767 44.6898L51.7539 41.4668" stroke="#42A5F5" stroke-width="2" stroke-miterlimit="10"/>
</svg>
