<svg width="48" height="48" viewBox="0 0 48 48" fill="none" xmlns="http://www.w3.org/2000/svg">
<g clip-path="url(#clip0_6427_20165)">
<path d="M15.5008 9.98244C15.3527 10.1365 15.2319 10.3146 15.1435 10.5091L15.1328 10.4984L0.17818 44.1864L0.192847 44.2011C-0.0844866 44.7384 0.379514 45.8318 1.33018 46.7838C2.28085 47.7344 3.37418 48.1984 3.91151 47.9211L3.92485 47.9344L37.6128 32.9784L37.6022 32.9664C37.7982 32.8731 37.9782 32.7598 38.1288 32.6078C40.2115 30.5251 36.8342 23.7718 30.5875 17.5238C24.3382 11.2758 17.5848 7.89978 15.5008 9.98244Z" fill="#DD2E44"/>
<path d="M17.3328 16L0.55418 43.3413L0.17818 44.188L0.192847 44.2027C-0.0844866 44.74 0.379513 45.8333 1.33018 46.7853C1.63951 47.0947 1.96085 47.3293 2.27551 47.528L22.6662 22.6667L17.3328 16Z" fill="#EA596E"/>
<path d="M30.6826 17.4204C36.9092 23.6498 40.3666 30.2898 38.4012 32.2524C36.4372 34.2178 29.7972 30.7618 23.5666 24.5351C17.3386 18.3058 13.8826 11.6631 15.8466 9.69908C17.8119 7.73509 24.4519 11.1911 30.6826 17.4204Z" fill="#A0041E"/>
<path d="M24.7865 18.1442C24.6505 18.2544 24.4939 18.3366 24.3259 18.3858C24.1579 18.435 23.9818 18.4503 23.8078 18.4308C22.6505 18.3055 21.6771 17.9028 20.9958 17.2668C20.2745 16.5935 19.9185 15.6895 20.0158 14.7842C20.1865 13.1948 21.7811 11.7362 24.4998 12.0295C25.5571 12.1428 26.0291 11.8028 26.0451 11.6402C26.0638 11.4788 25.6758 11.0455 24.6185 10.9308C23.4611 10.8055 22.4878 10.4028 21.8051 9.76682C21.0838 9.09349 20.7265 8.18949 20.8251 7.28415C20.9985 5.69482 22.5918 4.23615 25.3078 4.53082C26.0785 4.61349 26.4851 4.45482 26.6571 4.35215C26.7945 4.26815 26.8491 4.18815 26.8545 4.14149C26.8705 3.98015 26.4878 3.54682 25.4278 3.43215C25.2536 3.41356 25.0848 3.36075 24.9311 3.27678C24.7774 3.1928 24.6418 3.0793 24.532 2.94279C24.4223 2.80628 24.3405 2.64944 24.2915 2.48127C24.2425 2.31311 24.2272 2.13692 24.2465 1.96282C24.2649 1.7887 24.3175 1.61995 24.4014 1.46624C24.4852 1.31253 24.5986 1.17689 24.735 1.06713C24.8714 0.957358 25.0281 0.875617 25.1962 0.826598C25.3643 0.77758 25.5404 0.762249 25.7144 0.781485C28.4304 1.07349 29.6784 2.83749 29.5064 4.42815C29.3331 6.02015 27.7398 7.47615 25.0211 7.18415C24.2505 7.10015 23.8478 7.26015 23.6745 7.36282C23.5371 7.44549 23.4811 7.52682 23.4758 7.57215C23.4585 7.73482 23.8438 8.16682 24.9038 8.28149C27.6198 8.57482 28.8678 10.3375 28.6958 11.9282C28.5238 13.5175 26.9305 14.9762 24.2131 14.6815C23.4425 14.5988 23.0371 14.7588 22.8638 14.8602C22.7251 14.9455 22.6718 15.0255 22.6665 15.0708C22.6491 15.2322 23.0345 15.6655 24.0931 15.7802C24.3553 15.8084 24.6032 15.9138 24.8054 16.083C25.0077 16.2522 25.1553 16.4775 25.2295 16.7305C25.3037 16.9836 25.3012 17.2529 25.2224 17.5045C25.1435 17.7562 24.9918 17.9787 24.7865 18.1442Z" fill="#AA8DD8"/>
<path d="M40.8812 30.4749C43.5119 29.7322 45.3265 30.9055 45.7585 32.4455C46.1905 33.9842 45.2545 35.9322 42.6252 36.6722C41.5985 36.9602 41.2905 37.4509 41.3319 37.6069C41.3772 37.7642 41.8985 38.0229 42.9225 37.7335C45.5519 36.9935 47.3665 38.1669 47.7985 39.7055C48.2332 41.2455 47.2945 43.1909 44.6639 43.9322C43.6385 44.2202 43.3292 44.7122 43.3745 44.8682C43.4185 45.0242 43.9385 45.2829 44.9639 44.9949C45.134 44.9423 45.3129 44.9243 45.4901 44.942C45.6672 44.9596 45.8391 45.0126 45.9954 45.0978C46.1518 45.183 46.2895 45.2986 46.4005 45.4378C46.5114 45.5771 46.5934 45.7371 46.6415 45.9086C46.6896 46.08 46.7028 46.2593 46.6805 46.436C46.6582 46.6126 46.6007 46.783 46.5114 46.9371C46.4222 47.0911 46.3029 47.2258 46.1608 47.333C46.0187 47.4403 45.8565 47.518 45.6839 47.5615C43.0559 48.3015 41.2399 47.1309 40.8052 45.5895C40.3732 44.0509 41.3105 42.1055 43.9425 41.3642C44.9692 41.0749 45.2772 40.5855 45.2319 40.4282C45.1892 40.2722 44.6692 40.0122 43.6452 40.3002C41.0132 41.0415 39.1999 39.8709 38.7665 38.3282C38.3332 36.7895 39.2705 34.8442 41.9012 34.1015C42.9252 33.8149 43.2332 33.3215 43.1905 33.1669C43.1452 33.0095 42.6265 32.7509 41.6012 33.0389C41.4298 33.0966 41.2485 33.1189 41.0683 33.1043C40.888 33.0898 40.7126 33.0387 40.5527 32.9542C40.3928 32.8697 40.2518 32.7536 40.1381 32.6129C40.0245 32.4722 39.9407 32.3099 39.8919 32.1358C39.843 31.9617 39.83 31.7794 39.8538 31.6002C39.8775 31.4209 39.9375 31.2483 40.03 31.093C40.1226 30.9376 40.2458 30.8027 40.3921 30.6964C40.5384 30.5902 40.7048 30.5148 40.8812 30.4749Z" fill="#77B255"/>
<path d="M30.6678 26.8783C30.3917 26.8779 30.1225 26.7919 29.8973 26.6321C29.6721 26.4724 29.502 26.2467 29.4105 25.9862C29.3189 25.7257 29.3104 25.4432 29.3861 25.1777C29.4618 24.9122 29.618 24.6767 29.8331 24.5036C30.1238 24.2703 37.0571 18.8249 46.8558 20.2263C47.0331 20.2463 47.2045 20.3017 47.36 20.3892C47.5154 20.4767 47.6518 20.5946 47.7609 20.7357C47.87 20.8768 47.9497 21.0384 47.9952 21.2109C48.0407 21.3834 48.0512 21.5633 48.0259 21.7399C48.0007 21.9165 47.9402 22.0863 47.8482 22.2391C47.7561 22.3919 47.6343 22.5247 47.4901 22.6296C47.3458 22.7345 47.1819 22.8094 47.0081 22.8498C46.8344 22.8903 46.6542 22.8954 46.4785 22.8649C37.8211 21.6356 31.5625 26.5369 31.5011 26.5863C31.2646 26.7755 30.9707 26.8785 30.6678 26.8783Z" fill="#AA8DD8"/>
<path d="M7.67164 21.3335C7.46381 21.3335 7.25886 21.2849 7.07315 21.1916C6.88743 21.0984 6.72608 20.963 6.60199 20.7963C6.4779 20.6296 6.3945 20.4361 6.35844 20.2315C6.32237 20.0268 6.33466 19.8165 6.3943 19.6175C7.90497 14.5868 9.2743 6.55879 7.59164 4.46545C7.40364 4.22812 7.11964 3.99479 6.46897 4.04412C5.2183 4.14012 5.33697 6.77879 5.3383 6.80545C5.35524 6.9821 5.33674 7.16034 5.2839 7.32974C5.23106 7.49914 5.14493 7.65629 5.03057 7.79198C4.91621 7.92767 4.77592 8.03916 4.61791 8.11993C4.45991 8.20069 4.28737 8.2491 4.11041 8.26233C3.93345 8.27555 3.75563 8.25332 3.58738 8.19693C3.41913 8.14054 3.26382 8.05114 3.13056 7.93396C2.99731 7.81677 2.88878 7.67417 2.81135 7.5145C2.73392 7.35483 2.68914 7.18132 2.67964 7.00412C2.5423 5.16545 3.1143 1.62412 6.26897 1.38545C7.67697 1.27879 8.8463 1.76812 9.67164 2.79479C12.833 6.72945 9.62364 18.1361 8.94897 20.3841C8.86641 20.6587 8.69756 20.8993 8.46747 21.0703C8.23739 21.2413 7.95831 21.3336 7.67164 21.3335Z" fill="#77B255"/>
<path d="M34 14.668C35.1046 14.668 36 13.7725 36 12.668C36 11.5634 35.1046 10.668 34 10.668C32.8954 10.668 32 11.5634 32 12.668C32 13.7725 32.8954 14.668 34 14.668Z" fill="#5C913B"/>
<path d="M2.66667 26.6654C4.13943 26.6654 5.33333 25.4715 5.33333 23.9987C5.33333 22.5259 4.13943 21.332 2.66667 21.332C1.19391 21.332 0 22.5259 0 23.9987C0 25.4715 1.19391 26.6654 2.66667 26.6654Z" fill="#9266CC"/>
<path d="M43.333 28C44.4376 28 45.333 27.1046 45.333 26C45.333 24.8954 44.4376 24 43.333 24C42.2284 24 41.333 24.8954 41.333 26C41.333 27.1046 42.2284 28 43.333 28Z" fill="#5C913B"/>
<path d="M31.333 44C32.4376 44 33.333 43.1046 33.333 42C33.333 40.8954 32.4376 40 31.333 40C30.2284 40 29.333 40.8954 29.333 42C29.333 43.1046 30.2284 44 31.333 44Z" fill="#5C913B"/>
<path d="M37.3337 8.0013C38.8064 8.0013 40.0003 6.80739 40.0003 5.33464C40.0003 3.86188 38.8064 2.66797 37.3337 2.66797C35.8609 2.66797 34.667 3.86188 34.667 5.33464C34.667 6.80739 35.8609 8.0013 37.3337 8.0013Z" fill="#FFCC4D"/>
<path d="M43.333 13.332C44.4376 13.332 45.333 12.4366 45.333 11.332C45.333 10.2275 44.4376 9.33203 43.333 9.33203C42.2284 9.33203 41.333 10.2275 41.333 11.332C41.333 12.4366 42.2284 13.332 43.333 13.332Z" fill="#FFCC4D"/>
<path d="M39.333 18.668C40.4376 18.668 41.333 17.7725 41.333 16.668C41.333 15.5634 40.4376 14.668 39.333 14.668C38.2284 14.668 37.333 15.5634 37.333 16.668C37.333 17.7725 38.2284 18.668 39.333 18.668Z" fill="#FFCC4D"/>
<path d="M10 33.332C11.1046 33.332 12 32.4366 12 31.332C12 30.2275 11.1046 29.332 10 29.332C8.89543 29.332 8 30.2275 8 31.332C8 32.4366 8.89543 33.332 10 33.332Z" fill="#FFCC4D"/>
</g>
<defs>
<clipPath id="clip0_6427_20165">
<rect width="48" height="48" fill="white"/>
</clipPath>
</defs>
</svg>
