<svg width="24" height="24" viewBox="0 0 24 24" fill="none" xmlns="http://www.w3.org/2000/svg">
<rect width="24" height="24" fill="white"/>
<path d="M18.8131 7.51406C18.9324 7.6346 19 7.79732 19 7.96808V20.3571C19 20.7127 18.7156 21 18.3636 21H5.63636C5.28437 21 5 20.7127 5 20.3571V3.64286C5 3.28728 5.28437 3 5.63636 3H14.0821C14.2511 3 14.4142 3.0683 14.5335 3.18884L18.8131 7.51406ZM17.5324 8.26339L13.7898 4.48259V8.26339H17.5324ZM14.4106 14.5164C14.1087 14.5063 13.7878 14.5298 13.4233 14.5758C12.94 14.2747 12.6147 13.8611 12.3836 13.2534L12.4049 13.1654L12.4295 13.0613C12.5151 12.6971 12.561 12.4313 12.5747 12.1633C12.5851 11.961 12.5739 11.7744 12.5383 11.6014C12.4727 11.228 12.2112 11.0096 11.8817 10.9961C11.5744 10.9835 11.292 11.1569 11.2199 11.4254C11.1023 11.8598 11.1711 12.4313 11.4203 13.406C11.1029 14.1704 10.6835 15.0666 10.4021 15.5665C10.0265 15.7621 9.73395 15.9401 9.48815 16.1374C9.16401 16.3979 8.96156 16.6657 8.90588 16.947C8.87884 17.0774 8.9196 17.2477 9.01247 17.3873C9.11787 17.5456 9.27656 17.6485 9.46687 17.6634C9.94713 17.7009 10.5374 17.2007 11.189 16.0711C11.2545 16.049 11.3237 16.0257 11.4082 15.9968L11.6448 15.916C11.7946 15.865 11.9032 15.8284 12.0105 15.7933C12.4759 15.6402 12.8279 15.5435 13.148 15.4885C13.7045 15.7894 14.3476 15.9867 14.7807 15.9867C15.1383 15.9867 15.3799 15.7995 15.4672 15.5048C15.5437 15.246 15.4831 14.9459 15.3184 14.78C15.1482 14.611 14.8352 14.5302 14.4106 14.5164ZM9.47901 17.0962V17.089L9.48159 17.0822C9.51069 17.0062 9.54804 16.9337 9.59295 16.866C9.67807 16.7338 9.7952 16.5948 9.94037 16.4468C10.0183 16.3674 10.0995 16.2901 10.1947 16.2033C10.216 16.184 10.352 16.0617 10.3775 16.0375L10.5996 15.8286L10.4381 16.0884C10.1931 16.4829 9.97159 16.767 9.78187 16.9522C9.71207 17.0205 9.65062 17.0707 9.60091 17.1031C9.5845 17.1142 9.56712 17.1237 9.54901 17.1316C9.54085 17.135 9.53369 17.137 9.52653 17.1376C9.51898 17.1386 9.5113 17.1376 9.50426 17.1346C9.49678 17.1315 9.49039 17.1261 9.48589 17.1193C9.4814 17.1125 9.479 17.1044 9.47901 17.0962ZM11.9835 12.7112L11.9386 12.7915L11.9107 12.7035C11.8491 12.506 11.8037 12.2085 11.7912 11.9401C11.7769 11.6348 11.8009 11.4516 11.8964 11.4516C12.0304 11.4516 12.0919 11.6685 12.0966 11.995C12.101 12.2819 12.0563 12.5804 11.9833 12.7112H11.9835ZM11.868 13.8856L11.8984 13.8042L11.9399 13.8806C12.1724 14.3073 12.4741 14.6632 12.8058 14.9113L12.8774 14.9648L12.7901 14.9829C12.4653 15.0508 12.1629 15.1528 11.7492 15.3214C11.7924 15.3037 11.3193 15.4994 11.1996 15.5458L11.0952 15.5861L11.1509 15.4881C11.3964 15.0562 11.6234 14.5375 11.8678 13.8856H11.868ZM15.0024 15.4176C14.8461 15.4799 14.5097 15.4242 13.9172 15.1687L13.7669 15.104L13.93 15.0919C14.3933 15.0572 14.7214 15.0829 14.9128 15.1536C14.9943 15.1837 15.0486 15.2217 15.0726 15.2651C15.0853 15.2857 15.0896 15.3104 15.0845 15.334C15.0795 15.3577 15.0655 15.3784 15.0456 15.3919C15.033 15.4031 15.0183 15.4119 15.0024 15.4176Z" fill="#DD2025"/>
</svg>
