<svg width="37" height="36" viewBox="0 0 37 36" fill="none" xmlns="http://www.w3.org/2000/svg">
<path d="M20.7134 7.80975L20.3433 7.06894C20.1219 6.62647 20.0158 6.13528 20.0348 5.64089C20.0538 5.14649 20.1972 4.66489 20.4519 4.24069C20.6585 3.89585 20.9337 3.59707 21.2605 3.36283C21.5872 3.1286 21.9585 2.96388 22.3514 2.87888L23.3206 2.14763C24.2054 1.4841 25.2814 1.12528 26.3874 1.125C27.118 1.12509 27.8402 1.2818 28.5052 1.58456L30.0751 2.2995C30.8091 2.63361 31.4243 3.18287 31.8391 3.8745C32.1641 4.41628 32.3555 5.0276 32.3976 5.65797C32.4396 6.28833 32.3311 6.91967 32.081 7.49981L31.4336 9L31.4375 9.5625H32C32.2984 9.5625 32.5845 9.68103 32.7955 9.892C33.0065 10.103 33.125 10.3891 33.125 10.6875C33.125 10.9859 33.0065 11.272 32.7955 11.483C32.5845 11.694 32.2984 11.8125 32 11.8125H31.4066C31.3125 12.6547 31.0086 13.4598 30.5226 14.1541C30.0366 14.8483 29.3842 15.4094 28.625 15.786V18L33.9901 20.2354C34.4003 20.4062 34.7507 20.6947 34.9971 21.0643C35.2436 21.434 35.3751 21.8684 35.375 22.3127V29.8125H1.625V22.3127C1.62494 21.8684 1.75643 21.434 2.00289 21.0643C2.24934 20.6947 2.59973 20.4062 3.00987 20.2354L8.375 18V15.786L8.35981 15.7787C7.60461 15.4006 6.95593 14.8397 6.47278 14.147C5.98963 13.4543 5.68735 12.6518 5.59344 11.8125H5C4.70163 11.8125 4.41548 11.694 4.2045 11.483C3.99353 11.272 3.875 10.9859 3.875 10.6875C3.875 10.3891 3.99353 10.103 4.2045 9.892C4.41548 9.68103 4.70163 9.5625 5 9.5625H5.5625L5.55856 9L4.59331 7.06894C4.37194 6.62647 4.26583 6.13528 4.2848 5.64089C4.30378 5.14649 4.44723 4.66489 4.70187 4.24069C4.90853 3.89585 5.18373 3.59707 5.51046 3.36283C5.83719 3.1286 6.20851 2.96388 6.60144 2.87888L7.57062 2.14763C8.4554 1.4841 9.53144 1.12528 10.6374 1.125C11.368 1.12509 12.0902 1.2818 12.7552 1.58456L14.3251 2.2995C15.0591 2.63361 15.6743 3.18287 16.0891 3.8745C16.4141 4.41628 16.6055 5.0276 16.6476 5.65797C16.6896 6.28833 16.5811 6.91967 16.331 7.49981L16.1651 7.88344C16.8906 7.50824 17.6956 7.31246 18.5124 7.3125C19.243 7.31259 19.9652 7.4693 20.6302 7.77206L20.7134 7.80975Z" fill="#243242"/>
<path d="M20.75 24.1875L29.2274 26.5421C29.7012 26.6738 30.1188 26.957 30.4164 27.3485C30.7139 27.7401 30.875 28.2183 30.875 28.71V34.875H6.125V28.71C6.12499 28.2183 6.28608 27.7401 6.58363 27.3485C6.88117 26.957 7.29878 26.6738 7.77256 26.5421L16.25 24.1875" fill="#8892A0"/>
<path d="M26.1764 25.695L20.75 24.1875H16.25L7.77256 26.5421C7.29878 26.6738 6.88117 26.957 6.58363 27.3485C6.28608 27.7401 6.12499 28.2183 6.125 28.71V34.875H19.5395C22.6139 32.5415 24.9242 29.3459 26.1764 25.695Z" fill="#A8B0BC"/>
<path d="M23.5583 15.1875L24.2058 13.6873C24.4559 13.1072 24.5644 12.4758 24.5224 11.8455C24.4803 11.2151 24.2889 10.6038 23.9639 10.062C23.5489 9.37051 22.9338 8.82129 22.1999 8.487L20.63 7.77206C19.965 7.4693 19.2428 7.31259 18.5122 7.3125C17.4063 7.31262 16.3302 7.67123 15.4454 8.33456L14.506 9.06075C14.1077 9.14299 13.7308 9.30698 13.399 9.54235C13.0673 9.77772 12.7881 10.0794 12.5789 10.4282C12.3243 10.8524 12.1808 11.334 12.1618 11.8284C12.1429 12.3228 12.249 12.814 12.4703 13.2564L13.4333 15.1875H13.4373L14.5623 12.9375L15.4623 13.6125C16.3386 14.2697 17.4044 14.625 18.4998 14.625C19.5952 14.625 20.661 14.2697 21.5373 13.6125L22.4373 12.9375L23.5623 15.1875H23.5583Z" fill="#C18E59"/>
<path d="M24.6875 15.75H23.5625V15.1875L22.4375 12.9375L21.5375 13.6125C20.6612 14.2697 19.5954 14.625 18.5 14.625C17.4046 14.625 16.3388 14.2697 15.4625 13.6125L14.5625 12.9375L13.4375 15.1875V15.75H12.3125C12.0141 15.75 11.728 15.8685 11.517 16.0795C11.306 16.2905 11.1875 16.5766 11.1875 16.875C11.1875 17.1734 11.306 17.4595 11.517 17.6705C11.728 17.8815 12.0141 18 12.3125 18H13.4707C13.5651 18.841 13.869 19.6448 14.3546 20.338C14.8402 21.0311 15.4919 21.5913 16.25 21.9673V24.1875L18.5 26.4375L20.75 24.1875V21.9673C21.5081 21.5913 22.1598 21.0311 22.6454 20.338C23.131 19.6448 23.4349 18.841 23.5293 18H24.6875C24.9859 18 25.272 17.8815 25.483 17.6705C25.694 17.4595 25.8125 17.1734 25.8125 16.875C25.8125 16.5766 25.694 16.2905 25.483 16.0795C25.272 15.8685 24.9859 15.75 24.6875 15.75Z" fill="#FADFB2"/>
<path d="M10.0625 29.812H11.1875V34.8739H10.0625V29.812Z" fill="#8892A0"/>
<path d="M25.8125 29.812H26.9375V34.8739H25.8125V29.812Z" fill="#758190"/>
</svg>
