<svg width="157" height="168" viewBox="0 0 157 168" fill="none" xmlns="http://www.w3.org/2000/svg">
<path d="M113 81.4908C113 69.5968 103.708 59.8746 91.9187 59.0424C91.6731 46.8237 81.6032 37 69.2204 37C56.8377 37 47.4637 46.1742 46.5836 57.8043C45.5398 57.5201 44.4345 57.3578 43.2884 57.3578C38.5809 57.3578 34.4874 59.8949 32.3179 63.6701C29.1864 61.9246 25.5637 60.93 21.7158 60.93C9.72197 60.93 0 70.571 0 82.465C0 94.359 9.72197 104 21.7158 104H91.9187V103.939C103.687 103.107 112.98 93.3847 112.98 81.4908H113Z" fill="#D0F0FC"/>
<path d="M118 147C112.486 147 108 151.69 108 157.5C108 163.29 112.466 168 118 168C123.514 168 128 163.31 128 157.5C128 151.71 123.534 147 118 147ZM122.289 161.982C121.182 163.144 119.68 163.85 118 163.85C116.32 163.85 114.818 163.144 113.711 161.982C112.605 160.82 111.933 159.243 111.933 157.479C111.933 155.715 112.605 154.138 113.711 152.976C114.818 151.814 116.32 151.109 118 151.109C119.68 151.109 121.182 151.814 122.289 152.976C123.395 154.138 124.067 155.715 124.067 157.479C124.067 159.243 123.395 160.82 122.289 161.982Z" fill="#41C9E0"/>
<path d="M111 132C111 125.922 106.302 121.021 100.5 121C94.6979 121 90.0201 125.922 90 132C90 138.078 94.6979 142.979 100.5 143C106.302 143 110.98 138.078 111 132ZM104.997 136.711C103.833 137.91 102.267 138.667 100.5 138.667C98.7333 138.667 97.1673 137.931 96.0029 136.711C94.8585 135.491 94.1357 133.851 94.1357 132C94.1357 130.149 94.8384 128.509 96.0029 127.289C97.1673 126.09 98.7333 125.333 100.5 125.333C102.267 125.333 103.833 126.069 104.997 127.289C106.141 128.509 106.864 130.149 106.864 132C106.864 133.851 106.162 135.491 104.997 136.711Z" fill="#79C8EC"/>
<path d="M43.5 0C37.6979 0 33 4.6979 33 10.5C33 16.3021 37.6979 21 43.5 21C49.3021 21 54 16.3021 54 10.5C54 4.6979 49.3021 0.0200765 43.5 0ZM47.9971 14.9771C46.8327 16.1214 45.2667 16.8442 43.5 16.8442C41.7333 16.8442 40.1673 16.1415 39.0029 14.9771C37.8585 13.8126 37.1358 12.2467 37.1358 10.4799C37.1358 8.71319 37.8384 7.14723 39.0029 5.98279C40.1673 4.83843 41.7333 4.11568 43.5 4.11568C45.2667 4.11568 46.8327 4.81836 47.9971 5.98279C49.1415 7.14723 49.8642 8.71319 49.8642 10.4799C49.8642 12.2467 49.1616 13.8126 47.9971 14.9771Z" fill="#79C8EC"/>
<path d="M146.985 103.867L147.145 105.944C147.224 107.067 148.062 108 149 108C149.938 108 150.776 107.067 150.855 105.944L151.015 103.867C151.095 102.743 152.052 101.726 153.11 101.641L155.065 101.471C156.122 101.387 157 100.496 157 99.5C157 98.5037 156.122 97.6135 155.065 97.5287L153.11 97.3591C152.052 97.2743 151.095 96.2569 151.015 95.1334L150.855 93.0561C150.776 91.9327 149.938 91 149 91C148.062 91 147.224 91.9327 147.145 93.0561L146.985 95.1334C146.905 96.2569 145.948 97.2743 144.89 97.3591L142.935 97.5287C141.878 97.6135 141 98.5037 141 99.5C141 100.496 141.878 101.387 142.935 101.471L144.89 101.641C145.948 101.726 146.905 102.743 146.985 103.867Z" fill="#7E69CC"/>
</svg>
