<svg width="303" height="187" viewBox="0 0 303 187" fill="none" xmlns="http://www.w3.org/2000/svg">
<g clip-path="url(#clip0_640_9278)">
<path d="M94.2985 79.3535C94.2985 69.3344 86.5321 61.1345 76.7001 60.4454C76.4936 50.1507 68.0938 41.8818 57.7661 41.8818C47.4384 41.8818 39.6032 49.6132 38.8733 59.4118C37.992 59.1775 37.0694 59.0397 36.1193 59.0397C32.1948 59.0397 28.7798 61.1896 26.9621 64.3593C24.3458 62.8985 21.3301 62.0578 18.1216 62.0578C8.11066 62.0578 0 70.1751 0 80.1942C0 90.2132 8.11066 98.3305 18.1216 98.3305H76.7139V98.2754C86.5459 97.5725 94.2985 89.3726 94.2985 79.3673V79.3535Z" fill="#D0F0FC"/>
<path d="M149.958 21.4163C149.958 16.5515 146.185 12.5686 141.407 12.2241C141.31 7.22144 137.22 3.19727 132.208 3.19727C127.196 3.19727 123.381 6.94581 123.023 11.7142C122.596 11.6039 122.156 11.535 121.688 11.535C119.787 11.535 118.121 12.5824 117.24 14.1259C115.973 13.4093 114.499 13.0096 112.943 13.0096C108.083 13.0096 104.144 16.9511 104.144 21.8297C104.144 26.7084 108.083 30.6361 112.943 30.6361H141.42V30.6085C146.199 30.264 149.958 26.2811 149.958 21.4163Z" fill="#D0F0FC"/>
<path d="M45.8685 125.094C42.8529 125.094 40.4155 127.533 40.4155 130.551C40.4155 133.569 42.8529 136.009 45.8685 136.009C48.8842 136.009 51.3215 133.569 51.3215 130.551C51.3215 127.533 48.8842 125.094 45.8685 125.094ZM48.1957 132.88C47.5898 133.473 46.7774 133.845 45.8685 133.845C44.9597 133.845 44.1335 133.473 43.5414 132.88C42.9492 132.274 42.5775 131.461 42.5775 130.551C42.5775 129.642 42.9492 128.815 43.5414 128.222C44.1473 127.63 44.9597 127.257 45.8685 127.257C46.7774 127.257 47.6036 127.63 48.1957 128.222C48.7878 128.829 49.1596 129.642 49.1596 130.551C49.1596 131.461 48.7878 132.288 48.1957 132.88Z" fill="#F47653"/>
<path d="M85.816 0C83.2547 0 81.1892 2.08099 81.1892 4.63055C81.1892 7.1939 83.2685 9.26111 85.816 9.26111C88.3773 9.26111 90.4428 7.18012 90.4428 4.63055C90.4428 2.06721 88.3635 0 85.816 0ZM87.7989 6.61508C87.2894 7.12499 86.5871 7.44196 85.816 7.44196C85.0449 7.44196 84.3426 7.12499 83.8331 6.61508C83.3236 6.10517 83.0069 5.40231 83.0069 4.63055C83.0069 3.8588 83.3236 3.15594 83.8331 2.64603C84.3426 2.13612 85.0449 1.81915 85.816 1.81915C86.5871 1.81915 87.2894 2.13612 87.7989 2.64603C88.3084 3.15594 88.6251 3.8588 88.6251 4.63055C88.6251 5.40231 88.3084 6.10517 87.7989 6.61508Z" fill="#6B9466"/>
<path d="M165.491 14.3466L164.182 14.2364C163.48 14.1812 162.847 13.5473 162.792 12.8444L162.682 11.5352C162.626 10.8323 162.062 10.2397 161.442 10.2397C160.823 10.2397 160.258 10.8186 160.203 11.5352L160.093 12.8444C160.038 13.5473 159.404 14.1812 158.702 14.2364L157.394 14.3466C156.678 14.4017 156.099 14.9668 156.099 15.5869C156.099 16.2071 156.678 16.7721 157.394 16.8273L158.702 16.9375C159.404 16.9926 160.038 17.6266 160.093 18.3294L160.203 19.6387C160.258 20.3553 160.823 20.9341 161.442 20.9341C162.062 20.9341 162.626 20.3553 162.682 19.6387L162.792 18.3294C162.847 17.6266 163.48 16.9926 164.182 16.9375L165.491 16.8273C166.193 16.7721 166.785 16.2071 166.785 15.5869C166.785 14.9668 166.207 14.4017 165.491 14.3466Z" fill="#6B9466"/>
<path d="M75.2956 128.112L74.0976 128.016C73.4504 127.96 72.8583 127.382 72.8032 126.72L72.7068 125.521C72.6518 124.86 72.1423 124.336 71.5639 124.336C70.9856 124.336 70.4761 124.873 70.421 125.521L70.3246 126.72C70.2695 127.382 69.6912 127.96 69.0302 128.016L67.8322 128.112C67.1712 128.167 66.6479 128.677 66.6479 129.256C66.6479 129.835 67.185 130.345 67.8322 130.4L69.0302 130.496C69.6912 130.551 70.2695 131.13 70.3246 131.792L70.421 132.991C70.4761 133.652 70.9856 134.176 71.5639 134.176C72.1423 134.176 72.6518 133.638 72.7068 132.991L72.8032 131.792C72.8583 131.13 73.4367 130.551 74.0976 130.496L75.2956 130.4C75.9566 130.345 76.4799 129.835 76.4799 129.256C76.4799 128.677 75.9428 128.167 75.2956 128.112Z" fill="#41C9E0"/>
<path d="M49.2561 182.177L48.306 182.094C47.7827 182.053 47.3283 181.584 47.287 181.074L47.2043 180.123C47.163 179.6 46.7499 179.172 46.2955 179.172C45.8411 179.172 45.428 179.6 45.3867 180.123L45.3041 181.074C45.2627 181.598 44.7946 182.053 44.2851 182.094L43.3349 182.177C42.8116 182.218 42.3848 182.632 42.3848 183.086C42.3848 183.541 42.8116 183.955 43.3349 183.996L44.2851 184.079C44.8083 184.12 45.2627 184.588 45.3041 185.098L45.3867 186.049C45.428 186.573 45.8411 187 46.2955 187C46.7499 187 47.163 186.573 47.2043 186.049L47.287 185.098C47.3283 184.575 47.7965 184.12 48.306 184.079L49.2561 183.996C49.7794 183.955 50.2063 183.541 50.2063 183.086C50.2063 182.632 49.7794 182.218 49.2561 182.177Z" fill="#7E69CC"/>
</g>
<defs>
<clipPath id="clip0_640_9278">
<rect width="303" height="187" fill="white"/>
</clipPath>
</defs>
</svg>
