<svg width="480" height="432" viewBox="0 0 480 432" fill="none" xmlns="http://www.w3.org/2000/svg">
<g clip-path="url(#clip0_640_9210)">
<path d="M132.728 381.529C104.193 378.086 15.476 356.008 11.9942 307.283C8.51247 258.558 56.1048 230.71 59.5866 213.313C63.0683 195.915 16.3062 158.409 41.9671 104.483C69.8708 45.8396 158.265 30.0024 207.023 50.8916C255.78 71.7685 348.3 28.4174 394.74 82.9499C441.18 137.482 398.581 198.231 413.673 226.079C428.765 253.927 469.604 313.066 417.428 366.348C367.741 417.079 200.059 389.664 132.728 381.541V381.529Z" fill="#96E9FF"/>
<path d="M207.022 71.9418C283.237 86.9618 412.508 26.4981 416.721 156.489C418.468 133.074 415.544 107.38 394.728 82.9499C348.288 28.4174 255.767 71.7809 207.01 50.8916C158.253 30.0148 69.8583 45.8396 41.9546 104.483C34.3839 120.394 33.1201 134.882 35.0035 147.834C51.8547 48.0313 138.564 58.4449 207.01 71.9418H207.022Z" fill="#82DCF2"/>
<path d="M474.099 215.957C482.675 204.776 481.768 189.692 472.073 182.266C462.378 174.84 447.567 177.884 438.991 189.065C430.415 200.246 431.322 215.33 441.017 222.756C450.712 230.182 465.523 227.138 474.099 215.957Z" fill="#7E69CC"/>
<path d="M25.7144 212.394C27.4039 205.394 23.0949 198.35 16.0899 196.662C9.08497 194.974 2.03671 199.28 0.347205 206.28C-1.3423 213.281 2.96673 220.324 9.97171 222.013C16.9767 223.701 24.0249 219.395 25.7144 212.394Z" fill="#6B9466"/>
<path d="M11.3375 149.815C16.3467 149.815 20.4074 145.757 20.4074 140.751C20.4074 135.746 16.3467 131.688 11.3375 131.688C6.32832 131.688 2.26758 135.746 2.26758 140.751C2.26758 145.757 6.32832 149.815 11.3375 149.815Z" fill="#41C9E0"/>
<path d="M126.558 176.351C125.901 176.252 125.244 176.19 124.575 176.128C124.439 176.128 124.303 176.103 124.179 176.103C123.497 176.054 122.816 176.029 122.122 176.029C118.405 176.029 114.836 176.685 111.528 177.899C109.174 178.765 106.943 179.905 104.899 181.291C104.49 181.564 104.081 181.849 103.697 182.146C103.301 182.443 102.916 182.74 102.532 183.062C102.148 183.384 101.777 183.694 101.417 184.028C100.327 185.018 99.2984 186.096 98.3567 187.235C97.7248 187.99 97.1424 188.783 96.5849 189.6C94.9245 192.052 93.6111 194.764 92.7066 197.661C91.8021 200.559 91.3188 203.629 91.3188 206.812C91.3188 207.344 91.3312 207.864 91.356 208.384C91.3684 208.669 91.3932 208.941 91.418 209.214C91.4428 209.449 91.4428 209.697 91.4675 209.932C91.5047 210.316 91.5543 210.7 91.6162 211.084C91.6286 211.207 91.641 211.344 91.6658 211.467C91.7401 211.926 91.8145 212.371 91.9012 212.817C91.9012 212.867 91.9136 212.929 91.926 212.978C94.7882 227.02 107.204 237.595 122.11 237.595C139.122 237.595 152.913 223.813 152.913 206.812C152.913 191.321 141.464 178.518 126.558 176.351Z" fill="#82DCF2"/>
<path d="M176.666 64.0418C176.133 63.9675 175.6 63.9056 175.067 63.8684C174.956 63.8684 174.856 63.856 174.745 63.8437C174.2 63.8065 173.642 63.7817 173.085 63.7817C170.074 63.7817 167.199 64.3142 164.523 65.2924C162.615 65.9858 160.818 66.9145 159.17 68.0289C158.835 68.2518 158.513 68.4871 158.191 68.7223C157.869 68.9576 157.559 69.2053 157.249 69.4653C156.94 69.7129 156.642 69.9854 156.345 70.2454C155.465 71.0503 154.635 71.917 153.879 72.8333C153.371 73.4525 152.888 74.084 152.442 74.7526C151.104 76.7338 150.038 78.9255 149.307 81.2658C148.576 83.6061 148.192 86.0826 148.192 88.6581C148.192 89.0915 148.192 89.5125 148.229 89.9335C148.229 90.1564 148.266 90.3793 148.279 90.6022C148.291 90.8003 148.303 90.9984 148.328 91.1842C148.365 91.4937 148.403 91.8033 148.44 92.1129C148.452 92.2119 148.464 92.3234 148.477 92.4224C148.526 92.7939 148.601 93.153 148.675 93.5121C148.675 93.5492 148.688 93.5988 148.7 93.6359C151.005 104.991 161.053 113.535 173.097 113.535C186.838 113.535 197.99 102.403 197.99 88.6581C197.99 76.1395 188.734 65.7877 176.69 64.0418H176.666Z" fill="#82DCF2"/>
<path d="M152.53 193.876C155.206 177.087 143.756 161.309 126.956 158.635C110.156 155.96 94.3671 167.403 91.6912 184.192C89.0152 200.981 100.465 216.76 117.266 219.434C134.066 222.108 149.854 210.665 152.53 193.876Z" fill="#FFC200"/>
<path d="M122.11 167.943C135.578 167.943 146.631 178.245 147.82 191.396C147.895 190.615 147.932 189.835 147.932 189.043C147.932 174.791 136.371 163.238 122.11 163.238C107.848 163.238 96.2876 174.791 96.2876 189.043C96.2876 189.835 96.3248 190.615 96.3991 191.396C97.5886 178.245 108.641 167.943 122.11 167.943Z" fill="#FFA100"/>
<path d="M122.11 163.758C136.062 163.758 147.411 175.1 147.411 189.043C147.411 202.986 136.062 214.328 122.11 214.328C108.158 214.328 96.8081 202.986 96.8081 189.043C96.8081 175.1 108.158 163.758 122.11 163.758ZM122.11 158.272C105.097 158.272 91.3066 172.054 91.3066 189.055C91.3066 206.056 105.097 219.838 122.11 219.838C139.122 219.838 152.913 206.056 152.913 189.055C152.913 172.054 139.122 158.272 122.11 158.272Z" fill="#FFE450"/>
<path d="M122.11 163.758V158.272C105.097 158.272 91.3066 172.054 91.3066 189.055H96.7957C96.7957 175.113 108.145 163.77 122.097 163.77L122.11 163.758Z" fill="#FAF582"/>
<g style="mix-blend-mode:lighten" opacity="0.2">
<path d="M122.11 158.272C105.097 158.272 91.3066 172.054 91.3066 189.055C91.3066 193.278 92.1616 197.302 93.698 200.955C95.8788 201.463 98.1339 201.747 100.476 201.747C116.757 201.747 129.941 188.56 129.941 172.302C129.941 167.349 128.714 162.693 126.558 158.607C125.108 158.396 123.621 158.285 122.11 158.285V158.272Z" fill="white"/>
</g>
<path d="M196.343 83.7529C198.345 71.3505 189.906 59.6751 177.496 57.6753C165.085 55.6754 153.402 64.1083 151.401 76.5107C149.4 88.9132 157.838 100.588 170.249 102.588C182.659 104.588 194.342 96.1553 196.343 83.7529Z" fill="#FFC200"/>
<path d="M173.89 64.5493C183.84 64.5493 192.018 72.1645 192.897 81.8848C192.947 81.3152 192.984 80.7332 192.984 80.1512C192.984 69.6137 184.434 61.0698 173.89 61.0698C163.346 61.0698 154.796 69.6137 154.796 80.1512C154.796 80.7332 154.821 81.3152 154.883 81.8848C155.763 72.1645 163.928 64.5493 173.89 64.5493Z" fill="#FFA100"/>
<path d="M173.89 61.454C184.199 61.454 192.6 69.837 192.6 80.1516C192.6 90.4662 184.211 98.8491 173.89 98.8491C163.569 98.8491 155.18 90.4662 155.18 80.1516C155.18 69.837 163.569 61.454 173.89 61.454ZM173.89 57.3926C161.313 57.3926 151.128 67.5834 151.128 80.1392C151.128 92.695 161.326 102.886 173.89 102.886C186.454 102.886 196.652 92.695 196.652 80.1392C196.652 67.5834 186.454 57.3926 173.89 57.3926Z" fill="#FFE450"/>
<path d="M173.89 61.454V57.3926C161.313 57.3926 151.128 67.5834 151.128 80.1392H155.193C155.193 69.837 163.581 61.4416 173.902 61.4416L173.89 61.454Z" fill="#FAF582"/>
<g style="mix-blend-mode:lighten" opacity="0.2">
<path d="M173.89 57.3926C161.313 57.3926 151.128 67.5834 151.128 80.1392C151.128 83.2596 151.76 86.2314 152.9 88.9431C154.511 89.327 156.184 89.5251 157.906 89.5251C169.937 89.5251 179.689 79.7801 179.689 67.7567C179.689 64.1039 178.784 60.6492 177.186 57.6278C176.108 57.4669 175.018 57.3926 173.89 57.3926Z" fill="white"/>
</g>
<path d="M52.3008 319.269V385.578L233.514 297.637V231.329L52.3008 319.269Z" fill="#00CCFF"/>
<path d="M354.656 121.893H299.877V245.049H354.656V121.893Z" fill="#00BFEA"/>
<path d="M387.665 79.0371L299.927 121.62V187.929L387.665 145.358V79.0371Z" fill="#00CCFF"/>
<path d="M306.457 200.1C292.852 209.994 302.889 217.225 311.426 228.939C319.963 240.653 323.754 252.429 337.359 242.535C350.964 232.641 359.799 211.69 351.274 199.964C342.737 188.25 320.074 190.194 306.469 200.088L306.457 200.1Z" fill="#32AE95"/>
<path d="M316.357 205.895C308.192 211.827 314.214 216.161 319.331 223.194C324.448 230.227 326.716 237.285 334.881 231.341C343.046 225.41 348.337 212.842 343.22 205.821C338.103 198.788 324.51 199.964 316.357 205.895Z" fill="#169584"/>
<path d="M314.042 415.164C315.069 402.047 268.077 387.677 209.085 383.068C150.092 378.459 101.437 385.357 100.411 398.475C99.3848 411.592 146.376 425.962 205.369 430.571C264.361 435.18 313.016 428.282 314.042 415.164Z" fill="#BFE5EB"/>
<path d="M291.935 371.387C291.935 392.276 281.849 416.657 269.396 416.657C256.944 416.657 246.858 392.289 246.858 371.387C246.858 350.485 256.944 333.559 269.396 333.559C281.849 333.559 291.935 350.498 291.935 371.387Z" fill="#32AE95"/>
<path d="M265.258 379.411C265.258 400.3 255.172 424.681 242.72 424.681C230.267 424.681 220.181 400.313 220.181 379.411C220.181 358.509 230.267 341.583 242.72 341.583C255.172 341.583 265.258 358.522 265.258 379.411Z" fill="#4DC7A4"/>
<path d="M160.471 360.292C160.471 381.182 150.385 405.563 137.932 405.563C125.48 405.563 115.394 381.194 115.394 360.292C115.394 339.391 125.48 322.464 137.932 322.464C150.385 322.464 160.471 339.403 160.471 360.292Z" fill="#4DC7A4"/>
<path d="M190.828 361.085C190.828 381.974 180.742 406.355 168.289 406.355C155.837 406.355 145.751 381.986 145.751 361.085C145.751 340.183 155.837 323.256 168.289 323.256C180.742 323.256 190.828 340.196 190.828 361.085Z" fill="#32AE95"/>
<path d="M225.807 413.909C301.129 413.909 362.19 360.627 362.19 294.901C362.19 229.174 301.129 175.893 225.807 175.893C150.484 175.893 89.4231 229.174 89.4231 294.901C89.4231 360.627 150.484 413.909 225.807 413.909Z" fill="#4DC7A4"/>
<path d="M284.984 196.67C264.564 186.034 232.56 177.403 207.047 177.403L197.036 182.641C222.412 182.641 254.293 191.197 274.638 201.735C278.603 199.531 280.945 198.738 284.984 196.67Z" fill="#169584"/>
<path d="M281.8 271.052H281.701C279.57 271.052 277.81 269.541 277.302 267.473C275.691 260.96 269.793 256.131 262.793 256.131C255.792 256.131 249.894 260.973 248.283 267.473C247.775 269.541 246.016 271.052 243.885 271.052H243.786C240.886 271.052 238.743 268.34 239.412 265.517C241.915 254.942 251.443 247.055 262.78 247.055C274.118 247.055 283.646 254.942 286.149 265.517C286.818 268.34 284.675 271.052 281.775 271.052H281.8Z" fill="#169584"/>
<path d="M231.89 200.1C245.495 209.994 235.459 217.225 226.922 228.939C218.384 240.653 214.593 252.429 200.988 242.535C187.383 232.641 178.549 211.69 187.073 199.964C195.611 188.25 218.273 190.194 231.878 200.088L231.89 200.1Z" fill="#32AE95"/>
<path d="M231.345 209.845C240.465 216.47 233.737 221.324 228.025 229.174C222.313 237.025 219.772 244.912 210.653 238.288C201.533 231.663 195.611 217.622 201.335 209.771C207.047 201.921 222.238 203.221 231.358 209.858L231.345 209.845Z" fill="#169584"/>
<path d="M257.217 327.788C257.217 327.788 257.44 320.322 265.58 323.034C273.721 325.745 274.873 359.153 320.322 358.299" stroke="#169584" stroke-width="3.37" stroke-miterlimit="10" stroke-linecap="round"/>
<path d="M396.915 309.152C400.115 274.937 378.953 244.981 349.648 242.244C320.344 239.507 293.993 265.024 290.793 299.24C287.593 333.455 308.755 363.41 338.059 366.148C367.364 368.885 393.714 343.367 396.915 309.152Z" fill="#32AE95"/>
<path d="M386.401 308.172C388.967 280.739 377.023 257.19 359.724 255.574C342.425 253.958 326.321 274.887 323.755 302.321C321.189 329.754 333.133 353.303 350.432 354.919C367.731 356.535 383.835 335.606 386.401 308.172Z" fill="#169584"/>
<path d="M348.858 299.024C347.941 308.893 344.546 316.644 341.3 316.334C338.053 316.025 336.158 307.791 337.087 297.922C338.004 288.053 341.399 280.301 344.645 280.611C347.891 280.921 349.787 289.155 348.858 299.024Z" fill="#295D5E"/>
<path d="M370.69 295.098C369.773 304.967 366.378 312.719 363.132 312.409C359.885 312.1 357.99 303.865 358.919 293.996C359.836 284.128 363.231 276.376 366.477 276.686C369.723 276.995 371.619 285.23 370.69 295.098Z" fill="#295D5E"/>
<mask id="mask0_640_9210" style="mask-type:luminance" maskUnits="userSpaceOnUse" x="197" y="76" width="121" height="126">
<path d="M317.361 120.023C296.941 109.386 232.56 76.709 207.047 76.709L197.036 182.641C222.412 182.641 254.293 191.197 274.638 201.735C278.603 199.531 313.322 122.091 317.361 120.023Z" fill="white"/>
</mask>
<g mask="url(#mask0_640_9210)">
<path d="M279.219 180.982C296.915 163.298 296.915 134.627 279.219 116.943C261.524 99.2587 232.834 99.2587 215.138 116.943C197.442 134.627 197.442 163.298 215.138 180.982C232.834 198.666 261.524 198.666 279.219 180.982Z" fill="#FFC200"/>
<path d="M247.168 117.918C266.981 117.918 283.25 133.074 284.997 152.415C285.096 151.276 285.158 150.124 285.158 148.948C285.158 127.985 268.145 110.983 247.168 110.983C226.191 110.983 209.178 127.985 209.178 148.948C209.178 150.112 209.24 151.264 209.34 152.415C211.087 133.074 227.355 117.918 247.168 117.918Z" fill="#FFA100"/>
<path d="M247.168 111.752C267.699 111.752 284.389 128.443 284.389 148.949C284.389 169.454 267.687 186.146 247.168 186.146C226.649 186.146 209.947 169.454 209.947 148.949C209.947 128.443 226.649 111.752 247.168 111.752ZM247.168 103.678C222.139 103.678 201.855 123.948 201.855 148.961C201.855 173.974 222.139 194.244 247.168 194.244C272.197 194.244 292.48 173.974 292.48 148.961C292.48 123.948 272.197 103.678 247.168 103.678Z" fill="#FFE450"/>
<path d="M247.168 111.752V103.678C222.139 103.678 201.855 123.948 201.855 148.961H209.934C209.934 128.443 226.637 111.764 247.156 111.764L247.168 111.752Z" fill="#FAF582"/>
<g style="mix-blend-mode:lighten" opacity="0.2">
<path d="M247.168 103.678C222.139 103.678 201.855 123.948 201.855 148.961C201.855 155.164 203.107 161.083 205.374 166.469C208.571 167.225 211.904 167.633 215.336 167.633C239.275 167.633 258.691 148.242 258.691 124.307C258.691 117.026 256.882 110.179 253.71 104.148C251.567 103.839 249.386 103.666 247.168 103.666V103.678Z" fill="white"/>
</g>
</g>
<path d="M461.278 89.3762L362.958 65.1685L391.135 162.371L461.278 89.3762Z" fill="#00CCFF"/>
<path d="M234.554 67.3975C239.312 90.1565 259.484 107.244 283.671 107.244C307.857 107.244 328.029 90.1565 332.787 67.3975H234.554Z" fill="#82DCF2"/>
<path d="M319.478 71.6692C334.064 51.3471 329.402 23.0566 309.067 8.48059C288.732 -6.09545 260.422 -1.43733 245.837 18.8848C231.251 39.2069 235.912 67.4974 256.248 82.0734C276.583 96.6494 304.892 91.9913 319.478 71.6692Z" fill="#FFC200"/>
<path d="M282.655 14.2397C302.467 14.2397 318.736 29.3958 320.483 48.7497C320.582 47.6105 320.644 46.4589 320.644 45.2826C320.644 24.319 303.632 7.31787 282.655 7.31787C261.677 7.31787 244.665 24.319 244.665 45.2826C244.665 46.4465 244.727 47.5981 244.826 48.7497C246.573 29.4082 262.842 14.2397 282.655 14.2397Z" fill="#FFA100"/>
<path d="M282.655 8.07338C303.186 8.07338 319.876 24.765 319.876 45.2703C319.876 65.7757 303.174 82.4673 282.655 82.4673C262.136 82.4673 245.433 65.7757 245.433 45.2703C245.433 24.765 262.136 8.07338 282.655 8.07338ZM282.655 0C257.626 0 237.342 20.2701 237.342 45.2827C237.342 70.2953 257.626 90.5655 282.655 90.5655C307.684 90.5655 327.967 70.2953 327.967 45.2827C327.967 20.2701 307.671 0 282.655 0Z" fill="#FFE450"/>
<path d="M282.655 8.07338V0C257.626 0 237.342 20.2701 237.342 45.2827H245.421C245.421 24.765 262.124 8.08576 282.642 8.08576L282.655 8.07338Z" fill="#FAF582"/>
<g style="mix-blend-mode:lighten" opacity="0.2">
<path d="M282.655 -0.000312831C257.626 -0.000312831 237.342 20.2698 237.342 45.2824C237.342 51.486 238.594 57.4049 240.861 62.7912C244.058 63.5466 247.391 63.9552 250.823 63.9552C274.762 63.9552 294.178 44.5642 294.178 20.6289C294.178 13.348 292.369 6.50049 289.197 0.470221C287.053 0.160659 284.873 -0.0126953 282.655 -0.0126953V-0.000312831Z" fill="white"/>
</g>
</g>
<rect x="0.5" y="0.5" width="479" height="431" stroke="black"/>
<defs>
<clipPath id="clip0_640_9210">
<rect width="480" height="432" fill="white"/>
</clipPath>
</defs>
</svg>
