<svg width="18" height="18" viewBox="0 0 18 18" fill="none" xmlns="http://www.w3.org/2000/svg">
<path d="M10.0019 2.93364C10.0565 2.92668 10.112 2.93055 10.1651 2.94503C10.2182 2.95951 10.268 2.98432 10.3115 3.01804L14.9554 6.60224C15.0434 6.67014 15.1008 6.77021 15.115 6.88043C15.1292 6.99065 15.099 7.10199 15.0311 7.18997C14.6829 7.64109 14.2031 7.7937 13.8453 7.84038C13.6977 7.85879 13.5647 7.86098 13.4578 7.85682L11.189 10.7964L11.2162 10.8682C11.2858 11.0564 11.3712 11.3202 11.4302 11.6209C11.5449 12.2006 11.5845 13.0272 11.0863 13.6727C11.0184 13.7607 10.9183 13.8181 10.8081 13.8323C10.6979 13.8465 10.5865 13.8163 10.4985 13.7484L7.84489 11.7003L5.54076 14.6857C5.39944 14.8688 4.62412 15.5661 4.44101 15.4248C4.25791 15.2834 4.73603 14.3567 4.87735 14.1736L7.18148 11.1883L4.52783 9.14015C4.43985 9.07225 4.38245 8.97218 4.36826 8.86197C4.35406 8.75175 4.38423 8.6404 4.45213 8.55243C4.95034 7.90693 5.75997 7.73574 6.34916 7.69929C6.6358 7.68273 6.92334 7.69107 7.20854 7.72424L9.47734 4.78465C9.4394 4.66085 9.41188 4.53409 9.39508 4.40569C9.34957 4.0477 9.37614 3.54419 9.7238 3.09374C9.75737 3.05009 9.79921 3.01348 9.84693 2.98601C9.89465 2.95854 9.94732 2.94075 10.0019 2.93364ZM10.3284 4.67505L10.3292 4.67674C10.3625 4.74664 10.3757 4.82441 10.3675 4.90141C10.3593 4.9784 10.3299 5.05161 10.2826 5.11291L7.72244 8.42998C7.67494 8.49153 7.61124 8.53865 7.53848 8.56606C7.46573 8.59347 7.38678 8.6001 7.31047 8.58521L7.30914 8.58418L7.29759 8.58268L7.24641 8.57494C6.96661 8.53308 6.68324 8.52012 6.40079 8.53627C6.04748 8.55787 5.70752 8.63212 5.44056 8.786L10.6099 12.7757C10.6911 12.4785 10.6768 12.1308 10.6082 11.7836C10.5489 11.4892 10.4577 11.2023 10.336 10.9278L10.3311 10.9176L10.3298 10.9166C10.296 10.8465 10.2824 10.7682 10.2906 10.6908C10.2988 10.6133 10.3284 10.5397 10.3761 10.4781L12.9362 7.16103C12.9855 7.09669 13.0524 7.04801 13.1287 7.02089C13.2051 6.99377 13.2877 6.98938 13.3665 7.00823C13.4898 7.02375 13.6147 7.02373 13.7381 7.00817C13.8321 6.99606 13.928 6.97475 14.0188 6.93796L10.2241 4.00916C10.2127 4.10622 10.2145 4.20397 10.2273 4.29851C10.2444 4.42791 10.2783 4.5545 10.3284 4.67505Z" fill="white"/>
</svg>
