<svg width="24" height="24" viewBox="0 0 24 24" fill="none" xmlns="http://www.w3.org/2000/svg">
<rect width="24" height="24" fill="white"/>
<g clip-path="url(#clip0_15541_77685)">
<path d="M19.9401 13.5823C19.8501 13.3006 19.6145 13.1043 19.3098 13.0572C19.1662 13.035 19.0016 13.0445 18.8069 13.086C18.4676 13.1584 18.2158 13.186 18.032 13.1913C18.7256 11.9801 19.2896 10.5989 19.6142 9.29874C20.1392 7.19638 19.8587 6.23862 19.5309 5.80541C18.6633 4.65874 17.3975 4.04274 15.8704 4.02389C15.0558 4.01359 14.3406 4.17995 13.9676 4.29959C13.6202 4.2362 13.2467 4.2008 12.8549 4.19426C12.1203 4.18214 11.4712 4.34777 10.9166 4.6882C10.6096 4.5808 10.1168 4.42941 9.54778 4.3328C8.20938 4.10553 7.13067 4.28262 6.34165 4.85917C5.38622 5.55723 4.94331 6.77008 5.02522 8.46402C5.05124 9.00183 5.34209 10.6382 5.80006 12.1901C6.06327 13.0821 6.34393 13.8228 6.63426 14.3919C7.046 15.1989 7.48657 15.6741 7.98116 15.8447C8.25836 15.9403 8.76204 16.0072 9.29178 15.5508C9.35893 15.6349 9.44852 15.7185 9.56741 15.7961C9.7184 15.8946 9.90303 15.9751 10.0874 16.0228C10.7519 16.1946 11.3744 16.1517 11.9054 15.9108C11.9087 16.0085 11.9112 16.1018 11.9133 16.1824C11.9168 16.3132 11.9204 16.4413 11.925 16.5612C11.9565 17.3718 12.0098 18.002 12.1677 18.443C12.1764 18.4672 12.1881 18.5042 12.2004 18.5434C12.2792 18.793 12.411 19.2108 12.7462 19.538C13.0934 19.877 13.5133 19.9809 13.898 19.9809C14.0908 19.9809 14.2749 19.9547 14.4363 19.919C15.0117 19.7914 15.6652 19.5971 16.1379 18.9009C16.5849 18.2427 16.8022 17.2513 16.8415 15.6893C16.8466 15.6452 16.8513 15.603 16.8558 15.5628L16.8651 15.4803L16.9704 15.4898L16.9976 15.4917C17.5836 15.5193 18.3002 15.3908 18.7403 15.1793C19.0881 15.0124 20.2025 14.4039 19.9401 13.5823Z" fill="black"/>
<path d="M18.9389 13.7362C17.1963 14.108 17.0765 13.4978 17.0765 13.4978C18.9163 10.6739 19.6855 7.08952 19.0218 6.21225C17.211 3.81922 14.0766 4.95098 14.0242 4.98031L14.0074 4.98346C13.6631 4.90952 13.2779 4.86552 12.8448 4.85819C12.0564 4.84486 11.4582 5.07201 11.0044 5.42801C11.0044 5.42801 5.41277 3.04534 5.67286 8.42461C5.72818 9.56898 7.25864 17.0836 9.08407 14.8138C9.75128 13.9838 10.396 13.2821 10.396 13.2821C10.7161 13.5021 11.0995 13.6143 11.5013 13.574L11.5325 13.5466C11.5228 13.6496 11.5273 13.7504 11.545 13.8698C11.0747 14.4132 11.213 14.5086 10.2729 14.7088C9.32161 14.9116 9.88042 15.2726 10.2453 15.367C10.6876 15.4813 11.7109 15.6434 12.4023 14.6423L12.3748 14.7565C12.559 14.9092 12.6884 15.7494 12.6667 16.5112C12.645 17.2729 12.6305 17.7958 12.7757 18.2043C12.9209 18.6128 13.0656 19.5319 14.3014 19.258C15.334 19.0291 15.8692 18.4359 15.9436 17.4465C15.9964 16.7431 16.116 16.8471 16.1235 16.2182L16.2194 15.9205C16.33 14.967 16.237 14.6593 16.8732 14.8024L17.0279 14.8165C17.496 14.8385 18.1089 14.7386 18.4686 14.5656C19.2431 14.1939 19.7025 13.5731 18.9388 13.7362H18.9389Z" fill="#336791"/>
<path d="M11.3311 8.94097C11.174 8.91836 11.0318 8.93927 10.9599 8.99563C10.9194 9.02733 10.9069 9.06406 10.9035 9.08933C10.8945 9.1563 10.9398 9.23036 10.9677 9.26854C11.0466 9.37666 11.1618 9.45097 11.2758 9.46733C11.2923 9.46975 11.3088 9.47085 11.3252 9.47085C11.5153 9.47085 11.6882 9.31769 11.7034 9.20466C11.7225 9.06309 11.5238 8.96866 11.3311 8.94097ZM16.5333 8.94545C16.5183 8.83448 16.3274 8.80285 16.1462 8.82891C15.9653 8.85497 15.7898 8.93945 15.8045 9.05066C15.8162 9.13715 15.9672 9.28478 16.1459 9.28478C16.161 9.28478 16.1762 9.28375 16.1916 9.28151C16.3109 9.26442 16.3984 9.18606 16.44 9.14091C16.5033 9.07206 16.54 8.99533 16.5333 8.94545Z" fill="white"/>
<path d="M19.5204 13.6973C19.454 13.4895 19.2401 13.4226 18.8848 13.4985C17.8298 13.7237 17.452 13.5677 17.328 13.4732C18.148 12.1811 18.8226 10.6192 19.1865 9.16191C19.3589 8.47161 19.4541 7.83052 19.4619 7.30797C19.4705 6.73446 19.3761 6.313 19.1813 6.05555C18.396 5.01767 17.2435 4.46094 15.8484 4.44567C14.8892 4.43452 14.0789 4.6884 13.9218 4.75979C13.591 4.6747 13.2303 4.62246 12.8377 4.61579C12.1177 4.60373 11.4953 4.78203 10.98 5.14549C10.7562 5.05931 10.1778 4.85391 9.47038 4.73603C8.24741 4.5324 7.27558 4.6867 6.58206 5.19488C5.75454 5.80131 5.37251 6.8853 5.44651 8.4167C5.47141 8.93191 5.75524 10.5169 6.20313 12.0348C6.7927 14.0326 7.4336 15.1635 8.1079 15.3962C8.18683 15.4234 8.27782 15.4425 8.37819 15.4425C8.62417 15.4425 8.92575 15.3278 9.23952 14.9376C9.62223 14.4627 10.0181 13.9994 10.4267 13.5482C10.6918 13.6953 10.983 13.7775 11.2808 13.7857C11.2814 13.7938 11.2822 13.8019 11.2829 13.8099C11.2316 13.8731 11.1814 13.9372 11.1323 14.0023C10.9259 14.2732 10.883 14.3297 10.2187 14.4711C10.0297 14.5115 9.52786 14.6185 9.52048 14.9823C9.51251 15.3799 10.1137 15.5469 10.1822 15.5646C10.4209 15.6264 10.6509 15.6569 10.8702 15.6569C11.4036 15.6569 11.873 15.4755 12.2481 15.1247C12.2366 16.542 12.2937 17.9386 12.4583 18.3642C12.593 18.7125 12.9222 19.5639 13.962 19.5638C14.1146 19.5638 14.2825 19.5454 14.4673 19.5045C15.5525 19.2639 16.0237 18.7677 16.206 17.674C16.3036 17.0894 16.471 15.6936 16.5497 14.9449C16.7159 14.9985 16.9298 15.0231 17.1611 15.023C17.6434 15.023 18.2 14.917 18.5491 14.7494C18.9412 14.5611 19.6488 14.0989 19.5204 13.6973ZM16.9361 8.63791C16.9325 8.85894 16.9031 9.05961 16.8719 9.26906C16.8384 9.49434 16.8037 9.72724 16.795 10.01C16.7863 10.2851 16.8196 10.5712 16.8517 10.8479C16.9166 11.4066 16.9832 11.9819 16.7253 12.5495C16.6825 12.471 16.6443 12.3899 16.6111 12.3066C16.579 12.2262 16.5094 12.0971 16.413 11.9185C16.0381 11.2229 15.1601 9.59421 15.6095 8.92961C15.7434 8.73179 16.0832 8.5284 16.9361 8.63791ZM15.9023 4.89324C17.1523 4.92179 18.1411 5.40549 18.8412 6.33082C19.3782 7.04058 18.7869 10.2701 17.0752 13.0562C17.058 13.0336 17.0407 13.011 17.0233 12.9885L17.0016 12.9605C17.4439 12.2049 17.3574 11.4574 17.2805 10.7946C17.2488 10.5226 17.2189 10.2657 17.2266 10.0243C17.2344 9.76858 17.2671 9.54918 17.2987 9.33706C17.3376 9.07567 17.3771 8.80518 17.3662 8.48634C17.3744 8.45288 17.3777 8.41337 17.3734 8.36646C17.3456 8.0607 17.0081 7.14561 16.3202 6.31737C15.9439 5.86434 15.3951 5.35737 14.6459 5.01543C14.9682 4.94634 15.4089 4.88191 15.9023 4.89324ZM8.90747 14.652C8.56177 15.082 8.32306 14.9995 8.24454 14.9725C7.73302 14.796 7.13946 13.6777 6.61616 11.9044C6.16335 10.37 5.89874 8.827 5.87776 8.39434C5.81167 7.02597 6.13235 6.07234 6.83097 5.55985C7.96792 4.72591 9.83718 5.22506 10.5883 5.47821C10.5775 5.48924 10.5663 5.49955 10.5556 5.51076C9.32302 6.79827 9.35225 8.99803 9.3553 9.13252C9.35518 9.1844 9.3594 9.25785 9.36515 9.35888C9.38636 9.72888 9.42585 10.4175 9.32038 11.1973C9.22241 11.922 9.43839 12.6312 9.91282 13.1433C9.96151 13.1958 10.0127 13.2457 10.0662 13.2929C9.85499 13.5268 9.39602 14.0442 8.90747 14.652ZM10.2246 12.8343C9.84222 12.4215 9.66854 11.8475 9.74806 11.2591C9.85938 10.4354 9.81831 9.71791 9.79622 9.33246C9.79311 9.27852 9.79036 9.23124 9.78878 9.19397C9.96884 9.02882 10.8033 8.5664 11.3983 8.70743C11.6699 8.77173 11.8353 8.963 11.9041 9.29197C12.2601 10.9952 11.9512 11.7051 11.703 12.2755C11.6519 12.3931 11.6035 12.5042 11.5623 12.6191L11.5303 12.7079C11.4493 12.9325 11.374 13.1414 11.3273 13.3397C10.9208 13.3385 10.5253 13.1588 10.2246 12.8342V12.8343ZM10.287 15.1312C10.1683 15.1006 10.0615 15.0473 9.9989 15.0031C10.0512 14.9777 10.1443 14.943 10.3058 14.9086C11.0873 14.7422 11.208 14.6248 11.4715 14.2786C11.5319 14.1992 11.6004 14.1093 11.6953 13.9997L11.6954 13.9996C11.8367 13.836 11.9013 13.8637 12.0185 13.914C12.1135 13.9546 12.206 14.0778 12.2435 14.2133C12.2613 14.2773 12.2812 14.3988 12.216 14.4933C11.6654 15.2906 10.8632 15.2804 10.287 15.1312ZM14.3768 19.0677C13.4208 19.2796 13.0823 18.7751 12.8592 18.1983C12.7152 17.8259 12.6445 16.1468 12.6947 14.2924C12.6953 14.2677 12.6919 14.2439 12.6854 14.2215C12.6795 14.1772 12.6706 14.1334 12.6586 14.0905C12.584 13.8206 12.4021 13.5949 12.1838 13.5014C12.0971 13.4642 11.9379 13.396 11.7467 13.4466C11.7875 13.2728 11.8582 13.0765 11.9349 12.864L11.9671 12.7746C12.0033 12.6738 12.0487 12.5694 12.0968 12.4588C12.3565 11.862 12.7123 11.0445 12.3262 9.19761C12.1816 8.50585 11.6986 8.16803 10.9666 8.24652C10.5277 8.29349 10.1262 8.47664 9.92589 8.58167C9.88282 8.60421 9.84345 8.62603 9.80665 8.64724C9.86255 7.95027 10.0737 6.64773 10.8637 5.82361C11.3611 5.30482 12.0235 5.04858 12.8306 5.0624C14.4208 5.08931 15.4406 5.93343 16.0161 6.63688C16.512 7.243 16.7805 7.85361 16.8877 8.18294C16.0817 8.09815 15.5336 8.2627 15.2558 8.67361C14.6512 9.56743 15.5865 11.3022 16.0359 12.136C16.1184 12.2888 16.1895 12.4208 16.2119 12.4769C16.3583 12.8439 16.5477 13.0888 16.6861 13.2676C16.7285 13.3224 16.7696 13.3755 16.8009 13.422C16.5568 13.4948 16.1184 13.6629 16.1583 14.5036C16.1261 14.9254 15.8969 16.9003 15.7805 17.5981C15.6268 18.5199 15.2989 18.8632 14.3768 19.0678V19.0677ZM18.3673 14.3443C18.1176 14.4642 17.6999 14.554 17.3031 14.5734C16.8649 14.5946 16.6417 14.5226 16.5892 14.4783C16.5646 13.9544 16.7531 13.8997 16.9526 13.8417C16.984 13.8326 17.0146 13.8237 17.0441 13.8131C17.0624 13.8285 17.0825 13.8439 17.1046 13.8589C17.4568 14.0994 18.0851 14.1253 18.9722 13.9359L18.9819 13.9339C18.8623 14.0496 18.6575 14.2049 18.3673 14.3443Z" fill="white"/>
</g>
<defs>
<clipPath id="clip0_15541_77685">
<rect width="15" height="16" fill="white" transform="translate(5 4)"/>
</clipPath>
</defs>
</svg>
