<svg width="24" height="24" viewBox="0 0 24 24" fill="none" xmlns="http://www.w3.org/2000/svg">
<path d="M6.375 5.6875C6.375 5.23995 6.55279 4.81072 6.86926 4.49426C7.18572 4.17779 7.61495 4 8.0625 4H15.9375C16.3851 4 16.8143 4.17779 17.1307 4.49426C17.4472 4.81072 17.625 5.23995 17.625 5.6875V6.25H18.1875C18.9334 6.25 19.6488 6.54632 20.1762 7.07376C20.7037 7.60121 21 8.31658 21 9.0625V14.6875C21 15.1351 20.8222 15.5643 20.5057 15.8807C20.1893 16.1972 19.7601 16.375 19.3125 16.375H17.625V18.0625C17.625 18.5101 17.4472 18.9393 17.1307 19.2557C16.8143 19.5722 16.3851 19.75 15.9375 19.75H8.0625C7.61495 19.75 7.18572 19.5722 6.86926 19.2557C6.55279 18.9393 6.375 18.5101 6.375 18.0625V16.375H4.6875C4.23995 16.375 3.81072 16.1972 3.49426 15.8807C3.17779 15.5643 3 15.1351 3 14.6875V9.0625C3 8.31658 3.29632 7.60121 3.82376 7.07376C4.35121 6.54632 5.06658 6.25 5.8125 6.25H6.375V5.6875ZM7.5 6.25H16.5V5.6875C16.5 5.53832 16.4407 5.39524 16.3352 5.28975C16.2298 5.18426 16.0867 5.125 15.9375 5.125H8.0625C7.91332 5.125 7.77024 5.18426 7.66475 5.28975C7.55926 5.39524 7.5 5.53832 7.5 5.6875V6.25ZM6.375 15.25V13.5625C6.375 13.1149 6.55279 12.6857 6.86926 12.3693C7.18572 12.0528 7.61495 11.875 8.0625 11.875H15.9375C16.3851 11.875 16.8143 12.0528 17.1307 12.3693C17.4472 12.6857 17.625 13.1149 17.625 13.5625V15.25H19.3125C19.4617 15.25 19.6048 15.1907 19.7102 15.0852C19.8157 14.9798 19.875 14.8367 19.875 14.6875V9.0625C19.875 8.61495 19.6972 8.18572 19.3807 7.86926C19.0643 7.55279 18.6351 7.375 18.1875 7.375H5.8125C5.36495 7.375 4.93572 7.55279 4.61926 7.86926C4.30279 8.18572 4.125 8.61495 4.125 9.0625V14.6875C4.125 14.8367 4.18426 14.9798 4.28975 15.0852C4.39524 15.1907 4.53832 15.25 4.6875 15.25H6.375ZM8.0625 13C7.91332 13 7.77024 13.0593 7.66475 13.1648C7.55926 13.2702 7.5 13.4133 7.5 13.5625V18.0625C7.5 18.2117 7.55926 18.3548 7.66475 18.4602C7.77024 18.5657 7.91332 18.625 8.0625 18.625H15.9375C16.0867 18.625 16.2298 18.5657 16.3352 18.4602C16.4407 18.3548 16.5 18.2117 16.5 18.0625V13.5625C16.5 13.4133 16.4407 13.2702 16.3352 13.1648C16.2298 13.0593 16.0867 13 15.9375 13H8.0625Z" fill="#DEDEDE"/>
</svg>
