<svg width="44" height="44" viewBox="0 0 44 44" fill="none" xmlns="http://www.w3.org/2000/svg">
<g clip-path="url(#clip0_5540_12720)">
<g opacity="0.6">
<path d="M21.9996 4.40039C19.6657 4.40039 17.4274 5.32753 15.7771 6.97785C14.1267 8.62817 13.1996 10.8665 13.1996 13.2004C13.1996 15.5343 14.1267 17.7726 15.7771 19.4229C17.4274 21.0733 19.6657 22.0004 21.9996 22.0004C24.3335 22.0004 26.5718 21.0733 28.2222 19.4229C29.8725 17.7726 30.7996 15.5343 30.7996 13.2004C30.7996 10.8665 29.8725 8.62817 28.2222 6.97785C26.5718 5.32753 24.3335 4.40039 21.9996 4.40039ZM11.0194 24.2004C10.44 24.1981 9.86585 24.3102 9.32986 24.5302C8.79387 24.7503 8.3066 25.074 7.89598 25.4827C7.48536 25.8915 7.15948 26.3773 6.93702 26.9123C6.71455 27.4473 6.59989 28.021 6.59961 28.6004C6.59961 32.3206 8.43221 35.1256 11.2966 36.9538C14.117 38.7512 17.9186 39.6004 21.9996 39.6004C26.0806 39.6004 29.8822 38.7512 32.7026 36.9538C35.567 35.1278 37.3996 32.3184 37.3996 28.6004C37.3996 27.4334 36.936 26.3143 36.1109 25.4891C35.2857 24.664 34.1666 24.2004 32.9996 24.2004H11.0194Z" fill="#4B4B4B"/>
</g>
</g>
<defs>
<clipPath id="clip0_5540_12720">
<rect width="44" height="44" fill="white"/>
</clipPath>
</defs>
</svg>
