<svg width="20" height="20" viewBox="0 0 20 20" fill="none" xmlns="http://www.w3.org/2000/svg">
<g opacity="0.6">
<path d="M8.48125 9.79737C8.39687 9.88026 8.25625 9.88026 8.17188 9.79737L6.37188 8.02895C6.25938 7.94605 6.25938 7.80789 6.37188 7.725L8.17188 5.95658C8.25625 5.87368 8.39687 5.87368 8.48125 5.95658L8.79063 6.26053C8.875 6.34342 8.875 6.48158 8.79063 6.56447L7.46875 7.86316L8.79063 9.18947C8.875 9.27237 8.875 9.41053 8.79063 9.49342L8.48125 9.79737ZM11.1813 9.49342C11.1531 9.46579 11.125 9.38289 11.125 9.32763C11.125 9.27237 11.1531 9.21711 11.1813 9.18947L12.5031 7.86316L11.1813 6.56447C11.0969 6.48158 11.0969 6.34342 11.1813 6.26053L11.4906 5.95658C11.575 5.87368 11.7156 5.87368 11.8 5.95658L13.6 7.725C13.7125 7.80789 13.7125 7.94605 13.6 8.02895L11.8 9.79737C11.7156 9.88026 11.575 9.88026 11.4906 9.79737L11.1813 9.49342ZM18.55 12.2842C18.775 12.2842 19 12.5053 19 12.7263V14.0526C19 15.2961 17.9875 16.2632 16.75 16.2632H3.25C1.98438 16.2632 1 15.2961 1 14.0526V12.7263C1 12.5053 1.19688 12.2842 1.45 12.2842H2.8V4.76842C2.8 3.80132 3.5875 3 4.6 3H15.4C16.3844 3 17.2 3.80132 17.2 4.76842V12.2842H18.55ZM3.7 4.76842V12.2842H7.975C8.0875 12.2842 8.17188 12.3947 8.2 12.5053C8.3125 12.8921 8.65 13.1684 9.1 13.1684H10.9C11.3219 13.1684 11.6594 12.8921 11.7719 12.5053C11.8 12.3947 11.8844 12.2842 11.9969 12.2842H16.3V4.76842C16.3 4.29868 15.8781 3.88421 15.4 3.88421H4.6C4.09375 3.88421 3.7 4.29868 3.7 4.76842ZM18.1 14.0526V13.1684H12.6156C12.4187 13.6934 11.9125 14.0526 11.35 14.0526H8.65C8.05938 14.0526 7.55312 13.6934 7.35625 13.1684H1.9V14.0526C1.9 14.7987 2.49063 15.3789 3.25 15.3789H16.75C17.4813 15.3789 18.1 14.7987 18.1 14.0526Z" fill="#EFEEEE"/>
</g>
</svg>
