<svg width="23" height="18" viewBox="0 0 23 18" fill="none" xmlns="http://www.w3.org/2000/svg">
<path d="M9.60156 9.02344C9.49609 9.12891 9.32031 9.12891 9.21484 9.02344L6.96484 6.77344C6.82422 6.66797 6.82422 6.49219 6.96484 6.38672L9.21484 4.13672C9.32031 4.03125 9.49609 4.03125 9.60156 4.13672L9.98828 4.52344C10.0938 4.62891 10.0938 4.80469 9.98828 4.91016L8.33594 6.5625L9.98828 8.25C10.0938 8.35547 10.0938 8.53125 9.98828 8.63672L9.60156 9.02344ZM12.9766 8.63672C12.9414 8.60156 12.9062 8.49609 12.9062 8.42578C12.9062 8.35547 12.9414 8.28516 12.9766 8.25L14.6289 6.5625L12.9766 4.91016C12.8711 4.80469 12.8711 4.62891 12.9766 4.52344L13.3633 4.13672C13.4688 4.03125 13.6445 4.03125 13.75 4.13672L16 6.38672C16.1406 6.49219 16.1406 6.66797 16 6.77344L13.75 9.02344C13.6445 9.12891 13.4688 9.12891 13.3633 9.02344L12.9766 8.63672ZM22.1875 12.1875C22.4688 12.1875 22.75 12.4688 22.75 12.75V14.4375C22.75 16.0195 21.4844 17.25 19.9375 17.25H3.0625C1.48047 17.25 0.25 16.0195 0.25 14.4375V12.75C0.25 12.4688 0.496094 12.1875 0.8125 12.1875H2.5V2.625C2.5 1.39453 3.48438 0.375 4.75 0.375H18.25C19.4805 0.375 20.5 1.39453 20.5 2.625V12.1875H22.1875ZM3.625 2.625V12.1875H8.96875C9.10938 12.1875 9.21484 12.3281 9.25 12.4688C9.39062 12.9609 9.8125 13.3125 10.375 13.3125H12.625C13.1523 13.3125 13.5742 12.9609 13.7148 12.4688C13.75 12.3281 13.8555 12.1875 13.9961 12.1875H19.375V2.625C19.375 2.02734 18.8477 1.5 18.25 1.5H4.75C4.11719 1.5 3.625 2.02734 3.625 2.625ZM21.625 14.4375V13.3125H14.7695C14.5234 13.9805 13.8906 14.4375 13.1875 14.4375H9.8125C9.07422 14.4375 8.44141 13.9805 8.19531 13.3125H1.375V14.4375C1.375 15.3867 2.11328 16.125 3.0625 16.125H19.9375C20.8516 16.125 21.625 15.3867 21.625 14.4375Z" fill="#E8EDEF"/>
</svg>
