<svg width="18" height="12" viewBox="0 0 18 12" fill="none" xmlns="http://www.w3.org/2000/svg">
<path fill-rule="evenodd" clip-rule="evenodd" d="M7.02934 0.46934C7.16979 0.609965 7.24868 0.800589 7.24868 0.99934C7.24868 1.19809 7.16979 1.38871 7.02934 1.52934L3.30934 5.24934H11.4993C12.4523 5.24934 13.8663 5.52934 15.0623 6.39034C16.2973 7.28034 17.2493 8.75534 17.2493 10.9993C17.2493 11.1983 17.1703 11.389 17.0297 11.5297C16.889 11.6703 16.6983 11.7493 16.4993 11.7493C16.3004 11.7493 16.1097 11.6703 15.969 11.5297C15.8284 11.389 15.7493 11.1983 15.7493 10.9993C15.7493 9.24334 15.0343 8.21934 14.1863 7.60834C13.2993 6.96934 12.2123 6.74934 11.4993 6.74934H3.30934L7.02934 10.4693C7.10303 10.538 7.16213 10.6208 7.20312 10.7128C7.24411 10.8048 7.26616 10.9041 7.26793 11.0048C7.26971 11.1055 7.25118 11.2055 7.21346 11.2989C7.17574 11.3923 7.1196 11.4772 7.04838 11.5484C6.97716 11.6196 6.89233 11.6757 6.79894 11.7135C6.70555 11.7512 6.60552 11.7697 6.50482 11.7679C6.40412 11.7662 6.3048 11.7441 6.2128 11.7031C6.1208 11.6621 6.038 11.603 5.96934 11.5293L0.96934 6.52934C0.82889 6.38871 0.75 6.19809 0.75 5.99934C0.75 5.80059 0.82889 5.60997 0.96934 5.46934L5.96934 0.46934C6.10997 0.328889 6.30059 0.25 6.49934 0.25C6.69809 0.25 6.88871 0.328889 7.02934 0.46934Z" fill="#EFEEEE"/>
</svg>
