<svg width="23" height="24" viewBox="0 0 23 24" fill="none" xmlns="http://www.w3.org/2000/svg">
<path d="M1.50391 14.8278V23.5328H17.2343V12.6443C16.955 12.6835 16.6692 12.7036 16.3793 12.7036C13.0008 12.7036 10.2621 9.96537 10.2621 6.58695C10.2621 5.23977 10.6973 3.99439 11.4356 2.98438H1.50391V10.7187" stroke="white" stroke-miterlimit="10" stroke-linecap="round" stroke-linejoin="round"/>
<path d="M6.23962 18.0742H3.98438V20.82H6.23962V18.0742Z" stroke="white" stroke-miterlimit="10" stroke-linecap="round" stroke-linejoin="round"/>
<path d="M10.4958 13.5312H8.28516V20.8221H10.4958V13.5312Z" stroke="white" stroke-miterlimit="10" stroke-linecap="round" stroke-linejoin="round"/>
<path d="M14.7536 16.6914H12.543V20.8213H14.7536V16.6914Z" stroke="white" stroke-miterlimit="10" stroke-linecap="round" stroke-linejoin="round"/>
<path d="M3.98438 20.8203H14.7548" stroke="white" stroke-miterlimit="10" stroke-linecap="round" stroke-linejoin="round"/>
<path d="M22.4955 6.58542C22.4955 8.27484 21.811 9.80367 20.7038 10.9108C19.5972 12.0175 18.0679 12.702 16.3789 12.702C13.0004 12.702 10.2617 9.96384 10.2617 6.58542C10.2617 3.20747 13.0004 0.46875 16.3789 0.46875C18.0734 0.46875 19.6074 1.158 20.7146 2.27166C21.8156 3.37744 22.4955 4.90205 22.4955 6.58542Z" stroke="white" stroke-miterlimit="10" stroke-linecap="round" stroke-linejoin="round"/>
<path d="M22.4965 6.5872C22.4965 8.27662 21.812 9.80545 20.7048 10.9126L16.3906 6.59836L20.7156 2.27344C21.8166 3.37922 22.4965 4.90383 22.4965 6.5872Z" stroke="white" stroke-miterlimit="10" stroke-linecap="round" stroke-linejoin="round"/>
<path d="M20.7146 2.27166L16.3789 6.59658V0.46875C18.0735 0.46875 19.6075 1.158 20.7146 2.27166Z" stroke="white" stroke-miterlimit="10" stroke-linecap="round" stroke-linejoin="round"/>
<path d="M4.32812 6.21094H7.83611" stroke="white" stroke-miterlimit="10" stroke-linecap="round" stroke-linejoin="round"/>
<path d="M4.32812 8.43359H7.91294" stroke="white" stroke-miterlimit="10" stroke-linecap="round" stroke-linejoin="round"/>
<path d="M4.32812 10.6562H9.01825" stroke="white" stroke-miterlimit="10" stroke-linecap="round" stroke-linejoin="round"/>
</svg>
