<svg width="24" height="24" viewBox="0 0 24 24" fill="none" xmlns="http://www.w3.org/2000/svg">
<g clip-path="url(#clip0_1044_884)">
<path d="M21.1759 3.52941V2.11765H18.3524C18.3524 0.949977 17.4025 0 16.2348 0C15.0671 0 14.1171 0.949977 14.1171 2.11765H11.2936V3.52941H8.47007V7.76856C6.99214 7.74362 5.50621 8.29346 4.38094 9.41868C2.70842 11.0912 2.30677 13.5603 3.17515 15.6158L0.619759 18.1713C-0.205935 18.997 -0.205935 20.3404 0.619759 21.1661C1.44536 21.9917 2.78879 21.9919 3.61454 21.1661L6.17006 18.6106C6.87317 18.9077 7.65482 19.069 8.47011 19.055V24H23.9995V3.52941H21.1759ZM12.7054 3.52941H15.5289V2.11765C15.5289 1.72842 15.8455 1.41176 16.2348 1.41176C16.624 1.41176 16.9407 1.72842 16.9407 2.11765V3.52941H19.7642V4.94118H12.7054V3.52941ZM2.61628 20.1678C2.34098 20.443 1.89331 20.443 1.61802 20.1678C1.34277 19.8926 1.34277 19.4448 1.61802 19.1695L3.91294 16.8745C4.19839 17.2417 4.53218 17.5782 4.91129 17.8728L2.61628 20.1678ZM5.37924 16.4066C3.7279 14.7552 3.7279 12.0683 5.37924 10.417C7.03039 8.76593 9.71731 8.76546 11.3689 10.417C13.0202 12.0683 13.0202 14.7552 11.3689 16.4066C9.71755 18.0578 7.03063 18.0579 5.37924 16.4066ZM22.5877 22.5882H9.88183V18.8524C10.7927 18.6016 11.6527 18.1193 12.3671 17.4048C14.5689 15.203 14.5689 11.6205 12.3671 9.41868C11.6526 8.70424 10.7927 8.22188 9.88183 7.97111V4.94118H11.2936V6.35294H21.1759V4.94118H22.5877V22.5882Z" fill="white"/>
<path d="M14.1172 8.4707H21.176V9.88247H14.1172V8.4707Z" fill="white"/>
<path d="M15.5293 11.2939H21.1764V12.7057H15.5293V11.2939Z" fill="white"/>
<path d="M15.5293 14.1172H21.1764V15.529H15.5293V14.1172Z" fill="white"/>
<path d="M14.1172 16.9414H21.176V18.3532H14.1172V16.9414Z" fill="white"/>
</g>
<defs>
<clipPath id="clip0_1044_884">
<rect width="24" height="24" fill="white"/>
</clipPath>
</defs>
</svg>
