<svg width="24" height="24" viewBox="0 0 24 24" fill="none" xmlns="http://www.w3.org/2000/svg">
<path fill-rule="evenodd" clip-rule="evenodd" d="M17.7595 16.2695C16.9366 16.2695 16.2695 16.9366 16.2695 17.7595C16.2695 18.5824 16.9366 19.2495 17.7595 19.2495C18.5824 19.2495 19.2495 18.5824 19.2495 17.7595C19.2495 16.9366 18.5824 16.2695 17.7595 16.2695ZM14.7695 17.7595C14.7695 16.1082 16.1082 14.7695 17.7595 14.7695C19.4109 14.7695 20.7495 16.1082 20.7495 17.7595C20.7495 19.4109 19.4109 20.7495 17.7595 20.7495C16.1082 20.7495 14.7695 19.4109 14.7695 17.7595Z" fill="#DEDEDE"/>
<path fill-rule="evenodd" clip-rule="evenodd" d="M6.24 16.2695C5.4171 16.2695 4.75 16.9366 4.75 17.7595C4.75 18.5824 5.4171 19.2495 6.24 19.2495C7.0629 19.2495 7.73 18.5824 7.73 17.7595C7.73 16.9366 7.0629 16.2695 6.24 16.2695ZM3.25 17.7595C3.25 16.1082 4.58867 14.7695 6.24 14.7695C7.89133 14.7695 9.23 16.1082 9.23 17.7595C9.23 19.4109 7.89133 20.7495 6.24 20.7495C4.58867 20.7495 3.25 19.4109 3.25 17.7595Z" fill="#DEDEDE"/>
<path fill-rule="evenodd" clip-rule="evenodd" d="M6.24 4.75C5.4171 4.75 4.75 5.4171 4.75 6.24C4.75 7.0629 5.4171 7.73 6.24 7.73C7.0629 7.73 7.73 7.0629 7.73 6.24C7.73 5.4171 7.0629 4.75 6.24 4.75ZM3.25 6.24C3.25 4.58867 4.58867 3.25 6.24 3.25C7.89133 3.25 9.23 4.58867 9.23 6.24C9.23 7.89133 7.89133 9.23 6.24 9.23C4.58867 9.23 3.25 7.89133 3.25 6.24Z" fill="#DEDEDE"/>
<path fill-rule="evenodd" clip-rule="evenodd" d="M14.0486 3.40004C14.38 3.64857 14.4471 4.11867 14.1986 4.45004L13.1786 5.81004H15.5186C16.2742 5.81004 16.9787 5.99945 17.4889 6.50971C17.9992 7.01997 18.1886 7.72444 18.1886 8.48004V14.88C18.1886 15.2943 17.8528 15.63 17.4386 15.63C17.0244 15.63 16.6886 15.2943 16.6886 14.88V8.48004C16.6886 7.95565 16.558 7.70011 16.4283 7.57037C16.2985 7.44063 16.043 7.31004 15.5186 7.31004H13.1786L14.1986 8.67004C14.4471 9.00142 14.38 9.47152 14.0486 9.72004C13.7172 9.96857 13.2471 9.90141 12.9986 9.57004L11.0786 7.01004C10.8786 6.74338 10.8786 6.37671 11.0786 6.11004L12.9986 3.55004C13.2471 3.21867 13.7172 3.15152 14.0486 3.40004ZM6.55859 8.37004C6.97281 8.37004 7.30859 8.70583 7.30859 9.12004V14.88C7.30859 15.2943 6.97281 15.63 6.55859 15.63C6.14438 15.63 5.80859 15.2943 5.80859 14.88V9.12004C5.80859 8.70583 6.14438 8.37004 6.55859 8.37004Z" fill="#DEDEDE"/>
</svg>
