<svg width="171" height="151" viewBox="0 0 171 151" fill="none" xmlns="http://www.w3.org/2000/svg">
<path d="M149.854 150.748H123.511V136.636C123.565 131.697 122.636 126.797 120.779 122.221C118.921 117.645 116.172 113.483 112.691 109.979C109.366 106.362 105.315 103.486 100.802 101.541C96.2901 99.5955 91.4182 98.6238 86.5049 98.6893C81.5726 98.6089 76.6784 99.5654 72.1392 101.497C67.6001 103.428 63.5171 106.291 60.1549 109.901C56.6617 113.412 53.9057 117.585 52.0488 122.177C50.192 126.768 49.2717 131.684 49.3421 136.636V150.748H22.9989V136.636C22.954 126.793 25.2932 117.085 29.8165 108.343C34.3297 99.5451 40.859 91.9388 48.8717 86.1449C40.8748 80.3705 34.3475 72.7969 29.8165 64.0354C25.2863 55.3201 22.9464 45.6328 22.9989 35.8105V27.1863H49.3421V35.8105C49.2717 40.7626 50.192 45.6787 52.0488 50.27C53.9057 54.8612 56.6617 59.035 60.1549 62.5458C63.5164 66.1545 67.5982 69.0171 72.1361 70.9485C76.674 72.8798 81.5669 73.8367 86.4981 73.7573C91.4131 73.8229 96.2866 72.8506 100.8 70.904C105.314 68.9574 109.366 66.0802 112.691 62.4605C116.172 58.9565 118.921 54.7952 120.779 50.2189C122.636 45.6425 123.565 40.7424 123.511 35.8037V27.1794H149.854V35.8037C149.907 45.626 147.567 55.3133 143.036 64.0286C138.532 72.7598 132.064 80.3278 124.141 86.1381C132.093 91.9817 138.565 99.6077 143.036 108.404C147.544 117.128 149.882 126.81 149.854 136.629V150.748Z" fill="#EF018F"/>
<path d="M164.875 48.2346C164.875 48.2346 158.75 45.4922 158.75 42.1095V6.12519C158.75 2.74245 161.492 0 164.875 0C168.257 0 171 2.74245 171 6.12519L170.999 42.109L164.875 48.2346Z" fill="#CFCFE6"/>
<path d="M170.999 42.1085V58.9038C170.999 69.0348 162.754 77.2793 152.623 77.2793C142.492 77.2793 134.248 69.0348 134.248 58.9038V42.1085C134.248 31.9774 142.492 23.7329 152.623 23.7329C162.754 23.7329 170.999 31.9774 170.999 42.1085Z" fill="#437FEC"/>
<path d="M6.12519 48.2346L0 42.1095V6.12519C0 2.74245 2.74245 0 6.12519 0C9.50793 0 12.2504 2.74245 12.2504 6.12519V42.1095C12.2504 45.4922 6.12519 48.2346 6.12519 48.2346Z" fill="#E6E6F2"/>
<path d="M36.7511 42.1085V58.9038C36.7511 69.0348 28.5066 77.2793 18.3756 77.2793C8.24451 77.2793 0 69.0348 0 58.9038V42.1085C0 31.9774 8.24451 23.7329 18.3756 23.7329C28.5066 23.7329 36.7511 31.9774 36.7511 42.1085Z" fill="#02ADEE"/>
<path d="M85.4997 27.208L104.979 73.9146L85.4997 98.4154H73.9231C46.6701 98.4154 24.501 76.2463 24.501 48.9933V33.3332L30.6262 27.208H85.4997Z" fill="#FE48B5"/>
<path d="M146.498 33.3332V48.9933C146.498 76.2463 124.329 98.4154 97.0761 98.4154H85.4995V27.208H140.373L146.498 33.3332Z" fill="#EF018F"/>
<path d="M85.4995 6.12524L104.979 29.1678L85.4995 60.5455H57.8341C42.8069 60.5455 30.626 48.3646 30.626 33.3333C30.626 25.8198 33.6722 19.0167 38.5969 14.0921C43.5175 9.17151 50.3205 6.12524 57.8341 6.12524H85.4995Z" fill="#574D8C"/>
<path d="M140.373 33.3333C140.373 40.8469 137.327 47.6499 132.402 52.5746C127.482 57.4993 120.679 60.5455 113.165 60.5455H85.4995V6.12524H113.165C128.192 6.12524 140.373 18.3062 140.373 33.3333Z" fill="#3E3373"/>
<path d="M57.7321 39.2052C61.115 39.2052 63.8573 36.4629 63.8573 33.08C63.8573 29.6972 61.115 26.9548 57.7321 26.9548C54.3493 26.9548 51.6069 29.6972 51.6069 33.08C51.6069 36.4629 54.3493 39.2052 57.7321 39.2052Z" fill="#02ADEE"/>
<path d="M113.267 39.2052C116.65 39.2052 119.392 36.4629 119.392 33.08C119.392 29.6972 116.65 26.9548 113.267 26.9548C109.884 26.9548 107.142 29.6972 107.142 33.08C107.142 36.4629 109.884 39.2052 113.267 39.2052Z" fill="#02ADEE"/>
<path d="M57.8343 12.2504H85.4997L95.3237 5.69153L85.4997 0H57.8343C39.4546 0 24.501 14.9536 24.501 33.3333C24.501 51.717 39.4546 66.6707 57.8343 66.6707H85.4997L91.7584 58.6826L85.4997 54.4203H57.8343C46.2087 54.4203 36.7514 44.963 36.7514 33.3333C36.7514 21.7077 46.2087 12.2504 57.8343 12.2504Z" fill="#CCEEFF"/>
<path d="M146.498 33.3333C146.498 51.717 131.545 66.6707 113.165 66.6707H85.4995V54.4203H113.165C124.791 54.4203 134.248 44.963 134.248 33.3333C134.248 21.7077 124.791 12.2504 113.165 12.2504H85.4995V0H113.165C131.545 0 146.498 14.9536 146.498 33.3333Z" fill="#99DDFF"/>
</svg>
