<svg width="23" height="19" viewBox="0 0 23 19" fill="none" xmlns="http://www.w3.org/2000/svg">
<path d="M19.1641 7.17578L19.0938 7.03516C18.9531 7.03516 18.8125 7.03516 18.6367 7.03516L18.5664 7.17578C18.3555 7.49219 17.9688 7.63281 17.582 7.52734C17.125 7.38672 16.7734 7.21094 16.3867 6.89453C16.0703 6.64844 16 6.19141 16.2109 5.83984L16.2812 5.66406C16.2109 5.55859 16.1406 5.41797 16.0703 5.3125H15.7539C15.332 5.3125 15.0156 4.99609 14.9102 4.60938C14.8398 4.11719 14.8398 3.76562 14.9453 3.27344C15.0156 2.85156 15.3672 2.57031 15.7539 2.57031H16.0703C16.1406 2.42969 16.2109 2.32422 16.2812 2.18359L16.2109 2.04297C16 1.69141 16.0703 1.23438 16.3867 0.988281C16.7383 0.671875 17.0898 0.460938 17.5469 0.320312C17.9336 0.179688 18.3555 0.320312 18.5664 0.671875L18.6367 0.847656C18.8125 0.8125 18.9531 0.8125 19.0938 0.847656L19.1641 0.671875C19.375 0.320312 19.7969 0.179688 20.1836 0.320312C20.6406 0.460938 20.957 0.636719 21.3438 0.988281C21.6602 1.23438 21.7305 1.69141 21.5195 2.04297L21.4492 2.18359C21.5195 2.32422 21.5898 2.42969 21.6602 2.57031H21.8359C22.2578 2.57031 22.5742 2.85156 22.6797 3.27344C22.75 3.73047 22.75 4.11719 22.6797 4.60938C22.5742 4.99609 22.2227 5.3125 21.8359 5.3125H21.6602C21.5898 5.41797 21.5195 5.55859 21.4492 5.66406L21.5195 5.83984C21.7305 6.19141 21.6602 6.64844 21.3438 6.89453C20.957 7.21094 20.6406 7.35156 20.1484 7.52734C19.7617 7.63281 19.375 7.49219 19.1641 7.17578ZM19.5859 5.94531L19.9727 6.61328C20.2188 6.50781 20.4297 6.36719 20.6406 6.22656L20.2539 5.59375L20.4648 5.3125C20.6406 5.10156 20.7812 4.89062 20.8516 4.64453L20.9922 4.32812H21.7305C21.7656 4.08203 21.7656 3.80078 21.7305 3.55469H20.9922L20.8516 3.23828C20.7812 2.99219 20.6406 2.74609 20.4648 2.57031L20.2539 2.28906L20.6406 1.65625C20.4297 1.48047 20.2188 1.375 19.9727 1.26953L19.5859 1.90234L19.2695 1.86719C18.9883 1.79688 18.7422 1.79688 18.4609 1.86719L18.1445 1.90234L17.7578 1.26953C17.5469 1.375 17.3008 1.48047 17.125 1.65625L17.4766 2.28906L17.2656 2.57031C17.0898 2.74609 16.9492 2.99219 16.8789 3.23828L16.7383 3.55469H16C15.9648 3.80078 15.9648 4.04688 16 4.32812H16.7383L16.8789 4.64453C16.9492 4.89062 17.0898 5.10156 17.2656 5.3125L17.4766 5.55859L17.125 6.22656C17.3008 6.36719 17.5469 6.50781 17.7578 6.61328L18.1445 5.94531L18.4961 6.01562C18.7422 6.08594 18.9883 6.08594 19.2695 6.01562L19.5859 5.94531ZM5.34766 16.2461V15.1211C4.89062 14.9453 4.46875 14.6992 4.04688 14.3828L3.09766 14.9453C2.74609 15.1562 2.32422 15.0859 2.04297 14.7695C1.19922 13.8555 0.707031 13.0469 0.285156 11.6758C0.144531 11.3242 0.320312 10.9023 0.636719 10.6914L1.62109 10.1289C1.55078 9.63672 1.55078 9.14453 1.62109 8.65234L0.636719 8.125C0.320312 7.91406 0.144531 7.49219 0.285156 7.14062C0.707031 5.76953 1.19922 4.96094 2.04297 4.01172C2.32422 3.73047 2.74609 3.66016 3.09766 3.87109L4.04688 4.43359C4.46875 4.11719 4.89062 3.87109 5.34766 3.69531V2.57031C5.34766 2.18359 5.62891 1.83203 6.01562 1.76172C7.21094 1.48047 8.19531 1.44531 9.56641 1.76172C9.95312 1.83203 10.2344 2.18359 10.2344 2.57031V3.69531C10.6914 3.87109 11.1133 4.11719 11.5352 4.43359L12.4844 3.87109C12.8359 3.66016 13.2578 3.73047 13.5391 4.01172C14.4883 5.06641 14.9805 5.98047 15.3672 7.14062C15.4727 7.49219 15.332 7.91406 15.0156 8.125L14.1367 8.65234C14.1719 9.14453 14.1719 9.67188 14.1367 10.1641L15.1211 10.7617C15.4023 10.9375 15.5781 11.3242 15.5078 11.6758C15.2617 12.7656 14.3477 13.9258 13.5391 14.8047C13.2578 15.0859 12.8359 15.1562 12.4844 14.9453L11.5352 14.3828C11.1133 14.6992 10.6914 14.9453 10.2344 15.1211V16.2461C10.2344 16.6328 9.95312 16.9844 9.56641 17.0547C8.26562 17.3711 7.28125 17.3711 5.98047 17.0547C5.62891 16.9844 5.34766 16.6328 5.34766 16.2461ZM6.47266 16.0352C7.35156 16.2109 8.23047 16.2109 9.10938 16.0352V14.3477L9.49609 14.207C10.0938 13.9961 10.6211 13.6797 11.1133 13.293L11.3945 13.0117L12.8711 13.8555C13.4688 13.1875 14.0664 12.4141 14.3477 11.5703L12.8711 10.7266L12.9766 10.3398C13.082 9.70703 13.082 9.07422 12.9766 8.47656L12.8711 8.08984L14.3477 7.24609C14.0664 6.40234 13.4688 5.62891 12.8711 4.96094L11.3945 5.80469L11.1133 5.52344C10.6211 5.10156 10.0938 4.82031 9.49609 4.60938L9.10938 4.46875V2.78125C8.23047 2.60547 7.35156 2.60547 6.47266 2.78125V4.46875L6.08594 4.60938C5.48828 4.82031 4.96094 5.13672 4.46875 5.52344L4.1875 5.80469L2.71094 4.96094C2.21875 5.52344 1.62109 6.54297 1.41016 7.24609L2.85156 8.08984L2.78125 8.47656C2.67578 9.10938 2.67578 9.70703 2.78125 10.3398L2.85156 10.7266L1.41016 11.5703C1.69141 12.4141 2.11328 13.1875 2.71094 13.8555L4.1875 13.0117L4.46875 13.293C4.96094 13.6797 5.48828 13.9961 6.08594 14.207L6.47266 14.3477V16.0352ZM7.80859 12.3086C6.22656 12.3086 4.89062 11.0078 4.89062 9.39062C4.89062 7.80859 6.22656 6.50781 7.80859 6.50781C9.42578 6.50781 10.7266 7.80859 10.7266 9.39062C10.7266 11.0078 9.42578 12.3086 7.80859 12.3086ZM7.80859 7.63281C6.82422 7.63281 6.01562 8.40625 6.01562 9.39062C6.01562 10.4102 6.82422 11.1836 7.80859 11.1836C8.79297 11.1836 9.60156 10.4102 9.60156 9.39062C9.60156 8.40625 8.79297 7.63281 7.80859 7.63281ZM19.1641 17.8633L19.0938 17.7227C18.9531 17.7578 18.8125 17.7578 18.6367 17.7227L18.5664 17.8633C18.3555 18.2148 17.9688 18.3555 17.582 18.2148C17.125 18.0742 16.7734 17.9336 16.3867 17.582C16.0703 17.3359 16 16.8789 16.2109 16.5273L16.2812 16.3867C16.2109 16.2461 16.1406 16.1406 16.0703 16H15.7539C15.332 16 15.0156 15.7188 14.9102 15.2969C14.8398 14.8398 14.8398 14.4531 14.9453 13.9609C15.0156 13.5742 15.3672 13.2578 15.7539 13.2578H16.0703C16.1406 13.1523 16.2109 13.0117 16.2812 12.9062L16.2109 12.7305C16 12.3789 16.0703 11.957 16.3867 11.6758C16.7383 11.3594 17.0898 11.1836 17.5469 11.0078C17.9336 10.8672 18.3555 11.043 18.5664 11.3945L18.6367 11.5352C18.8125 11.5352 18.9531 11.5352 19.0938 11.5352L19.1641 11.3945C19.375 11.043 19.7969 10.8672 20.1836 11.0078C20.6406 11.1836 20.957 11.3594 21.3438 11.6758C21.6602 11.957 21.7305 12.3789 21.5195 12.7305L21.4492 12.9062C21.5195 13.0117 21.5898 13.1523 21.6602 13.2578H21.8359C22.2578 13.2578 22.5742 13.5742 22.6797 13.9609C22.75 14.4531 22.75 14.8047 22.6797 15.332C22.5742 15.7188 22.2227 16 21.8359 16H21.6602C21.5898 16.1406 21.5195 16.2461 21.4492 16.3867L21.5195 16.5273C21.7305 16.8789 21.6602 17.3359 21.3438 17.582C20.957 17.8984 20.6406 18.0742 20.1484 18.2148C19.7617 18.3555 19.375 18.1797 19.1641 17.8633ZM19.5859 16.668L19.9727 17.3008C20.2188 17.1953 20.4297 17.0898 20.6406 16.9141L20.2539 16.2812L20.4648 16C20.6406 15.8242 20.7812 15.5781 20.8516 15.332L20.9922 15.0156H21.7305C21.7656 14.7695 21.7656 14.5234 21.7305 14.2422H20.9922L20.8516 13.9258C20.7812 13.6797 20.6406 13.4688 20.4648 13.2578L20.2539 13.0117L20.6406 12.3438C20.4297 12.2031 20.2188 12.0625 19.9727 11.957L19.5859 12.625L19.2695 12.5547C18.9883 12.5195 18.7422 12.5195 18.4961 12.5547L18.1445 12.625L17.7578 11.957C17.5469 12.0625 17.3008 12.2031 17.125 12.3438L17.4766 13.0117L17.2656 13.2578C17.0898 13.4688 16.9492 13.6797 16.8789 13.9258L16.7383 14.2422H16C15.9648 14.5234 15.9648 14.7695 16 15.0156H16.7383L16.8789 15.332C16.9492 15.5781 17.0898 15.8242 17.2656 16L17.4766 16.2812L17.125 16.9141C17.3008 17.0898 17.5469 17.1953 17.7578 17.3008L18.1445 16.668L18.4961 16.7031C18.7422 16.7734 18.9883 16.7734 19.2695 16.7031L19.5859 16.668ZM19.9375 14.5938C19.9375 15.2266 19.4102 15.7188 18.8125 15.7188C18.1797 15.7188 17.6875 15.2266 17.6875 14.5938C17.6875 13.9961 18.1797 13.4688 18.8125 13.4688C19.4102 13.4688 19.9375 13.9961 19.9375 14.5938ZM19.9375 3.90625C19.9375 4.53906 19.4102 5.03125 18.8125 5.03125C18.1797 5.03125 17.6875 4.53906 17.6875 3.90625C17.6875 3.27344 18.1797 2.78125 18.8125 2.78125C19.4102 2.78125 19.9375 3.27344 19.9375 3.90625Z" fill="#E8EDEF"/>
</svg>
