<svg width="24" height="24" viewBox="0 0 24 24" fill="none" xmlns="http://www.w3.org/2000/svg">
<path d="M20.5481 13.577C20.9255 13.7583 21.0764 14.1934 20.9632 14.5559C20.5481 15.9335 19.7933 17.1662 18.8121 18.1813C18.5101 18.4713 18.0573 18.5438 17.6799 18.3263L16.4722 17.6375C16.057 17.9637 15.34 18.3625 14.8494 18.5438V19.8852C14.8494 20.3202 14.5852 20.6465 14.17 20.7553C12.7359 21.0816 11.2641 21.0816 9.82996 20.7553C9.41482 20.6465 9.15064 20.3202 9.15064 19.8852V18.5438C8.66002 18.3625 7.94296 17.9637 7.52782 17.6375L6.32014 18.3263C5.94274 18.5438 5.48987 18.4713 5.18795 18.1813C4.20671 17.1662 3.45191 15.9335 3.03677 14.5559C2.92355 14.1934 3.07451 13.7583 3.45191 13.577L4.65959 12.8882C4.65959 12.6344 4.62185 12.2356 4.62185 11.9819C4.62185 11.7643 4.65959 11.3656 4.65959 11.1118L3.45191 10.423C3.07451 10.2417 2.92355 9.80665 3.03677 9.44411C3.45191 8.06646 4.20671 6.83384 5.18795 5.81873C5.48987 5.5287 5.94274 5.45619 6.32014 5.67372L7.52782 6.36254C7.94296 6.03625 8.66002 5.63746 9.15064 5.45619V4.1148C9.15064 3.67976 9.41482 3.35347 9.82996 3.24471C11.2641 2.91843 12.7359 2.91843 14.17 3.24471C14.5852 3.35347 14.8494 3.67976 14.8494 4.1148V5.45619C15.34 5.63746 16.057 6.03625 16.4722 6.36254L17.6799 5.67372C18.0573 5.45619 18.5101 5.5287 18.8121 5.81873C19.7933 6.83384 20.5481 8.06646 20.9632 9.44411C21.0764 9.80665 20.9255 10.2417 20.5481 10.423L19.3404 11.1118C19.3404 11.3656 19.3782 11.7643 19.3782 11.9819C19.3782 12.2356 19.3404 12.6344 19.3404 12.8882L20.5481 13.577ZM18.095 17.2024C18.8121 16.4048 19.3782 15.4622 19.7556 14.4471L17.9818 13.5045C18.246 12.1994 18.246 11.8006 17.9818 10.4955L19.7556 9.55287C19.3782 8.53776 18.8121 7.59517 18.095 6.79758L16.3212 7.77643C15.3022 6.90634 14.9248 6.68882 13.6417 6.25378V4.33233C13.1888 4.22356 12.4717 4.15106 12.0189 4.15106C11.5283 4.15106 10.8112 4.22356 10.3583 4.33233V6.25378C9.07516 6.68882 8.69776 6.90634 7.67878 7.77643L5.905 6.79758C5.18795 7.59517 4.62185 8.53776 4.24445 9.55287L6.01822 10.4955C5.75405 11.8006 5.75405 12.1994 6.01822 13.5045L4.24445 14.4471C4.62185 15.4622 5.18795 16.4048 5.905 17.2024L7.67878 16.2236C8.69776 17.0937 9.07516 17.3112 10.3583 17.7462V19.6677C10.8112 19.7764 11.5283 19.8489 12.0189 19.8489C12.4717 19.8489 13.1888 19.7764 13.6417 19.6677V17.7462C14.9626 17.2749 15.3022 17.0937 16.3212 16.2236L18.095 17.2024ZM12.0189 8.50151C13.9813 8.50151 15.6419 10.0967 15.6419 11.9819C15.6419 13.9033 13.9813 15.4622 12.0189 15.4622C10.0187 15.4622 8.39584 13.9033 8.39584 11.9819C8.39584 10.0967 10.0187 8.50151 12.0189 8.50151ZM12.0189 14.3021C13.3398 14.3021 14.4342 13.287 14.4342 11.9819C14.4342 10.713 13.3398 9.66163 12.0189 9.66163C10.6602 9.66163 9.60352 10.713 9.60352 11.9819C9.60352 13.287 10.6602 14.3021 12.0189 14.3021Z" fill="#DEDEDE"/>
</svg>
