<svg width="24" height="24" viewBox="0 0 24 24" fill="none" xmlns="http://www.w3.org/2000/svg">
<g clip-path="url(#clip0_1044_798)">
<mask id="mask0_1044_798" style="mask-type:luminance" maskUnits="userSpaceOnUse" x="0" y="0" width="24" height="24">
<path d="M0 1.90735e-06H24V24H0V1.90735e-06Z" fill="white"/>
</mask>
<g mask="url(#mask0_1044_798)">
<path d="M10.5938 23.2969V20.3163C10.3742 20.3948 10.1377 20.4375 9.89062 20.4375C8.72564 20.4375 7.78125 19.4931 7.78125 18.3281C7.78125 17.1631 8.72564 16.2188 9.89062 16.2188C10.1377 16.2188 10.3742 16.2615 10.5938 16.3399V10.4726C10.8133 10.551 11.0498 10.5938 11.2969 10.5938C12.4619 10.5938 13.4062 9.64936 13.4062 8.48438C13.4062 7.31939 12.4619 6.375 11.2969 6.375C11.0498 6.375 10.8133 6.41775 10.5938 6.49617V3.51563" stroke="white" stroke-width="1.5" stroke-miterlimit="10"/>
<path d="M20.4844 13.4062H17.5038C17.5822 13.6257 17.625 13.8623 17.625 14.1094C17.625 15.2744 16.6806 16.2188 15.5156 16.2188C14.3506 16.2188 13.4062 15.2744 13.4062 14.1094C13.4062 13.8623 13.449 13.6257 13.5274 13.4062H7.66008C7.7385 13.1868 7.78125 12.9502 7.78125 12.7031C7.78125 11.5381 6.83686 10.5938 5.67187 10.5938C4.50689 10.5938 3.5625 11.5381 3.5625 12.7031C3.5625 12.9502 3.60525 13.1868 3.68367 13.4062H0.703125" stroke="white" stroke-width="1.5" stroke-miterlimit="10"/>
<path d="M20.4844 13.4063V10.4571C20.7057 10.5371 20.9379 10.5938 21.1875 10.5938C22.3525 10.5938 23.2969 9.64936 23.2969 8.48438C23.2969 7.31939 22.3525 6.375 21.1875 6.375C20.9379 6.375 20.7057 6.43163 20.4844 6.51164V3.51563H17.4884C17.5684 3.29428 17.625 3.06211 17.625 2.8125C17.625 1.64752 16.6806 0.703127 15.5156 0.703127C14.3506 0.703127 13.4062 1.64752 13.4062 2.8125C13.4062 3.06211 13.4629 3.29428 13.5429 3.51563H10.5937C5.15719 3.51563 0.703125 7.96969 0.703125 13.4063C0.703125 18.8428 5.15719 23.2969 10.5937 23.2969C16.0303 23.2969 20.4844 18.8428 20.4844 13.4063Z" stroke="white" stroke-width="1.5" stroke-miterlimit="10"/>
</g>
</g>
<defs>
<clipPath id="clip0_1044_798">
<rect width="24" height="24" fill="white"/>
</clipPath>
</defs>
</svg>
