<svg width="62" height="62" viewBox="0 0 62 62" fill="none" xmlns="http://www.w3.org/2000/svg">
<path d="M40.0215 8.90138C33.3569 8.7681 26.4828 12.5846 24.5972 21.1961C16.9226 18.5766 9.99321 23.7431 10.713 31.9924C6.69756 33.6155 3.875 37.5384 3.875 42.1491C3.875 48.2204 8.76268 53.1081 14.834 53.1081H28.1467C28.143 49.4184 28.1353 42.0151 28.1353 40.6127L25.0134 41.7442C22.7485 42.7202 21.0757 39.8682 23.0153 38.0924L28.9224 32.3517C30.2716 31.0026 31.8831 31.1573 33.0775 32.3517L38.9846 38.0924C40.9242 39.8682 39.2515 42.7202 36.9866 41.7442L33.8646 40.6127V53.1081H47.166C53.2373 53.1081 58.125 48.2204 58.125 42.1491C58.125 37.6806 55.4727 33.8607 51.6541 32.1513C59.0532 17.7266 49.762 9.09587 40.0215 8.90138Z" fill="#75B5FF"/>
<path d="M40.0217 8.89946C39.6505 8.89213 39.243 8.90488 38.8713 8.92136C30.3592 22.3364 43.5144 32.1487 51.6543 32.1487C59.0534 17.7239 49.7623 9.09328 40.0217 8.89878V8.89946Z" fill="#488BFF"/>
</svg>
