<svg width="32" height="32" viewBox="0 0 32 32" fill="none" xmlns="http://www.w3.org/2000/svg">
<g clip-path="url(#clip0_1134_1256)">
<path d="M2.86533 24.2253C2.51333 24.2253 2.172 24.04 1.98933 23.7107C0.689333 21.364 0 18.6973 0 16C0 7.17733 7.17733 0 16 0C18.572 0 21.1227 0.626667 23.3773 1.81067C23.8667 2.068 24.0547 2.672 23.7973 3.16133C23.5427 3.65067 22.9387 3.84 22.4467 3.58133C20.4773 2.54667 18.2493 2 16 2C8.28 2 2 8.28 2 16C2 18.3587 2.60133 20.6893 3.74 22.7413C4.00667 23.224 3.832 23.8333 3.35067 24.1013C3.196 24.1853 3.02933 24.2253 2.86533 24.2253Z" fill="#44B347"/>
<path d="M16.0002 32.0002C13.0362 32.0002 10.1442 31.1815 7.63753 29.6335C7.16686 29.3442 7.02153 28.7269 7.31086 28.2575C7.60153 27.7895 8.21886 27.6415 8.68686 27.9322C10.8789 29.2842 13.4082 30.0002 16.0002 30.0002C23.7202 30.0002 30.0002 23.7202 30.0002 16.0002C30.0002 13.4042 29.2855 10.8802 27.9322 8.70152C27.6415 8.23218 27.7869 7.61618 28.2549 7.32418C28.7242 7.03085 29.3402 7.17752 29.6309 7.64685C31.1815 10.1415 32.0002 13.0308 32.0002 16.0002C32.0002 24.8228 24.8229 32.0002 16.0002 32.0002Z" fill="#44B347"/>
<path d="M12.3332 15.0003C11.7812 15.0003 11.3332 14.5523 11.3332 14.0003C11.3332 13.2657 10.7358 12.667 9.99984 12.667C9.26384 12.667 8.6665 13.2657 8.6665 14.0003C8.6665 14.5523 8.2185 15.0003 7.6665 15.0003C7.1145 15.0003 6.6665 14.5523 6.6665 14.0003C6.6665 12.163 8.16117 10.667 9.99984 10.667C11.8385 10.667 13.3332 12.163 13.3332 14.0003C13.3332 14.5523 12.8852 15.0003 12.3332 15.0003Z" fill="#44B347"/>
<path d="M24.3332 15.0003C23.7812 15.0003 23.3332 14.5523 23.3332 14.0003C23.3332 13.2657 22.7358 12.667 21.9998 12.667C21.2638 12.667 20.6665 13.2657 20.6665 14.0003C20.6665 14.5523 20.2185 15.0003 19.6665 15.0003C19.1145 15.0003 18.6665 14.5523 18.6665 14.0003C18.6665 12.163 20.1612 10.667 21.9998 10.667C23.8385 10.667 25.3332 12.163 25.3332 14.0003C25.3332 14.5523 24.8852 15.0003 24.3332 15.0003Z" fill="#44B347"/>
<path d="M16.0002 23.9996C13.0882 23.9996 10.3522 22.8663 8.29349 20.8063C7.90282 20.4156 7.90282 19.7823 8.29349 19.3916C8.68415 19.001 9.31749 19.001 9.70816 19.3916C11.3882 21.0743 13.6228 21.9996 16.0002 21.9996C18.3775 21.9996 20.6122 21.0743 22.2935 19.393C22.6842 19.0023 23.3175 19.0023 23.7082 19.393C24.0988 19.7836 24.0988 20.417 23.7082 20.8076C21.6482 22.8663 18.9122 23.9996 16.0002 23.9996Z" fill="#44B347"/>
<path d="M26.6668 10.7151C26.4668 10.7151 26.2668 10.6551 26.0935 10.5351C25.3002 9.97911 21.3335 7.07644 21.3335 4.40044C21.3335 2.68311 22.7962 1.28711 24.5935 1.28711C25.3655 1.28711 26.0935 1.54711 26.6668 1.99511C27.2402 1.54711 27.9682 1.28711 28.7402 1.28711C30.5375 1.28578 32.0002 2.68311 32.0002 4.40044C32.0002 7.07644 28.0335 9.98044 27.2402 10.5351C27.0668 10.6551 26.8668 10.7151 26.6668 10.7151ZM24.5935 3.28578C23.8988 3.28578 23.3335 3.78578 23.3335 4.39911C23.3335 5.46578 25.1562 7.30178 26.6668 8.47244C28.2042 7.28578 30.0002 5.47778 30.0002 4.39911C30.0002 3.78578 29.4348 3.28578 28.7402 3.28578C28.2255 3.28578 27.7682 3.55644 27.5748 3.97511C27.2468 4.68178 26.0882 4.68178 25.7602 3.97511C25.5655 3.55644 25.1082 3.28578 24.5935 3.28578Z" fill="#44B347"/>
<path d="M5.33333 32.0481C5.13333 32.0481 4.93333 31.9881 4.76 31.8681C3.96667 31.3121 0 28.4095 0 25.7335C0 24.0161 1.46267 22.6201 3.26 22.6201C4.032 22.6201 4.76 22.8801 5.33333 23.3281C5.90667 22.8801 6.63467 22.6201 7.40667 22.6201C9.204 22.6188 10.6667 24.0161 10.6667 25.7335C10.6667 28.4095 6.7 31.3134 5.90667 31.8681C5.73333 31.9881 5.53333 32.0481 5.33333 32.0481ZM3.26 24.6188C2.56533 24.6188 2 25.1188 2 25.7321C2 26.7988 3.82267 28.6348 5.33333 29.8055C6.87067 28.6188 8.66667 26.8108 8.66667 25.7321C8.66667 25.1188 8.10133 24.6188 7.40667 24.6188C6.892 24.6188 6.43467 24.8895 6.24133 25.3081C5.91333 26.0148 4.75467 26.0148 4.42667 25.3081C4.232 24.8895 3.77467 24.6188 3.26 24.6188Z" fill="#44B347"/>
</g>
<defs>
<clipPath id="clip0_1134_1256">
<rect width="32" height="32" fill="white"/>
</clipPath>
</defs>
</svg>
