<svg width="32" height="32" viewBox="0 0 32 32" fill="none" xmlns="http://www.w3.org/2000/svg">
<g clip-path="url(#clip0_1134_1264)">
<path d="M16 32C7.17733 32 0 24.8227 0 16C0 7.17733 7.17733 0 16 0C24.8227 0 32 7.17733 32 16C32 24.8227 24.8227 32 16 32ZM16 2C8.28 2 2 8.28 2 16C2 23.72 8.28 30 16 30C23.72 30 30 23.72 30 16C30 8.28 23.72 2 16 2Z" fill="#845AE6"/>
<path d="M9.33317 14.6663C7.8625 14.6663 6.6665 13.4703 6.6665 11.9997C6.6665 10.529 7.8625 9.33301 9.33317 9.33301C10.8038 9.33301 11.9998 10.529 11.9998 11.9997C11.9998 13.4703 10.8038 14.6663 9.33317 14.6663ZM9.33317 11.333C8.96517 11.333 8.6665 11.6317 8.6665 11.9997C8.6665 12.3677 8.96517 12.6663 9.33317 12.6663C9.70117 12.6663 9.99984 12.3677 9.99984 11.9997C9.99984 11.6317 9.70117 11.333 9.33317 11.333Z" fill="#845AE6"/>
<path d="M22.6667 14.6663C21.196 14.6663 20 13.4703 20 11.9997C20 10.529 21.196 9.33301 22.6667 9.33301C24.1373 9.33301 25.3333 10.529 25.3333 11.9997C25.3333 13.4703 24.1373 14.6663 22.6667 14.6663ZM22.6667 11.333C22.2987 11.333 22 11.6317 22 11.9997C22 12.3677 22.2987 12.6663 22.6667 12.6663C23.0347 12.6663 23.3333 12.3677 23.3333 11.9997C23.3333 11.6317 23.0347 11.333 22.6667 11.333Z" fill="#845AE6"/>
<path d="M15.9998 26.7145C13.2145 26.7145 10.5958 25.6305 8.6265 23.6598C8.23583 23.2691 8.23583 22.6358 8.6265 22.2451C9.01716 21.8545 9.6505 21.8545 10.0412 22.2451C11.6332 23.8371 13.7492 24.7145 16.0012 24.7145C18.2532 24.7145 20.3692 23.8371 21.9612 22.2451C22.3518 21.8545 22.9852 21.8545 23.3758 22.2451C23.7665 22.6358 23.7665 23.2691 23.3758 23.6598C21.4038 25.6291 18.7852 26.7145 15.9998 26.7145Z" fill="#845AE6"/>
</g>
<defs>
<clipPath id="clip0_1134_1264">
<rect width="32" height="32" fill="white"/>
</clipPath>
</defs>
</svg>
