<svg width="57" height="57" viewBox="0 0 57 57" fill="none" xmlns="http://www.w3.org/2000/svg">
<circle cx="28.1608" cy="28.1608" r="28.1608" fill="white"/>
<path fill-rule="evenodd" clip-rule="evenodd" d="M8.50805 30.8185C8.50164 30.2026 8.44621 29.4907 8.38988 28.9463C8.38378 28.8889 8.40097 28.8314 8.43788 28.7858C8.4748 28.7401 8.52861 28.7098 8.5882 28.7011L8.59736 28.6998C8.65533 28.6912 8.71455 28.7035 8.76361 28.7343C8.81267 28.7651 8.84808 28.8122 8.86302 28.8665C8.93213 29.1406 9.04689 29.4024 9.20288 29.6416C9.34395 29.8539 9.8377 30.5869 10.8747 30.5869C11.6304 30.5869 12.1846 30.0754 12.1846 29.4288C12.1846 28.8314 11.6808 28.5901 10.6938 28.2331C10.402 28.1173 10.0997 28.0116 9.80747 27.8861C9.40441 27.7023 8.45721 27.2781 8.45721 26.1008C8.45721 24.7897 9.55556 24.0176 10.9558 24.0176C11.2956 24.0176 11.7793 24.0633 12.2639 24.2765C12.3711 24.3234 12.4975 24.287 12.5607 24.1922L12.6408 24.0712C12.6615 24.0397 12.69 24.0137 12.7237 23.9953C12.7574 23.977 12.7954 23.9669 12.8341 23.9659C12.8951 23.9645 12.9542 23.9856 12.9994 24.0247C13.0446 24.0639 13.0723 24.1182 13.0769 24.1764C13.1214 24.7256 13.1852 25.2732 13.2683 25.8183C13.2812 25.8484 13.2872 25.8807 13.2859 25.9131C13.2846 25.9456 13.276 25.9774 13.2608 26.0064C13.2456 26.0354 13.2241 26.061 13.1977 26.0814C13.1713 26.1018 13.1406 26.1165 13.1077 26.1245C13.0749 26.1326 13.0406 26.1339 13.0072 26.1282C12.9739 26.1225 12.9421 26.11 12.9142 26.0916C12.8863 26.0732 12.8628 26.0492 12.8454 26.0214C12.8279 25.9935 12.8169 25.9624 12.8131 25.9302C12.6866 25.6104 12.6152 25.4608 12.4764 25.2617C12.1443 24.8278 11.701 24.5291 11.1472 24.5291C10.4318 24.5291 10.009 25.088 10.009 25.5415C10.009 26.0622 10.4922 26.2842 10.7038 26.3807C11.1371 26.5833 11.5901 26.7184 12.0436 26.8921C12.7686 27.1623 13.7658 27.5773 13.7658 28.8507C13.7658 30.1044 12.7182 31.1558 11.0565 31.1558C10.2307 31.1558 9.69251 30.9058 9.38013 30.7158C9.35364 30.6999 9.32408 30.6891 9.2932 30.6842C9.26231 30.6794 9.23072 30.6804 9.20027 30.6874C9.16982 30.6943 9.14112 30.707 9.11585 30.7247C9.09058 30.7424 9.06925 30.7647 9.0531 30.7904L8.96379 30.9317C8.94419 30.9623 8.91729 30.9881 8.88528 31.0068C8.85327 31.0256 8.81707 31.0368 8.77966 31.0396L8.76271 31.0409C8.73048 31.0434 8.69806 31.0396 8.66745 31.0296C8.63685 31.0196 8.60873 31.0036 8.58483 30.9828C8.56094 30.9619 8.54179 30.9365 8.52858 30.9083C8.51537 30.88 8.50838 30.8494 8.50805 30.8185ZM13.987 30.7632C13.987 30.6671 14.0589 30.5856 14.1569 30.5698C14.309 30.5456 14.4931 30.4829 14.521 30.2978C14.5513 30.0754 14.5513 29.4968 14.5513 29.3521C14.5513 29.0143 14.5412 28.4647 14.5412 28.1269C14.5412 27.6427 14.3717 27.5097 14.1336 27.4453C14.0911 27.4334 14.0539 27.4086 14.0274 27.3746C14.001 27.3407 13.9868 27.2994 13.987 27.2571V27.2343C13.987 27.1382 14.0594 27.0575 14.1578 27.0413C14.6594 26.957 15.4179 26.7518 15.8159 26.6202C15.8415 26.6116 15.8687 26.6081 15.8958 26.6098C15.9228 26.6114 15.9493 26.6182 15.9736 26.6298C15.9979 26.6413 16.0196 26.6574 16.0373 26.6771C16.0551 26.6967 16.0685 26.7196 16.077 26.7443C16.0852 26.7697 16.093 26.7939 16.0999 26.8189C16.1085 26.8478 16.124 26.8744 16.1451 26.8967C16.1662 26.919 16.1924 26.9363 16.2216 26.9473C16.2509 26.9583 16.2824 26.9628 16.3137 26.9603C16.345 26.9578 16.3752 26.9484 16.4022 26.9329C16.7823 26.7215 17.1428 26.5644 17.6737 26.5644C18.0566 26.5644 18.4395 26.661 18.7519 26.8728C19.2424 27.1992 19.3244 27.6975 19.3656 28.2252V29.0722C19.3656 29.217 19.3459 29.9693 19.3459 30.1337C19.3459 30.3776 19.4151 30.5263 19.7481 30.5856C19.7942 30.5946 19.8356 30.6188 19.8651 30.654C19.8946 30.6891 19.9104 30.733 19.9097 30.7781C19.9098 30.8049 19.9041 30.8314 19.893 30.8561C19.8819 30.8807 19.8657 30.9028 19.8453 30.9212C19.8249 30.9395 19.8008 30.9536 19.7744 30.9627C19.7481 30.9717 19.7201 30.9755 19.6922 30.9738C19.4068 30.9553 18.9758 30.9435 18.2677 30.9435C17.8683 30.9435 17.648 30.954 17.4433 30.9711C17.415 30.9736 17.3864 30.9703 17.3595 30.9616C17.3326 30.9529 17.3078 30.939 17.2868 30.9206C17.2659 30.9022 17.2491 30.8799 17.2376 30.855C17.2262 30.8301 17.2202 30.8032 17.2202 30.7759V30.7347C17.2202 30.6465 17.282 30.5684 17.3714 30.5461C17.6659 30.4698 17.7025 30.3351 17.6938 29.7477L17.6737 28.2427C17.6636 27.7799 17.6434 27.2492 16.9884 27.2492C16.7159 27.2492 16.5048 27.3448 16.3014 27.4918C16.2746 27.5106 16.253 27.5353 16.2383 27.5639C16.2236 27.5925 16.2164 27.624 16.2171 27.6558C16.2332 28.1392 16.2332 29.5113 16.2332 29.9403C16.2332 30.3829 16.3133 30.5053 16.5593 30.5676C16.6472 30.5895 16.7068 30.6685 16.7068 30.7558V30.7812C16.7068 30.808 16.7011 30.8346 16.69 30.8592C16.679 30.8838 16.6627 30.906 16.6423 30.9244C16.6219 30.9427 16.5978 30.9569 16.5715 30.966C16.5451 30.9751 16.5171 30.979 16.4892 30.9773C16.147 30.9567 15.7073 30.9435 14.8833 30.9435C14.5664 30.9435 14.3823 30.9531 14.2105 30.9689C14.1821 30.9715 14.1535 30.9684 14.1264 30.9597C14.0994 30.951 14.0745 30.937 14.0534 30.9186C14.0324 30.9002 14.0156 30.8777 14.0042 30.8527C13.9927 30.8277 13.9869 30.8006 13.987 30.7733V30.7632ZM22.761 29.1569C22.7608 29.127 22.7535 29.0975 22.7396 29.0708C22.7258 29.044 22.7057 29.0206 22.6809 29.0024C22.6562 28.9842 22.6274 28.9717 22.5968 28.9658C22.5663 28.9599 22.5347 28.9607 22.5045 28.9683C22.1646 29.0507 21.7135 29.2407 21.7135 29.7477C21.7135 30.0083 21.8545 30.2974 22.2375 30.2974C22.4326 30.2974 22.5489 30.2408 22.6712 30.1636C22.699 30.1457 22.7217 30.1215 22.7373 30.0932C22.753 30.0649 22.7611 30.0333 22.761 30.0013V29.1569ZM25.0887 30.2728C25.1109 30.2899 25.1292 30.3112 25.1423 30.3355C25.1554 30.3597 25.1631 30.3863 25.1649 30.4136C25.1667 30.4408 25.1625 30.4681 25.1526 30.4938C25.1427 30.5194 25.1273 30.5427 25.1075 30.5623C24.6233 31.0317 24.1433 31.1273 23.879 31.1273C23.6072 31.1242 23.3431 31.0398 23.1237 30.886C23.0538 30.8322 22.991 30.7703 22.9369 30.7018C22.906 30.6626 22.8606 30.6361 22.8101 30.6278C22.7595 30.6195 22.7076 30.63 22.6648 30.6571C22.3877 30.8294 21.8156 31.1365 21.1799 31.1365C20.2528 31.1365 20.0316 30.5386 20.0316 30.182C20.0316 29.0797 21.8028 28.6186 22.6048 28.4809C22.6515 28.4727 22.6938 28.4491 22.7243 28.4142C22.7547 28.3792 22.7714 28.3352 22.7715 28.2897C22.7724 27.9914 22.7729 27.6405 22.7307 27.5194C22.6098 27.1816 22.2072 27.1816 22.1568 27.1816C21.8243 27.1816 21.6429 27.3746 21.5825 27.5869C21.5522 27.7124 21.5522 27.8475 21.522 27.973C21.4414 28.3006 21.1593 28.4261 20.9078 28.4261C20.5954 28.4261 20.3032 28.2331 20.3032 27.8765C20.3032 27.1623 21.6832 26.5833 22.9323 26.5833C23.7984 26.5833 24.4328 26.8535 24.4328 27.6545L24.4131 29.8056C24.403 29.9697 24.3925 30.3452 24.6545 30.3452C24.7195 30.3452 24.7809 30.3127 24.8386 30.2697C24.8746 30.2434 24.9189 30.2294 24.9642 30.23C25.0095 30.2305 25.0533 30.2456 25.0887 30.2728Z" fill="#221F20"/>
<path fill-rule="evenodd" clip-rule="evenodd" d="M28.0885 30.6483C28.8291 30.6483 29.099 29.5933 29.099 28.8969C29.099 28.1591 28.7986 27.1758 28.0585 27.1758C27.3876 27.1758 27.3876 27.8829 27.3876 28.0976C27.3876 28.3333 27.3981 29.4805 27.3981 29.7367C27.3981 30.0646 27.3981 30.6483 28.0885 30.6483ZM25.7363 28.2206C25.7545 27.4381 25.6453 27.2536 25.3039 27.1572C25.2636 27.145 25.2283 27.1196 25.2033 27.085C25.1783 27.0504 25.1651 27.0083 25.1655 26.9653V26.9141C25.1653 26.8659 25.1825 26.8194 25.2137 26.7834C25.245 26.7474 25.2881 26.7244 25.3349 26.7189C26.0108 26.6449 26.7258 26.4562 27.0776 26.3584C27.1028 26.3513 27.1291 26.3496 27.1549 26.3533C27.1807 26.357 27.2055 26.3662 27.2277 26.3802C27.2499 26.3942 27.2691 26.4127 27.284 26.4346C27.2989 26.4565 27.3092 26.4813 27.3143 26.5074C27.3248 26.555 27.3353 26.6132 27.348 26.6863C27.3532 26.718 27.366 26.7478 27.3852 26.7733C27.4043 26.7987 27.4293 26.8189 27.4579 26.8322C27.4865 26.8454 27.5178 26.8513 27.5491 26.8492C27.5804 26.8472 27.6108 26.8373 27.6375 26.8205C28.0303 26.5629 28.4176 26.4283 28.9092 26.4283C30.1203 26.4283 30.8709 27.4935 30.8709 28.6202C30.8709 30.1666 29.7999 31.2426 28.5492 31.2426C28.1655 31.2426 27.886 31.1424 27.6926 31.0358C27.6634 31.0194 27.6305 31.0111 27.5972 31.0116C27.564 31.0121 27.5314 31.0214 27.5027 31.0387C27.474 31.056 27.4502 31.0806 27.4336 31.1102C27.417 31.1397 27.4082 31.1731 27.4081 31.2072V32.3893C27.4081 32.7857 27.4318 33.0913 27.8459 33.163C27.8894 33.1718 27.9284 33.196 27.9563 33.2312C27.9841 33.2664 27.9991 33.3105 27.9984 33.3558C27.9984 33.3821 27.9933 33.408 27.9834 33.4322C27.9734 33.4563 27.9589 33.4782 27.9406 33.4965C27.9222 33.5148 27.9005 33.5292 27.8767 33.5388C27.8529 33.5484 27.8274 33.553 27.8018 33.5524C27.307 33.5384 26.8121 33.5298 26.3171 33.5268C25.9407 33.5268 25.6972 33.5338 25.3767 33.5477C25.3508 33.549 25.3249 33.5449 25.3006 33.5356C25.2763 33.5264 25.2541 33.5122 25.2353 33.4939C25.2165 33.4756 25.2015 33.4536 25.1913 33.4293C25.181 33.4049 25.1756 33.3787 25.1756 33.3521V33.3265C25.1756 33.2315 25.2402 33.1462 25.3321 33.1304C25.7044 33.0652 25.7363 32.8556 25.7363 32.5635C25.7463 32.3689 25.7463 31.7647 25.7463 31.5393L25.7363 28.2206ZM36.1093 31.1811C35.7028 31.1504 35.437 31.1504 34.3724 31.1504C33.7898 31.1504 33.5572 31.1574 33.2163 31.182C33.1582 31.1849 33.1013 31.165 33.0571 31.1263C33.0128 31.0877 32.9847 31.0333 32.9783 30.9742C32.9719 30.915 32.9878 30.8556 33.0227 30.808C33.0576 30.7605 33.109 30.7283 33.1662 30.7181C33.7274 30.6375 33.7516 30.4303 33.7516 29.1321V25.8749C33.7416 25.0966 33.732 24.8609 33.6614 24.7174C33.5859 24.5358 33.4671 24.4929 33.1612 24.4408C33.1081 24.4317 33.0598 24.4037 33.025 24.3616C32.9901 24.3196 32.971 24.2663 32.971 24.2111C32.971 24.0677 33.0766 23.9629 33.2049 23.9666C33.7675 23.982 34.3305 23.9899 34.8926 23.9899C35.457 23.9899 35.8189 23.9773 36.1293 23.9666C36.1895 23.9615 36.2491 23.9811 36.2952 24.0211C36.3412 24.0611 36.3699 24.1181 36.3748 24.1797C36.3798 24.2413 36.3606 24.3024 36.3216 24.3495C36.2825 24.3966 36.2268 24.4259 36.1666 24.431C35.5735 24.5069 35.5735 24.6909 35.5735 26.0491L35.5836 29.2244C35.6036 30.3003 35.6136 30.3618 35.7338 30.5253C35.8193 30.6287 35.9536 30.6832 36.1593 30.7116C36.2135 30.7197 36.2629 30.7474 36.2987 30.7897C36.3345 30.8321 36.3542 30.8862 36.3541 30.9422C36.3548 30.9747 36.3488 31.0071 36.3366 31.0371C36.3243 31.0672 36.3061 31.0943 36.2831 31.1168C36.2601 31.1393 36.2327 31.1566 36.2028 31.1677C36.1729 31.1787 36.141 31.1833 36.1093 31.1811ZM36.427 30.9585C36.427 30.8565 36.4984 30.7698 36.5958 30.7531C36.7469 30.7274 36.9299 30.6608 36.9577 30.4643C36.9877 30.2281 36.9877 29.6137 36.9877 29.46C36.9877 29.1014 36.9777 28.5178 36.9777 28.1591C36.9777 27.6449 36.8093 27.5038 36.5726 27.4353C36.5304 27.4227 36.4934 27.3963 36.4671 27.3603C36.4409 27.3242 36.4268 27.2804 36.427 27.2355V27.2112C36.427 27.1092 36.4984 27.0235 36.5967 27.0063C37.0951 26.9169 37.8484 26.6989 38.2444 26.5591C38.2699 26.5501 38.2969 26.5464 38.3238 26.5481C38.3507 26.5499 38.377 26.5571 38.4011 26.5694C38.4253 26.5816 38.4468 26.5987 38.4644 26.6196C38.4821 26.6405 38.4955 26.6647 38.5038 26.691C38.512 26.718 38.5198 26.7436 38.5266 26.7701C38.5352 26.8008 38.5506 26.829 38.5715 26.8526C38.5925 26.8762 38.6185 26.8945 38.6474 26.9062C38.6764 26.9179 38.7076 26.9227 38.7387 26.9201C38.7697 26.9175 38.7998 26.9076 38.8265 26.8913C39.2043 26.6667 39.5625 26.5 40.0905 26.5C40.4705 26.5 40.8511 26.6025 41.1615 26.8274C41.6494 27.174 41.7313 27.7031 41.7714 28.2634C41.7723 28.269 41.7723 28.2746 41.7723 28.2802V29.1629C41.7723 29.3166 41.7523 30.1154 41.7523 30.2901C41.7523 30.549 41.8205 30.7069 42.1519 30.7698C42.1977 30.7795 42.2389 30.8052 42.2682 30.8425C42.2975 30.8798 42.3132 30.9264 42.3126 30.9743C42.3126 31.0028 42.307 31.031 42.2959 31.0572C42.2849 31.0833 42.2687 31.1069 42.2484 31.1264C42.228 31.1458 42.204 31.1608 42.1778 31.1704C42.1516 31.18 42.1237 31.184 42.0959 31.182C41.8128 31.1625 41.384 31.1499 40.6808 31.1499C40.2835 31.1499 40.065 31.1611 39.8616 31.1792C39.8334 31.1818 39.8051 31.1784 39.7783 31.1692C39.7515 31.1599 39.727 31.1451 39.7061 31.1256C39.6853 31.1061 39.6686 31.0824 39.6572 31.0559C39.6458 31.0295 39.6399 31.0009 39.6399 30.972V30.9282C39.6399 30.8346 39.7013 30.7517 39.7901 30.7279C40.0828 30.6469 40.1192 30.5039 40.1105 29.8802L40.0905 28.2821C40.08 27.7907 40.0605 27.2271 39.4096 27.2271C39.1388 27.2271 38.9285 27.3286 38.7264 27.4847C38.6999 27.5047 38.6784 27.531 38.6639 27.5613C38.6494 27.5917 38.6423 27.6251 38.6431 27.6589C38.659 28.1722 38.659 29.6291 38.659 30.0847C38.659 30.5546 38.7382 30.6846 38.9831 30.7507C39.0705 30.774 39.1297 30.8579 39.1297 30.9505V30.9776C39.1297 31.006 39.1241 31.0342 39.1131 31.0604C39.102 31.0865 39.0859 31.1101 39.0656 31.1296C39.0454 31.1491 39.0214 31.1642 38.9952 31.1738C38.9691 31.1835 38.9412 31.1875 38.9135 31.1858C38.5735 31.1639 38.1365 31.1499 37.3177 31.1499C37.0027 31.1499 36.8198 31.1601 36.6491 31.1769C36.6209 31.1796 36.5924 31.1763 36.5655 31.1671C36.5386 31.1579 36.5139 31.143 36.493 31.1234C36.4721 31.1039 36.4554 31.08 36.444 31.0535C36.4326 31.0269 36.4268 30.9982 36.427 30.9692V30.9585ZM46.8395 30.067C46.9651 30.1601 46.9824 30.3483 46.8723 30.4601C46.3204 31.0209 45.5759 31.3386 44.7982 31.3451C43.3667 31.3451 42.3157 30.3306 42.3157 28.9374C42.3157 27.473 43.5369 26.5307 45.0285 26.5307C46.0093 26.5307 46.9401 26.9709 46.9401 27.7087C46.9401 28.0566 46.6502 28.3538 46.3097 28.3538C46.1595 28.3538 45.9793 28.2821 45.8691 28.1694C45.779 28.0874 45.759 28.0361 45.5687 27.596C45.4786 27.4013 45.2783 27.0529 44.9684 27.0529C44.3876 27.0529 44.2274 28.0669 44.2274 28.569C44.2274 29.7265 44.8682 30.5048 45.5687 30.5048C45.941 30.5048 46.2492 30.3297 46.5227 30.0837C46.5658 30.0446 46.6207 30.0216 46.6783 30.0185C46.7358 30.0155 46.7927 30.0325 46.8395 30.067ZM48.2218 29.501C48.7125 29.501 49.1321 29.9007 49.1321 30.4331C49.1321 30.9557 48.7125 31.3553 48.2318 31.3553C47.9955 31.3578 47.7679 31.2642 47.599 31.0952C47.43 30.9261 47.3335 30.6954 47.3306 30.4536C47.3306 29.8187 47.8113 29.501 48.2218 29.501Z" fill="#221F20"/>
</svg>
