<svg width="40" height="40" viewBox="0 0 40 40" fill="none" xmlns="http://www.w3.org/2000/svg">
<rect width="40" height="40" rx="20" transform="matrix(-1 0 0 1 40 0)" fill="#65646D"/>
<g clip-path="url(#clip0_8466_33965)">
<path d="M20.5849 18.3334C20.585 18.6191 20.6899 18.895 20.8797 19.1085C21.0696 19.322 21.3313 19.4585 21.6151 19.4919L21.7516 19.5001L27.5849 19.5001C27.8823 19.4997 28.1683 19.3859 28.3845 19.1817C28.6007 18.9776 28.7309 18.6986 28.7483 18.4018C28.7657 18.1049 28.6691 17.8126 28.4783 17.5846C28.2874 17.3566 28.0167 17.21 27.7214 17.1749L27.5849 17.1667L24.5679 17.1667L30.1597 11.5749C30.369 11.3649 30.4905 11.0832 30.4995 10.7869C30.5086 10.4907 30.4045 10.2021 30.2085 9.97974C30.0124 9.75741 29.7391 9.61804 29.444 9.58993C29.1489 9.56182 28.8542 9.64708 28.6197 9.82839L28.5101 9.92523L22.9182 15.5171L22.9182 12.5001C22.9179 12.2027 22.8041 11.9167 22.5999 11.7005C22.3958 11.4842 22.1168 11.3541 21.82 11.3367C21.5231 11.3193 21.2308 11.4158 21.0028 11.6067C20.7747 11.7976 20.6282 12.0683 20.5931 12.3636L20.5849 12.5001L20.5849 18.3334Z" fill="#DEDEDE"/>
<path d="M20.5849 18.3334C20.585 18.6191 20.6899 18.895 20.8797 19.1085C21.0696 19.322 21.3313 19.4585 21.6151 19.4919L21.7516 19.5001L27.5849 19.5001C27.8823 19.4997 28.1683 19.3859 28.3845 19.1817C28.6007 18.9776 28.7309 18.6986 28.7483 18.4018C28.7657 18.1049 28.6691 17.8126 28.4783 17.5846C28.2874 17.3566 28.0167 17.21 27.7214 17.1749L27.5849 17.1667L24.5679 17.1667L30.1597 11.5749C30.369 11.3649 30.4905 11.0832 30.4995 10.7869C30.5086 10.4907 30.4045 10.2021 30.2085 9.97974C30.0124 9.75741 29.7391 9.61804 29.444 9.58993C29.1489 9.56182 28.8542 9.64708 28.6197 9.82839L28.5101 9.92523L22.9182 15.5171L22.9182 12.5001C22.9179 12.2027 22.8041 11.9167 22.5999 11.7005C22.3958 11.4842 22.1168 11.3541 21.82 11.3367C21.5231 11.3193 21.2308 11.4158 21.0028 11.6067C20.7747 11.7976 20.6282 12.0683 20.5931 12.3636L20.5849 12.5001L20.5849 18.3334Z" fill="#DEDEDE"/>
<path d="M19.5 21.7513C19.5 21.4655 19.3951 21.1897 19.2052 20.9762C19.0153 20.7626 18.7537 20.6262 18.4699 20.5928L18.3334 20.5846L12.5 20.5846C12.2027 20.5849 11.9167 20.6988 11.7005 20.9029C11.4842 21.107 11.3541 21.386 11.3367 21.6829C11.3193 21.9797 11.4158 22.272 11.6067 22.5001C11.7975 22.7281 12.0683 22.8746 12.3635 22.9098L12.5 22.9179L15.517 22.9179L9.92522 28.5098C9.71598 28.7197 9.5945 29.0014 9.58545 29.2977C9.5764 29.594 9.68047 29.8826 9.87651 30.1049C10.0725 30.3272 10.3459 30.4666 10.6409 30.4947C10.936 30.5228 11.2307 30.4376 11.4652 30.2563L11.5749 30.1594L17.1667 24.5676L17.1667 27.5846C17.167 27.882 17.2809 28.168 17.485 28.3842C17.6892 28.6004 17.9682 28.7305 18.265 28.748C18.5619 28.7654 18.8542 28.6688 19.0822 28.478C19.3102 28.2871 19.4568 28.0164 19.4919 27.7211L19.5 27.5846L19.5 21.7513Z" fill="#DEDEDE"/>
</g>
<defs>
<clipPath id="clip0_8466_33965">
<rect width="28" height="28" fill="white" transform="matrix(4.37114e-08 1 1 -4.37114e-08 6 6)"/>
</clipPath>
</defs>
</svg>
