<svg width="28" height="28" viewBox="0 0 28 28" fill="none" xmlns="http://www.w3.org/2000/svg">
<g clip-path="url(#clip0_8464_33938)">
<path d="M14.9252 11.4252C14.7159 11.6351 14.5944 11.9168 14.5854 12.2131C14.5764 12.5094 14.6804 12.798 14.8765 13.0203C15.0725 13.2427 15.3458 13.382 15.6409 13.4101C15.936 13.4382 16.2307 13.353 16.4652 13.1717L16.5748 13.0748L22.1667 7.483L22.1667 10.5C22.167 10.7974 22.2809 11.0834 22.485 11.2996C22.6891 11.5158 22.9681 11.6459 23.265 11.6634C23.5618 11.6808 23.8541 11.5842 24.0821 11.3934C24.3102 11.2025 24.4567 10.9318 24.4918 10.6365L24.5 10.5L24.5 4.66667C24.5 4.38091 24.395 4.10511 24.2052 3.89157C24.0153 3.67802 23.7536 3.5416 23.4698 3.50817L23.3333 3.5L17.5 3.5C17.2026 3.50033 16.9166 3.61419 16.7004 3.81832C16.4842 4.02245 16.3541 4.30144 16.3366 4.59829C16.3192 4.89514 16.4158 5.18744 16.6066 5.41547C16.7975 5.6435 17.0682 5.79005 17.3635 5.82517L17.5 5.83333L20.517 5.83333L14.9252 11.4252ZM3.5 23.3333C3.50004 23.6191 3.60495 23.8949 3.79484 24.1084C3.98472 24.322 4.24637 24.4584 4.53017 24.4918L4.66667 24.5L10.5 24.5C10.7974 24.4997 11.0834 24.3858 11.2996 24.1817C11.5158 23.9775 11.6459 23.6986 11.6634 23.4017C11.6808 23.1049 11.5842 22.8126 11.3934 22.5845C11.2025 22.3565 10.9318 22.21 10.6365 22.1748L10.5 22.1667L7.483 22.1667L13.0748 16.5748C13.2841 16.3649 13.4056 16.0832 13.4146 15.7869C13.4236 15.4906 13.3196 15.202 13.1235 14.9797C12.9275 14.7573 12.6542 14.618 12.3591 14.5899C12.064 14.5618 11.7693 14.647 11.5348 14.8283L11.4252 14.9252L5.83333 20.517L5.83333 17.5C5.833 17.2026 5.71914 16.9166 5.51501 16.7004C5.31088 16.4842 5.03189 16.3541 4.73504 16.3366C4.43819 16.3192 4.14589 16.4158 3.91786 16.6066C3.68983 16.7975 3.54329 17.0682 3.50817 17.3635L3.5 17.5L3.5 23.3333Z" fill="#DEDEDE"/>
</g>
<defs>
<clipPath id="clip0_8464_33938">
<rect width="28" height="28" fill="white" transform="matrix(4.37114e-08 1 1 -4.37114e-08 0 0)"/>
</clipPath>
</defs>
</svg>
