<svg width="40" height="40" viewBox="0 0 40 40" fill="none" xmlns="http://www.w3.org/2000/svg">
<rect width="40" height="40" rx="20" transform="matrix(-1 0 0 1 40 0)" fill="#65646D"/>
<g clip-path="url(#clip0_8466_33963)">
<path d="M20.9252 17.4252C20.7159 17.6351 20.5944 17.9168 20.5854 18.2131C20.5764 18.5094 20.6804 18.798 20.8765 19.0203C21.0725 19.2427 21.3458 19.382 21.6409 19.4101C21.936 19.4382 22.2307 19.353 22.4652 19.1717L22.5748 19.0748L28.1667 13.483L28.1667 16.5C28.167 16.7974 28.2809 17.0834 28.485 17.2996C28.6891 17.5158 28.9681 17.6459 29.265 17.6634C29.5618 17.6808 29.8541 17.5842 30.0821 17.3934C30.3102 17.2025 30.4567 16.9318 30.4918 16.6365L30.5 16.5L30.5 10.6667C30.5 10.3809 30.395 10.1051 30.2052 9.89157C30.0153 9.67802 29.7536 9.5416 29.4698 9.50817L29.3333 9.5L23.5 9.5C23.2026 9.50033 22.9166 9.61419 22.7004 9.81832C22.4842 10.0225 22.3541 10.3014 22.3366 10.5983C22.3192 10.8951 22.4158 11.1874 22.6066 11.4155C22.7975 11.6435 23.0682 11.79 23.3635 11.8252L23.5 11.8333L26.517 11.8333L20.9252 17.4252ZM9.5 29.3333C9.50004 29.6191 9.60495 29.8949 9.79484 30.1084C9.98472 30.322 10.2464 30.4584 10.5302 30.4918L10.6667 30.5L16.5 30.5C16.7974 30.4997 17.0834 30.3858 17.2996 30.1817C17.5158 29.9775 17.6459 29.6986 17.6634 29.4017C17.6808 29.1049 17.5842 28.8126 17.3934 28.5845C17.2025 28.3565 16.9318 28.21 16.6365 28.1748L16.5 28.1667L13.483 28.1667L19.0748 22.5748C19.2841 22.3649 19.4056 22.0832 19.4146 21.7869C19.4236 21.4906 19.3196 21.202 19.1235 20.9797C18.9275 20.7573 18.6542 20.618 18.3591 20.5899C18.064 20.5618 17.7693 20.647 17.5348 20.8283L17.4252 20.9252L11.8333 26.517L11.8333 23.5C11.833 23.2026 11.7191 22.9166 11.515 22.7004C11.3109 22.4842 11.0319 22.3541 10.735 22.3366C10.4382 22.3192 10.1459 22.4158 9.91786 22.6066C9.68983 22.7975 9.54329 23.0682 9.50817 23.3635L9.5 23.5L9.5 29.3333Z" fill="#DEDEDE"/>
</g>
<defs>
<clipPath id="clip0_8466_33963">
<rect width="28" height="28" fill="white" transform="matrix(4.37114e-08 1 1 -4.37114e-08 6 6)"/>
</clipPath>
</defs>
</svg>
