<svg width="24" height="24" viewBox="0 0 24 24" fill="none" xmlns="http://www.w3.org/2000/svg">
<path fill-rule="evenodd" clip-rule="evenodd" d="M2.39812 2.397C0.75 4.04625 0.75 6.69675 0.75 12C0.749999 17.3032 0.749999 19.9549 2.39812 21.6019C4.044 23.25 6.69675 23.25 12 23.25C17.3032 23.25 19.9549 23.25 21.603 21.6019C23.25 19.956 23.25 17.3032 23.25 12C23.25 6.69675 23.25 4.04513 21.603 2.397C19.9538 0.75 17.3033 0.75 12 0.75C6.69675 0.749999 4.04513 0.749999 2.39812 2.397ZM13.1587 8.02875C13.0815 7.94585 12.9884 7.87936 12.8849 7.83325C12.7814 7.78713 12.6696 7.76233 12.5563 7.76033C12.443 7.75833 12.3305 7.77918 12.2255 7.82161C12.1204 7.86405 12.025 7.92721 11.9448 8.00733C11.8647 8.08745 11.8015 8.18289 11.7591 8.28795C11.7167 8.39301 11.6958 8.50555 11.6978 8.61884C11.6998 8.73213 11.7246 8.84386 11.7707 8.94735C11.8169 9.05085 11.8834 9.144 11.9663 9.22125L14.745 12L11.9662 14.7787C11.8834 14.856 11.8169 14.9491 11.7707 15.0526C11.7246 15.1561 11.6998 15.2679 11.6978 15.3812C11.6958 15.4945 11.7167 15.607 11.7591 15.712C11.8015 15.8171 11.8647 15.9125 11.9448 15.9927C12.025 16.0728 12.1204 16.136 12.2255 16.1784C12.3305 16.2208 12.443 16.2417 12.5563 16.2397C12.6696 16.2377 12.7814 16.2129 12.8849 16.1668C12.9884 16.1206 13.0815 16.0541 13.1587 15.9712L16.5337 12.5962C16.6918 12.438 16.7805 12.2236 16.7805 12C16.7805 11.7764 16.6918 11.562 16.5337 11.4038L13.1587 8.02875ZM7.46625 8.02875C7.62445 7.87074 7.83891 7.78199 8.0625 7.78199C8.28609 7.78199 8.50055 7.87074 8.65875 8.02875L12.0337 11.4037C12.1918 11.562 12.2805 11.7764 12.2805 12C12.2805 12.2236 12.1918 12.438 12.0337 12.5962L8.65875 15.9712C8.5815 16.0541 8.48835 16.1206 8.38485 16.1668C8.28136 16.2129 8.16963 16.2377 8.05634 16.2397C7.94305 16.2417 7.83051 16.2208 7.72545 16.1784C7.62039 16.136 7.52495 16.0728 7.44483 15.9927C7.36471 15.9125 7.30155 15.8171 7.25911 15.712C7.21667 15.607 7.19584 15.4945 7.19784 15.3812C7.19983 15.2679 7.22463 15.1561 7.27075 15.0526C7.31686 14.9491 7.38335 14.856 7.46625 14.7787L10.245 12L7.46625 9.22125C7.30824 9.06305 7.21949 8.84859 7.21949 8.625C7.21949 8.4014 7.30824 8.18695 7.46625 8.02875Z" fill="#DEDEDE"/>
</svg>
