<svg width="40" height="40" viewBox="0 0 40 40" fill="none" xmlns="http://www.w3.org/2000/svg">
<rect width="40" height="40" rx="20" transform="matrix(-1 0 0 1 40 0)" fill="#65646D"/>
<g clip-path="url(#clip0_8464_33939)">
<path d="M20.5859 18.3347C20.5859 18.6204 20.6908 18.8962 20.8807 19.1098C21.0706 19.3233 21.3323 19.4597 21.6161 19.4932L21.7526 19.5013L27.5859 19.5013C27.8832 19.501 28.1693 19.3872 28.3855 19.183C28.6017 18.9789 28.7318 18.6999 28.7493 18.403C28.7667 18.1062 28.6701 17.8139 28.4792 17.5859C28.2884 17.3578 28.0177 17.2113 27.7224 17.1762L27.5859 17.168L24.5689 17.168L30.1607 11.5762C30.37 11.3662 30.4914 11.0845 30.5005 10.7882C30.5095 10.492 30.4055 10.2033 30.2094 9.98102C30.0134 9.75869 29.7401 9.61932 29.445 9.59121C29.1499 9.5631 28.8552 9.64836 28.6207 9.82967L28.5111 9.92651L22.9192 15.5183L22.9192 12.5013C22.9189 12.204 22.805 11.918 22.6009 11.7017C22.3968 11.4855 22.1178 11.3554 21.8209 11.338C21.5241 11.3205 21.2318 11.4171 21.0038 11.608C20.7757 11.7988 20.6292 12.0696 20.5941 12.3648L20.5859 12.5013L20.5859 18.3347Z" fill="#DEDEDE"/>
<path d="M20.5859 18.3347C20.5859 18.6204 20.6908 18.8962 20.8807 19.1098C21.0706 19.3233 21.3323 19.4597 21.6161 19.4932L21.7526 19.5013L27.5859 19.5013C27.8832 19.501 28.1693 19.3872 28.3855 19.183C28.6017 18.9789 28.7318 18.6999 28.7493 18.403C28.7667 18.1062 28.6701 17.8139 28.4792 17.5859C28.2884 17.3578 28.0177 17.2113 27.7224 17.1762L27.5859 17.168L24.5689 17.168L30.1607 11.5762C30.37 11.3662 30.4914 11.0845 30.5005 10.7882C30.5095 10.492 30.4055 10.2033 30.2094 9.98102C30.0134 9.75869 29.7401 9.61932 29.445 9.59121C29.1499 9.5631 28.8552 9.64836 28.6207 9.82967L28.5111 9.92651L22.9192 15.5183L22.9192 12.5013C22.9189 12.204 22.805 11.918 22.6009 11.7017C22.3968 11.4855 22.1178 11.3554 21.8209 11.338C21.5241 11.3205 21.2318 11.4171 21.0038 11.608C20.7757 11.7988 20.6292 12.0696 20.5941 12.3648L20.5859 12.5013L20.5859 18.3347Z" fill="#DEDEDE"/>
<path d="M19.5 21.7513C19.5 21.4655 19.3951 21.1897 19.2052 20.9762C19.0153 20.7626 18.7537 20.6262 18.4699 20.5928L18.3334 20.5846L12.5 20.5846C12.2027 20.5849 11.9167 20.6988 11.7005 20.9029C11.4842 21.107 11.3541 21.386 11.3367 21.6829C11.3193 21.9797 11.4158 22.272 11.6067 22.5001C11.7975 22.7281 12.0683 22.8746 12.3635 22.9098L12.5 22.9179L15.517 22.9179L9.92522 28.5098C9.71598 28.7197 9.5945 29.0014 9.58545 29.2977C9.5764 29.594 9.68047 29.8826 9.87651 30.1049C10.0725 30.3272 10.3459 30.4666 10.6409 30.4947C10.936 30.5228 11.2307 30.4376 11.4652 30.2563L11.5749 30.1594L17.1667 24.5676L17.1667 27.5846C17.167 27.882 17.2809 28.168 17.485 28.3842C17.6892 28.6004 17.9682 28.7305 18.265 28.748C18.5619 28.7654 18.8542 28.6688 19.0822 28.478C19.3102 28.2871 19.4568 28.0164 19.4919 27.7211L19.5 27.5846L19.5 21.7513Z" fill="#DEDEDE"/>
</g>
<defs>
<clipPath id="clip0_8464_33939">
<rect width="28" height="28" fill="white" transform="matrix(4.37114e-08 1 1 -4.37114e-08 6 6)"/>
</clipPath>
</defs>
</svg>
