<svg width="18" height="16" viewBox="0 0 18 16" fill="none" xmlns="http://www.w3.org/2000/svg">
<path d="M15 0C14.4477 0 14 0.447715 14 1V15C14 15.5523 14.4477 16 15 16H17C17.5523 16 18 15.5523 18 15V1C18 0.447715 17.5523 0 17 0H15ZM16.7 2C16.8657 2 17 2.13431 17 2.3V13.7C17 13.8657 16.8657 14 16.7 14H15.3C15.1343 14 15 13.8657 15 13.7V2.3C15 2.13432 15.1343 2 15.3 2H16.7ZM0 11C0 10.4477 0.447715 10 1 10H3C3.55228 10 4 10.4477 4 11V15C4 15.5523 3.55228 16 3 16H1C0.447715 16 0 15.5523 0 15V11ZM11 7C11 6.44772 10.5523 6 10 6H8C7.44772 6 7 6.44772 7 7V15C7 15.5523 7.44772 16 8 16H10C10.5523 16 11 15.5523 11 15V7Z" fill="#EFEEEE"/>
</svg>
