<svg width="8" height="10" viewBox="0 0 8 10" fill="none" xmlns="http://www.w3.org/2000/svg">
<path d="M7.03125 0.125H0.84375C0.369141 0.125 0 0.511719 0 0.96875V8.28125C0 8.75586 0.369141 9.125 0.84375 9.125H7.03125C7.48828 9.125 7.875 8.75586 7.875 8.28125V0.96875C7.875 0.511719 7.48828 0.125 7.03125 0.125ZM7.3125 8.28125C7.3125 8.43945 7.17188 8.5625 7.03125 8.5625H0.84375C0.685547 8.5625 0.5625 8.43945 0.5625 8.28125V0.96875C0.5625 0.828125 0.685547 0.6875 0.84375 0.6875H7.03125C7.17188 0.6875 7.3125 0.828125 7.3125 0.96875V8.28125ZM4.85156 8C4.95703 8 5.0625 7.91211 5.0625 7.78906V7.64844C5.0625 7.54297 4.95703 7.4375 4.85156 7.4375H3.02344C2.90039 7.4375 2.8125 7.54297 2.8125 7.64844V7.78906C2.8125 7.91211 2.90039 8 3.02344 8H4.85156Z" fill="white"/>
</svg>
