<svg width="171" height="212" viewBox="0 0 171 212" fill="none" xmlns="http://www.w3.org/2000/svg">
<rect width="171" height="212" rx="12" fill="white"/>
<path d="M25.1591 163.42V161.545H38.25V163.42H32.7614V179H30.6477V163.42H25.1591ZM44.8295 179.273C43.5682 179.273 42.4801 178.994 41.5653 178.438C40.6562 177.875 39.9545 177.091 39.4602 176.085C38.9716 175.074 38.7273 173.898 38.7273 172.557C38.7273 171.216 38.9716 170.034 39.4602 169.011C39.9545 167.983 40.642 167.182 41.5227 166.608C42.4091 166.028 43.4432 165.739 44.625 165.739C45.3068 165.739 45.9801 165.852 46.6449 166.08C47.3097 166.307 47.9148 166.676 48.4602 167.188C49.0057 167.693 49.4403 168.364 49.7642 169.199C50.0881 170.034 50.25 171.062 50.25 172.284V173.136H40.1591V171.398H48.2045C48.2045 170.659 48.0568 170 47.7614 169.42C47.4716 168.841 47.0568 168.384 46.517 168.048C45.983 167.713 45.3523 167.545 44.625 167.545C43.8239 167.545 43.1307 167.744 42.5455 168.142C41.9659 168.534 41.5199 169.045 41.2074 169.676C40.8949 170.307 40.7386 170.983 40.7386 171.705V172.864C40.7386 173.852 40.9091 174.69 41.25 175.378C41.5966 176.06 42.0767 176.58 42.6903 176.938C43.304 177.29 44.017 177.466 44.8295 177.466C45.358 177.466 45.8352 177.392 46.2614 177.244C46.6932 177.091 47.0653 176.864 47.3778 176.562C47.6903 176.256 47.9318 175.875 48.1023 175.42L50.0455 175.966C49.8409 176.625 49.4972 177.205 49.0142 177.705C48.5313 178.199 47.9347 178.585 47.2244 178.864C46.5142 179.136 45.7159 179.273 44.8295 179.273ZM53.3097 179V165.909H55.2528V167.955H55.4233C55.696 167.256 56.1364 166.713 56.7443 166.327C57.3523 165.935 58.0824 165.739 58.9347 165.739C59.7983 165.739 60.517 165.935 61.0909 166.327C61.6705 166.713 62.1222 167.256 62.446 167.955H62.5824C62.9176 167.278 63.4205 166.741 64.0909 166.344C64.7614 165.94 65.5653 165.739 66.5028 165.739C67.6733 165.739 68.6307 166.105 69.375 166.838C70.1193 167.565 70.4915 168.699 70.4915 170.239V179H68.4801V170.239C68.4801 169.273 68.2159 168.582 67.6875 168.168C67.1591 167.753 66.5369 167.545 65.821 167.545C64.9006 167.545 64.1875 167.824 63.6818 168.381C63.1761 168.932 62.9233 169.631 62.9233 170.477V179H60.8778V170.034C60.8778 169.29 60.6364 168.69 60.1534 168.236C59.6705 167.776 59.0483 167.545 58.2869 167.545C57.7642 167.545 57.2756 167.685 56.821 167.963C56.3722 168.241 56.0085 168.628 55.7301 169.122C55.4574 169.611 55.321 170.176 55.321 170.818V179H53.3097ZM74.169 183.909V165.909H76.1122V167.989H76.3509C76.4986 167.761 76.7031 167.472 76.9645 167.119C77.2315 166.761 77.6122 166.443 78.1065 166.165C78.6065 165.881 79.2827 165.739 80.1349 165.739C81.2372 165.739 82.2088 166.014 83.0497 166.565C83.8906 167.116 84.5469 167.898 85.0185 168.909C85.4901 169.92 85.7259 171.114 85.7259 172.489C85.7259 173.875 85.4901 175.077 85.0185 176.094C84.5469 177.105 83.8935 177.889 83.0582 178.446C82.223 178.997 81.2599 179.273 80.169 179.273C79.3281 179.273 78.6548 179.134 78.1491 178.855C77.6435 178.571 77.2543 178.25 76.9815 177.892C76.7088 177.528 76.4986 177.227 76.3509 176.989H76.1804V183.909H74.169ZM76.1463 172.455C76.1463 173.443 76.2912 174.315 76.581 175.071C76.8707 175.821 77.294 176.409 77.8509 176.835C78.4077 177.256 79.0895 177.466 79.8963 177.466C80.7372 177.466 81.4389 177.244 82.0014 176.801C82.5696 176.352 82.9957 175.75 83.2798 174.994C83.5696 174.233 83.7145 173.386 83.7145 172.455C83.7145 171.534 83.5724 170.705 83.2884 169.966C83.0099 169.222 82.5866 168.634 82.0185 168.202C81.456 167.764 80.7486 167.545 79.8963 167.545C79.0781 167.545 78.3906 167.753 77.8338 168.168C77.277 168.577 76.8565 169.151 76.5724 169.889C76.2884 170.622 76.1463 171.477 76.1463 172.455ZM90.8054 161.545V179H88.794V161.545H90.8054ZM98.3416 179.307C97.5121 179.307 96.7592 179.151 96.0831 178.838C95.407 178.52 94.87 178.062 94.4723 177.466C94.0746 176.864 93.8757 176.136 93.8757 175.284C93.8757 174.534 94.0234 173.926 94.3189 173.46C94.6143 172.989 95.0092 172.619 95.5036 172.352C95.9979 172.085 96.5433 171.886 97.1399 171.756C97.7422 171.619 98.3473 171.511 98.9553 171.432C99.7507 171.33 100.396 171.253 100.89 171.202C101.39 171.145 101.754 171.051 101.981 170.92C102.214 170.79 102.33 170.562 102.33 170.239V170.17C102.33 169.33 102.1 168.676 101.64 168.21C101.185 167.744 100.495 167.511 99.5689 167.511C98.6087 167.511 97.8558 167.722 97.3104 168.142C96.7649 168.562 96.3814 169.011 96.1598 169.489L94.2507 168.807C94.5916 168.011 95.0462 167.392 95.6143 166.949C96.1882 166.5 96.8132 166.187 97.4893 166.011C98.1712 165.83 98.8416 165.739 99.5007 165.739C99.9212 165.739 100.404 165.79 100.95 165.892C101.501 165.989 102.032 166.19 102.543 166.497C103.06 166.804 103.489 167.267 103.83 167.886C104.171 168.506 104.342 169.335 104.342 170.375V179H102.33V177.227H102.228C102.092 177.511 101.864 177.815 101.546 178.139C101.228 178.463 100.805 178.739 100.276 178.966C99.7479 179.193 99.103 179.307 98.3416 179.307ZM98.6484 177.5C99.4439 177.5 100.114 177.344 100.66 177.031C101.211 176.719 101.626 176.315 101.904 175.821C102.188 175.327 102.33 174.807 102.33 174.261V172.42C102.245 172.523 102.058 172.616 101.768 172.702C101.484 172.781 101.154 172.852 100.779 172.915C100.41 172.972 100.049 173.023 99.6967 173.068C99.3501 173.108 99.0689 173.142 98.853 173.17C98.3303 173.239 97.8416 173.349 97.3871 173.503C96.9382 173.651 96.5746 173.875 96.2962 174.176C96.0234 174.472 95.8871 174.875 95.8871 175.386C95.8871 176.085 96.1456 176.614 96.6626 176.972C97.1854 177.324 97.8473 177.5 98.6484 177.5ZM113.706 165.909V167.614H106.922V165.909H113.706ZM108.899 162.773H110.911V175.25C110.911 175.818 110.993 176.244 111.158 176.528C111.328 176.807 111.544 176.994 111.805 177.091C112.072 177.182 112.354 177.227 112.649 177.227C112.871 177.227 113.053 177.216 113.195 177.193C113.337 177.165 113.45 177.142 113.536 177.125L113.945 178.932C113.808 178.983 113.618 179.034 113.374 179.085C113.129 179.142 112.82 179.17 112.445 179.17C111.876 179.17 111.32 179.048 110.774 178.804C110.234 178.56 109.786 178.188 109.428 177.688C109.075 177.188 108.899 176.557 108.899 175.795V162.773ZM122.08 179.273C120.818 179.273 119.73 178.994 118.815 178.438C117.906 177.875 117.205 177.091 116.71 176.085C116.222 175.074 115.977 173.898 115.977 172.557C115.977 171.216 116.222 170.034 116.71 169.011C117.205 167.983 117.892 167.182 118.773 166.608C119.659 166.028 120.693 165.739 121.875 165.739C122.557 165.739 123.23 165.852 123.895 166.08C124.56 166.307 125.165 166.676 125.71 167.188C126.256 167.693 126.69 168.364 127.014 169.199C127.338 170.034 127.5 171.062 127.5 172.284V173.136H117.409V171.398H125.455C125.455 170.659 125.307 170 125.011 169.42C124.722 168.841 124.307 168.384 123.767 168.048C123.233 167.713 122.602 167.545 121.875 167.545C121.074 167.545 120.381 167.744 119.795 168.142C119.216 168.534 118.77 169.045 118.457 169.676C118.145 170.307 117.989 170.983 117.989 171.705V172.864C117.989 173.852 118.159 174.69 118.5 175.378C118.847 176.06 119.327 176.58 119.94 176.938C120.554 177.29 121.267 177.466 122.08 177.466C122.608 177.466 123.085 177.392 123.511 177.244C123.943 177.091 124.315 176.864 124.628 176.562C124.94 176.256 125.182 175.875 125.352 175.42L127.295 175.966C127.091 176.625 126.747 177.205 126.264 177.705C125.781 178.199 125.185 178.585 124.474 178.864C123.764 179.136 122.966 179.273 122.08 179.273ZM143.412 161.545V179H141.298V163.761H141.196L136.935 166.591V164.443L141.298 161.545H143.412Z" fill="#000759"/>
<path d="M132.061 55.9395L114.061 37.9395C113.779 37.6582 113.398 37.5001 113 37.5H62C61.6022 37.5 61.2206 37.658 60.9393 37.9393C60.658 38.2206 60.5 38.6022 60.5 39V76.5H44C42.8065 76.5 41.6619 76.9741 40.818 77.818C39.9741 78.6619 39.5 79.8065 39.5 81V120C39.5 121.193 39.9741 122.338 40.818 123.182C41.6619 124.026 42.8065 124.5 44 124.5H60.5V129C60.5 129.398 60.658 129.779 60.9393 130.061C61.2206 130.342 61.6022 130.5 62 130.5H131C131.398 130.5 131.779 130.342 132.061 130.061C132.342 129.779 132.5 129.398 132.5 129V57C132.5 56.6022 132.342 56.2207 132.061 55.9395ZM114.5 42.621L127.379 55.5H114.5V42.621ZM42.5 120V81C42.5 80.6022 42.658 80.2206 42.9393 79.9393C43.2206 79.658 43.6022 79.5 44 79.5H74C74.3978 79.5 74.7794 79.658 75.0607 79.9393C75.342 80.2206 75.5 80.6022 75.5 81V120C75.5 120.398 75.342 120.779 75.0607 121.061C74.7794 121.342 74.3978 121.5 74 121.5H44C43.6022 121.5 43.2206 121.342 42.9393 121.061C42.658 120.779 42.5 120.398 42.5 120ZM63.5 127.5V124.5H74C75.1935 124.5 76.3381 124.026 77.182 123.182C78.0259 122.338 78.5 121.193 78.5 120V81C78.5 79.8065 78.0259 78.6619 77.182 77.818C76.3381 76.9741 75.1935 76.5 74 76.5H63.5V40.5H111.5V57C111.5 57.3978 111.658 57.7794 111.939 58.0607C112.221 58.342 112.602 58.5 113 58.5H129.5V127.5H63.5Z" fill="#898FCF"/>
<path d="M99.5 61.5C99.5 58.5333 98.6203 55.6332 96.9721 53.1665C95.3238 50.6997 92.9812 48.7771 90.2403 47.6418C87.4994 46.5065 84.4834 46.2094 81.5737 46.7882C78.6639 47.367 75.9912 48.7956 73.8934 50.8934C71.7956 52.9912 70.367 55.6639 69.7882 58.5737C69.2094 61.4834 69.5065 64.4994 70.6418 67.2403C71.7771 69.9811 73.6997 72.3238 76.1665 73.972C78.6332 75.6203 81.5333 76.5 84.5 76.5C88.4769 76.4956 92.2897 74.9139 95.1018 72.1018C97.9139 69.2897 99.4956 65.4769 99.5 61.5ZM72.5 61.5C72.5 59.1266 73.2038 56.8066 74.5224 54.8332C75.841 52.8598 77.7151 51.3217 79.9078 50.4135C82.1005 49.5052 84.5133 49.2676 86.8411 49.7306C89.1689 50.1936 91.3071 51.3365 92.9853 53.0147C94.6635 54.693 95.8064 56.8312 96.2694 59.1589C96.7325 61.4867 96.4948 63.8995 95.5866 66.0922C94.6783 68.2849 93.1402 70.1591 91.1669 71.4776C89.1935 72.7962 86.8734 73.5 84.5 73.5C81.3185 73.4964 78.2683 72.231 76.0187 69.9813C73.769 67.7317 72.5036 64.6815 72.5 61.5Z" fill="#898FCF"/>
<path d="M86 72V70.5C87.1935 70.5 88.3381 70.0259 89.182 69.182C90.0259 68.3381 90.5 67.1935 90.5 66V64.5C90.5 63.3065 90.0259 62.1619 89.182 61.318C88.3381 60.4741 87.1935 60 86 60V55.5C86.3978 55.5 86.7794 55.658 87.0607 55.9393C87.342 56.2206 87.5 56.6022 87.5 57V58.5H90.5V57C90.5 55.8065 90.0259 54.6619 89.182 53.818C88.3381 52.9741 87.1935 52.5 86 52.5V51H83V52.5C81.8065 52.5 80.6619 52.9741 79.818 53.818C78.9741 54.6619 78.5 55.8065 78.5 57V58.5C78.5 59.6935 78.9741 60.8381 79.818 61.682C80.6619 62.5259 81.8065 63 83 63V67.5C82.6022 67.5 82.2206 67.342 81.9393 67.0607C81.658 66.7794 81.5 66.3978 81.5 66V64.5H78.5V66C78.5 67.1935 78.9741 68.3381 79.818 69.182C80.6619 70.0259 81.8065 70.5 83 70.5V72H86ZM81.5 58.5V57C81.5 56.6022 81.658 56.2206 81.9393 55.9393C82.2206 55.658 82.6022 55.5 83 55.5V60C82.6022 60 82.2206 59.842 81.9393 59.5607C81.658 59.2794 81.5 58.8978 81.5 58.5ZM86 63C86.3978 63 86.7794 63.158 87.0607 63.4393C87.342 63.7206 87.5 64.1022 87.5 64.5V66C87.5 66.3978 87.342 66.7794 87.0607 67.0607C86.7794 67.342 86.3978 67.5 86 67.5V63Z" fill="#898FCF"/>
<path d="M102.5 70.5H126.5V73.5H102.5V70.5Z" fill="#898FCF"/>
<path d="M102.5 64.5H126.5V67.5H102.5V64.5Z" fill="#898FCF"/>
<path d="M81.5 81H126.5V84H81.5V81Z" fill="#898FCF"/>
<path d="M81.5 87H126.5V90H81.5V87Z" fill="#898FCF"/>
<path d="M81.5 93H126.5V96H81.5V93Z" fill="#898FCF"/>
<path d="M81.5 99H126.5V102H81.5V99Z" fill="#898FCF"/>
<path d="M71 82.5H47C46.6022 82.5 46.2206 82.658 45.9393 82.9393C45.658 83.2206 45.5 83.6022 45.5 84V93C45.5 93.3978 45.658 93.7794 45.9393 94.0607C46.2206 94.342 46.6022 94.5 47 94.5H71C71.3978 94.5 71.7794 94.342 72.0607 94.0607C72.342 93.7794 72.5 93.3978 72.5 93V84C72.5 83.6022 72.342 83.2206 72.0607 82.9393C71.7794 82.658 71.3978 82.5 71 82.5ZM69.5 91.5H48.5V85.5H69.5V91.5Z" fill="#898FCF"/>
<path d="M71 97.5H63.5C63.1022 97.5 62.7206 97.658 62.4393 97.9393C62.158 98.2206 62 98.6022 62 99V117C62 117.398 62.158 117.779 62.4393 118.061C62.7206 118.342 63.1022 118.5 63.5 118.5H71C71.3978 118.5 71.7794 118.342 72.0607 118.061C72.342 117.779 72.5 117.398 72.5 117V99C72.5 98.6022 72.342 98.2206 72.0607 97.9393C71.7794 97.658 71.3978 97.5 71 97.5ZM69.5 115.5H65V100.5H69.5V115.5Z" fill="#898FCF"/>
<path d="M59 97.5H47C46.6022 97.5 46.2206 97.658 45.9393 97.9393C45.658 98.2206 45.5 98.6022 45.5 99V117C45.5 117.398 45.658 117.779 45.9393 118.061C46.2206 118.342 46.6022 118.5 47 118.5H59C59.3978 118.5 59.7794 118.342 60.0607 118.061C60.342 117.779 60.5 117.398 60.5 117V99C60.5 98.6022 60.342 98.2206 60.0607 97.9393C59.7794 97.658 59.3978 97.5 59 97.5ZM48.5 106.5H51.5V109.5H48.5V106.5ZM54.5 106.5H57.5V109.5H54.5V106.5ZM57.5 103.5H54.5V100.5H57.5V103.5ZM48.5 100.5H51.5V103.5H48.5V100.5ZM48.5 112.5H51.5V115.5H48.5V112.5ZM57.5 115.5H54.5V112.5H57.5V115.5Z" fill="#898FCF"/>
<path d="M96.5 118.5H126.5V121.5H96.5V118.5Z" fill="#898FCF"/>
<path d="M105.499 112.5H126.5V115.5H105.499V112.5Z" fill="#898FCF"/>
</svg>
