<svg width="171" height="212" viewBox="0 0 171 212" fill="none" xmlns="http://www.w3.org/2000/svg">
<rect width="171" height="212" rx="12" fill="white"/>
<path d="M24.1591 163.42V161.545H37.25V163.42H31.7614V179H29.6477V163.42H24.1591ZM43.8295 179.273C42.5682 179.273 41.4801 178.994 40.5653 178.438C39.6562 177.875 38.9545 177.091 38.4602 176.085C37.9716 175.074 37.7273 173.898 37.7273 172.557C37.7273 171.216 37.9716 170.034 38.4602 169.011C38.9545 167.983 39.642 167.182 40.5227 166.608C41.4091 166.028 42.4432 165.739 43.625 165.739C44.3068 165.739 44.9801 165.852 45.6449 166.08C46.3097 166.307 46.9148 166.676 47.4602 167.188C48.0057 167.693 48.4403 168.364 48.7642 169.199C49.0881 170.034 49.25 171.062 49.25 172.284V173.136H39.1591V171.398H47.2045C47.2045 170.659 47.0568 170 46.7614 169.42C46.4716 168.841 46.0568 168.384 45.517 168.048C44.983 167.713 44.3523 167.545 43.625 167.545C42.8239 167.545 42.1307 167.744 41.5455 168.142C40.9659 168.534 40.5199 169.045 40.2074 169.676C39.8949 170.307 39.7386 170.983 39.7386 171.705V172.864C39.7386 173.852 39.9091 174.69 40.25 175.378C40.5966 176.06 41.0767 176.58 41.6903 176.938C42.304 177.29 43.017 177.466 43.8295 177.466C44.358 177.466 44.8352 177.392 45.2614 177.244C45.6932 177.091 46.0653 176.864 46.3778 176.562C46.6903 176.256 46.9318 175.875 47.1023 175.42L49.0455 175.966C48.8409 176.625 48.4972 177.205 48.0142 177.705C47.5313 178.199 46.9347 178.585 46.2244 178.864C45.5142 179.136 44.7159 179.273 43.8295 179.273ZM52.3097 179V165.909H54.2528V167.955H54.4233C54.696 167.256 55.1364 166.713 55.7443 166.327C56.3523 165.935 57.0824 165.739 57.9347 165.739C58.7983 165.739 59.517 165.935 60.0909 166.327C60.6705 166.713 61.1222 167.256 61.446 167.955H61.5824C61.9176 167.278 62.4205 166.741 63.0909 166.344C63.7614 165.94 64.5653 165.739 65.5028 165.739C66.6733 165.739 67.6307 166.105 68.375 166.838C69.1193 167.565 69.4915 168.699 69.4915 170.239V179H67.4801V170.239C67.4801 169.273 67.2159 168.582 66.6875 168.168C66.1591 167.753 65.5369 167.545 64.821 167.545C63.9006 167.545 63.1875 167.824 62.6818 168.381C62.1761 168.932 61.9233 169.631 61.9233 170.477V179H59.8778V170.034C59.8778 169.29 59.6364 168.69 59.1534 168.236C58.6705 167.776 58.0483 167.545 57.2869 167.545C56.7642 167.545 56.2756 167.685 55.821 167.963C55.3722 168.241 55.0085 168.628 54.7301 169.122C54.4574 169.611 54.321 170.176 54.321 170.818V179H52.3097ZM73.169 183.909V165.909H75.1122V167.989H75.3509C75.4986 167.761 75.7031 167.472 75.9645 167.119C76.2315 166.761 76.6122 166.443 77.1065 166.165C77.6065 165.881 78.2827 165.739 79.1349 165.739C80.2372 165.739 81.2088 166.014 82.0497 166.565C82.8906 167.116 83.5469 167.898 84.0185 168.909C84.4901 169.92 84.7259 171.114 84.7259 172.489C84.7259 173.875 84.4901 175.077 84.0185 176.094C83.5469 177.105 82.8935 177.889 82.0582 178.446C81.223 178.997 80.2599 179.273 79.169 179.273C78.3281 179.273 77.6548 179.134 77.1491 178.855C76.6435 178.571 76.2543 178.25 75.9815 177.892C75.7088 177.528 75.4986 177.227 75.3509 176.989H75.1804V183.909H73.169ZM75.1463 172.455C75.1463 173.443 75.2912 174.315 75.581 175.071C75.8707 175.821 76.294 176.409 76.8509 176.835C77.4077 177.256 78.0895 177.466 78.8963 177.466C79.7372 177.466 80.4389 177.244 81.0014 176.801C81.5696 176.352 81.9957 175.75 82.2798 174.994C82.5696 174.233 82.7145 173.386 82.7145 172.455C82.7145 171.534 82.5724 170.705 82.2884 169.966C82.0099 169.222 81.5866 168.634 81.0185 168.202C80.456 167.764 79.7486 167.545 78.8963 167.545C78.0781 167.545 77.3906 167.753 76.8338 168.168C76.277 168.577 75.8565 169.151 75.5724 169.889C75.2884 170.622 75.1463 171.477 75.1463 172.455ZM89.8054 161.545V179H87.794V161.545H89.8054ZM97.3416 179.307C96.5121 179.307 95.7592 179.151 95.0831 178.838C94.407 178.52 93.87 178.062 93.4723 177.466C93.0746 176.864 92.8757 176.136 92.8757 175.284C92.8757 174.534 93.0234 173.926 93.3189 173.46C93.6143 172.989 94.0092 172.619 94.5036 172.352C94.9979 172.085 95.5433 171.886 96.1399 171.756C96.7422 171.619 97.3473 171.511 97.9553 171.432C98.7507 171.33 99.3956 171.253 99.8899 171.202C100.39 171.145 100.754 171.051 100.981 170.92C101.214 170.79 101.33 170.562 101.33 170.239V170.17C101.33 169.33 101.1 168.676 100.64 168.21C100.185 167.744 99.495 167.511 98.5689 167.511C97.6087 167.511 96.8558 167.722 96.3104 168.142C95.7649 168.562 95.3814 169.011 95.1598 169.489L93.2507 168.807C93.5916 168.011 94.0462 167.392 94.6143 166.949C95.1882 166.5 95.8132 166.187 96.4893 166.011C97.1712 165.83 97.8416 165.739 98.5007 165.739C98.9212 165.739 99.4041 165.79 99.9496 165.892C100.501 165.989 101.032 166.19 101.543 166.497C102.06 166.804 102.489 167.267 102.83 167.886C103.171 168.506 103.342 169.335 103.342 170.375V179H101.33V177.227H101.228C101.092 177.511 100.864 177.815 100.546 178.139C100.228 178.463 99.8047 178.739 99.2763 178.966C98.7479 179.193 98.103 179.307 97.3416 179.307ZM97.6484 177.5C98.4439 177.5 99.1143 177.344 99.6598 177.031C100.211 176.719 100.626 176.315 100.904 175.821C101.188 175.327 101.33 174.807 101.33 174.261V172.42C101.245 172.523 101.058 172.616 100.768 172.702C100.484 172.781 100.154 172.852 99.7791 172.915C99.4098 172.972 99.049 173.023 98.6967 173.068C98.3501 173.108 98.0689 173.142 97.853 173.17C97.3303 173.239 96.8416 173.349 96.3871 173.503C95.9382 173.651 95.5746 173.875 95.2962 174.176C95.0234 174.472 94.8871 174.875 94.8871 175.386C94.8871 176.085 95.1456 176.614 95.6626 176.972C96.1854 177.324 96.8473 177.5 97.6484 177.5ZM112.706 165.909V167.614H105.922V165.909H112.706ZM107.899 162.773H109.911V175.25C109.911 175.818 109.993 176.244 110.158 176.528C110.328 176.807 110.544 176.994 110.805 177.091C111.072 177.182 111.354 177.227 111.649 177.227C111.871 177.227 112.053 177.216 112.195 177.193C112.337 177.165 112.45 177.142 112.536 177.125L112.945 178.932C112.808 178.983 112.618 179.034 112.374 179.085C112.129 179.142 111.82 179.17 111.445 179.17C110.876 179.17 110.32 179.048 109.774 178.804C109.234 178.56 108.786 178.188 108.428 177.688C108.075 177.188 107.899 176.557 107.899 175.795V162.773ZM121.08 179.273C119.818 179.273 118.73 178.994 117.815 178.438C116.906 177.875 116.205 177.091 115.71 176.085C115.222 175.074 114.977 173.898 114.977 172.557C114.977 171.216 115.222 170.034 115.71 169.011C116.205 167.983 116.892 167.182 117.773 166.608C118.659 166.028 119.693 165.739 120.875 165.739C121.557 165.739 122.23 165.852 122.895 166.08C123.56 166.307 124.165 166.676 124.71 167.188C125.256 167.693 125.69 168.364 126.014 169.199C126.338 170.034 126.5 171.062 126.5 172.284V173.136H116.409V171.398H124.455C124.455 170.659 124.307 170 124.011 169.42C123.722 168.841 123.307 168.384 122.767 168.048C122.233 167.713 121.602 167.545 120.875 167.545C120.074 167.545 119.381 167.744 118.795 168.142C118.216 168.534 117.77 169.045 117.457 169.676C117.145 170.307 116.989 170.983 116.989 171.705V172.864C116.989 173.852 117.159 174.69 117.5 175.378C117.847 176.06 118.327 176.58 118.94 176.938C119.554 177.29 120.267 177.466 121.08 177.466C121.608 177.466 122.085 177.392 122.511 177.244C122.943 177.091 123.315 176.864 123.628 176.562C123.94 176.256 124.182 175.875 124.352 175.42L126.295 175.966C126.091 176.625 125.747 177.205 125.264 177.705C124.781 178.199 124.185 178.585 123.474 178.864C122.764 179.136 121.966 179.273 121.08 179.273ZM142.173 179.239C141.048 179.239 140.045 179.045 139.165 178.659C138.29 178.273 137.594 177.736 137.077 177.048C136.565 176.355 136.287 175.551 136.241 174.636H138.389C138.435 175.199 138.628 175.685 138.969 176.094C139.31 176.497 139.756 176.81 140.307 177.031C140.858 177.253 141.469 177.364 142.139 177.364C142.889 177.364 143.554 177.233 144.134 176.972C144.713 176.71 145.168 176.347 145.497 175.881C145.827 175.415 145.991 174.875 145.991 174.261C145.991 173.619 145.832 173.054 145.514 172.565C145.196 172.071 144.73 171.685 144.116 171.406C143.503 171.128 142.753 170.989 141.866 170.989H140.469V169.114H141.866C142.56 169.114 143.168 168.989 143.69 168.739C144.219 168.489 144.631 168.136 144.926 167.682C145.227 167.227 145.378 166.693 145.378 166.08C145.378 165.489 145.247 164.974 144.986 164.537C144.724 164.099 144.355 163.759 143.878 163.514C143.406 163.27 142.849 163.148 142.207 163.148C141.605 163.148 141.037 163.259 140.503 163.48C139.974 163.696 139.543 164.011 139.207 164.426C138.872 164.835 138.69 165.33 138.662 165.909H136.616C136.651 164.994 136.926 164.193 137.443 163.506C137.96 162.812 138.636 162.273 139.472 161.886C140.313 161.5 141.236 161.307 142.241 161.307C143.321 161.307 144.247 161.526 145.02 161.963C145.793 162.395 146.386 162.966 146.801 163.676C147.216 164.386 147.423 165.153 147.423 165.977C147.423 166.96 147.165 167.798 146.648 168.491C146.136 169.185 145.44 169.665 144.56 169.932V170.068C145.662 170.25 146.523 170.719 147.142 171.474C147.761 172.224 148.071 173.153 148.071 174.261C148.071 175.21 147.813 176.062 147.295 176.818C146.784 177.568 146.085 178.159 145.199 178.591C144.313 179.023 143.304 179.239 142.173 179.239Z" fill="#000759"/>
<path d="M47 73.5H89C89.3978 73.5 89.7794 73.342 90.0607 73.0607C90.342 72.7794 90.5 72.3978 90.5 72V57C90.5 56.6022 90.342 56.2206 90.0607 55.9393C89.7794 55.658 89.3978 55.5 89 55.5H47C46.6022 55.5 46.2206 55.658 45.9393 55.9393C45.658 56.2206 45.5 56.6022 45.5 57V72C45.5 72.3978 45.658 72.7794 45.9393 73.0607C46.2206 73.342 46.6022 73.5 47 73.5ZM48.5 58.5H87.5V70.5H48.5V58.5Z" fill="#898FCF"/>
<path d="M47 85.5H65C65.3978 85.5 65.7794 85.342 66.0607 85.0607C66.342 84.7794 66.5 84.3978 66.5 84V78C66.5 77.6022 66.342 77.2206 66.0607 76.9393C65.7794 76.658 65.3978 76.5 65 76.5H47C46.6022 76.5 46.2206 76.658 45.9393 76.9393C45.658 77.2206 45.5 77.6022 45.5 78V84C45.5 84.3978 45.658 84.7794 45.9393 85.0607C46.2206 85.342 46.6022 85.5 47 85.5ZM48.5 79.5H63.5V82.5H48.5V79.5Z" fill="#898FCF"/>
<path d="M89 76.5H71C70.6022 76.5 70.2206 76.658 69.9393 76.9393C69.658 77.2206 69.5 77.6022 69.5 78V84C69.5 84.3978 69.658 84.7794 69.9393 85.0607C70.2206 85.342 70.6022 85.5 71 85.5H89C89.3978 85.5 89.7794 85.342 90.0607 85.0607C90.342 84.7794 90.5 84.3978 90.5 84V78C90.5 77.6022 90.342 77.2206 90.0607 76.9393C89.7794 76.658 89.3978 76.5 89 76.5ZM87.5 82.5H72.5V79.5H87.5V82.5Z" fill="#898FCF"/>
<path d="M47 97.5H53C53.3978 97.5 53.7794 97.342 54.0607 97.0607C54.342 96.7794 54.5 96.3978 54.5 96V90C54.5 89.6022 54.342 89.2206 54.0607 88.9393C53.7794 88.658 53.3978 88.5 53 88.5H47C46.6022 88.5 46.2206 88.658 45.9393 88.9393C45.658 89.2206 45.5 89.6022 45.5 90V96C45.5 96.3978 45.658 96.7794 45.9393 97.0607C46.2206 97.342 46.6022 97.5 47 97.5ZM48.5 91.5H51.5V94.5H48.5V91.5Z" fill="#898FCF"/>
<path d="M65 88.5H59C58.6022 88.5 58.2206 88.658 57.9393 88.9393C57.658 89.2206 57.5 89.6022 57.5 90V96C57.5 96.3978 57.658 96.7794 57.9393 97.0607C58.2206 97.342 58.6022 97.5 59 97.5H65C65.3978 97.5 65.7794 97.342 66.0607 97.0607C66.342 96.7794 66.5 96.3978 66.5 96V90C66.5 89.6022 66.342 89.2206 66.0607 88.9393C65.7794 88.658 65.3978 88.5 65 88.5ZM63.5 94.5H60.5V91.5H63.5V94.5Z" fill="#898FCF"/>
<path d="M77 88.5H71C70.6022 88.5 70.2206 88.658 69.9393 88.9393C69.658 89.2206 69.5 89.6022 69.5 90V96C69.5 96.3978 69.658 96.7794 69.9393 97.0607C70.2206 97.342 70.6022 97.5 71 97.5H77C77.3978 97.5 77.7794 97.342 78.0607 97.0607C78.342 96.7794 78.5 96.3978 78.5 96V90C78.5 89.6022 78.342 89.2206 78.0607 88.9393C77.7794 88.658 77.3978 88.5 77 88.5ZM75.5 94.5H72.5V91.5H75.5V94.5Z" fill="#898FCF"/>
<path d="M47 109.5H53C53.3978 109.5 53.7794 109.342 54.0607 109.061C54.342 108.779 54.5 108.398 54.5 108V102C54.5 101.602 54.342 101.221 54.0607 100.939C53.7794 100.658 53.3978 100.5 53 100.5H47C46.6022 100.5 46.2206 100.658 45.9393 100.939C45.658 101.221 45.5 101.602 45.5 102V108C45.5 108.398 45.658 108.779 45.9393 109.061C46.2206 109.342 46.6022 109.5 47 109.5ZM48.5 103.5H51.5V106.5H48.5V103.5Z" fill="#898FCF"/>
<path d="M65 100.5H59C58.6022 100.5 58.2206 100.658 57.9393 100.939C57.658 101.221 57.5 101.602 57.5 102V108C57.5 108.398 57.658 108.779 57.9393 109.061C58.2206 109.342 58.6022 109.5 59 109.5H65C65.3978 109.5 65.7794 109.342 66.0607 109.061C66.342 108.779 66.5 108.398 66.5 108V102C66.5 101.602 66.342 101.221 66.0607 100.939C65.7794 100.658 65.3978 100.5 65 100.5ZM63.5 106.5H60.5V103.5H63.5V106.5Z" fill="#898FCF"/>
<path d="M77 100.5H71C70.6022 100.5 70.2206 100.658 69.9393 100.939C69.658 101.221 69.5 101.602 69.5 102V108C69.5 108.398 69.658 108.779 69.9393 109.061C70.2206 109.342 70.6022 109.5 71 109.5H77C77.3978 109.5 77.7794 109.342 78.0607 109.061C78.342 108.779 78.5 108.398 78.5 108V102C78.5 101.602 78.342 101.221 78.0607 100.939C77.7794 100.658 77.3978 100.5 77 100.5ZM75.5 106.5H72.5V103.5H75.5V106.5Z" fill="#898FCF"/>
<path d="M131 94.5H129.5V90C129.5 89.6022 129.342 89.2206 129.061 88.9393C128.779 88.658 128.398 88.5 128 88.5H110C109.602 88.5 109.221 88.658 108.939 88.9393C108.658 89.2206 108.5 89.6022 108.5 90V96C108.5 96.3978 108.658 96.7794 108.939 97.0607C109.221 97.342 109.602 97.5 110 97.5H111.5V100.5H110C109.602 100.5 109.221 100.658 108.939 100.939C108.658 101.221 108.5 101.602 108.5 102V108C108.5 108.398 108.658 108.779 108.939 109.061C109.221 109.342 109.602 109.5 110 109.5H111.5V112.5H110C109.602 112.5 109.221 112.658 108.939 112.939C108.658 113.221 108.5 113.602 108.5 114V120C108.5 120.398 108.658 120.779 108.939 121.061C109.221 121.342 109.602 121.5 110 121.5H111.5V126C111.5 126.398 111.658 126.779 111.939 127.061C112.221 127.342 112.602 127.5 113 127.5H131C131.398 127.5 131.779 127.342 132.061 127.061C132.342 126.779 132.5 126.398 132.5 126V120C132.5 119.602 132.342 119.221 132.061 118.939C131.779 118.658 131.398 118.5 131 118.5H129.5V115.5H131C131.398 115.5 131.779 115.342 132.061 115.061C132.342 114.779 132.5 114.398 132.5 114V108C132.5 107.602 132.342 107.221 132.061 106.939C131.779 106.658 131.398 106.5 131 106.5H129.5V103.5H131C131.398 103.5 131.779 103.342 132.061 103.061C132.342 102.779 132.5 102.398 132.5 102V96C132.5 95.6022 132.342 95.2206 132.061 94.9393C131.779 94.658 131.398 94.5 131 94.5ZM111.5 91.5H126.5V94.5H111.5V91.5ZM129.5 124.5H114.5V121.5H129.5V124.5ZM126.5 118.5H111.5V115.5H126.5V118.5ZM129.5 112.5H114.5V109.5H129.5V112.5ZM126.5 106.5H111.5V103.5H126.5V106.5ZM129.5 100.5H114.5V97.5H129.5V100.5Z" fill="#898FCF"/>
<path d="M104 88.5H96.5V57C96.4976 55.0116 95.7067 53.1053 94.3007 51.6993C92.8947 50.2933 90.9884 49.5024 89 49.5H47C45.0116 49.5024 43.1053 50.2933 41.6993 51.6993C40.2933 53.1053 39.5024 55.0116 39.5 57V114C39.5024 115.988 40.2933 117.895 41.6993 119.301C43.1053 120.707 45.0116 121.498 47 121.5H81.5V126C81.5 126.398 81.658 126.779 81.9393 127.061C82.2206 127.342 82.6022 127.5 83 127.5H101C101.398 127.5 101.779 127.342 102.061 127.061C102.342 126.779 102.5 126.398 102.5 126V121.5H104C104.398 121.5 104.779 121.342 105.061 121.061C105.342 120.779 105.5 120.398 105.5 120V114C105.5 113.602 105.342 113.221 105.061 112.939C104.779 112.658 104.398 112.5 104 112.5H102.5V109.5H104C104.398 109.5 104.779 109.342 105.061 109.061C105.342 108.779 105.5 108.398 105.5 108V102C105.5 101.602 105.342 101.221 105.061 100.939C104.779 100.658 104.398 100.5 104 100.5H102.5V97.5H104C104.398 97.5 104.779 97.342 105.061 97.0607C105.342 96.7794 105.5 96.3978 105.5 96V90C105.5 89.6022 105.342 89.2206 105.061 88.9393C104.779 88.658 104.398 88.5 104 88.5ZM47 52.5H89C90.1935 52.5 91.3381 52.9741 92.182 53.818C93.0259 54.6619 93.5 55.8065 93.5 57V88.5H86C85.6022 88.5 85.2206 88.658 84.9393 88.9393C84.658 89.2206 84.5 89.6022 84.5 90V94.5H83C82.6022 94.5 82.2206 94.658 81.9393 94.9393C81.658 95.2206 81.5 95.6022 81.5 96V102C81.5 102.398 81.658 102.779 81.9393 103.061C82.2206 103.342 82.6022 103.5 83 103.5H84.5V106.5H83C82.6022 106.5 82.2206 106.658 81.9393 106.939C81.658 107.221 81.5 107.602 81.5 108V112.5H42.5V57C42.5 55.8065 42.9741 54.6619 43.818 53.818C44.6619 52.9741 45.8065 52.5 47 52.5ZM47 118.5C46.0726 118.496 45.1691 118.206 44.413 117.669C43.6568 117.132 43.0851 116.374 42.776 115.5H84.5V118.5H47ZM99.5 124.5H84.5V121.5H99.5V124.5ZM102.5 118.5H87.5V115.5H102.5V118.5ZM99.5 112.5H84.5V109.5H99.5V112.5ZM102.5 106.5H87.5V103.5H102.5V106.5ZM99.5 100.5H84.5V97.5H99.5V100.5ZM102.5 94.5H87.5V91.5H102.5V94.5Z" fill="#898FCF"/>
<path d="M131 34.5H123.5V37.5H127.379L117.5 47.379L114.06 43.9395C113.779 43.6583 113.398 43.5003 113 43.5003C112.602 43.5003 112.221 43.6583 111.939 43.9395L99.9395 55.9395L102.06 58.0605L113 47.121L116.439 50.5605C116.721 50.8417 117.102 50.9997 117.5 50.9997C117.898 50.9997 118.279 50.8417 118.56 50.5605L129.5 39.621V43.5H132.5V36C132.5 35.6022 132.342 35.2206 132.061 34.9393C131.779 34.658 131.398 34.5 131 34.5Z" fill="#898FCF"/>
<path d="M116 79.5V77.724C117 77.3718 117.843 76.677 118.38 75.7627C118.917 74.8484 119.113 73.7736 118.933 72.7287C118.753 71.6838 118.21 70.7362 117.398 70.0537C116.587 69.3713 115.56 68.998 114.5 69C114.203 69 113.913 68.912 113.667 68.7472C113.42 68.5824 113.228 68.3481 113.114 68.074C113.001 67.7999 112.971 67.4983 113.029 67.2074C113.087 66.9164 113.23 66.6491 113.439 66.4393C113.649 66.2296 113.916 66.0867 114.207 66.0288C114.498 65.9709 114.8 66.0006 115.074 66.1142C115.348 66.2277 115.582 66.42 115.747 66.6666C115.912 66.9133 116 67.2033 116 67.5H119C118.996 66.5726 118.706 65.6691 118.169 64.913C117.632 64.1568 116.874 63.5851 116 63.276V61.5H113V63.276C112 63.6282 111.157 64.323 110.62 65.2373C110.083 66.1516 109.887 67.2264 110.067 68.2713C110.247 69.3162 110.79 70.2638 111.602 70.9463C112.413 71.6287 113.44 72.002 114.5 72C114.797 72 115.087 72.088 115.333 72.2528C115.58 72.4176 115.772 72.6519 115.886 72.926C115.999 73.2001 116.029 73.5017 115.971 73.7926C115.913 74.0836 115.77 74.3509 115.561 74.5607C115.351 74.7704 115.084 74.9133 114.793 74.9712C114.502 75.0291 114.2 74.9994 113.926 74.8858C113.652 74.7723 113.418 74.58 113.253 74.3334C113.088 74.0867 113 73.7967 113 73.5H110C110.004 74.4274 110.294 75.3309 110.831 76.087C111.368 76.8432 112.126 77.4149 113 77.724V79.5H116Z" fill="#898FCF"/>
<path d="M129.5 70.5C129.5 67.5333 128.62 64.6332 126.972 62.1665C125.324 59.6997 122.981 57.7771 120.24 56.6418C117.499 55.5065 114.483 55.2094 111.574 55.7882C108.664 56.367 105.991 57.7956 103.893 59.8934C101.796 61.9912 100.367 64.6639 99.7882 67.5737C99.2094 70.4834 99.5065 73.4994 100.642 76.2403C101.777 78.9811 103.7 81.3238 106.166 82.9721C108.633 84.6203 111.533 85.5 114.5 85.5C118.477 85.4956 122.29 83.9139 125.102 81.1018C127.914 78.2897 129.496 74.4769 129.5 70.5ZM102.5 70.5C102.5 68.1266 103.204 65.8066 104.522 63.8332C105.841 61.8598 107.715 60.3217 109.908 59.4135C112.101 58.5052 114.513 58.2676 116.841 58.7306C119.169 59.1936 121.307 60.3365 122.985 62.0147C124.664 63.693 125.806 65.8312 126.269 68.1589C126.732 70.4867 126.495 72.8995 125.587 75.0922C124.678 77.2849 123.14 79.1591 121.167 80.4776C119.193 81.7962 116.873 82.5 114.5 82.5C111.319 82.4964 108.268 81.231 106.019 78.9813C103.769 76.7317 102.504 73.6815 102.5 70.5Z" fill="#898FCF"/>
</svg>
