<svg width="171" height="212" viewBox="0 0 171 212" fill="none" xmlns="http://www.w3.org/2000/svg">
<rect x="1.5" y="1.5" width="168" height="209" rx="10.5" fill="white" stroke="#EF018F" stroke-width="3"/>
<path d="M24.1591 163.42V161.545H37.25V163.42H31.7614V179H29.6477V163.42H24.1591ZM43.8295 179.273C42.5682 179.273 41.4801 178.994 40.5653 178.438C39.6562 177.875 38.9545 177.091 38.4602 176.085C37.9716 175.074 37.7273 173.898 37.7273 172.557C37.7273 171.216 37.9716 170.034 38.4602 169.011C38.9545 167.983 39.642 167.182 40.5227 166.608C41.4091 166.028 42.4432 165.739 43.625 165.739C44.3068 165.739 44.9801 165.852 45.6449 166.08C46.3097 166.307 46.9148 166.676 47.4602 167.188C48.0057 167.693 48.4403 168.364 48.7642 169.199C49.0881 170.034 49.25 171.062 49.25 172.284V173.136H39.1591V171.398H47.2045C47.2045 170.659 47.0568 170 46.7614 169.42C46.4716 168.841 46.0568 168.384 45.517 168.048C44.983 167.713 44.3523 167.545 43.625 167.545C42.8239 167.545 42.1307 167.744 41.5455 168.142C40.9659 168.534 40.5199 169.045 40.2074 169.676C39.8949 170.307 39.7386 170.983 39.7386 171.705V172.864C39.7386 173.852 39.9091 174.69 40.25 175.378C40.5966 176.06 41.0767 176.58 41.6903 176.938C42.304 177.29 43.017 177.466 43.8295 177.466C44.358 177.466 44.8352 177.392 45.2614 177.244C45.6932 177.091 46.0653 176.864 46.3778 176.562C46.6903 176.256 46.9318 175.875 47.1023 175.42L49.0455 175.966C48.8409 176.625 48.4972 177.205 48.0142 177.705C47.5313 178.199 46.9347 178.585 46.2244 178.864C45.5142 179.136 44.7159 179.273 43.8295 179.273ZM52.3097 179V165.909H54.2528V167.955H54.4233C54.696 167.256 55.1364 166.713 55.7443 166.327C56.3523 165.935 57.0824 165.739 57.9347 165.739C58.7983 165.739 59.517 165.935 60.0909 166.327C60.6705 166.713 61.1222 167.256 61.446 167.955H61.5824C61.9176 167.278 62.4205 166.741 63.0909 166.344C63.7614 165.94 64.5653 165.739 65.5028 165.739C66.6733 165.739 67.6307 166.105 68.375 166.838C69.1193 167.565 69.4915 168.699 69.4915 170.239V179H67.4801V170.239C67.4801 169.273 67.2159 168.582 66.6875 168.168C66.1591 167.753 65.5369 167.545 64.821 167.545C63.9006 167.545 63.1875 167.824 62.6818 168.381C62.1761 168.932 61.9233 169.631 61.9233 170.477V179H59.8778V170.034C59.8778 169.29 59.6364 168.69 59.1534 168.236C58.6705 167.776 58.0483 167.545 57.2869 167.545C56.7642 167.545 56.2756 167.685 55.821 167.963C55.3722 168.241 55.0085 168.628 54.7301 169.122C54.4574 169.611 54.321 170.176 54.321 170.818V179H52.3097ZM73.169 183.909V165.909H75.1122V167.989H75.3509C75.4986 167.761 75.7031 167.472 75.9645 167.119C76.2315 166.761 76.6122 166.443 77.1065 166.165C77.6065 165.881 78.2827 165.739 79.1349 165.739C80.2372 165.739 81.2088 166.014 82.0497 166.565C82.8906 167.116 83.5469 167.898 84.0185 168.909C84.4901 169.92 84.7259 171.114 84.7259 172.489C84.7259 173.875 84.4901 175.077 84.0185 176.094C83.5469 177.105 82.8935 177.889 82.0582 178.446C81.223 178.997 80.2599 179.273 79.169 179.273C78.3281 179.273 77.6548 179.134 77.1491 178.855C76.6435 178.571 76.2543 178.25 75.9815 177.892C75.7088 177.528 75.4986 177.227 75.3509 176.989H75.1804V183.909H73.169ZM75.1463 172.455C75.1463 173.443 75.2912 174.315 75.581 175.071C75.8707 175.821 76.294 176.409 76.8509 176.835C77.4077 177.256 78.0895 177.466 78.8963 177.466C79.7372 177.466 80.4389 177.244 81.0014 176.801C81.5696 176.352 81.9957 175.75 82.2798 174.994C82.5696 174.233 82.7145 173.386 82.7145 172.455C82.7145 171.534 82.5724 170.705 82.2884 169.966C82.0099 169.222 81.5866 168.634 81.0185 168.202C80.456 167.764 79.7486 167.545 78.8963 167.545C78.0781 167.545 77.3906 167.753 76.8338 168.168C76.277 168.577 75.8565 169.151 75.5724 169.889C75.2884 170.622 75.1463 171.477 75.1463 172.455ZM89.8054 161.545V179H87.794V161.545H89.8054ZM97.3416 179.307C96.5121 179.307 95.7592 179.151 95.0831 178.838C94.407 178.52 93.87 178.062 93.4723 177.466C93.0746 176.864 92.8757 176.136 92.8757 175.284C92.8757 174.534 93.0234 173.926 93.3189 173.46C93.6143 172.989 94.0092 172.619 94.5036 172.352C94.9979 172.085 95.5433 171.886 96.1399 171.756C96.7422 171.619 97.3473 171.511 97.9553 171.432C98.7507 171.33 99.3956 171.253 99.8899 171.202C100.39 171.145 100.754 171.051 100.981 170.92C101.214 170.79 101.33 170.562 101.33 170.239V170.17C101.33 169.33 101.1 168.676 100.64 168.21C100.185 167.744 99.495 167.511 98.5689 167.511C97.6087 167.511 96.8558 167.722 96.3104 168.142C95.7649 168.562 95.3814 169.011 95.1598 169.489L93.2507 168.807C93.5916 168.011 94.0462 167.392 94.6143 166.949C95.1882 166.5 95.8132 166.187 96.4893 166.011C97.1712 165.83 97.8416 165.739 98.5007 165.739C98.9212 165.739 99.4041 165.79 99.9496 165.892C100.501 165.989 101.032 166.19 101.543 166.497C102.06 166.804 102.489 167.267 102.83 167.886C103.171 168.506 103.342 169.335 103.342 170.375V179H101.33V177.227H101.228C101.092 177.511 100.864 177.815 100.546 178.139C100.228 178.463 99.8047 178.739 99.2763 178.966C98.7479 179.193 98.103 179.307 97.3416 179.307ZM97.6484 177.5C98.4439 177.5 99.1143 177.344 99.6598 177.031C100.211 176.719 100.626 176.315 100.904 175.821C101.188 175.327 101.33 174.807 101.33 174.261V172.42C101.245 172.523 101.058 172.616 100.768 172.702C100.484 172.781 100.154 172.852 99.7791 172.915C99.4098 172.972 99.049 173.023 98.6967 173.068C98.3501 173.108 98.0689 173.142 97.853 173.17C97.3303 173.239 96.8416 173.349 96.3871 173.503C95.9382 173.651 95.5746 173.875 95.2962 174.176C95.0234 174.472 94.8871 174.875 94.8871 175.386C94.8871 176.085 95.1456 176.614 95.6626 176.972C96.1854 177.324 96.8473 177.5 97.6484 177.5ZM112.706 165.909V167.614H105.922V165.909H112.706ZM107.899 162.773H109.911V175.25C109.911 175.818 109.993 176.244 110.158 176.528C110.328 176.807 110.544 176.994 110.805 177.091C111.072 177.182 111.354 177.227 111.649 177.227C111.871 177.227 112.053 177.216 112.195 177.193C112.337 177.165 112.45 177.142 112.536 177.125L112.945 178.932C112.808 178.983 112.618 179.034 112.374 179.085C112.129 179.142 111.82 179.17 111.445 179.17C110.876 179.17 110.32 179.048 109.774 178.804C109.234 178.56 108.786 178.188 108.428 177.688C108.075 177.188 107.899 176.557 107.899 175.795V162.773ZM121.08 179.273C119.818 179.273 118.73 178.994 117.815 178.438C116.906 177.875 116.205 177.091 115.71 176.085C115.222 175.074 114.977 173.898 114.977 172.557C114.977 171.216 115.222 170.034 115.71 169.011C116.205 167.983 116.892 167.182 117.773 166.608C118.659 166.028 119.693 165.739 120.875 165.739C121.557 165.739 122.23 165.852 122.895 166.08C123.56 166.307 124.165 166.676 124.71 167.188C125.256 167.693 125.69 168.364 126.014 169.199C126.338 170.034 126.5 171.062 126.5 172.284V173.136H116.409V171.398H124.455C124.455 170.659 124.307 170 124.011 169.42C123.722 168.841 123.307 168.384 122.767 168.048C122.233 167.713 121.602 167.545 120.875 167.545C120.074 167.545 119.381 167.744 118.795 168.142C118.216 168.534 117.77 169.045 117.457 169.676C117.145 170.307 116.989 170.983 116.989 171.705V172.864C116.989 173.852 117.159 174.69 117.5 175.378C117.847 176.06 118.327 176.58 118.94 176.938C119.554 177.29 120.267 177.466 121.08 177.466C121.608 177.466 122.085 177.392 122.511 177.244C122.943 177.091 123.315 176.864 123.628 176.562C123.94 176.256 124.182 175.875 124.352 175.42L126.295 175.966C126.091 176.625 125.747 177.205 125.264 177.705C124.781 178.199 124.185 178.585 123.474 178.864C122.764 179.136 121.966 179.273 121.08 179.273ZM136.276 179V177.466L142.037 171.159C142.713 170.42 143.27 169.778 143.707 169.233C144.145 168.682 144.469 168.165 144.679 167.682C144.895 167.193 145.003 166.682 145.003 166.148C145.003 165.534 144.855 165.003 144.56 164.554C144.27 164.105 143.872 163.759 143.366 163.514C142.861 163.27 142.293 163.148 141.662 163.148C140.991 163.148 140.406 163.287 139.906 163.565C139.412 163.838 139.028 164.222 138.756 164.716C138.489 165.21 138.355 165.79 138.355 166.455H136.344C136.344 165.432 136.58 164.534 137.051 163.761C137.523 162.989 138.165 162.386 138.977 161.955C139.795 161.523 140.713 161.307 141.73 161.307C142.753 161.307 143.659 161.523 144.449 161.955C145.239 162.386 145.858 162.969 146.307 163.702C146.756 164.435 146.98 165.25 146.98 166.148C146.98 166.79 146.864 167.418 146.631 168.031C146.403 168.639 146.006 169.318 145.438 170.068C144.875 170.812 144.094 171.722 143.094 172.795L139.173 176.989V177.125H147.287V179H136.276Z" fill="#000759"/>
<path d="M66.5 73.5H63.5V88.5C63.5 88.8978 63.658 89.2794 63.9393 89.5607C64.2206 89.842 64.6022 90 65 90H78.5V87H66.5V73.5Z" fill="#898FCF"/>
<path d="M66.5 45H81.5V57H84.5V43.5C84.5 43.1022 84.342 42.7206 84.0607 42.4393C83.7794 42.158 83.3978 42 83 42H65C64.6022 42 64.2206 42.158 63.9393 42.4393C63.658 42.7206 63.5 43.1022 63.5 43.5V57H66.5V45Z" fill="#898FCF"/>
<path d="M131 70.5H94.724C94.5254 69.9458 94.2196 69.4361 93.824 69C94.4102 68.3574 94.7967 67.558 94.9362 66.6994C95.0758 65.8409 94.9625 64.9603 94.61 64.165C94.2576 63.3698 93.6813 62.6944 92.9515 62.2211C92.2216 61.7479 91.3698 61.4973 90.5 61.5H89V39C89 38.6022 88.842 38.2206 88.5607 37.9393C88.2794 37.658 87.8978 37.5 87.5 37.5H60.5C60.1022 37.5 59.7206 37.658 59.4393 37.9393C59.158 38.2206 59 38.6022 59 39V61.5H57.5C56.3065 61.5 55.1619 61.9741 54.318 62.818C53.4741 63.6619 53 64.8065 53 66V87.879L50.963 89.916L49.3715 88.779C49.0635 88.5593 48.6838 88.4641 48.3085 88.5125C47.9333 88.5609 47.5902 88.7493 47.348 89.04L39.848 98.04C39.6233 98.3095 39.5002 98.6492 39.5 99V111C39.5 111.398 39.658 111.779 39.9393 112.061C40.2206 112.342 40.6022 112.5 41 112.5H53V129C53 129.398 53.158 129.779 53.4393 130.061C53.7206 130.342 54.1022 130.5 54.5 130.5H131C131.398 130.5 131.779 130.342 132.061 130.061C132.342 129.779 132.5 129.398 132.5 129V72C132.5 71.6022 132.342 71.2206 132.061 70.9393C131.779 70.658 131.398 70.5 131 70.5ZM92 84C92 84.3978 91.842 84.7794 91.5607 85.0607C91.2794 85.342 90.8978 85.5 90.5 85.5H84.5C84.1022 85.5 83.7206 85.342 83.4393 85.0607C83.158 84.7794 83 84.3978 83 84C83 83.6022 83.158 83.2206 83.4393 82.9393C83.7206 82.658 84.1022 82.5 84.5 82.5H90.5C90.8978 82.5 91.2794 82.658 91.5607 82.9393C91.842 83.2206 92 83.6022 92 84ZM62 91.5V70.5H65.582C66.664 71.4567 68.0557 71.9895 69.5 72V69.33C69.9404 68.9419 70.2994 68.4703 70.5561 67.9425C70.8129 67.4147 70.9624 66.8412 70.9959 66.2552C71.0293 65.6692 70.9462 65.0824 70.7512 64.5287C70.5562 63.9751 70.2533 63.4657 69.86 63.03C70.5866 63.1178 71.256 63.4682 71.7422 64.0152C72.2285 64.5622 72.498 65.2681 72.5 66C72.4876 66.921 72.6901 67.8321 73.0917 68.661C73.4932 69.4899 74.0826 70.2137 74.8129 70.7749C75.5433 71.336 76.3945 71.719 77.2989 71.8934C78.2033 72.0678 79.1358 72.0288 80.0225 71.7795C80.0225 71.8545 80 71.9295 80 72C80.0039 73.1106 80.421 74.18 81.17 75C80.4176 75.8179 79.9999 76.8887 79.9999 78C79.9999 79.1113 80.4176 80.1821 81.17 81C80.5835 81.643 80.1969 82.4429 80.0575 83.302C79.9181 84.1612 80.032 85.0423 80.3852 85.8377C80.7383 86.6332 81.3156 87.3086 82.0463 87.7813C82.777 88.2541 83.6297 88.5039 84.5 88.5H86V91.5H62ZM92 72C92 72.3978 91.842 72.7794 91.5607 73.0607C91.2794 73.342 90.8978 73.5 90.5 73.5H84.5C84.1022 73.5 83.7206 73.342 83.4393 73.0607C83.158 72.7794 83 72.3978 83 72C83 71.6022 83.158 71.2206 83.4393 70.9393C83.7206 70.658 84.1022 70.5 84.5 70.5H90.5C90.8978 70.5 91.2794 70.658 91.5607 70.9393C91.842 71.2206 92 71.6022 92 72ZM92 78C92 78.3978 91.842 78.7794 91.5607 79.0607C91.2794 79.342 90.8978 79.5 90.5 79.5H84.5C84.1022 79.5 83.7206 79.342 83.4393 79.0607C83.158 78.7794 83 78.3978 83 78C83 77.6022 83.158 77.2206 83.4393 76.9393C83.7206 76.658 84.1022 76.5 84.5 76.5H90.5C90.8978 76.5 91.2794 76.658 91.5607 76.9393C91.842 77.2206 92 77.6022 92 78ZM92 66C92 66.3978 91.842 66.7794 91.5607 67.0607C91.2794 67.342 90.8978 67.5 90.5 67.5H84.5C84.1022 67.5 83.7206 67.342 83.4393 67.0607C83.158 66.7794 83 66.3978 83 66C83 65.6022 83.158 65.2206 83.4393 64.9393C83.7206 64.658 84.1022 64.5 84.5 64.5H90.5C90.8978 64.5 91.2794 64.658 91.5607 64.9393C91.842 65.2206 92 65.6022 92 66ZM62 40.5H86V61.5H84.5C83.9217 61.5015 83.3491 61.6151 82.814 61.8345C82.2549 61.2548 81.5847 60.7937 80.8436 60.4785C80.1024 60.1633 79.3054 60.0006 78.5 60V63C79.2747 63.0034 80.0178 63.3072 80.573 63.8475C80.198 64.5024 80.0008 65.2439 80.0008 65.9985C80.0008 66.7531 80.198 67.4946 80.573 68.1495C80.1521 68.5616 79.6186 68.8398 79.0398 68.9493C78.461 69.0588 77.8628 68.9946 77.3204 68.7648C76.778 68.535 76.3158 68.1499 75.9918 67.6579C75.6679 67.1659 75.4968 66.589 75.5 66C75.5068 64.8482 75.1799 63.7191 74.5589 62.7491C73.9379 61.779 73.0492 61.0096 72.0003 60.5337C70.9514 60.0578 69.7872 59.8958 68.6482 60.0673C67.5092 60.2387 66.4443 60.7364 65.582 61.5H62V40.5ZM55.5605 89.5605C55.8418 89.2793 55.9999 88.8978 56 88.5V66C56 65.6022 56.158 65.2206 56.4393 64.9393C56.7206 64.658 57.1022 64.5 57.5 64.5H66.5C66.8978 64.5 67.2794 64.658 67.5607 64.9393C67.842 65.2206 68 65.6022 68 66C68 66.3978 67.842 66.7794 67.5607 67.0607C67.2794 67.342 66.8978 67.5 66.5 67.5H60.5C60.1022 67.5 59.7206 67.658 59.4393 67.9393C59.158 68.2206 59 68.6022 59 69V93C59 93.3978 59.158 93.7794 59.4393 94.0607C59.7206 94.342 60.1022 94.5 60.5 94.5H76.379L74.879 96H69.5C69.2531 96 69.01 96.0609 68.7923 96.1773C68.5746 96.2938 68.389 96.4621 68.252 96.6675L65.7245 100.459L53.438 91.683L55.5605 89.5605ZM42.5 99.543L48.761 92.0295L67.379 105.329L64.25 109.5H42.5V99.543ZM129.5 127.5H56V112.5H65C65.2329 112.5 65.4625 112.446 65.6708 112.342C65.8791 112.238 66.0603 112.086 66.2 111.9L70.7 105.9C70.82 105.74 70.9068 105.558 70.9553 105.364C71.0038 105.17 71.013 104.968 70.9824 104.77C70.9518 104.573 70.882 104.383 70.7771 104.213C70.6722 104.043 70.5343 103.895 70.3715 103.779L68.1665 102.204L70.3025 99H75.5C75.8978 98.9999 76.2793 98.8418 76.5605 98.5605L80.621 94.5H87.5C87.8978 94.5 88.2794 94.342 88.5607 94.0607C88.842 93.7794 89 93.3978 89 93V88.5H90.5C91.3703 88.5039 92.223 88.2541 92.9537 87.7813C93.6844 87.3086 94.2617 86.6332 94.6148 85.8377C94.968 85.0423 95.0819 84.1612 94.9425 83.302C94.8031 82.4429 94.4166 81.643 93.83 81C94.2256 80.5639 94.5314 80.0542 94.73 79.5H99.5V82.5H102.5V79.5H105.5V82.5H108.5V79.5H111.5V82.5H114.5V79.5H117.5V82.5H120.5V79.5H123.5V84H120.5V87H123.5V90H120.5V93H123.5V96H120.5V99H123.5V102H120.5V105H123.5V108H120.5V111H123.5V114H120.5V117H123.5V121.5H113V108C113 107.602 112.842 107.221 112.561 106.939C112.279 106.658 111.898 106.5 111.5 106.5H105.5C105.102 106.5 104.721 106.658 104.439 106.939C104.158 107.221 104 107.602 104 108V121.5H101V114C101 113.602 100.842 113.221 100.561 112.939C100.279 112.658 99.8978 112.5 99.5 112.5H93.5C93.1022 112.5 92.7206 112.658 92.4393 112.939C92.158 113.221 92 113.602 92 114V121.5H89V111C89 110.602 88.842 110.221 88.5607 109.939C88.2794 109.658 87.8978 109.5 87.5 109.5H81.5C81.1022 109.5 80.7206 109.658 80.4393 109.939C80.158 110.221 80 110.602 80 111V121.5H62V124.5H125C125.398 124.5 125.779 124.342 126.061 124.061C126.342 123.779 126.5 123.398 126.5 123V78C126.5 77.6022 126.342 77.2206 126.061 76.9393C125.779 76.658 125.398 76.5 125 76.5H94.724C94.5254 75.9458 94.2196 75.4361 93.824 75C94.2196 74.5639 94.5254 74.0542 94.724 73.5H129.5V127.5ZM110 121.5H107V109.5H110V121.5ZM98 121.5H95V115.5H98V121.5ZM86 121.5H83V112.5H86V121.5Z" fill="#898FCF"/>
<path d="M86.078 101.043L95.528 109.143C95.8069 109.382 96.1641 109.511 96.5316 109.504C96.899 109.498 97.2513 109.356 97.5215 109.107L114.5 93.426V96H117.5V90C117.5 89.6022 117.342 89.2206 117.061 88.9393C116.779 88.658 116.398 88.5 116 88.5H110V91.5H112.163L96.464 105.993L86.9765 97.8615C86.6895 97.6155 86.3203 97.4868 85.9427 97.5013C85.565 97.5158 85.2067 97.6723 84.9395 97.9395L68.4395 114.439L70.5605 116.561L86.078 101.043Z" fill="#898FCF"/>
</svg>
