<svg width="25" height="24" viewBox="0 0 25 24" fill="none" xmlns="http://www.w3.org/2000/svg">
<path d="M2.5 0H4.5V24H2.5V0Z" fill="#E8EDEF"/>
<path d="M0 0H2V24H0V0Z" fill="#E8EDEF"/>
<path d="M5 0H7V24H5V0Z" fill="#E8EDEF"/>
<path d="M7.5 0H9.5V24H7.5V0Z" fill="#E8EDEF"/>
<path d="M10 0H12V24H10V0Z" fill="#E8EDEF"/>
<path d="M12.5 0H14.5V24H12.5V0Z" fill="#E8EDEF"/>
<path d="M15 0H17V24H15V0Z" fill="#E8EDEF"/>
<path d="M17.5 0H19.5V24H17.5V0Z" fill="#E8EDEF"/>
<path d="M20 0H22V24H20V0Z" fill="#E8EDEF"/>
<path d="M22.5 0H24.5V24H22.5V0Z" fill="#E8EDEF"/>
</svg>
