<svg width="34" height="44" viewBox="0 0 34 44" fill="none" xmlns="http://www.w3.org/2000/svg">
<path d="M0 38.9684C0.0977681 39.3497 0.427916 39.7395 0.880876 39.8371H2.24987L2.3197 39.8647V43.3192H3.17457V39.8647L3.25223 39.8371H4.62243C5.08045 39.7191 5.40349 39.3497 5.49958 38.9684V38.96H0V38.9684Z" fill="white"/>
<path d="M8.46117 43.3296H11.7134C12.1659 43.2396 12.5022 42.841 12.5964 42.4551H7.57812C7.6718 42.8411 8.01302 43.2396 8.46117 43.3296Z" fill="white"/>
<path d="M8.46117 41.5575H11.7134C12.1659 41.4683 12.5022 41.0695 12.5964 40.6831H7.57812C7.6718 41.0696 8.01302 41.4683 8.46117 41.5575Z" fill="white"/>
<path d="M8.46117 39.8332H11.7134C12.1659 39.743 12.5022 39.3446 12.5964 38.9585H7.57812C7.6718 39.3446 8.01302 39.743 8.46117 39.8332Z" fill="white"/>
<path d="M15.8781 39.8245H18.8827C19.3356 39.6929 19.716 39.3479 19.8087 38.9653H15.0359V41.5438H18.9423V42.4486L15.8781 42.451C15.3979 42.5849 14.9907 42.9074 14.7876 43.3332L15.0359 43.3287H19.7816V40.6865H15.8781V39.8245Z" fill="white"/>
<path d="M26.1031 43.3309C26.5297 43.1501 26.7592 42.8373 26.8471 42.4713H23.0523L23.0548 38.9653L22.2041 38.9677V43.3309H26.1031Z" fill="white"/>
<path d="M29.4172 39.8378H32.6705C33.1224 39.7479 33.4585 39.3492 33.5532 38.9634H28.5347C28.6285 39.3493 28.9694 39.7479 29.4172 39.8378Z" fill="white"/>
<path d="M28.666 40.6899V43.3282H29.5121V41.5717H32.5914V43.3282H33.4369V40.6945L28.666 40.6899Z" fill="white"/>
<path d="M16.7797 30.2315L21.0088 6.38664C25.04 6.38664 26.3115 6.82978 26.4951 8.63859C26.4951 8.63859 29.1993 7.62776 30.5632 5.57479C25.2409 3.10234 19.8931 2.99083 19.8931 2.99083L16.7727 6.8011L16.7797 6.80062L13.6592 2.99023C13.6592 2.99023 8.31136 3.10186 2.98975 5.57432C4.35246 7.62729 7.05773 8.63812 7.05773 8.63812C7.24239 6.82919 8.51235 6.38604 12.5164 6.38317L16.7797 30.2315Z" fill="white"/>
<path d="M16.7767 1.81436C21.0792 1.78176 26.0039 2.47383 31.0452 4.65094C31.719 3.44929 31.8923 2.91821 31.8923 2.91821C26.3813 0.757872 21.2203 0.0185452 16.7761 0C12.3321 0.0185452 7.17139 0.75799 1.66113 2.91821C1.66113 2.91821 1.90695 3.57237 2.50756 4.65094C7.54799 2.47383 12.4735 1.78176 16.7761 1.81436H16.7767Z" fill="white"/>
</svg>
