<svg width="10" height="12" viewBox="0 0 10 12" fill="none" xmlns="http://www.w3.org/2000/svg">
<path d="M9.50325 0.672C9.42858 1.42933 9.39125 2.112 9.39125 2.72C9.39125 3.25333 9.40725 3.69067 9.43925 4.032H9.07125C8.98592 3.21067 8.87925 2.60267 8.75125 2.208C8.62325 1.80267 8.39925 1.50933 8.07925 1.328C7.75925 1.136 7.26858 1.04 6.60725 1.04H5.74325V10.144C5.74325 10.592 5.78592 10.9173 5.87125 11.12C5.95658 11.3227 6.10592 11.4613 6.31925 11.536C6.53258 11.6107 6.87925 11.6587 7.35925 11.68V12C6.80458 11.968 6.02058 11.952 5.00725 11.952C3.94058 11.952 3.15125 11.968 2.63925 12V11.68C3.11925 11.6587 3.46592 11.6107 3.67925 11.536C3.89258 11.4613 4.04192 11.3227 4.12725 11.12C4.21258 10.9173 4.25525 10.592 4.25525 10.144V1.04H3.39125C2.72992 1.04 2.23925 1.136 1.91925 1.328C1.59925 1.50933 1.37525 1.80267 1.24725 2.208C1.11925 2.60267 1.01258 3.21067 0.92725 4.032H0.55925C0.59125 3.69067 0.60725 3.25333 0.60725 2.72C0.60725 2.112 0.569917 1.42933 0.49525 0.672C1.38058 0.704 2.88458 0.719999 5.00725 0.719999C7.11925 0.719999 8.61792 0.704 9.50325 0.672Z" fill="#E8EDEF"/>
</svg>
