<svg width="18" height="18" viewBox="0 0 18 18" fill="none" xmlns="http://www.w3.org/2000/svg">
<g id="todo">
<path id="Vector" d="M14.0873 5.33598L7.95176 11.3348C7.895 11.3904 7.82758 11.4345 7.75336 11.4646C7.67913 11.4947 7.59957 11.5102 7.51921 11.5102C7.43885 11.5102 7.35929 11.4947 7.28506 11.4646C7.21084 11.4345 7.14342 11.3904 7.08666 11.3348L5.35031 9.6371C5.2935 9.58156 5.24844 9.51563 5.2177 9.44306C5.18696 9.3705 5.17114 9.29273 5.17114 9.21419C5.17114 9.13564 5.18696 9.05787 5.2177 8.98531C5.24844 8.91274 5.2935 8.84681 5.35031 8.79127C5.40711 8.73573 5.47455 8.69168 5.54876 8.66162C5.62298 8.63157 5.70253 8.6161 5.78286 8.6161C5.86319 8.6161 5.94274 8.63157 6.01696 8.66162C6.09117 8.69168 6.15861 8.73573 6.21541 8.79127L7.51614 10.063L13.216 4.49015C13.2728 4.43454 13.3402 4.39042 13.4144 4.36032C13.4887 4.33022 13.5682 4.31472 13.6486 4.31472C13.7289 4.31472 13.8085 4.33022 13.8827 4.36032C13.957 4.39042 14.0244 4.43454 14.0811 4.49015C14.3266 4.7241 14.3266 5.10203 14.0873 5.33598ZM8.38739 13.8002C5.49756 13.8002 3.18447 11.3467 3.50965 8.46134C3.74894 6.34977 5.42393 4.61613 7.56523 4.2682C8.67575 4.08823 9.73106 4.2802 10.6268 4.7361C10.7717 4.81008 10.9406 4.82478 11.0965 4.77697C11.2524 4.72916 11.3825 4.62275 11.4582 4.48115C11.5339 4.33956 11.5489 4.17437 11.5 4.02194C11.4511 3.8695 11.3423 3.7423 11.1975 3.66832C10.2955 3.21841 9.27704 2.97246 8.19105 3.00246C5.0374 3.09844 2.41753 5.60592 2.25801 8.68329C2.08008 12.1446 4.89014 15 8.38739 15C9.12365 15 9.8231 14.874 10.4796 14.6401C10.8968 14.4901 11.0134 13.9622 10.6943 13.6503C10.6129 13.5696 10.5093 13.5136 10.3961 13.4891C10.2829 13.4647 10.1649 13.4727 10.0562 13.5123C9.53473 13.6983 8.97026 13.8002 8.38739 13.8002ZM12.6822 10.8009H11.4551C11.1177 10.8009 10.8416 11.0708 10.8416 11.4007C10.8416 11.7307 11.1177 12.0006 11.4551 12.0006H12.6822V13.2004C12.6822 13.5303 12.9583 13.8002 13.2958 13.8002C13.6332 13.8002 13.9093 13.5303 13.9093 13.2004V12.0006H15.1364C15.4739 12.0006 15.75 11.7307 15.75 11.4007C15.75 11.0708 15.4739 10.8009 15.1364 10.8009H13.9093V9.60111C13.9093 9.27117 13.6332 9.00123 13.2958 9.00123C12.9583 9.00123 12.6822 9.27117 12.6822 9.60111V10.8009Z" fill="#EFEEEE"/>
</g>
</svg>
