<svg width="24" height="24" viewBox="0 0 24 24" fill="none" xmlns="http://www.w3.org/2000/svg">
<path d="M2 0H3.77778V24H2V0Z" fill="#E8EDEF"/>
<path d="M0 0H1.77778V24H0V0Z" fill="#E8EDEF"/>
<path d="M4 0H5.77778V24H4V0Z" fill="#E8EDEF"/>
<path d="M6 0H7.77778V24H6V0Z" fill="#E8EDEF"/>
<path d="M8 0H9.77778V24H8V0Z" fill="#E8EDEF"/>
<path d="M10 0H11.7778V24H10V0Z" fill="#E8EDEF"/>
<path d="M12 0H13.7778V24H12V0Z" fill="#E8EDEF"/>
<path d="M14 0H15.7778V24H14V0Z" fill="#E8EDEF"/>
<path d="M16 0H17.7778V24H16V0Z" fill="#E8EDEF"/>
<path d="M18 0H19.7778V24H18V0Z" fill="#E8EDEF"/>
<path d="M20 0H21.7778V24H20V0Z" fill="#E8EDEF"/>
<path d="M22 0H23.7778V24H22V0Z" fill="#E8EDEF"/>
</svg>
