<svg width="42" height="36" viewBox="0 0 42 36" fill="none" xmlns="http://www.w3.org/2000/svg">
<path d="M27.9844 0.893233C22.8247 0.790052 17.5028 3.74475 16.043 10.4117C10.1014 8.3837 4.73668 12.3836 5.29395 18.7702C2.1852 20.0267 0 23.0638 0 26.6334C0 31.3338 3.78401 35.1178 8.48438 35.1178H18.791C18.7882 32.2613 18.7822 26.5297 18.7822 25.444L16.3652 26.3199C14.6117 27.0756 13.3167 24.8675 14.8183 23.4927L19.3915 19.0484C20.4361 18.0038 21.6837 18.1236 22.6084 19.0484L27.1816 23.4927C28.6833 24.8675 27.3882 27.0756 25.6348 26.3199L23.2178 25.444V35.1178H33.5156C38.216 35.1178 42 31.3338 42 26.6334C42 23.1739 39.9466 20.2165 36.9902 18.8932C42.7186 7.72562 35.5254 1.04381 27.9844 0.893233Z" fill="#75B5FF"/>
<path d="M27.9841 0.892263C27.6966 0.886594 27.3812 0.896463 27.0934 0.909219C20.5034 11.2951 30.688 18.8917 36.9899 18.8917C42.7183 7.72408 35.5251 1.04232 27.9841 0.891744V0.892263Z" fill="#488BFF"/>
</svg>
