<svg width="97" height="97" viewBox="0 0 97 97" fill="none" xmlns="http://www.w3.org/2000/svg">
<g filter="url(#filter0_d_357_195)">
<circle cx="48.5" cy="44.5" r="32.5" fill="white" fill-opacity="0.9" shape-rendering="crispEdges"/>
</g>
<path d="M34.9375 62.4375H63.0625C63.2117 62.4375 63.3548 62.3782 63.4602 62.2727C63.5657 62.1673 63.625 62.0242 63.625 61.875V59.7938C63.625 58.108 62.9553 56.4912 61.7633 55.2992C60.5713 54.1072 58.9545 53.4375 57.2688 53.4375H54.7577C54.3149 53.439 53.8806 53.3165 53.5039 53.0838C53.1272 52.851 52.8232 52.5174 52.6264 52.1207C52.4617 51.7895 52.3756 51.4247 52.375 51.0548V49.7936C53.8061 49.0581 54.9595 47.8776 55.6617 46.4299C55.8836 45.9659 56.0758 45.4883 56.2371 45H56.7693C57.2447 45.0005 57.7098 44.8612 58.1067 44.5994C58.5037 44.3377 58.8149 43.9651 59.0018 43.5279L60.0531 41.0743C60.1837 40.7709 60.2508 40.4439 60.2501 40.1135C60.2495 39.7832 60.1812 39.4564 60.0494 39.1535C59.9177 38.8505 59.7252 38.5778 59.484 38.3521C59.2428 38.1264 58.9579 37.9524 58.6469 37.8411L59.0806 34.6871C59.1113 34.4634 59.1267 34.2379 59.1267 34.0121V32.9996C59.1276 32.2714 58.968 31.5519 58.6591 30.8924C58.3502 30.2329 57.8997 29.6497 57.3396 29.1842C56.0807 28.1367 54.4948 27.5629 52.8571 27.5625H52.7446C52.0649 27.5623 51.3896 27.6719 50.7449 27.8871C49.7792 28.2129 48.7324 28.208 47.7698 27.873C47.1543 27.6676 46.5096 27.5627 45.8607 27.5625C44.3687 27.6183 42.9087 28.0112 41.5902 28.7117C40.4544 29.3794 39.5428 30.3696 38.971 31.5565C38.3992 32.7435 38.1931 34.0736 38.3789 35.3779L38.7726 38.1431C38.3199 38.4629 37.9907 38.9285 37.8401 39.462C37.6896 39.9955 37.7269 40.5645 37.9457 41.0738L38.9971 43.5279C39.184 43.9653 39.4955 44.338 39.8926 44.5998C40.2898 44.8615 40.7551 45.0007 41.2308 45H41.737C41.9019 45.5031 42.1005 45.9946 42.3316 46.4709C43.0407 47.9089 44.196 49.0789 45.625 49.806V51.0548C45.6244 51.4245 45.5384 51.7891 45.3736 52.1201C45.1769 52.517 44.873 52.8507 44.4963 53.0836C44.1196 53.3165 43.6851 53.4391 43.2423 53.4375H40.7312C39.0455 53.4375 37.4287 54.1072 36.2367 55.2992C35.0447 56.4912 34.375 58.108 34.375 59.7938V61.875C34.375 62.0242 34.4343 62.1673 34.5398 62.2727C34.6452 62.3782 34.7883 62.4375 34.9375 62.4375ZM59.125 40.1169C59.1252 40.2935 59.0892 40.4683 59.0193 40.6305L57.9679 43.0875C57.867 43.3216 57.6996 43.5209 57.4866 43.6609C57.2736 43.8008 57.0242 43.8753 56.7693 43.875H56.5572C56.7673 42.9694 56.8739 42.0428 56.875 41.1131V38.8125H57.8206C58.1664 38.8128 58.498 38.9503 58.7426 39.1949C58.9872 39.4395 59.1247 39.7711 59.125 40.1169ZM41.2308 43.875C40.9758 43.8753 40.7264 43.8008 40.5134 43.6609C40.3004 43.5209 40.133 43.3216 40.0321 43.0875L38.9808 40.6327C38.9103 40.4699 38.8743 40.2943 38.875 40.1169C38.8753 39.7711 39.0128 39.4395 39.2574 39.1949C39.502 38.9503 39.8336 38.8128 40.1794 38.8125H41.125V41.2605C41.1262 42.1403 41.2252 43.0171 41.4203 43.875H41.2308ZM41.125 37.5188V37.6875H40.1794C40.0689 37.6911 39.9588 37.7022 39.8498 37.7207L39.4938 35.2187C39.4553 34.9485 39.4365 34.6759 39.4375 34.4031C39.4392 33.4478 39.6909 32.5097 40.1676 31.6819C40.6444 30.8541 41.3295 30.1656 42.1549 29.6848C43.3026 29.0859 44.5675 28.7455 45.8607 28.6875C46.4046 28.6885 46.9446 28.7788 47.4593 28.9547C48.6423 29.3466 49.9202 29.3466 51.1032 28.9547C51.6333 28.7777 52.1885 28.6874 52.7474 28.6875H52.8599C54.2338 28.6882 55.5642 29.1698 56.6202 30.0488C57.0529 30.4091 57.4009 30.8604 57.6394 31.3705C57.8779 31.8806 58.001 32.4371 58 33.0002V34.0127C58 34.1878 57.9882 34.3628 57.9646 34.5364L57.5309 37.6875H56.7996C56.6542 37.0498 56.2969 36.4802 55.7861 36.0715C55.2754 35.6629 54.6412 35.4394 53.9871 35.4375C53.7023 35.4375 53.4182 35.4094 53.1389 35.3537L51.9959 35.1248C51.3621 34.9983 50.7972 34.6423 50.4096 34.1252C50.059 33.66 49.6052 33.2824 49.084 33.0221C48.5629 32.7618 47.9884 32.6259 47.4059 32.625H46.0188C44.7208 32.625 43.4761 33.1406 42.5583 34.0583C41.6406 34.9761 41.125 36.2208 41.125 37.5188ZM43.3413 45.9754C42.6254 44.5066 42.2522 42.8945 42.25 41.2605V37.5188C42.25 36.5192 42.6471 35.5606 43.3538 34.8538C44.0606 34.1471 45.0192 33.75 46.0188 33.75H47.4047C47.8124 33.751 48.2143 33.8463 48.5789 34.0286C48.9435 34.2109 49.2609 34.4752 49.5063 34.8007C50.0598 35.5392 50.8664 36.0474 51.7714 36.2278L52.9144 36.4567C53.2663 36.5271 53.6243 36.5625 53.9832 36.5625C54.4516 36.5628 54.9007 36.749 55.232 37.0801C55.5632 37.4113 55.7496 37.8604 55.75 38.3287V41.1131C55.7478 42.7846 55.3715 44.4345 54.6486 45.9416C54.1367 47.0043 53.3361 47.9014 52.3383 48.5304C51.3406 49.1594 50.1859 49.4949 49.0064 49.4985C47.8269 49.5022 46.6702 49.1738 45.6686 48.551C44.6669 47.9281 43.8608 47.036 43.3424 45.9765L43.3413 45.9754ZM48.9865 50.625C49.7554 50.6234 50.5192 50.5007 51.25 50.2616V51.0548C51.24 51.7246 51.434 52.3816 51.8063 52.9386C51.7898 53.5231 51.5463 54.0783 51.1275 54.4865C50.7086 54.8946 50.1473 55.1236 49.5625 55.125H48.4375C47.8526 55.1236 47.2912 54.8945 46.8723 54.4863C46.4535 54.078 46.2101 53.5227 46.1937 52.938C46.2613 52.8364 46.3235 52.7312 46.3799 52.623C46.6226 52.1358 46.7493 51.5991 46.75 51.0548V50.2673C47.4725 50.5016 48.227 50.6223 48.9865 50.625ZM35.5 59.7938C35.5 58.4063 36.0511 57.0757 37.0322 56.0947C38.0132 55.1136 39.3438 54.5625 40.7312 54.5625H43.2417C43.9547 54.5621 44.6504 54.3432 45.2352 53.9353C45.4585 54.6084 45.888 55.1941 46.4627 55.6095C47.0375 56.025 47.7283 56.249 48.4375 56.25H49.5625C50.2716 56.2489 50.9623 56.0248 51.5369 55.6094C52.1115 55.1939 52.5409 54.6083 52.7643 53.9353C53.349 54.3432 54.0448 54.5621 54.7577 54.5625H57.2688C58.6562 54.5625 59.9868 55.1136 60.9678 56.0947C61.9489 57.0757 62.5 58.4063 62.5 59.7938V61.3125H35.5V59.7938Z" fill="black"/>
<defs>
<filter id="filter0_d_357_195" x="0" y="0" width="97" height="97" filterUnits="userSpaceOnUse" color-interpolation-filters="sRGB">
<feFlood flood-opacity="0" result="BackgroundImageFix"/>
<feColorMatrix in="SourceAlpha" type="matrix" values="0 0 0 0 0 0 0 0 0 0 0 0 0 0 0 0 0 0 127 0" result="hardAlpha"/>
<feOffset dy="4"/>
<feGaussianBlur stdDeviation="8"/>
<feComposite in2="hardAlpha" operator="out"/>
<feColorMatrix type="matrix" values="0 0 0 0 0 0 0 0 0 0 0 0 0 0 0 0 0 0 0.25 0"/>
<feBlend mode="normal" in2="BackgroundImageFix" result="effect1_dropShadow_357_195"/>
<feBlend mode="normal" in="SourceGraphic" in2="effect1_dropShadow_357_195" result="shape"/>
</filter>
</defs>
</svg>
