<svg width="18" height="21" viewBox="0 0 18 21" fill="none" xmlns="http://www.w3.org/2000/svg">
<path d="M12.2266 11.75C11.0938 11.75 10.5859 12.375 8.75 12.375C6.875 12.375 6.36719 11.75 5.23438 11.75C2.34375 11.75 0 14.1328 0 17.0234V18.625C0 19.6797 0.820312 20.5 1.875 20.5H15.625C16.6406 20.5 17.5 19.6797 17.5 18.625V17.0234C17.5 14.1328 15.1172 11.75 12.2266 11.75ZM16.25 18.625C16.25 18.9766 15.9375 19.25 15.625 19.25H1.875C1.52344 19.25 1.25 18.9766 1.25 18.625V17.0234C1.25 14.7969 3.00781 13 5.23438 13C6.01562 13 6.75781 13.625 8.75 13.625C10.7031 13.625 11.4844 13 12.2266 13C14.4531 13 16.25 14.7969 16.25 17.0234V18.625ZM8.75 10.5C11.4844 10.5 13.75 8.27344 13.75 5.5C13.75 2.76562 11.4844 0.5 8.75 0.5C5.97656 0.5 3.75 2.76562 3.75 5.5C3.75 8.27344 5.97656 10.5 8.75 10.5ZM8.75 1.75C10.7812 1.75 12.5 3.46875 12.5 5.5C12.5 7.57031 10.7812 9.25 8.75 9.25C6.67969 9.25 5 7.57031 5 5.5C5 3.46875 6.67969 1.75 8.75 1.75Z" fill="#C7C7C7"/>
</svg>
