<svg width="32" height="32" viewBox="0 0 32 32" fill="none" xmlns="http://www.w3.org/2000/svg">
<path d="M30.8903 32L21.7344 16.7403V6.17419L15.5602 0H1.10938V28.25H13.3443L11.2193 32H30.8903ZM14.437 30.125L20.8201 18.8608L27.5786 30.125H14.437ZM16.1094 3.20081L18.5336 5.625H16.1094V3.20081ZM2.98437 26.375V1.875H14.2344V7.5H19.8594V16.7528L14.4069 26.375H2.98437Z" fill="white"/>
<path d="M19.8594 27.3125H21.7344V29.1875H19.8594V27.3125Z" fill="white"/>
<path d="M19.8594 21.6875H21.7344V25.4375H19.8594V21.6875Z" fill="white"/>
<path d="M5.79688 11.375H17.0469V13.25H5.79688V11.375Z" fill="white"/>
<path d="M5.79688 15.125H17.0469V17H5.79688V15.125Z" fill="white"/>
<path d="M5.79688 18.875H13.2969V20.75H5.79688V18.875Z" fill="white"/>
</svg>
