<svg width="21" height="21" viewBox="0 0 21 21" fill="none" xmlns="http://www.w3.org/2000/svg">
<ellipse cx="10.5" cy="10.5" rx="10.5" ry="10.5" transform="rotate(-180 10.5 10.5)" fill="#A2A2A3"/>
<circle cx="10.4997" cy="10.5026" r="5.54167" fill="white"/>
<path d="M10.4997 2.58594C6.12176 2.58594 2.58301 6.12469 2.58301 10.5026C2.58301 14.8805 6.12176 18.4193 10.4997 18.4193C14.8776 18.4193 18.4163 14.8805 18.4163 10.5026C18.4163 6.12469 14.8776 2.58594 10.4997 2.58594ZM13.9038 13.9068C13.8306 13.9802 13.7436 14.0384 13.6478 14.0781C13.5521 14.1178 13.4494 14.1383 13.3457 14.1383C13.242 14.1383 13.1394 14.1178 13.0436 14.0781C12.9478 14.0384 12.8608 13.9802 12.7876 13.9068L10.4997 11.6189L8.21176 13.9068C8.06373 14.0548 7.86297 14.138 7.65363 14.138C7.44429 14.138 7.24353 14.0548 7.09551 13.9068C6.94748 13.7587 6.86432 13.558 6.86432 13.3486C6.86432 13.245 6.88474 13.1424 6.92441 13.0466C6.96407 12.9508 7.02221 12.8638 7.09551 12.7905L9.38342 10.5026L7.09551 8.21469C6.94748 8.06666 6.86432 7.8659 6.86432 7.65656C6.86432 7.44722 6.94748 7.24646 7.09551 7.09844C7.24353 6.95041 7.44429 6.86725 7.65363 6.86725C7.86297 6.86725 8.06373 6.95041 8.21176 7.09844L10.4997 9.38635L12.7876 7.09844C12.8609 7.02514 12.9479 6.967 13.0437 6.92734C13.1394 6.88767 13.2421 6.86725 13.3457 6.86725C13.4494 6.86725 13.552 6.88767 13.6478 6.92734C13.7435 6.967 13.8305 7.02514 13.9038 7.09844C13.9771 7.17173 14.0353 7.25874 14.0749 7.35451C14.1146 7.45027 14.135 7.55291 14.135 7.65656C14.135 7.76022 14.1146 7.86285 14.0749 7.95862C14.0353 8.05438 13.9771 8.14139 13.9038 8.21469L11.6159 10.5026L13.9038 12.7905C14.2047 13.0914 14.2047 13.598 13.9038 13.9068Z" fill="#A2A2A3"/>
</svg>
