<svg width="16" height="11" viewBox="0 0 16 11" fill="none" xmlns="http://www.w3.org/2000/svg">
<path d="M14.9727 1.375C14.8086 1.375 14.6445 1.42969 14.4805 1.53906L11.5 3.42578V1.8125C11.5 1.10156 10.8438 0.5 10.0781 0.5H1.51953C0.753906 0.5 0.125 1.10156 0.125 1.8125V9.71484C0.125 10.4258 0.753906 11 1.51953 11H10.0781C10.8438 11 11.5 10.4258 11.5 9.71484V8.10156L14.4805 9.98828C14.6445 10.0977 14.8086 10.125 14.9727 10.125C15.4375 10.125 15.875 9.76953 15.875 9.27734V2.25C15.875 1.73047 15.4375 1.375 14.9727 1.375ZM10.1875 4.21875V9.66016C10.1602 9.6875 10.1328 9.6875 10.0781 9.6875H1.51953C1.46484 9.6875 1.4375 9.6875 1.4375 9.66016V1.86719C1.4375 1.83984 1.46484 1.8125 1.51953 1.8125H10.0781C10.1328 1.8125 10.1602 1.83984 10.1875 1.86719V4.21875ZM14.5625 8.48438L11.5 6.57031V4.95703L14.5625 3.04297V8.48438Z" fill="#E8EDEF"/>
</svg>
