<svg width="76" height="76" viewBox="0 0 76 76" fill="none" xmlns="http://www.w3.org/2000/svg">
<rect width="76" height="76" rx="38" fill="#E7EFFE"/>
<g clip-path="url(#clip0_2407_532)">
<path d="M49.875 22.875H27.125C24.9709 22.8776 22.9058 23.7344 21.3826 25.2576C19.8594 26.7808 19.0026 28.8459 19 31L19 40.75C19.0026 42.9041 19.8594 44.9692 21.3826 46.4924C22.9058 48.0156 24.9709 48.8724 27.125 48.875H36.875V50.5H32C31.569 50.5 31.1557 50.6712 30.851 50.976C30.5462 51.2807 30.375 51.694 30.375 52.125C30.375 52.556 30.5462 52.9693 30.851 53.274C31.1557 53.5788 31.569 53.75 32 53.75H45C45.431 53.75 45.8443 53.5788 46.149 53.274C46.4538 52.9693 46.625 52.556 46.625 52.125C46.625 51.694 46.4538 51.2807 46.149 50.976C45.8443 50.6712 45.431 50.5 45 50.5H40.125V48.875H49.875C52.0291 48.8724 54.0942 48.0156 55.6174 46.4924C57.1406 44.9692 57.9974 42.9041 58 40.75V31C57.9974 28.8459 57.1406 26.7808 55.6174 25.2576C54.0942 23.7344 52.0291 22.8776 49.875 22.875ZM54.75 40.75C54.75 42.0429 54.2364 43.2829 53.3221 44.1971C52.4079 45.1114 51.1679 45.625 49.875 45.625H27.125C25.8321 45.625 24.5921 45.1114 23.6779 44.1971C22.7636 43.2829 22.25 42.0429 22.25 40.75V31C22.25 29.7071 22.7636 28.4671 23.6779 27.5529C24.5921 26.6386 25.8321 26.125 27.125 26.125H49.875C51.1679 26.125 52.4079 26.6386 53.3221 27.5529C54.2364 28.4671 54.75 29.7071 54.75 31V40.75Z" fill="#374957"/>
</g>
<defs>
<clipPath id="clip0_2407_532">
<rect width="39" height="39" fill="white" transform="translate(19 18)"/>
</clipPath>
</defs>
</svg>
