<svg width="35" height="35" viewBox="0 0 35 35" fill="none" xmlns="http://www.w3.org/2000/svg">
<g clip-path="url(#clip0_499_2226)">
<path d="M28.4926 27.2959L25.1492 11.9717C24.919 10.9168 24.3291 9.96284 23.4882 9.28549C22.6472 8.60834 21.5894 8.23535 20.5097 8.23535H14.201C11.9453 8.23535 9.98697 9.84082 9.5446 12.0528L6.49514 27.3001C5.11339 27.7767 4.11768 29.0893 4.11768 30.6309V35.0001H30.8824V30.6309C30.8824 29.0847 29.8808 27.769 28.4926 27.2959ZM11.5634 12.4565C11.814 11.2036 12.9233 10.2942 14.201 10.2942H20.5097C21.7649 10.2942 22.8701 11.1843 23.1377 12.4106L26.3444 27.1079H18.5294V24.5937C20.6852 24.1211 22.304 22.1975 22.304 19.902C22.304 17.2531 20.149 15.0981 17.5 15.0981C14.8511 15.0981 12.6961 17.2531 12.6961 19.902C12.6961 22.1975 14.3149 24.1211 16.4706 24.5937V27.1079H8.63316L11.5634 12.4565ZM17.5 22.6471C15.9864 22.6471 14.7549 21.4157 14.7549 19.902C14.7549 18.3884 15.9864 17.1569 17.5 17.1569C19.0137 17.1569 20.2451 18.3884 20.2451 19.902C20.2451 21.4157 19.0137 22.6471 17.5 22.6471ZM28.8236 32.9412H6.1765V30.6309C6.1765 29.8236 6.83333 29.1667 7.64067 29.1667H27.3594C28.1667 29.1667 28.8236 29.8236 28.8236 30.6309V32.9412Z" fill="white"/>
<path d="M16.4707 0H18.5295V6.17647H16.4707V0Z" fill="white"/>
<path d="M28.4092 12.9873L34.4683 11.7767L34.8718 13.7964L28.8127 15.007L28.4092 12.9873Z" fill="white"/>
<path d="M25.0044 6.82324L29.3712 2.45648L30.8267 3.91207L26.46 8.27883L25.0044 6.82324Z" fill="white"/>
<path d="M0.145508 13.7842L0.549051 11.7644L6.60817 12.975L6.20463 14.9948L0.145508 13.7842Z" fill="white"/>
<path d="M4.16846 3.90967L5.62405 2.45408L9.99081 6.82084L8.53522 8.27643L4.16846 3.90967Z" fill="white"/>
</g>
<defs>
<clipPath id="clip0_499_2226">
<rect width="35" height="35" fill="white"/>
</clipPath>
</defs>
</svg>
