<svg width="24" height="24" viewBox="0 0 24 24" fill="none" xmlns="http://www.w3.org/2000/svg">
<rect width="24" height="24" fill="white"/>
<g clip-path="url(#clip0_15541_75735)">
<rect x="3.6875" y="5.57031" width="16.5429" height="12.9429" fill="white"/>
<path d="M20.1871 4.83884H13.6279V3.20312H12.4052L3 4.84292V19.1512L12.3501 20.7869H13.6279V19.1573H19.7659C20.1135 19.1409 20.4999 19.1675 20.7984 18.9549C21.0376 18.5889 20.9763 18.1309 20.9967 17.7179V5.63214C21.0397 5.16597 20.6533 4.7918 20.1871 4.83884ZM9.82084 14.7736C9.4794 14.9515 8.96823 14.7655 8.56341 14.7941C8.29147 13.4406 7.97454 12.0952 7.73126 10.7355C7.49202 12.0563 7.18124 13.3649 6.90727 14.6775C6.51471 14.6571 6.12012 14.6325 5.72549 14.606C5.38605 12.8067 4.98738 11.0197 4.67045 9.21636C5.02008 9.20001 5.37175 9.1857 5.72137 9.17343C5.93196 10.4759 6.1712 11.7721 6.35524 13.0766C6.64352 11.7394 6.93792 10.4022 7.2242 9.06508C7.61268 9.04258 8.00115 9.02623 8.38963 9.00577C8.66156 10.3859 8.93961 11.764 9.23405 13.1379C9.46509 11.719 9.72064 10.3041 9.96807 8.88719C10.377 8.87288 10.7859 8.85038 11.1928 8.82584C10.7307 10.8071 10.3259 12.8047 9.82084 14.7736ZM20.0236 18.1862H13.6279V16.9021H18.9439V16.0842H13.6279V15.0619H18.9439V14.2441H13.6279V13.2217H18.9439V12.4039H13.6279V11.3816H18.9439V10.5638H13.6279V9.54145H18.9439V8.72361H13.6279V7.7013H18.9439V6.88346H13.6279V5.80381H20.0236V18.1862Z" fill="#295497"/>
</g>
<defs>
<clipPath id="clip0_15541_75735">
<rect width="18" height="18" fill="white" transform="translate(3 3)"/>
</clipPath>
</defs>
</svg>
