<svg width="76" height="76" viewBox="0 0 76 76" fill="none" xmlns="http://www.w3.org/2000/svg">
<rect width="76" height="76" rx="38" fill="#E7EFFE"/>
<g clip-path="url(#clip0_2407_537)">
<path d="M47.4295 19.3174L30.1575 36.5894C29.4978 37.2456 28.9749 38.026 28.6189 38.8856C28.2629 39.7452 28.0809 40.6669 28.0835 41.5974V43.4999C28.0835 43.8757 28.2328 44.236 28.4985 44.5017C28.7641 44.7674 29.1245 44.9166 29.5002 44.9166H31.4028C32.3332 44.9192 33.2549 44.7373 34.1145 44.3813C34.9741 44.0253 35.7546 43.5023 36.4107 42.8426L53.6827 25.5706C54.5106 24.7407 54.9755 23.6163 54.9755 22.444C54.9755 21.2718 54.5106 20.1474 53.6827 19.3174C52.8407 18.5126 51.7208 18.0635 50.5561 18.0635C49.3914 18.0635 48.2715 18.5126 47.4295 19.3174ZM51.6795 23.5674L34.4075 40.8394C33.6087 41.6334 32.529 42.0803 31.4028 42.0833H30.9169V41.5974C30.9198 40.4711 31.3667 39.3914 32.1607 38.5926L49.4327 21.3206C49.7353 21.0315 50.1376 20.8702 50.5561 20.8702C50.9746 20.8702 51.3769 21.0315 51.6795 21.3206C51.9769 21.6188 52.144 22.0228 52.144 22.444C52.144 22.8652 51.9769 23.2692 51.6795 23.5674Z" fill="#374957"/>
<path d="M53.5833 30.7203C53.2076 30.7203 52.8473 30.8695 52.5816 31.1352C52.3159 31.4009 52.1667 31.7612 52.1667 32.1369V39.25H46.5C45.3728 39.25 44.2918 39.6978 43.4948 40.4948C42.6978 41.2918 42.25 42.3728 42.25 43.5V49.1667H28.0833C26.9562 49.1667 25.8752 48.7189 25.0781 47.9219C24.2811 47.1248 23.8333 46.0438 23.8333 44.9167V25.0833C23.8333 23.9562 24.2811 22.8752 25.0781 22.0781C25.8752 21.2811 26.9562 20.8333 28.0833 20.8333H40.8928C41.2686 20.8333 41.6289 20.6841 41.8946 20.4184C42.1602 20.1527 42.3095 19.7924 42.3095 19.4167C42.3095 19.0409 42.1602 18.6806 41.8946 18.4149C41.6289 18.1493 41.2686 18 40.8928 18H28.0833C26.2054 18.0022 24.405 18.7492 23.0771 20.0771C21.7492 21.405 21.0022 23.2054 21 25.0833L21 44.9167C21.0022 46.7946 21.7492 48.595 23.0771 49.9229C24.405 51.2508 26.2054 51.9978 28.0833 52H44.1526C45.0832 52.0027 46.0051 51.8207 46.865 51.4647C47.7248 51.1087 48.5055 50.5857 49.1619 49.926L52.9246 46.1605C53.5844 45.5044 54.1076 44.724 54.4638 43.8644C54.82 43.0048 55.0023 42.0831 55 41.1526V32.1369C55 31.7612 54.8507 31.4009 54.5851 31.1352C54.3194 30.8695 53.9591 30.7203 53.5833 30.7203ZM47.1588 47.9228C46.5893 48.4909 45.8691 48.8842 45.0833 49.0562V43.5C45.0833 43.1243 45.2326 42.7639 45.4983 42.4983C45.7639 42.2326 46.1243 42.0833 46.5 42.0833H52.0604C51.8852 42.8675 51.4924 43.5863 50.9271 44.1573L47.1588 47.9228Z" fill="#374957"/>
</g>
<defs>
<clipPath id="clip0_2407_537">
<rect width="34" height="34" fill="white" transform="translate(21 18)"/>
</clipPath>
</defs>
</svg>
