<svg width="157" height="30" viewBox="0 0 157 30" fill="none" xmlns="http://www.w3.org/2000/svg">
<g clip-path="url(#clip0_184_93766)">
<path d="M57.3379 15.0373C57.3508 13.8562 57.1287 12.6843 56.6845 11.5899C56.2403 10.4954 55.5828 9.50027 54.7504 8.66228C53.9551 7.79713 52.9863 7.10948 51.9072 6.64424C50.8281 6.17899 49.6629 5.94661 48.4879 5.96228C47.3088 5.94298 46.1388 6.17144 45.0535 6.63289C43.9683 7.09434 42.992 7.77849 42.1879 8.64108C41.3522 9.48056 40.6928 10.4786 40.2485 11.5767C39.8041 12.6747 39.5838 13.8504 39.6004 15.0348V23.6998C39.6111 24.5279 39.4519 25.3495 39.1328 26.1138C38.8137 26.878 38.3414 27.5688 37.745 28.1435C37.1703 28.7402 36.4794 29.2127 35.7149 29.532C34.9505 29.8512 34.1288 30.0104 33.3004 29.9998V15.0373C33.2709 13.0527 33.6521 11.0834 34.4201 9.25321C35.188 7.42298 36.3261 5.77132 37.7629 4.40195C39.1594 2.98031 40.8301 1.85709 42.6737 1.10038C44.5173 0.34367 46.4953 -0.030765 48.4879 -0.000224541C50.4746 -0.0282257 52.4462 0.347517 54.2834 1.10423C56.1205 1.86094 57.7848 2.98285 59.1754 4.40195C60.6117 5.77085 61.7495 7.42185 62.5174 9.25134C63.2853 11.0808 63.6668 13.0493 63.6379 15.0332V29.9998C62.8097 30.0103 61.9881 29.8511 61.2238 29.5318C60.4595 29.2125 59.7688 28.7401 59.1942 28.1435C58.5976 27.5689 58.1251 26.8781 57.8059 26.1139C57.4866 25.3496 57.3274 24.528 57.3379 23.6998V15.0373ZM81.7129 -0.000224541C83.7022 -0.0271329 85.6764 0.349035 87.5164 1.10561C89.3564 1.86218 91.0242 2.98349 92.4192 4.40195C93.8607 5.76788 95.0034 7.41784 95.7752 9.24768C96.5469 11.0775 96.9309 13.0475 96.9029 15.0332C96.9336 17.0144 96.5508 18.9802 95.7787 20.805C95.0067 22.6298 93.8625 24.2735 92.4192 25.631C91.0191 27.0405 89.3497 28.1536 87.5103 28.9042C85.671 29.6547 83.6993 30.0273 81.7129 29.9998C79.7291 30.0284 77.76 29.6562 75.9236 28.9055C74.0871 28.1548 72.4211 27.0411 71.0254 25.631C69.5874 24.2705 68.4481 22.6258 67.6798 20.8013C66.9116 18.9769 66.5312 17.0126 66.5629 15.0332C66.534 13.0493 66.9155 11.0808 67.6834 9.25134C68.4513 7.42185 69.5892 5.77085 71.0254 4.40195C72.416 2.98285 74.0803 1.86094 75.9175 1.10423C77.7546 0.347517 79.7262 -0.0282257 81.7129 -0.000224541ZM81.7129 5.96228C80.5364 5.94189 79.3688 6.16994 78.2865 6.63154C77.2041 7.09314 76.2313 7.7779 75.4317 8.64108C74.601 9.48333 73.9462 10.4823 73.5052 11.58C73.0642 12.6776 72.8459 13.852 72.8629 15.0348C72.8434 16.2127 73.0607 17.3826 73.5019 18.4749C73.9432 19.5672 74.5994 20.5597 75.4317 21.3935C76.2367 22.2475 77.2113 22.9238 78.2929 23.3791C79.3746 23.8344 80.5395 24.0586 81.7129 24.0373C82.8889 24.0575 84.0563 23.8329 85.1409 23.3778C86.2254 22.9226 87.2035 22.2469 88.0129 21.3935C88.85 20.5624 89.5107 19.5708 89.9553 18.4781C90.4 17.3855 90.6194 16.2143 90.6004 15.0348C90.617 13.8504 90.3967 12.6747 89.9523 11.5767C89.508 10.4786 88.8486 9.48056 88.0129 8.64108C87.2088 7.77849 86.2325 7.09434 85.1473 6.63289C84.0621 6.17144 82.892 5.94298 81.7129 5.96228ZM99.3379 15.0373V29.9998H114.525C116.518 30.0299 118.496 29.6586 120.342 28.908C122.187 28.1575 123.863 27.043 125.269 25.631C126.712 24.2735 127.857 22.6298 128.629 20.805C129.401 18.9802 129.784 17.0144 129.753 15.0332C129.78 13.0459 129.394 11.0745 128.619 9.24434C127.844 7.41416 126.697 5.76514 125.25 4.40195C123.851 2.98412 122.18 1.86341 120.337 1.10697C118.494 0.350533 116.517 -0.0260549 114.525 -0.000224541C112.536 -0.0271329 110.562 0.349035 108.722 1.10561C106.882 1.86218 105.214 2.98349 103.819 4.40195C102.378 5.76856 101.235 7.41928 100.464 9.24985C99.6923 11.0804 99.309 13.0511 99.3379 15.0373ZM105.675 24.0373V15.0373C105.658 13.8545 105.877 12.6801 106.318 11.5824C106.759 10.4848 107.414 9.48577 108.244 8.64352C109.044 7.7799 110.016 7.09469 111.099 6.63266C112.181 6.17064 113.349 5.9422 114.525 5.96228C115.702 5.9422 116.87 6.17064 117.952 6.63266C119.035 7.09469 120.007 7.7799 120.807 8.64352C121.637 9.48577 122.292 10.4848 122.733 11.5824C123.174 12.6801 123.392 13.8545 123.375 15.0373C123.395 16.2152 123.178 17.385 122.736 18.4773C122.295 19.5696 121.639 20.5622 120.807 21.396C120.002 22.25 119.027 22.9263 117.945 23.3816C116.864 23.8368 115.699 24.061 114.525 24.0397L105.675 24.0373ZM147.338 29.9998C145.354 30.0284 143.385 29.6562 141.549 28.9055C139.712 28.1548 138.046 27.0411 136.65 25.631C135.212 24.2705 134.073 22.6258 133.305 20.8013C132.537 18.9769 132.156 17.0126 132.188 15.0332C132.159 13.0493 132.54 11.0808 133.308 9.25134C134.076 7.42185 135.214 5.77085 136.65 4.40195C138.041 2.98285 139.705 1.86094 141.542 1.10423C143.38 0.347517 145.351 -0.0282257 147.338 -0.000224541H156.224C156.236 0.786405 156.086 1.56712 155.783 2.29304C155.479 3.01896 155.03 3.67447 154.461 4.21853C153.91 4.78154 153.25 5.22647 152.521 5.52625C151.792 5.82603 151.01 5.97438 150.222 5.96228H147.335C146.16 5.94661 144.995 6.17899 143.915 6.64424C142.836 7.10948 141.867 7.79713 141.072 8.66228C140.24 9.50027 139.582 10.4954 139.138 11.5899C138.694 12.6843 138.472 13.8562 138.485 15.0373C138.47 16.2131 138.691 17.3799 139.135 18.4686C139.58 19.5572 140.238 20.5455 141.072 21.3748C141.873 22.2304 142.844 22.9092 143.922 23.3677C145.001 23.8262 146.163 24.0543 147.335 24.0373H150.222C151.01 24.0252 151.792 24.1735 152.521 24.4733C153.25 24.7731 153.91 25.218 154.461 25.781C155.03 26.3249 155.48 26.9804 155.784 27.7063C156.087 28.4322 156.238 29.213 156.225 29.9998H147.338ZM145.238 12.0373H156.225C156.239 12.8213 156.089 13.5995 155.786 14.3226C155.482 15.0456 155.032 15.6976 154.463 16.2373C153.909 16.7954 153.248 17.2358 152.519 17.5323C151.791 17.8287 151.01 17.9749 150.224 17.9623H145.236C144.847 17.9701 144.461 17.8994 144.1 17.7545C143.739 17.6095 143.412 17.3932 143.136 17.1185C142.856 16.8504 142.635 16.5269 142.486 16.1686C142.338 15.8103 142.265 15.425 142.274 15.0373C142.263 14.6426 142.333 14.2498 142.478 13.8825C142.623 13.5152 142.84 13.181 143.118 12.8998C143.392 12.6168 143.722 12.394 144.087 12.2455C144.452 12.097 144.844 12.0261 145.238 12.0373Z" fill="#000759"/>
<path d="M30.3377 29.9999H24.0377V26.6249C24.0506 25.4438 23.8285 24.2719 23.3843 23.1775C22.9401 22.083 22.2826 21.0879 21.4502 20.2499C20.6549 19.3847 19.6861 18.6971 18.607 18.2318C17.5279 17.7666 16.3627 17.5342 15.1877 17.5499C14.0081 17.5307 12.8377 17.7594 11.7521 18.2213C10.6666 18.6832 9.69017 19.3679 8.88608 20.2311C8.05069 21.0707 7.39159 22.0689 6.94752 23.1669C6.50345 24.2649 6.28336 25.4406 6.30021 26.6249V29.9999H0.000206857V26.6249C-0.0105353 24.2709 0.548882 21.9493 1.63064 19.8586C2.70997 17.7545 4.27147 15.9355 6.18771 14.5499C4.27525 13.1689 2.71423 11.3577 1.63064 9.26237C0.547243 7.1781 -0.0123533 4.86137 0.000206857 2.51237V0.449872H6.30021V2.51237C6.28336 3.69666 6.50345 4.87236 6.94752 5.97036C7.39159 7.06837 8.05069 8.06651 8.88608 8.90612C9.68999 9.76915 10.6662 10.4538 11.7514 10.9156C12.8366 11.3775 14.0068 11.6064 15.1861 11.5874C16.3615 11.6031 17.527 11.3705 18.6064 10.905C19.6859 10.4395 20.6549 9.75139 21.4502 8.88574C22.2826 8.04775 22.9401 7.05258 23.3843 5.95813C23.8285 4.86369 24.0506 3.69183 24.0377 2.51074V0.448242H30.3377V2.51074C30.3503 4.85974 29.7907 7.17647 28.7073 9.26074C27.63 11.3488 26.0832 13.1587 24.1885 14.5482C26.0902 15.9457 27.6378 17.7695 28.7073 19.8732C29.7851 21.9596 30.3444 24.2749 30.3377 26.6232V29.9999Z" fill="#EF018F"/>
</g>
<defs>
<clipPath id="clip0_184_93766">
<rect width="156.225" height="30" fill="white"/>
</clipPath>
</defs>
</svg>
