<svg width="278" height="53" viewBox="0 0 278 53" fill="none" xmlns="http://www.w3.org/2000/svg">
<path d="M102.029 26.5654C102.052 24.4788 101.657 22.4085 100.866 20.475C100.076 18.5415 98.906 16.7834 97.4247 15.3029C96.0095 13.7745 94.2855 12.5596 92.3652 11.7377C90.445 10.9158 88.3717 10.5052 86.2807 10.5329C84.1825 10.4988 82.1004 10.9024 80.1693 11.7177C78.2381 12.5329 76.5009 13.7416 75.0699 15.2655C73.5829 16.7485 72.4095 18.5118 71.6188 20.4516C70.828 22.3914 70.4359 24.4686 70.4655 26.5611V41.8692C70.4845 43.3322 70.2013 44.7836 69.6335 46.1339C69.0656 47.4841 68.2251 48.7045 67.1638 49.7198C66.1411 50.7738 64.9117 51.6087 63.5514 52.1727C62.1911 52.7367 60.7288 53.018 59.2548 52.9992V26.5654C59.2023 23.0593 59.8807 19.5803 61.2472 16.3469C62.6138 13.1135 64.639 10.1955 67.1957 7.77632C69.6808 5.26476 72.6538 3.2804 75.9344 1.94355C79.215 0.606695 82.7349 -0.0548073 86.2807 -0.000852419C89.8159 -0.0503212 93.3245 0.613491 96.5936 1.95035C99.8628 3.2872 102.824 5.26925 105.299 7.77632C107.855 10.1947 109.879 13.1115 111.246 16.3436C112.612 19.5757 113.291 23.0533 113.24 26.5582V52.9992C111.766 53.0178 110.304 52.7364 108.944 52.1724C107.584 51.6084 106.355 50.7737 105.332 49.7198C104.271 48.7046 103.43 47.4843 102.862 46.134C102.294 44.7838 102.01 43.3323 102.029 41.8692V26.5654ZM145.404 -0.000852419C148.944 -0.0483905 152.457 0.616173 155.731 1.95278C159.006 3.2894 161.973 5.27038 164.456 7.77632C167.021 10.1895 169.054 13.1044 170.428 16.3371C171.801 19.5698 172.484 23.0501 172.434 26.5582C172.489 30.0583 171.808 33.5312 170.434 36.7551C169.06 39.9789 167.024 42.8827 164.456 45.281C161.964 47.771 158.994 49.7376 155.72 51.0636C152.447 52.3896 148.939 53.0479 145.404 52.9992C141.874 53.0497 138.37 52.3922 135.102 51.066C131.834 49.7397 128.869 47.7721 126.386 45.281C123.827 42.8775 121.799 39.9718 120.432 36.7486C119.065 33.5254 118.388 30.0551 118.445 26.5582C118.393 23.0533 119.072 19.5757 120.439 16.3436C121.805 13.1115 123.83 10.1947 126.386 7.77632C128.86 5.26925 131.822 3.2872 135.091 1.95035C138.36 0.613491 141.869 -0.0503212 145.404 -0.000852419ZM145.404 10.5329C143.311 10.4969 141.233 10.8998 139.307 11.7153C137.381 12.5308 135.65 13.7405 134.227 15.2655C132.749 16.7534 131.583 18.5183 130.799 20.4575C130.014 22.3967 129.625 24.4715 129.656 26.5611C129.621 28.6421 130.008 30.7088 130.793 32.6385C131.578 34.5683 132.746 36.3217 134.227 37.7948C135.659 39.3035 137.393 40.4983 139.318 41.3026C141.243 42.107 143.316 42.503 145.404 42.4654C147.497 42.5011 149.574 42.1043 151.504 41.3002C153.434 40.4962 155.174 39.3024 156.615 37.7948C158.104 36.3264 159.28 34.5746 160.071 32.6443C160.863 30.7139 161.253 28.6448 161.219 26.5611C161.249 24.4686 160.857 22.3914 160.066 20.4516C159.275 18.5118 158.102 16.7485 156.615 15.2655C155.184 13.7416 153.447 12.5329 151.515 11.7177C149.584 10.9024 147.502 10.4988 145.404 10.5329ZM176.767 26.5654V52.9992H203.793C207.339 53.0523 210.859 52.3964 214.143 51.0704C217.428 49.7444 220.41 47.7755 222.912 45.281C225.48 42.8827 227.516 39.9789 228.89 36.7551C230.264 33.5312 230.945 30.0583 230.89 26.5582C230.939 23.0472 230.252 19.5645 228.873 16.3312C227.494 13.0979 225.452 10.1846 222.878 7.77632C220.388 5.27149 217.414 3.29156 214.135 1.95519C210.855 0.618819 207.338 -0.0464861 203.793 -0.000852419C200.253 -0.0483905 196.741 0.616173 193.466 1.95278C190.192 3.2894 187.224 5.27038 184.742 7.77632C182.176 10.1907 180.143 13.1069 178.771 16.3409C177.398 19.575 176.716 23.0564 176.767 26.5654ZM188.045 42.4654V26.5654C188.015 24.4758 188.403 22.401 189.188 20.4618C189.973 18.5227 191.138 16.7577 192.616 15.2698C194.039 13.744 195.77 12.5335 197.696 11.7172C199.622 10.901 201.7 10.4974 203.793 10.5329C205.887 10.4974 207.965 10.901 209.891 11.7172C211.817 12.5335 213.548 13.744 214.971 15.2698C216.449 16.7577 217.614 18.5227 218.399 20.4618C219.184 22.401 219.572 24.4758 219.542 26.5654C219.577 28.6464 219.19 30.7131 218.405 32.6428C217.619 34.5726 216.452 36.326 214.971 37.7991C213.538 39.3078 211.804 40.5026 209.879 41.307C207.954 42.1113 205.881 42.5073 203.793 42.4697L188.045 42.4654ZM262.183 52.9992C258.653 53.0497 255.149 52.3922 251.881 51.066C248.613 49.7397 245.648 47.7721 243.164 45.281C240.606 42.8775 238.578 39.9718 237.211 36.7486C235.844 33.5254 235.167 30.0551 235.224 26.5582C235.172 23.0533 235.851 19.5757 237.217 16.3436C238.584 13.1115 240.609 10.1947 243.164 7.77632C245.639 5.26925 248.601 3.2872 251.87 1.95035C255.139 0.613491 258.647 -0.0503212 262.183 -0.000852419H277.995C278.017 1.38886 277.75 2.76812 277.21 4.05058C276.67 5.33304 275.87 6.4911 274.859 7.45227C273.878 8.44693 272.703 9.23298 271.406 9.76259C270.109 10.2922 268.717 10.5543 267.315 10.5329H262.177C260.086 10.5052 258.013 10.9158 256.092 11.7377C254.172 12.5596 252.448 13.7745 251.033 15.3029C249.552 16.7834 248.382 18.5415 247.591 20.475C246.801 22.4085 246.406 24.4788 246.428 26.5654C246.402 28.6426 246.796 30.7041 247.586 32.6273C248.377 34.5506 249.549 36.2966 251.033 37.7617C252.458 39.2732 254.185 40.4724 256.104 41.2824C258.023 42.0925 260.092 42.4954 262.177 42.4654H267.315C268.717 42.444 270.109 42.7061 271.406 43.2357C272.703 43.7653 273.878 44.5514 274.859 45.546C275.87 46.507 276.671 47.6649 277.212 48.9474C277.752 50.2298 278.02 51.6092 277.998 52.9992H262.183ZM258.446 21.2654H277.998C278.022 22.6505 277.755 24.0254 277.215 25.3027C276.676 26.5801 275.874 27.7321 274.862 28.6854C273.876 29.6714 272.699 30.4495 271.403 30.9732C270.107 31.4969 268.717 31.7553 267.318 31.7329H258.443C257.751 31.7468 257.064 31.6219 256.421 31.3657C255.779 31.1096 255.196 30.7275 254.706 30.2423C254.207 29.7686 253.813 29.1971 253.549 28.5641C253.285 27.9311 253.156 27.2504 253.171 26.5654C253.153 25.8681 253.276 25.1742 253.534 24.5253C253.792 23.8764 254.179 23.2859 254.673 22.7891C255.161 22.2892 255.748 21.8956 256.398 21.6333C257.047 21.371 257.745 21.2457 258.446 21.2654Z" fill="white"/>
<path d="M53.9855 52.9969H42.7747V47.0344C42.7977 44.9479 42.4024 42.8776 41.6119 40.9441C40.8215 39.0105 39.6516 37.2524 38.1703 35.7719C36.7551 34.2435 35.0311 33.0287 33.1108 32.2067C31.1906 31.3848 29.1172 30.9743 27.0263 31.0019C24.9273 30.968 22.8445 31.3721 20.9128 32.1881C18.9811 33.0041 17.2435 34.2138 15.8126 35.7388C14.3261 37.2221 13.1532 38.9855 12.363 40.9253C11.5728 42.8651 11.1811 44.9422 11.2111 47.0344V52.9969H0.000368098V47.0344C-0.0187475 42.8757 0.976728 38.7743 2.9017 35.0806C4.82236 31.3635 7.60101 28.1499 11.0109 25.7019C7.60774 23.2623 4.82994 20.0624 2.9017 16.3607C0.973811 12.6785 -0.0219825 8.58559 0.000368098 4.4357V0.791941H11.2111V4.4357C11.1811 6.52793 11.5728 8.605 12.363 10.5448C13.1532 12.4846 14.3261 14.248 15.8126 15.7313C17.2432 17.256 18.9803 18.4655 20.9114 19.2815C22.8426 20.0974 24.9249 20.5017 27.0234 20.4682C29.115 20.4959 31.189 20.0851 33.1099 19.2627C35.0307 18.4402 36.7551 17.2246 38.1703 15.6953C39.6516 14.2149 40.8215 12.4567 41.6119 10.5232C42.4024 8.58969 42.7977 6.5194 42.7747 4.43281V0.789062H53.9855V4.43281C54.0078 8.58271 53.012 12.6756 51.0842 16.3578C49.1671 20.0468 46.4147 23.2442 43.0431 25.6991C46.4271 28.168 49.1811 31.39 51.0842 35.1066C53.0022 38.7924 53.9974 42.8829 53.9855 47.0316V52.9969Z" fill="#EF018F"/>
</svg>
